G04 #@! TF.GenerationSoftware,KiCad,Pcbnew,(6.0.4-0)*
G04 #@! TF.CreationDate,2022-12-18T15:52:34+09:00*
G04 #@! TF.ProjectId,MC6803EP-SBC6809E,4d433638-3033-4455-902d-534243363830,rev?*
G04 #@! TF.SameCoordinates,Original*
G04 #@! TF.FileFunction,Legend,Bot*
G04 #@! TF.FilePolarity,Positive*
%FSLAX46Y46*%
G04 Gerber Fmt 4.6, Leading zero omitted, Abs format (unit mm)*
G04 Created by KiCad (PCBNEW (6.0.4-0)) date 2022-12-18 15:52:34*
%MOMM*%
%LPD*%
G01*
G04 APERTURE LIST*
%ADD10C,0.150000*%
%ADD11R,1.600000X1.600000*%
%ADD12O,1.600000X1.600000*%
%ADD13R,1.700000X1.700000*%
%ADD14O,1.700000X1.700000*%
%ADD15C,1.600000*%
G04 APERTURE END LIST*
D10*
X133990476Y-128252380D02*
X134561904Y-128252380D01*
X134276190Y-128252380D02*
X134276190Y-127252380D01*
X134371428Y-127395238D01*
X134466666Y-127490476D01*
X134561904Y-127538095D01*
X133085714Y-127252380D02*
X133561904Y-127252380D01*
X133609523Y-127728571D01*
X133561904Y-127680952D01*
X133466666Y-127633333D01*
X133228571Y-127633333D01*
X133133333Y-127680952D01*
X133085714Y-127728571D01*
X133038095Y-127823809D01*
X133038095Y-128061904D01*
X133085714Y-128157142D01*
X133133333Y-128204761D01*
X133228571Y-128252380D01*
X133466666Y-128252380D01*
X133561904Y-128204761D01*
X133609523Y-128157142D01*
X139090476Y-128252380D02*
X139661904Y-128252380D01*
X139376190Y-128252380D02*
X139376190Y-127252380D01*
X139471428Y-127395238D01*
X139566666Y-127490476D01*
X139661904Y-127538095D01*
X138757142Y-127252380D02*
X138138095Y-127252380D01*
X138471428Y-127633333D01*
X138328571Y-127633333D01*
X138233333Y-127680952D01*
X138185714Y-127728571D01*
X138138095Y-127823809D01*
X138138095Y-128061904D01*
X138185714Y-128157142D01*
X138233333Y-128204761D01*
X138328571Y-128252380D01*
X138614285Y-128252380D01*
X138709523Y-128204761D01*
X138757142Y-128157142D01*
X128790476Y-128252380D02*
X129361904Y-128252380D01*
X129076190Y-128252380D02*
X129076190Y-127252380D01*
X129171428Y-127395238D01*
X129266666Y-127490476D01*
X129361904Y-127538095D01*
X128457142Y-127252380D02*
X127790476Y-127252380D01*
X128219047Y-128252380D01*
X162261904Y-127447619D02*
X162214285Y-127400000D01*
X162119047Y-127352380D01*
X161880952Y-127352380D01*
X161785714Y-127400000D01*
X161738095Y-127447619D01*
X161690476Y-127542857D01*
X161690476Y-127638095D01*
X161738095Y-127780952D01*
X162309523Y-128352380D01*
X161690476Y-128352380D01*
X161071428Y-127352380D02*
X160976190Y-127352380D01*
X160880952Y-127400000D01*
X160833333Y-127447619D01*
X160785714Y-127542857D01*
X160738095Y-127733333D01*
X160738095Y-127971428D01*
X160785714Y-128161904D01*
X160833333Y-128257142D01*
X160880952Y-128304761D01*
X160976190Y-128352380D01*
X161071428Y-128352380D01*
X161166666Y-128304761D01*
X161214285Y-128257142D01*
X161261904Y-128161904D01*
X161309523Y-127971428D01*
X161309523Y-127733333D01*
X161261904Y-127542857D01*
X161214285Y-127447619D01*
X161166666Y-127400000D01*
X161071428Y-127352380D01*
X146690476Y-128252380D02*
X147261904Y-128252380D01*
X146976190Y-128252380D02*
X146976190Y-127252380D01*
X147071428Y-127395238D01*
X147166666Y-127490476D01*
X147261904Y-127538095D01*
X146071428Y-127252380D02*
X145976190Y-127252380D01*
X145880952Y-127300000D01*
X145833333Y-127347619D01*
X145785714Y-127442857D01*
X145738095Y-127633333D01*
X145738095Y-127871428D01*
X145785714Y-128061904D01*
X145833333Y-128157142D01*
X145880952Y-128204761D01*
X145976190Y-128252380D01*
X146071428Y-128252380D01*
X146166666Y-128204761D01*
X146214285Y-128157142D01*
X146261904Y-128061904D01*
X146309523Y-127871428D01*
X146309523Y-127633333D01*
X146261904Y-127442857D01*
X146214285Y-127347619D01*
X146166666Y-127300000D01*
X146071428Y-127252380D01*
X131390476Y-128252380D02*
X131961904Y-128252380D01*
X131676190Y-128252380D02*
X131676190Y-127252380D01*
X131771428Y-127395238D01*
X131866666Y-127490476D01*
X131961904Y-127538095D01*
X130533333Y-127252380D02*
X130723809Y-127252380D01*
X130819047Y-127300000D01*
X130866666Y-127347619D01*
X130961904Y-127490476D01*
X131009523Y-127680952D01*
X131009523Y-128061904D01*
X130961904Y-128157142D01*
X130914285Y-128204761D01*
X130819047Y-128252380D01*
X130628571Y-128252380D01*
X130533333Y-128204761D01*
X130485714Y-128157142D01*
X130438095Y-128061904D01*
X130438095Y-127823809D01*
X130485714Y-127728571D01*
X130533333Y-127680952D01*
X130628571Y-127633333D01*
X130819047Y-127633333D01*
X130914285Y-127680952D01*
X130961904Y-127728571D01*
X131009523Y-127823809D01*
X152061904Y-127447619D02*
X152014285Y-127400000D01*
X151919047Y-127352380D01*
X151680952Y-127352380D01*
X151585714Y-127400000D01*
X151538095Y-127447619D01*
X151490476Y-127542857D01*
X151490476Y-127638095D01*
X151538095Y-127780952D01*
X152109523Y-128352380D01*
X151490476Y-128352380D01*
X150633333Y-127685714D02*
X150633333Y-128352380D01*
X150871428Y-127304761D02*
X151109523Y-128019047D01*
X150490476Y-128019047D01*
X159661904Y-127447619D02*
X159614285Y-127400000D01*
X159519047Y-127352380D01*
X159280952Y-127352380D01*
X159185714Y-127400000D01*
X159138095Y-127447619D01*
X159090476Y-127542857D01*
X159090476Y-127638095D01*
X159138095Y-127780952D01*
X159709523Y-128352380D01*
X159090476Y-128352380D01*
X158138095Y-128352380D02*
X158709523Y-128352380D01*
X158423809Y-128352380D02*
X158423809Y-127352380D01*
X158519047Y-127495238D01*
X158614285Y-127590476D01*
X158709523Y-127638095D01*
X136590476Y-128252380D02*
X137161904Y-128252380D01*
X136876190Y-128252380D02*
X136876190Y-127252380D01*
X136971428Y-127395238D01*
X137066666Y-127490476D01*
X137161904Y-127538095D01*
X135733333Y-127585714D02*
X135733333Y-128252380D01*
X135971428Y-127204761D02*
X136209523Y-127919047D01*
X135590476Y-127919047D01*
X144090476Y-128252380D02*
X144661904Y-128252380D01*
X144376190Y-128252380D02*
X144376190Y-127252380D01*
X144471428Y-127395238D01*
X144566666Y-127490476D01*
X144661904Y-127538095D01*
X143138095Y-128252380D02*
X143709523Y-128252380D01*
X143423809Y-128252380D02*
X143423809Y-127252380D01*
X143519047Y-127395238D01*
X143614285Y-127490476D01*
X143709523Y-127538095D01*
X154761904Y-127447619D02*
X154714285Y-127400000D01*
X154619047Y-127352380D01*
X154380952Y-127352380D01*
X154285714Y-127400000D01*
X154238095Y-127447619D01*
X154190476Y-127542857D01*
X154190476Y-127638095D01*
X154238095Y-127780952D01*
X154809523Y-128352380D01*
X154190476Y-128352380D01*
X153857142Y-127352380D02*
X153238095Y-127352380D01*
X153571428Y-127733333D01*
X153428571Y-127733333D01*
X153333333Y-127780952D01*
X153285714Y-127828571D01*
X153238095Y-127923809D01*
X153238095Y-128161904D01*
X153285714Y-128257142D01*
X153333333Y-128304761D01*
X153428571Y-128352380D01*
X153714285Y-128352380D01*
X153809523Y-128304761D01*
X153857142Y-128257142D01*
X157261904Y-127447619D02*
X157214285Y-127400000D01*
X157119047Y-127352380D01*
X156880952Y-127352380D01*
X156785714Y-127400000D01*
X156738095Y-127447619D01*
X156690476Y-127542857D01*
X156690476Y-127638095D01*
X156738095Y-127780952D01*
X157309523Y-128352380D01*
X156690476Y-128352380D01*
X156309523Y-127447619D02*
X156261904Y-127400000D01*
X156166666Y-127352380D01*
X155928571Y-127352380D01*
X155833333Y-127400000D01*
X155785714Y-127447619D01*
X155738095Y-127542857D01*
X155738095Y-127638095D01*
X155785714Y-127780952D01*
X156357142Y-128352380D01*
X155738095Y-128352380D01*
X141590476Y-128252380D02*
X142161904Y-128252380D01*
X141876190Y-128252380D02*
X141876190Y-127252380D01*
X141971428Y-127395238D01*
X142066666Y-127490476D01*
X142161904Y-127538095D01*
X141209523Y-127347619D02*
X141161904Y-127300000D01*
X141066666Y-127252380D01*
X140828571Y-127252380D01*
X140733333Y-127300000D01*
X140685714Y-127347619D01*
X140638095Y-127442857D01*
X140638095Y-127538095D01*
X140685714Y-127680952D01*
X141257142Y-128252380D01*
X140638095Y-128252380D01*
%LPC*%
D11*
X129900000Y-97400000D03*
D12*
X129900000Y-99940000D03*
X129900000Y-102480000D03*
X129900000Y-105020000D03*
X129900000Y-107560000D03*
X129900000Y-110100000D03*
X129900000Y-112640000D03*
X129900000Y-115180000D03*
X129900000Y-117720000D03*
X129900000Y-120260000D03*
X137520000Y-120260000D03*
X137520000Y-117720000D03*
X137520000Y-115180000D03*
X137520000Y-112640000D03*
X137520000Y-110100000D03*
X137520000Y-107560000D03*
X137520000Y-105020000D03*
X137520000Y-102480000D03*
X137520000Y-99940000D03*
X137520000Y-97400000D03*
D11*
X141875000Y-73125000D03*
D12*
X141875000Y-75665000D03*
X141875000Y-78205000D03*
X141875000Y-80745000D03*
X141875000Y-83285000D03*
X141875000Y-85825000D03*
X141875000Y-88365000D03*
X141875000Y-90905000D03*
X141875000Y-93445000D03*
X141875000Y-95985000D03*
X141875000Y-98525000D03*
X141875000Y-101065000D03*
X141875000Y-103605000D03*
X141875000Y-106145000D03*
X141875000Y-108685000D03*
X141875000Y-111225000D03*
X141875000Y-113765000D03*
X141875000Y-116305000D03*
X141875000Y-118845000D03*
X141875000Y-121385000D03*
X157115000Y-121385000D03*
X157115000Y-118845000D03*
X157115000Y-116305000D03*
X157115000Y-113765000D03*
X157115000Y-111225000D03*
X157115000Y-108685000D03*
X157115000Y-106145000D03*
X157115000Y-103605000D03*
X157115000Y-101065000D03*
X157115000Y-98525000D03*
X157115000Y-95985000D03*
X157115000Y-93445000D03*
X157115000Y-90905000D03*
X157115000Y-88365000D03*
X157115000Y-85825000D03*
X157115000Y-83285000D03*
X157115000Y-80745000D03*
X157115000Y-78205000D03*
X157115000Y-75665000D03*
X157115000Y-73125000D03*
D11*
X129750000Y-75250000D03*
D12*
X129750000Y-77790000D03*
X129750000Y-80330000D03*
X129750000Y-82870000D03*
X129750000Y-85410000D03*
X129750000Y-87950000D03*
X129750000Y-90490000D03*
X137370000Y-90490000D03*
X137370000Y-87950000D03*
X137370000Y-85410000D03*
X137370000Y-82870000D03*
X137370000Y-80330000D03*
X137370000Y-77790000D03*
X137370000Y-75250000D03*
D11*
X109500000Y-73250000D03*
D12*
X109500000Y-75790000D03*
X109500000Y-78330000D03*
X109500000Y-80870000D03*
X109500000Y-83410000D03*
X109500000Y-85950000D03*
X109500000Y-88490000D03*
X109500000Y-91030000D03*
X109500000Y-93570000D03*
X109500000Y-96110000D03*
X109500000Y-98650000D03*
X109500000Y-101190000D03*
X109500000Y-103730000D03*
X109500000Y-106270000D03*
X109500000Y-108810000D03*
X109500000Y-111350000D03*
X109500000Y-113890000D03*
X109500000Y-116430000D03*
X109500000Y-118970000D03*
X109500000Y-121510000D03*
X124740000Y-121510000D03*
X124740000Y-118970000D03*
X124740000Y-116430000D03*
X124740000Y-113890000D03*
X124740000Y-111350000D03*
X124740000Y-108810000D03*
X124740000Y-106270000D03*
X124740000Y-103730000D03*
X124740000Y-101190000D03*
X124740000Y-98650000D03*
X124740000Y-96110000D03*
X124740000Y-93570000D03*
X124740000Y-91030000D03*
X124740000Y-88490000D03*
X124740000Y-85950000D03*
X124740000Y-83410000D03*
X124740000Y-80870000D03*
X124740000Y-78330000D03*
X124740000Y-75790000D03*
X124740000Y-73250000D03*
D13*
X146475000Y-124925000D03*
D14*
X143935000Y-124925000D03*
X141395000Y-124925000D03*
X138855000Y-124925000D03*
X136315000Y-124925000D03*
X133775000Y-124925000D03*
X131235000Y-124925000D03*
X128695000Y-124925000D03*
D15*
X146250000Y-88250000D03*
X148750000Y-88250000D03*
X138050000Y-94400000D03*
X135550000Y-94400000D03*
X137750000Y-72250000D03*
X135250000Y-72250000D03*
D13*
X162350000Y-73375000D03*
D14*
X164890000Y-73375000D03*
X162350000Y-75915000D03*
X164890000Y-75915000D03*
X162350000Y-78455000D03*
X164890000Y-78455000D03*
X162350000Y-80995000D03*
X164890000Y-80995000D03*
X162350000Y-83535000D03*
X164890000Y-83535000D03*
X162350000Y-86075000D03*
X164890000Y-86075000D03*
X162350000Y-88615000D03*
X164890000Y-88615000D03*
X162350000Y-91155000D03*
X164890000Y-91155000D03*
X162350000Y-93695000D03*
X164890000Y-93695000D03*
X162350000Y-96235000D03*
X164890000Y-96235000D03*
X162350000Y-98775000D03*
X164890000Y-98775000D03*
X162350000Y-101315000D03*
X164890000Y-101315000D03*
X162350000Y-103855000D03*
X164890000Y-103855000D03*
X162350000Y-106395000D03*
X164890000Y-106395000D03*
X162350000Y-108935000D03*
X164890000Y-108935000D03*
X162350000Y-111475000D03*
X164890000Y-111475000D03*
X162350000Y-114015000D03*
X164890000Y-114015000D03*
X162350000Y-116555000D03*
X164890000Y-116555000D03*
X162350000Y-119095000D03*
X164890000Y-119095000D03*
X162350000Y-121635000D03*
X164890000Y-121635000D03*
D15*
X151910000Y-100000000D03*
D12*
X151910000Y-110160000D03*
D15*
X152150000Y-86580000D03*
D12*
X152150000Y-76420000D03*
D15*
X146500000Y-99920000D03*
D12*
X146500000Y-110080000D03*
D13*
X161600000Y-125000000D03*
D14*
X159060000Y-125000000D03*
X156520000Y-125000000D03*
X153980000Y-125000000D03*
X151440000Y-125000000D03*
M02*
