G04 #@! TF.GenerationSoftware,KiCad,Pcbnew,(6.0.4-0)*
G04 #@! TF.CreationDate,2022-11-05T16:46:17+09:00*
G04 #@! TF.ProjectId,MC6800-SBC6809E,4d433638-3030-42d5-9342-433638303945,rev?*
G04 #@! TF.SameCoordinates,Original*
G04 #@! TF.FileFunction,Copper,L1,Top*
G04 #@! TF.FilePolarity,Positive*
%FSLAX46Y46*%
G04 Gerber Fmt 4.6, Leading zero omitted, Abs format (unit mm)*
G04 Created by KiCad (PCBNEW (6.0.4-0)) date 2022-11-05 16:46:17*
%MOMM*%
%LPD*%
G01*
G04 APERTURE LIST*
G04 #@! TA.AperFunction,ComponentPad*
%ADD10R,2.400000X1.600000*%
G04 #@! TD*
G04 #@! TA.AperFunction,ComponentPad*
%ADD11O,2.400000X1.600000*%
G04 #@! TD*
G04 #@! TA.AperFunction,ComponentPad*
%ADD12C,1.600000*%
G04 #@! TD*
G04 #@! TA.AperFunction,Conductor*
%ADD13C,0.250000*%
G04 #@! TD*
G04 APERTURE END LIST*
D10*
X130645000Y-74175000D03*
D11*
X130645000Y-76715000D03*
X130645000Y-79255000D03*
X130645000Y-81795000D03*
X130645000Y-84335000D03*
X130645000Y-86875000D03*
X130645000Y-89415000D03*
X138265000Y-89415000D03*
X138265000Y-86875000D03*
X138265000Y-84335000D03*
X138265000Y-81795000D03*
X138265000Y-79255000D03*
X138265000Y-76715000D03*
X138265000Y-74175000D03*
D10*
X111245000Y-74175000D03*
D11*
X111245000Y-76715000D03*
X111245000Y-79255000D03*
X111245000Y-81795000D03*
X111245000Y-84335000D03*
X111245000Y-86875000D03*
X111245000Y-89415000D03*
X111245000Y-91955000D03*
X111245000Y-94495000D03*
X111245000Y-97035000D03*
X111245000Y-99575000D03*
X111245000Y-102115000D03*
X111245000Y-104655000D03*
X111245000Y-107195000D03*
X111245000Y-109735000D03*
X111245000Y-112275000D03*
X111245000Y-114815000D03*
X111245000Y-117355000D03*
X111245000Y-119895000D03*
X111245000Y-122435000D03*
X126485000Y-122435000D03*
X126485000Y-119895000D03*
X126485000Y-117355000D03*
X126485000Y-114815000D03*
X126485000Y-112275000D03*
X126485000Y-109735000D03*
X126485000Y-107195000D03*
X126485000Y-104655000D03*
X126485000Y-102115000D03*
X126485000Y-99575000D03*
X126485000Y-97035000D03*
X126485000Y-94495000D03*
X126485000Y-91955000D03*
X126485000Y-89415000D03*
X126485000Y-86875000D03*
X126485000Y-84335000D03*
X126485000Y-81795000D03*
X126485000Y-79255000D03*
X126485000Y-76715000D03*
X126485000Y-74175000D03*
D12*
X139145000Y-92875000D03*
X139145000Y-95375000D03*
X138895000Y-71125000D03*
X136395000Y-71125000D03*
D10*
X142395000Y-74175000D03*
D11*
X142395000Y-76715000D03*
X142395000Y-79255000D03*
X142395000Y-81795000D03*
X142395000Y-84335000D03*
X142395000Y-86875000D03*
X142395000Y-89415000D03*
X142395000Y-91955000D03*
X142395000Y-94495000D03*
X142395000Y-97035000D03*
X142395000Y-99575000D03*
X142395000Y-102115000D03*
X142395000Y-104655000D03*
X142395000Y-107195000D03*
X142395000Y-109735000D03*
X142395000Y-112275000D03*
X142395000Y-114815000D03*
X142395000Y-117355000D03*
X142395000Y-119895000D03*
X142395000Y-122435000D03*
X157635000Y-122435000D03*
X157635000Y-119895000D03*
X157635000Y-117355000D03*
X157635000Y-114815000D03*
X157635000Y-112275000D03*
X157635000Y-109735000D03*
X157635000Y-107195000D03*
X157635000Y-104655000D03*
X157635000Y-102115000D03*
X157635000Y-99575000D03*
X157635000Y-97035000D03*
X157635000Y-94495000D03*
X157635000Y-91955000D03*
X157635000Y-89415000D03*
X157635000Y-86875000D03*
X157635000Y-84335000D03*
X157635000Y-81795000D03*
X157635000Y-79255000D03*
X157635000Y-76715000D03*
X157635000Y-74175000D03*
D13*
X138895000Y-74175000D02*
X139790300Y-74175000D01*
X138895000Y-71125000D02*
X138895000Y-74175000D01*
X142395000Y-91955000D02*
X140065000Y-91955000D01*
X140065000Y-91955000D02*
X139145000Y-92875000D01*
X138265000Y-74175000D02*
X138895000Y-74175000D01*
X140065000Y-74449700D02*
X139790300Y-74175000D01*
X140065000Y-91955000D02*
X140065000Y-74449700D01*
X129119700Y-82268600D02*
X129916100Y-83065000D01*
X129916100Y-83065000D02*
X131369000Y-83065000D01*
X131369000Y-83065000D02*
X132170300Y-83866300D01*
X130645000Y-89415000D02*
X132170300Y-89415000D01*
X157635000Y-122435000D02*
X156109700Y-122435000D01*
X141623000Y-98305000D02*
X139145000Y-95827000D01*
X139145000Y-95375000D02*
X138130300Y-95375000D01*
X138130300Y-95375000D02*
X132170300Y-89415000D01*
X143119800Y-98305000D02*
X141623000Y-98305000D01*
X129119700Y-79255000D02*
X129119700Y-82268600D01*
X132170300Y-83866300D02*
X132170300Y-89415000D01*
X156109700Y-111294900D02*
X143119800Y-98305000D01*
X138265000Y-79255000D02*
X138265000Y-81795000D01*
X138265000Y-79255000D02*
X136739700Y-79255000D01*
X136739700Y-71469700D02*
X136395000Y-71125000D01*
X139145000Y-95827000D02*
X139145000Y-95375000D01*
X136739700Y-79255000D02*
X136739700Y-71469700D01*
X156109700Y-122435000D02*
X156109700Y-111294900D01*
X130645000Y-79255000D02*
X129119700Y-79255000D01*
X139688300Y-100756400D02*
X116491700Y-100756400D01*
X140869700Y-99575000D02*
X139688300Y-100756400D01*
X142395000Y-99575000D02*
X140869700Y-99575000D01*
X111245000Y-97035000D02*
X112770300Y-97035000D01*
X116491700Y-100756400D02*
X112770300Y-97035000D01*
X139744300Y-103529600D02*
X114184900Y-103529600D01*
X114184900Y-103529600D02*
X112770300Y-102115000D01*
X111245000Y-102115000D02*
X112770300Y-102115000D01*
X140869700Y-104655000D02*
X139744300Y-103529600D01*
X142395000Y-104655000D02*
X140869700Y-104655000D01*
X111245000Y-104655000D02*
X112770300Y-104655000D01*
X142395000Y-107195000D02*
X140869700Y-107195000D01*
X114184900Y-106069600D02*
X112770300Y-104655000D01*
X139744300Y-106069600D02*
X114184900Y-106069600D01*
X140869700Y-107195000D02*
X139744300Y-106069600D01*
X140869700Y-109735000D02*
X139744300Y-108609600D01*
X114184900Y-108609600D02*
X112770300Y-107195000D01*
X142395000Y-109735000D02*
X140869700Y-109735000D01*
X111245000Y-107195000D02*
X112770300Y-107195000D01*
X139744300Y-108609600D02*
X114184900Y-108609600D01*
X111245000Y-109735000D02*
X112770300Y-109735000D01*
X114184900Y-111149600D02*
X112770300Y-109735000D01*
X142395000Y-112275000D02*
X140869700Y-112275000D01*
X140869700Y-112275000D02*
X139744300Y-111149600D01*
X139744300Y-111149600D02*
X114184900Y-111149600D01*
X142395000Y-114815000D02*
X140869700Y-114815000D01*
X139744300Y-113689600D02*
X114184900Y-113689600D01*
X140869700Y-114815000D02*
X139744300Y-113689600D01*
X111245000Y-112275000D02*
X112770300Y-112275000D01*
X114184900Y-113689600D02*
X112770300Y-112275000D01*
X140869700Y-117355000D02*
X139744300Y-116229600D01*
X142395000Y-117355000D02*
X140869700Y-117355000D01*
X114184900Y-116229600D02*
X112770300Y-114815000D01*
X139744300Y-116229600D02*
X114184900Y-116229600D01*
X111245000Y-114815000D02*
X112770300Y-114815000D01*
X114184900Y-118769600D02*
X112770300Y-117355000D01*
X111245000Y-117355000D02*
X112770300Y-117355000D01*
X142395000Y-119895000D02*
X140869700Y-119895000D01*
X140869700Y-119895000D02*
X139744300Y-118769600D01*
X139744300Y-118769600D02*
X114184900Y-118769600D01*
X114184900Y-121309600D02*
X112770300Y-119895000D01*
X139744300Y-121309600D02*
X114184900Y-121309600D01*
X111245000Y-119895000D02*
X112770300Y-119895000D01*
X140869700Y-122435000D02*
X139744300Y-121309600D01*
X142395000Y-122435000D02*
X140869700Y-122435000D01*
X129119700Y-84335000D02*
X128669400Y-83884700D01*
X130645000Y-84335000D02*
X129232300Y-84335000D01*
X129232300Y-84335000D02*
X129119700Y-84335000D01*
X130645000Y-76715000D02*
X129119700Y-76715000D01*
X128669400Y-77165300D02*
X129119700Y-76715000D01*
X126485000Y-89415000D02*
X128010300Y-89415000D01*
X128669400Y-83884700D02*
X128669400Y-77165300D01*
X128010300Y-85444400D02*
X129119700Y-84335000D01*
X128010300Y-89415000D02*
X128010300Y-85444400D01*
X157635000Y-74175000D02*
X156109700Y-74175000D01*
X128010300Y-74273500D02*
X128010300Y-81795000D01*
X132294200Y-69989600D02*
X128010300Y-74273500D01*
X151924300Y-69989600D02*
X132294200Y-69989600D01*
X156109700Y-74175000D02*
X151924300Y-69989600D01*
X126485000Y-81795000D02*
X128010300Y-81795000D01*
X138265000Y-86875000D02*
X136739700Y-86875000D01*
X132170300Y-78907300D02*
X136739700Y-83476700D01*
X132170300Y-74175000D02*
X132170300Y-78907300D01*
X130645000Y-74175000D02*
X132170300Y-74175000D01*
X136739700Y-83476700D02*
X136739700Y-86875000D01*
X138265000Y-89415000D02*
X138323900Y-89415000D01*
X132170300Y-82963100D02*
X132170300Y-81795000D01*
X130645000Y-81795000D02*
X132170300Y-81795000D01*
X138323900Y-89116700D02*
X132170300Y-82963100D01*
X138323900Y-89415000D02*
X138323900Y-89116700D01*
X157635000Y-81795000D02*
X157635000Y-84335000D01*
G04 #@! TA.AperFunction,Conductor*
G36*
X162433621Y-69020002D02*
G01*
X162480114Y-69073658D01*
X162491500Y-69126000D01*
X162491500Y-126874000D01*
X162471498Y-126942121D01*
X162417842Y-126988614D01*
X162365500Y-127000000D01*
X107126000Y-127000000D01*
X107057879Y-126979998D01*
X107011386Y-126926342D01*
X107000000Y-126874000D01*
X107000000Y-122435000D01*
X109531502Y-122435000D01*
X109551457Y-122663087D01*
X109552881Y-122668400D01*
X109552881Y-122668402D01*
X109562031Y-122702548D01*
X109610716Y-122884243D01*
X109613039Y-122889224D01*
X109613039Y-122889225D01*
X109705151Y-123086762D01*
X109705154Y-123086767D01*
X109707477Y-123091749D01*
X109838802Y-123279300D01*
X110000700Y-123441198D01*
X110005208Y-123444355D01*
X110005211Y-123444357D01*
X110083389Y-123499098D01*
X110188251Y-123572523D01*
X110193233Y-123574846D01*
X110193238Y-123574849D01*
X110389765Y-123666490D01*
X110395757Y-123669284D01*
X110401065Y-123670706D01*
X110401067Y-123670707D01*
X110611598Y-123727119D01*
X110611600Y-123727119D01*
X110616913Y-123728543D01*
X110715120Y-123737135D01*
X110785149Y-123743262D01*
X110785156Y-123743262D01*
X110787873Y-123743500D01*
X111702127Y-123743500D01*
X111704844Y-123743262D01*
X111704851Y-123743262D01*
X111774880Y-123737135D01*
X111873087Y-123728543D01*
X111878400Y-123727119D01*
X111878402Y-123727119D01*
X112088933Y-123670707D01*
X112088935Y-123670706D01*
X112094243Y-123669284D01*
X112100235Y-123666490D01*
X112296762Y-123574849D01*
X112296767Y-123574846D01*
X112301749Y-123572523D01*
X112406611Y-123499098D01*
X112484789Y-123444357D01*
X112484792Y-123444355D01*
X112489300Y-123441198D01*
X112651198Y-123279300D01*
X112782523Y-123091749D01*
X112784846Y-123086767D01*
X112784849Y-123086762D01*
X112876961Y-122889225D01*
X112876961Y-122889224D01*
X112879284Y-122884243D01*
X112927970Y-122702548D01*
X112937119Y-122668402D01*
X112937119Y-122668400D01*
X112938543Y-122663087D01*
X112958498Y-122435000D01*
X112938543Y-122206913D01*
X112879284Y-121985757D01*
X112860116Y-121944651D01*
X112784849Y-121783238D01*
X112784846Y-121783233D01*
X112782523Y-121778251D01*
X112709098Y-121673389D01*
X112654357Y-121595211D01*
X112654355Y-121595208D01*
X112651198Y-121590700D01*
X112489300Y-121428802D01*
X112484792Y-121425645D01*
X112484789Y-121425643D01*
X112406611Y-121370902D01*
X112301749Y-121297477D01*
X112296767Y-121295154D01*
X112296762Y-121295151D01*
X112262543Y-121279195D01*
X112209258Y-121232278D01*
X112189797Y-121164001D01*
X112210339Y-121096041D01*
X112262543Y-121050805D01*
X112296762Y-121034849D01*
X112296767Y-121034846D01*
X112301749Y-121032523D01*
X112475156Y-120911102D01*
X112484789Y-120904357D01*
X112484792Y-120904355D01*
X112489300Y-120901198D01*
X112595852Y-120794646D01*
X112658164Y-120760620D01*
X112728979Y-120765685D01*
X112774042Y-120794646D01*
X113681243Y-121701847D01*
X113688787Y-121710137D01*
X113692900Y-121716618D01*
X113698677Y-121722043D01*
X113742567Y-121763258D01*
X113745409Y-121766013D01*
X113765131Y-121785735D01*
X113768255Y-121788158D01*
X113768259Y-121788162D01*
X113768324Y-121788212D01*
X113777345Y-121795917D01*
X113809579Y-121826186D01*
X113816527Y-121830005D01*
X113816529Y-121830007D01*
X113827332Y-121835946D01*
X113843859Y-121846802D01*
X113853598Y-121854357D01*
X113853600Y-121854358D01*
X113859860Y-121859214D01*
X113900440Y-121876774D01*
X113911088Y-121881991D01*
X113949840Y-121903295D01*
X113957516Y-121905266D01*
X113957519Y-121905267D01*
X113969462Y-121908333D01*
X113988167Y-121914737D01*
X114006755Y-121922781D01*
X114014578Y-121924020D01*
X114014588Y-121924023D01*
X114050424Y-121929699D01*
X114062044Y-121932105D01*
X114097189Y-121941128D01*
X114104870Y-121943100D01*
X114125124Y-121943100D01*
X114144834Y-121944651D01*
X114164843Y-121947820D01*
X114172735Y-121947074D01*
X114208861Y-121943659D01*
X114220719Y-121943100D01*
X124697939Y-121943100D01*
X124766060Y-121963102D01*
X124812553Y-122016758D01*
X124822657Y-122087032D01*
X124819646Y-122101711D01*
X124791457Y-122206913D01*
X124771502Y-122435000D01*
X124791457Y-122663087D01*
X124792881Y-122668400D01*
X124792881Y-122668402D01*
X124802031Y-122702548D01*
X124850716Y-122884243D01*
X124853039Y-122889224D01*
X124853039Y-122889225D01*
X124945151Y-123086762D01*
X124945154Y-123086767D01*
X124947477Y-123091749D01*
X125078802Y-123279300D01*
X125240700Y-123441198D01*
X125245208Y-123444355D01*
X125245211Y-123444357D01*
X125323389Y-123499098D01*
X125428251Y-123572523D01*
X125433233Y-123574846D01*
X125433238Y-123574849D01*
X125629765Y-123666490D01*
X125635757Y-123669284D01*
X125641065Y-123670706D01*
X125641067Y-123670707D01*
X125851598Y-123727119D01*
X125851600Y-123727119D01*
X125856913Y-123728543D01*
X125955120Y-123737135D01*
X126025149Y-123743262D01*
X126025156Y-123743262D01*
X126027873Y-123743500D01*
X126942127Y-123743500D01*
X126944844Y-123743262D01*
X126944851Y-123743262D01*
X127014880Y-123737135D01*
X127113087Y-123728543D01*
X127118400Y-123727119D01*
X127118402Y-123727119D01*
X127328933Y-123670707D01*
X127328935Y-123670706D01*
X127334243Y-123669284D01*
X127340235Y-123666490D01*
X127536762Y-123574849D01*
X127536767Y-123574846D01*
X127541749Y-123572523D01*
X127646611Y-123499098D01*
X127724789Y-123444357D01*
X127724792Y-123444355D01*
X127729300Y-123441198D01*
X127891198Y-123279300D01*
X128022523Y-123091749D01*
X128024846Y-123086767D01*
X128024849Y-123086762D01*
X128116961Y-122889225D01*
X128116961Y-122889224D01*
X128119284Y-122884243D01*
X128167970Y-122702548D01*
X128177119Y-122668402D01*
X128177119Y-122668400D01*
X128178543Y-122663087D01*
X128198498Y-122435000D01*
X128178543Y-122206913D01*
X128150354Y-122101711D01*
X128152044Y-122030735D01*
X128191838Y-121971939D01*
X128257102Y-121943991D01*
X128272061Y-121943100D01*
X139429705Y-121943100D01*
X139497826Y-121963102D01*
X139518801Y-121980005D01*
X140366053Y-122827258D01*
X140373587Y-122835537D01*
X140377700Y-122842018D01*
X140427351Y-122888643D01*
X140430193Y-122891398D01*
X140449930Y-122911135D01*
X140453127Y-122913615D01*
X140462147Y-122921318D01*
X140494379Y-122951586D01*
X140501325Y-122955405D01*
X140501328Y-122955407D01*
X140512134Y-122961348D01*
X140528653Y-122972199D01*
X140544659Y-122984614D01*
X140551928Y-122987759D01*
X140551932Y-122987762D01*
X140585237Y-123002174D01*
X140595887Y-123007391D01*
X140634640Y-123028695D01*
X140642315Y-123030666D01*
X140642316Y-123030666D01*
X140654262Y-123033733D01*
X140672967Y-123040137D01*
X140691555Y-123048181D01*
X140699378Y-123049420D01*
X140699388Y-123049423D01*
X140735224Y-123055099D01*
X140746844Y-123057505D01*
X140781989Y-123066528D01*
X140789670Y-123068500D01*
X140792223Y-123068500D01*
X140855108Y-123095925D01*
X140877454Y-123120279D01*
X140988802Y-123279300D01*
X141150700Y-123441198D01*
X141155208Y-123444355D01*
X141155211Y-123444357D01*
X141233389Y-123499098D01*
X141338251Y-123572523D01*
X141343233Y-123574846D01*
X141343238Y-123574849D01*
X141539765Y-123666490D01*
X141545757Y-123669284D01*
X141551065Y-123670706D01*
X141551067Y-123670707D01*
X141761598Y-123727119D01*
X141761600Y-123727119D01*
X141766913Y-123728543D01*
X141865120Y-123737135D01*
X141935149Y-123743262D01*
X141935156Y-123743262D01*
X141937873Y-123743500D01*
X142852127Y-123743500D01*
X142854844Y-123743262D01*
X142854851Y-123743262D01*
X142924880Y-123737135D01*
X143023087Y-123728543D01*
X143028400Y-123727119D01*
X143028402Y-123727119D01*
X143238933Y-123670707D01*
X143238935Y-123670706D01*
X143244243Y-123669284D01*
X143250235Y-123666490D01*
X143446762Y-123574849D01*
X143446767Y-123574846D01*
X143451749Y-123572523D01*
X143556611Y-123499098D01*
X143634789Y-123444357D01*
X143634792Y-123444355D01*
X143639300Y-123441198D01*
X143801198Y-123279300D01*
X143932523Y-123091749D01*
X143934846Y-123086767D01*
X143934849Y-123086762D01*
X144026961Y-122889225D01*
X144026961Y-122889224D01*
X144029284Y-122884243D01*
X144077970Y-122702548D01*
X144078245Y-122701522D01*
X155952273Y-122701522D01*
X155999764Y-122878761D01*
X156003510Y-122889053D01*
X156095586Y-123086511D01*
X156101069Y-123096007D01*
X156226028Y-123274467D01*
X156233084Y-123282875D01*
X156387125Y-123436916D01*
X156395533Y-123443972D01*
X156573993Y-123568931D01*
X156583489Y-123574414D01*
X156780947Y-123666490D01*
X156791239Y-123670236D01*
X157001688Y-123726625D01*
X157012481Y-123728528D01*
X157175170Y-123742762D01*
X157180635Y-123743000D01*
X157362885Y-123743000D01*
X157378124Y-123738525D01*
X157379329Y-123737135D01*
X157381000Y-123729452D01*
X157381000Y-123724885D01*
X157889000Y-123724885D01*
X157893475Y-123740124D01*
X157894865Y-123741329D01*
X157902548Y-123743000D01*
X158089365Y-123743000D01*
X158094830Y-123742762D01*
X158257519Y-123728528D01*
X158268312Y-123726625D01*
X158478761Y-123670236D01*
X158489053Y-123666490D01*
X158686511Y-123574414D01*
X158696007Y-123568931D01*
X158874467Y-123443972D01*
X158882875Y-123436916D01*
X159036916Y-123282875D01*
X159043972Y-123274467D01*
X159168931Y-123096007D01*
X159174414Y-123086511D01*
X159266490Y-122889053D01*
X159270236Y-122878761D01*
X159316394Y-122706497D01*
X159316058Y-122692401D01*
X159308116Y-122689000D01*
X157907115Y-122689000D01*
X157891876Y-122693475D01*
X157890671Y-122694865D01*
X157889000Y-122702548D01*
X157889000Y-123724885D01*
X157381000Y-123724885D01*
X157381000Y-122707115D01*
X157376525Y-122691876D01*
X157375135Y-122690671D01*
X157367452Y-122689000D01*
X155967033Y-122689000D01*
X155953502Y-122692973D01*
X155952273Y-122701522D01*
X144078245Y-122701522D01*
X144087119Y-122668402D01*
X144087119Y-122668400D01*
X144088543Y-122663087D01*
X144108498Y-122435000D01*
X144088543Y-122206913D01*
X144029284Y-121985757D01*
X144010116Y-121944651D01*
X143934849Y-121783238D01*
X143934846Y-121783233D01*
X143932523Y-121778251D01*
X143859098Y-121673389D01*
X143804357Y-121595211D01*
X143804355Y-121595208D01*
X143801198Y-121590700D01*
X143639300Y-121428802D01*
X143634792Y-121425645D01*
X143634789Y-121425643D01*
X143556611Y-121370902D01*
X143451749Y-121297477D01*
X143446767Y-121295154D01*
X143446762Y-121295151D01*
X143412543Y-121279195D01*
X143359258Y-121232278D01*
X143339797Y-121164001D01*
X143360339Y-121096041D01*
X143412543Y-121050805D01*
X143446762Y-121034849D01*
X143446767Y-121034846D01*
X143451749Y-121032523D01*
X143625156Y-120911102D01*
X143634789Y-120904357D01*
X143634792Y-120904355D01*
X143639300Y-120901198D01*
X143801198Y-120739300D01*
X143814908Y-120719721D01*
X143912545Y-120580280D01*
X143932523Y-120551749D01*
X143934846Y-120546767D01*
X143934849Y-120546762D01*
X144026961Y-120349225D01*
X144026961Y-120349224D01*
X144029284Y-120344243D01*
X144088543Y-120123087D01*
X144108498Y-119895000D01*
X144088543Y-119666913D01*
X144029284Y-119445757D01*
X144015591Y-119416392D01*
X143934849Y-119243238D01*
X143934846Y-119243233D01*
X143932523Y-119238251D01*
X143859098Y-119133389D01*
X143804357Y-119055211D01*
X143804355Y-119055208D01*
X143801198Y-119050700D01*
X143639300Y-118888802D01*
X143634792Y-118885645D01*
X143634789Y-118885643D01*
X143556611Y-118830902D01*
X143451749Y-118757477D01*
X143446767Y-118755154D01*
X143446762Y-118755151D01*
X143412543Y-118739195D01*
X143359258Y-118692278D01*
X143339797Y-118624001D01*
X143360339Y-118556041D01*
X143412543Y-118510805D01*
X143446762Y-118494849D01*
X143446767Y-118494846D01*
X143451749Y-118492523D01*
X143625156Y-118371102D01*
X143634789Y-118364357D01*
X143634792Y-118364355D01*
X143639300Y-118361198D01*
X143801198Y-118199300D01*
X143814908Y-118179721D01*
X143912545Y-118040280D01*
X143932523Y-118011749D01*
X143934846Y-118006767D01*
X143934849Y-118006762D01*
X144026961Y-117809225D01*
X144026961Y-117809224D01*
X144029284Y-117804243D01*
X144088543Y-117583087D01*
X144108498Y-117355000D01*
X144088543Y-117126913D01*
X144029284Y-116905757D01*
X144015591Y-116876392D01*
X143934849Y-116703238D01*
X143934846Y-116703233D01*
X143932523Y-116698251D01*
X143859098Y-116593389D01*
X143804357Y-116515211D01*
X143804355Y-116515208D01*
X143801198Y-116510700D01*
X143639300Y-116348802D01*
X143634792Y-116345645D01*
X143634789Y-116345643D01*
X143556611Y-116290902D01*
X143451749Y-116217477D01*
X143446767Y-116215154D01*
X143446762Y-116215151D01*
X143412543Y-116199195D01*
X143359258Y-116152278D01*
X143339797Y-116084001D01*
X143360339Y-116016041D01*
X143412543Y-115970805D01*
X143446762Y-115954849D01*
X143446767Y-115954846D01*
X143451749Y-115952523D01*
X143625156Y-115831102D01*
X143634789Y-115824357D01*
X143634792Y-115824355D01*
X143639300Y-115821198D01*
X143801198Y-115659300D01*
X143814908Y-115639721D01*
X143912545Y-115500280D01*
X143932523Y-115471749D01*
X143934846Y-115466767D01*
X143934849Y-115466762D01*
X144026961Y-115269225D01*
X144026961Y-115269224D01*
X144029284Y-115264243D01*
X144088543Y-115043087D01*
X144108498Y-114815000D01*
X144088543Y-114586913D01*
X144029284Y-114365757D01*
X144015591Y-114336392D01*
X143934849Y-114163238D01*
X143934846Y-114163233D01*
X143932523Y-114158251D01*
X143859098Y-114053389D01*
X143804357Y-113975211D01*
X143804355Y-113975208D01*
X143801198Y-113970700D01*
X143639300Y-113808802D01*
X143634792Y-113805645D01*
X143634789Y-113805643D01*
X143556611Y-113750902D01*
X143451749Y-113677477D01*
X143446767Y-113675154D01*
X143446762Y-113675151D01*
X143412543Y-113659195D01*
X143359258Y-113612278D01*
X143339797Y-113544001D01*
X143360339Y-113476041D01*
X143412543Y-113430805D01*
X143446762Y-113414849D01*
X143446767Y-113414846D01*
X143451749Y-113412523D01*
X143625156Y-113291102D01*
X143634789Y-113284357D01*
X143634792Y-113284355D01*
X143639300Y-113281198D01*
X143801198Y-113119300D01*
X143814908Y-113099721D01*
X143912545Y-112960280D01*
X143932523Y-112931749D01*
X143934846Y-112926767D01*
X143934849Y-112926762D01*
X144026961Y-112729225D01*
X144026961Y-112729224D01*
X144029284Y-112724243D01*
X144088543Y-112503087D01*
X144108498Y-112275000D01*
X144088543Y-112046913D01*
X144029284Y-111825757D01*
X144015591Y-111796392D01*
X143934849Y-111623238D01*
X143934846Y-111623233D01*
X143932523Y-111618251D01*
X143859098Y-111513389D01*
X143804357Y-111435211D01*
X143804355Y-111435208D01*
X143801198Y-111430700D01*
X143639300Y-111268802D01*
X143634792Y-111265645D01*
X143634789Y-111265643D01*
X143556611Y-111210902D01*
X143451749Y-111137477D01*
X143446767Y-111135154D01*
X143446762Y-111135151D01*
X143412543Y-111119195D01*
X143359258Y-111072278D01*
X143339797Y-111004001D01*
X143360339Y-110936041D01*
X143412543Y-110890805D01*
X143446762Y-110874849D01*
X143446767Y-110874846D01*
X143451749Y-110872523D01*
X143625156Y-110751102D01*
X143634789Y-110744357D01*
X143634792Y-110744355D01*
X143639300Y-110741198D01*
X143801198Y-110579300D01*
X143814908Y-110559721D01*
X143912545Y-110420280D01*
X143932523Y-110391749D01*
X143934846Y-110386767D01*
X143934849Y-110386762D01*
X144026961Y-110189225D01*
X144026961Y-110189224D01*
X144029284Y-110184243D01*
X144088543Y-109963087D01*
X144108498Y-109735000D01*
X144088543Y-109506913D01*
X144029284Y-109285757D01*
X144015591Y-109256392D01*
X143934849Y-109083238D01*
X143934846Y-109083233D01*
X143932523Y-109078251D01*
X143859098Y-108973389D01*
X143804357Y-108895211D01*
X143804355Y-108895208D01*
X143801198Y-108890700D01*
X143639300Y-108728802D01*
X143634792Y-108725645D01*
X143634789Y-108725643D01*
X143556611Y-108670902D01*
X143451749Y-108597477D01*
X143446767Y-108595154D01*
X143446762Y-108595151D01*
X143412543Y-108579195D01*
X143359258Y-108532278D01*
X143339797Y-108464001D01*
X143360339Y-108396041D01*
X143412543Y-108350805D01*
X143446762Y-108334849D01*
X143446767Y-108334846D01*
X143451749Y-108332523D01*
X143625156Y-108211102D01*
X143634789Y-108204357D01*
X143634792Y-108204355D01*
X143639300Y-108201198D01*
X143801198Y-108039300D01*
X143814908Y-108019721D01*
X143912545Y-107880280D01*
X143932523Y-107851749D01*
X143934846Y-107846767D01*
X143934849Y-107846762D01*
X144026961Y-107649225D01*
X144026961Y-107649224D01*
X144029284Y-107644243D01*
X144088543Y-107423087D01*
X144108498Y-107195000D01*
X144088543Y-106966913D01*
X144029284Y-106745757D01*
X144015591Y-106716392D01*
X143934849Y-106543238D01*
X143934846Y-106543233D01*
X143932523Y-106538251D01*
X143859098Y-106433389D01*
X143804357Y-106355211D01*
X143804355Y-106355208D01*
X143801198Y-106350700D01*
X143639300Y-106188802D01*
X143634792Y-106185645D01*
X143634789Y-106185643D01*
X143556611Y-106130902D01*
X143451749Y-106057477D01*
X143446767Y-106055154D01*
X143446762Y-106055151D01*
X143412543Y-106039195D01*
X143359258Y-105992278D01*
X143339797Y-105924001D01*
X143360339Y-105856041D01*
X143412543Y-105810805D01*
X143446762Y-105794849D01*
X143446767Y-105794846D01*
X143451749Y-105792523D01*
X143625156Y-105671102D01*
X143634789Y-105664357D01*
X143634792Y-105664355D01*
X143639300Y-105661198D01*
X143801198Y-105499300D01*
X143814908Y-105479721D01*
X143912545Y-105340280D01*
X143932523Y-105311749D01*
X143934846Y-105306767D01*
X143934849Y-105306762D01*
X144026961Y-105109225D01*
X144026961Y-105109224D01*
X144029284Y-105104243D01*
X144088543Y-104883087D01*
X144108498Y-104655000D01*
X144088543Y-104426913D01*
X144029284Y-104205757D01*
X144015591Y-104176392D01*
X143934849Y-104003238D01*
X143934846Y-104003233D01*
X143932523Y-103998251D01*
X143859098Y-103893389D01*
X143804357Y-103815211D01*
X143804355Y-103815208D01*
X143801198Y-103810700D01*
X143639300Y-103648802D01*
X143634792Y-103645645D01*
X143634789Y-103645643D01*
X143556611Y-103590902D01*
X143451749Y-103517477D01*
X143446767Y-103515154D01*
X143446762Y-103515151D01*
X143412543Y-103499195D01*
X143359258Y-103452278D01*
X143339797Y-103384001D01*
X143360339Y-103316041D01*
X143412543Y-103270805D01*
X143446762Y-103254849D01*
X143446767Y-103254846D01*
X143451749Y-103252523D01*
X143625156Y-103131102D01*
X143634789Y-103124357D01*
X143634792Y-103124355D01*
X143639300Y-103121198D01*
X143801198Y-102959300D01*
X143814908Y-102939721D01*
X143897027Y-102822442D01*
X143932523Y-102771749D01*
X143934846Y-102766767D01*
X143934849Y-102766762D01*
X144026961Y-102569225D01*
X144026961Y-102569224D01*
X144029284Y-102564243D01*
X144088543Y-102343087D01*
X144108498Y-102115000D01*
X144088543Y-101886913D01*
X144029284Y-101665757D01*
X144015591Y-101636392D01*
X143934849Y-101463238D01*
X143934846Y-101463233D01*
X143932523Y-101458251D01*
X143838103Y-101323406D01*
X143804357Y-101275211D01*
X143804355Y-101275208D01*
X143801198Y-101270700D01*
X143639300Y-101108802D01*
X143634792Y-101105645D01*
X143634789Y-101105643D01*
X143556611Y-101050902D01*
X143451749Y-100977477D01*
X143446767Y-100975154D01*
X143446762Y-100975151D01*
X143412543Y-100959195D01*
X143359258Y-100912278D01*
X143339797Y-100844001D01*
X143360339Y-100776041D01*
X143412543Y-100730805D01*
X143446762Y-100714849D01*
X143446767Y-100714846D01*
X143451749Y-100712523D01*
X143556611Y-100639098D01*
X143634789Y-100584357D01*
X143634792Y-100584355D01*
X143639300Y-100581198D01*
X143801198Y-100419300D01*
X143932523Y-100231749D01*
X143934846Y-100226767D01*
X143934849Y-100226762D01*
X144026961Y-100029225D01*
X144026961Y-100029224D01*
X144029284Y-100024243D01*
X144041416Y-99978968D01*
X144087119Y-99808402D01*
X144087119Y-99808400D01*
X144088543Y-99803087D01*
X144108498Y-99575000D01*
X144088543Y-99346913D01*
X144087119Y-99341598D01*
X144030707Y-99131067D01*
X144030706Y-99131065D01*
X144029284Y-99125757D01*
X144016164Y-99097620D01*
X143934849Y-98923238D01*
X143934846Y-98923233D01*
X143932523Y-98918251D01*
X143801198Y-98730700D01*
X143639300Y-98568802D01*
X143634792Y-98565645D01*
X143634789Y-98565643D01*
X143556611Y-98510902D01*
X143451749Y-98437477D01*
X143446767Y-98435154D01*
X143446762Y-98435151D01*
X143412543Y-98419195D01*
X143359258Y-98372278D01*
X143339797Y-98304001D01*
X143360339Y-98236041D01*
X143412543Y-98190805D01*
X143446762Y-98174849D01*
X143446767Y-98174846D01*
X143451749Y-98172523D01*
X143556611Y-98099098D01*
X143634789Y-98044357D01*
X143634792Y-98044355D01*
X143639300Y-98041198D01*
X143801198Y-97879300D01*
X143828997Y-97839600D01*
X143929366Y-97696257D01*
X143932523Y-97691749D01*
X143934846Y-97686767D01*
X143934849Y-97686762D01*
X144026961Y-97489225D01*
X144026961Y-97489224D01*
X144029284Y-97484243D01*
X144088543Y-97263087D01*
X144108498Y-97035000D01*
X144088543Y-96806913D01*
X144035843Y-96610236D01*
X144030707Y-96591067D01*
X144030706Y-96591065D01*
X144029284Y-96585757D01*
X144015591Y-96556392D01*
X143934849Y-96383238D01*
X143934846Y-96383233D01*
X143932523Y-96378251D01*
X143801198Y-96190700D01*
X143639300Y-96028802D01*
X143634792Y-96025645D01*
X143634789Y-96025643D01*
X143556611Y-95970902D01*
X143451749Y-95897477D01*
X143446767Y-95895154D01*
X143446762Y-95895151D01*
X143412543Y-95879195D01*
X143359258Y-95832278D01*
X143339797Y-95764001D01*
X143360339Y-95696041D01*
X143412543Y-95650805D01*
X143446762Y-95634849D01*
X143446767Y-95634846D01*
X143451749Y-95632523D01*
X143556611Y-95559098D01*
X143634789Y-95504357D01*
X143634792Y-95504355D01*
X143639300Y-95501198D01*
X143801198Y-95339300D01*
X143932523Y-95151749D01*
X143934846Y-95146767D01*
X143934849Y-95146762D01*
X144026961Y-94949225D01*
X144026961Y-94949224D01*
X144029284Y-94944243D01*
X144032769Y-94931239D01*
X144087119Y-94728402D01*
X144087119Y-94728400D01*
X144088543Y-94723087D01*
X144108498Y-94495000D01*
X144088543Y-94266913D01*
X144029284Y-94045757D01*
X144012316Y-94009369D01*
X143934849Y-93843238D01*
X143934846Y-93843233D01*
X143932523Y-93838251D01*
X143801198Y-93650700D01*
X143639300Y-93488802D01*
X143634792Y-93485645D01*
X143634789Y-93485643D01*
X143556611Y-93430902D01*
X143451749Y-93357477D01*
X143446767Y-93355154D01*
X143446762Y-93355151D01*
X143412543Y-93339195D01*
X143359258Y-93292278D01*
X143339797Y-93224001D01*
X143360339Y-93156041D01*
X143412543Y-93110805D01*
X143446762Y-93094849D01*
X143446767Y-93094846D01*
X143451749Y-93092523D01*
X143556611Y-93019098D01*
X143634789Y-92964357D01*
X143634792Y-92964355D01*
X143639300Y-92961198D01*
X143801198Y-92799300D01*
X143932523Y-92611749D01*
X143934846Y-92606767D01*
X143934849Y-92606762D01*
X144026961Y-92409225D01*
X144026961Y-92409224D01*
X144029284Y-92404243D01*
X144077785Y-92223238D01*
X144087119Y-92188402D01*
X144087119Y-92188400D01*
X144088543Y-92183087D01*
X144108498Y-91955000D01*
X144088543Y-91726913D01*
X144066069Y-91643039D01*
X144030707Y-91511067D01*
X144030706Y-91511065D01*
X144029284Y-91505757D01*
X144002847Y-91449062D01*
X143934849Y-91303238D01*
X143934846Y-91303233D01*
X143932523Y-91298251D01*
X143833162Y-91156349D01*
X143804357Y-91115211D01*
X143804355Y-91115208D01*
X143801198Y-91110700D01*
X143639300Y-90948802D01*
X143634792Y-90945645D01*
X143634789Y-90945643D01*
X143556611Y-90890902D01*
X143451749Y-90817477D01*
X143446767Y-90815154D01*
X143446762Y-90815151D01*
X143412543Y-90799195D01*
X143359258Y-90752278D01*
X143339797Y-90684001D01*
X143360339Y-90616041D01*
X143412543Y-90570805D01*
X143446762Y-90554849D01*
X143446767Y-90554846D01*
X143451749Y-90552523D01*
X143561500Y-90475674D01*
X143634789Y-90424357D01*
X143634792Y-90424355D01*
X143639300Y-90421198D01*
X143801198Y-90259300D01*
X143811683Y-90244327D01*
X143929366Y-90076257D01*
X143932523Y-90071749D01*
X143934846Y-90066767D01*
X143934849Y-90066762D01*
X144026961Y-89869225D01*
X144026961Y-89869224D01*
X144029284Y-89864243D01*
X144047543Y-89796102D01*
X144087119Y-89648402D01*
X144087119Y-89648400D01*
X144088543Y-89643087D01*
X144108498Y-89415000D01*
X144088543Y-89186913D01*
X144029284Y-88965757D01*
X143934966Y-88763489D01*
X143934849Y-88763238D01*
X143934846Y-88763233D01*
X143932523Y-88758251D01*
X143832515Y-88615425D01*
X143804357Y-88575211D01*
X143804355Y-88575208D01*
X143801198Y-88570700D01*
X143639300Y-88408802D01*
X143634792Y-88405645D01*
X143634789Y-88405643D01*
X143556611Y-88350902D01*
X143451749Y-88277477D01*
X143446767Y-88275154D01*
X143446762Y-88275151D01*
X143412543Y-88259195D01*
X143359258Y-88212278D01*
X143339797Y-88144001D01*
X143360339Y-88076041D01*
X143412543Y-88030805D01*
X143446762Y-88014849D01*
X143446767Y-88014846D01*
X143451749Y-88012523D01*
X143561500Y-87935674D01*
X143634789Y-87884357D01*
X143634792Y-87884355D01*
X143639300Y-87881198D01*
X143801198Y-87719300D01*
X143811683Y-87704327D01*
X143929366Y-87536257D01*
X143932523Y-87531749D01*
X143934846Y-87526767D01*
X143934849Y-87526762D01*
X144026961Y-87329225D01*
X144026961Y-87329224D01*
X144029284Y-87324243D01*
X144088543Y-87103087D01*
X144108498Y-86875000D01*
X144088543Y-86646913D01*
X144029284Y-86425757D01*
X144026961Y-86420775D01*
X143934849Y-86223238D01*
X143934846Y-86223233D01*
X143932523Y-86218251D01*
X143833162Y-86076349D01*
X143804357Y-86035211D01*
X143804355Y-86035208D01*
X143801198Y-86030700D01*
X143639300Y-85868802D01*
X143634792Y-85865645D01*
X143634789Y-85865643D01*
X143556611Y-85810902D01*
X143451749Y-85737477D01*
X143446767Y-85735154D01*
X143446762Y-85735151D01*
X143412543Y-85719195D01*
X143359258Y-85672278D01*
X143339797Y-85604001D01*
X143360339Y-85536041D01*
X143412543Y-85490805D01*
X143446762Y-85474849D01*
X143446767Y-85474846D01*
X143451749Y-85472523D01*
X143561500Y-85395674D01*
X143634789Y-85344357D01*
X143634792Y-85344355D01*
X143639300Y-85341198D01*
X143801198Y-85179300D01*
X143811683Y-85164327D01*
X143929366Y-84996257D01*
X143932523Y-84991749D01*
X143934846Y-84986767D01*
X143934849Y-84986762D01*
X144026961Y-84789225D01*
X144026961Y-84789224D01*
X144029284Y-84784243D01*
X144088543Y-84563087D01*
X144108498Y-84335000D01*
X144088543Y-84106913D01*
X144029284Y-83885757D01*
X144026961Y-83880775D01*
X143934849Y-83683238D01*
X143934846Y-83683233D01*
X143932523Y-83678251D01*
X143833162Y-83536349D01*
X143804357Y-83495211D01*
X143804355Y-83495208D01*
X143801198Y-83490700D01*
X143639300Y-83328802D01*
X143634792Y-83325645D01*
X143634789Y-83325643D01*
X143538829Y-83258451D01*
X143451749Y-83197477D01*
X143446767Y-83195154D01*
X143446762Y-83195151D01*
X143412543Y-83179195D01*
X143359258Y-83132278D01*
X143339797Y-83064001D01*
X143360339Y-82996041D01*
X143412543Y-82950805D01*
X143446762Y-82934849D01*
X143446767Y-82934846D01*
X143451749Y-82932523D01*
X143569541Y-82850044D01*
X143634789Y-82804357D01*
X143634792Y-82804355D01*
X143639300Y-82801198D01*
X143801198Y-82639300D01*
X143811683Y-82624327D01*
X143929366Y-82456257D01*
X143932523Y-82451749D01*
X143934846Y-82446767D01*
X143934849Y-82446762D01*
X144026961Y-82249225D01*
X144026961Y-82249224D01*
X144029284Y-82244243D01*
X144034895Y-82223305D01*
X144087119Y-82028402D01*
X144087119Y-82028400D01*
X144088543Y-82023087D01*
X144108498Y-81795000D01*
X144088543Y-81566913D01*
X144078829Y-81530661D01*
X144030707Y-81351067D01*
X144030706Y-81351065D01*
X144029284Y-81345757D01*
X143997882Y-81278414D01*
X143934849Y-81143238D01*
X143934846Y-81143233D01*
X143932523Y-81138251D01*
X143833162Y-80996349D01*
X143804357Y-80955211D01*
X143804355Y-80955208D01*
X143801198Y-80950700D01*
X143639300Y-80788802D01*
X143634792Y-80785645D01*
X143634789Y-80785643D01*
X143538829Y-80718451D01*
X143451749Y-80657477D01*
X143446767Y-80655154D01*
X143446762Y-80655151D01*
X143412543Y-80639195D01*
X143359258Y-80592278D01*
X143339797Y-80524001D01*
X143360339Y-80456041D01*
X143412543Y-80410805D01*
X143446762Y-80394849D01*
X143446767Y-80394846D01*
X143451749Y-80392523D01*
X143556611Y-80319098D01*
X143634789Y-80264357D01*
X143634792Y-80264355D01*
X143639300Y-80261198D01*
X143801198Y-80099300D01*
X143811683Y-80084327D01*
X143929366Y-79916257D01*
X143932523Y-79911749D01*
X143934846Y-79906767D01*
X143934849Y-79906762D01*
X144026961Y-79709225D01*
X144026961Y-79709224D01*
X144029284Y-79704243D01*
X144088543Y-79483087D01*
X144108498Y-79255000D01*
X144088543Y-79026913D01*
X144029284Y-78805757D01*
X144026961Y-78800775D01*
X143934849Y-78603238D01*
X143934846Y-78603233D01*
X143932523Y-78598251D01*
X143833162Y-78456349D01*
X143804357Y-78415211D01*
X143804355Y-78415208D01*
X143801198Y-78410700D01*
X143639300Y-78248802D01*
X143634792Y-78245645D01*
X143634789Y-78245643D01*
X143556611Y-78190902D01*
X143451749Y-78117477D01*
X143446767Y-78115154D01*
X143446762Y-78115151D01*
X143412543Y-78099195D01*
X143359258Y-78052278D01*
X143339797Y-77984001D01*
X143360339Y-77916041D01*
X143412543Y-77870805D01*
X143446762Y-77854849D01*
X143446767Y-77854846D01*
X143451749Y-77852523D01*
X143569541Y-77770044D01*
X143634789Y-77724357D01*
X143634792Y-77724355D01*
X143639300Y-77721198D01*
X143801198Y-77559300D01*
X143811683Y-77544327D01*
X143929366Y-77376257D01*
X143932523Y-77371749D01*
X143934846Y-77366767D01*
X143934849Y-77366762D01*
X144026961Y-77169225D01*
X144026961Y-77169224D01*
X144029284Y-77164243D01*
X144088543Y-76943087D01*
X144108498Y-76715000D01*
X144088543Y-76486913D01*
X144087119Y-76481598D01*
X144030707Y-76271067D01*
X144030706Y-76271065D01*
X144029284Y-76265757D01*
X143980111Y-76160304D01*
X143934849Y-76063238D01*
X143934846Y-76063233D01*
X143932523Y-76058251D01*
X143833162Y-75916349D01*
X143804357Y-75875211D01*
X143804355Y-75875208D01*
X143801198Y-75870700D01*
X143639300Y-75708802D01*
X143634789Y-75705643D01*
X143630576Y-75702108D01*
X143631388Y-75701140D01*
X143590910Y-75650506D01*
X143583596Y-75579887D01*
X143615624Y-75516524D01*
X143676823Y-75480536D01*
X143693901Y-75477480D01*
X143697352Y-75477105D01*
X143712604Y-75473479D01*
X143833054Y-75428324D01*
X143848649Y-75419786D01*
X143950724Y-75343285D01*
X143963285Y-75330724D01*
X144039786Y-75228649D01*
X144048324Y-75213054D01*
X144093478Y-75092606D01*
X144097105Y-75077351D01*
X144102631Y-75026486D01*
X144103000Y-75019672D01*
X144103000Y-74447115D01*
X144098525Y-74431876D01*
X144097135Y-74430671D01*
X144089452Y-74429000D01*
X142267000Y-74429000D01*
X142198879Y-74408998D01*
X142152386Y-74355342D01*
X142141000Y-74303000D01*
X142141000Y-73902885D01*
X142649000Y-73902885D01*
X142653475Y-73918124D01*
X142654865Y-73919329D01*
X142662548Y-73921000D01*
X144084884Y-73921000D01*
X144100123Y-73916525D01*
X144101328Y-73915135D01*
X144102999Y-73907452D01*
X144102999Y-73330331D01*
X144102629Y-73323510D01*
X144097105Y-73272648D01*
X144093479Y-73257396D01*
X144048324Y-73136946D01*
X144039786Y-73121351D01*
X143963285Y-73019276D01*
X143950724Y-73006715D01*
X143848649Y-72930214D01*
X143833054Y-72921676D01*
X143712606Y-72876522D01*
X143697351Y-72872895D01*
X143646486Y-72867369D01*
X143639672Y-72867000D01*
X142667115Y-72867000D01*
X142651876Y-72871475D01*
X142650671Y-72872865D01*
X142649000Y-72880548D01*
X142649000Y-73902885D01*
X142141000Y-73902885D01*
X142141000Y-72885116D01*
X142136525Y-72869877D01*
X142135135Y-72868672D01*
X142127452Y-72867001D01*
X141150331Y-72867001D01*
X141143510Y-72867371D01*
X141092648Y-72872895D01*
X141077396Y-72876521D01*
X140956946Y-72921676D01*
X140941351Y-72930214D01*
X140839276Y-73006715D01*
X140826715Y-73019276D01*
X140750214Y-73121351D01*
X140741676Y-73136946D01*
X140696522Y-73257394D01*
X140692895Y-73272649D01*
X140687369Y-73323514D01*
X140687000Y-73330328D01*
X140687001Y-73871606D01*
X140666999Y-73939727D01*
X140613344Y-73986220D01*
X140543070Y-73996324D01*
X140478489Y-73966831D01*
X140471906Y-73960701D01*
X140293952Y-73782747D01*
X140286412Y-73774461D01*
X140282300Y-73767982D01*
X140232648Y-73721356D01*
X140229807Y-73718602D01*
X140210070Y-73698865D01*
X140206873Y-73696385D01*
X140197851Y-73688680D01*
X140171400Y-73663841D01*
X140165621Y-73658414D01*
X140158675Y-73654595D01*
X140158672Y-73654593D01*
X140147866Y-73648652D01*
X140131347Y-73637801D01*
X140130883Y-73637441D01*
X140115341Y-73625386D01*
X140108072Y-73622241D01*
X140108068Y-73622238D01*
X140074763Y-73607826D01*
X140064113Y-73602609D01*
X140025360Y-73581305D01*
X140005737Y-73576267D01*
X139987034Y-73569863D01*
X139975720Y-73564967D01*
X139975719Y-73564967D01*
X139968445Y-73561819D01*
X139960622Y-73560580D01*
X139960612Y-73560577D01*
X139924776Y-73554901D01*
X139913156Y-73552495D01*
X139878011Y-73543472D01*
X139878010Y-73543472D01*
X139870330Y-73541500D01*
X139867777Y-73541500D01*
X139804892Y-73514075D01*
X139782545Y-73489720D01*
X139674357Y-73335211D01*
X139674355Y-73335208D01*
X139671198Y-73330700D01*
X139565405Y-73224907D01*
X139531379Y-73162595D01*
X139528500Y-73135812D01*
X139528500Y-72344394D01*
X139548502Y-72276273D01*
X139582229Y-72241181D01*
X139734789Y-72134357D01*
X139734792Y-72134355D01*
X139739300Y-72131198D01*
X139901198Y-71969300D01*
X140032523Y-71781749D01*
X140034846Y-71776767D01*
X140034849Y-71776762D01*
X140126961Y-71579225D01*
X140126961Y-71579224D01*
X140129284Y-71574243D01*
X140149976Y-71497022D01*
X140187119Y-71358402D01*
X140187119Y-71358400D01*
X140188543Y-71353087D01*
X140208498Y-71125000D01*
X140188543Y-70896913D01*
X140187120Y-70891602D01*
X140187118Y-70891591D01*
X140157675Y-70781712D01*
X140159364Y-70710735D01*
X140199157Y-70651939D01*
X140264422Y-70623991D01*
X140279381Y-70623100D01*
X151609706Y-70623100D01*
X151677827Y-70643102D01*
X151698801Y-70660005D01*
X155606043Y-74567247D01*
X155613587Y-74575537D01*
X155617700Y-74582018D01*
X155623477Y-74587443D01*
X155667367Y-74628658D01*
X155670209Y-74631413D01*
X155689930Y-74651134D01*
X155693125Y-74653612D01*
X155702147Y-74661318D01*
X155734379Y-74691586D01*
X155741328Y-74695406D01*
X155752132Y-74701346D01*
X155768656Y-74712199D01*
X155784659Y-74724613D01*
X155825243Y-74742176D01*
X155835873Y-74747383D01*
X155874640Y-74768695D01*
X155882317Y-74770666D01*
X155882322Y-74770668D01*
X155894258Y-74773732D01*
X155912966Y-74780137D01*
X155931555Y-74788181D01*
X155939380Y-74789420D01*
X155939382Y-74789421D01*
X155975219Y-74795097D01*
X155986840Y-74797504D01*
X156021989Y-74806528D01*
X156029670Y-74808500D01*
X156032223Y-74808500D01*
X156095108Y-74835925D01*
X156117454Y-74860279D01*
X156228802Y-75019300D01*
X156390700Y-75181198D01*
X156395208Y-75184355D01*
X156395211Y-75184357D01*
X156436195Y-75213054D01*
X156578251Y-75312523D01*
X156583233Y-75314846D01*
X156583238Y-75314849D01*
X156617457Y-75330805D01*
X156670742Y-75377722D01*
X156690203Y-75445999D01*
X156669661Y-75513959D01*
X156617457Y-75559195D01*
X156583238Y-75575151D01*
X156583233Y-75575154D01*
X156578251Y-75577477D01*
X156473955Y-75650506D01*
X156395211Y-75705643D01*
X156395208Y-75705645D01*
X156390700Y-75708802D01*
X156228802Y-75870700D01*
X156225645Y-75875208D01*
X156225643Y-75875211D01*
X156196838Y-75916349D01*
X156097477Y-76058251D01*
X156095154Y-76063233D01*
X156095151Y-76063238D01*
X156049889Y-76160304D01*
X156000716Y-76265757D01*
X155999294Y-76271065D01*
X155999293Y-76271067D01*
X155942881Y-76481598D01*
X155941457Y-76486913D01*
X155921502Y-76715000D01*
X155941457Y-76943087D01*
X156000716Y-77164243D01*
X156003039Y-77169224D01*
X156003039Y-77169225D01*
X156095151Y-77366762D01*
X156095154Y-77366767D01*
X156097477Y-77371749D01*
X156100634Y-77376257D01*
X156218318Y-77544327D01*
X156228802Y-77559300D01*
X156390700Y-77721198D01*
X156395208Y-77724355D01*
X156395211Y-77724357D01*
X156460459Y-77770044D01*
X156578251Y-77852523D01*
X156583233Y-77854846D01*
X156583238Y-77854849D01*
X156617457Y-77870805D01*
X156670742Y-77917722D01*
X156690203Y-77985999D01*
X156669661Y-78053959D01*
X156617457Y-78099195D01*
X156583238Y-78115151D01*
X156583233Y-78115154D01*
X156578251Y-78117477D01*
X156473389Y-78190902D01*
X156395211Y-78245643D01*
X156395208Y-78245645D01*
X156390700Y-78248802D01*
X156228802Y-78410700D01*
X156225645Y-78415208D01*
X156225643Y-78415211D01*
X156196838Y-78456349D01*
X156097477Y-78598251D01*
X156095154Y-78603233D01*
X156095151Y-78603238D01*
X156003039Y-78800775D01*
X156000716Y-78805757D01*
X155941457Y-79026913D01*
X155921502Y-79255000D01*
X155941457Y-79483087D01*
X156000716Y-79704243D01*
X156003039Y-79709224D01*
X156003039Y-79709225D01*
X156095151Y-79906762D01*
X156095154Y-79906767D01*
X156097477Y-79911749D01*
X156100634Y-79916257D01*
X156218318Y-80084327D01*
X156228802Y-80099300D01*
X156390700Y-80261198D01*
X156395208Y-80264355D01*
X156395211Y-80264357D01*
X156473389Y-80319098D01*
X156578251Y-80392523D01*
X156583233Y-80394846D01*
X156583238Y-80394849D01*
X156617457Y-80410805D01*
X156670742Y-80457722D01*
X156690203Y-80525999D01*
X156669661Y-80593959D01*
X156617457Y-80639195D01*
X156583238Y-80655151D01*
X156583233Y-80655154D01*
X156578251Y-80657477D01*
X156491171Y-80718451D01*
X156395211Y-80785643D01*
X156395208Y-80785645D01*
X156390700Y-80788802D01*
X156228802Y-80950700D01*
X156225645Y-80955208D01*
X156225643Y-80955211D01*
X156196838Y-80996349D01*
X156097477Y-81138251D01*
X156095154Y-81143233D01*
X156095151Y-81143238D01*
X156032118Y-81278414D01*
X156000716Y-81345757D01*
X155999294Y-81351065D01*
X155999293Y-81351067D01*
X155951171Y-81530661D01*
X155941457Y-81566913D01*
X155921502Y-81795000D01*
X155941457Y-82023087D01*
X155942881Y-82028400D01*
X155942881Y-82028402D01*
X155995106Y-82223305D01*
X156000716Y-82244243D01*
X156003039Y-82249224D01*
X156003039Y-82249225D01*
X156095151Y-82446762D01*
X156095154Y-82446767D01*
X156097477Y-82451749D01*
X156100634Y-82456257D01*
X156218318Y-82624327D01*
X156228802Y-82639300D01*
X156390700Y-82801198D01*
X156395208Y-82804355D01*
X156395211Y-82804357D01*
X156460459Y-82850044D01*
X156578251Y-82932523D01*
X156583233Y-82934846D01*
X156583238Y-82934849D01*
X156617457Y-82950805D01*
X156670742Y-82997722D01*
X156690203Y-83065999D01*
X156669661Y-83133959D01*
X156617457Y-83179195D01*
X156583238Y-83195151D01*
X156583233Y-83195154D01*
X156578251Y-83197477D01*
X156491171Y-83258451D01*
X156395211Y-83325643D01*
X156395208Y-83325645D01*
X156390700Y-83328802D01*
X156228802Y-83490700D01*
X156225645Y-83495208D01*
X156225643Y-83495211D01*
X156196838Y-83536349D01*
X156097477Y-83678251D01*
X156095154Y-83683233D01*
X156095151Y-83683238D01*
X156003039Y-83880775D01*
X156000716Y-83885757D01*
X155941457Y-84106913D01*
X155921502Y-84335000D01*
X155941457Y-84563087D01*
X156000716Y-84784243D01*
X156003039Y-84789224D01*
X156003039Y-84789225D01*
X156095151Y-84986762D01*
X156095154Y-84986767D01*
X156097477Y-84991749D01*
X156100634Y-84996257D01*
X156218318Y-85164327D01*
X156228802Y-85179300D01*
X156390700Y-85341198D01*
X156395208Y-85344355D01*
X156395211Y-85344357D01*
X156468500Y-85395674D01*
X156578251Y-85472523D01*
X156583233Y-85474846D01*
X156583238Y-85474849D01*
X156617457Y-85490805D01*
X156670742Y-85537722D01*
X156690203Y-85605999D01*
X156669661Y-85673959D01*
X156617457Y-85719195D01*
X156583238Y-85735151D01*
X156583233Y-85735154D01*
X156578251Y-85737477D01*
X156473389Y-85810902D01*
X156395211Y-85865643D01*
X156395208Y-85865645D01*
X156390700Y-85868802D01*
X156228802Y-86030700D01*
X156225645Y-86035208D01*
X156225643Y-86035211D01*
X156196838Y-86076349D01*
X156097477Y-86218251D01*
X156095154Y-86223233D01*
X156095151Y-86223238D01*
X156003039Y-86420775D01*
X156000716Y-86425757D01*
X155941457Y-86646913D01*
X155921502Y-86875000D01*
X155941457Y-87103087D01*
X156000716Y-87324243D01*
X156003039Y-87329224D01*
X156003039Y-87329225D01*
X156095151Y-87526762D01*
X156095154Y-87526767D01*
X156097477Y-87531749D01*
X156100634Y-87536257D01*
X156218318Y-87704327D01*
X156228802Y-87719300D01*
X156390700Y-87881198D01*
X156395208Y-87884355D01*
X156395211Y-87884357D01*
X156468500Y-87935674D01*
X156578251Y-88012523D01*
X156583233Y-88014846D01*
X156583238Y-88014849D01*
X156617457Y-88030805D01*
X156670742Y-88077722D01*
X156690203Y-88145999D01*
X156669661Y-88213959D01*
X156617457Y-88259195D01*
X156583238Y-88275151D01*
X156583233Y-88275154D01*
X156578251Y-88277477D01*
X156473389Y-88350902D01*
X156395211Y-88405643D01*
X156395208Y-88405645D01*
X156390700Y-88408802D01*
X156228802Y-88570700D01*
X156225645Y-88575208D01*
X156225643Y-88575211D01*
X156197485Y-88615425D01*
X156097477Y-88758251D01*
X156095154Y-88763233D01*
X156095151Y-88763238D01*
X156095034Y-88763489D01*
X156000716Y-88965757D01*
X155941457Y-89186913D01*
X155921502Y-89415000D01*
X155941457Y-89643087D01*
X155942881Y-89648400D01*
X155942881Y-89648402D01*
X155982458Y-89796102D01*
X156000716Y-89864243D01*
X156003039Y-89869224D01*
X156003039Y-89869225D01*
X156095151Y-90066762D01*
X156095154Y-90066767D01*
X156097477Y-90071749D01*
X156100634Y-90076257D01*
X156218318Y-90244327D01*
X156228802Y-90259300D01*
X156390700Y-90421198D01*
X156395208Y-90424355D01*
X156395211Y-90424357D01*
X156468500Y-90475674D01*
X156578251Y-90552523D01*
X156583233Y-90554846D01*
X156583238Y-90554849D01*
X156617457Y-90570805D01*
X156670742Y-90617722D01*
X156690203Y-90685999D01*
X156669661Y-90753959D01*
X156617457Y-90799195D01*
X156583238Y-90815151D01*
X156583233Y-90815154D01*
X156578251Y-90817477D01*
X156473389Y-90890902D01*
X156395211Y-90945643D01*
X156395208Y-90945645D01*
X156390700Y-90948802D01*
X156228802Y-91110700D01*
X156225645Y-91115208D01*
X156225643Y-91115211D01*
X156196838Y-91156349D01*
X156097477Y-91298251D01*
X156095154Y-91303233D01*
X156095151Y-91303238D01*
X156027153Y-91449062D01*
X156000716Y-91505757D01*
X155999294Y-91511065D01*
X155999293Y-91511067D01*
X155963931Y-91643039D01*
X155941457Y-91726913D01*
X155921502Y-91955000D01*
X155941457Y-92183087D01*
X155942881Y-92188400D01*
X155942881Y-92188402D01*
X155952216Y-92223238D01*
X156000716Y-92404243D01*
X156003039Y-92409224D01*
X156003039Y-92409225D01*
X156095151Y-92606762D01*
X156095154Y-92606767D01*
X156097477Y-92611749D01*
X156228802Y-92799300D01*
X156390700Y-92961198D01*
X156395208Y-92964355D01*
X156395211Y-92964357D01*
X156473389Y-93019098D01*
X156578251Y-93092523D01*
X156583233Y-93094846D01*
X156583238Y-93094849D01*
X156617457Y-93110805D01*
X156670742Y-93157722D01*
X156690203Y-93225999D01*
X156669661Y-93293959D01*
X156617457Y-93339195D01*
X156583238Y-93355151D01*
X156583233Y-93355154D01*
X156578251Y-93357477D01*
X156473389Y-93430902D01*
X156395211Y-93485643D01*
X156395208Y-93485645D01*
X156390700Y-93488802D01*
X156228802Y-93650700D01*
X156097477Y-93838251D01*
X156095154Y-93843233D01*
X156095151Y-93843238D01*
X156017684Y-94009369D01*
X156000716Y-94045757D01*
X155941457Y-94266913D01*
X155921502Y-94495000D01*
X155941457Y-94723087D01*
X155942881Y-94728400D01*
X155942881Y-94728402D01*
X155997232Y-94931239D01*
X156000716Y-94944243D01*
X156003039Y-94949224D01*
X156003039Y-94949225D01*
X156095151Y-95146762D01*
X156095154Y-95146767D01*
X156097477Y-95151749D01*
X156228802Y-95339300D01*
X156390700Y-95501198D01*
X156395208Y-95504355D01*
X156395211Y-95504357D01*
X156473389Y-95559098D01*
X156578251Y-95632523D01*
X156583233Y-95634846D01*
X156583238Y-95634849D01*
X156617457Y-95650805D01*
X156670742Y-95697722D01*
X156690203Y-95765999D01*
X156669661Y-95833959D01*
X156617457Y-95879195D01*
X156583238Y-95895151D01*
X156583233Y-95895154D01*
X156578251Y-95897477D01*
X156473389Y-95970902D01*
X156395211Y-96025643D01*
X156395208Y-96025645D01*
X156390700Y-96028802D01*
X156228802Y-96190700D01*
X156097477Y-96378251D01*
X156095154Y-96383233D01*
X156095151Y-96383238D01*
X156014409Y-96556392D01*
X156000716Y-96585757D01*
X155999294Y-96591065D01*
X155999293Y-96591067D01*
X155994157Y-96610236D01*
X155941457Y-96806913D01*
X155921502Y-97035000D01*
X155941457Y-97263087D01*
X156000716Y-97484243D01*
X156003039Y-97489224D01*
X156003039Y-97489225D01*
X156095151Y-97686762D01*
X156095154Y-97686767D01*
X156097477Y-97691749D01*
X156100634Y-97696257D01*
X156201004Y-97839600D01*
X156228802Y-97879300D01*
X156390700Y-98041198D01*
X156395208Y-98044355D01*
X156395211Y-98044357D01*
X156473389Y-98099098D01*
X156578251Y-98172523D01*
X156583233Y-98174846D01*
X156583238Y-98174849D01*
X156617457Y-98190805D01*
X156670742Y-98237722D01*
X156690203Y-98305999D01*
X156669661Y-98373959D01*
X156617457Y-98419195D01*
X156583238Y-98435151D01*
X156583233Y-98435154D01*
X156578251Y-98437477D01*
X156473389Y-98510902D01*
X156395211Y-98565643D01*
X156395208Y-98565645D01*
X156390700Y-98568802D01*
X156228802Y-98730700D01*
X156097477Y-98918251D01*
X156095154Y-98923233D01*
X156095151Y-98923238D01*
X156013836Y-99097620D01*
X156000716Y-99125757D01*
X155999294Y-99131065D01*
X155999293Y-99131067D01*
X155942881Y-99341598D01*
X155941457Y-99346913D01*
X155921502Y-99575000D01*
X155941457Y-99803087D01*
X155942881Y-99808400D01*
X155942881Y-99808402D01*
X155988585Y-99978968D01*
X156000716Y-100024243D01*
X156003039Y-100029224D01*
X156003039Y-100029225D01*
X156095151Y-100226762D01*
X156095154Y-100226767D01*
X156097477Y-100231749D01*
X156228802Y-100419300D01*
X156390700Y-100581198D01*
X156395208Y-100584355D01*
X156395211Y-100584357D01*
X156473389Y-100639098D01*
X156578251Y-100712523D01*
X156583233Y-100714846D01*
X156583238Y-100714849D01*
X156617457Y-100730805D01*
X156670742Y-100777722D01*
X156690203Y-100845999D01*
X156669661Y-100913959D01*
X156617457Y-100959195D01*
X156583238Y-100975151D01*
X156583233Y-100975154D01*
X156578251Y-100977477D01*
X156473389Y-101050902D01*
X156395211Y-101105643D01*
X156395208Y-101105645D01*
X156390700Y-101108802D01*
X156228802Y-101270700D01*
X156225645Y-101275208D01*
X156225643Y-101275211D01*
X156191897Y-101323406D01*
X156097477Y-101458251D01*
X156095154Y-101463233D01*
X156095151Y-101463238D01*
X156014409Y-101636392D01*
X156000716Y-101665757D01*
X155941457Y-101886913D01*
X155921502Y-102115000D01*
X155941457Y-102343087D01*
X156000716Y-102564243D01*
X156003039Y-102569224D01*
X156003039Y-102569225D01*
X156095151Y-102766762D01*
X156095154Y-102766767D01*
X156097477Y-102771749D01*
X156132973Y-102822442D01*
X156215093Y-102939721D01*
X156228802Y-102959300D01*
X156390700Y-103121198D01*
X156395208Y-103124355D01*
X156395211Y-103124357D01*
X156404844Y-103131102D01*
X156578251Y-103252523D01*
X156583233Y-103254846D01*
X156583238Y-103254849D01*
X156617457Y-103270805D01*
X156670742Y-103317722D01*
X156690203Y-103385999D01*
X156669661Y-103453959D01*
X156617457Y-103499195D01*
X156583238Y-103515151D01*
X156583233Y-103515154D01*
X156578251Y-103517477D01*
X156473389Y-103590902D01*
X156395211Y-103645643D01*
X156395208Y-103645645D01*
X156390700Y-103648802D01*
X156228802Y-103810700D01*
X156225645Y-103815208D01*
X156225643Y-103815211D01*
X156170902Y-103893389D01*
X156097477Y-103998251D01*
X156095154Y-104003233D01*
X156095151Y-104003238D01*
X156014409Y-104176392D01*
X156000716Y-104205757D01*
X155941457Y-104426913D01*
X155921502Y-104655000D01*
X155941457Y-104883087D01*
X156000716Y-105104243D01*
X156003039Y-105109224D01*
X156003039Y-105109225D01*
X156095151Y-105306762D01*
X156095154Y-105306767D01*
X156097477Y-105311749D01*
X156117455Y-105340280D01*
X156215093Y-105479721D01*
X156228802Y-105499300D01*
X156390700Y-105661198D01*
X156395208Y-105664355D01*
X156395211Y-105664357D01*
X156404844Y-105671102D01*
X156578251Y-105792523D01*
X156583233Y-105794846D01*
X156583238Y-105794849D01*
X156617457Y-105810805D01*
X156670742Y-105857722D01*
X156690203Y-105925999D01*
X156669661Y-105993959D01*
X156617457Y-106039195D01*
X156583238Y-106055151D01*
X156583233Y-106055154D01*
X156578251Y-106057477D01*
X156473389Y-106130902D01*
X156395211Y-106185643D01*
X156395208Y-106185645D01*
X156390700Y-106188802D01*
X156228802Y-106350700D01*
X156225645Y-106355208D01*
X156225643Y-106355211D01*
X156170902Y-106433389D01*
X156097477Y-106538251D01*
X156095154Y-106543233D01*
X156095151Y-106543238D01*
X156014409Y-106716392D01*
X156000716Y-106745757D01*
X155941457Y-106966913D01*
X155921502Y-107195000D01*
X155941457Y-107423087D01*
X156000716Y-107644243D01*
X156003039Y-107649224D01*
X156003039Y-107649225D01*
X156095151Y-107846762D01*
X156095154Y-107846767D01*
X156097477Y-107851749D01*
X156117455Y-107880280D01*
X156215093Y-108019721D01*
X156228802Y-108039300D01*
X156390700Y-108201198D01*
X156395208Y-108204355D01*
X156395211Y-108204357D01*
X156404844Y-108211102D01*
X156578251Y-108332523D01*
X156583233Y-108334846D01*
X156583238Y-108334849D01*
X156617457Y-108350805D01*
X156670742Y-108397722D01*
X156690203Y-108465999D01*
X156669661Y-108533959D01*
X156617457Y-108579195D01*
X156583238Y-108595151D01*
X156583233Y-108595154D01*
X156578251Y-108597477D01*
X156473389Y-108670902D01*
X156395211Y-108725643D01*
X156395208Y-108725645D01*
X156390700Y-108728802D01*
X156228802Y-108890700D01*
X156225645Y-108895208D01*
X156225643Y-108895211D01*
X156170902Y-108973389D01*
X156097477Y-109078251D01*
X156095154Y-109083233D01*
X156095151Y-109083238D01*
X156014409Y-109256392D01*
X156000716Y-109285757D01*
X155941457Y-109506913D01*
X155921502Y-109735000D01*
X155941457Y-109963087D01*
X156000716Y-110184243D01*
X156003039Y-110189224D01*
X156003039Y-110189225D01*
X156095151Y-110386762D01*
X156095154Y-110386767D01*
X156097477Y-110391749D01*
X156117455Y-110420280D01*
X156215093Y-110559721D01*
X156228802Y-110579300D01*
X156390700Y-110741198D01*
X156395208Y-110744355D01*
X156395211Y-110744357D01*
X156404844Y-110751102D01*
X156578251Y-110872523D01*
X156583233Y-110874846D01*
X156583238Y-110874849D01*
X156617457Y-110890805D01*
X156670742Y-110937722D01*
X156690203Y-111005999D01*
X156669661Y-111073959D01*
X156617457Y-111119195D01*
X156583238Y-111135151D01*
X156583233Y-111135154D01*
X156578251Y-111137477D01*
X156473389Y-111210902D01*
X156395211Y-111265643D01*
X156395208Y-111265645D01*
X156390700Y-111268802D01*
X156228802Y-111430700D01*
X156225645Y-111435208D01*
X156225643Y-111435211D01*
X156170902Y-111513389D01*
X156097477Y-111618251D01*
X156095154Y-111623233D01*
X156095151Y-111623238D01*
X156014409Y-111796392D01*
X156000716Y-111825757D01*
X155941457Y-112046913D01*
X155921502Y-112275000D01*
X155941457Y-112503087D01*
X156000716Y-112724243D01*
X156003039Y-112729224D01*
X156003039Y-112729225D01*
X156095151Y-112926762D01*
X156095154Y-112926767D01*
X156097477Y-112931749D01*
X156117455Y-112960280D01*
X156215093Y-113099721D01*
X156228802Y-113119300D01*
X156390700Y-113281198D01*
X156395208Y-113284355D01*
X156395211Y-113284357D01*
X156404844Y-113291102D01*
X156578251Y-113412523D01*
X156583233Y-113414846D01*
X156583238Y-113414849D01*
X156617457Y-113430805D01*
X156670742Y-113477722D01*
X156690203Y-113545999D01*
X156669661Y-113613959D01*
X156617457Y-113659195D01*
X156583238Y-113675151D01*
X156583233Y-113675154D01*
X156578251Y-113677477D01*
X156473389Y-113750902D01*
X156395211Y-113805643D01*
X156395208Y-113805645D01*
X156390700Y-113808802D01*
X156228802Y-113970700D01*
X156225645Y-113975208D01*
X156225643Y-113975211D01*
X156170902Y-114053389D01*
X156097477Y-114158251D01*
X156095154Y-114163233D01*
X156095151Y-114163238D01*
X156014409Y-114336392D01*
X156000716Y-114365757D01*
X155941457Y-114586913D01*
X155921502Y-114815000D01*
X155941457Y-115043087D01*
X156000716Y-115264243D01*
X156003039Y-115269224D01*
X156003039Y-115269225D01*
X156095151Y-115466762D01*
X156095154Y-115466767D01*
X156097477Y-115471749D01*
X156117455Y-115500280D01*
X156215093Y-115639721D01*
X156228802Y-115659300D01*
X156390700Y-115821198D01*
X156395208Y-115824355D01*
X156395211Y-115824357D01*
X156404844Y-115831102D01*
X156578251Y-115952523D01*
X156583233Y-115954846D01*
X156583238Y-115954849D01*
X156617457Y-115970805D01*
X156670742Y-116017722D01*
X156690203Y-116085999D01*
X156669661Y-116153959D01*
X156617457Y-116199195D01*
X156583238Y-116215151D01*
X156583233Y-116215154D01*
X156578251Y-116217477D01*
X156473389Y-116290902D01*
X156395211Y-116345643D01*
X156395208Y-116345645D01*
X156390700Y-116348802D01*
X156228802Y-116510700D01*
X156225645Y-116515208D01*
X156225643Y-116515211D01*
X156170902Y-116593389D01*
X156097477Y-116698251D01*
X156095154Y-116703233D01*
X156095151Y-116703238D01*
X156014409Y-116876392D01*
X156000716Y-116905757D01*
X155941457Y-117126913D01*
X155921502Y-117355000D01*
X155941457Y-117583087D01*
X156000716Y-117804243D01*
X156003039Y-117809224D01*
X156003039Y-117809225D01*
X156095151Y-118006762D01*
X156095154Y-118006767D01*
X156097477Y-118011749D01*
X156117455Y-118040280D01*
X156215093Y-118179721D01*
X156228802Y-118199300D01*
X156390700Y-118361198D01*
X156395208Y-118364355D01*
X156395211Y-118364357D01*
X156404844Y-118371102D01*
X156578251Y-118492523D01*
X156583233Y-118494846D01*
X156583238Y-118494849D01*
X156617457Y-118510805D01*
X156670742Y-118557722D01*
X156690203Y-118625999D01*
X156669661Y-118693959D01*
X156617457Y-118739195D01*
X156583238Y-118755151D01*
X156583233Y-118755154D01*
X156578251Y-118757477D01*
X156473389Y-118830902D01*
X156395211Y-118885643D01*
X156395208Y-118885645D01*
X156390700Y-118888802D01*
X156228802Y-119050700D01*
X156225645Y-119055208D01*
X156225643Y-119055211D01*
X156170902Y-119133389D01*
X156097477Y-119238251D01*
X156095154Y-119243233D01*
X156095151Y-119243238D01*
X156014409Y-119416392D01*
X156000716Y-119445757D01*
X155941457Y-119666913D01*
X155921502Y-119895000D01*
X155941457Y-120123087D01*
X156000716Y-120344243D01*
X156003039Y-120349224D01*
X156003039Y-120349225D01*
X156095151Y-120546762D01*
X156095154Y-120546767D01*
X156097477Y-120551749D01*
X156117455Y-120580280D01*
X156215093Y-120719721D01*
X156228802Y-120739300D01*
X156390700Y-120901198D01*
X156395208Y-120904355D01*
X156395211Y-120904357D01*
X156404844Y-120911102D01*
X156578251Y-121032523D01*
X156583233Y-121034846D01*
X156583238Y-121034849D01*
X156618049Y-121051081D01*
X156671334Y-121097998D01*
X156690795Y-121166275D01*
X156670253Y-121234235D01*
X156618049Y-121279471D01*
X156583489Y-121295586D01*
X156573993Y-121301069D01*
X156395533Y-121426028D01*
X156387125Y-121433084D01*
X156233084Y-121587125D01*
X156226028Y-121595533D01*
X156101069Y-121773993D01*
X156095586Y-121783489D01*
X156003510Y-121980947D01*
X155999764Y-121991239D01*
X155953606Y-122163503D01*
X155953942Y-122177599D01*
X155961884Y-122181000D01*
X159302967Y-122181000D01*
X159316498Y-122177027D01*
X159317727Y-122168478D01*
X159270236Y-121991239D01*
X159266490Y-121980947D01*
X159174414Y-121783489D01*
X159168931Y-121773993D01*
X159043972Y-121595533D01*
X159036916Y-121587125D01*
X158882875Y-121433084D01*
X158874467Y-121426028D01*
X158696007Y-121301069D01*
X158686511Y-121295586D01*
X158651951Y-121279471D01*
X158598666Y-121232554D01*
X158579205Y-121164277D01*
X158599747Y-121096317D01*
X158651951Y-121051081D01*
X158686762Y-121034849D01*
X158686767Y-121034846D01*
X158691749Y-121032523D01*
X158865156Y-120911102D01*
X158874789Y-120904357D01*
X158874792Y-120904355D01*
X158879300Y-120901198D01*
X159041198Y-120739300D01*
X159054908Y-120719721D01*
X159152545Y-120580280D01*
X159172523Y-120551749D01*
X159174846Y-120546767D01*
X159174849Y-120546762D01*
X159266961Y-120349225D01*
X159266961Y-120349224D01*
X159269284Y-120344243D01*
X159328543Y-120123087D01*
X159348498Y-119895000D01*
X159328543Y-119666913D01*
X159269284Y-119445757D01*
X159255591Y-119416392D01*
X159174849Y-119243238D01*
X159174846Y-119243233D01*
X159172523Y-119238251D01*
X159099098Y-119133389D01*
X159044357Y-119055211D01*
X159044355Y-119055208D01*
X159041198Y-119050700D01*
X158879300Y-118888802D01*
X158874792Y-118885645D01*
X158874789Y-118885643D01*
X158796611Y-118830902D01*
X158691749Y-118757477D01*
X158686767Y-118755154D01*
X158686762Y-118755151D01*
X158652543Y-118739195D01*
X158599258Y-118692278D01*
X158579797Y-118624001D01*
X158600339Y-118556041D01*
X158652543Y-118510805D01*
X158686762Y-118494849D01*
X158686767Y-118494846D01*
X158691749Y-118492523D01*
X158865156Y-118371102D01*
X158874789Y-118364357D01*
X158874792Y-118364355D01*
X158879300Y-118361198D01*
X159041198Y-118199300D01*
X159054908Y-118179721D01*
X159152545Y-118040280D01*
X159172523Y-118011749D01*
X159174846Y-118006767D01*
X159174849Y-118006762D01*
X159266961Y-117809225D01*
X159266961Y-117809224D01*
X159269284Y-117804243D01*
X159328543Y-117583087D01*
X159348498Y-117355000D01*
X159328543Y-117126913D01*
X159269284Y-116905757D01*
X159255591Y-116876392D01*
X159174849Y-116703238D01*
X159174846Y-116703233D01*
X159172523Y-116698251D01*
X159099098Y-116593389D01*
X159044357Y-116515211D01*
X159044355Y-116515208D01*
X159041198Y-116510700D01*
X158879300Y-116348802D01*
X158874792Y-116345645D01*
X158874789Y-116345643D01*
X158796611Y-116290902D01*
X158691749Y-116217477D01*
X158686767Y-116215154D01*
X158686762Y-116215151D01*
X158652543Y-116199195D01*
X158599258Y-116152278D01*
X158579797Y-116084001D01*
X158600339Y-116016041D01*
X158652543Y-115970805D01*
X158686762Y-115954849D01*
X158686767Y-115954846D01*
X158691749Y-115952523D01*
X158865156Y-115831102D01*
X158874789Y-115824357D01*
X158874792Y-115824355D01*
X158879300Y-115821198D01*
X159041198Y-115659300D01*
X159054908Y-115639721D01*
X159152545Y-115500280D01*
X159172523Y-115471749D01*
X159174846Y-115466767D01*
X159174849Y-115466762D01*
X159266961Y-115269225D01*
X159266961Y-115269224D01*
X159269284Y-115264243D01*
X159328543Y-115043087D01*
X159348498Y-114815000D01*
X159328543Y-114586913D01*
X159269284Y-114365757D01*
X159255591Y-114336392D01*
X159174849Y-114163238D01*
X159174846Y-114163233D01*
X159172523Y-114158251D01*
X159099098Y-114053389D01*
X159044357Y-113975211D01*
X159044355Y-113975208D01*
X159041198Y-113970700D01*
X158879300Y-113808802D01*
X158874792Y-113805645D01*
X158874789Y-113805643D01*
X158796611Y-113750902D01*
X158691749Y-113677477D01*
X158686767Y-113675154D01*
X158686762Y-113675151D01*
X158652543Y-113659195D01*
X158599258Y-113612278D01*
X158579797Y-113544001D01*
X158600339Y-113476041D01*
X158652543Y-113430805D01*
X158686762Y-113414849D01*
X158686767Y-113414846D01*
X158691749Y-113412523D01*
X158865156Y-113291102D01*
X158874789Y-113284357D01*
X158874792Y-113284355D01*
X158879300Y-113281198D01*
X159041198Y-113119300D01*
X159054908Y-113099721D01*
X159152545Y-112960280D01*
X159172523Y-112931749D01*
X159174846Y-112926767D01*
X159174849Y-112926762D01*
X159266961Y-112729225D01*
X159266961Y-112729224D01*
X159269284Y-112724243D01*
X159328543Y-112503087D01*
X159348498Y-112275000D01*
X159328543Y-112046913D01*
X159269284Y-111825757D01*
X159255591Y-111796392D01*
X159174849Y-111623238D01*
X159174846Y-111623233D01*
X159172523Y-111618251D01*
X159099098Y-111513389D01*
X159044357Y-111435211D01*
X159044355Y-111435208D01*
X159041198Y-111430700D01*
X158879300Y-111268802D01*
X158874792Y-111265645D01*
X158874789Y-111265643D01*
X158796611Y-111210902D01*
X158691749Y-111137477D01*
X158686767Y-111135154D01*
X158686762Y-111135151D01*
X158652543Y-111119195D01*
X158599258Y-111072278D01*
X158579797Y-111004001D01*
X158600339Y-110936041D01*
X158652543Y-110890805D01*
X158686762Y-110874849D01*
X158686767Y-110874846D01*
X158691749Y-110872523D01*
X158865156Y-110751102D01*
X158874789Y-110744357D01*
X158874792Y-110744355D01*
X158879300Y-110741198D01*
X159041198Y-110579300D01*
X159054908Y-110559721D01*
X159152545Y-110420280D01*
X159172523Y-110391749D01*
X159174846Y-110386767D01*
X159174849Y-110386762D01*
X159266961Y-110189225D01*
X159266961Y-110189224D01*
X159269284Y-110184243D01*
X159328543Y-109963087D01*
X159348498Y-109735000D01*
X159328543Y-109506913D01*
X159269284Y-109285757D01*
X159255591Y-109256392D01*
X159174849Y-109083238D01*
X159174846Y-109083233D01*
X159172523Y-109078251D01*
X159099098Y-108973389D01*
X159044357Y-108895211D01*
X159044355Y-108895208D01*
X159041198Y-108890700D01*
X158879300Y-108728802D01*
X158874792Y-108725645D01*
X158874789Y-108725643D01*
X158796611Y-108670902D01*
X158691749Y-108597477D01*
X158686767Y-108595154D01*
X158686762Y-108595151D01*
X158652543Y-108579195D01*
X158599258Y-108532278D01*
X158579797Y-108464001D01*
X158600339Y-108396041D01*
X158652543Y-108350805D01*
X158686762Y-108334849D01*
X158686767Y-108334846D01*
X158691749Y-108332523D01*
X158865156Y-108211102D01*
X158874789Y-108204357D01*
X158874792Y-108204355D01*
X158879300Y-108201198D01*
X159041198Y-108039300D01*
X159054908Y-108019721D01*
X159152545Y-107880280D01*
X159172523Y-107851749D01*
X159174846Y-107846767D01*
X159174849Y-107846762D01*
X159266961Y-107649225D01*
X159266961Y-107649224D01*
X159269284Y-107644243D01*
X159328543Y-107423087D01*
X159348498Y-107195000D01*
X159328543Y-106966913D01*
X159269284Y-106745757D01*
X159255591Y-106716392D01*
X159174849Y-106543238D01*
X159174846Y-106543233D01*
X159172523Y-106538251D01*
X159099098Y-106433389D01*
X159044357Y-106355211D01*
X159044355Y-106355208D01*
X159041198Y-106350700D01*
X158879300Y-106188802D01*
X158874792Y-106185645D01*
X158874789Y-106185643D01*
X158796611Y-106130902D01*
X158691749Y-106057477D01*
X158686767Y-106055154D01*
X158686762Y-106055151D01*
X158652543Y-106039195D01*
X158599258Y-105992278D01*
X158579797Y-105924001D01*
X158600339Y-105856041D01*
X158652543Y-105810805D01*
X158686762Y-105794849D01*
X158686767Y-105794846D01*
X158691749Y-105792523D01*
X158865156Y-105671102D01*
X158874789Y-105664357D01*
X158874792Y-105664355D01*
X158879300Y-105661198D01*
X159041198Y-105499300D01*
X159054908Y-105479721D01*
X159152545Y-105340280D01*
X159172523Y-105311749D01*
X159174846Y-105306767D01*
X159174849Y-105306762D01*
X159266961Y-105109225D01*
X159266961Y-105109224D01*
X159269284Y-105104243D01*
X159328543Y-104883087D01*
X159348498Y-104655000D01*
X159328543Y-104426913D01*
X159269284Y-104205757D01*
X159255591Y-104176392D01*
X159174849Y-104003238D01*
X159174846Y-104003233D01*
X159172523Y-103998251D01*
X159099098Y-103893389D01*
X159044357Y-103815211D01*
X159044355Y-103815208D01*
X159041198Y-103810700D01*
X158879300Y-103648802D01*
X158874792Y-103645645D01*
X158874789Y-103645643D01*
X158796611Y-103590902D01*
X158691749Y-103517477D01*
X158686767Y-103515154D01*
X158686762Y-103515151D01*
X158652543Y-103499195D01*
X158599258Y-103452278D01*
X158579797Y-103384001D01*
X158600339Y-103316041D01*
X158652543Y-103270805D01*
X158686762Y-103254849D01*
X158686767Y-103254846D01*
X158691749Y-103252523D01*
X158865156Y-103131102D01*
X158874789Y-103124357D01*
X158874792Y-103124355D01*
X158879300Y-103121198D01*
X159041198Y-102959300D01*
X159054908Y-102939721D01*
X159137027Y-102822442D01*
X159172523Y-102771749D01*
X159174846Y-102766767D01*
X159174849Y-102766762D01*
X159266961Y-102569225D01*
X159266961Y-102569224D01*
X159269284Y-102564243D01*
X159328543Y-102343087D01*
X159348498Y-102115000D01*
X159328543Y-101886913D01*
X159269284Y-101665757D01*
X159255591Y-101636392D01*
X159174849Y-101463238D01*
X159174846Y-101463233D01*
X159172523Y-101458251D01*
X159078103Y-101323406D01*
X159044357Y-101275211D01*
X159044355Y-101275208D01*
X159041198Y-101270700D01*
X158879300Y-101108802D01*
X158874792Y-101105645D01*
X158874789Y-101105643D01*
X158796611Y-101050902D01*
X158691749Y-100977477D01*
X158686767Y-100975154D01*
X158686762Y-100975151D01*
X158652543Y-100959195D01*
X158599258Y-100912278D01*
X158579797Y-100844001D01*
X158600339Y-100776041D01*
X158652543Y-100730805D01*
X158686762Y-100714849D01*
X158686767Y-100714846D01*
X158691749Y-100712523D01*
X158796611Y-100639098D01*
X158874789Y-100584357D01*
X158874792Y-100584355D01*
X158879300Y-100581198D01*
X159041198Y-100419300D01*
X159172523Y-100231749D01*
X159174846Y-100226767D01*
X159174849Y-100226762D01*
X159266961Y-100029225D01*
X159266961Y-100029224D01*
X159269284Y-100024243D01*
X159281416Y-99978968D01*
X159327119Y-99808402D01*
X159327119Y-99808400D01*
X159328543Y-99803087D01*
X159348498Y-99575000D01*
X159328543Y-99346913D01*
X159327119Y-99341598D01*
X159270707Y-99131067D01*
X159270706Y-99131065D01*
X159269284Y-99125757D01*
X159256164Y-99097620D01*
X159174849Y-98923238D01*
X159174846Y-98923233D01*
X159172523Y-98918251D01*
X159041198Y-98730700D01*
X158879300Y-98568802D01*
X158874792Y-98565645D01*
X158874789Y-98565643D01*
X158796611Y-98510902D01*
X158691749Y-98437477D01*
X158686767Y-98435154D01*
X158686762Y-98435151D01*
X158652543Y-98419195D01*
X158599258Y-98372278D01*
X158579797Y-98304001D01*
X158600339Y-98236041D01*
X158652543Y-98190805D01*
X158686762Y-98174849D01*
X158686767Y-98174846D01*
X158691749Y-98172523D01*
X158796611Y-98099098D01*
X158874789Y-98044357D01*
X158874792Y-98044355D01*
X158879300Y-98041198D01*
X159041198Y-97879300D01*
X159068997Y-97839600D01*
X159169366Y-97696257D01*
X159172523Y-97691749D01*
X159174846Y-97686767D01*
X159174849Y-97686762D01*
X159266961Y-97489225D01*
X159266961Y-97489224D01*
X159269284Y-97484243D01*
X159328543Y-97263087D01*
X159348498Y-97035000D01*
X159328543Y-96806913D01*
X159275843Y-96610236D01*
X159270707Y-96591067D01*
X159270706Y-96591065D01*
X159269284Y-96585757D01*
X159255591Y-96556392D01*
X159174849Y-96383238D01*
X159174846Y-96383233D01*
X159172523Y-96378251D01*
X159041198Y-96190700D01*
X158879300Y-96028802D01*
X158874792Y-96025645D01*
X158874789Y-96025643D01*
X158796611Y-95970902D01*
X158691749Y-95897477D01*
X158686767Y-95895154D01*
X158686762Y-95895151D01*
X158652543Y-95879195D01*
X158599258Y-95832278D01*
X158579797Y-95764001D01*
X158600339Y-95696041D01*
X158652543Y-95650805D01*
X158686762Y-95634849D01*
X158686767Y-95634846D01*
X158691749Y-95632523D01*
X158796611Y-95559098D01*
X158874789Y-95504357D01*
X158874792Y-95504355D01*
X158879300Y-95501198D01*
X159041198Y-95339300D01*
X159172523Y-95151749D01*
X159174846Y-95146767D01*
X159174849Y-95146762D01*
X159266961Y-94949225D01*
X159266961Y-94949224D01*
X159269284Y-94944243D01*
X159272769Y-94931239D01*
X159327119Y-94728402D01*
X159327119Y-94728400D01*
X159328543Y-94723087D01*
X159348498Y-94495000D01*
X159328543Y-94266913D01*
X159269284Y-94045757D01*
X159252316Y-94009369D01*
X159174849Y-93843238D01*
X159174846Y-93843233D01*
X159172523Y-93838251D01*
X159041198Y-93650700D01*
X158879300Y-93488802D01*
X158874792Y-93485645D01*
X158874789Y-93485643D01*
X158796611Y-93430902D01*
X158691749Y-93357477D01*
X158686767Y-93355154D01*
X158686762Y-93355151D01*
X158652543Y-93339195D01*
X158599258Y-93292278D01*
X158579797Y-93224001D01*
X158600339Y-93156041D01*
X158652543Y-93110805D01*
X158686762Y-93094849D01*
X158686767Y-93094846D01*
X158691749Y-93092523D01*
X158796611Y-93019098D01*
X158874789Y-92964357D01*
X158874792Y-92964355D01*
X158879300Y-92961198D01*
X159041198Y-92799300D01*
X159172523Y-92611749D01*
X159174846Y-92606767D01*
X159174849Y-92606762D01*
X159266961Y-92409225D01*
X159266961Y-92409224D01*
X159269284Y-92404243D01*
X159317785Y-92223238D01*
X159327119Y-92188402D01*
X159327119Y-92188400D01*
X159328543Y-92183087D01*
X159348498Y-91955000D01*
X159328543Y-91726913D01*
X159306069Y-91643039D01*
X159270707Y-91511067D01*
X159270706Y-91511065D01*
X159269284Y-91505757D01*
X159242847Y-91449062D01*
X159174849Y-91303238D01*
X159174846Y-91303233D01*
X159172523Y-91298251D01*
X159073162Y-91156349D01*
X159044357Y-91115211D01*
X159044355Y-91115208D01*
X159041198Y-91110700D01*
X158879300Y-90948802D01*
X158874792Y-90945645D01*
X158874789Y-90945643D01*
X158796611Y-90890902D01*
X158691749Y-90817477D01*
X158686767Y-90815154D01*
X158686762Y-90815151D01*
X158652543Y-90799195D01*
X158599258Y-90752278D01*
X158579797Y-90684001D01*
X158600339Y-90616041D01*
X158652543Y-90570805D01*
X158686762Y-90554849D01*
X158686767Y-90554846D01*
X158691749Y-90552523D01*
X158801500Y-90475674D01*
X158874789Y-90424357D01*
X158874792Y-90424355D01*
X158879300Y-90421198D01*
X159041198Y-90259300D01*
X159051683Y-90244327D01*
X159169366Y-90076257D01*
X159172523Y-90071749D01*
X159174846Y-90066767D01*
X159174849Y-90066762D01*
X159266961Y-89869225D01*
X159266961Y-89869224D01*
X159269284Y-89864243D01*
X159287543Y-89796102D01*
X159327119Y-89648402D01*
X159327119Y-89648400D01*
X159328543Y-89643087D01*
X159348498Y-89415000D01*
X159328543Y-89186913D01*
X159269284Y-88965757D01*
X159174966Y-88763489D01*
X159174849Y-88763238D01*
X159174846Y-88763233D01*
X159172523Y-88758251D01*
X159072515Y-88615425D01*
X159044357Y-88575211D01*
X159044355Y-88575208D01*
X159041198Y-88570700D01*
X158879300Y-88408802D01*
X158874792Y-88405645D01*
X158874789Y-88405643D01*
X158796611Y-88350902D01*
X158691749Y-88277477D01*
X158686767Y-88275154D01*
X158686762Y-88275151D01*
X158652543Y-88259195D01*
X158599258Y-88212278D01*
X158579797Y-88144001D01*
X158600339Y-88076041D01*
X158652543Y-88030805D01*
X158686762Y-88014849D01*
X158686767Y-88014846D01*
X158691749Y-88012523D01*
X158801500Y-87935674D01*
X158874789Y-87884357D01*
X158874792Y-87884355D01*
X158879300Y-87881198D01*
X159041198Y-87719300D01*
X159051683Y-87704327D01*
X159169366Y-87536257D01*
X159172523Y-87531749D01*
X159174846Y-87526767D01*
X159174849Y-87526762D01*
X159266961Y-87329225D01*
X159266961Y-87329224D01*
X159269284Y-87324243D01*
X159328543Y-87103087D01*
X159348498Y-86875000D01*
X159328543Y-86646913D01*
X159269284Y-86425757D01*
X159266961Y-86420775D01*
X159174849Y-86223238D01*
X159174846Y-86223233D01*
X159172523Y-86218251D01*
X159073162Y-86076349D01*
X159044357Y-86035211D01*
X159044355Y-86035208D01*
X159041198Y-86030700D01*
X158879300Y-85868802D01*
X158874792Y-85865645D01*
X158874789Y-85865643D01*
X158796611Y-85810902D01*
X158691749Y-85737477D01*
X158686767Y-85735154D01*
X158686762Y-85735151D01*
X158652543Y-85719195D01*
X158599258Y-85672278D01*
X158579797Y-85604001D01*
X158600339Y-85536041D01*
X158652543Y-85490805D01*
X158686762Y-85474849D01*
X158686767Y-85474846D01*
X158691749Y-85472523D01*
X158801500Y-85395674D01*
X158874789Y-85344357D01*
X158874792Y-85344355D01*
X158879300Y-85341198D01*
X159041198Y-85179300D01*
X159051683Y-85164327D01*
X159169366Y-84996257D01*
X159172523Y-84991749D01*
X159174846Y-84986767D01*
X159174849Y-84986762D01*
X159266961Y-84789225D01*
X159266961Y-84789224D01*
X159269284Y-84784243D01*
X159328543Y-84563087D01*
X159348498Y-84335000D01*
X159328543Y-84106913D01*
X159269284Y-83885757D01*
X159266961Y-83880775D01*
X159174849Y-83683238D01*
X159174846Y-83683233D01*
X159172523Y-83678251D01*
X159073162Y-83536349D01*
X159044357Y-83495211D01*
X159044355Y-83495208D01*
X159041198Y-83490700D01*
X158879300Y-83328802D01*
X158874792Y-83325645D01*
X158874789Y-83325643D01*
X158778829Y-83258451D01*
X158691749Y-83197477D01*
X158686767Y-83195154D01*
X158686762Y-83195151D01*
X158652543Y-83179195D01*
X158599258Y-83132278D01*
X158579797Y-83064001D01*
X158600339Y-82996041D01*
X158652543Y-82950805D01*
X158686762Y-82934849D01*
X158686767Y-82934846D01*
X158691749Y-82932523D01*
X158809541Y-82850044D01*
X158874789Y-82804357D01*
X158874792Y-82804355D01*
X158879300Y-82801198D01*
X159041198Y-82639300D01*
X159051683Y-82624327D01*
X159169366Y-82456257D01*
X159172523Y-82451749D01*
X159174846Y-82446767D01*
X159174849Y-82446762D01*
X159266961Y-82249225D01*
X159266961Y-82249224D01*
X159269284Y-82244243D01*
X159274895Y-82223305D01*
X159327119Y-82028402D01*
X159327119Y-82028400D01*
X159328543Y-82023087D01*
X159348498Y-81795000D01*
X159328543Y-81566913D01*
X159318829Y-81530661D01*
X159270707Y-81351067D01*
X159270706Y-81351065D01*
X159269284Y-81345757D01*
X159237882Y-81278414D01*
X159174849Y-81143238D01*
X159174846Y-81143233D01*
X159172523Y-81138251D01*
X159073162Y-80996349D01*
X159044357Y-80955211D01*
X159044355Y-80955208D01*
X159041198Y-80950700D01*
X158879300Y-80788802D01*
X158874792Y-80785645D01*
X158874789Y-80785643D01*
X158778829Y-80718451D01*
X158691749Y-80657477D01*
X158686767Y-80655154D01*
X158686762Y-80655151D01*
X158652543Y-80639195D01*
X158599258Y-80592278D01*
X158579797Y-80524001D01*
X158600339Y-80456041D01*
X158652543Y-80410805D01*
X158686762Y-80394849D01*
X158686767Y-80394846D01*
X158691749Y-80392523D01*
X158796611Y-80319098D01*
X158874789Y-80264357D01*
X158874792Y-80264355D01*
X158879300Y-80261198D01*
X159041198Y-80099300D01*
X159051683Y-80084327D01*
X159169366Y-79916257D01*
X159172523Y-79911749D01*
X159174846Y-79906767D01*
X159174849Y-79906762D01*
X159266961Y-79709225D01*
X159266961Y-79709224D01*
X159269284Y-79704243D01*
X159328543Y-79483087D01*
X159348498Y-79255000D01*
X159328543Y-79026913D01*
X159269284Y-78805757D01*
X159266961Y-78800775D01*
X159174849Y-78603238D01*
X159174846Y-78603233D01*
X159172523Y-78598251D01*
X159073162Y-78456349D01*
X159044357Y-78415211D01*
X159044355Y-78415208D01*
X159041198Y-78410700D01*
X158879300Y-78248802D01*
X158874792Y-78245645D01*
X158874789Y-78245643D01*
X158796611Y-78190902D01*
X158691749Y-78117477D01*
X158686767Y-78115154D01*
X158686762Y-78115151D01*
X158652543Y-78099195D01*
X158599258Y-78052278D01*
X158579797Y-77984001D01*
X158600339Y-77916041D01*
X158652543Y-77870805D01*
X158686762Y-77854849D01*
X158686767Y-77854846D01*
X158691749Y-77852523D01*
X158809541Y-77770044D01*
X158874789Y-77724357D01*
X158874792Y-77724355D01*
X158879300Y-77721198D01*
X159041198Y-77559300D01*
X159051683Y-77544327D01*
X159169366Y-77376257D01*
X159172523Y-77371749D01*
X159174846Y-77366767D01*
X159174849Y-77366762D01*
X159266961Y-77169225D01*
X159266961Y-77169224D01*
X159269284Y-77164243D01*
X159328543Y-76943087D01*
X159348498Y-76715000D01*
X159328543Y-76486913D01*
X159327119Y-76481598D01*
X159270707Y-76271067D01*
X159270706Y-76271065D01*
X159269284Y-76265757D01*
X159220111Y-76160304D01*
X159174849Y-76063238D01*
X159174846Y-76063233D01*
X159172523Y-76058251D01*
X159073162Y-75916349D01*
X159044357Y-75875211D01*
X159044355Y-75875208D01*
X159041198Y-75870700D01*
X158879300Y-75708802D01*
X158874792Y-75705645D01*
X158874789Y-75705643D01*
X158796045Y-75650506D01*
X158691749Y-75577477D01*
X158686767Y-75575154D01*
X158686762Y-75575151D01*
X158652543Y-75559195D01*
X158599258Y-75512278D01*
X158579797Y-75444001D01*
X158600339Y-75376041D01*
X158652543Y-75330805D01*
X158686762Y-75314849D01*
X158686767Y-75314846D01*
X158691749Y-75312523D01*
X158833805Y-75213054D01*
X158874789Y-75184357D01*
X158874792Y-75184355D01*
X158879300Y-75181198D01*
X159041198Y-75019300D01*
X159172523Y-74831749D01*
X159174846Y-74826767D01*
X159174849Y-74826762D01*
X159266961Y-74629225D01*
X159266961Y-74629224D01*
X159269284Y-74624243D01*
X159292285Y-74538405D01*
X159327119Y-74408402D01*
X159327119Y-74408400D01*
X159328543Y-74403087D01*
X159348498Y-74175000D01*
X159328543Y-73946913D01*
X159318829Y-73910661D01*
X159270707Y-73731067D01*
X159270706Y-73731065D01*
X159269284Y-73725757D01*
X159255591Y-73696392D01*
X159174849Y-73523238D01*
X159174846Y-73523233D01*
X159172523Y-73518251D01*
X159060755Y-73358630D01*
X159044357Y-73335211D01*
X159044355Y-73335208D01*
X159041198Y-73330700D01*
X158879300Y-73168802D01*
X158874792Y-73165645D01*
X158874789Y-73165643D01*
X158796611Y-73110902D01*
X158691749Y-73037477D01*
X158686767Y-73035154D01*
X158686762Y-73035151D01*
X158489225Y-72943039D01*
X158489224Y-72943039D01*
X158484243Y-72940716D01*
X158478935Y-72939294D01*
X158478933Y-72939293D01*
X158268402Y-72882881D01*
X158268400Y-72882881D01*
X158263087Y-72881457D01*
X158163520Y-72872746D01*
X158094851Y-72866738D01*
X158094844Y-72866738D01*
X158092127Y-72866500D01*
X157177873Y-72866500D01*
X157175156Y-72866738D01*
X157175149Y-72866738D01*
X157106480Y-72872746D01*
X157006913Y-72881457D01*
X157001600Y-72882881D01*
X157001598Y-72882881D01*
X156791067Y-72939293D01*
X156791065Y-72939294D01*
X156785757Y-72940716D01*
X156780776Y-72943039D01*
X156780775Y-72943039D01*
X156583238Y-73035151D01*
X156583233Y-73035154D01*
X156578251Y-73037477D01*
X156473389Y-73110902D01*
X156395211Y-73165643D01*
X156395208Y-73165645D01*
X156390700Y-73168802D01*
X156284146Y-73275356D01*
X156221838Y-73309379D01*
X156151022Y-73304315D01*
X156105959Y-73275354D01*
X152427952Y-69597347D01*
X152420412Y-69589061D01*
X152416300Y-69582582D01*
X152366648Y-69535956D01*
X152363807Y-69533202D01*
X152344070Y-69513465D01*
X152340873Y-69510985D01*
X152331851Y-69503280D01*
X152318416Y-69490664D01*
X152299621Y-69473014D01*
X152292675Y-69469195D01*
X152292672Y-69469193D01*
X152281866Y-69463252D01*
X152265347Y-69452401D01*
X152264883Y-69452041D01*
X152249341Y-69439986D01*
X152242072Y-69436841D01*
X152242068Y-69436838D01*
X152208763Y-69422426D01*
X152198113Y-69417209D01*
X152159360Y-69395905D01*
X152139737Y-69390867D01*
X152121034Y-69384463D01*
X152109720Y-69379567D01*
X152109719Y-69379567D01*
X152102445Y-69376419D01*
X152094622Y-69375180D01*
X152094612Y-69375177D01*
X152058776Y-69369501D01*
X152047156Y-69367095D01*
X152012011Y-69358072D01*
X152012010Y-69358072D01*
X152004330Y-69356100D01*
X151984076Y-69356100D01*
X151964365Y-69354549D01*
X151961834Y-69354148D01*
X151944357Y-69351380D01*
X151936465Y-69352126D01*
X151900339Y-69355541D01*
X151888481Y-69356100D01*
X132372963Y-69356100D01*
X132361779Y-69355573D01*
X132354291Y-69353899D01*
X132346368Y-69354148D01*
X132286233Y-69356038D01*
X132282275Y-69356100D01*
X132254344Y-69356100D01*
X132250429Y-69356595D01*
X132250425Y-69356595D01*
X132250367Y-69356603D01*
X132250338Y-69356606D01*
X132238496Y-69357539D01*
X132194310Y-69358927D01*
X132176944Y-69363972D01*
X132174858Y-69364578D01*
X132155506Y-69368586D01*
X132143268Y-69370132D01*
X132143266Y-69370133D01*
X132135403Y-69371126D01*
X132094286Y-69387406D01*
X132083085Y-69391241D01*
X132040606Y-69403582D01*
X132033787Y-69407615D01*
X132033782Y-69407617D01*
X132023171Y-69413893D01*
X132005421Y-69422590D01*
X131986583Y-69430048D01*
X131980167Y-69434709D01*
X131980166Y-69434710D01*
X131950825Y-69456028D01*
X131940901Y-69462547D01*
X131909660Y-69481022D01*
X131909655Y-69481026D01*
X131902837Y-69485058D01*
X131888513Y-69499382D01*
X131873481Y-69512221D01*
X131857093Y-69524128D01*
X131828912Y-69558193D01*
X131820922Y-69566973D01*
X128063290Y-73324605D01*
X128000980Y-73358630D01*
X127930165Y-73353565D01*
X127885102Y-73324604D01*
X127729300Y-73168802D01*
X127724792Y-73165645D01*
X127724789Y-73165643D01*
X127646611Y-73110902D01*
X127541749Y-73037477D01*
X127536767Y-73035154D01*
X127536762Y-73035151D01*
X127339225Y-72943039D01*
X127339224Y-72943039D01*
X127334243Y-72940716D01*
X127328935Y-72939294D01*
X127328933Y-72939293D01*
X127118402Y-72882881D01*
X127118400Y-72882881D01*
X127113087Y-72881457D01*
X127013520Y-72872746D01*
X126944851Y-72866738D01*
X126944844Y-72866738D01*
X126942127Y-72866500D01*
X126027873Y-72866500D01*
X126025156Y-72866738D01*
X126025149Y-72866738D01*
X125956480Y-72872746D01*
X125856913Y-72881457D01*
X125851600Y-72882881D01*
X125851598Y-72882881D01*
X125641067Y-72939293D01*
X125641065Y-72939294D01*
X125635757Y-72940716D01*
X125630776Y-72943039D01*
X125630775Y-72943039D01*
X125433238Y-73035151D01*
X125433233Y-73035154D01*
X125428251Y-73037477D01*
X125323389Y-73110902D01*
X125245211Y-73165643D01*
X125245208Y-73165645D01*
X125240700Y-73168802D01*
X125078802Y-73330700D01*
X125075645Y-73335208D01*
X125075643Y-73335211D01*
X125059245Y-73358630D01*
X124947477Y-73518251D01*
X124945154Y-73523233D01*
X124945151Y-73523238D01*
X124864409Y-73696392D01*
X124850716Y-73725757D01*
X124849294Y-73731065D01*
X124849293Y-73731067D01*
X124801171Y-73910661D01*
X124791457Y-73946913D01*
X124771502Y-74175000D01*
X124791457Y-74403087D01*
X124792881Y-74408400D01*
X124792881Y-74408402D01*
X124827716Y-74538405D01*
X124850716Y-74624243D01*
X124853039Y-74629224D01*
X124853039Y-74629225D01*
X124945151Y-74826762D01*
X124945154Y-74826767D01*
X124947477Y-74831749D01*
X125078802Y-75019300D01*
X125240700Y-75181198D01*
X125245208Y-75184355D01*
X125245211Y-75184357D01*
X125286195Y-75213054D01*
X125428251Y-75312523D01*
X125433233Y-75314846D01*
X125433238Y-75314849D01*
X125467457Y-75330805D01*
X125520742Y-75377722D01*
X125540203Y-75445999D01*
X125519661Y-75513959D01*
X125467457Y-75559195D01*
X125433238Y-75575151D01*
X125433233Y-75575154D01*
X125428251Y-75577477D01*
X125323955Y-75650506D01*
X125245211Y-75705643D01*
X125245208Y-75705645D01*
X125240700Y-75708802D01*
X125078802Y-75870700D01*
X125075645Y-75875208D01*
X125075643Y-75875211D01*
X125046838Y-75916349D01*
X124947477Y-76058251D01*
X124945154Y-76063233D01*
X124945151Y-76063238D01*
X124899889Y-76160304D01*
X124850716Y-76265757D01*
X124849294Y-76271065D01*
X124849293Y-76271067D01*
X124792881Y-76481598D01*
X124791457Y-76486913D01*
X124771502Y-76715000D01*
X124791457Y-76943087D01*
X124850716Y-77164243D01*
X124853039Y-77169224D01*
X124853039Y-77169225D01*
X124945151Y-77366762D01*
X124945154Y-77366767D01*
X124947477Y-77371749D01*
X124950634Y-77376257D01*
X125068318Y-77544327D01*
X125078802Y-77559300D01*
X125240700Y-77721198D01*
X125245208Y-77724355D01*
X125245211Y-77724357D01*
X125310459Y-77770044D01*
X125428251Y-77852523D01*
X125433233Y-77854846D01*
X125433238Y-77854849D01*
X125467457Y-77870805D01*
X125520742Y-77917722D01*
X125540203Y-77985999D01*
X125519661Y-78053959D01*
X125467457Y-78099195D01*
X125433238Y-78115151D01*
X125433233Y-78115154D01*
X125428251Y-78117477D01*
X125323389Y-78190902D01*
X125245211Y-78245643D01*
X125245208Y-78245645D01*
X125240700Y-78248802D01*
X125078802Y-78410700D01*
X125075645Y-78415208D01*
X125075643Y-78415211D01*
X125046838Y-78456349D01*
X124947477Y-78598251D01*
X124945154Y-78603233D01*
X124945151Y-78603238D01*
X124853039Y-78800775D01*
X124850716Y-78805757D01*
X124791457Y-79026913D01*
X124771502Y-79255000D01*
X124791457Y-79483087D01*
X124850716Y-79704243D01*
X124853039Y-79709224D01*
X124853039Y-79709225D01*
X124945151Y-79906762D01*
X124945154Y-79906767D01*
X124947477Y-79911749D01*
X124950634Y-79916257D01*
X125068318Y-80084327D01*
X125078802Y-80099300D01*
X125240700Y-80261198D01*
X125245208Y-80264355D01*
X125245211Y-80264357D01*
X125323389Y-80319098D01*
X125428251Y-80392523D01*
X125433233Y-80394846D01*
X125433238Y-80394849D01*
X125467457Y-80410805D01*
X125520742Y-80457722D01*
X125540203Y-80525999D01*
X125519661Y-80593959D01*
X125467457Y-80639195D01*
X125433238Y-80655151D01*
X125433233Y-80655154D01*
X125428251Y-80657477D01*
X125341171Y-80718451D01*
X125245211Y-80785643D01*
X125245208Y-80785645D01*
X125240700Y-80788802D01*
X125078802Y-80950700D01*
X125075645Y-80955208D01*
X125075643Y-80955211D01*
X125046838Y-80996349D01*
X124947477Y-81138251D01*
X124945154Y-81143233D01*
X124945151Y-81143238D01*
X124882118Y-81278414D01*
X124850716Y-81345757D01*
X124849294Y-81351065D01*
X124849293Y-81351067D01*
X124801171Y-81530661D01*
X124791457Y-81566913D01*
X124771502Y-81795000D01*
X124791457Y-82023087D01*
X124792881Y-82028400D01*
X124792881Y-82028402D01*
X124845106Y-82223305D01*
X124850716Y-82244243D01*
X124853039Y-82249224D01*
X124853039Y-82249225D01*
X124945151Y-82446762D01*
X124945154Y-82446767D01*
X124947477Y-82451749D01*
X124950634Y-82456257D01*
X125068318Y-82624327D01*
X125078802Y-82639300D01*
X125240700Y-82801198D01*
X125245208Y-82804355D01*
X125245211Y-82804357D01*
X125310459Y-82850044D01*
X125428251Y-82932523D01*
X125433233Y-82934846D01*
X125433238Y-82934849D01*
X125467457Y-82950805D01*
X125520742Y-82997722D01*
X125540203Y-83065999D01*
X125519661Y-83133959D01*
X125467457Y-83179195D01*
X125433238Y-83195151D01*
X125433233Y-83195154D01*
X125428251Y-83197477D01*
X125341171Y-83258451D01*
X125245211Y-83325643D01*
X125245208Y-83325645D01*
X125240700Y-83328802D01*
X125078802Y-83490700D01*
X125075645Y-83495208D01*
X125075643Y-83495211D01*
X125046838Y-83536349D01*
X124947477Y-83678251D01*
X124945154Y-83683233D01*
X124945151Y-83683238D01*
X124853039Y-83880775D01*
X124850716Y-83885757D01*
X124791457Y-84106913D01*
X124771502Y-84335000D01*
X124791457Y-84563087D01*
X124850716Y-84784243D01*
X124853039Y-84789224D01*
X124853039Y-84789225D01*
X124945151Y-84986762D01*
X124945154Y-84986767D01*
X124947477Y-84991749D01*
X124950634Y-84996257D01*
X125068318Y-85164327D01*
X125078802Y-85179300D01*
X125240700Y-85341198D01*
X125245208Y-85344355D01*
X125245211Y-85344357D01*
X125318500Y-85395674D01*
X125428251Y-85472523D01*
X125433233Y-85474846D01*
X125433238Y-85474849D01*
X125467457Y-85490805D01*
X125520742Y-85537722D01*
X125540203Y-85605999D01*
X125519661Y-85673959D01*
X125467457Y-85719195D01*
X125433238Y-85735151D01*
X125433233Y-85735154D01*
X125428251Y-85737477D01*
X125323389Y-85810902D01*
X125245211Y-85865643D01*
X125245208Y-85865645D01*
X125240700Y-85868802D01*
X125078802Y-86030700D01*
X125075645Y-86035208D01*
X125075643Y-86035211D01*
X125046838Y-86076349D01*
X124947477Y-86218251D01*
X124945154Y-86223233D01*
X124945151Y-86223238D01*
X124853039Y-86420775D01*
X124850716Y-86425757D01*
X124791457Y-86646913D01*
X124771502Y-86875000D01*
X124791457Y-87103087D01*
X124850716Y-87324243D01*
X124853039Y-87329224D01*
X124853039Y-87329225D01*
X124945151Y-87526762D01*
X124945154Y-87526767D01*
X124947477Y-87531749D01*
X124950634Y-87536257D01*
X125068318Y-87704327D01*
X125078802Y-87719300D01*
X125240700Y-87881198D01*
X125245208Y-87884355D01*
X125245211Y-87884357D01*
X125318500Y-87935674D01*
X125428251Y-88012523D01*
X125433233Y-88014846D01*
X125433238Y-88014849D01*
X125467457Y-88030805D01*
X125520742Y-88077722D01*
X125540203Y-88145999D01*
X125519661Y-88213959D01*
X125467457Y-88259195D01*
X125433238Y-88275151D01*
X125433233Y-88275154D01*
X125428251Y-88277477D01*
X125323389Y-88350902D01*
X125245211Y-88405643D01*
X125245208Y-88405645D01*
X125240700Y-88408802D01*
X125078802Y-88570700D01*
X125075645Y-88575208D01*
X125075643Y-88575211D01*
X125047485Y-88615425D01*
X124947477Y-88758251D01*
X124945154Y-88763233D01*
X124945151Y-88763238D01*
X124945034Y-88763489D01*
X124850716Y-88965757D01*
X124791457Y-89186913D01*
X124771502Y-89415000D01*
X124791457Y-89643087D01*
X124792881Y-89648400D01*
X124792881Y-89648402D01*
X124832458Y-89796102D01*
X124850716Y-89864243D01*
X124853039Y-89869224D01*
X124853039Y-89869225D01*
X124945151Y-90066762D01*
X124945154Y-90066767D01*
X124947477Y-90071749D01*
X124950634Y-90076257D01*
X125068318Y-90244327D01*
X125078802Y-90259300D01*
X125240700Y-90421198D01*
X125245208Y-90424355D01*
X125245211Y-90424357D01*
X125318500Y-90475674D01*
X125428251Y-90552523D01*
X125433233Y-90554846D01*
X125433238Y-90554849D01*
X125467457Y-90570805D01*
X125520742Y-90617722D01*
X125540203Y-90685999D01*
X125519661Y-90753959D01*
X125467457Y-90799195D01*
X125433238Y-90815151D01*
X125433233Y-90815154D01*
X125428251Y-90817477D01*
X125323389Y-90890902D01*
X125245211Y-90945643D01*
X125245208Y-90945645D01*
X125240700Y-90948802D01*
X125078802Y-91110700D01*
X125075645Y-91115208D01*
X125075643Y-91115211D01*
X125046838Y-91156349D01*
X124947477Y-91298251D01*
X124945154Y-91303233D01*
X124945151Y-91303238D01*
X124877153Y-91449062D01*
X124850716Y-91505757D01*
X124849294Y-91511065D01*
X124849293Y-91511067D01*
X124813931Y-91643039D01*
X124791457Y-91726913D01*
X124771502Y-91955000D01*
X124791457Y-92183087D01*
X124792881Y-92188400D01*
X124792881Y-92188402D01*
X124802216Y-92223238D01*
X124850716Y-92404243D01*
X124853039Y-92409224D01*
X124853039Y-92409225D01*
X124945151Y-92606762D01*
X124945154Y-92606767D01*
X124947477Y-92611749D01*
X125078802Y-92799300D01*
X125240700Y-92961198D01*
X125245208Y-92964355D01*
X125245211Y-92964357D01*
X125323389Y-93019098D01*
X125428251Y-93092523D01*
X125433233Y-93094846D01*
X125433238Y-93094849D01*
X125467457Y-93110805D01*
X125520742Y-93157722D01*
X125540203Y-93225999D01*
X125519661Y-93293959D01*
X125467457Y-93339195D01*
X125433238Y-93355151D01*
X125433233Y-93355154D01*
X125428251Y-93357477D01*
X125323389Y-93430902D01*
X125245211Y-93485643D01*
X125245208Y-93485645D01*
X125240700Y-93488802D01*
X125078802Y-93650700D01*
X124947477Y-93838251D01*
X124945154Y-93843233D01*
X124945151Y-93843238D01*
X124867684Y-94009369D01*
X124850716Y-94045757D01*
X124791457Y-94266913D01*
X124771502Y-94495000D01*
X124791457Y-94723087D01*
X124792881Y-94728400D01*
X124792881Y-94728402D01*
X124847232Y-94931239D01*
X124850716Y-94944243D01*
X124853039Y-94949224D01*
X124853039Y-94949225D01*
X124945151Y-95146762D01*
X124945154Y-95146767D01*
X124947477Y-95151749D01*
X125078802Y-95339300D01*
X125240700Y-95501198D01*
X125245208Y-95504355D01*
X125245211Y-95504357D01*
X125323389Y-95559098D01*
X125428251Y-95632523D01*
X125433233Y-95634846D01*
X125433238Y-95634849D01*
X125467457Y-95650805D01*
X125520742Y-95697722D01*
X125540203Y-95765999D01*
X125519661Y-95833959D01*
X125467457Y-95879195D01*
X125433238Y-95895151D01*
X125433233Y-95895154D01*
X125428251Y-95897477D01*
X125323389Y-95970902D01*
X125245211Y-96025643D01*
X125245208Y-96025645D01*
X125240700Y-96028802D01*
X125078802Y-96190700D01*
X124947477Y-96378251D01*
X124945154Y-96383233D01*
X124945151Y-96383238D01*
X124864409Y-96556392D01*
X124850716Y-96585757D01*
X124849294Y-96591065D01*
X124849293Y-96591067D01*
X124844157Y-96610236D01*
X124791457Y-96806913D01*
X124771502Y-97035000D01*
X124791457Y-97263087D01*
X124850716Y-97484243D01*
X124853039Y-97489224D01*
X124853039Y-97489225D01*
X124945151Y-97686762D01*
X124945154Y-97686767D01*
X124947477Y-97691749D01*
X124950634Y-97696257D01*
X125051004Y-97839600D01*
X125078802Y-97879300D01*
X125240700Y-98041198D01*
X125245208Y-98044355D01*
X125245211Y-98044357D01*
X125323389Y-98099098D01*
X125428251Y-98172523D01*
X125433233Y-98174846D01*
X125433238Y-98174849D01*
X125467457Y-98190805D01*
X125520742Y-98237722D01*
X125540203Y-98305999D01*
X125519661Y-98373959D01*
X125467457Y-98419195D01*
X125433238Y-98435151D01*
X125433233Y-98435154D01*
X125428251Y-98437477D01*
X125323389Y-98510902D01*
X125245211Y-98565643D01*
X125245208Y-98565645D01*
X125240700Y-98568802D01*
X125078802Y-98730700D01*
X124947477Y-98918251D01*
X124945154Y-98923233D01*
X124945151Y-98923238D01*
X124863836Y-99097620D01*
X124850716Y-99125757D01*
X124849294Y-99131065D01*
X124849293Y-99131067D01*
X124792881Y-99341598D01*
X124791457Y-99346913D01*
X124771502Y-99575000D01*
X124791457Y-99803087D01*
X124792881Y-99808400D01*
X124792881Y-99808402D01*
X124834651Y-99964289D01*
X124832961Y-100035265D01*
X124793167Y-100094061D01*
X124727903Y-100122009D01*
X124712944Y-100122900D01*
X116806295Y-100122900D01*
X116738174Y-100102898D01*
X116717200Y-100085995D01*
X113273952Y-96642747D01*
X113266412Y-96634461D01*
X113262300Y-96627982D01*
X113212648Y-96581356D01*
X113209807Y-96578602D01*
X113190070Y-96558865D01*
X113186873Y-96556385D01*
X113177851Y-96548680D01*
X113151400Y-96523841D01*
X113145621Y-96518414D01*
X113138675Y-96514595D01*
X113138672Y-96514593D01*
X113127866Y-96508652D01*
X113111347Y-96497801D01*
X113110883Y-96497441D01*
X113095341Y-96485386D01*
X113088072Y-96482241D01*
X113088068Y-96482238D01*
X113054763Y-96467826D01*
X113044113Y-96462609D01*
X113005360Y-96441305D01*
X112985737Y-96436267D01*
X112967034Y-96429863D01*
X112955720Y-96424967D01*
X112955719Y-96424967D01*
X112948445Y-96421819D01*
X112940622Y-96420580D01*
X112940612Y-96420577D01*
X112904776Y-96414901D01*
X112893156Y-96412495D01*
X112858011Y-96403472D01*
X112858010Y-96403472D01*
X112850330Y-96401500D01*
X112847777Y-96401500D01*
X112784892Y-96374075D01*
X112762545Y-96349720D01*
X112654357Y-96195211D01*
X112654355Y-96195208D01*
X112651198Y-96190700D01*
X112489300Y-96028802D01*
X112484792Y-96025645D01*
X112484789Y-96025643D01*
X112406611Y-95970902D01*
X112301749Y-95897477D01*
X112296767Y-95895154D01*
X112296762Y-95895151D01*
X112262543Y-95879195D01*
X112209258Y-95832278D01*
X112189797Y-95764001D01*
X112210339Y-95696041D01*
X112262543Y-95650805D01*
X112296762Y-95634849D01*
X112296767Y-95634846D01*
X112301749Y-95632523D01*
X112406611Y-95559098D01*
X112484789Y-95504357D01*
X112484792Y-95504355D01*
X112489300Y-95501198D01*
X112651198Y-95339300D01*
X112782523Y-95151749D01*
X112784846Y-95146767D01*
X112784849Y-95146762D01*
X112876961Y-94949225D01*
X112876961Y-94949224D01*
X112879284Y-94944243D01*
X112882769Y-94931239D01*
X112937119Y-94728402D01*
X112937119Y-94728400D01*
X112938543Y-94723087D01*
X112958498Y-94495000D01*
X112938543Y-94266913D01*
X112879284Y-94045757D01*
X112862316Y-94009369D01*
X112784849Y-93843238D01*
X112784846Y-93843233D01*
X112782523Y-93838251D01*
X112651198Y-93650700D01*
X112489300Y-93488802D01*
X112484792Y-93485645D01*
X112484789Y-93485643D01*
X112406611Y-93430902D01*
X112301749Y-93357477D01*
X112296767Y-93355154D01*
X112296762Y-93355151D01*
X112262543Y-93339195D01*
X112209258Y-93292278D01*
X112189797Y-93224001D01*
X112210339Y-93156041D01*
X112262543Y-93110805D01*
X112296762Y-93094849D01*
X112296767Y-93094846D01*
X112301749Y-93092523D01*
X112406611Y-93019098D01*
X112484789Y-92964357D01*
X112484792Y-92964355D01*
X112489300Y-92961198D01*
X112651198Y-92799300D01*
X112782523Y-92611749D01*
X112784846Y-92606767D01*
X112784849Y-92606762D01*
X112876961Y-92409225D01*
X112876961Y-92409224D01*
X112879284Y-92404243D01*
X112927785Y-92223238D01*
X112937119Y-92188402D01*
X112937119Y-92188400D01*
X112938543Y-92183087D01*
X112958498Y-91955000D01*
X112938543Y-91726913D01*
X112916069Y-91643039D01*
X112880707Y-91511067D01*
X112880706Y-91511065D01*
X112879284Y-91505757D01*
X112852847Y-91449062D01*
X112784849Y-91303238D01*
X112784846Y-91303233D01*
X112782523Y-91298251D01*
X112683162Y-91156349D01*
X112654357Y-91115211D01*
X112654355Y-91115208D01*
X112651198Y-91110700D01*
X112489300Y-90948802D01*
X112484792Y-90945645D01*
X112484789Y-90945643D01*
X112406611Y-90890902D01*
X112301749Y-90817477D01*
X112296767Y-90815154D01*
X112296762Y-90815151D01*
X112262543Y-90799195D01*
X112209258Y-90752278D01*
X112189797Y-90684001D01*
X112210339Y-90616041D01*
X112262543Y-90570805D01*
X112296762Y-90554849D01*
X112296767Y-90554846D01*
X112301749Y-90552523D01*
X112411500Y-90475674D01*
X112484789Y-90424357D01*
X112484792Y-90424355D01*
X112489300Y-90421198D01*
X112651198Y-90259300D01*
X112661683Y-90244327D01*
X112779366Y-90076257D01*
X112782523Y-90071749D01*
X112784846Y-90066767D01*
X112784849Y-90066762D01*
X112876961Y-89869225D01*
X112876961Y-89869224D01*
X112879284Y-89864243D01*
X112897543Y-89796102D01*
X112937119Y-89648402D01*
X112937119Y-89648400D01*
X112938543Y-89643087D01*
X112958498Y-89415000D01*
X112938543Y-89186913D01*
X112879284Y-88965757D01*
X112784966Y-88763489D01*
X112784849Y-88763238D01*
X112784846Y-88763233D01*
X112782523Y-88758251D01*
X112682515Y-88615425D01*
X112654357Y-88575211D01*
X112654355Y-88575208D01*
X112651198Y-88570700D01*
X112489300Y-88408802D01*
X112484792Y-88405645D01*
X112484789Y-88405643D01*
X112406611Y-88350902D01*
X112301749Y-88277477D01*
X112296767Y-88275154D01*
X112296762Y-88275151D01*
X112262543Y-88259195D01*
X112209258Y-88212278D01*
X112189797Y-88144001D01*
X112210339Y-88076041D01*
X112262543Y-88030805D01*
X112296762Y-88014849D01*
X112296767Y-88014846D01*
X112301749Y-88012523D01*
X112411500Y-87935674D01*
X112484789Y-87884357D01*
X112484792Y-87884355D01*
X112489300Y-87881198D01*
X112651198Y-87719300D01*
X112661683Y-87704327D01*
X112779366Y-87536257D01*
X112782523Y-87531749D01*
X112784846Y-87526767D01*
X112784849Y-87526762D01*
X112876961Y-87329225D01*
X112876961Y-87329224D01*
X112879284Y-87324243D01*
X112938543Y-87103087D01*
X112958498Y-86875000D01*
X112938543Y-86646913D01*
X112879284Y-86425757D01*
X112876961Y-86420775D01*
X112784849Y-86223238D01*
X112784846Y-86223233D01*
X112782523Y-86218251D01*
X112683162Y-86076349D01*
X112654357Y-86035211D01*
X112654355Y-86035208D01*
X112651198Y-86030700D01*
X112489300Y-85868802D01*
X112484792Y-85865645D01*
X112484789Y-85865643D01*
X112406611Y-85810902D01*
X112301749Y-85737477D01*
X112296767Y-85735154D01*
X112296762Y-85735151D01*
X112262543Y-85719195D01*
X112209258Y-85672278D01*
X112189797Y-85604001D01*
X112210339Y-85536041D01*
X112262543Y-85490805D01*
X112296762Y-85474849D01*
X112296767Y-85474846D01*
X112301749Y-85472523D01*
X112411500Y-85395674D01*
X112484789Y-85344357D01*
X112484792Y-85344355D01*
X112489300Y-85341198D01*
X112651198Y-85179300D01*
X112661683Y-85164327D01*
X112779366Y-84996257D01*
X112782523Y-84991749D01*
X112784846Y-84986767D01*
X112784849Y-84986762D01*
X112876961Y-84789225D01*
X112876961Y-84789224D01*
X112879284Y-84784243D01*
X112938543Y-84563087D01*
X112958498Y-84335000D01*
X112938543Y-84106913D01*
X112879284Y-83885757D01*
X112876961Y-83880775D01*
X112784849Y-83683238D01*
X112784846Y-83683233D01*
X112782523Y-83678251D01*
X112683162Y-83536349D01*
X112654357Y-83495211D01*
X112654355Y-83495208D01*
X112651198Y-83490700D01*
X112489300Y-83328802D01*
X112484792Y-83325645D01*
X112484789Y-83325643D01*
X112388829Y-83258451D01*
X112301749Y-83197477D01*
X112296767Y-83195154D01*
X112296762Y-83195151D01*
X112262543Y-83179195D01*
X112209258Y-83132278D01*
X112189797Y-83064001D01*
X112210339Y-82996041D01*
X112262543Y-82950805D01*
X112296762Y-82934849D01*
X112296767Y-82934846D01*
X112301749Y-82932523D01*
X112419541Y-82850044D01*
X112484789Y-82804357D01*
X112484792Y-82804355D01*
X112489300Y-82801198D01*
X112651198Y-82639300D01*
X112661683Y-82624327D01*
X112779366Y-82456257D01*
X112782523Y-82451749D01*
X112784846Y-82446767D01*
X112784849Y-82446762D01*
X112876961Y-82249225D01*
X112876961Y-82249224D01*
X112879284Y-82244243D01*
X112884895Y-82223305D01*
X112937119Y-82028402D01*
X112937119Y-82028400D01*
X112938543Y-82023087D01*
X112958498Y-81795000D01*
X112938543Y-81566913D01*
X112928829Y-81530661D01*
X112880707Y-81351067D01*
X112880706Y-81351065D01*
X112879284Y-81345757D01*
X112847882Y-81278414D01*
X112784849Y-81143238D01*
X112784846Y-81143233D01*
X112782523Y-81138251D01*
X112683162Y-80996349D01*
X112654357Y-80955211D01*
X112654355Y-80955208D01*
X112651198Y-80950700D01*
X112489300Y-80788802D01*
X112484792Y-80785645D01*
X112484789Y-80785643D01*
X112388829Y-80718451D01*
X112301749Y-80657477D01*
X112296767Y-80655154D01*
X112296762Y-80655151D01*
X112262543Y-80639195D01*
X112209258Y-80592278D01*
X112189797Y-80524001D01*
X112210339Y-80456041D01*
X112262543Y-80410805D01*
X112296762Y-80394849D01*
X112296767Y-80394846D01*
X112301749Y-80392523D01*
X112406611Y-80319098D01*
X112484789Y-80264357D01*
X112484792Y-80264355D01*
X112489300Y-80261198D01*
X112651198Y-80099300D01*
X112661683Y-80084327D01*
X112779366Y-79916257D01*
X112782523Y-79911749D01*
X112784846Y-79906767D01*
X112784849Y-79906762D01*
X112876961Y-79709225D01*
X112876961Y-79709224D01*
X112879284Y-79704243D01*
X112938543Y-79483087D01*
X112958498Y-79255000D01*
X112938543Y-79026913D01*
X112879284Y-78805757D01*
X112876961Y-78800775D01*
X112784849Y-78603238D01*
X112784846Y-78603233D01*
X112782523Y-78598251D01*
X112683162Y-78456349D01*
X112654357Y-78415211D01*
X112654355Y-78415208D01*
X112651198Y-78410700D01*
X112489300Y-78248802D01*
X112484792Y-78245645D01*
X112484789Y-78245643D01*
X112406611Y-78190902D01*
X112301749Y-78117477D01*
X112296767Y-78115154D01*
X112296762Y-78115151D01*
X112262543Y-78099195D01*
X112209258Y-78052278D01*
X112189797Y-77984001D01*
X112210339Y-77916041D01*
X112262543Y-77870805D01*
X112296762Y-77854849D01*
X112296767Y-77854846D01*
X112301749Y-77852523D01*
X112419541Y-77770044D01*
X112484789Y-77724357D01*
X112484792Y-77724355D01*
X112489300Y-77721198D01*
X112651198Y-77559300D01*
X112661683Y-77544327D01*
X112779366Y-77376257D01*
X112782523Y-77371749D01*
X112784846Y-77366767D01*
X112784849Y-77366762D01*
X112876961Y-77169225D01*
X112876961Y-77169224D01*
X112879284Y-77164243D01*
X112938543Y-76943087D01*
X112958498Y-76715000D01*
X112938543Y-76486913D01*
X112937119Y-76481598D01*
X112880707Y-76271067D01*
X112880706Y-76271065D01*
X112879284Y-76265757D01*
X112830111Y-76160304D01*
X112784849Y-76063238D01*
X112784846Y-76063233D01*
X112782523Y-76058251D01*
X112683162Y-75916349D01*
X112654357Y-75875211D01*
X112654355Y-75875208D01*
X112651198Y-75870700D01*
X112489300Y-75708802D01*
X112484789Y-75705643D01*
X112480576Y-75702108D01*
X112481388Y-75701140D01*
X112440910Y-75650506D01*
X112433596Y-75579887D01*
X112465624Y-75516524D01*
X112526823Y-75480536D01*
X112543901Y-75477480D01*
X112547352Y-75477105D01*
X112562604Y-75473479D01*
X112683054Y-75428324D01*
X112698649Y-75419786D01*
X112800724Y-75343285D01*
X112813285Y-75330724D01*
X112889786Y-75228649D01*
X112898324Y-75213054D01*
X112943478Y-75092606D01*
X112947105Y-75077351D01*
X112952631Y-75026486D01*
X112953000Y-75019672D01*
X112953000Y-74447115D01*
X112948525Y-74431876D01*
X112947135Y-74430671D01*
X112939452Y-74429000D01*
X109555116Y-74429000D01*
X109539877Y-74433475D01*
X109538672Y-74434865D01*
X109537001Y-74442548D01*
X109537001Y-75019669D01*
X109537371Y-75026490D01*
X109542895Y-75077352D01*
X109546521Y-75092604D01*
X109591676Y-75213054D01*
X109600214Y-75228649D01*
X109676715Y-75330724D01*
X109689276Y-75343285D01*
X109791351Y-75419786D01*
X109806946Y-75428324D01*
X109927394Y-75473478D01*
X109942643Y-75477104D01*
X109946096Y-75477479D01*
X109948606Y-75478522D01*
X109950331Y-75478932D01*
X109950265Y-75479211D01*
X110011659Y-75504719D01*
X110052088Y-75563080D01*
X110054546Y-75634034D01*
X110018253Y-75695054D01*
X110006760Y-75704344D01*
X110005214Y-75705641D01*
X110000700Y-75708802D01*
X109838802Y-75870700D01*
X109835645Y-75875208D01*
X109835643Y-75875211D01*
X109806838Y-75916349D01*
X109707477Y-76058251D01*
X109705154Y-76063233D01*
X109705151Y-76063238D01*
X109659889Y-76160304D01*
X109610716Y-76265757D01*
X109609294Y-76271065D01*
X109609293Y-76271067D01*
X109552881Y-76481598D01*
X109551457Y-76486913D01*
X109531502Y-76715000D01*
X109551457Y-76943087D01*
X109610716Y-77164243D01*
X109613039Y-77169224D01*
X109613039Y-77169225D01*
X109705151Y-77366762D01*
X109705154Y-77366767D01*
X109707477Y-77371749D01*
X109710634Y-77376257D01*
X109828318Y-77544327D01*
X109838802Y-77559300D01*
X110000700Y-77721198D01*
X110005208Y-77724355D01*
X110005211Y-77724357D01*
X110070459Y-77770044D01*
X110188251Y-77852523D01*
X110193233Y-77854846D01*
X110193238Y-77854849D01*
X110227457Y-77870805D01*
X110280742Y-77917722D01*
X110300203Y-77985999D01*
X110279661Y-78053959D01*
X110227457Y-78099195D01*
X110193238Y-78115151D01*
X110193233Y-78115154D01*
X110188251Y-78117477D01*
X110083389Y-78190902D01*
X110005211Y-78245643D01*
X110005208Y-78245645D01*
X110000700Y-78248802D01*
X109838802Y-78410700D01*
X109835645Y-78415208D01*
X109835643Y-78415211D01*
X109806838Y-78456349D01*
X109707477Y-78598251D01*
X109705154Y-78603233D01*
X109705151Y-78603238D01*
X109613039Y-78800775D01*
X109610716Y-78805757D01*
X109551457Y-79026913D01*
X109531502Y-79255000D01*
X109551457Y-79483087D01*
X109610716Y-79704243D01*
X109613039Y-79709224D01*
X109613039Y-79709225D01*
X109705151Y-79906762D01*
X109705154Y-79906767D01*
X109707477Y-79911749D01*
X109710634Y-79916257D01*
X109828318Y-80084327D01*
X109838802Y-80099300D01*
X110000700Y-80261198D01*
X110005208Y-80264355D01*
X110005211Y-80264357D01*
X110083389Y-80319098D01*
X110188251Y-80392523D01*
X110193233Y-80394846D01*
X110193238Y-80394849D01*
X110227457Y-80410805D01*
X110280742Y-80457722D01*
X110300203Y-80525999D01*
X110279661Y-80593959D01*
X110227457Y-80639195D01*
X110193238Y-80655151D01*
X110193233Y-80655154D01*
X110188251Y-80657477D01*
X110101171Y-80718451D01*
X110005211Y-80785643D01*
X110005208Y-80785645D01*
X110000700Y-80788802D01*
X109838802Y-80950700D01*
X109835645Y-80955208D01*
X109835643Y-80955211D01*
X109806838Y-80996349D01*
X109707477Y-81138251D01*
X109705154Y-81143233D01*
X109705151Y-81143238D01*
X109642118Y-81278414D01*
X109610716Y-81345757D01*
X109609294Y-81351065D01*
X109609293Y-81351067D01*
X109561171Y-81530661D01*
X109551457Y-81566913D01*
X109531502Y-81795000D01*
X109551457Y-82023087D01*
X109552881Y-82028400D01*
X109552881Y-82028402D01*
X109605106Y-82223305D01*
X109610716Y-82244243D01*
X109613039Y-82249224D01*
X109613039Y-82249225D01*
X109705151Y-82446762D01*
X109705154Y-82446767D01*
X109707477Y-82451749D01*
X109710634Y-82456257D01*
X109828318Y-82624327D01*
X109838802Y-82639300D01*
X110000700Y-82801198D01*
X110005208Y-82804355D01*
X110005211Y-82804357D01*
X110070459Y-82850044D01*
X110188251Y-82932523D01*
X110193233Y-82934846D01*
X110193238Y-82934849D01*
X110227457Y-82950805D01*
X110280742Y-82997722D01*
X110300203Y-83065999D01*
X110279661Y-83133959D01*
X110227457Y-83179195D01*
X110193238Y-83195151D01*
X110193233Y-83195154D01*
X110188251Y-83197477D01*
X110101171Y-83258451D01*
X110005211Y-83325643D01*
X110005208Y-83325645D01*
X110000700Y-83328802D01*
X109838802Y-83490700D01*
X109835645Y-83495208D01*
X109835643Y-83495211D01*
X109806838Y-83536349D01*
X109707477Y-83678251D01*
X109705154Y-83683233D01*
X109705151Y-83683238D01*
X109613039Y-83880775D01*
X109610716Y-83885757D01*
X109551457Y-84106913D01*
X109531502Y-84335000D01*
X109551457Y-84563087D01*
X109610716Y-84784243D01*
X109613039Y-84789224D01*
X109613039Y-84789225D01*
X109705151Y-84986762D01*
X109705154Y-84986767D01*
X109707477Y-84991749D01*
X109710634Y-84996257D01*
X109828318Y-85164327D01*
X109838802Y-85179300D01*
X110000700Y-85341198D01*
X110005208Y-85344355D01*
X110005211Y-85344357D01*
X110078500Y-85395674D01*
X110188251Y-85472523D01*
X110193233Y-85474846D01*
X110193238Y-85474849D01*
X110227457Y-85490805D01*
X110280742Y-85537722D01*
X110300203Y-85605999D01*
X110279661Y-85673959D01*
X110227457Y-85719195D01*
X110193238Y-85735151D01*
X110193233Y-85735154D01*
X110188251Y-85737477D01*
X110083389Y-85810902D01*
X110005211Y-85865643D01*
X110005208Y-85865645D01*
X110000700Y-85868802D01*
X109838802Y-86030700D01*
X109835645Y-86035208D01*
X109835643Y-86035211D01*
X109806838Y-86076349D01*
X109707477Y-86218251D01*
X109705154Y-86223233D01*
X109705151Y-86223238D01*
X109613039Y-86420775D01*
X109610716Y-86425757D01*
X109551457Y-86646913D01*
X109531502Y-86875000D01*
X109551457Y-87103087D01*
X109610716Y-87324243D01*
X109613039Y-87329224D01*
X109613039Y-87329225D01*
X109705151Y-87526762D01*
X109705154Y-87526767D01*
X109707477Y-87531749D01*
X109710634Y-87536257D01*
X109828318Y-87704327D01*
X109838802Y-87719300D01*
X110000700Y-87881198D01*
X110005208Y-87884355D01*
X110005211Y-87884357D01*
X110078500Y-87935674D01*
X110188251Y-88012523D01*
X110193233Y-88014846D01*
X110193238Y-88014849D01*
X110227457Y-88030805D01*
X110280742Y-88077722D01*
X110300203Y-88145999D01*
X110279661Y-88213959D01*
X110227457Y-88259195D01*
X110193238Y-88275151D01*
X110193233Y-88275154D01*
X110188251Y-88277477D01*
X110083389Y-88350902D01*
X110005211Y-88405643D01*
X110005208Y-88405645D01*
X110000700Y-88408802D01*
X109838802Y-88570700D01*
X109835645Y-88575208D01*
X109835643Y-88575211D01*
X109807485Y-88615425D01*
X109707477Y-88758251D01*
X109705154Y-88763233D01*
X109705151Y-88763238D01*
X109705034Y-88763489D01*
X109610716Y-88965757D01*
X109551457Y-89186913D01*
X109531502Y-89415000D01*
X109551457Y-89643087D01*
X109552881Y-89648400D01*
X109552881Y-89648402D01*
X109592458Y-89796102D01*
X109610716Y-89864243D01*
X109613039Y-89869224D01*
X109613039Y-89869225D01*
X109705151Y-90066762D01*
X109705154Y-90066767D01*
X109707477Y-90071749D01*
X109710634Y-90076257D01*
X109828318Y-90244327D01*
X109838802Y-90259300D01*
X110000700Y-90421198D01*
X110005208Y-90424355D01*
X110005211Y-90424357D01*
X110078500Y-90475674D01*
X110188251Y-90552523D01*
X110193233Y-90554846D01*
X110193238Y-90554849D01*
X110227457Y-90570805D01*
X110280742Y-90617722D01*
X110300203Y-90685999D01*
X110279661Y-90753959D01*
X110227457Y-90799195D01*
X110193238Y-90815151D01*
X110193233Y-90815154D01*
X110188251Y-90817477D01*
X110083389Y-90890902D01*
X110005211Y-90945643D01*
X110005208Y-90945645D01*
X110000700Y-90948802D01*
X109838802Y-91110700D01*
X109835645Y-91115208D01*
X109835643Y-91115211D01*
X109806838Y-91156349D01*
X109707477Y-91298251D01*
X109705154Y-91303233D01*
X109705151Y-91303238D01*
X109637153Y-91449062D01*
X109610716Y-91505757D01*
X109609294Y-91511065D01*
X109609293Y-91511067D01*
X109573931Y-91643039D01*
X109551457Y-91726913D01*
X109531502Y-91955000D01*
X109551457Y-92183087D01*
X109552881Y-92188400D01*
X109552881Y-92188402D01*
X109562216Y-92223238D01*
X109610716Y-92404243D01*
X109613039Y-92409224D01*
X109613039Y-92409225D01*
X109705151Y-92606762D01*
X109705154Y-92606767D01*
X109707477Y-92611749D01*
X109838802Y-92799300D01*
X110000700Y-92961198D01*
X110005208Y-92964355D01*
X110005211Y-92964357D01*
X110083389Y-93019098D01*
X110188251Y-93092523D01*
X110193233Y-93094846D01*
X110193238Y-93094849D01*
X110227457Y-93110805D01*
X110280742Y-93157722D01*
X110300203Y-93225999D01*
X110279661Y-93293959D01*
X110227457Y-93339195D01*
X110193238Y-93355151D01*
X110193233Y-93355154D01*
X110188251Y-93357477D01*
X110083389Y-93430902D01*
X110005211Y-93485643D01*
X110005208Y-93485645D01*
X110000700Y-93488802D01*
X109838802Y-93650700D01*
X109707477Y-93838251D01*
X109705154Y-93843233D01*
X109705151Y-93843238D01*
X109627684Y-94009369D01*
X109610716Y-94045757D01*
X109551457Y-94266913D01*
X109531502Y-94495000D01*
X109551457Y-94723087D01*
X109552881Y-94728400D01*
X109552881Y-94728402D01*
X109607232Y-94931239D01*
X109610716Y-94944243D01*
X109613039Y-94949224D01*
X109613039Y-94949225D01*
X109705151Y-95146762D01*
X109705154Y-95146767D01*
X109707477Y-95151749D01*
X109838802Y-95339300D01*
X110000700Y-95501198D01*
X110005208Y-95504355D01*
X110005211Y-95504357D01*
X110083389Y-95559098D01*
X110188251Y-95632523D01*
X110193233Y-95634846D01*
X110193238Y-95634849D01*
X110227457Y-95650805D01*
X110280742Y-95697722D01*
X110300203Y-95765999D01*
X110279661Y-95833959D01*
X110227457Y-95879195D01*
X110193238Y-95895151D01*
X110193233Y-95895154D01*
X110188251Y-95897477D01*
X110083389Y-95970902D01*
X110005211Y-96025643D01*
X110005208Y-96025645D01*
X110000700Y-96028802D01*
X109838802Y-96190700D01*
X109707477Y-96378251D01*
X109705154Y-96383233D01*
X109705151Y-96383238D01*
X109624409Y-96556392D01*
X109610716Y-96585757D01*
X109609294Y-96591065D01*
X109609293Y-96591067D01*
X109604157Y-96610236D01*
X109551457Y-96806913D01*
X109531502Y-97035000D01*
X109551457Y-97263087D01*
X109610716Y-97484243D01*
X109613039Y-97489224D01*
X109613039Y-97489225D01*
X109705151Y-97686762D01*
X109705154Y-97686767D01*
X109707477Y-97691749D01*
X109710634Y-97696257D01*
X109811004Y-97839600D01*
X109838802Y-97879300D01*
X110000700Y-98041198D01*
X110005208Y-98044355D01*
X110005211Y-98044357D01*
X110083389Y-98099098D01*
X110188251Y-98172523D01*
X110193233Y-98174846D01*
X110193238Y-98174849D01*
X110227457Y-98190805D01*
X110280742Y-98237722D01*
X110300203Y-98305999D01*
X110279661Y-98373959D01*
X110227457Y-98419195D01*
X110193238Y-98435151D01*
X110193233Y-98435154D01*
X110188251Y-98437477D01*
X110083389Y-98510902D01*
X110005211Y-98565643D01*
X110005208Y-98565645D01*
X110000700Y-98568802D01*
X109838802Y-98730700D01*
X109707477Y-98918251D01*
X109705154Y-98923233D01*
X109705151Y-98923238D01*
X109623836Y-99097620D01*
X109610716Y-99125757D01*
X109609294Y-99131065D01*
X109609293Y-99131067D01*
X109552881Y-99341598D01*
X109551457Y-99346913D01*
X109531502Y-99575000D01*
X109551457Y-99803087D01*
X109552881Y-99808400D01*
X109552881Y-99808402D01*
X109598585Y-99978968D01*
X109610716Y-100024243D01*
X109613039Y-100029224D01*
X109613039Y-100029225D01*
X109705151Y-100226762D01*
X109705154Y-100226767D01*
X109707477Y-100231749D01*
X109838802Y-100419300D01*
X110000700Y-100581198D01*
X110005208Y-100584355D01*
X110005211Y-100584357D01*
X110083389Y-100639098D01*
X110188251Y-100712523D01*
X110193233Y-100714846D01*
X110193238Y-100714849D01*
X110227457Y-100730805D01*
X110280742Y-100777722D01*
X110300203Y-100845999D01*
X110279661Y-100913959D01*
X110227457Y-100959195D01*
X110193238Y-100975151D01*
X110193233Y-100975154D01*
X110188251Y-100977477D01*
X110083389Y-101050902D01*
X110005211Y-101105643D01*
X110005208Y-101105645D01*
X110000700Y-101108802D01*
X109838802Y-101270700D01*
X109835645Y-101275208D01*
X109835643Y-101275211D01*
X109801897Y-101323406D01*
X109707477Y-101458251D01*
X109705154Y-101463233D01*
X109705151Y-101463238D01*
X109624409Y-101636392D01*
X109610716Y-101665757D01*
X109551457Y-101886913D01*
X109531502Y-102115000D01*
X109551457Y-102343087D01*
X109610716Y-102564243D01*
X109613039Y-102569224D01*
X109613039Y-102569225D01*
X109705151Y-102766762D01*
X109705154Y-102766767D01*
X109707477Y-102771749D01*
X109742973Y-102822442D01*
X109825093Y-102939721D01*
X109838802Y-102959300D01*
X110000700Y-103121198D01*
X110005208Y-103124355D01*
X110005211Y-103124357D01*
X110014844Y-103131102D01*
X110188251Y-103252523D01*
X110193233Y-103254846D01*
X110193238Y-103254849D01*
X110227457Y-103270805D01*
X110280742Y-103317722D01*
X110300203Y-103385999D01*
X110279661Y-103453959D01*
X110227457Y-103499195D01*
X110193238Y-103515151D01*
X110193233Y-103515154D01*
X110188251Y-103517477D01*
X110083389Y-103590902D01*
X110005211Y-103645643D01*
X110005208Y-103645645D01*
X110000700Y-103648802D01*
X109838802Y-103810700D01*
X109835645Y-103815208D01*
X109835643Y-103815211D01*
X109780902Y-103893389D01*
X109707477Y-103998251D01*
X109705154Y-104003233D01*
X109705151Y-104003238D01*
X109624409Y-104176392D01*
X109610716Y-104205757D01*
X109551457Y-104426913D01*
X109531502Y-104655000D01*
X109551457Y-104883087D01*
X109610716Y-105104243D01*
X109613039Y-105109224D01*
X109613039Y-105109225D01*
X109705151Y-105306762D01*
X109705154Y-105306767D01*
X109707477Y-105311749D01*
X109727455Y-105340280D01*
X109825093Y-105479721D01*
X109838802Y-105499300D01*
X110000700Y-105661198D01*
X110005208Y-105664355D01*
X110005211Y-105664357D01*
X110014844Y-105671102D01*
X110188251Y-105792523D01*
X110193233Y-105794846D01*
X110193238Y-105794849D01*
X110227457Y-105810805D01*
X110280742Y-105857722D01*
X110300203Y-105925999D01*
X110279661Y-105993959D01*
X110227457Y-106039195D01*
X110193238Y-106055151D01*
X110193233Y-106055154D01*
X110188251Y-106057477D01*
X110083389Y-106130902D01*
X110005211Y-106185643D01*
X110005208Y-106185645D01*
X110000700Y-106188802D01*
X109838802Y-106350700D01*
X109835645Y-106355208D01*
X109835643Y-106355211D01*
X109780902Y-106433389D01*
X109707477Y-106538251D01*
X109705154Y-106543233D01*
X109705151Y-106543238D01*
X109624409Y-106716392D01*
X109610716Y-106745757D01*
X109551457Y-106966913D01*
X109531502Y-107195000D01*
X109551457Y-107423087D01*
X109610716Y-107644243D01*
X109613039Y-107649224D01*
X109613039Y-107649225D01*
X109705151Y-107846762D01*
X109705154Y-107846767D01*
X109707477Y-107851749D01*
X109727455Y-107880280D01*
X109825093Y-108019721D01*
X109838802Y-108039300D01*
X110000700Y-108201198D01*
X110005208Y-108204355D01*
X110005211Y-108204357D01*
X110014844Y-108211102D01*
X110188251Y-108332523D01*
X110193233Y-108334846D01*
X110193238Y-108334849D01*
X110227457Y-108350805D01*
X110280742Y-108397722D01*
X110300203Y-108465999D01*
X110279661Y-108533959D01*
X110227457Y-108579195D01*
X110193238Y-108595151D01*
X110193233Y-108595154D01*
X110188251Y-108597477D01*
X110083389Y-108670902D01*
X110005211Y-108725643D01*
X110005208Y-108725645D01*
X110000700Y-108728802D01*
X109838802Y-108890700D01*
X109835645Y-108895208D01*
X109835643Y-108895211D01*
X109780902Y-108973389D01*
X109707477Y-109078251D01*
X109705154Y-109083233D01*
X109705151Y-109083238D01*
X109624409Y-109256392D01*
X109610716Y-109285757D01*
X109551457Y-109506913D01*
X109531502Y-109735000D01*
X109551457Y-109963087D01*
X109610716Y-110184243D01*
X109613039Y-110189224D01*
X109613039Y-110189225D01*
X109705151Y-110386762D01*
X109705154Y-110386767D01*
X109707477Y-110391749D01*
X109727455Y-110420280D01*
X109825093Y-110559721D01*
X109838802Y-110579300D01*
X110000700Y-110741198D01*
X110005208Y-110744355D01*
X110005211Y-110744357D01*
X110014844Y-110751102D01*
X110188251Y-110872523D01*
X110193233Y-110874846D01*
X110193238Y-110874849D01*
X110227457Y-110890805D01*
X110280742Y-110937722D01*
X110300203Y-111005999D01*
X110279661Y-111073959D01*
X110227457Y-111119195D01*
X110193238Y-111135151D01*
X110193233Y-111135154D01*
X110188251Y-111137477D01*
X110083389Y-111210902D01*
X110005211Y-111265643D01*
X110005208Y-111265645D01*
X110000700Y-111268802D01*
X109838802Y-111430700D01*
X109835645Y-111435208D01*
X109835643Y-111435211D01*
X109780902Y-111513389D01*
X109707477Y-111618251D01*
X109705154Y-111623233D01*
X109705151Y-111623238D01*
X109624409Y-111796392D01*
X109610716Y-111825757D01*
X109551457Y-112046913D01*
X109531502Y-112275000D01*
X109551457Y-112503087D01*
X109610716Y-112724243D01*
X109613039Y-112729224D01*
X109613039Y-112729225D01*
X109705151Y-112926762D01*
X109705154Y-112926767D01*
X109707477Y-112931749D01*
X109727455Y-112960280D01*
X109825093Y-113099721D01*
X109838802Y-113119300D01*
X110000700Y-113281198D01*
X110005208Y-113284355D01*
X110005211Y-113284357D01*
X110014844Y-113291102D01*
X110188251Y-113412523D01*
X110193233Y-113414846D01*
X110193238Y-113414849D01*
X110227457Y-113430805D01*
X110280742Y-113477722D01*
X110300203Y-113545999D01*
X110279661Y-113613959D01*
X110227457Y-113659195D01*
X110193238Y-113675151D01*
X110193233Y-113675154D01*
X110188251Y-113677477D01*
X110083389Y-113750902D01*
X110005211Y-113805643D01*
X110005208Y-113805645D01*
X110000700Y-113808802D01*
X109838802Y-113970700D01*
X109835645Y-113975208D01*
X109835643Y-113975211D01*
X109780902Y-114053389D01*
X109707477Y-114158251D01*
X109705154Y-114163233D01*
X109705151Y-114163238D01*
X109624409Y-114336392D01*
X109610716Y-114365757D01*
X109551457Y-114586913D01*
X109531502Y-114815000D01*
X109551457Y-115043087D01*
X109610716Y-115264243D01*
X109613039Y-115269224D01*
X109613039Y-115269225D01*
X109705151Y-115466762D01*
X109705154Y-115466767D01*
X109707477Y-115471749D01*
X109727455Y-115500280D01*
X109825093Y-115639721D01*
X109838802Y-115659300D01*
X110000700Y-115821198D01*
X110005208Y-115824355D01*
X110005211Y-115824357D01*
X110014844Y-115831102D01*
X110188251Y-115952523D01*
X110193233Y-115954846D01*
X110193238Y-115954849D01*
X110227457Y-115970805D01*
X110280742Y-116017722D01*
X110300203Y-116085999D01*
X110279661Y-116153959D01*
X110227457Y-116199195D01*
X110193238Y-116215151D01*
X110193233Y-116215154D01*
X110188251Y-116217477D01*
X110083389Y-116290902D01*
X110005211Y-116345643D01*
X110005208Y-116345645D01*
X110000700Y-116348802D01*
X109838802Y-116510700D01*
X109835645Y-116515208D01*
X109835643Y-116515211D01*
X109780902Y-116593389D01*
X109707477Y-116698251D01*
X109705154Y-116703233D01*
X109705151Y-116703238D01*
X109624409Y-116876392D01*
X109610716Y-116905757D01*
X109551457Y-117126913D01*
X109531502Y-117355000D01*
X109551457Y-117583087D01*
X109610716Y-117804243D01*
X109613039Y-117809224D01*
X109613039Y-117809225D01*
X109705151Y-118006762D01*
X109705154Y-118006767D01*
X109707477Y-118011749D01*
X109727455Y-118040280D01*
X109825093Y-118179721D01*
X109838802Y-118199300D01*
X110000700Y-118361198D01*
X110005208Y-118364355D01*
X110005211Y-118364357D01*
X110014844Y-118371102D01*
X110188251Y-118492523D01*
X110193233Y-118494846D01*
X110193238Y-118494849D01*
X110227457Y-118510805D01*
X110280742Y-118557722D01*
X110300203Y-118625999D01*
X110279661Y-118693959D01*
X110227457Y-118739195D01*
X110193238Y-118755151D01*
X110193233Y-118755154D01*
X110188251Y-118757477D01*
X110083389Y-118830902D01*
X110005211Y-118885643D01*
X110005208Y-118885645D01*
X110000700Y-118888802D01*
X109838802Y-119050700D01*
X109835645Y-119055208D01*
X109835643Y-119055211D01*
X109780902Y-119133389D01*
X109707477Y-119238251D01*
X109705154Y-119243233D01*
X109705151Y-119243238D01*
X109624409Y-119416392D01*
X109610716Y-119445757D01*
X109551457Y-119666913D01*
X109531502Y-119895000D01*
X109551457Y-120123087D01*
X109610716Y-120344243D01*
X109613039Y-120349224D01*
X109613039Y-120349225D01*
X109705151Y-120546762D01*
X109705154Y-120546767D01*
X109707477Y-120551749D01*
X109727455Y-120580280D01*
X109825093Y-120719721D01*
X109838802Y-120739300D01*
X110000700Y-120901198D01*
X110005208Y-120904355D01*
X110005211Y-120904357D01*
X110014844Y-120911102D01*
X110188251Y-121032523D01*
X110193233Y-121034846D01*
X110193238Y-121034849D01*
X110227457Y-121050805D01*
X110280742Y-121097722D01*
X110300203Y-121165999D01*
X110279661Y-121233959D01*
X110227457Y-121279195D01*
X110193238Y-121295151D01*
X110193233Y-121295154D01*
X110188251Y-121297477D01*
X110083389Y-121370902D01*
X110005211Y-121425643D01*
X110005208Y-121425645D01*
X110000700Y-121428802D01*
X109838802Y-121590700D01*
X109835645Y-121595208D01*
X109835643Y-121595211D01*
X109780902Y-121673389D01*
X109707477Y-121778251D01*
X109705154Y-121783233D01*
X109705151Y-121783238D01*
X109629884Y-121944651D01*
X109610716Y-121985757D01*
X109551457Y-122206913D01*
X109531502Y-122435000D01*
X107000000Y-122435000D01*
X107000000Y-73902885D01*
X109537000Y-73902885D01*
X109541475Y-73918124D01*
X109542865Y-73919329D01*
X109550548Y-73921000D01*
X110972885Y-73921000D01*
X110988124Y-73916525D01*
X110989329Y-73915135D01*
X110991000Y-73907452D01*
X110991000Y-73902885D01*
X111499000Y-73902885D01*
X111503475Y-73918124D01*
X111504865Y-73919329D01*
X111512548Y-73921000D01*
X112934884Y-73921000D01*
X112950123Y-73916525D01*
X112951328Y-73915135D01*
X112952999Y-73907452D01*
X112952999Y-73330331D01*
X112952629Y-73323510D01*
X112947105Y-73272648D01*
X112943479Y-73257396D01*
X112898324Y-73136946D01*
X112889786Y-73121351D01*
X112813285Y-73019276D01*
X112800724Y-73006715D01*
X112698649Y-72930214D01*
X112683054Y-72921676D01*
X112562606Y-72876522D01*
X112547351Y-72872895D01*
X112496486Y-72867369D01*
X112489672Y-72867000D01*
X111517115Y-72867000D01*
X111501876Y-72871475D01*
X111500671Y-72872865D01*
X111499000Y-72880548D01*
X111499000Y-73902885D01*
X110991000Y-73902885D01*
X110991000Y-72885116D01*
X110986525Y-72869877D01*
X110985135Y-72868672D01*
X110977452Y-72867001D01*
X110000331Y-72867001D01*
X109993510Y-72867371D01*
X109942648Y-72872895D01*
X109927396Y-72876521D01*
X109806946Y-72921676D01*
X109791351Y-72930214D01*
X109689276Y-73006715D01*
X109676715Y-73019276D01*
X109600214Y-73121351D01*
X109591676Y-73136946D01*
X109546522Y-73257394D01*
X109542895Y-73272649D01*
X109537369Y-73323514D01*
X109537000Y-73330328D01*
X109537000Y-73902885D01*
X107000000Y-73902885D01*
X107000000Y-69126000D01*
X107020002Y-69057879D01*
X107073658Y-69011386D01*
X107126000Y-69000000D01*
X162365500Y-69000000D01*
X162433621Y-69020002D01*
G37*
G04 #@! TD.AperFunction*
G04 #@! TA.AperFunction,Conductor*
G36*
X132572717Y-84261421D02*
G01*
X136793594Y-88482298D01*
X136827620Y-88544610D01*
X136822555Y-88615425D01*
X136807712Y-88643663D01*
X136727477Y-88758251D01*
X136725154Y-88763233D01*
X136725151Y-88763238D01*
X136725034Y-88763489D01*
X136630716Y-88965757D01*
X136571457Y-89186913D01*
X136551502Y-89415000D01*
X136571457Y-89643087D01*
X136572881Y-89648400D01*
X136572881Y-89648402D01*
X136612458Y-89796102D01*
X136630716Y-89864243D01*
X136633039Y-89869224D01*
X136633039Y-89869225D01*
X136725151Y-90066762D01*
X136725154Y-90066767D01*
X136727477Y-90071749D01*
X136730634Y-90076257D01*
X136848318Y-90244327D01*
X136858802Y-90259300D01*
X137020700Y-90421198D01*
X137025208Y-90424355D01*
X137025211Y-90424357D01*
X137098500Y-90475674D01*
X137208251Y-90552523D01*
X137213233Y-90554846D01*
X137213238Y-90554849D01*
X137409765Y-90646490D01*
X137415757Y-90649284D01*
X137421065Y-90650706D01*
X137421067Y-90650707D01*
X137631598Y-90707119D01*
X137631600Y-90707119D01*
X137636913Y-90708543D01*
X137735120Y-90717135D01*
X137805149Y-90723262D01*
X137805156Y-90723262D01*
X137807873Y-90723500D01*
X138722127Y-90723500D01*
X138724844Y-90723262D01*
X138724851Y-90723262D01*
X138794880Y-90717135D01*
X138893087Y-90708543D01*
X138898400Y-90707119D01*
X138898402Y-90707119D01*
X139108933Y-90650707D01*
X139108935Y-90650706D01*
X139114243Y-90649284D01*
X139119225Y-90646961D01*
X139119230Y-90646959D01*
X139252251Y-90584931D01*
X139322442Y-90574270D01*
X139387255Y-90603250D01*
X139426111Y-90662670D01*
X139431500Y-90699126D01*
X139431500Y-91449062D01*
X139411498Y-91517183D01*
X139357842Y-91563676D01*
X139294518Y-91574583D01*
X139150475Y-91561981D01*
X139145000Y-91561502D01*
X138916913Y-91581457D01*
X138911600Y-91582881D01*
X138911598Y-91582881D01*
X138701067Y-91639293D01*
X138701065Y-91639294D01*
X138695757Y-91640716D01*
X138690776Y-91643039D01*
X138690775Y-91643039D01*
X138493238Y-91735151D01*
X138493233Y-91735154D01*
X138488251Y-91737477D01*
X138383389Y-91810902D01*
X138305211Y-91865643D01*
X138305208Y-91865645D01*
X138300700Y-91868802D01*
X138138802Y-92030700D01*
X138007477Y-92218251D01*
X138005154Y-92223233D01*
X138005151Y-92223238D01*
X137923224Y-92398933D01*
X137910716Y-92425757D01*
X137909294Y-92431065D01*
X137909293Y-92431067D01*
X137861749Y-92608502D01*
X137851457Y-92646913D01*
X137831502Y-92875000D01*
X137851457Y-93103087D01*
X137852881Y-93108400D01*
X137852881Y-93108402D01*
X137874554Y-93189284D01*
X137910716Y-93324243D01*
X137913039Y-93329224D01*
X137913039Y-93329225D01*
X138005151Y-93526762D01*
X138005154Y-93526767D01*
X138007477Y-93531749D01*
X138138802Y-93719300D01*
X138300700Y-93881198D01*
X138305208Y-93884355D01*
X138305211Y-93884357D01*
X138408876Y-93956944D01*
X138488251Y-94012523D01*
X138493235Y-94014847D01*
X138495528Y-94016171D01*
X138544521Y-94067553D01*
X138557957Y-94137267D01*
X138531571Y-94203178D01*
X138495528Y-94234409D01*
X138483998Y-94241066D01*
X138431952Y-94277509D01*
X138423576Y-94287988D01*
X138430644Y-94301434D01*
X139132188Y-95002978D01*
X139146132Y-95010592D01*
X139147965Y-95010461D01*
X139154580Y-95006210D01*
X139860077Y-94300713D01*
X139866507Y-94288938D01*
X139857211Y-94276923D01*
X139806002Y-94241066D01*
X139794472Y-94234409D01*
X139745479Y-94183027D01*
X139732042Y-94113313D01*
X139758429Y-94047402D01*
X139794472Y-94016171D01*
X139796765Y-94014847D01*
X139801749Y-94012523D01*
X139881124Y-93956944D01*
X139984789Y-93884357D01*
X139984792Y-93884355D01*
X139989300Y-93881198D01*
X140151198Y-93719300D01*
X140282523Y-93531749D01*
X140284846Y-93526767D01*
X140284849Y-93526762D01*
X140376961Y-93329225D01*
X140376961Y-93329224D01*
X140379284Y-93324243D01*
X140415447Y-93189284D01*
X140437119Y-93108402D01*
X140437119Y-93108400D01*
X140438543Y-93103087D01*
X140458498Y-92875000D01*
X140451875Y-92799300D01*
X140445417Y-92725482D01*
X140459406Y-92655877D01*
X140508806Y-92604884D01*
X140570938Y-92588500D01*
X140775606Y-92588500D01*
X140843727Y-92608502D01*
X140878819Y-92642229D01*
X140937114Y-92725482D01*
X140988802Y-92799300D01*
X141150700Y-92961198D01*
X141155208Y-92964355D01*
X141155211Y-92964357D01*
X141233389Y-93019098D01*
X141338251Y-93092523D01*
X141343233Y-93094846D01*
X141343238Y-93094849D01*
X141377457Y-93110805D01*
X141430742Y-93157722D01*
X141450203Y-93225999D01*
X141429661Y-93293959D01*
X141377457Y-93339195D01*
X141343238Y-93355151D01*
X141343233Y-93355154D01*
X141338251Y-93357477D01*
X141233389Y-93430902D01*
X141155211Y-93485643D01*
X141155208Y-93485645D01*
X141150700Y-93488802D01*
X140988802Y-93650700D01*
X140857477Y-93838251D01*
X140855154Y-93843233D01*
X140855151Y-93843238D01*
X140777684Y-94009369D01*
X140760716Y-94045757D01*
X140701457Y-94266913D01*
X140681502Y-94495000D01*
X140701457Y-94723087D01*
X140702881Y-94728400D01*
X140702881Y-94728402D01*
X140757232Y-94931239D01*
X140760716Y-94944243D01*
X140763039Y-94949224D01*
X140763039Y-94949225D01*
X140855151Y-95146762D01*
X140855154Y-95146767D01*
X140857477Y-95151749D01*
X140988802Y-95339300D01*
X141150700Y-95501198D01*
X141155208Y-95504355D01*
X141155211Y-95504357D01*
X141233389Y-95559098D01*
X141338251Y-95632523D01*
X141343233Y-95634846D01*
X141343238Y-95634849D01*
X141377457Y-95650805D01*
X141430742Y-95697722D01*
X141450203Y-95765999D01*
X141429661Y-95833959D01*
X141377457Y-95879195D01*
X141343238Y-95895151D01*
X141343233Y-95895154D01*
X141338251Y-95897477D01*
X141233389Y-95970902D01*
X141155211Y-96025643D01*
X141155208Y-96025645D01*
X141150700Y-96028802D01*
X140988802Y-96190700D01*
X140857477Y-96378251D01*
X140855154Y-96383233D01*
X140855151Y-96383238D01*
X140774409Y-96556392D01*
X140760716Y-96585757D01*
X140759294Y-96591065D01*
X140759293Y-96591067D01*
X140754157Y-96610236D01*
X140701457Y-96806913D01*
X140681502Y-97035000D01*
X140701457Y-97263087D01*
X140760716Y-97484243D01*
X140763039Y-97489224D01*
X140763039Y-97489225D01*
X140855151Y-97686762D01*
X140855154Y-97686767D01*
X140857477Y-97691749D01*
X140860634Y-97696257D01*
X140961004Y-97839600D01*
X140988802Y-97879300D01*
X141150700Y-98041198D01*
X141155208Y-98044355D01*
X141155211Y-98044357D01*
X141233389Y-98099098D01*
X141338251Y-98172523D01*
X141343233Y-98174846D01*
X141343238Y-98174849D01*
X141377457Y-98190805D01*
X141430742Y-98237722D01*
X141450203Y-98305999D01*
X141429661Y-98373959D01*
X141377457Y-98419195D01*
X141343238Y-98435151D01*
X141343233Y-98435154D01*
X141338251Y-98437477D01*
X141233389Y-98510902D01*
X141155211Y-98565643D01*
X141155208Y-98565645D01*
X141150700Y-98568802D01*
X140988802Y-98730700D01*
X140985645Y-98735208D01*
X140985643Y-98735211D01*
X140876971Y-98890410D01*
X140821514Y-98934738D01*
X140785498Y-98942419D01*
X140785564Y-98942837D01*
X140777736Y-98944077D01*
X140769811Y-98944326D01*
X140762197Y-98946538D01*
X140762192Y-98946539D01*
X140750359Y-98949977D01*
X140730996Y-98953988D01*
X140710903Y-98956526D01*
X140703536Y-98959443D01*
X140703531Y-98959444D01*
X140669792Y-98972802D01*
X140658565Y-98976646D01*
X140616107Y-98988982D01*
X140609281Y-98993019D01*
X140598672Y-98999293D01*
X140580924Y-99007988D01*
X140562083Y-99015448D01*
X140555667Y-99020110D01*
X140555666Y-99020110D01*
X140526313Y-99041436D01*
X140516393Y-99047952D01*
X140485165Y-99066420D01*
X140485162Y-99066422D01*
X140478338Y-99070458D01*
X140464017Y-99084779D01*
X140448984Y-99097619D01*
X140432593Y-99109528D01*
X140427543Y-99115632D01*
X140427538Y-99115637D01*
X140404407Y-99143598D01*
X140396417Y-99152379D01*
X139462799Y-100085996D01*
X139400487Y-100120021D01*
X139373704Y-100122900D01*
X128257056Y-100122900D01*
X128188935Y-100102898D01*
X128142442Y-100049242D01*
X128132338Y-99978968D01*
X128135349Y-99964289D01*
X128177119Y-99808402D01*
X128177119Y-99808400D01*
X128178543Y-99803087D01*
X128198498Y-99575000D01*
X128178543Y-99346913D01*
X128177119Y-99341598D01*
X128120707Y-99131067D01*
X128120706Y-99131065D01*
X128119284Y-99125757D01*
X128106164Y-99097620D01*
X128024849Y-98923238D01*
X128024846Y-98923233D01*
X128022523Y-98918251D01*
X127891198Y-98730700D01*
X127729300Y-98568802D01*
X127724792Y-98565645D01*
X127724789Y-98565643D01*
X127646611Y-98510902D01*
X127541749Y-98437477D01*
X127536767Y-98435154D01*
X127536762Y-98435151D01*
X127502543Y-98419195D01*
X127449258Y-98372278D01*
X127429797Y-98304001D01*
X127450339Y-98236041D01*
X127502543Y-98190805D01*
X127536762Y-98174849D01*
X127536767Y-98174846D01*
X127541749Y-98172523D01*
X127646611Y-98099098D01*
X127724789Y-98044357D01*
X127724792Y-98044355D01*
X127729300Y-98041198D01*
X127891198Y-97879300D01*
X127918997Y-97839600D01*
X128019366Y-97696257D01*
X128022523Y-97691749D01*
X128024846Y-97686767D01*
X128024849Y-97686762D01*
X128116961Y-97489225D01*
X128116961Y-97489224D01*
X128119284Y-97484243D01*
X128178543Y-97263087D01*
X128198498Y-97035000D01*
X128178543Y-96806913D01*
X128125843Y-96610236D01*
X128120707Y-96591067D01*
X128120706Y-96591065D01*
X128119284Y-96585757D01*
X128105591Y-96556392D01*
X128061138Y-96461062D01*
X138423493Y-96461062D01*
X138432789Y-96473077D01*
X138483994Y-96508931D01*
X138493489Y-96514414D01*
X138690947Y-96606490D01*
X138701239Y-96610236D01*
X138911688Y-96666625D01*
X138922481Y-96668528D01*
X139139525Y-96687517D01*
X139150475Y-96687517D01*
X139367519Y-96668528D01*
X139378312Y-96666625D01*
X139588761Y-96610236D01*
X139599053Y-96606490D01*
X139796511Y-96514414D01*
X139806006Y-96508931D01*
X139858048Y-96472491D01*
X139866424Y-96462012D01*
X139859356Y-96448566D01*
X139157812Y-95747022D01*
X139143868Y-95739408D01*
X139142035Y-95739539D01*
X139135420Y-95743790D01*
X138429923Y-96449287D01*
X138423493Y-96461062D01*
X128061138Y-96461062D01*
X128024849Y-96383238D01*
X128024846Y-96383233D01*
X128022523Y-96378251D01*
X127891198Y-96190700D01*
X127729300Y-96028802D01*
X127724792Y-96025645D01*
X127724789Y-96025643D01*
X127646611Y-95970902D01*
X127541749Y-95897477D01*
X127536767Y-95895154D01*
X127536762Y-95895151D01*
X127502543Y-95879195D01*
X127449258Y-95832278D01*
X127429797Y-95764001D01*
X127450339Y-95696041D01*
X127502543Y-95650805D01*
X127536762Y-95634849D01*
X127536767Y-95634846D01*
X127541749Y-95632523D01*
X127646611Y-95559098D01*
X127724789Y-95504357D01*
X127724792Y-95504355D01*
X127729300Y-95501198D01*
X127850023Y-95380475D01*
X137832483Y-95380475D01*
X137851472Y-95597519D01*
X137853375Y-95608312D01*
X137909764Y-95818761D01*
X137913510Y-95829053D01*
X138005586Y-96026511D01*
X138011069Y-96036006D01*
X138047509Y-96088048D01*
X138057988Y-96096424D01*
X138071434Y-96089356D01*
X138772978Y-95387812D01*
X138779356Y-95376132D01*
X139509408Y-95376132D01*
X139509539Y-95377965D01*
X139513790Y-95384580D01*
X140219287Y-96090077D01*
X140231062Y-96096507D01*
X140243077Y-96087211D01*
X140278931Y-96036006D01*
X140284414Y-96026511D01*
X140376490Y-95829053D01*
X140380236Y-95818761D01*
X140436625Y-95608312D01*
X140438528Y-95597519D01*
X140457517Y-95380475D01*
X140457517Y-95369525D01*
X140438528Y-95152481D01*
X140436625Y-95141688D01*
X140380236Y-94931239D01*
X140376490Y-94920947D01*
X140284414Y-94723489D01*
X140278931Y-94713994D01*
X140242491Y-94661952D01*
X140232012Y-94653576D01*
X140218566Y-94660644D01*
X139517022Y-95362188D01*
X139509408Y-95376132D01*
X138779356Y-95376132D01*
X138780592Y-95373868D01*
X138780461Y-95372035D01*
X138776210Y-95365420D01*
X138070713Y-94659923D01*
X138058938Y-94653493D01*
X138046923Y-94662789D01*
X138011069Y-94713994D01*
X138005586Y-94723489D01*
X137913510Y-94920947D01*
X137909764Y-94931239D01*
X137853375Y-95141688D01*
X137851472Y-95152481D01*
X137832483Y-95369525D01*
X137832483Y-95380475D01*
X127850023Y-95380475D01*
X127891198Y-95339300D01*
X128022523Y-95151749D01*
X128024846Y-95146767D01*
X128024849Y-95146762D01*
X128116961Y-94949225D01*
X128116961Y-94949224D01*
X128119284Y-94944243D01*
X128122769Y-94931239D01*
X128177119Y-94728402D01*
X128177119Y-94728400D01*
X128178543Y-94723087D01*
X128198498Y-94495000D01*
X128178543Y-94266913D01*
X128119284Y-94045757D01*
X128102316Y-94009369D01*
X128024849Y-93843238D01*
X128024846Y-93843233D01*
X128022523Y-93838251D01*
X127891198Y-93650700D01*
X127729300Y-93488802D01*
X127724792Y-93485645D01*
X127724789Y-93485643D01*
X127646611Y-93430902D01*
X127541749Y-93357477D01*
X127536767Y-93355154D01*
X127536762Y-93355151D01*
X127502543Y-93339195D01*
X127449258Y-93292278D01*
X127429797Y-93224001D01*
X127450339Y-93156041D01*
X127502543Y-93110805D01*
X127536762Y-93094849D01*
X127536767Y-93094846D01*
X127541749Y-93092523D01*
X127646611Y-93019098D01*
X127724789Y-92964357D01*
X127724792Y-92964355D01*
X127729300Y-92961198D01*
X127891198Y-92799300D01*
X128022523Y-92611749D01*
X128024846Y-92606767D01*
X128024849Y-92606762D01*
X128116961Y-92409225D01*
X128116961Y-92409224D01*
X128119284Y-92404243D01*
X128167785Y-92223238D01*
X128177119Y-92188402D01*
X128177119Y-92188400D01*
X128178543Y-92183087D01*
X128198498Y-91955000D01*
X128178543Y-91726913D01*
X128156069Y-91643039D01*
X128120707Y-91511067D01*
X128120706Y-91511065D01*
X128119284Y-91505757D01*
X128092847Y-91449062D01*
X128024849Y-91303238D01*
X128024846Y-91303233D01*
X128022523Y-91298251D01*
X127923162Y-91156349D01*
X127894357Y-91115211D01*
X127894355Y-91115208D01*
X127891198Y-91110700D01*
X127729300Y-90948802D01*
X127724792Y-90945645D01*
X127724789Y-90945643D01*
X127646611Y-90890902D01*
X127541749Y-90817477D01*
X127536767Y-90815154D01*
X127536762Y-90815151D01*
X127502543Y-90799195D01*
X127449258Y-90752278D01*
X127429797Y-90684001D01*
X127450339Y-90616041D01*
X127502543Y-90570805D01*
X127536762Y-90554849D01*
X127536767Y-90554846D01*
X127541749Y-90552523D01*
X127651500Y-90475674D01*
X127724789Y-90424357D01*
X127724792Y-90424355D01*
X127729300Y-90421198D01*
X127891198Y-90259300D01*
X127901683Y-90244327D01*
X128004417Y-90097607D01*
X128059874Y-90053279D01*
X128099718Y-90044127D01*
X128122037Y-90042723D01*
X128122038Y-90042723D01*
X128129950Y-90042225D01*
X128137491Y-90039775D01*
X128137787Y-90039679D01*
X128160931Y-90034506D01*
X128161235Y-90034468D01*
X128161240Y-90034467D01*
X128169097Y-90033474D01*
X128176462Y-90030558D01*
X128176466Y-90030557D01*
X128221311Y-90012801D01*
X128228730Y-90010129D01*
X128282175Y-89992764D01*
X128288872Y-89988514D01*
X128289131Y-89988350D01*
X128310258Y-89977585D01*
X128310546Y-89977471D01*
X128310551Y-89977468D01*
X128317917Y-89974552D01*
X128324325Y-89969896D01*
X128324331Y-89969893D01*
X128363352Y-89941542D01*
X128369889Y-89937099D01*
X128417318Y-89907000D01*
X128422959Y-89900993D01*
X128440746Y-89885312D01*
X128440991Y-89885134D01*
X128440993Y-89885132D01*
X128447407Y-89880472D01*
X128465226Y-89858933D01*
X128483203Y-89837204D01*
X128488434Y-89831270D01*
X128521458Y-89796102D01*
X128521460Y-89796099D01*
X128526886Y-89790321D01*
X128530858Y-89783097D01*
X128544181Y-89763494D01*
X128544380Y-89763254D01*
X128544384Y-89763247D01*
X128549433Y-89757144D01*
X128573347Y-89706324D01*
X128576929Y-89699292D01*
X128586698Y-89681522D01*
X128962273Y-89681522D01*
X129009764Y-89858761D01*
X129013510Y-89869053D01*
X129105586Y-90066511D01*
X129111069Y-90076007D01*
X129236028Y-90254467D01*
X129243084Y-90262875D01*
X129397125Y-90416916D01*
X129405533Y-90423972D01*
X129583993Y-90548931D01*
X129593489Y-90554414D01*
X129790947Y-90646490D01*
X129801239Y-90650236D01*
X130011688Y-90706625D01*
X130022481Y-90708528D01*
X130185170Y-90722762D01*
X130190635Y-90723000D01*
X130372885Y-90723000D01*
X130388124Y-90718525D01*
X130389329Y-90717135D01*
X130391000Y-90709452D01*
X130391000Y-90704885D01*
X130899000Y-90704885D01*
X130903475Y-90720124D01*
X130904865Y-90721329D01*
X130912548Y-90723000D01*
X131099365Y-90723000D01*
X131104830Y-90722762D01*
X131267519Y-90708528D01*
X131278312Y-90706625D01*
X131488761Y-90650236D01*
X131499053Y-90646490D01*
X131696511Y-90554414D01*
X131706007Y-90548931D01*
X131884467Y-90423972D01*
X131892875Y-90416916D01*
X132046916Y-90262875D01*
X132053972Y-90254467D01*
X132178931Y-90076007D01*
X132184414Y-90066511D01*
X132276490Y-89869053D01*
X132280236Y-89858761D01*
X132326394Y-89686497D01*
X132326058Y-89672401D01*
X132318116Y-89669000D01*
X130917115Y-89669000D01*
X130901876Y-89673475D01*
X130900671Y-89674865D01*
X130899000Y-89682548D01*
X130899000Y-90704885D01*
X130391000Y-90704885D01*
X130391000Y-89687115D01*
X130386525Y-89671876D01*
X130385135Y-89670671D01*
X130377452Y-89669000D01*
X128977033Y-89669000D01*
X128963502Y-89672973D01*
X128962273Y-89681522D01*
X128586698Y-89681522D01*
X128603995Y-89650060D01*
X128605965Y-89642385D01*
X128605968Y-89642379D01*
X128606044Y-89642081D01*
X128614076Y-89619772D01*
X128614206Y-89619497D01*
X128614209Y-89619489D01*
X128617583Y-89612318D01*
X128628106Y-89557151D01*
X128629832Y-89549429D01*
X128641829Y-89502707D01*
X128641829Y-89502706D01*
X128643800Y-89495030D01*
X128643800Y-89486793D01*
X128646032Y-89463184D01*
X128646090Y-89462881D01*
X128646090Y-89462877D01*
X128647575Y-89455094D01*
X128644049Y-89399049D01*
X128643800Y-89391138D01*
X128643800Y-85758994D01*
X128663802Y-85690873D01*
X128680705Y-85669899D01*
X129115958Y-85234646D01*
X129178270Y-85200620D01*
X129249085Y-85205685D01*
X129294148Y-85234646D01*
X129400700Y-85341198D01*
X129405208Y-85344355D01*
X129405211Y-85344357D01*
X129478500Y-85395674D01*
X129588251Y-85472523D01*
X129593233Y-85474846D01*
X129593238Y-85474849D01*
X129627457Y-85490805D01*
X129680742Y-85537722D01*
X129700203Y-85605999D01*
X129679661Y-85673959D01*
X129627457Y-85719195D01*
X129593238Y-85735151D01*
X129593233Y-85735154D01*
X129588251Y-85737477D01*
X129483389Y-85810902D01*
X129405211Y-85865643D01*
X129405208Y-85865645D01*
X129400700Y-85868802D01*
X129238802Y-86030700D01*
X129235645Y-86035208D01*
X129235643Y-86035211D01*
X129206838Y-86076349D01*
X129107477Y-86218251D01*
X129105154Y-86223233D01*
X129105151Y-86223238D01*
X129013039Y-86420775D01*
X129010716Y-86425757D01*
X128951457Y-86646913D01*
X128931502Y-86875000D01*
X128951457Y-87103087D01*
X129010716Y-87324243D01*
X129013039Y-87329224D01*
X129013039Y-87329225D01*
X129105151Y-87526762D01*
X129105154Y-87526767D01*
X129107477Y-87531749D01*
X129110634Y-87536257D01*
X129228318Y-87704327D01*
X129238802Y-87719300D01*
X129400700Y-87881198D01*
X129405208Y-87884355D01*
X129405211Y-87884357D01*
X129478500Y-87935674D01*
X129588251Y-88012523D01*
X129593233Y-88014846D01*
X129593238Y-88014849D01*
X129628049Y-88031081D01*
X129681334Y-88077998D01*
X129700795Y-88146275D01*
X129680253Y-88214235D01*
X129628049Y-88259471D01*
X129593489Y-88275586D01*
X129583993Y-88281069D01*
X129405533Y-88406028D01*
X129397125Y-88413084D01*
X129243084Y-88567125D01*
X129236028Y-88575533D01*
X129111069Y-88753993D01*
X129105586Y-88763489D01*
X129013510Y-88960947D01*
X129009764Y-88971239D01*
X128963606Y-89143503D01*
X128963942Y-89157599D01*
X128971884Y-89161000D01*
X132312967Y-89161000D01*
X132326498Y-89157027D01*
X132327727Y-89148478D01*
X132280236Y-88971239D01*
X132276490Y-88960947D01*
X132184414Y-88763489D01*
X132178931Y-88753993D01*
X132053972Y-88575533D01*
X132046916Y-88567125D01*
X131892875Y-88413084D01*
X131884467Y-88406028D01*
X131706007Y-88281069D01*
X131696511Y-88275586D01*
X131661951Y-88259471D01*
X131608666Y-88212554D01*
X131589205Y-88144277D01*
X131609747Y-88076317D01*
X131661951Y-88031081D01*
X131696762Y-88014849D01*
X131696767Y-88014846D01*
X131701749Y-88012523D01*
X131811500Y-87935674D01*
X131884789Y-87884357D01*
X131884792Y-87884355D01*
X131889300Y-87881198D01*
X132051198Y-87719300D01*
X132061683Y-87704327D01*
X132179366Y-87536257D01*
X132182523Y-87531749D01*
X132184846Y-87526767D01*
X132184849Y-87526762D01*
X132276961Y-87329225D01*
X132276961Y-87329224D01*
X132279284Y-87324243D01*
X132338543Y-87103087D01*
X132358498Y-86875000D01*
X132338543Y-86646913D01*
X132279284Y-86425757D01*
X132276961Y-86420775D01*
X132184849Y-86223238D01*
X132184846Y-86223233D01*
X132182523Y-86218251D01*
X132083162Y-86076349D01*
X132054357Y-86035211D01*
X132054355Y-86035208D01*
X132051198Y-86030700D01*
X131889300Y-85868802D01*
X131884792Y-85865645D01*
X131884789Y-85865643D01*
X131806611Y-85810902D01*
X131701749Y-85737477D01*
X131696767Y-85735154D01*
X131696762Y-85735151D01*
X131662543Y-85719195D01*
X131609258Y-85672278D01*
X131589797Y-85604001D01*
X131610339Y-85536041D01*
X131662543Y-85490805D01*
X131696762Y-85474849D01*
X131696767Y-85474846D01*
X131701749Y-85472523D01*
X131811500Y-85395674D01*
X131884789Y-85344357D01*
X131884792Y-85344355D01*
X131889300Y-85341198D01*
X132051198Y-85179300D01*
X132061683Y-85164327D01*
X132179366Y-84996257D01*
X132182523Y-84991749D01*
X132184846Y-84986767D01*
X132184849Y-84986762D01*
X132276961Y-84789225D01*
X132276961Y-84789224D01*
X132279284Y-84784243D01*
X132338543Y-84563087D01*
X132339022Y-84557611D01*
X132339023Y-84557606D01*
X132351710Y-84412592D01*
X132358101Y-84339534D01*
X132383964Y-84273416D01*
X132441468Y-84231777D01*
X132512355Y-84227836D01*
X132572717Y-84261421D01*
G37*
G04 #@! TD.AperFunction*
G04 #@! TA.AperFunction,Conductor*
G36*
X135079257Y-70643102D02*
G01*
X135125750Y-70696758D01*
X135135854Y-70767032D01*
X135132843Y-70781711D01*
X135103375Y-70891688D01*
X135101472Y-70902481D01*
X135082483Y-71119525D01*
X135082483Y-71130475D01*
X135101472Y-71347519D01*
X135103375Y-71358312D01*
X135159764Y-71568761D01*
X135163510Y-71579053D01*
X135255586Y-71776511D01*
X135261069Y-71786006D01*
X135297509Y-71838048D01*
X135307988Y-71846424D01*
X135321434Y-71839356D01*
X136305905Y-70854885D01*
X136368217Y-70820859D01*
X136439032Y-70825924D01*
X136484095Y-70854885D01*
X137469287Y-71840077D01*
X137481062Y-71846507D01*
X137493077Y-71837211D01*
X137528934Y-71786002D01*
X137535591Y-71774472D01*
X137586973Y-71725479D01*
X137656687Y-71712042D01*
X137722598Y-71738429D01*
X137753829Y-71774472D01*
X137755153Y-71776765D01*
X137757477Y-71781749D01*
X137888802Y-71969300D01*
X138050700Y-72131198D01*
X138055208Y-72134355D01*
X138055211Y-72134357D01*
X138207771Y-72241181D01*
X138252099Y-72296638D01*
X138261500Y-72344394D01*
X138261500Y-72740500D01*
X138241498Y-72808621D01*
X138187842Y-72855114D01*
X138135500Y-72866500D01*
X137807873Y-72866500D01*
X137805156Y-72866738D01*
X137805149Y-72866738D01*
X137736480Y-72872746D01*
X137636913Y-72881457D01*
X137631600Y-72882881D01*
X137631598Y-72882881D01*
X137421067Y-72939293D01*
X137421065Y-72939294D01*
X137415757Y-72940716D01*
X137410776Y-72943039D01*
X137410775Y-72943039D01*
X137213238Y-73035151D01*
X137213233Y-73035154D01*
X137208251Y-73037477D01*
X137103389Y-73110902D01*
X137025211Y-73165643D01*
X137025208Y-73165645D01*
X137020700Y-73168802D01*
X136858802Y-73330700D01*
X136855645Y-73335208D01*
X136855643Y-73335211D01*
X136839245Y-73358630D01*
X136727477Y-73518251D01*
X136725154Y-73523233D01*
X136725151Y-73523238D01*
X136644409Y-73696392D01*
X136630716Y-73725757D01*
X136629294Y-73731065D01*
X136629293Y-73731067D01*
X136581171Y-73910661D01*
X136571457Y-73946913D01*
X136551502Y-74175000D01*
X136571457Y-74403087D01*
X136572881Y-74408400D01*
X136572881Y-74408402D01*
X136607716Y-74538405D01*
X136630716Y-74624243D01*
X136633039Y-74629224D01*
X136633039Y-74629225D01*
X136725151Y-74826762D01*
X136725154Y-74826767D01*
X136727477Y-74831749D01*
X136858802Y-75019300D01*
X137020700Y-75181198D01*
X137025208Y-75184355D01*
X137025211Y-75184357D01*
X137066195Y-75213054D01*
X137208251Y-75312523D01*
X137213233Y-75314846D01*
X137213238Y-75314849D01*
X137247457Y-75330805D01*
X137300742Y-75377722D01*
X137320203Y-75445999D01*
X137299661Y-75513959D01*
X137247457Y-75559195D01*
X137213238Y-75575151D01*
X137213233Y-75575154D01*
X137208251Y-75577477D01*
X137103955Y-75650506D01*
X137025211Y-75705643D01*
X137025208Y-75705645D01*
X137020700Y-75708802D01*
X136858802Y-75870700D01*
X136855645Y-75875208D01*
X136855643Y-75875211D01*
X136826838Y-75916349D01*
X136727477Y-76058251D01*
X136725154Y-76063233D01*
X136725151Y-76063238D01*
X136679889Y-76160304D01*
X136630716Y-76265757D01*
X136629294Y-76271065D01*
X136629293Y-76271067D01*
X136572881Y-76481598D01*
X136571457Y-76486913D01*
X136551502Y-76715000D01*
X136571457Y-76943087D01*
X136630716Y-77164243D01*
X136633039Y-77169224D01*
X136633039Y-77169225D01*
X136725151Y-77366762D01*
X136725154Y-77366767D01*
X136727477Y-77371749D01*
X136730634Y-77376257D01*
X136848318Y-77544327D01*
X136858802Y-77559300D01*
X137020700Y-77721198D01*
X137025208Y-77724355D01*
X137025211Y-77724357D01*
X137090459Y-77770044D01*
X137208251Y-77852523D01*
X137213233Y-77854846D01*
X137213238Y-77854849D01*
X137248049Y-77871081D01*
X137301334Y-77917998D01*
X137320795Y-77986275D01*
X137300253Y-78054235D01*
X137248049Y-78099471D01*
X137213489Y-78115586D01*
X137203993Y-78121069D01*
X137025533Y-78246028D01*
X137017125Y-78253084D01*
X136863084Y-78407125D01*
X136856028Y-78415533D01*
X136731069Y-78593993D01*
X136725586Y-78603489D01*
X136633510Y-78800947D01*
X136629764Y-78811239D01*
X136583606Y-78983503D01*
X136583942Y-78997599D01*
X136591884Y-79001000D01*
X138393000Y-79001000D01*
X138461121Y-79021002D01*
X138507614Y-79074658D01*
X138519000Y-79127000D01*
X138519000Y-81923000D01*
X138498998Y-81991121D01*
X138445342Y-82037614D01*
X138393000Y-82049000D01*
X136597033Y-82049000D01*
X136583502Y-82052973D01*
X136582273Y-82061521D01*
X136593012Y-82101598D01*
X136591322Y-82172575D01*
X136551528Y-82231371D01*
X136486264Y-82259319D01*
X136416250Y-82247546D01*
X136382210Y-82223305D01*
X133680427Y-79521522D01*
X136582273Y-79521522D01*
X136629764Y-79698761D01*
X136633510Y-79709053D01*
X136725586Y-79906511D01*
X136731069Y-79916007D01*
X136856028Y-80094467D01*
X136863084Y-80102875D01*
X137017125Y-80256916D01*
X137025533Y-80263972D01*
X137203993Y-80388931D01*
X137213489Y-80394414D01*
X137248641Y-80410805D01*
X137301926Y-80457722D01*
X137321387Y-80525999D01*
X137300845Y-80593959D01*
X137248641Y-80639195D01*
X137213489Y-80655586D01*
X137203993Y-80661069D01*
X137025533Y-80786028D01*
X137017125Y-80793084D01*
X136863084Y-80947125D01*
X136856028Y-80955533D01*
X136731069Y-81133993D01*
X136725586Y-81143489D01*
X136633510Y-81340947D01*
X136629764Y-81351239D01*
X136583606Y-81523503D01*
X136583942Y-81537599D01*
X136591884Y-81541000D01*
X137992885Y-81541000D01*
X138008124Y-81536525D01*
X138009329Y-81535135D01*
X138011000Y-81527452D01*
X138011000Y-79527115D01*
X138006525Y-79511876D01*
X138005135Y-79510671D01*
X137997452Y-79509000D01*
X136597033Y-79509000D01*
X136583502Y-79512973D01*
X136582273Y-79521522D01*
X133680427Y-79521522D01*
X132840705Y-78681800D01*
X132806679Y-78619488D01*
X132803800Y-78592705D01*
X132803800Y-74246793D01*
X132806032Y-74223184D01*
X132806090Y-74222881D01*
X132806090Y-74222877D01*
X132807575Y-74215094D01*
X132804049Y-74159049D01*
X132803800Y-74151138D01*
X132803800Y-74135144D01*
X132801794Y-74119270D01*
X132801051Y-74111402D01*
X132798023Y-74063263D01*
X132798023Y-74063262D01*
X132797525Y-74055350D01*
X132794979Y-74047513D01*
X132789806Y-74024369D01*
X132789768Y-74024065D01*
X132789767Y-74024060D01*
X132788774Y-74016203D01*
X132785858Y-74008838D01*
X132785857Y-74008834D01*
X132768101Y-73963989D01*
X132765429Y-73956570D01*
X132748064Y-73903125D01*
X132743814Y-73896428D01*
X132743650Y-73896169D01*
X132732885Y-73875042D01*
X132732771Y-73874754D01*
X132732768Y-73874749D01*
X132729852Y-73867383D01*
X132725196Y-73860975D01*
X132725193Y-73860969D01*
X132696842Y-73821948D01*
X132692392Y-73815401D01*
X132662300Y-73767982D01*
X132656293Y-73762341D01*
X132640612Y-73744554D01*
X132640434Y-73744309D01*
X132640432Y-73744307D01*
X132635772Y-73737893D01*
X132627521Y-73731067D01*
X132592504Y-73702097D01*
X132586570Y-73696866D01*
X132551402Y-73663842D01*
X132551399Y-73663840D01*
X132545621Y-73658414D01*
X132538397Y-73654442D01*
X132518794Y-73641119D01*
X132518554Y-73640920D01*
X132518547Y-73640916D01*
X132512444Y-73635867D01*
X132461624Y-73611953D01*
X132454571Y-73608359D01*
X132418799Y-73588693D01*
X132368740Y-73538348D01*
X132353500Y-73478279D01*
X132353500Y-73326866D01*
X132346745Y-73264684D01*
X132295615Y-73128295D01*
X132208261Y-73011739D01*
X132091705Y-72924385D01*
X131955316Y-72873255D01*
X131893134Y-72866500D01*
X130617394Y-72866500D01*
X130549273Y-72846498D01*
X130502780Y-72792842D01*
X130492676Y-72722568D01*
X130522170Y-72657988D01*
X130528299Y-72651405D01*
X130968642Y-72211062D01*
X135673493Y-72211062D01*
X135682789Y-72223077D01*
X135733994Y-72258931D01*
X135743489Y-72264414D01*
X135940947Y-72356490D01*
X135951239Y-72360236D01*
X136161688Y-72416625D01*
X136172481Y-72418528D01*
X136389525Y-72437517D01*
X136400475Y-72437517D01*
X136617519Y-72418528D01*
X136628312Y-72416625D01*
X136838761Y-72360236D01*
X136849053Y-72356490D01*
X137046511Y-72264414D01*
X137056006Y-72258931D01*
X137108048Y-72222491D01*
X137116424Y-72212012D01*
X137109356Y-72198566D01*
X136407812Y-71497022D01*
X136393868Y-71489408D01*
X136392035Y-71489539D01*
X136385420Y-71493790D01*
X135679923Y-72199287D01*
X135673493Y-72211062D01*
X130968642Y-72211062D01*
X132519699Y-70660005D01*
X132582011Y-70625979D01*
X132608794Y-70623100D01*
X135011136Y-70623100D01*
X135079257Y-70643102D01*
G37*
G04 #@! TD.AperFunction*
M02*
