G04 #@! TF.GenerationSoftware,KiCad,Pcbnew,(6.0.4-0)*
G04 #@! TF.CreationDate,2022-12-18T15:52:34+09:00*
G04 #@! TF.ProjectId,MC6803EP-SBC6809E,4d433638-3033-4455-902d-534243363830,rev?*
G04 #@! TF.SameCoordinates,Original*
G04 #@! TF.FileFunction,Legend,Top*
G04 #@! TF.FilePolarity,Positive*
%FSLAX46Y46*%
G04 Gerber Fmt 4.6, Leading zero omitted, Abs format (unit mm)*
G04 Created by KiCad (PCBNEW (6.0.4-0)) date 2022-12-18 15:52:34*
%MOMM*%
%LPD*%
G01*
G04 APERTURE LIST*
%ADD10C,0.200000*%
%ADD11C,0.150000*%
%ADD12C,0.120000*%
%ADD13R,1.600000X1.600000*%
%ADD14O,1.600000X1.600000*%
%ADD15R,1.700000X1.700000*%
%ADD16O,1.700000X1.700000*%
%ADD17C,1.600000*%
G04 APERTURE END LIST*
D10*
X116221428Y-93199999D02*
X117721428Y-93199999D01*
X116650000Y-93699999D01*
X117721428Y-94199999D01*
X116221428Y-94199999D01*
X116364285Y-95771428D02*
X116292857Y-95699999D01*
X116221428Y-95485714D01*
X116221428Y-95342857D01*
X116292857Y-95128571D01*
X116435714Y-94985714D01*
X116578571Y-94914285D01*
X116864285Y-94842857D01*
X117078571Y-94842857D01*
X117364285Y-94914285D01*
X117507142Y-94985714D01*
X117650000Y-95128571D01*
X117721428Y-95342857D01*
X117721428Y-95485714D01*
X117650000Y-95699999D01*
X117578571Y-95771428D01*
X117721428Y-97057142D02*
X117721428Y-96771428D01*
X117650000Y-96628571D01*
X117578571Y-96557142D01*
X117364285Y-96414285D01*
X117078571Y-96342857D01*
X116507142Y-96342857D01*
X116364285Y-96414285D01*
X116292857Y-96485714D01*
X116221428Y-96628571D01*
X116221428Y-96914285D01*
X116292857Y-97057142D01*
X116364285Y-97128571D01*
X116507142Y-97199999D01*
X116864285Y-97199999D01*
X117007142Y-97128571D01*
X117078571Y-97057142D01*
X117150000Y-96914285D01*
X117150000Y-96628571D01*
X117078571Y-96485714D01*
X117007142Y-96414285D01*
X116864285Y-96342857D01*
X117078571Y-98057142D02*
X117150000Y-97914285D01*
X117221428Y-97842857D01*
X117364285Y-97771428D01*
X117435714Y-97771428D01*
X117578571Y-97842857D01*
X117650000Y-97914285D01*
X117721428Y-98057142D01*
X117721428Y-98342857D01*
X117650000Y-98485714D01*
X117578571Y-98557142D01*
X117435714Y-98628571D01*
X117364285Y-98628571D01*
X117221428Y-98557142D01*
X117150000Y-98485714D01*
X117078571Y-98342857D01*
X117078571Y-98057142D01*
X117007142Y-97914285D01*
X116935714Y-97842857D01*
X116792857Y-97771428D01*
X116507142Y-97771428D01*
X116364285Y-97842857D01*
X116292857Y-97914285D01*
X116221428Y-98057142D01*
X116221428Y-98342857D01*
X116292857Y-98485714D01*
X116364285Y-98557142D01*
X116507142Y-98628571D01*
X116792857Y-98628571D01*
X116935714Y-98557142D01*
X117007142Y-98485714D01*
X117078571Y-98342857D01*
X117721428Y-99557142D02*
X117721428Y-99699999D01*
X117650000Y-99842857D01*
X117578571Y-99914285D01*
X117435714Y-99985714D01*
X117150000Y-100057142D01*
X116792857Y-100057142D01*
X116507142Y-99985714D01*
X116364285Y-99914285D01*
X116292857Y-99842857D01*
X116221428Y-99699999D01*
X116221428Y-99557142D01*
X116292857Y-99414285D01*
X116364285Y-99342857D01*
X116507142Y-99271428D01*
X116792857Y-99199999D01*
X117150000Y-99199999D01*
X117435714Y-99271428D01*
X117578571Y-99342857D01*
X117650000Y-99414285D01*
X117721428Y-99557142D01*
X116221428Y-100771428D02*
X116221428Y-101057142D01*
X116292857Y-101199999D01*
X116364285Y-101271428D01*
X116578571Y-101414285D01*
X116864285Y-101485714D01*
X117435714Y-101485714D01*
X117578571Y-101414285D01*
X117650000Y-101342857D01*
X117721428Y-101199999D01*
X117721428Y-100914285D01*
X117650000Y-100771428D01*
X117578571Y-100699999D01*
X117435714Y-100628571D01*
X117078571Y-100628571D01*
X116935714Y-100699999D01*
X116864285Y-100771428D01*
X116792857Y-100914285D01*
X116792857Y-101199999D01*
X116864285Y-101342857D01*
X116935714Y-101414285D01*
X117078571Y-101485714D01*
X117007142Y-102128571D02*
X117007142Y-102628571D01*
X116221428Y-102842857D02*
X116221428Y-102128571D01*
X117721428Y-102128571D01*
X117721428Y-102842857D01*
X117721428Y-104628571D02*
X117292857Y-104771428D01*
X117721428Y-105414285D02*
X117292857Y-105414285D01*
X117007142Y-105342857D01*
X116792857Y-105271428D01*
X116578571Y-105128571D01*
X116364285Y-104771428D01*
X117364285Y-106342857D02*
X117364285Y-107128571D01*
X117864285Y-106414285D02*
X117578571Y-106342857D01*
X117221428Y-106199999D01*
X117007142Y-106128571D01*
X117364285Y-106771428D02*
X117007142Y-106771428D01*
X116792857Y-106699999D01*
X116578571Y-106557142D01*
X116292857Y-106342857D01*
X117292857Y-107771428D02*
X116935714Y-107914285D01*
X117364285Y-108128571D02*
X117007142Y-108199999D01*
X117292857Y-108557142D02*
X116935714Y-108557142D01*
X116721428Y-108485714D01*
X116507142Y-108271428D01*
X116364285Y-108057142D01*
X117864285Y-109771428D02*
X116292857Y-109771428D01*
X117221428Y-109771428D02*
X116864285Y-110199999D01*
X148321428Y-94000000D02*
X149821428Y-94000000D01*
X148750000Y-94500000D01*
X149821428Y-95000000D01*
X148321428Y-95000000D01*
X148464285Y-96571428D02*
X148392857Y-96500000D01*
X148321428Y-96285714D01*
X148321428Y-96142857D01*
X148392857Y-95928571D01*
X148535714Y-95785714D01*
X148678571Y-95714285D01*
X148964285Y-95642857D01*
X149178571Y-95642857D01*
X149464285Y-95714285D01*
X149607142Y-95785714D01*
X149750000Y-95928571D01*
X149821428Y-96142857D01*
X149821428Y-96285714D01*
X149750000Y-96500000D01*
X149678571Y-96571428D01*
X149821428Y-97857142D02*
X149821428Y-97571428D01*
X149750000Y-97428571D01*
X149678571Y-97357142D01*
X149464285Y-97214285D01*
X149178571Y-97142857D01*
X148607142Y-97142857D01*
X148464285Y-97214285D01*
X148392857Y-97285714D01*
X148321428Y-97428571D01*
X148321428Y-97714285D01*
X148392857Y-97857142D01*
X148464285Y-97928571D01*
X148607142Y-98000000D01*
X148964285Y-98000000D01*
X149107142Y-97928571D01*
X149178571Y-97857142D01*
X149250000Y-97714285D01*
X149250000Y-97428571D01*
X149178571Y-97285714D01*
X149107142Y-97214285D01*
X148964285Y-97142857D01*
X149178571Y-98857142D02*
X149250000Y-98714285D01*
X149321428Y-98642857D01*
X149464285Y-98571428D01*
X149535714Y-98571428D01*
X149678571Y-98642857D01*
X149750000Y-98714285D01*
X149821428Y-98857142D01*
X149821428Y-99142857D01*
X149750000Y-99285714D01*
X149678571Y-99357142D01*
X149535714Y-99428571D01*
X149464285Y-99428571D01*
X149321428Y-99357142D01*
X149250000Y-99285714D01*
X149178571Y-99142857D01*
X149178571Y-98857142D01*
X149107142Y-98714285D01*
X149035714Y-98642857D01*
X148892857Y-98571428D01*
X148607142Y-98571428D01*
X148464285Y-98642857D01*
X148392857Y-98714285D01*
X148321428Y-98857142D01*
X148321428Y-99142857D01*
X148392857Y-99285714D01*
X148464285Y-99357142D01*
X148607142Y-99428571D01*
X148892857Y-99428571D01*
X149035714Y-99357142D01*
X149107142Y-99285714D01*
X149178571Y-99142857D01*
X149821428Y-100357142D02*
X149821428Y-100500000D01*
X149750000Y-100642857D01*
X149678571Y-100714285D01*
X149535714Y-100785714D01*
X149250000Y-100857142D01*
X148892857Y-100857142D01*
X148607142Y-100785714D01*
X148464285Y-100714285D01*
X148392857Y-100642857D01*
X148321428Y-100500000D01*
X148321428Y-100357142D01*
X148392857Y-100214285D01*
X148464285Y-100142857D01*
X148607142Y-100071428D01*
X148892857Y-100000000D01*
X149250000Y-100000000D01*
X149535714Y-100071428D01*
X149678571Y-100142857D01*
X149750000Y-100214285D01*
X149821428Y-100357142D01*
X149821428Y-101357142D02*
X149821428Y-102285714D01*
X149250000Y-101785714D01*
X149250000Y-102000000D01*
X149178571Y-102142857D01*
X149107142Y-102214285D01*
X148964285Y-102285714D01*
X148607142Y-102285714D01*
X148464285Y-102214285D01*
X148392857Y-102142857D01*
X148321428Y-102000000D01*
X148321428Y-101571428D01*
X148392857Y-101428571D01*
X148464285Y-101357142D01*
X149107142Y-102928571D02*
X149107142Y-103428571D01*
X148321428Y-103642857D02*
X148321428Y-102928571D01*
X149821428Y-102928571D01*
X149821428Y-103642857D01*
X148321428Y-104285714D02*
X149821428Y-104285714D01*
X149821428Y-104857142D01*
X149750000Y-105000000D01*
X149678571Y-105071428D01*
X149535714Y-105142857D01*
X149321428Y-105142857D01*
X149178571Y-105071428D01*
X149107142Y-105000000D01*
X149035714Y-104857142D01*
X149035714Y-104285714D01*
X148321428Y-106928571D02*
X149821428Y-106928571D01*
X148750000Y-107428571D01*
X149821428Y-107928571D01*
X148321428Y-107928571D01*
X148321428Y-108642857D02*
X149821428Y-108642857D01*
X149821428Y-109214285D01*
X149750000Y-109357142D01*
X149678571Y-109428571D01*
X149535714Y-109500000D01*
X149321428Y-109500000D01*
X149178571Y-109428571D01*
X149107142Y-109357142D01*
X149035714Y-109214285D01*
X149035714Y-108642857D01*
X149821428Y-110142857D02*
X148607142Y-110142857D01*
X148464285Y-110214285D01*
X148392857Y-110285714D01*
X148321428Y-110428571D01*
X148321428Y-110714285D01*
X148392857Y-110857142D01*
X148464285Y-110928571D01*
X148607142Y-111000000D01*
X149821428Y-111000000D01*
D11*
X107285714Y-126147380D02*
X107285714Y-125147380D01*
X107619047Y-125861666D01*
X107952380Y-125147380D01*
X107952380Y-126147380D01*
X109000000Y-126052142D02*
X108952380Y-126099761D01*
X108809523Y-126147380D01*
X108714285Y-126147380D01*
X108571428Y-126099761D01*
X108476190Y-126004523D01*
X108428571Y-125909285D01*
X108380952Y-125718809D01*
X108380952Y-125575952D01*
X108428571Y-125385476D01*
X108476190Y-125290238D01*
X108571428Y-125195000D01*
X108714285Y-125147380D01*
X108809523Y-125147380D01*
X108952380Y-125195000D01*
X109000000Y-125242619D01*
X109857142Y-125147380D02*
X109666666Y-125147380D01*
X109571428Y-125195000D01*
X109523809Y-125242619D01*
X109428571Y-125385476D01*
X109380952Y-125575952D01*
X109380952Y-125956904D01*
X109428571Y-126052142D01*
X109476190Y-126099761D01*
X109571428Y-126147380D01*
X109761904Y-126147380D01*
X109857142Y-126099761D01*
X109904761Y-126052142D01*
X109952380Y-125956904D01*
X109952380Y-125718809D01*
X109904761Y-125623571D01*
X109857142Y-125575952D01*
X109761904Y-125528333D01*
X109571428Y-125528333D01*
X109476190Y-125575952D01*
X109428571Y-125623571D01*
X109380952Y-125718809D01*
X110523809Y-125575952D02*
X110428571Y-125528333D01*
X110380952Y-125480714D01*
X110333333Y-125385476D01*
X110333333Y-125337857D01*
X110380952Y-125242619D01*
X110428571Y-125195000D01*
X110523809Y-125147380D01*
X110714285Y-125147380D01*
X110809523Y-125195000D01*
X110857142Y-125242619D01*
X110904761Y-125337857D01*
X110904761Y-125385476D01*
X110857142Y-125480714D01*
X110809523Y-125528333D01*
X110714285Y-125575952D01*
X110523809Y-125575952D01*
X110428571Y-125623571D01*
X110380952Y-125671190D01*
X110333333Y-125766428D01*
X110333333Y-125956904D01*
X110380952Y-126052142D01*
X110428571Y-126099761D01*
X110523809Y-126147380D01*
X110714285Y-126147380D01*
X110809523Y-126099761D01*
X110857142Y-126052142D01*
X110904761Y-125956904D01*
X110904761Y-125766428D01*
X110857142Y-125671190D01*
X110809523Y-125623571D01*
X110714285Y-125575952D01*
X111523809Y-125147380D02*
X111619047Y-125147380D01*
X111714285Y-125195000D01*
X111761904Y-125242619D01*
X111809523Y-125337857D01*
X111857142Y-125528333D01*
X111857142Y-125766428D01*
X111809523Y-125956904D01*
X111761904Y-126052142D01*
X111714285Y-126099761D01*
X111619047Y-126147380D01*
X111523809Y-126147380D01*
X111428571Y-126099761D01*
X111380952Y-126052142D01*
X111333333Y-125956904D01*
X111285714Y-125766428D01*
X111285714Y-125528333D01*
X111333333Y-125337857D01*
X111380952Y-125242619D01*
X111428571Y-125195000D01*
X111523809Y-125147380D01*
X112190476Y-125147380D02*
X112809523Y-125147380D01*
X112476190Y-125528333D01*
X112619047Y-125528333D01*
X112714285Y-125575952D01*
X112761904Y-125623571D01*
X112809523Y-125718809D01*
X112809523Y-125956904D01*
X112761904Y-126052142D01*
X112714285Y-126099761D01*
X112619047Y-126147380D01*
X112333333Y-126147380D01*
X112238095Y-126099761D01*
X112190476Y-126052142D01*
X113238095Y-125623571D02*
X113571428Y-125623571D01*
X113714285Y-126147380D02*
X113238095Y-126147380D01*
X113238095Y-125147380D01*
X113714285Y-125147380D01*
X114142857Y-126147380D02*
X114142857Y-125147380D01*
X114523809Y-125147380D01*
X114619047Y-125195000D01*
X114666666Y-125242619D01*
X114714285Y-125337857D01*
X114714285Y-125480714D01*
X114666666Y-125575952D01*
X114619047Y-125623571D01*
X114523809Y-125671190D01*
X114142857Y-125671190D01*
X115761904Y-125480714D02*
X116142857Y-125480714D01*
X115904761Y-126147380D02*
X115904761Y-125290238D01*
X115952380Y-125195000D01*
X116047619Y-125147380D01*
X116142857Y-125147380D01*
X116619047Y-126147380D02*
X116523809Y-126099761D01*
X116476190Y-126052142D01*
X116428571Y-125956904D01*
X116428571Y-125671190D01*
X116476190Y-125575952D01*
X116523809Y-125528333D01*
X116619047Y-125480714D01*
X116761904Y-125480714D01*
X116857142Y-125528333D01*
X116904761Y-125575952D01*
X116952380Y-125671190D01*
X116952380Y-125956904D01*
X116904761Y-126052142D01*
X116857142Y-126099761D01*
X116761904Y-126147380D01*
X116619047Y-126147380D01*
X117380952Y-126147380D02*
X117380952Y-125480714D01*
X117380952Y-125671190D02*
X117428571Y-125575952D01*
X117476190Y-125528333D01*
X117571428Y-125480714D01*
X117666666Y-125480714D01*
X118714285Y-126099761D02*
X118857142Y-126147380D01*
X119095238Y-126147380D01*
X119190476Y-126099761D01*
X119238095Y-126052142D01*
X119285714Y-125956904D01*
X119285714Y-125861666D01*
X119238095Y-125766428D01*
X119190476Y-125718809D01*
X119095238Y-125671190D01*
X118904761Y-125623571D01*
X118809523Y-125575952D01*
X118761904Y-125528333D01*
X118714285Y-125433095D01*
X118714285Y-125337857D01*
X118761904Y-125242619D01*
X118809523Y-125195000D01*
X118904761Y-125147380D01*
X119142857Y-125147380D01*
X119285714Y-125195000D01*
X120047619Y-125623571D02*
X120190476Y-125671190D01*
X120238095Y-125718809D01*
X120285714Y-125814047D01*
X120285714Y-125956904D01*
X120238095Y-126052142D01*
X120190476Y-126099761D01*
X120095238Y-126147380D01*
X119714285Y-126147380D01*
X119714285Y-125147380D01*
X120047619Y-125147380D01*
X120142857Y-125195000D01*
X120190476Y-125242619D01*
X120238095Y-125337857D01*
X120238095Y-125433095D01*
X120190476Y-125528333D01*
X120142857Y-125575952D01*
X120047619Y-125623571D01*
X119714285Y-125623571D01*
X121285714Y-126052142D02*
X121238095Y-126099761D01*
X121095238Y-126147380D01*
X121000000Y-126147380D01*
X120857142Y-126099761D01*
X120761904Y-126004523D01*
X120714285Y-125909285D01*
X120666666Y-125718809D01*
X120666666Y-125575952D01*
X120714285Y-125385476D01*
X120761904Y-125290238D01*
X120857142Y-125195000D01*
X121000000Y-125147380D01*
X121095238Y-125147380D01*
X121238095Y-125195000D01*
X121285714Y-125242619D01*
X122142857Y-125147380D02*
X121952380Y-125147380D01*
X121857142Y-125195000D01*
X121809523Y-125242619D01*
X121714285Y-125385476D01*
X121666666Y-125575952D01*
X121666666Y-125956904D01*
X121714285Y-126052142D01*
X121761904Y-126099761D01*
X121857142Y-126147380D01*
X122047619Y-126147380D01*
X122142857Y-126099761D01*
X122190476Y-126052142D01*
X122238095Y-125956904D01*
X122238095Y-125718809D01*
X122190476Y-125623571D01*
X122142857Y-125575952D01*
X122047619Y-125528333D01*
X121857142Y-125528333D01*
X121761904Y-125575952D01*
X121714285Y-125623571D01*
X121666666Y-125718809D01*
X122809523Y-125575952D02*
X122714285Y-125528333D01*
X122666666Y-125480714D01*
X122619047Y-125385476D01*
X122619047Y-125337857D01*
X122666666Y-125242619D01*
X122714285Y-125195000D01*
X122809523Y-125147380D01*
X123000000Y-125147380D01*
X123095238Y-125195000D01*
X123142857Y-125242619D01*
X123190476Y-125337857D01*
X123190476Y-125385476D01*
X123142857Y-125480714D01*
X123095238Y-125528333D01*
X123000000Y-125575952D01*
X122809523Y-125575952D01*
X122714285Y-125623571D01*
X122666666Y-125671190D01*
X122619047Y-125766428D01*
X122619047Y-125956904D01*
X122666666Y-126052142D01*
X122714285Y-126099761D01*
X122809523Y-126147380D01*
X123000000Y-126147380D01*
X123095238Y-126099761D01*
X123142857Y-126052142D01*
X123190476Y-125956904D01*
X123190476Y-125766428D01*
X123142857Y-125671190D01*
X123095238Y-125623571D01*
X123000000Y-125575952D01*
X123809523Y-125147380D02*
X123904761Y-125147380D01*
X124000000Y-125195000D01*
X124047619Y-125242619D01*
X124095238Y-125337857D01*
X124142857Y-125528333D01*
X124142857Y-125766428D01*
X124095238Y-125956904D01*
X124047619Y-126052142D01*
X124000000Y-126099761D01*
X123904761Y-126147380D01*
X123809523Y-126147380D01*
X123714285Y-126099761D01*
X123666666Y-126052142D01*
X123619047Y-125956904D01*
X123571428Y-125766428D01*
X123571428Y-125528333D01*
X123619047Y-125337857D01*
X123666666Y-125242619D01*
X123714285Y-125195000D01*
X123809523Y-125147380D01*
X124619047Y-126147380D02*
X124809523Y-126147380D01*
X124904761Y-126099761D01*
X124952380Y-126052142D01*
X125047619Y-125909285D01*
X125095238Y-125718809D01*
X125095238Y-125337857D01*
X125047619Y-125242619D01*
X125000000Y-125195000D01*
X124904761Y-125147380D01*
X124714285Y-125147380D01*
X124619047Y-125195000D01*
X124571428Y-125242619D01*
X124523809Y-125337857D01*
X124523809Y-125575952D01*
X124571428Y-125671190D01*
X124619047Y-125718809D01*
X124714285Y-125766428D01*
X124904761Y-125766428D01*
X125000000Y-125718809D01*
X125047619Y-125671190D01*
X125095238Y-125575952D01*
X125523809Y-125623571D02*
X125857142Y-125623571D01*
X126000000Y-126147380D02*
X125523809Y-126147380D01*
X125523809Y-125147380D01*
X126000000Y-125147380D01*
X111190476Y-127757380D02*
X111190476Y-126757380D01*
X111761904Y-127757380D02*
X111333333Y-127185952D01*
X111761904Y-126757380D02*
X111190476Y-127328809D01*
X112190476Y-126757380D02*
X112190476Y-127566904D01*
X112238095Y-127662142D01*
X112285714Y-127709761D01*
X112380952Y-127757380D01*
X112571428Y-127757380D01*
X112666666Y-127709761D01*
X112714285Y-127662142D01*
X112761904Y-127566904D01*
X112761904Y-126757380D01*
X113238095Y-127757380D02*
X113238095Y-126757380D01*
X113809523Y-127757380D01*
X113809523Y-126757380D01*
X114285714Y-127757380D02*
X114285714Y-126757380D01*
X114761904Y-127376428D02*
X115523809Y-127376428D01*
X116000000Y-127757380D02*
X116000000Y-126757380D01*
X116571428Y-127757380D01*
X116571428Y-126757380D01*
X117047619Y-127233571D02*
X117380952Y-127233571D01*
X117523809Y-127757380D02*
X117047619Y-127757380D01*
X117047619Y-126757380D01*
X117523809Y-126757380D01*
X117809523Y-126757380D02*
X118380952Y-126757380D01*
X118095238Y-127757380D02*
X118095238Y-126757380D01*
X119428571Y-126852619D02*
X119476190Y-126805000D01*
X119571428Y-126757380D01*
X119809523Y-126757380D01*
X119904761Y-126805000D01*
X119952380Y-126852619D01*
X120000000Y-126947857D01*
X120000000Y-127043095D01*
X119952380Y-127185952D01*
X119380952Y-127757380D01*
X120000000Y-127757380D01*
X120619047Y-126757380D02*
X120714285Y-126757380D01*
X120809523Y-126805000D01*
X120857142Y-126852619D01*
X120904761Y-126947857D01*
X120952380Y-127138333D01*
X120952380Y-127376428D01*
X120904761Y-127566904D01*
X120857142Y-127662142D01*
X120809523Y-127709761D01*
X120714285Y-127757380D01*
X120619047Y-127757380D01*
X120523809Y-127709761D01*
X120476190Y-127662142D01*
X120428571Y-127566904D01*
X120380952Y-127376428D01*
X120380952Y-127138333D01*
X120428571Y-126947857D01*
X120476190Y-126852619D01*
X120523809Y-126805000D01*
X120619047Y-126757380D01*
X121333333Y-126852619D02*
X121380952Y-126805000D01*
X121476190Y-126757380D01*
X121714285Y-126757380D01*
X121809523Y-126805000D01*
X121857142Y-126852619D01*
X121904761Y-126947857D01*
X121904761Y-127043095D01*
X121857142Y-127185952D01*
X121285714Y-127757380D01*
X121904761Y-127757380D01*
X122285714Y-126852619D02*
X122333333Y-126805000D01*
X122428571Y-126757380D01*
X122666666Y-126757380D01*
X122761904Y-126805000D01*
X122809523Y-126852619D01*
X122857142Y-126947857D01*
X122857142Y-127043095D01*
X122809523Y-127185952D01*
X122238095Y-127757380D01*
X122857142Y-127757380D01*
D10*
X134071428Y-77500000D02*
X134071428Y-78500000D01*
X132571428Y-77857142D01*
X133571428Y-79714285D02*
X132571428Y-79714285D01*
X134142857Y-79357142D02*
X133071428Y-79000000D01*
X133071428Y-79928571D01*
X132571428Y-80500000D02*
X134071428Y-80500000D01*
X133357142Y-80500000D02*
X133357142Y-81357142D01*
X132571428Y-81357142D02*
X134071428Y-81357142D01*
X132714285Y-82928571D02*
X132642857Y-82857142D01*
X132571428Y-82642857D01*
X132571428Y-82500000D01*
X132642857Y-82285714D01*
X132785714Y-82142857D01*
X132928571Y-82071428D01*
X133214285Y-82000000D01*
X133428571Y-82000000D01*
X133714285Y-82071428D01*
X133857142Y-82142857D01*
X134000000Y-82285714D01*
X134071428Y-82500000D01*
X134071428Y-82642857D01*
X134000000Y-82857142D01*
X133928571Y-82928571D01*
X134071428Y-83357142D02*
X134071428Y-84214285D01*
X132571428Y-83785714D02*
X134071428Y-83785714D01*
X134071428Y-85000000D02*
X134071428Y-85142857D01*
X134000000Y-85285714D01*
X133928571Y-85357142D01*
X133785714Y-85428571D01*
X133500000Y-85500000D01*
X133142857Y-85500000D01*
X132857142Y-85428571D01*
X132714285Y-85357142D01*
X132642857Y-85285714D01*
X132571428Y-85142857D01*
X132571428Y-85000000D01*
X132642857Y-84857142D01*
X132714285Y-84785714D01*
X132857142Y-84714285D01*
X133142857Y-84642857D01*
X133500000Y-84642857D01*
X133785714Y-84714285D01*
X133928571Y-84785714D01*
X134000000Y-84857142D01*
X134071428Y-85000000D01*
X133928571Y-86071428D02*
X134000000Y-86142857D01*
X134071428Y-86285714D01*
X134071428Y-86642857D01*
X134000000Y-86785714D01*
X133928571Y-86857142D01*
X133785714Y-86928571D01*
X133642857Y-86928571D01*
X133428571Y-86857142D01*
X132571428Y-86000000D01*
X132571428Y-86928571D01*
X134321428Y-103535714D02*
X134321428Y-104535714D01*
X132821428Y-103892857D01*
X133821428Y-105750000D02*
X132821428Y-105750000D01*
X134392857Y-105392857D02*
X133321428Y-105035714D01*
X133321428Y-105964285D01*
X132821428Y-106535714D02*
X134321428Y-106535714D01*
X133607142Y-106535714D02*
X133607142Y-107392857D01*
X132821428Y-107392857D02*
X134321428Y-107392857D01*
X132964285Y-108964285D02*
X132892857Y-108892857D01*
X132821428Y-108678571D01*
X132821428Y-108535714D01*
X132892857Y-108321428D01*
X133035714Y-108178571D01*
X133178571Y-108107142D01*
X133464285Y-108035714D01*
X133678571Y-108035714D01*
X133964285Y-108107142D01*
X134107142Y-108178571D01*
X134250000Y-108321428D01*
X134321428Y-108535714D01*
X134321428Y-108678571D01*
X134250000Y-108892857D01*
X134178571Y-108964285D01*
X134321428Y-109392857D02*
X134321428Y-110250000D01*
X132821428Y-109821428D02*
X134321428Y-109821428D01*
X134321428Y-111464285D02*
X134321428Y-110750000D01*
X133607142Y-110678571D01*
X133678571Y-110750000D01*
X133750000Y-110892857D01*
X133750000Y-111250000D01*
X133678571Y-111392857D01*
X133607142Y-111464285D01*
X133464285Y-111535714D01*
X133107142Y-111535714D01*
X132964285Y-111464285D01*
X132892857Y-111392857D01*
X132821428Y-111250000D01*
X132821428Y-110892857D01*
X132892857Y-110750000D01*
X132964285Y-110678571D01*
X134321428Y-112035714D02*
X134321428Y-113035714D01*
X132821428Y-112392857D01*
X134321428Y-113464285D02*
X134321428Y-114392857D01*
X133750000Y-113892857D01*
X133750000Y-114107142D01*
X133678571Y-114250000D01*
X133607142Y-114321428D01*
X133464285Y-114392857D01*
X133107142Y-114392857D01*
X132964285Y-114321428D01*
X132892857Y-114250000D01*
X132821428Y-114107142D01*
X132821428Y-113678571D01*
X132892857Y-113535714D01*
X132964285Y-113464285D01*
D11*
X129238095Y-94452380D02*
X129238095Y-95261904D01*
X129285714Y-95357142D01*
X129333333Y-95404761D01*
X129428571Y-95452380D01*
X129619047Y-95452380D01*
X129714285Y-95404761D01*
X129761904Y-95357142D01*
X129809523Y-95261904D01*
X129809523Y-94452380D01*
X130714285Y-94785714D02*
X130714285Y-95452380D01*
X130476190Y-94404761D02*
X130238095Y-95119047D01*
X130857142Y-95119047D01*
X148733095Y-70247380D02*
X148733095Y-71056904D01*
X148780714Y-71152142D01*
X148828333Y-71199761D01*
X148923571Y-71247380D01*
X149114047Y-71247380D01*
X149209285Y-71199761D01*
X149256904Y-71152142D01*
X149304523Y-71056904D01*
X149304523Y-70247380D01*
X149685476Y-70247380D02*
X150304523Y-70247380D01*
X149971190Y-70628333D01*
X150114047Y-70628333D01*
X150209285Y-70675952D01*
X150256904Y-70723571D01*
X150304523Y-70818809D01*
X150304523Y-71056904D01*
X150256904Y-71152142D01*
X150209285Y-71199761D01*
X150114047Y-71247380D01*
X149828333Y-71247380D01*
X149733095Y-71199761D01*
X149685476Y-71152142D01*
X128738095Y-72372380D02*
X128738095Y-73181904D01*
X128785714Y-73277142D01*
X128833333Y-73324761D01*
X128928571Y-73372380D01*
X129119047Y-73372380D01*
X129214285Y-73324761D01*
X129261904Y-73277142D01*
X129309523Y-73181904D01*
X129309523Y-72372380D01*
X129738095Y-72467619D02*
X129785714Y-72420000D01*
X129880952Y-72372380D01*
X130119047Y-72372380D01*
X130214285Y-72420000D01*
X130261904Y-72467619D01*
X130309523Y-72562857D01*
X130309523Y-72658095D01*
X130261904Y-72800952D01*
X129690476Y-73372380D01*
X130309523Y-73372380D01*
X116358095Y-70372380D02*
X116358095Y-71181904D01*
X116405714Y-71277142D01*
X116453333Y-71324761D01*
X116548571Y-71372380D01*
X116739047Y-71372380D01*
X116834285Y-71324761D01*
X116881904Y-71277142D01*
X116929523Y-71181904D01*
X116929523Y-70372380D01*
X117929523Y-71372380D02*
X117358095Y-71372380D01*
X117643809Y-71372380D02*
X117643809Y-70372380D01*
X117548571Y-70515238D01*
X117453333Y-70610476D01*
X117358095Y-70658095D01*
X148352380Y-128133333D02*
X149066666Y-128133333D01*
X149209523Y-128180952D01*
X149304761Y-128276190D01*
X149352380Y-128419047D01*
X149352380Y-128514285D01*
X149352380Y-127133333D02*
X149352380Y-127704761D01*
X149352380Y-127419047D02*
X148352380Y-127419047D01*
X148495238Y-127514285D01*
X148590476Y-127609523D01*
X148638095Y-127704761D01*
X147333333Y-86607142D02*
X147285714Y-86654761D01*
X147142857Y-86702380D01*
X147047619Y-86702380D01*
X146904761Y-86654761D01*
X146809523Y-86559523D01*
X146761904Y-86464285D01*
X146714285Y-86273809D01*
X146714285Y-86130952D01*
X146761904Y-85940476D01*
X146809523Y-85845238D01*
X146904761Y-85750000D01*
X147047619Y-85702380D01*
X147142857Y-85702380D01*
X147285714Y-85750000D01*
X147333333Y-85797619D01*
X147666666Y-85702380D02*
X148285714Y-85702380D01*
X147952380Y-86083333D01*
X148095238Y-86083333D01*
X148190476Y-86130952D01*
X148238095Y-86178571D01*
X148285714Y-86273809D01*
X148285714Y-86511904D01*
X148238095Y-86607142D01*
X148190476Y-86654761D01*
X148095238Y-86702380D01*
X147809523Y-86702380D01*
X147714285Y-86654761D01*
X147666666Y-86607142D01*
X133133333Y-94507142D02*
X133085714Y-94554761D01*
X132942857Y-94602380D01*
X132847619Y-94602380D01*
X132704761Y-94554761D01*
X132609523Y-94459523D01*
X132561904Y-94364285D01*
X132514285Y-94173809D01*
X132514285Y-94030952D01*
X132561904Y-93840476D01*
X132609523Y-93745238D01*
X132704761Y-93650000D01*
X132847619Y-93602380D01*
X132942857Y-93602380D01*
X133085714Y-93650000D01*
X133133333Y-93697619D01*
X134085714Y-94602380D02*
X133514285Y-94602380D01*
X133800000Y-94602380D02*
X133800000Y-93602380D01*
X133704761Y-93745238D01*
X133609523Y-93840476D01*
X133514285Y-93888095D01*
X132698333Y-72732142D02*
X132650714Y-72779761D01*
X132507857Y-72827380D01*
X132412619Y-72827380D01*
X132269761Y-72779761D01*
X132174523Y-72684523D01*
X132126904Y-72589285D01*
X132079285Y-72398809D01*
X132079285Y-72255952D01*
X132126904Y-72065476D01*
X132174523Y-71970238D01*
X132269761Y-71875000D01*
X132412619Y-71827380D01*
X132507857Y-71827380D01*
X132650714Y-71875000D01*
X132698333Y-71922619D01*
X133079285Y-71922619D02*
X133126904Y-71875000D01*
X133222142Y-71827380D01*
X133460238Y-71827380D01*
X133555476Y-71875000D01*
X133603095Y-71922619D01*
X133650714Y-72017857D01*
X133650714Y-72113095D01*
X133603095Y-72255952D01*
X133031666Y-72827380D01*
X133650714Y-72827380D01*
X167671666Y-70557380D02*
X167671666Y-71271666D01*
X167624047Y-71414523D01*
X167528809Y-71509761D01*
X167385952Y-71557380D01*
X167290714Y-71557380D01*
X168052619Y-70557380D02*
X168671666Y-70557380D01*
X168338333Y-70938333D01*
X168481190Y-70938333D01*
X168576428Y-70985952D01*
X168624047Y-71033571D01*
X168671666Y-71128809D01*
X168671666Y-71366904D01*
X168624047Y-71462142D01*
X168576428Y-71509761D01*
X168481190Y-71557380D01*
X168195476Y-71557380D01*
X168100238Y-71509761D01*
X168052619Y-71462142D01*
X152362380Y-105246666D02*
X151886190Y-105580000D01*
X152362380Y-105818095D02*
X151362380Y-105818095D01*
X151362380Y-105437142D01*
X151410000Y-105341904D01*
X151457619Y-105294285D01*
X151552857Y-105246666D01*
X151695714Y-105246666D01*
X151790952Y-105294285D01*
X151838571Y-105341904D01*
X151886190Y-105437142D01*
X151886190Y-105818095D01*
X151457619Y-104865714D02*
X151410000Y-104818095D01*
X151362380Y-104722857D01*
X151362380Y-104484761D01*
X151410000Y-104389523D01*
X151457619Y-104341904D01*
X151552857Y-104294285D01*
X151648095Y-104294285D01*
X151790952Y-104341904D01*
X152362380Y-104913333D01*
X152362380Y-104294285D01*
X152602380Y-81666666D02*
X152126190Y-82000000D01*
X152602380Y-82238095D02*
X151602380Y-82238095D01*
X151602380Y-81857142D01*
X151650000Y-81761904D01*
X151697619Y-81714285D01*
X151792857Y-81666666D01*
X151935714Y-81666666D01*
X152030952Y-81714285D01*
X152078571Y-81761904D01*
X152126190Y-81857142D01*
X152126190Y-82238095D01*
X152602380Y-80714285D02*
X152602380Y-81285714D01*
X152602380Y-81000000D02*
X151602380Y-81000000D01*
X151745238Y-81095238D01*
X151840476Y-81190476D01*
X151888095Y-81285714D01*
X146952380Y-105166666D02*
X146476190Y-105500000D01*
X146952380Y-105738095D02*
X145952380Y-105738095D01*
X145952380Y-105357142D01*
X146000000Y-105261904D01*
X146047619Y-105214285D01*
X146142857Y-105166666D01*
X146285714Y-105166666D01*
X146380952Y-105214285D01*
X146428571Y-105261904D01*
X146476190Y-105357142D01*
X146476190Y-105738095D01*
X145952380Y-104833333D02*
X145952380Y-104214285D01*
X146333333Y-104547619D01*
X146333333Y-104404761D01*
X146380952Y-104309523D01*
X146428571Y-104261904D01*
X146523809Y-104214285D01*
X146761904Y-104214285D01*
X146857142Y-104261904D01*
X146904761Y-104309523D01*
X146952380Y-104404761D01*
X146952380Y-104690476D01*
X146904761Y-104785714D01*
X146857142Y-104833333D01*
X163577380Y-128333333D02*
X164291666Y-128333333D01*
X164434523Y-128380952D01*
X164529761Y-128476190D01*
X164577380Y-128619047D01*
X164577380Y-128714285D01*
X163672619Y-127904761D02*
X163625000Y-127857142D01*
X163577380Y-127761904D01*
X163577380Y-127523809D01*
X163625000Y-127428571D01*
X163672619Y-127380952D01*
X163767857Y-127333333D01*
X163863095Y-127333333D01*
X164005952Y-127380952D01*
X164577380Y-127952380D01*
X164577380Y-127333333D01*
D12*
X128570000Y-96010000D02*
X128570000Y-121650000D01*
X131060000Y-96070000D02*
X131060000Y-121590000D01*
X131060000Y-121590000D02*
X136360000Y-121590000D01*
X138850000Y-96010000D02*
X128570000Y-96010000D01*
X132710000Y-96070000D02*
X131060000Y-96070000D01*
X128570000Y-121650000D02*
X138850000Y-121650000D01*
X138850000Y-121650000D02*
X138850000Y-96010000D01*
X136360000Y-121590000D02*
X136360000Y-96070000D01*
X136360000Y-96070000D02*
X134710000Y-96070000D01*
X132710000Y-96070000D02*
G75*
G03*
X134710000Y-96070000I1000000J0D01*
G01*
X155955000Y-71795000D02*
X150495000Y-71795000D01*
X140545000Y-71735000D02*
X140545000Y-122775000D01*
X143035000Y-71795000D02*
X143035000Y-122715000D01*
X158445000Y-122775000D02*
X158445000Y-71735000D01*
X155955000Y-122715000D02*
X155955000Y-71795000D01*
X143035000Y-122715000D02*
X155955000Y-122715000D01*
X140545000Y-122775000D02*
X158445000Y-122775000D01*
X158445000Y-71735000D02*
X140545000Y-71735000D01*
X148495000Y-71795000D02*
X143035000Y-71795000D01*
X148495000Y-71795000D02*
G75*
G03*
X150495000Y-71795000I1000000J0D01*
G01*
X138700000Y-73860000D02*
X128420000Y-73860000D01*
X138700000Y-91880000D02*
X138700000Y-73860000D01*
X128420000Y-91880000D02*
X138700000Y-91880000D01*
X136210000Y-73920000D02*
X134560000Y-73920000D01*
X130910000Y-73920000D02*
X130910000Y-91820000D01*
X130910000Y-91820000D02*
X136210000Y-91820000D01*
X132560000Y-73920000D02*
X130910000Y-73920000D01*
X128420000Y-73860000D02*
X128420000Y-91880000D01*
X136210000Y-91820000D02*
X136210000Y-73920000D01*
X132560000Y-73920000D02*
G75*
G03*
X134560000Y-73920000I1000000J0D01*
G01*
X123580000Y-71920000D02*
X118120000Y-71920000D01*
X108170000Y-71860000D02*
X108170000Y-122900000D01*
X110660000Y-71920000D02*
X110660000Y-122840000D01*
X126070000Y-122900000D02*
X126070000Y-71860000D01*
X123580000Y-122840000D02*
X123580000Y-71920000D01*
X110660000Y-122840000D02*
X123580000Y-122840000D01*
X108170000Y-122900000D02*
X126070000Y-122900000D01*
X126070000Y-71860000D02*
X108170000Y-71860000D01*
X116120000Y-71920000D02*
X110660000Y-71920000D01*
X116120000Y-71920000D02*
G75*
G03*
X118120000Y-71920000I1000000J0D01*
G01*
X139235000Y-125967929D02*
X139235000Y-126365000D01*
X146675000Y-129025000D02*
X146675000Y-135025000D01*
X146855000Y-126035000D02*
X146855000Y-126365000D01*
X142665000Y-126365000D02*
X142665000Y-129025000D01*
X127365000Y-126365000D02*
X127365000Y-129025000D01*
X138475000Y-125967929D02*
X138475000Y-126365000D01*
X141015000Y-125967929D02*
X141015000Y-126365000D01*
X146195000Y-129025000D02*
X146195000Y-135025000D01*
X143555000Y-125967929D02*
X143555000Y-126365000D01*
X133395000Y-135025000D02*
X133395000Y-129025000D01*
X146315000Y-129025000D02*
X146315000Y-135025000D01*
X137585000Y-126365000D02*
X137585000Y-129025000D01*
X146855000Y-129025000D02*
X146855000Y-135025000D01*
X144315000Y-129025000D02*
X144315000Y-135025000D01*
X141775000Y-135025000D02*
X141015000Y-135025000D01*
X146555000Y-129025000D02*
X146555000Y-135025000D01*
X132505000Y-126365000D02*
X132505000Y-129025000D01*
X141775000Y-125967929D02*
X141775000Y-126365000D01*
X147805000Y-126365000D02*
X127365000Y-126365000D01*
X143555000Y-135025000D02*
X143555000Y-129025000D01*
X144315000Y-125967929D02*
X144315000Y-126365000D01*
X146095000Y-126035000D02*
X146095000Y-126365000D01*
X139235000Y-135025000D02*
X138475000Y-135025000D01*
X130855000Y-125967929D02*
X130855000Y-126365000D01*
X140125000Y-126365000D02*
X140125000Y-129025000D01*
X141015000Y-135025000D02*
X141015000Y-129025000D01*
X131615000Y-129025000D02*
X131615000Y-135025000D01*
X129075000Y-125967929D02*
X129075000Y-126365000D01*
X141775000Y-129025000D02*
X141775000Y-135025000D01*
X135935000Y-125967929D02*
X135935000Y-126365000D01*
X129075000Y-129025000D02*
X129075000Y-135025000D01*
X134155000Y-135025000D02*
X133395000Y-135025000D01*
X145205000Y-126365000D02*
X145205000Y-129025000D01*
X136695000Y-135025000D02*
X135935000Y-135025000D01*
X146795000Y-129025000D02*
X146795000Y-135025000D01*
X128315000Y-125967929D02*
X128315000Y-126365000D01*
X147745000Y-123655000D02*
X147745000Y-124925000D01*
X144315000Y-135025000D02*
X143555000Y-135025000D01*
X139235000Y-129025000D02*
X139235000Y-135025000D01*
X134155000Y-125967929D02*
X134155000Y-126365000D01*
X146435000Y-129025000D02*
X146435000Y-135025000D01*
X135045000Y-126365000D02*
X135045000Y-129025000D01*
X146855000Y-135025000D02*
X146095000Y-135025000D01*
X146095000Y-135025000D02*
X146095000Y-129025000D01*
X127365000Y-129025000D02*
X147805000Y-129025000D01*
X131615000Y-135025000D02*
X130855000Y-135025000D01*
X129075000Y-135025000D02*
X128315000Y-135025000D01*
X147805000Y-129025000D02*
X147805000Y-126365000D01*
X138475000Y-135025000D02*
X138475000Y-129025000D01*
X146475000Y-123655000D02*
X147745000Y-123655000D01*
X130855000Y-135025000D02*
X130855000Y-129025000D01*
X131615000Y-125967929D02*
X131615000Y-126365000D01*
X136695000Y-125967929D02*
X136695000Y-126365000D01*
X129965000Y-126365000D02*
X129965000Y-129025000D01*
X133395000Y-125967929D02*
X133395000Y-126365000D01*
X134155000Y-129025000D02*
X134155000Y-135025000D01*
X136695000Y-129025000D02*
X136695000Y-135025000D01*
X135935000Y-135025000D02*
X135935000Y-129025000D01*
X128315000Y-135025000D02*
X128315000Y-129025000D01*
X146871000Y-89170000D02*
X148129000Y-89170000D01*
X146871000Y-87330000D02*
X148129000Y-87330000D01*
X137429000Y-95320000D02*
X136171000Y-95320000D01*
X137429000Y-93480000D02*
X136171000Y-93480000D01*
X137129000Y-71330000D02*
X135871000Y-71330000D01*
X137129000Y-73170000D02*
X135871000Y-73170000D01*
X163392929Y-91535000D02*
X163847071Y-91535000D01*
X165932929Y-113635000D02*
X166330000Y-113635000D01*
X168990000Y-85695000D02*
X174990000Y-85695000D01*
X165932929Y-75535000D02*
X166330000Y-75535000D01*
X174990000Y-99155000D02*
X168990000Y-99155000D01*
X165932929Y-101695000D02*
X166330000Y-101695000D01*
X165932929Y-83915000D02*
X166330000Y-83915000D01*
X174990000Y-85695000D02*
X174990000Y-86455000D01*
X166330000Y-97505000D02*
X168990000Y-97505000D01*
X161080000Y-72105000D02*
X162350000Y-72105000D01*
X168990000Y-108555000D02*
X174990000Y-108555000D01*
X165932929Y-118715000D02*
X166330000Y-118715000D01*
X174990000Y-90775000D02*
X174990000Y-91535000D01*
X163392929Y-108555000D02*
X163847071Y-108555000D01*
X166330000Y-89885000D02*
X168990000Y-89885000D01*
X174990000Y-88995000D02*
X168990000Y-88995000D01*
X168990000Y-95855000D02*
X174990000Y-95855000D01*
X166330000Y-77185000D02*
X168990000Y-77185000D01*
X163392929Y-116935000D02*
X163847071Y-116935000D01*
X163392929Y-93315000D02*
X163847071Y-93315000D01*
X174990000Y-111095000D02*
X174990000Y-111855000D01*
X165932929Y-116175000D02*
X166330000Y-116175000D01*
X165932929Y-93315000D02*
X166330000Y-93315000D01*
X168990000Y-72995000D02*
X174990000Y-72995000D01*
X163392929Y-106775000D02*
X163847071Y-106775000D01*
X174990000Y-88235000D02*
X174990000Y-88995000D01*
X166330000Y-102585000D02*
X168990000Y-102585000D01*
X174990000Y-103475000D02*
X174990000Y-104235000D01*
X165932929Y-72995000D02*
X166330000Y-72995000D01*
X165932929Y-83155000D02*
X166330000Y-83155000D01*
X174990000Y-72995000D02*
X174990000Y-73755000D01*
X166330000Y-79725000D02*
X168990000Y-79725000D01*
X163392929Y-104235000D02*
X163847071Y-104235000D01*
X174990000Y-98395000D02*
X174990000Y-99155000D01*
X165932929Y-111855000D02*
X166330000Y-111855000D01*
X166330000Y-92425000D02*
X168990000Y-92425000D01*
X168990000Y-122965000D02*
X168990000Y-72045000D01*
X163392929Y-116175000D02*
X163847071Y-116175000D01*
X165932929Y-78835000D02*
X166330000Y-78835000D01*
X163392929Y-86455000D02*
X163847071Y-86455000D01*
X163392929Y-76295000D02*
X163847071Y-76295000D01*
X168990000Y-83155000D02*
X174990000Y-83155000D01*
X168990000Y-80615000D02*
X174990000Y-80615000D01*
X168990000Y-73535000D02*
X174990000Y-73535000D01*
X165932929Y-73755000D02*
X166330000Y-73755000D01*
X166330000Y-82265000D02*
X168990000Y-82265000D01*
X163392929Y-88995000D02*
X163847071Y-88995000D01*
X166330000Y-105125000D02*
X168990000Y-105125000D01*
X174990000Y-118715000D02*
X174990000Y-119475000D01*
X166330000Y-115285000D02*
X168990000Y-115285000D01*
X165932929Y-88995000D02*
X166330000Y-88995000D01*
X166330000Y-107665000D02*
X168990000Y-107665000D01*
X163392929Y-113635000D02*
X163847071Y-113635000D01*
X174990000Y-113635000D02*
X174990000Y-114395000D01*
X163392929Y-85695000D02*
X163847071Y-85695000D01*
X163392929Y-103475000D02*
X163847071Y-103475000D01*
X165932929Y-99155000D02*
X166330000Y-99155000D01*
X174990000Y-122015000D02*
X168990000Y-122015000D01*
X163392929Y-95855000D02*
X163847071Y-95855000D01*
X165932929Y-106015000D02*
X166330000Y-106015000D01*
X174990000Y-94075000D02*
X168990000Y-94075000D01*
X168990000Y-73415000D02*
X174990000Y-73415000D01*
X165932929Y-95855000D02*
X166330000Y-95855000D01*
X168990000Y-88235000D02*
X174990000Y-88235000D01*
X163392929Y-75535000D02*
X163847071Y-75535000D01*
X174990000Y-91535000D02*
X168990000Y-91535000D01*
X165932929Y-114395000D02*
X166330000Y-114395000D01*
X165932929Y-116935000D02*
X166330000Y-116935000D01*
X163392929Y-80615000D02*
X163847071Y-80615000D01*
X174990000Y-119475000D02*
X168990000Y-119475000D01*
X165932929Y-81375000D02*
X166330000Y-81375000D01*
X163392929Y-88235000D02*
X163847071Y-88235000D01*
X166330000Y-74645000D02*
X168990000Y-74645000D01*
X165932929Y-96615000D02*
X166330000Y-96615000D01*
X165932929Y-108555000D02*
X166330000Y-108555000D01*
X163392929Y-111095000D02*
X163847071Y-111095000D01*
X166330000Y-94965000D02*
X168990000Y-94965000D01*
X163392929Y-109315000D02*
X163847071Y-109315000D01*
X174990000Y-95855000D02*
X174990000Y-96615000D01*
X163392929Y-78075000D02*
X163847071Y-78075000D01*
X174990000Y-86455000D02*
X168990000Y-86455000D01*
X174990000Y-114395000D02*
X168990000Y-114395000D01*
X165932929Y-121255000D02*
X166330000Y-121255000D01*
X161080000Y-73375000D02*
X161080000Y-72105000D01*
X168990000Y-73655000D02*
X174990000Y-73655000D01*
X174990000Y-116935000D02*
X168990000Y-116935000D01*
X166330000Y-120365000D02*
X168990000Y-120365000D01*
X166330000Y-122965000D02*
X168990000Y-122965000D01*
X165932929Y-88235000D02*
X166330000Y-88235000D01*
X165932929Y-100935000D02*
X166330000Y-100935000D01*
X165932929Y-111095000D02*
X166330000Y-111095000D01*
X174990000Y-106775000D02*
X168990000Y-106775000D01*
X163392929Y-100935000D02*
X163847071Y-100935000D01*
X174990000Y-76295000D02*
X168990000Y-76295000D01*
X174990000Y-78835000D02*
X168990000Y-78835000D01*
X174990000Y-83915000D02*
X168990000Y-83915000D01*
X174990000Y-83155000D02*
X174990000Y-83915000D01*
X166330000Y-112745000D02*
X168990000Y-112745000D01*
X165932929Y-86455000D02*
X166330000Y-86455000D01*
X163392929Y-101695000D02*
X163847071Y-101695000D01*
X174990000Y-100935000D02*
X174990000Y-101695000D01*
X163392929Y-99155000D02*
X163847071Y-99155000D01*
X168990000Y-118715000D02*
X174990000Y-118715000D01*
X174990000Y-93315000D02*
X174990000Y-94075000D01*
X165932929Y-76295000D02*
X166330000Y-76295000D01*
X163392929Y-121255000D02*
X163847071Y-121255000D01*
X174990000Y-101695000D02*
X168990000Y-101695000D01*
X165932929Y-103475000D02*
X166330000Y-103475000D01*
X174990000Y-121255000D02*
X174990000Y-122015000D01*
X163392929Y-96615000D02*
X163847071Y-96615000D01*
X168990000Y-90775000D02*
X174990000Y-90775000D01*
X165932929Y-98395000D02*
X166330000Y-98395000D01*
X163460000Y-73755000D02*
X163847071Y-73755000D01*
X163392929Y-111855000D02*
X163847071Y-111855000D01*
X174990000Y-73755000D02*
X168990000Y-73755000D01*
X168990000Y-93315000D02*
X174990000Y-93315000D01*
X174990000Y-75535000D02*
X174990000Y-76295000D01*
X165932929Y-78075000D02*
X166330000Y-78075000D01*
X163392929Y-83155000D02*
X163847071Y-83155000D01*
X163392929Y-114395000D02*
X163847071Y-114395000D01*
X163392929Y-81375000D02*
X163847071Y-81375000D01*
X163392929Y-118715000D02*
X163847071Y-118715000D01*
X165932929Y-90775000D02*
X166330000Y-90775000D01*
X168990000Y-116175000D02*
X174990000Y-116175000D01*
X166330000Y-100045000D02*
X168990000Y-100045000D01*
X165932929Y-109315000D02*
X166330000Y-109315000D01*
X166330000Y-110205000D02*
X168990000Y-110205000D01*
X168990000Y-106015000D02*
X174990000Y-106015000D01*
X163392929Y-122015000D02*
X163847071Y-122015000D01*
X163392929Y-106015000D02*
X163847071Y-106015000D01*
X165932929Y-104235000D02*
X166330000Y-104235000D01*
X168990000Y-121255000D02*
X174990000Y-121255000D01*
X168990000Y-78075000D02*
X174990000Y-78075000D01*
X165932929Y-119475000D02*
X166330000Y-119475000D01*
X168990000Y-73055000D02*
X174990000Y-73055000D01*
X166330000Y-87345000D02*
X168990000Y-87345000D01*
X168990000Y-72045000D02*
X166330000Y-72045000D01*
X163460000Y-72995000D02*
X163847071Y-72995000D01*
X163392929Y-119475000D02*
X163847071Y-119475000D01*
X165932929Y-80615000D02*
X166330000Y-80615000D01*
X168990000Y-111095000D02*
X174990000Y-111095000D01*
X174990000Y-109315000D02*
X168990000Y-109315000D01*
X165932929Y-122015000D02*
X166330000Y-122015000D01*
X168990000Y-113635000D02*
X174990000Y-113635000D01*
X165932929Y-85695000D02*
X166330000Y-85695000D01*
X165932929Y-106775000D02*
X166330000Y-106775000D01*
X163392929Y-94075000D02*
X163847071Y-94075000D01*
X168990000Y-98395000D02*
X174990000Y-98395000D01*
X166330000Y-72045000D02*
X166330000Y-122965000D01*
X163392929Y-98395000D02*
X163847071Y-98395000D01*
X166330000Y-84805000D02*
X168990000Y-84805000D01*
X174990000Y-108555000D02*
X174990000Y-109315000D01*
X174990000Y-81375000D02*
X168990000Y-81375000D01*
X174990000Y-104235000D02*
X168990000Y-104235000D01*
X174990000Y-116175000D02*
X174990000Y-116935000D01*
X163392929Y-78835000D02*
X163847071Y-78835000D01*
X166330000Y-117825000D02*
X168990000Y-117825000D01*
X174990000Y-80615000D02*
X174990000Y-81375000D01*
X163392929Y-83915000D02*
X163847071Y-83915000D01*
X174990000Y-111855000D02*
X168990000Y-111855000D01*
X168990000Y-73295000D02*
X174990000Y-73295000D01*
X168990000Y-73175000D02*
X174990000Y-73175000D01*
X174990000Y-106015000D02*
X174990000Y-106775000D01*
X174990000Y-78075000D02*
X174990000Y-78835000D01*
X163392929Y-90775000D02*
X163847071Y-90775000D01*
X168990000Y-75535000D02*
X174990000Y-75535000D01*
X174990000Y-96615000D02*
X168990000Y-96615000D01*
X165932929Y-91535000D02*
X166330000Y-91535000D01*
X168990000Y-100935000D02*
X174990000Y-100935000D01*
X165932929Y-94075000D02*
X166330000Y-94075000D01*
X168990000Y-103475000D02*
X174990000Y-103475000D01*
X151910000Y-109120000D02*
X151910000Y-108350000D01*
X153280000Y-101810000D02*
X150540000Y-101810000D01*
X151910000Y-101040000D02*
X151910000Y-101810000D01*
X153280000Y-108350000D02*
X153280000Y-101810000D01*
X150540000Y-108350000D02*
X153280000Y-108350000D01*
X150540000Y-101810000D02*
X150540000Y-108350000D01*
X153520000Y-84770000D02*
X153520000Y-78230000D01*
X152150000Y-85540000D02*
X152150000Y-84770000D01*
X150780000Y-84770000D02*
X153520000Y-84770000D01*
X152150000Y-77460000D02*
X152150000Y-78230000D01*
X153520000Y-78230000D02*
X150780000Y-78230000D01*
X150780000Y-78230000D02*
X150780000Y-84770000D01*
X147870000Y-101730000D02*
X145130000Y-101730000D01*
X147870000Y-108270000D02*
X147870000Y-101730000D01*
X145130000Y-108270000D02*
X147870000Y-108270000D01*
X146500000Y-109040000D02*
X146500000Y-108270000D01*
X145130000Y-101730000D02*
X145130000Y-108270000D01*
X146500000Y-100960000D02*
X146500000Y-101730000D01*
X162870000Y-123730000D02*
X162870000Y-125000000D01*
X157790000Y-126440000D02*
X157790000Y-129100000D01*
X150110000Y-129100000D02*
X162930000Y-129100000D01*
X161560000Y-129100000D02*
X161560000Y-135100000D01*
X156140000Y-126042929D02*
X156140000Y-126440000D01*
X153600000Y-135100000D02*
X153600000Y-129100000D01*
X159440000Y-126042929D02*
X159440000Y-126440000D01*
X161980000Y-126110000D02*
X161980000Y-126440000D01*
X161980000Y-135100000D02*
X161220000Y-135100000D01*
X151820000Y-135100000D02*
X151060000Y-135100000D01*
X153600000Y-126042929D02*
X153600000Y-126440000D01*
X161980000Y-129100000D02*
X161980000Y-135100000D01*
X162930000Y-126440000D02*
X150110000Y-126440000D01*
X151060000Y-135100000D02*
X151060000Y-129100000D01*
X156140000Y-135100000D02*
X156140000Y-129100000D01*
X156900000Y-135100000D02*
X156140000Y-135100000D01*
X150110000Y-126440000D02*
X150110000Y-129100000D01*
X161220000Y-126110000D02*
X161220000Y-126440000D01*
X160330000Y-126440000D02*
X160330000Y-129100000D01*
X151060000Y-126042929D02*
X151060000Y-126440000D01*
X155250000Y-126440000D02*
X155250000Y-129100000D01*
X151820000Y-126042929D02*
X151820000Y-126440000D01*
X154360000Y-129100000D02*
X154360000Y-135100000D01*
X159440000Y-129100000D02*
X159440000Y-135100000D01*
X161440000Y-129100000D02*
X161440000Y-135100000D01*
X161800000Y-129100000D02*
X161800000Y-135100000D01*
X161920000Y-129100000D02*
X161920000Y-135100000D01*
X161600000Y-123730000D02*
X162870000Y-123730000D01*
X161680000Y-129100000D02*
X161680000Y-135100000D01*
X151820000Y-129100000D02*
X151820000Y-135100000D01*
X156900000Y-129100000D02*
X156900000Y-135100000D01*
X154360000Y-126042929D02*
X154360000Y-126440000D01*
X161220000Y-135100000D02*
X161220000Y-129100000D01*
X159440000Y-135100000D02*
X158680000Y-135100000D01*
X158680000Y-135100000D02*
X158680000Y-129100000D01*
X154360000Y-135100000D02*
X153600000Y-135100000D01*
X162930000Y-129100000D02*
X162930000Y-126440000D01*
X161320000Y-129100000D02*
X161320000Y-135100000D01*
X152710000Y-126440000D02*
X152710000Y-129100000D01*
X156900000Y-126042929D02*
X156900000Y-126440000D01*
X158680000Y-126042929D02*
X158680000Y-126440000D01*
%LPC*%
D13*
X129900000Y-97400000D03*
D14*
X129900000Y-99940000D03*
X129900000Y-102480000D03*
X129900000Y-105020000D03*
X129900000Y-107560000D03*
X129900000Y-110100000D03*
X129900000Y-112640000D03*
X129900000Y-115180000D03*
X129900000Y-117720000D03*
X129900000Y-120260000D03*
X137520000Y-120260000D03*
X137520000Y-117720000D03*
X137520000Y-115180000D03*
X137520000Y-112640000D03*
X137520000Y-110100000D03*
X137520000Y-107560000D03*
X137520000Y-105020000D03*
X137520000Y-102480000D03*
X137520000Y-99940000D03*
X137520000Y-97400000D03*
D13*
X141875000Y-73125000D03*
D14*
X141875000Y-75665000D03*
X141875000Y-78205000D03*
X141875000Y-80745000D03*
X141875000Y-83285000D03*
X141875000Y-85825000D03*
X141875000Y-88365000D03*
X141875000Y-90905000D03*
X141875000Y-93445000D03*
X141875000Y-95985000D03*
X141875000Y-98525000D03*
X141875000Y-101065000D03*
X141875000Y-103605000D03*
X141875000Y-106145000D03*
X141875000Y-108685000D03*
X141875000Y-111225000D03*
X141875000Y-113765000D03*
X141875000Y-116305000D03*
X141875000Y-118845000D03*
X141875000Y-121385000D03*
X157115000Y-121385000D03*
X157115000Y-118845000D03*
X157115000Y-116305000D03*
X157115000Y-113765000D03*
X157115000Y-111225000D03*
X157115000Y-108685000D03*
X157115000Y-106145000D03*
X157115000Y-103605000D03*
X157115000Y-101065000D03*
X157115000Y-98525000D03*
X157115000Y-95985000D03*
X157115000Y-93445000D03*
X157115000Y-90905000D03*
X157115000Y-88365000D03*
X157115000Y-85825000D03*
X157115000Y-83285000D03*
X157115000Y-80745000D03*
X157115000Y-78205000D03*
X157115000Y-75665000D03*
X157115000Y-73125000D03*
D13*
X129750000Y-75250000D03*
D14*
X129750000Y-77790000D03*
X129750000Y-80330000D03*
X129750000Y-82870000D03*
X129750000Y-85410000D03*
X129750000Y-87950000D03*
X129750000Y-90490000D03*
X137370000Y-90490000D03*
X137370000Y-87950000D03*
X137370000Y-85410000D03*
X137370000Y-82870000D03*
X137370000Y-80330000D03*
X137370000Y-77790000D03*
X137370000Y-75250000D03*
D13*
X109500000Y-73250000D03*
D14*
X109500000Y-75790000D03*
X109500000Y-78330000D03*
X109500000Y-80870000D03*
X109500000Y-83410000D03*
X109500000Y-85950000D03*
X109500000Y-88490000D03*
X109500000Y-91030000D03*
X109500000Y-93570000D03*
X109500000Y-96110000D03*
X109500000Y-98650000D03*
X109500000Y-101190000D03*
X109500000Y-103730000D03*
X109500000Y-106270000D03*
X109500000Y-108810000D03*
X109500000Y-111350000D03*
X109500000Y-113890000D03*
X109500000Y-116430000D03*
X109500000Y-118970000D03*
X109500000Y-121510000D03*
X124740000Y-121510000D03*
X124740000Y-118970000D03*
X124740000Y-116430000D03*
X124740000Y-113890000D03*
X124740000Y-111350000D03*
X124740000Y-108810000D03*
X124740000Y-106270000D03*
X124740000Y-103730000D03*
X124740000Y-101190000D03*
X124740000Y-98650000D03*
X124740000Y-96110000D03*
X124740000Y-93570000D03*
X124740000Y-91030000D03*
X124740000Y-88490000D03*
X124740000Y-85950000D03*
X124740000Y-83410000D03*
X124740000Y-80870000D03*
X124740000Y-78330000D03*
X124740000Y-75790000D03*
X124740000Y-73250000D03*
D15*
X146475000Y-124925000D03*
D16*
X143935000Y-124925000D03*
X141395000Y-124925000D03*
X138855000Y-124925000D03*
X136315000Y-124925000D03*
X133775000Y-124925000D03*
X131235000Y-124925000D03*
X128695000Y-124925000D03*
D17*
X146250000Y-88250000D03*
X148750000Y-88250000D03*
X138050000Y-94400000D03*
X135550000Y-94400000D03*
X137750000Y-72250000D03*
X135250000Y-72250000D03*
D15*
X162350000Y-73375000D03*
D16*
X164890000Y-73375000D03*
X162350000Y-75915000D03*
X164890000Y-75915000D03*
X162350000Y-78455000D03*
X164890000Y-78455000D03*
X162350000Y-80995000D03*
X164890000Y-80995000D03*
X162350000Y-83535000D03*
X164890000Y-83535000D03*
X162350000Y-86075000D03*
X164890000Y-86075000D03*
X162350000Y-88615000D03*
X164890000Y-88615000D03*
X162350000Y-91155000D03*
X164890000Y-91155000D03*
X162350000Y-93695000D03*
X164890000Y-93695000D03*
X162350000Y-96235000D03*
X164890000Y-96235000D03*
X162350000Y-98775000D03*
X164890000Y-98775000D03*
X162350000Y-101315000D03*
X164890000Y-101315000D03*
X162350000Y-103855000D03*
X164890000Y-103855000D03*
X162350000Y-106395000D03*
X164890000Y-106395000D03*
X162350000Y-108935000D03*
X164890000Y-108935000D03*
X162350000Y-111475000D03*
X164890000Y-111475000D03*
X162350000Y-114015000D03*
X164890000Y-114015000D03*
X162350000Y-116555000D03*
X164890000Y-116555000D03*
X162350000Y-119095000D03*
X164890000Y-119095000D03*
X162350000Y-121635000D03*
X164890000Y-121635000D03*
D17*
X151910000Y-100000000D03*
D14*
X151910000Y-110160000D03*
D17*
X152150000Y-86580000D03*
D14*
X152150000Y-76420000D03*
D17*
X146500000Y-99920000D03*
D14*
X146500000Y-110080000D03*
D15*
X161600000Y-125000000D03*
D16*
X159060000Y-125000000D03*
X156520000Y-125000000D03*
X153980000Y-125000000D03*
X151440000Y-125000000D03*
M02*
