M48
; DRILL file {KiCad (7.0.0-0)} date 2023年03月04日 土曜日 11:20:22
; FORMAT={-:-/ absolute / inch / decimal}
; #@! TF.CreationDate,2023-03-04T11:20:22+09:00
; #@! TF.GenerationSoftware,Kicad,Pcbnew,(7.0.0-0)
; #@! TF.FileFunction,MixedPlating,1,2
FMAT,2
INCH
; #@! TA.AperFunction,Plated,PTH,ViaDrill
T1C0.0157
; #@! TA.AperFunction,Plated,PTH,ComponentDrill
T2C0.0315
; #@! TA.AperFunction,Plated,PTH,ComponentDrill
T3C0.0394
%
G90
G05
T1
X4.252Y-2.7559
X4.2913Y-5.0394
X4.4832Y-4.338
X5.0037Y-4.0579
X5.0285Y-3.043
X5.0508Y-3.1149
X5.2168Y-3.4235
X5.2992Y-3.3976
X5.3188Y-3.961
X5.4874Y-3.8344
X5.4997Y-3.2081
X5.4997Y-3.3334
X5.5006Y-4.5998
X5.5361Y-3.7451
X5.6414Y-3.1651
X5.7536Y-4.0205
X5.7947Y-4.0376
X5.8128Y-3.9806
X5.8858Y-5.001
X5.892Y-4.0904
X5.9252Y-4.0241
X5.9444Y-4.0904
X6.0262Y-4.794
X6.0359Y-4.6974
X6.0706Y-3.6671
X6.0884Y-3.8236
X6.2385Y-3.0091
X6.2415Y-4.1346
X6.2528Y-3.2219
X6.2571Y-3.3445
X6.2715Y-3.8931
X6.2975Y-3.9312
X6.3428Y-3.9744
X6.3467Y-4.9979
X6.3653Y-4.3536
X6.372Y-4.0042
X6.3993Y-3.1996
X6.4838Y-3.6983
X6.5736Y-4.8932
X6.6105Y-3.9
X6.6161Y-3.2913
X6.7717Y-5.0197
T2
X4.311Y-2.8839
X4.311Y-2.9839
X4.311Y-3.0839
X4.311Y-3.1839
X4.311Y-3.2839
X4.311Y-3.3839
X4.311Y-3.4839
X4.311Y-3.5839
X4.311Y-3.6839
X4.311Y-3.7839
X4.311Y-3.8839
X4.311Y-3.9839
X4.311Y-4.0839
X4.311Y-4.1839
X4.311Y-4.2839
X4.311Y-4.3839
X4.311Y-4.4839
X4.311Y-4.5839
X4.311Y-4.6839
X4.311Y-4.7839
X4.911Y-2.8839
X4.911Y-2.9839
X4.911Y-3.0839
X4.911Y-3.1839
X4.911Y-3.2839
X4.911Y-3.3839
X4.911Y-3.4839
X4.911Y-3.5839
X4.911Y-3.6839
X4.911Y-3.7839
X4.911Y-3.8839
X4.911Y-3.9839
X4.911Y-4.0839
X4.911Y-4.1839
X4.911Y-4.2839
X4.911Y-4.3839
X4.911Y-4.4839
X4.911Y-4.5839
X4.911Y-4.6839
X4.911Y-4.7839
X5.1083Y-2.9626
X5.1083Y-3.0626
X5.1083Y-3.1626
X5.1083Y-3.2626
X5.1083Y-3.3626
X5.1083Y-3.4626
X5.1083Y-3.5626
X5.1142Y-3.8346
X5.1142Y-3.9346
X5.1142Y-4.0346
X5.1142Y-4.1346
X5.1142Y-4.2346
X5.1142Y-4.3346
X5.1142Y-4.4346
X5.1142Y-4.5346
X5.1142Y-4.6346
X5.1142Y-4.7346
X5.3248Y-2.8445
X5.3366Y-3.7165
X5.4083Y-2.9626
X5.4083Y-3.0626
X5.4083Y-3.1626
X5.4083Y-3.2626
X5.4083Y-3.3626
X5.4083Y-3.4626
X5.4083Y-3.5626
X5.4142Y-3.8346
X5.4142Y-3.9346
X5.4142Y-4.0346
X5.4142Y-4.1346
X5.4142Y-4.2346
X5.4142Y-4.3346
X5.4142Y-4.4346
X5.4142Y-4.5346
X5.4142Y-4.6346
X5.4142Y-4.7346
X5.4232Y-2.8445
X5.435Y-3.7165
X5.5856Y-2.8789
X5.5856Y-2.9789
X5.5856Y-3.0789
X5.5856Y-3.1789
X5.5856Y-3.2789
X5.5856Y-3.3789
X5.5856Y-3.4789
X5.5856Y-3.5789
X5.5856Y-3.6789
X5.5856Y-3.7789
X5.5856Y-3.8789
X5.5856Y-3.9789
X5.5856Y-4.0789
X5.5856Y-4.1789
X5.5856Y-4.2789
X5.5856Y-4.3789
X5.5856Y-4.4789
X5.5856Y-4.5789
X5.5856Y-4.6789
X5.5856Y-4.7789
X5.7579Y-3.4744
X5.7677Y-3.9339
X5.7677Y-4.3339
X5.8563Y-3.4744
X5.9807Y-3.937
X5.9807Y-4.337
X5.9902Y-3.0087
X5.9902Y-3.4087
X6.1856Y-2.8789
X6.1856Y-2.9789
X6.1856Y-3.0789
X6.1856Y-3.1789
X6.1856Y-3.2789
X6.1856Y-3.3789
X6.1856Y-3.4789
X6.1856Y-3.5789
X6.1856Y-3.6789
X6.1856Y-3.7789
X6.1856Y-3.8789
X6.1856Y-3.9789
X6.1856Y-4.0789
X6.1856Y-4.1789
X6.1856Y-4.2789
X6.1856Y-4.3789
X6.1856Y-4.4789
X6.1856Y-4.5789
X6.1856Y-4.6789
X6.1856Y-4.7789
T3
X5.0667Y-4.9183
X5.1667Y-4.9183
X5.2667Y-4.9183
X5.3667Y-4.9183
X5.4667Y-4.9183
X5.5667Y-4.9183
X5.6667Y-4.9183
X5.7667Y-4.9183
X6.0Y-4.9213
X6.1Y-4.9213
X6.2Y-4.9213
X6.3Y-4.9213
X6.4Y-4.9213
X6.45Y-2.85
X6.45Y-2.95
X6.45Y-3.05
X6.45Y-3.15
X6.45Y-3.25
X6.45Y-3.35
X6.45Y-3.45
X6.45Y-3.55
X6.45Y-3.65
X6.45Y-3.75
X6.45Y-3.85
X6.45Y-3.95
X6.45Y-4.05
X6.45Y-4.15
X6.45Y-4.25
X6.45Y-4.35
X6.45Y-4.45
X6.45Y-4.55
X6.45Y-4.65
X6.45Y-4.75
X6.5Y-4.9213
X6.55Y-2.85
X6.55Y-2.95
X6.55Y-3.05
X6.55Y-3.15
X6.55Y-3.25
X6.55Y-3.35
X6.55Y-3.45
X6.55Y-3.55
X6.55Y-3.65
X6.55Y-3.75
X6.55Y-3.85
X6.55Y-3.95
X6.55Y-4.05
X6.55Y-4.15
X6.55Y-4.25
X6.55Y-4.35
X6.55Y-4.45
X6.55Y-4.55
X6.55Y-4.65
X6.55Y-4.75
T0
M30
