G04 #@! TF.GenerationSoftware,KiCad,Pcbnew,(6.0.4-0)*
G04 #@! TF.CreationDate,2022-11-05T16:46:17+09:00*
G04 #@! TF.ProjectId,MC6800-SBC6809E,4d433638-3030-42d5-9342-433638303945,rev?*
G04 #@! TF.SameCoordinates,Original*
G04 #@! TF.FileFunction,Legend,Top*
G04 #@! TF.FilePolarity,Positive*
%FSLAX46Y46*%
G04 Gerber Fmt 4.6, Leading zero omitted, Abs format (unit mm)*
G04 Created by KiCad (PCBNEW (6.0.4-0)) date 2022-11-05 16:46:17*
%MOMM*%
%LPD*%
G01*
G04 APERTURE LIST*
%ADD10C,0.200000*%
%ADD11C,0.150000*%
%ADD12C,0.120000*%
G04 APERTURE END LIST*
D10*
X117966428Y-94124999D02*
X119466428Y-94124999D01*
X118395000Y-94624999D01*
X119466428Y-95124999D01*
X117966428Y-95124999D01*
X118109285Y-96696428D02*
X118037857Y-96624999D01*
X117966428Y-96410714D01*
X117966428Y-96267857D01*
X118037857Y-96053571D01*
X118180714Y-95910714D01*
X118323571Y-95839285D01*
X118609285Y-95767857D01*
X118823571Y-95767857D01*
X119109285Y-95839285D01*
X119252142Y-95910714D01*
X119395000Y-96053571D01*
X119466428Y-96267857D01*
X119466428Y-96410714D01*
X119395000Y-96624999D01*
X119323571Y-96696428D01*
X119466428Y-97982142D02*
X119466428Y-97696428D01*
X119395000Y-97553571D01*
X119323571Y-97482142D01*
X119109285Y-97339285D01*
X118823571Y-97267857D01*
X118252142Y-97267857D01*
X118109285Y-97339285D01*
X118037857Y-97410714D01*
X117966428Y-97553571D01*
X117966428Y-97839285D01*
X118037857Y-97982142D01*
X118109285Y-98053571D01*
X118252142Y-98124999D01*
X118609285Y-98124999D01*
X118752142Y-98053571D01*
X118823571Y-97982142D01*
X118895000Y-97839285D01*
X118895000Y-97553571D01*
X118823571Y-97410714D01*
X118752142Y-97339285D01*
X118609285Y-97267857D01*
X118823571Y-98982142D02*
X118895000Y-98839285D01*
X118966428Y-98767857D01*
X119109285Y-98696428D01*
X119180714Y-98696428D01*
X119323571Y-98767857D01*
X119395000Y-98839285D01*
X119466428Y-98982142D01*
X119466428Y-99267857D01*
X119395000Y-99410714D01*
X119323571Y-99482142D01*
X119180714Y-99553571D01*
X119109285Y-99553571D01*
X118966428Y-99482142D01*
X118895000Y-99410714D01*
X118823571Y-99267857D01*
X118823571Y-98982142D01*
X118752142Y-98839285D01*
X118680714Y-98767857D01*
X118537857Y-98696428D01*
X118252142Y-98696428D01*
X118109285Y-98767857D01*
X118037857Y-98839285D01*
X117966428Y-98982142D01*
X117966428Y-99267857D01*
X118037857Y-99410714D01*
X118109285Y-99482142D01*
X118252142Y-99553571D01*
X118537857Y-99553571D01*
X118680714Y-99482142D01*
X118752142Y-99410714D01*
X118823571Y-99267857D01*
X119466428Y-100482142D02*
X119466428Y-100624999D01*
X119395000Y-100767857D01*
X119323571Y-100839285D01*
X119180714Y-100910714D01*
X118895000Y-100982142D01*
X118537857Y-100982142D01*
X118252142Y-100910714D01*
X118109285Y-100839285D01*
X118037857Y-100767857D01*
X117966428Y-100624999D01*
X117966428Y-100482142D01*
X118037857Y-100339285D01*
X118109285Y-100267857D01*
X118252142Y-100196428D01*
X118537857Y-100124999D01*
X118895000Y-100124999D01*
X119180714Y-100196428D01*
X119323571Y-100267857D01*
X119395000Y-100339285D01*
X119466428Y-100482142D01*
X117966428Y-101696428D02*
X117966428Y-101982142D01*
X118037857Y-102124999D01*
X118109285Y-102196428D01*
X118323571Y-102339285D01*
X118609285Y-102410714D01*
X119180714Y-102410714D01*
X119323571Y-102339285D01*
X119395000Y-102267857D01*
X119466428Y-102124999D01*
X119466428Y-101839285D01*
X119395000Y-101696428D01*
X119323571Y-101624999D01*
X119180714Y-101553571D01*
X118823571Y-101553571D01*
X118680714Y-101624999D01*
X118609285Y-101696428D01*
X118537857Y-101839285D01*
X118537857Y-102124999D01*
X118609285Y-102267857D01*
X118680714Y-102339285D01*
X118823571Y-102410714D01*
X118752142Y-103053571D02*
X118752142Y-103553571D01*
X117966428Y-103767857D02*
X117966428Y-103053571D01*
X119466428Y-103053571D01*
X119466428Y-103767857D01*
X119466428Y-105553571D02*
X119037857Y-105696428D01*
X119466428Y-106339285D02*
X119037857Y-106339285D01*
X118752142Y-106267857D01*
X118537857Y-106196428D01*
X118323571Y-106053571D01*
X118109285Y-105696428D01*
X119109285Y-107267857D02*
X119109285Y-108053571D01*
X119609285Y-107339285D02*
X119323571Y-107267857D01*
X118966428Y-107124999D01*
X118752142Y-107053571D01*
X119109285Y-107696428D02*
X118752142Y-107696428D01*
X118537857Y-107624999D01*
X118323571Y-107482142D01*
X118037857Y-107267857D01*
X119037857Y-108696428D02*
X118680714Y-108839285D01*
X119109285Y-109053571D02*
X118752142Y-109124999D01*
X119037857Y-109482142D02*
X118680714Y-109482142D01*
X118466428Y-109410714D01*
X118252142Y-109196428D01*
X118109285Y-108982142D01*
X119609285Y-110696428D02*
X118037857Y-110696428D01*
X118966428Y-110696428D02*
X118609285Y-111124999D01*
X149466428Y-87053571D02*
X150966428Y-87053571D01*
X149895000Y-87553571D01*
X150966428Y-88053571D01*
X149466428Y-88053571D01*
X149609285Y-89625000D02*
X149537857Y-89553571D01*
X149466428Y-89339285D01*
X149466428Y-89196428D01*
X149537857Y-88982142D01*
X149680714Y-88839285D01*
X149823571Y-88767857D01*
X150109285Y-88696428D01*
X150323571Y-88696428D01*
X150609285Y-88767857D01*
X150752142Y-88839285D01*
X150895000Y-88982142D01*
X150966428Y-89196428D01*
X150966428Y-89339285D01*
X150895000Y-89553571D01*
X150823571Y-89625000D01*
X150966428Y-90910714D02*
X150966428Y-90625000D01*
X150895000Y-90482142D01*
X150823571Y-90410714D01*
X150609285Y-90267857D01*
X150323571Y-90196428D01*
X149752142Y-90196428D01*
X149609285Y-90267857D01*
X149537857Y-90339285D01*
X149466428Y-90482142D01*
X149466428Y-90767857D01*
X149537857Y-90910714D01*
X149609285Y-90982142D01*
X149752142Y-91053571D01*
X150109285Y-91053571D01*
X150252142Y-90982142D01*
X150323571Y-90910714D01*
X150395000Y-90767857D01*
X150395000Y-90482142D01*
X150323571Y-90339285D01*
X150252142Y-90267857D01*
X150109285Y-90196428D01*
X150323571Y-91910714D02*
X150395000Y-91767857D01*
X150466428Y-91696428D01*
X150609285Y-91625000D01*
X150680714Y-91625000D01*
X150823571Y-91696428D01*
X150895000Y-91767857D01*
X150966428Y-91910714D01*
X150966428Y-92196428D01*
X150895000Y-92339285D01*
X150823571Y-92410714D01*
X150680714Y-92482142D01*
X150609285Y-92482142D01*
X150466428Y-92410714D01*
X150395000Y-92339285D01*
X150323571Y-92196428D01*
X150323571Y-91910714D01*
X150252142Y-91767857D01*
X150180714Y-91696428D01*
X150037857Y-91625000D01*
X149752142Y-91625000D01*
X149609285Y-91696428D01*
X149537857Y-91767857D01*
X149466428Y-91910714D01*
X149466428Y-92196428D01*
X149537857Y-92339285D01*
X149609285Y-92410714D01*
X149752142Y-92482142D01*
X150037857Y-92482142D01*
X150180714Y-92410714D01*
X150252142Y-92339285D01*
X150323571Y-92196428D01*
X150966428Y-93410714D02*
X150966428Y-93553571D01*
X150895000Y-93696428D01*
X150823571Y-93767857D01*
X150680714Y-93839285D01*
X150395000Y-93910714D01*
X150037857Y-93910714D01*
X149752142Y-93839285D01*
X149609285Y-93767857D01*
X149537857Y-93696428D01*
X149466428Y-93553571D01*
X149466428Y-93410714D01*
X149537857Y-93267857D01*
X149609285Y-93196428D01*
X149752142Y-93125000D01*
X150037857Y-93053571D01*
X150395000Y-93053571D01*
X150680714Y-93125000D01*
X150823571Y-93196428D01*
X150895000Y-93267857D01*
X150966428Y-93410714D01*
X150966428Y-94839285D02*
X150966428Y-94982142D01*
X150895000Y-95125000D01*
X150823571Y-95196428D01*
X150680714Y-95267857D01*
X150395000Y-95339285D01*
X150037857Y-95339285D01*
X149752142Y-95267857D01*
X149609285Y-95196428D01*
X149537857Y-95125000D01*
X149466428Y-94982142D01*
X149466428Y-94839285D01*
X149537857Y-94696428D01*
X149609285Y-94625000D01*
X149752142Y-94553571D01*
X150037857Y-94482142D01*
X150395000Y-94482142D01*
X150680714Y-94553571D01*
X150823571Y-94625000D01*
X150895000Y-94696428D01*
X150966428Y-94839285D01*
X149466428Y-97125000D02*
X150966428Y-97125000D01*
X149895000Y-97625000D01*
X150966428Y-98125000D01*
X149466428Y-98125000D01*
X149466428Y-98839285D02*
X150966428Y-98839285D01*
X150966428Y-99410714D01*
X150895000Y-99553571D01*
X150823571Y-99625000D01*
X150680714Y-99696428D01*
X150466428Y-99696428D01*
X150323571Y-99625000D01*
X150252142Y-99553571D01*
X150180714Y-99410714D01*
X150180714Y-98839285D01*
X150966428Y-100339285D02*
X149752142Y-100339285D01*
X149609285Y-100410714D01*
X149537857Y-100482142D01*
X149466428Y-100625000D01*
X149466428Y-100910714D01*
X149537857Y-101053571D01*
X149609285Y-101125000D01*
X149752142Y-101196428D01*
X150966428Y-101196428D01*
X134215238Y-92566190D02*
X136215238Y-92566190D01*
X134786666Y-93232857D01*
X136215238Y-93899523D01*
X134215238Y-93899523D01*
X134405714Y-95994761D02*
X134310476Y-95899523D01*
X134215238Y-95613809D01*
X134215238Y-95423333D01*
X134310476Y-95137619D01*
X134500952Y-94947142D01*
X134691428Y-94851904D01*
X135072380Y-94756666D01*
X135358095Y-94756666D01*
X135739047Y-94851904D01*
X135929523Y-94947142D01*
X136120000Y-95137619D01*
X136215238Y-95423333D01*
X136215238Y-95613809D01*
X136120000Y-95899523D01*
X136024761Y-95994761D01*
X136215238Y-97709047D02*
X136215238Y-97328095D01*
X136120000Y-97137619D01*
X136024761Y-97042380D01*
X135739047Y-96851904D01*
X135358095Y-96756666D01*
X134596190Y-96756666D01*
X134405714Y-96851904D01*
X134310476Y-96947142D01*
X134215238Y-97137619D01*
X134215238Y-97518571D01*
X134310476Y-97709047D01*
X134405714Y-97804285D01*
X134596190Y-97899523D01*
X135072380Y-97899523D01*
X135262857Y-97804285D01*
X135358095Y-97709047D01*
X135453333Y-97518571D01*
X135453333Y-97137619D01*
X135358095Y-96947142D01*
X135262857Y-96851904D01*
X135072380Y-96756666D01*
X135358095Y-99042380D02*
X135453333Y-98851904D01*
X135548571Y-98756666D01*
X135739047Y-98661428D01*
X135834285Y-98661428D01*
X136024761Y-98756666D01*
X136120000Y-98851904D01*
X136215238Y-99042380D01*
X136215238Y-99423333D01*
X136120000Y-99613809D01*
X136024761Y-99709047D01*
X135834285Y-99804285D01*
X135739047Y-99804285D01*
X135548571Y-99709047D01*
X135453333Y-99613809D01*
X135358095Y-99423333D01*
X135358095Y-99042380D01*
X135262857Y-98851904D01*
X135167619Y-98756666D01*
X134977142Y-98661428D01*
X134596190Y-98661428D01*
X134405714Y-98756666D01*
X134310476Y-98851904D01*
X134215238Y-99042380D01*
X134215238Y-99423333D01*
X134310476Y-99613809D01*
X134405714Y-99709047D01*
X134596190Y-99804285D01*
X134977142Y-99804285D01*
X135167619Y-99709047D01*
X135262857Y-99613809D01*
X135358095Y-99423333D01*
X136215238Y-101042380D02*
X136215238Y-101232857D01*
X136120000Y-101423333D01*
X136024761Y-101518571D01*
X135834285Y-101613809D01*
X135453333Y-101709047D01*
X134977142Y-101709047D01*
X134596190Y-101613809D01*
X134405714Y-101518571D01*
X134310476Y-101423333D01*
X134215238Y-101232857D01*
X134215238Y-101042380D01*
X134310476Y-100851904D01*
X134405714Y-100756666D01*
X134596190Y-100661428D01*
X134977142Y-100566190D01*
X135453333Y-100566190D01*
X135834285Y-100661428D01*
X136024761Y-100756666D01*
X136120000Y-100851904D01*
X136215238Y-101042380D01*
X136215238Y-102947142D02*
X136215238Y-103137619D01*
X136120000Y-103328095D01*
X136024761Y-103423333D01*
X135834285Y-103518571D01*
X135453333Y-103613809D01*
X134977142Y-103613809D01*
X134596190Y-103518571D01*
X134405714Y-103423333D01*
X134310476Y-103328095D01*
X134215238Y-103137619D01*
X134215238Y-102947142D01*
X134310476Y-102756666D01*
X134405714Y-102661428D01*
X134596190Y-102566190D01*
X134977142Y-102470952D01*
X135453333Y-102470952D01*
X135834285Y-102566190D01*
X136024761Y-102661428D01*
X136120000Y-102756666D01*
X136215238Y-102947142D01*
X135548571Y-105709047D02*
X135548571Y-106470952D01*
X134215238Y-105994761D02*
X135929523Y-105994761D01*
X136120000Y-106090000D01*
X136215238Y-106280476D01*
X136215238Y-106470952D01*
X134215238Y-107423333D02*
X134310476Y-107232857D01*
X134405714Y-107137619D01*
X134596190Y-107042380D01*
X135167619Y-107042380D01*
X135358095Y-107137619D01*
X135453333Y-107232857D01*
X135548571Y-107423333D01*
X135548571Y-107709047D01*
X135453333Y-107899523D01*
X135358095Y-107994761D01*
X135167619Y-108090000D01*
X134596190Y-108090000D01*
X134405714Y-107994761D01*
X134310476Y-107899523D01*
X134215238Y-107709047D01*
X134215238Y-107423333D01*
X134215238Y-108947142D02*
X135548571Y-108947142D01*
X135167619Y-108947142D02*
X135358095Y-109042380D01*
X135453333Y-109137619D01*
X135548571Y-109328095D01*
X135548571Y-109518571D01*
X134310476Y-111613809D02*
X134215238Y-111899523D01*
X134215238Y-112375714D01*
X134310476Y-112566190D01*
X134405714Y-112661428D01*
X134596190Y-112756666D01*
X134786666Y-112756666D01*
X134977142Y-112661428D01*
X135072380Y-112566190D01*
X135167619Y-112375714D01*
X135262857Y-111994761D01*
X135358095Y-111804285D01*
X135453333Y-111709047D01*
X135643809Y-111613809D01*
X135834285Y-111613809D01*
X136024761Y-111709047D01*
X136120000Y-111804285D01*
X136215238Y-111994761D01*
X136215238Y-112470952D01*
X136120000Y-112756666D01*
X135262857Y-114280476D02*
X135167619Y-114566190D01*
X135072380Y-114661428D01*
X134881904Y-114756666D01*
X134596190Y-114756666D01*
X134405714Y-114661428D01*
X134310476Y-114566190D01*
X134215238Y-114375714D01*
X134215238Y-113613809D01*
X136215238Y-113613809D01*
X136215238Y-114280476D01*
X136120000Y-114470952D01*
X136024761Y-114566190D01*
X135834285Y-114661428D01*
X135643809Y-114661428D01*
X135453333Y-114566190D01*
X135358095Y-114470952D01*
X135262857Y-114280476D01*
X135262857Y-113613809D01*
X134405714Y-116756666D02*
X134310476Y-116661428D01*
X134215238Y-116375714D01*
X134215238Y-116185238D01*
X134310476Y-115899523D01*
X134500952Y-115709047D01*
X134691428Y-115613809D01*
X135072380Y-115518571D01*
X135358095Y-115518571D01*
X135739047Y-115613809D01*
X135929523Y-115709047D01*
X136120000Y-115899523D01*
X136215238Y-116185238D01*
X136215238Y-116375714D01*
X136120000Y-116661428D01*
X136024761Y-116756666D01*
X136215238Y-118470952D02*
X136215238Y-118090000D01*
X136120000Y-117899523D01*
X136024761Y-117804285D01*
X135739047Y-117613809D01*
X135358095Y-117518571D01*
X134596190Y-117518571D01*
X134405714Y-117613809D01*
X134310476Y-117709047D01*
X134215238Y-117899523D01*
X134215238Y-118280476D01*
X134310476Y-118470952D01*
X134405714Y-118566190D01*
X134596190Y-118661428D01*
X135072380Y-118661428D01*
X135262857Y-118566190D01*
X135358095Y-118470952D01*
X135453333Y-118280476D01*
X135453333Y-117899523D01*
X135358095Y-117709047D01*
X135262857Y-117613809D01*
X135072380Y-117518571D01*
X135358095Y-119804285D02*
X135453333Y-119613809D01*
X135548571Y-119518571D01*
X135739047Y-119423333D01*
X135834285Y-119423333D01*
X136024761Y-119518571D01*
X136120000Y-119613809D01*
X136215238Y-119804285D01*
X136215238Y-120185238D01*
X136120000Y-120375714D01*
X136024761Y-120470952D01*
X135834285Y-120566190D01*
X135739047Y-120566190D01*
X135548571Y-120470952D01*
X135453333Y-120375714D01*
X135358095Y-120185238D01*
X135358095Y-119804285D01*
X135262857Y-119613809D01*
X135167619Y-119518571D01*
X134977142Y-119423333D01*
X134596190Y-119423333D01*
X134405714Y-119518571D01*
X134310476Y-119613809D01*
X134215238Y-119804285D01*
X134215238Y-120185238D01*
X134310476Y-120375714D01*
X134405714Y-120470952D01*
X134596190Y-120566190D01*
X134977142Y-120566190D01*
X135167619Y-120470952D01*
X135262857Y-120375714D01*
X135358095Y-120185238D01*
X136215238Y-121804285D02*
X136215238Y-121994761D01*
X136120000Y-122185238D01*
X136024761Y-122280476D01*
X135834285Y-122375714D01*
X135453333Y-122470952D01*
X134977142Y-122470952D01*
X134596190Y-122375714D01*
X134405714Y-122280476D01*
X134310476Y-122185238D01*
X134215238Y-121994761D01*
X134215238Y-121804285D01*
X134310476Y-121613809D01*
X134405714Y-121518571D01*
X134596190Y-121423333D01*
X134977142Y-121328095D01*
X135453333Y-121328095D01*
X135834285Y-121423333D01*
X136024761Y-121518571D01*
X136120000Y-121613809D01*
X136215238Y-121804285D01*
X134215238Y-123423333D02*
X134215238Y-123804285D01*
X134310476Y-123994761D01*
X134405714Y-124090000D01*
X134691428Y-124280476D01*
X135072380Y-124375714D01*
X135834285Y-124375714D01*
X136024761Y-124280476D01*
X136120000Y-124185238D01*
X136215238Y-123994761D01*
X136215238Y-123613809D01*
X136120000Y-123423333D01*
X136024761Y-123328095D01*
X135834285Y-123232857D01*
X135358095Y-123232857D01*
X135167619Y-123328095D01*
X135072380Y-123423333D01*
X134977142Y-123613809D01*
X134977142Y-123994761D01*
X135072380Y-124185238D01*
X135167619Y-124280476D01*
X135358095Y-124375714D01*
X135262857Y-125232857D02*
X135262857Y-125899523D01*
X134215238Y-126185238D02*
X134215238Y-125232857D01*
X136215238Y-125232857D01*
X136215238Y-126185238D01*
X130995238Y-98470952D02*
X132995238Y-98470952D01*
X130995238Y-99613809D02*
X132138095Y-98756666D01*
X132995238Y-99613809D02*
X131852380Y-98470952D01*
X132995238Y-100470952D02*
X131376190Y-100470952D01*
X131185714Y-100566190D01*
X131090476Y-100661428D01*
X130995238Y-100851904D01*
X130995238Y-101232857D01*
X131090476Y-101423333D01*
X131185714Y-101518571D01*
X131376190Y-101613809D01*
X132995238Y-101613809D01*
X130995238Y-102566190D02*
X132995238Y-102566190D01*
X130995238Y-103709047D01*
X132995238Y-103709047D01*
X130995238Y-104661428D02*
X132995238Y-104661428D01*
X131757142Y-105613809D02*
X131757142Y-107137619D01*
X130995238Y-108090000D02*
X132995238Y-108090000D01*
X130995238Y-109232857D01*
X132995238Y-109232857D01*
X132042857Y-110185238D02*
X132042857Y-110851904D01*
X130995238Y-111137619D02*
X130995238Y-110185238D01*
X132995238Y-110185238D01*
X132995238Y-111137619D01*
X132995238Y-111709047D02*
X132995238Y-112851904D01*
X130995238Y-112280476D02*
X132995238Y-112280476D01*
X132804761Y-114947142D02*
X132900000Y-115042380D01*
X132995238Y-115232857D01*
X132995238Y-115709047D01*
X132900000Y-115899523D01*
X132804761Y-115994761D01*
X132614285Y-116090000D01*
X132423809Y-116090000D01*
X132138095Y-115994761D01*
X130995238Y-114851904D01*
X130995238Y-116090000D01*
X132995238Y-117328095D02*
X132995238Y-117518571D01*
X132900000Y-117709047D01*
X132804761Y-117804285D01*
X132614285Y-117899523D01*
X132233333Y-117994761D01*
X131757142Y-117994761D01*
X131376190Y-117899523D01*
X131185714Y-117804285D01*
X131090476Y-117709047D01*
X130995238Y-117518571D01*
X130995238Y-117328095D01*
X131090476Y-117137619D01*
X131185714Y-117042380D01*
X131376190Y-116947142D01*
X131757142Y-116851904D01*
X132233333Y-116851904D01*
X132614285Y-116947142D01*
X132804761Y-117042380D01*
X132900000Y-117137619D01*
X132995238Y-117328095D01*
X132804761Y-118756666D02*
X132900000Y-118851904D01*
X132995238Y-119042380D01*
X132995238Y-119518571D01*
X132900000Y-119709047D01*
X132804761Y-119804285D01*
X132614285Y-119899523D01*
X132423809Y-119899523D01*
X132138095Y-119804285D01*
X130995238Y-118661428D01*
X130995238Y-119899523D01*
X132804761Y-120661428D02*
X132900000Y-120756666D01*
X132995238Y-120947142D01*
X132995238Y-121423333D01*
X132900000Y-121613809D01*
X132804761Y-121709047D01*
X132614285Y-121804285D01*
X132423809Y-121804285D01*
X132138095Y-121709047D01*
X130995238Y-120566190D01*
X130995238Y-121804285D01*
X134966428Y-77375000D02*
X134966428Y-78375000D01*
X133466428Y-77732142D01*
X134466428Y-79589285D02*
X133466428Y-79589285D01*
X135037857Y-79232142D02*
X133966428Y-78875000D01*
X133966428Y-79803571D01*
X133466428Y-80375000D02*
X134966428Y-80375000D01*
X134252142Y-80375000D02*
X134252142Y-81232142D01*
X133466428Y-81232142D02*
X134966428Y-81232142D01*
X133609285Y-82803571D02*
X133537857Y-82732142D01*
X133466428Y-82517857D01*
X133466428Y-82375000D01*
X133537857Y-82160714D01*
X133680714Y-82017857D01*
X133823571Y-81946428D01*
X134109285Y-81875000D01*
X134323571Y-81875000D01*
X134609285Y-81946428D01*
X134752142Y-82017857D01*
X134895000Y-82160714D01*
X134966428Y-82375000D01*
X134966428Y-82517857D01*
X134895000Y-82732142D01*
X134823571Y-82803571D01*
X134966428Y-83232142D02*
X134966428Y-84089285D01*
X133466428Y-83660714D02*
X134966428Y-83660714D01*
X134966428Y-84875000D02*
X134966428Y-85017857D01*
X134895000Y-85160714D01*
X134823571Y-85232142D01*
X134680714Y-85303571D01*
X134395000Y-85375000D01*
X134037857Y-85375000D01*
X133752142Y-85303571D01*
X133609285Y-85232142D01*
X133537857Y-85160714D01*
X133466428Y-85017857D01*
X133466428Y-84875000D01*
X133537857Y-84732142D01*
X133609285Y-84660714D01*
X133752142Y-84589285D01*
X134037857Y-84517857D01*
X134395000Y-84517857D01*
X134680714Y-84589285D01*
X134823571Y-84660714D01*
X134895000Y-84732142D01*
X134966428Y-84875000D01*
X134823571Y-85946428D02*
X134895000Y-86017857D01*
X134966428Y-86160714D01*
X134966428Y-86517857D01*
X134895000Y-86660714D01*
X134823571Y-86732142D01*
X134680714Y-86803571D01*
X134537857Y-86803571D01*
X134323571Y-86732142D01*
X133466428Y-85875000D01*
X133466428Y-86803571D01*
D11*
X129883095Y-71077380D02*
X129883095Y-71886904D01*
X129930714Y-71982142D01*
X129978333Y-72029761D01*
X130073571Y-72077380D01*
X130264047Y-72077380D01*
X130359285Y-72029761D01*
X130406904Y-71982142D01*
X130454523Y-71886904D01*
X130454523Y-71077380D01*
X130883095Y-71172619D02*
X130930714Y-71125000D01*
X131025952Y-71077380D01*
X131264047Y-71077380D01*
X131359285Y-71125000D01*
X131406904Y-71172619D01*
X131454523Y-71267857D01*
X131454523Y-71363095D01*
X131406904Y-71505952D01*
X130835476Y-72077380D01*
X131454523Y-72077380D01*
X118103095Y-71297380D02*
X118103095Y-72106904D01*
X118150714Y-72202142D01*
X118198333Y-72249761D01*
X118293571Y-72297380D01*
X118484047Y-72297380D01*
X118579285Y-72249761D01*
X118626904Y-72202142D01*
X118674523Y-72106904D01*
X118674523Y-71297380D01*
X119674523Y-72297380D02*
X119103095Y-72297380D01*
X119388809Y-72297380D02*
X119388809Y-71297380D01*
X119293571Y-71440238D01*
X119198333Y-71535476D01*
X119103095Y-71583095D01*
X138978333Y-98482142D02*
X138930714Y-98529761D01*
X138787857Y-98577380D01*
X138692619Y-98577380D01*
X138549761Y-98529761D01*
X138454523Y-98434523D01*
X138406904Y-98339285D01*
X138359285Y-98148809D01*
X138359285Y-98005952D01*
X138406904Y-97815476D01*
X138454523Y-97720238D01*
X138549761Y-97625000D01*
X138692619Y-97577380D01*
X138787857Y-97577380D01*
X138930714Y-97625000D01*
X138978333Y-97672619D01*
X139311666Y-97577380D02*
X139930714Y-97577380D01*
X139597380Y-97958333D01*
X139740238Y-97958333D01*
X139835476Y-98005952D01*
X139883095Y-98053571D01*
X139930714Y-98148809D01*
X139930714Y-98386904D01*
X139883095Y-98482142D01*
X139835476Y-98529761D01*
X139740238Y-98577380D01*
X139454523Y-98577380D01*
X139359285Y-98529761D01*
X139311666Y-98482142D01*
X140978333Y-70982142D02*
X140930714Y-71029761D01*
X140787857Y-71077380D01*
X140692619Y-71077380D01*
X140549761Y-71029761D01*
X140454523Y-70934523D01*
X140406904Y-70839285D01*
X140359285Y-70648809D01*
X140359285Y-70505952D01*
X140406904Y-70315476D01*
X140454523Y-70220238D01*
X140549761Y-70125000D01*
X140692619Y-70077380D01*
X140787857Y-70077380D01*
X140930714Y-70125000D01*
X140978333Y-70172619D01*
X141359285Y-70172619D02*
X141406904Y-70125000D01*
X141502142Y-70077380D01*
X141740238Y-70077380D01*
X141835476Y-70125000D01*
X141883095Y-70172619D01*
X141930714Y-70267857D01*
X141930714Y-70363095D01*
X141883095Y-70505952D01*
X141311666Y-71077380D01*
X141930714Y-71077380D01*
X149253095Y-71297380D02*
X149253095Y-72106904D01*
X149300714Y-72202142D01*
X149348333Y-72249761D01*
X149443571Y-72297380D01*
X149634047Y-72297380D01*
X149729285Y-72249761D01*
X149776904Y-72202142D01*
X149824523Y-72106904D01*
X149824523Y-71297380D01*
X150205476Y-71297380D02*
X150824523Y-71297380D01*
X150491190Y-71678333D01*
X150634047Y-71678333D01*
X150729285Y-71725952D01*
X150776904Y-71773571D01*
X150824523Y-71868809D01*
X150824523Y-72106904D01*
X150776904Y-72202142D01*
X150729285Y-72249761D01*
X150634047Y-72297380D01*
X150348333Y-72297380D01*
X150253095Y-72249761D01*
X150205476Y-72202142D01*
D12*
X129205000Y-90805000D02*
X139705000Y-90805000D01*
X139705000Y-72785000D02*
X129205000Y-72785000D01*
X132205000Y-72845000D02*
X132205000Y-90745000D01*
X136705000Y-72845000D02*
X135455000Y-72845000D01*
X132205000Y-90745000D02*
X136705000Y-90745000D01*
X133455000Y-72845000D02*
X132205000Y-72845000D01*
X136705000Y-90745000D02*
X136705000Y-72845000D01*
X129205000Y-72785000D02*
X129205000Y-90805000D01*
X139705000Y-90805000D02*
X139705000Y-72785000D01*
X133455000Y-72845000D02*
G75*
G03*
X135455000Y-72845000I1000000J0D01*
G01*
X109805000Y-123825000D02*
X127925000Y-123825000D01*
X112805000Y-72845000D02*
X112805000Y-123765000D01*
X124925000Y-123765000D02*
X124925000Y-72845000D01*
X112805000Y-123765000D02*
X124925000Y-123765000D01*
X124925000Y-72845000D02*
X119865000Y-72845000D01*
X127925000Y-123825000D02*
X127925000Y-72785000D01*
X109805000Y-72785000D02*
X109805000Y-123825000D01*
X127925000Y-72785000D02*
X109805000Y-72785000D01*
X117865000Y-72845000D02*
X112805000Y-72845000D01*
X117865000Y-72845000D02*
G75*
G03*
X119865000Y-72845000I1000000J0D01*
G01*
X138225000Y-93496000D02*
X138225000Y-94754000D01*
X140065000Y-93496000D02*
X140065000Y-94754000D01*
X138274000Y-70205000D02*
X137016000Y-70205000D01*
X138274000Y-72045000D02*
X137016000Y-72045000D01*
X156075000Y-123765000D02*
X156075000Y-72845000D01*
X143955000Y-123765000D02*
X156075000Y-123765000D01*
X140955000Y-72785000D02*
X140955000Y-123825000D01*
X156075000Y-72845000D02*
X151015000Y-72845000D01*
X149015000Y-72845000D02*
X143955000Y-72845000D01*
X159075000Y-123825000D02*
X159075000Y-72785000D01*
X140955000Y-123825000D02*
X159075000Y-123825000D01*
X159075000Y-72785000D02*
X140955000Y-72785000D01*
X143955000Y-72845000D02*
X143955000Y-123765000D01*
X149015000Y-72845000D02*
G75*
G03*
X151015000Y-72845000I1000000J0D01*
G01*
M02*
