G04 #@! TF.GenerationSoftware,KiCad,Pcbnew,(6.0.4-0)*
G04 #@! TF.CreationDate,2022-11-05T16:46:17+09:00*
G04 #@! TF.ProjectId,MC6800-SBC6809E,4d433638-3030-42d5-9342-433638303945,rev?*
G04 #@! TF.SameCoordinates,Original*
G04 #@! TF.FileFunction,Copper,L2,Bot*
G04 #@! TF.FilePolarity,Positive*
%FSLAX46Y46*%
G04 Gerber Fmt 4.6, Leading zero omitted, Abs format (unit mm)*
G04 Created by KiCad (PCBNEW (6.0.4-0)) date 2022-11-05 16:46:17*
%MOMM*%
%LPD*%
G01*
G04 APERTURE LIST*
G04 #@! TA.AperFunction,ComponentPad*
%ADD10R,2.400000X1.600000*%
G04 #@! TD*
G04 #@! TA.AperFunction,ComponentPad*
%ADD11O,2.400000X1.600000*%
G04 #@! TD*
G04 #@! TA.AperFunction,ComponentPad*
%ADD12C,1.600000*%
G04 #@! TD*
G04 #@! TA.AperFunction,Conductor*
%ADD13C,0.250000*%
G04 #@! TD*
G04 APERTURE END LIST*
D10*
X130645000Y-74175000D03*
D11*
X130645000Y-76715000D03*
X130645000Y-79255000D03*
X130645000Y-81795000D03*
X130645000Y-84335000D03*
X130645000Y-86875000D03*
X130645000Y-89415000D03*
X138265000Y-89415000D03*
X138265000Y-86875000D03*
X138265000Y-84335000D03*
X138265000Y-81795000D03*
X138265000Y-79255000D03*
X138265000Y-76715000D03*
X138265000Y-74175000D03*
D10*
X111245000Y-74175000D03*
D11*
X111245000Y-76715000D03*
X111245000Y-79255000D03*
X111245000Y-81795000D03*
X111245000Y-84335000D03*
X111245000Y-86875000D03*
X111245000Y-89415000D03*
X111245000Y-91955000D03*
X111245000Y-94495000D03*
X111245000Y-97035000D03*
X111245000Y-99575000D03*
X111245000Y-102115000D03*
X111245000Y-104655000D03*
X111245000Y-107195000D03*
X111245000Y-109735000D03*
X111245000Y-112275000D03*
X111245000Y-114815000D03*
X111245000Y-117355000D03*
X111245000Y-119895000D03*
X111245000Y-122435000D03*
X126485000Y-122435000D03*
X126485000Y-119895000D03*
X126485000Y-117355000D03*
X126485000Y-114815000D03*
X126485000Y-112275000D03*
X126485000Y-109735000D03*
X126485000Y-107195000D03*
X126485000Y-104655000D03*
X126485000Y-102115000D03*
X126485000Y-99575000D03*
X126485000Y-97035000D03*
X126485000Y-94495000D03*
X126485000Y-91955000D03*
X126485000Y-89415000D03*
X126485000Y-86875000D03*
X126485000Y-84335000D03*
X126485000Y-81795000D03*
X126485000Y-79255000D03*
X126485000Y-76715000D03*
X126485000Y-74175000D03*
D12*
X139145000Y-92875000D03*
X139145000Y-95375000D03*
X138895000Y-71125000D03*
X136395000Y-71125000D03*
D10*
X142395000Y-74175000D03*
D11*
X142395000Y-76715000D03*
X142395000Y-79255000D03*
X142395000Y-81795000D03*
X142395000Y-84335000D03*
X142395000Y-86875000D03*
X142395000Y-89415000D03*
X142395000Y-91955000D03*
X142395000Y-94495000D03*
X142395000Y-97035000D03*
X142395000Y-99575000D03*
X142395000Y-102115000D03*
X142395000Y-104655000D03*
X142395000Y-107195000D03*
X142395000Y-109735000D03*
X142395000Y-112275000D03*
X142395000Y-114815000D03*
X142395000Y-117355000D03*
X142395000Y-119895000D03*
X142395000Y-122435000D03*
X157635000Y-122435000D03*
X157635000Y-119895000D03*
X157635000Y-117355000D03*
X157635000Y-114815000D03*
X157635000Y-112275000D03*
X157635000Y-109735000D03*
X157635000Y-107195000D03*
X157635000Y-104655000D03*
X157635000Y-102115000D03*
X157635000Y-99575000D03*
X157635000Y-97035000D03*
X157635000Y-94495000D03*
X157635000Y-91955000D03*
X157635000Y-89415000D03*
X157635000Y-86875000D03*
X157635000Y-84335000D03*
X157635000Y-81795000D03*
X157635000Y-79255000D03*
X157635000Y-76715000D03*
X157635000Y-74175000D03*
D13*
X114040300Y-90685000D02*
X112770300Y-89415000D01*
X136955000Y-90685000D02*
X114040300Y-90685000D01*
X139145000Y-92875000D02*
X136955000Y-90685000D01*
X111245000Y-89415000D02*
X112770300Y-89415000D01*
X130645000Y-79255000D02*
X129119700Y-79255000D01*
X116580300Y-77985000D02*
X112770300Y-74175000D01*
X127849700Y-77985000D02*
X116580300Y-77985000D01*
X111245000Y-74175000D02*
X112770300Y-74175000D01*
X140869700Y-74175000D02*
X139744400Y-73049700D01*
X138265000Y-79255000D02*
X130645000Y-79255000D01*
X138319700Y-73049700D02*
X136395000Y-71125000D01*
X142395000Y-74175000D02*
X140869700Y-74175000D01*
X139744400Y-73049700D02*
X138319700Y-73049700D01*
X129119700Y-79255000D02*
X127849700Y-77985000D01*
X140869700Y-86875000D02*
X139738400Y-88006300D01*
X112910300Y-80525000D02*
X110523300Y-80525000D01*
X109719700Y-79721400D02*
X109719700Y-76715000D01*
X142395000Y-86875000D02*
X140869700Y-86875000D01*
X111245000Y-76715000D02*
X109719700Y-76715000D01*
X110523300Y-80525000D02*
X109719700Y-79721400D01*
X120391600Y-88006300D02*
X112910300Y-80525000D01*
X139738400Y-88006300D02*
X120391600Y-88006300D01*
X139679100Y-82985600D02*
X116500900Y-82985600D01*
X142395000Y-81795000D02*
X140869700Y-81795000D01*
X111245000Y-79255000D02*
X112770300Y-79255000D01*
X116500900Y-82985600D02*
X112770300Y-79255000D01*
X140869700Y-81795000D02*
X139679100Y-82985600D01*
X116580300Y-95765000D02*
X112770300Y-91955000D01*
X111245000Y-91955000D02*
X112770300Y-91955000D01*
X140869700Y-94495000D02*
X140869700Y-95309400D01*
X132655200Y-95765000D02*
X116580300Y-95765000D01*
X140869700Y-95309400D02*
X139668900Y-96510200D01*
X139668900Y-96510200D02*
X133400400Y-96510200D01*
X142395000Y-94495000D02*
X140869700Y-94495000D01*
X133400400Y-96510200D02*
X132655200Y-95765000D01*
X128241100Y-97485400D02*
X127524000Y-98202500D01*
X142395000Y-97035000D02*
X141944600Y-97485400D01*
X127524000Y-98202500D02*
X116477800Y-98202500D01*
X141944600Y-97485400D02*
X128241100Y-97485400D01*
X116477800Y-98202500D02*
X112770300Y-94495000D01*
X111245000Y-94495000D02*
X112770300Y-94495000D01*
X111245000Y-99575000D02*
X112770300Y-99575000D01*
X127557400Y-103242800D02*
X128685200Y-102115000D01*
X116438100Y-103242800D02*
X127557400Y-103242800D01*
X112770300Y-99575000D02*
X116438100Y-103242800D01*
X128685200Y-102115000D02*
X142395000Y-102115000D01*
X152410700Y-123594000D02*
X113929300Y-123594000D01*
X111245000Y-122435000D02*
X112770300Y-122435000D01*
X113929300Y-123594000D02*
X112770300Y-122435000D01*
X156109700Y-119895000D02*
X152410700Y-123594000D01*
X157635000Y-119895000D02*
X156109700Y-119895000D01*
X157635000Y-117355000D02*
X156109700Y-117355000D01*
X152299700Y-121165000D02*
X129280300Y-121165000D01*
X156109700Y-117355000D02*
X152299700Y-121165000D01*
X126485000Y-122435000D02*
X128010300Y-122435000D01*
X129280300Y-121165000D02*
X128010300Y-122435000D01*
X157635000Y-114815000D02*
X156109700Y-114815000D01*
X156109700Y-114815000D02*
X152299700Y-118625000D01*
X129280300Y-118625000D02*
X128010300Y-119895000D01*
X126485000Y-119895000D02*
X128010300Y-119895000D01*
X152299700Y-118625000D02*
X129280300Y-118625000D01*
X156109700Y-112275000D02*
X152299700Y-116085000D01*
X129280300Y-116085000D02*
X128010300Y-117355000D01*
X152299700Y-116085000D02*
X129280300Y-116085000D01*
X157635000Y-112275000D02*
X156109700Y-112275000D01*
X126485000Y-117355000D02*
X128010300Y-117355000D01*
X156109700Y-109735000D02*
X152299700Y-113545000D01*
X157635000Y-109735000D02*
X156109700Y-109735000D01*
X126485000Y-114815000D02*
X128010300Y-114815000D01*
X129280300Y-113545000D02*
X128010300Y-114815000D01*
X152299700Y-113545000D02*
X129280300Y-113545000D01*
X157635000Y-107195000D02*
X156109700Y-107195000D01*
X126485000Y-112275000D02*
X128010300Y-112275000D01*
X129280300Y-111005000D02*
X128010300Y-112275000D01*
X152299700Y-111005000D02*
X129280300Y-111005000D01*
X156109700Y-107195000D02*
X152299700Y-111005000D01*
X156109700Y-104655000D02*
X152299700Y-108465000D01*
X126485000Y-109735000D02*
X128010300Y-109735000D01*
X152299700Y-108465000D02*
X129280300Y-108465000D01*
X129280300Y-108465000D02*
X128010300Y-109735000D01*
X157635000Y-104655000D02*
X156109700Y-104655000D01*
X156109700Y-102115000D02*
X152299700Y-105925000D01*
X157635000Y-102115000D02*
X156109700Y-102115000D01*
X152299700Y-105925000D02*
X129280300Y-105925000D01*
X129280300Y-105925000D02*
X128010300Y-107195000D01*
X126485000Y-107195000D02*
X128010300Y-107195000D01*
X152299700Y-103385000D02*
X129280300Y-103385000D01*
X126485000Y-104655000D02*
X128010300Y-104655000D01*
X129280300Y-103385000D02*
X128010300Y-104655000D01*
X157635000Y-99575000D02*
X156109700Y-99575000D01*
X156109700Y-99575000D02*
X152299700Y-103385000D01*
X157635000Y-97035000D02*
X156109700Y-97035000D01*
X129280300Y-100845000D02*
X128010300Y-102115000D01*
X126485000Y-102115000D02*
X128010300Y-102115000D01*
X156109700Y-97035000D02*
X152299700Y-100845000D01*
X152299700Y-100845000D02*
X129280300Y-100845000D01*
X126485000Y-99575000D02*
X128010300Y-99575000D01*
X157635000Y-94495000D02*
X156109700Y-94495000D01*
X156109700Y-94495000D02*
X152299700Y-98305000D01*
X152299700Y-98305000D02*
X129280300Y-98305000D01*
X129280300Y-98305000D02*
X128010300Y-99575000D01*
X152299700Y-95765000D02*
X141645100Y-95765000D01*
X156109700Y-91955000D02*
X152299700Y-95765000D01*
X157635000Y-91955000D02*
X156109700Y-91955000D01*
X140375100Y-97035000D02*
X126485000Y-97035000D01*
X141645100Y-95765000D02*
X140375100Y-97035000D01*
X128380300Y-94125000D02*
X128010300Y-94495000D01*
X152444300Y-93080400D02*
X141269800Y-93080400D01*
X157635000Y-89415000D02*
X156109700Y-89415000D01*
X141269800Y-93080400D02*
X140225200Y-94125000D01*
X126485000Y-94495000D02*
X128010300Y-94495000D01*
X156109700Y-89415000D02*
X152444300Y-93080400D01*
X140225200Y-94125000D02*
X128380300Y-94125000D01*
X128300000Y-76715000D02*
X126485000Y-76715000D01*
X129491500Y-77906500D02*
X128300000Y-76715000D01*
X156109700Y-76715000D02*
X154918200Y-77906500D01*
X157635000Y-76715000D02*
X156109700Y-76715000D01*
X154918200Y-77906500D02*
X129491500Y-77906500D01*
X140869700Y-76715000D02*
X139565500Y-75410800D01*
X139565500Y-75410800D02*
X129246100Y-75410800D01*
X129246100Y-75410800D02*
X128010300Y-74175000D01*
X126485000Y-74175000D02*
X128010300Y-74175000D01*
X142395000Y-76715000D02*
X140869700Y-76715000D01*
X133440300Y-80525000D02*
X132170300Y-81795000D01*
X130645000Y-81795000D02*
X132170300Y-81795000D01*
X140869700Y-79255000D02*
X139599700Y-80525000D01*
X142395000Y-79255000D02*
X140869700Y-79255000D01*
X139599700Y-80525000D02*
X133440300Y-80525000D01*
X138265000Y-84335000D02*
X139790300Y-84335000D01*
X130645000Y-86875000D02*
X132170300Y-86875000D01*
X138265000Y-84335000D02*
X134710300Y-84335000D01*
X156109700Y-84335000D02*
X154972600Y-85472100D01*
X140927400Y-85472100D02*
X139790300Y-84335000D01*
X134710300Y-84335000D02*
X132170300Y-86875000D01*
X154972600Y-85472100D02*
X140927400Y-85472100D01*
X157635000Y-84335000D02*
X156109700Y-84335000D01*
G04 #@! TA.AperFunction,Conductor*
G36*
X162433621Y-69020002D02*
G01*
X162480114Y-69073658D01*
X162491500Y-69126000D01*
X162491500Y-126874000D01*
X162471498Y-126942121D01*
X162417842Y-126988614D01*
X162365500Y-127000000D01*
X107126000Y-127000000D01*
X107057879Y-126979998D01*
X107011386Y-126926342D01*
X107000000Y-126874000D01*
X107000000Y-76674906D01*
X109082425Y-76674906D01*
X109085292Y-76720475D01*
X109085951Y-76730951D01*
X109086200Y-76738862D01*
X109086200Y-79642633D01*
X109085673Y-79653816D01*
X109083998Y-79661309D01*
X109084247Y-79669235D01*
X109084247Y-79669236D01*
X109086138Y-79729386D01*
X109086200Y-79733345D01*
X109086200Y-79761256D01*
X109086697Y-79765190D01*
X109086697Y-79765191D01*
X109086705Y-79765256D01*
X109087638Y-79777093D01*
X109089027Y-79821289D01*
X109092610Y-79833621D01*
X109094678Y-79840739D01*
X109098687Y-79860100D01*
X109101226Y-79880197D01*
X109104145Y-79887568D01*
X109104145Y-79887570D01*
X109117504Y-79921312D01*
X109121349Y-79932542D01*
X109133682Y-79974993D01*
X109137715Y-79981812D01*
X109137717Y-79981817D01*
X109143993Y-79992428D01*
X109152688Y-80010176D01*
X109160148Y-80029017D01*
X109164810Y-80035433D01*
X109164810Y-80035434D01*
X109186136Y-80064787D01*
X109192652Y-80074707D01*
X109209311Y-80102875D01*
X109215158Y-80112762D01*
X109229479Y-80127083D01*
X109242319Y-80142116D01*
X109254228Y-80158507D01*
X109260333Y-80163558D01*
X109260338Y-80163563D01*
X109288298Y-80186694D01*
X109297076Y-80194682D01*
X109856853Y-80754459D01*
X109890879Y-80816771D01*
X109885814Y-80887586D01*
X109856853Y-80932649D01*
X109838802Y-80950700D01*
X109707477Y-81138251D01*
X109705154Y-81143233D01*
X109705151Y-81143238D01*
X109623836Y-81317620D01*
X109610716Y-81345757D01*
X109609294Y-81351065D01*
X109609293Y-81351067D01*
X109559972Y-81535135D01*
X109551457Y-81566913D01*
X109531502Y-81795000D01*
X109551457Y-82023087D01*
X109552881Y-82028400D01*
X109552881Y-82028402D01*
X109604710Y-82221827D01*
X109610716Y-82244243D01*
X109613039Y-82249224D01*
X109613039Y-82249225D01*
X109705151Y-82446762D01*
X109705154Y-82446767D01*
X109707477Y-82451749D01*
X109710634Y-82456257D01*
X109811004Y-82599600D01*
X109838802Y-82639300D01*
X110000700Y-82801198D01*
X110005208Y-82804355D01*
X110005211Y-82804357D01*
X110083389Y-82859098D01*
X110188251Y-82932523D01*
X110193233Y-82934846D01*
X110193238Y-82934849D01*
X110227457Y-82950805D01*
X110280742Y-82997722D01*
X110300203Y-83065999D01*
X110279661Y-83133959D01*
X110227457Y-83179195D01*
X110193238Y-83195151D01*
X110193233Y-83195154D01*
X110188251Y-83197477D01*
X110083389Y-83270902D01*
X110005211Y-83325643D01*
X110005208Y-83325645D01*
X110000700Y-83328802D01*
X109838802Y-83490700D01*
X109835645Y-83495208D01*
X109835643Y-83495211D01*
X109818870Y-83519166D01*
X109707477Y-83678251D01*
X109705154Y-83683233D01*
X109705151Y-83683238D01*
X109623256Y-83858865D01*
X109610716Y-83885757D01*
X109609294Y-83891065D01*
X109609293Y-83891067D01*
X109552881Y-84101598D01*
X109551457Y-84106913D01*
X109531502Y-84335000D01*
X109551457Y-84563087D01*
X109610716Y-84784243D01*
X109613039Y-84789224D01*
X109613039Y-84789225D01*
X109705151Y-84986762D01*
X109705154Y-84986767D01*
X109707477Y-84991749D01*
X109780902Y-85096611D01*
X109811004Y-85139600D01*
X109838802Y-85179300D01*
X110000700Y-85341198D01*
X110005208Y-85344355D01*
X110005211Y-85344357D01*
X110083389Y-85399098D01*
X110188251Y-85472523D01*
X110193233Y-85474846D01*
X110193238Y-85474849D01*
X110227457Y-85490805D01*
X110280742Y-85537722D01*
X110300203Y-85605999D01*
X110279661Y-85673959D01*
X110227457Y-85719195D01*
X110193238Y-85735151D01*
X110193233Y-85735154D01*
X110188251Y-85737477D01*
X110083389Y-85810902D01*
X110005211Y-85865643D01*
X110005208Y-85865645D01*
X110000700Y-85868802D01*
X109838802Y-86030700D01*
X109835645Y-86035208D01*
X109835643Y-86035211D01*
X109796878Y-86090574D01*
X109707477Y-86218251D01*
X109705154Y-86223233D01*
X109705151Y-86223238D01*
X109623836Y-86397620D01*
X109610716Y-86425757D01*
X109609294Y-86431064D01*
X109609293Y-86431067D01*
X109603581Y-86452384D01*
X109551457Y-86646913D01*
X109531502Y-86875000D01*
X109551457Y-87103087D01*
X109552880Y-87108399D01*
X109552881Y-87108402D01*
X109604710Y-87301827D01*
X109610716Y-87324243D01*
X109613039Y-87329224D01*
X109613039Y-87329225D01*
X109705151Y-87526762D01*
X109705154Y-87526767D01*
X109707477Y-87531749D01*
X109838802Y-87719300D01*
X110000700Y-87881198D01*
X110005208Y-87884355D01*
X110005211Y-87884357D01*
X110083389Y-87939098D01*
X110188251Y-88012523D01*
X110193233Y-88014846D01*
X110193238Y-88014849D01*
X110227457Y-88030805D01*
X110280742Y-88077722D01*
X110300203Y-88145999D01*
X110279661Y-88213959D01*
X110227457Y-88259195D01*
X110193238Y-88275151D01*
X110193233Y-88275154D01*
X110188251Y-88277477D01*
X110083389Y-88350902D01*
X110005211Y-88405643D01*
X110005208Y-88405645D01*
X110000700Y-88408802D01*
X109838802Y-88570700D01*
X109835645Y-88575208D01*
X109835643Y-88575211D01*
X109786644Y-88645189D01*
X109707477Y-88758251D01*
X109705154Y-88763233D01*
X109705151Y-88763238D01*
X109613039Y-88960775D01*
X109610716Y-88965757D01*
X109551457Y-89186913D01*
X109531502Y-89415000D01*
X109551457Y-89643087D01*
X109610716Y-89864243D01*
X109613039Y-89869224D01*
X109613039Y-89869225D01*
X109705151Y-90066762D01*
X109705154Y-90066767D01*
X109707477Y-90071749D01*
X109710634Y-90076257D01*
X109811004Y-90219600D01*
X109838802Y-90259300D01*
X110000700Y-90421198D01*
X110005208Y-90424355D01*
X110005211Y-90424357D01*
X110083389Y-90479098D01*
X110188251Y-90552523D01*
X110193233Y-90554846D01*
X110193238Y-90554849D01*
X110227457Y-90570805D01*
X110280742Y-90617722D01*
X110300203Y-90685999D01*
X110279661Y-90753959D01*
X110227457Y-90799195D01*
X110193238Y-90815151D01*
X110193233Y-90815154D01*
X110188251Y-90817477D01*
X110104268Y-90876283D01*
X110005211Y-90945643D01*
X110005208Y-90945645D01*
X110000700Y-90948802D01*
X109838802Y-91110700D01*
X109835645Y-91115208D01*
X109835643Y-91115211D01*
X109801792Y-91163556D01*
X109707477Y-91298251D01*
X109705154Y-91303233D01*
X109705151Y-91303238D01*
X109624409Y-91476392D01*
X109610716Y-91505757D01*
X109609294Y-91511065D01*
X109609293Y-91511067D01*
X109573931Y-91643039D01*
X109551457Y-91726913D01*
X109531502Y-91955000D01*
X109551457Y-92183087D01*
X109552881Y-92188400D01*
X109552881Y-92188402D01*
X109562216Y-92223238D01*
X109610716Y-92404243D01*
X109613039Y-92409224D01*
X109613039Y-92409225D01*
X109705151Y-92606762D01*
X109705154Y-92606767D01*
X109707477Y-92611749D01*
X109738891Y-92656612D01*
X109811004Y-92759600D01*
X109838802Y-92799300D01*
X110000700Y-92961198D01*
X110005208Y-92964355D01*
X110005211Y-92964357D01*
X110066653Y-93007379D01*
X110188251Y-93092523D01*
X110193233Y-93094846D01*
X110193238Y-93094849D01*
X110227457Y-93110805D01*
X110280742Y-93157722D01*
X110300203Y-93225999D01*
X110279661Y-93293959D01*
X110227457Y-93339195D01*
X110193238Y-93355151D01*
X110193233Y-93355154D01*
X110188251Y-93357477D01*
X110137151Y-93393258D01*
X110005211Y-93485643D01*
X110005208Y-93485645D01*
X110000700Y-93488802D01*
X109838802Y-93650700D01*
X109835645Y-93655208D01*
X109835643Y-93655211D01*
X109830621Y-93662383D01*
X109707477Y-93838251D01*
X109705154Y-93843233D01*
X109705151Y-93843238D01*
X109624409Y-94016392D01*
X109610716Y-94045757D01*
X109609294Y-94051065D01*
X109609293Y-94051067D01*
X109603581Y-94072384D01*
X109551457Y-94266913D01*
X109531502Y-94495000D01*
X109551457Y-94723087D01*
X109552881Y-94728400D01*
X109552881Y-94728402D01*
X109606254Y-94927589D01*
X109610716Y-94944243D01*
X109613039Y-94949224D01*
X109613039Y-94949225D01*
X109705151Y-95146762D01*
X109705154Y-95146767D01*
X109707477Y-95151749D01*
X109760729Y-95227801D01*
X109811004Y-95299600D01*
X109838802Y-95339300D01*
X110000700Y-95501198D01*
X110005208Y-95504355D01*
X110005211Y-95504357D01*
X110083389Y-95559098D01*
X110188251Y-95632523D01*
X110193233Y-95634846D01*
X110193238Y-95634849D01*
X110227457Y-95650805D01*
X110280742Y-95697722D01*
X110300203Y-95765999D01*
X110279661Y-95833959D01*
X110227457Y-95879195D01*
X110193238Y-95895151D01*
X110193233Y-95895154D01*
X110188251Y-95897477D01*
X110083389Y-95970902D01*
X110005211Y-96025643D01*
X110005208Y-96025645D01*
X110000700Y-96028802D01*
X109838802Y-96190700D01*
X109835645Y-96195208D01*
X109835643Y-96195211D01*
X109799204Y-96247251D01*
X109707477Y-96378251D01*
X109705154Y-96383233D01*
X109705151Y-96383238D01*
X109623836Y-96557620D01*
X109610716Y-96585757D01*
X109609294Y-96591065D01*
X109609293Y-96591067D01*
X109603581Y-96612384D01*
X109551457Y-96806913D01*
X109531502Y-97035000D01*
X109551457Y-97263087D01*
X109610716Y-97484243D01*
X109613039Y-97489224D01*
X109613039Y-97489225D01*
X109705151Y-97686762D01*
X109705154Y-97686767D01*
X109707477Y-97691749D01*
X109710634Y-97696257D01*
X109811004Y-97839600D01*
X109838802Y-97879300D01*
X110000700Y-98041198D01*
X110005208Y-98044355D01*
X110005211Y-98044357D01*
X110083389Y-98099098D01*
X110188251Y-98172523D01*
X110193233Y-98174846D01*
X110193238Y-98174849D01*
X110227457Y-98190805D01*
X110280742Y-98237722D01*
X110300203Y-98305999D01*
X110279661Y-98373959D01*
X110227457Y-98419195D01*
X110193238Y-98435151D01*
X110193233Y-98435154D01*
X110188251Y-98437477D01*
X110083389Y-98510902D01*
X110005211Y-98565643D01*
X110005208Y-98565645D01*
X110000700Y-98568802D01*
X109838802Y-98730700D01*
X109835645Y-98735208D01*
X109835643Y-98735211D01*
X109807691Y-98775131D01*
X109707477Y-98918251D01*
X109705154Y-98923233D01*
X109705151Y-98923238D01*
X109624409Y-99096392D01*
X109610716Y-99125757D01*
X109609294Y-99131065D01*
X109609293Y-99131067D01*
X109603581Y-99152384D01*
X109551457Y-99346913D01*
X109531502Y-99575000D01*
X109551457Y-99803087D01*
X109552881Y-99808400D01*
X109552881Y-99808402D01*
X109605934Y-100006395D01*
X109610716Y-100024243D01*
X109613039Y-100029224D01*
X109613039Y-100029225D01*
X109705151Y-100226762D01*
X109705154Y-100226767D01*
X109707477Y-100231749D01*
X109743033Y-100282528D01*
X109811004Y-100379600D01*
X109838802Y-100419300D01*
X110000700Y-100581198D01*
X110005208Y-100584355D01*
X110005211Y-100584357D01*
X110083389Y-100639098D01*
X110188251Y-100712523D01*
X110193233Y-100714846D01*
X110193238Y-100714849D01*
X110227457Y-100730805D01*
X110280742Y-100777722D01*
X110300203Y-100845999D01*
X110279661Y-100913959D01*
X110227457Y-100959195D01*
X110193238Y-100975151D01*
X110193233Y-100975154D01*
X110188251Y-100977477D01*
X110083389Y-101050902D01*
X110005211Y-101105643D01*
X110005208Y-101105645D01*
X110000700Y-101108802D01*
X109838802Y-101270700D01*
X109707477Y-101458251D01*
X109705154Y-101463233D01*
X109705151Y-101463238D01*
X109623836Y-101637620D01*
X109610716Y-101665757D01*
X109609294Y-101671065D01*
X109609293Y-101671067D01*
X109603581Y-101692384D01*
X109551457Y-101886913D01*
X109531502Y-102115000D01*
X109551457Y-102343087D01*
X109610716Y-102564243D01*
X109613039Y-102569224D01*
X109613039Y-102569225D01*
X109705151Y-102766762D01*
X109705154Y-102766767D01*
X109707477Y-102771749D01*
X109745078Y-102825448D01*
X109811004Y-102919600D01*
X109838802Y-102959300D01*
X110000700Y-103121198D01*
X110005208Y-103124355D01*
X110005211Y-103124357D01*
X110083389Y-103179098D01*
X110188251Y-103252523D01*
X110193233Y-103254846D01*
X110193238Y-103254849D01*
X110227457Y-103270805D01*
X110280742Y-103317722D01*
X110300203Y-103385999D01*
X110279661Y-103453959D01*
X110227457Y-103499195D01*
X110193238Y-103515151D01*
X110193233Y-103515154D01*
X110188251Y-103517477D01*
X110083389Y-103590902D01*
X110005211Y-103645643D01*
X110005208Y-103645645D01*
X110000700Y-103648802D01*
X109838802Y-103810700D01*
X109835645Y-103815208D01*
X109835643Y-103815211D01*
X109790086Y-103880274D01*
X109707477Y-103998251D01*
X109705154Y-104003233D01*
X109705151Y-104003238D01*
X109623836Y-104177620D01*
X109610716Y-104205757D01*
X109609294Y-104211065D01*
X109609293Y-104211067D01*
X109603581Y-104232384D01*
X109551457Y-104426913D01*
X109531502Y-104655000D01*
X109551457Y-104883087D01*
X109552881Y-104888400D01*
X109552881Y-104888402D01*
X109605934Y-105086395D01*
X109610716Y-105104243D01*
X109613039Y-105109224D01*
X109613039Y-105109225D01*
X109705151Y-105306762D01*
X109705154Y-105306767D01*
X109707477Y-105311749D01*
X109743033Y-105362528D01*
X109811004Y-105459600D01*
X109838802Y-105499300D01*
X110000700Y-105661198D01*
X110005208Y-105664355D01*
X110005211Y-105664357D01*
X110083389Y-105719098D01*
X110188251Y-105792523D01*
X110193233Y-105794846D01*
X110193238Y-105794849D01*
X110227457Y-105810805D01*
X110280742Y-105857722D01*
X110300203Y-105925999D01*
X110279661Y-105993959D01*
X110227457Y-106039195D01*
X110193238Y-106055151D01*
X110193233Y-106055154D01*
X110188251Y-106057477D01*
X110083389Y-106130902D01*
X110005211Y-106185643D01*
X110005208Y-106185645D01*
X110000700Y-106188802D01*
X109838802Y-106350700D01*
X109707477Y-106538251D01*
X109705154Y-106543233D01*
X109705151Y-106543238D01*
X109623836Y-106717620D01*
X109610716Y-106745757D01*
X109609294Y-106751065D01*
X109609293Y-106751067D01*
X109603581Y-106772384D01*
X109551457Y-106966913D01*
X109531502Y-107195000D01*
X109551457Y-107423087D01*
X109552881Y-107428400D01*
X109552881Y-107428402D01*
X109605934Y-107626395D01*
X109610716Y-107644243D01*
X109613039Y-107649224D01*
X109613039Y-107649225D01*
X109705151Y-107846762D01*
X109705154Y-107846767D01*
X109707477Y-107851749D01*
X109743033Y-107902528D01*
X109811004Y-107999600D01*
X109838802Y-108039300D01*
X110000700Y-108201198D01*
X110005208Y-108204355D01*
X110005211Y-108204357D01*
X110083389Y-108259098D01*
X110188251Y-108332523D01*
X110193233Y-108334846D01*
X110193238Y-108334849D01*
X110227457Y-108350805D01*
X110280742Y-108397722D01*
X110300203Y-108465999D01*
X110279661Y-108533959D01*
X110227457Y-108579195D01*
X110193238Y-108595151D01*
X110193233Y-108595154D01*
X110188251Y-108597477D01*
X110083389Y-108670902D01*
X110005211Y-108725643D01*
X110005208Y-108725645D01*
X110000700Y-108728802D01*
X109838802Y-108890700D01*
X109707477Y-109078251D01*
X109705154Y-109083233D01*
X109705151Y-109083238D01*
X109623836Y-109257620D01*
X109610716Y-109285757D01*
X109609294Y-109291065D01*
X109609293Y-109291067D01*
X109603581Y-109312384D01*
X109551457Y-109506913D01*
X109531502Y-109735000D01*
X109551457Y-109963087D01*
X109552881Y-109968400D01*
X109552881Y-109968402D01*
X109605934Y-110166395D01*
X109610716Y-110184243D01*
X109613039Y-110189224D01*
X109613039Y-110189225D01*
X109705151Y-110386762D01*
X109705154Y-110386767D01*
X109707477Y-110391749D01*
X109743033Y-110442528D01*
X109811004Y-110539600D01*
X109838802Y-110579300D01*
X110000700Y-110741198D01*
X110005208Y-110744355D01*
X110005211Y-110744357D01*
X110083389Y-110799098D01*
X110188251Y-110872523D01*
X110193233Y-110874846D01*
X110193238Y-110874849D01*
X110227457Y-110890805D01*
X110280742Y-110937722D01*
X110300203Y-111005999D01*
X110279661Y-111073959D01*
X110227457Y-111119195D01*
X110193238Y-111135151D01*
X110193233Y-111135154D01*
X110188251Y-111137477D01*
X110083389Y-111210902D01*
X110005211Y-111265643D01*
X110005208Y-111265645D01*
X110000700Y-111268802D01*
X109838802Y-111430700D01*
X109707477Y-111618251D01*
X109705154Y-111623233D01*
X109705151Y-111623238D01*
X109623836Y-111797620D01*
X109610716Y-111825757D01*
X109609294Y-111831065D01*
X109609293Y-111831067D01*
X109603581Y-111852384D01*
X109551457Y-112046913D01*
X109531502Y-112275000D01*
X109551457Y-112503087D01*
X109552881Y-112508400D01*
X109552881Y-112508402D01*
X109605934Y-112706395D01*
X109610716Y-112724243D01*
X109613039Y-112729224D01*
X109613039Y-112729225D01*
X109705151Y-112926762D01*
X109705154Y-112926767D01*
X109707477Y-112931749D01*
X109743033Y-112982528D01*
X109811004Y-113079600D01*
X109838802Y-113119300D01*
X110000700Y-113281198D01*
X110005208Y-113284355D01*
X110005211Y-113284357D01*
X110083389Y-113339098D01*
X110188251Y-113412523D01*
X110193233Y-113414846D01*
X110193238Y-113414849D01*
X110227457Y-113430805D01*
X110280742Y-113477722D01*
X110300203Y-113545999D01*
X110279661Y-113613959D01*
X110227457Y-113659195D01*
X110193238Y-113675151D01*
X110193233Y-113675154D01*
X110188251Y-113677477D01*
X110083389Y-113750902D01*
X110005211Y-113805643D01*
X110005208Y-113805645D01*
X110000700Y-113808802D01*
X109838802Y-113970700D01*
X109707477Y-114158251D01*
X109705154Y-114163233D01*
X109705151Y-114163238D01*
X109623836Y-114337620D01*
X109610716Y-114365757D01*
X109609294Y-114371065D01*
X109609293Y-114371067D01*
X109603581Y-114392384D01*
X109551457Y-114586913D01*
X109531502Y-114815000D01*
X109551457Y-115043087D01*
X109552881Y-115048400D01*
X109552881Y-115048402D01*
X109605934Y-115246395D01*
X109610716Y-115264243D01*
X109613039Y-115269224D01*
X109613039Y-115269225D01*
X109705151Y-115466762D01*
X109705154Y-115466767D01*
X109707477Y-115471749D01*
X109743033Y-115522528D01*
X109811004Y-115619600D01*
X109838802Y-115659300D01*
X110000700Y-115821198D01*
X110005208Y-115824355D01*
X110005211Y-115824357D01*
X110083389Y-115879098D01*
X110188251Y-115952523D01*
X110193233Y-115954846D01*
X110193238Y-115954849D01*
X110227457Y-115970805D01*
X110280742Y-116017722D01*
X110300203Y-116085999D01*
X110279661Y-116153959D01*
X110227457Y-116199195D01*
X110193238Y-116215151D01*
X110193233Y-116215154D01*
X110188251Y-116217477D01*
X110083389Y-116290902D01*
X110005211Y-116345643D01*
X110005208Y-116345645D01*
X110000700Y-116348802D01*
X109838802Y-116510700D01*
X109707477Y-116698251D01*
X109705154Y-116703233D01*
X109705151Y-116703238D01*
X109623836Y-116877620D01*
X109610716Y-116905757D01*
X109609294Y-116911065D01*
X109609293Y-116911067D01*
X109603581Y-116932384D01*
X109551457Y-117126913D01*
X109531502Y-117355000D01*
X109551457Y-117583087D01*
X109552881Y-117588400D01*
X109552881Y-117588402D01*
X109605934Y-117786395D01*
X109610716Y-117804243D01*
X109613039Y-117809224D01*
X109613039Y-117809225D01*
X109705151Y-118006762D01*
X109705154Y-118006767D01*
X109707477Y-118011749D01*
X109743033Y-118062528D01*
X109811004Y-118159600D01*
X109838802Y-118199300D01*
X110000700Y-118361198D01*
X110005208Y-118364355D01*
X110005211Y-118364357D01*
X110083389Y-118419098D01*
X110188251Y-118492523D01*
X110193233Y-118494846D01*
X110193238Y-118494849D01*
X110227457Y-118510805D01*
X110280742Y-118557722D01*
X110300203Y-118625999D01*
X110279661Y-118693959D01*
X110227457Y-118739195D01*
X110193238Y-118755151D01*
X110193233Y-118755154D01*
X110188251Y-118757477D01*
X110083389Y-118830902D01*
X110005211Y-118885643D01*
X110005208Y-118885645D01*
X110000700Y-118888802D01*
X109838802Y-119050700D01*
X109707477Y-119238251D01*
X109705154Y-119243233D01*
X109705151Y-119243238D01*
X109623836Y-119417620D01*
X109610716Y-119445757D01*
X109609294Y-119451065D01*
X109609293Y-119451067D01*
X109603581Y-119472384D01*
X109551457Y-119666913D01*
X109531502Y-119895000D01*
X109551457Y-120123087D01*
X109552881Y-120128400D01*
X109552881Y-120128402D01*
X109605934Y-120326395D01*
X109610716Y-120344243D01*
X109613039Y-120349224D01*
X109613039Y-120349225D01*
X109705151Y-120546762D01*
X109705154Y-120546767D01*
X109707477Y-120551749D01*
X109838802Y-120739300D01*
X110000700Y-120901198D01*
X110005208Y-120904355D01*
X110005211Y-120904357D01*
X110083389Y-120959098D01*
X110188251Y-121032523D01*
X110193233Y-121034846D01*
X110193238Y-121034849D01*
X110227457Y-121050805D01*
X110280742Y-121097722D01*
X110300203Y-121165999D01*
X110279661Y-121233959D01*
X110227457Y-121279195D01*
X110193238Y-121295151D01*
X110193233Y-121295154D01*
X110188251Y-121297477D01*
X110083389Y-121370902D01*
X110005211Y-121425643D01*
X110005208Y-121425645D01*
X110000700Y-121428802D01*
X109838802Y-121590700D01*
X109707477Y-121778251D01*
X109705154Y-121783233D01*
X109705151Y-121783238D01*
X109624409Y-121956392D01*
X109610716Y-121985757D01*
X109551457Y-122206913D01*
X109531502Y-122435000D01*
X109551457Y-122663087D01*
X109552881Y-122668400D01*
X109552881Y-122668402D01*
X109604710Y-122861827D01*
X109610716Y-122884243D01*
X109613039Y-122889224D01*
X109613039Y-122889225D01*
X109705151Y-123086762D01*
X109705154Y-123086767D01*
X109707477Y-123091749D01*
X109710634Y-123096257D01*
X109811004Y-123239600D01*
X109838802Y-123279300D01*
X110000700Y-123441198D01*
X110005208Y-123444355D01*
X110005211Y-123444357D01*
X110083389Y-123499098D01*
X110188251Y-123572523D01*
X110193233Y-123574846D01*
X110193238Y-123574849D01*
X110389765Y-123666490D01*
X110395757Y-123669284D01*
X110401065Y-123670706D01*
X110401067Y-123670707D01*
X110611598Y-123727119D01*
X110611600Y-123727119D01*
X110616913Y-123728543D01*
X110715120Y-123737135D01*
X110785149Y-123743262D01*
X110785156Y-123743262D01*
X110787873Y-123743500D01*
X111702127Y-123743500D01*
X111704844Y-123743262D01*
X111704851Y-123743262D01*
X111774880Y-123737135D01*
X111873087Y-123728543D01*
X111878400Y-123727119D01*
X111878402Y-123727119D01*
X112088933Y-123670707D01*
X112088935Y-123670706D01*
X112094243Y-123669284D01*
X112100235Y-123666490D01*
X112296762Y-123574849D01*
X112296767Y-123574846D01*
X112301749Y-123572523D01*
X112406611Y-123499098D01*
X112484789Y-123444357D01*
X112484792Y-123444355D01*
X112489300Y-123441198D01*
X112595852Y-123334646D01*
X112658164Y-123300620D01*
X112728979Y-123305685D01*
X112774042Y-123334646D01*
X113425643Y-123986247D01*
X113433187Y-123994537D01*
X113437300Y-124001018D01*
X113443077Y-124006443D01*
X113486967Y-124047658D01*
X113489809Y-124050413D01*
X113509531Y-124070135D01*
X113512655Y-124072558D01*
X113512659Y-124072562D01*
X113512724Y-124072612D01*
X113521745Y-124080317D01*
X113553979Y-124110586D01*
X113560927Y-124114405D01*
X113560929Y-124114407D01*
X113571732Y-124120346D01*
X113588259Y-124131202D01*
X113597998Y-124138757D01*
X113598000Y-124138758D01*
X113604260Y-124143614D01*
X113644840Y-124161174D01*
X113655488Y-124166391D01*
X113680276Y-124180018D01*
X113694240Y-124187695D01*
X113701916Y-124189666D01*
X113701919Y-124189667D01*
X113713862Y-124192733D01*
X113732567Y-124199137D01*
X113751155Y-124207181D01*
X113758978Y-124208420D01*
X113758988Y-124208423D01*
X113794824Y-124214099D01*
X113806444Y-124216505D01*
X113838259Y-124224673D01*
X113849270Y-124227500D01*
X113869524Y-124227500D01*
X113889234Y-124229051D01*
X113909243Y-124232220D01*
X113917135Y-124231474D01*
X113935880Y-124229702D01*
X113953262Y-124228059D01*
X113965119Y-124227500D01*
X152331933Y-124227500D01*
X152343116Y-124228027D01*
X152350609Y-124229702D01*
X152358535Y-124229453D01*
X152358536Y-124229453D01*
X152418686Y-124227562D01*
X152422645Y-124227500D01*
X152450556Y-124227500D01*
X152454491Y-124227003D01*
X152454556Y-124226995D01*
X152466393Y-124226062D01*
X152498651Y-124225048D01*
X152502670Y-124224922D01*
X152510589Y-124224673D01*
X152530043Y-124219021D01*
X152549400Y-124215013D01*
X152561630Y-124213468D01*
X152561631Y-124213468D01*
X152569497Y-124212474D01*
X152576868Y-124209555D01*
X152576870Y-124209555D01*
X152610612Y-124196196D01*
X152621842Y-124192351D01*
X152656683Y-124182229D01*
X152656684Y-124182229D01*
X152664293Y-124180018D01*
X152671112Y-124175985D01*
X152671117Y-124175983D01*
X152681728Y-124169707D01*
X152699476Y-124161012D01*
X152718317Y-124153552D01*
X152754087Y-124127564D01*
X152764007Y-124121048D01*
X152795235Y-124102580D01*
X152795238Y-124102578D01*
X152802062Y-124098542D01*
X152816383Y-124084221D01*
X152831417Y-124071380D01*
X152833131Y-124070135D01*
X152847807Y-124059472D01*
X152875998Y-124025395D01*
X152883988Y-124016616D01*
X154199082Y-122701522D01*
X155952273Y-122701522D01*
X155999764Y-122878761D01*
X156003510Y-122889053D01*
X156095586Y-123086511D01*
X156101069Y-123096007D01*
X156226028Y-123274467D01*
X156233084Y-123282875D01*
X156387125Y-123436916D01*
X156395533Y-123443972D01*
X156573993Y-123568931D01*
X156583489Y-123574414D01*
X156780947Y-123666490D01*
X156791239Y-123670236D01*
X157001688Y-123726625D01*
X157012481Y-123728528D01*
X157175170Y-123742762D01*
X157180635Y-123743000D01*
X157362885Y-123743000D01*
X157378124Y-123738525D01*
X157379329Y-123737135D01*
X157381000Y-123729452D01*
X157381000Y-123724885D01*
X157889000Y-123724885D01*
X157893475Y-123740124D01*
X157894865Y-123741329D01*
X157902548Y-123743000D01*
X158089365Y-123743000D01*
X158094830Y-123742762D01*
X158257519Y-123728528D01*
X158268312Y-123726625D01*
X158478761Y-123670236D01*
X158489053Y-123666490D01*
X158686511Y-123574414D01*
X158696007Y-123568931D01*
X158874467Y-123443972D01*
X158882875Y-123436916D01*
X159036916Y-123282875D01*
X159043972Y-123274467D01*
X159168931Y-123096007D01*
X159174414Y-123086511D01*
X159266490Y-122889053D01*
X159270236Y-122878761D01*
X159316394Y-122706497D01*
X159316058Y-122692401D01*
X159308116Y-122689000D01*
X157907115Y-122689000D01*
X157891876Y-122693475D01*
X157890671Y-122694865D01*
X157889000Y-122702548D01*
X157889000Y-123724885D01*
X157381000Y-123724885D01*
X157381000Y-122707115D01*
X157376525Y-122691876D01*
X157375135Y-122690671D01*
X157367452Y-122689000D01*
X155967033Y-122689000D01*
X155953502Y-122692973D01*
X155952273Y-122701522D01*
X154199082Y-122701522D01*
X154471079Y-122429525D01*
X156105960Y-120794645D01*
X156168270Y-120760620D01*
X156239085Y-120765685D01*
X156284148Y-120794646D01*
X156390700Y-120901198D01*
X156395208Y-120904355D01*
X156395211Y-120904357D01*
X156473389Y-120959098D01*
X156578251Y-121032523D01*
X156583233Y-121034846D01*
X156583238Y-121034849D01*
X156618049Y-121051081D01*
X156671334Y-121097998D01*
X156690795Y-121166275D01*
X156670253Y-121234235D01*
X156618049Y-121279471D01*
X156583489Y-121295586D01*
X156573993Y-121301069D01*
X156395533Y-121426028D01*
X156387125Y-121433084D01*
X156233084Y-121587125D01*
X156226028Y-121595533D01*
X156101069Y-121773993D01*
X156095586Y-121783489D01*
X156003510Y-121980947D01*
X155999764Y-121991239D01*
X155953606Y-122163503D01*
X155953942Y-122177599D01*
X155961884Y-122181000D01*
X159302967Y-122181000D01*
X159316498Y-122177027D01*
X159317727Y-122168478D01*
X159270236Y-121991239D01*
X159266490Y-121980947D01*
X159174414Y-121783489D01*
X159168931Y-121773993D01*
X159043972Y-121595533D01*
X159036916Y-121587125D01*
X158882875Y-121433084D01*
X158874467Y-121426028D01*
X158696007Y-121301069D01*
X158686511Y-121295586D01*
X158651951Y-121279471D01*
X158598666Y-121232554D01*
X158579205Y-121164277D01*
X158599747Y-121096317D01*
X158651951Y-121051081D01*
X158686762Y-121034849D01*
X158686767Y-121034846D01*
X158691749Y-121032523D01*
X158796611Y-120959098D01*
X158874789Y-120904357D01*
X158874792Y-120904355D01*
X158879300Y-120901198D01*
X159041198Y-120739300D01*
X159172523Y-120551749D01*
X159174846Y-120546767D01*
X159174849Y-120546762D01*
X159266961Y-120349225D01*
X159266961Y-120349224D01*
X159269284Y-120344243D01*
X159274067Y-120326395D01*
X159327119Y-120128402D01*
X159327119Y-120128400D01*
X159328543Y-120123087D01*
X159348498Y-119895000D01*
X159328543Y-119666913D01*
X159276419Y-119472384D01*
X159270707Y-119451067D01*
X159270706Y-119451065D01*
X159269284Y-119445757D01*
X159256164Y-119417620D01*
X159174849Y-119243238D01*
X159174846Y-119243233D01*
X159172523Y-119238251D01*
X159041198Y-119050700D01*
X158879300Y-118888802D01*
X158874792Y-118885645D01*
X158874789Y-118885643D01*
X158796611Y-118830902D01*
X158691749Y-118757477D01*
X158686767Y-118755154D01*
X158686762Y-118755151D01*
X158652543Y-118739195D01*
X158599258Y-118692278D01*
X158579797Y-118624001D01*
X158600339Y-118556041D01*
X158652543Y-118510805D01*
X158686762Y-118494849D01*
X158686767Y-118494846D01*
X158691749Y-118492523D01*
X158796611Y-118419098D01*
X158874789Y-118364357D01*
X158874792Y-118364355D01*
X158879300Y-118361198D01*
X159041198Y-118199300D01*
X159068997Y-118159600D01*
X159136967Y-118062528D01*
X159172523Y-118011749D01*
X159174846Y-118006767D01*
X159174849Y-118006762D01*
X159266961Y-117809225D01*
X159266961Y-117809224D01*
X159269284Y-117804243D01*
X159274067Y-117786395D01*
X159327119Y-117588402D01*
X159327119Y-117588400D01*
X159328543Y-117583087D01*
X159348498Y-117355000D01*
X159328543Y-117126913D01*
X159276419Y-116932384D01*
X159270707Y-116911067D01*
X159270706Y-116911065D01*
X159269284Y-116905757D01*
X159256164Y-116877620D01*
X159174849Y-116703238D01*
X159174846Y-116703233D01*
X159172523Y-116698251D01*
X159041198Y-116510700D01*
X158879300Y-116348802D01*
X158874792Y-116345645D01*
X158874789Y-116345643D01*
X158796611Y-116290902D01*
X158691749Y-116217477D01*
X158686767Y-116215154D01*
X158686762Y-116215151D01*
X158652543Y-116199195D01*
X158599258Y-116152278D01*
X158579797Y-116084001D01*
X158600339Y-116016041D01*
X158652543Y-115970805D01*
X158686762Y-115954849D01*
X158686767Y-115954846D01*
X158691749Y-115952523D01*
X158796611Y-115879098D01*
X158874789Y-115824357D01*
X158874792Y-115824355D01*
X158879300Y-115821198D01*
X159041198Y-115659300D01*
X159068997Y-115619600D01*
X159136967Y-115522528D01*
X159172523Y-115471749D01*
X159174846Y-115466767D01*
X159174849Y-115466762D01*
X159266961Y-115269225D01*
X159266961Y-115269224D01*
X159269284Y-115264243D01*
X159274067Y-115246395D01*
X159327119Y-115048402D01*
X159327119Y-115048400D01*
X159328543Y-115043087D01*
X159348498Y-114815000D01*
X159328543Y-114586913D01*
X159276419Y-114392384D01*
X159270707Y-114371067D01*
X159270706Y-114371065D01*
X159269284Y-114365757D01*
X159256164Y-114337620D01*
X159174849Y-114163238D01*
X159174846Y-114163233D01*
X159172523Y-114158251D01*
X159041198Y-113970700D01*
X158879300Y-113808802D01*
X158874792Y-113805645D01*
X158874789Y-113805643D01*
X158796611Y-113750902D01*
X158691749Y-113677477D01*
X158686767Y-113675154D01*
X158686762Y-113675151D01*
X158652543Y-113659195D01*
X158599258Y-113612278D01*
X158579797Y-113544001D01*
X158600339Y-113476041D01*
X158652543Y-113430805D01*
X158686762Y-113414849D01*
X158686767Y-113414846D01*
X158691749Y-113412523D01*
X158796611Y-113339098D01*
X158874789Y-113284357D01*
X158874792Y-113284355D01*
X158879300Y-113281198D01*
X159041198Y-113119300D01*
X159068997Y-113079600D01*
X159136967Y-112982528D01*
X159172523Y-112931749D01*
X159174846Y-112926767D01*
X159174849Y-112926762D01*
X159266961Y-112729225D01*
X159266961Y-112729224D01*
X159269284Y-112724243D01*
X159274067Y-112706395D01*
X159327119Y-112508402D01*
X159327119Y-112508400D01*
X159328543Y-112503087D01*
X159348498Y-112275000D01*
X159328543Y-112046913D01*
X159276419Y-111852384D01*
X159270707Y-111831067D01*
X159270706Y-111831065D01*
X159269284Y-111825757D01*
X159256164Y-111797620D01*
X159174849Y-111623238D01*
X159174846Y-111623233D01*
X159172523Y-111618251D01*
X159041198Y-111430700D01*
X158879300Y-111268802D01*
X158874792Y-111265645D01*
X158874789Y-111265643D01*
X158796611Y-111210902D01*
X158691749Y-111137477D01*
X158686767Y-111135154D01*
X158686762Y-111135151D01*
X158652543Y-111119195D01*
X158599258Y-111072278D01*
X158579797Y-111004001D01*
X158600339Y-110936041D01*
X158652543Y-110890805D01*
X158686762Y-110874849D01*
X158686767Y-110874846D01*
X158691749Y-110872523D01*
X158796611Y-110799098D01*
X158874789Y-110744357D01*
X158874792Y-110744355D01*
X158879300Y-110741198D01*
X159041198Y-110579300D01*
X159068997Y-110539600D01*
X159136967Y-110442528D01*
X159172523Y-110391749D01*
X159174846Y-110386767D01*
X159174849Y-110386762D01*
X159266961Y-110189225D01*
X159266961Y-110189224D01*
X159269284Y-110184243D01*
X159274067Y-110166395D01*
X159327119Y-109968402D01*
X159327119Y-109968400D01*
X159328543Y-109963087D01*
X159348498Y-109735000D01*
X159328543Y-109506913D01*
X159276419Y-109312384D01*
X159270707Y-109291067D01*
X159270706Y-109291065D01*
X159269284Y-109285757D01*
X159256164Y-109257620D01*
X159174849Y-109083238D01*
X159174846Y-109083233D01*
X159172523Y-109078251D01*
X159041198Y-108890700D01*
X158879300Y-108728802D01*
X158874792Y-108725645D01*
X158874789Y-108725643D01*
X158796611Y-108670902D01*
X158691749Y-108597477D01*
X158686767Y-108595154D01*
X158686762Y-108595151D01*
X158652543Y-108579195D01*
X158599258Y-108532278D01*
X158579797Y-108464001D01*
X158600339Y-108396041D01*
X158652543Y-108350805D01*
X158686762Y-108334849D01*
X158686767Y-108334846D01*
X158691749Y-108332523D01*
X158796611Y-108259098D01*
X158874789Y-108204357D01*
X158874792Y-108204355D01*
X158879300Y-108201198D01*
X159041198Y-108039300D01*
X159068997Y-107999600D01*
X159136967Y-107902528D01*
X159172523Y-107851749D01*
X159174846Y-107846767D01*
X159174849Y-107846762D01*
X159266961Y-107649225D01*
X159266961Y-107649224D01*
X159269284Y-107644243D01*
X159274067Y-107626395D01*
X159327119Y-107428402D01*
X159327119Y-107428400D01*
X159328543Y-107423087D01*
X159348498Y-107195000D01*
X159328543Y-106966913D01*
X159276419Y-106772384D01*
X159270707Y-106751067D01*
X159270706Y-106751065D01*
X159269284Y-106745757D01*
X159256164Y-106717620D01*
X159174849Y-106543238D01*
X159174846Y-106543233D01*
X159172523Y-106538251D01*
X159041198Y-106350700D01*
X158879300Y-106188802D01*
X158874792Y-106185645D01*
X158874789Y-106185643D01*
X158796611Y-106130902D01*
X158691749Y-106057477D01*
X158686767Y-106055154D01*
X158686762Y-106055151D01*
X158652543Y-106039195D01*
X158599258Y-105992278D01*
X158579797Y-105924001D01*
X158600339Y-105856041D01*
X158652543Y-105810805D01*
X158686762Y-105794849D01*
X158686767Y-105794846D01*
X158691749Y-105792523D01*
X158796611Y-105719098D01*
X158874789Y-105664357D01*
X158874792Y-105664355D01*
X158879300Y-105661198D01*
X159041198Y-105499300D01*
X159068997Y-105459600D01*
X159136967Y-105362528D01*
X159172523Y-105311749D01*
X159174846Y-105306767D01*
X159174849Y-105306762D01*
X159266961Y-105109225D01*
X159266961Y-105109224D01*
X159269284Y-105104243D01*
X159274067Y-105086395D01*
X159327119Y-104888402D01*
X159327119Y-104888400D01*
X159328543Y-104883087D01*
X159348498Y-104655000D01*
X159328543Y-104426913D01*
X159276419Y-104232384D01*
X159270707Y-104211067D01*
X159270706Y-104211065D01*
X159269284Y-104205757D01*
X159256164Y-104177620D01*
X159174849Y-104003238D01*
X159174846Y-104003233D01*
X159172523Y-103998251D01*
X159089914Y-103880274D01*
X159044357Y-103815211D01*
X159044355Y-103815208D01*
X159041198Y-103810700D01*
X158879300Y-103648802D01*
X158874792Y-103645645D01*
X158874789Y-103645643D01*
X158796611Y-103590902D01*
X158691749Y-103517477D01*
X158686767Y-103515154D01*
X158686762Y-103515151D01*
X158652543Y-103499195D01*
X158599258Y-103452278D01*
X158579797Y-103384001D01*
X158600339Y-103316041D01*
X158652543Y-103270805D01*
X158686762Y-103254849D01*
X158686767Y-103254846D01*
X158691749Y-103252523D01*
X158796611Y-103179098D01*
X158874789Y-103124357D01*
X158874792Y-103124355D01*
X158879300Y-103121198D01*
X159041198Y-102959300D01*
X159068997Y-102919600D01*
X159134922Y-102825448D01*
X159172523Y-102771749D01*
X159174846Y-102766767D01*
X159174849Y-102766762D01*
X159266961Y-102569225D01*
X159266961Y-102569224D01*
X159269284Y-102564243D01*
X159328543Y-102343087D01*
X159348498Y-102115000D01*
X159328543Y-101886913D01*
X159276419Y-101692384D01*
X159270707Y-101671067D01*
X159270706Y-101671065D01*
X159269284Y-101665757D01*
X159256164Y-101637620D01*
X159174849Y-101463238D01*
X159174846Y-101463233D01*
X159172523Y-101458251D01*
X159041198Y-101270700D01*
X158879300Y-101108802D01*
X158874792Y-101105645D01*
X158874789Y-101105643D01*
X158796611Y-101050902D01*
X158691749Y-100977477D01*
X158686767Y-100975154D01*
X158686762Y-100975151D01*
X158652543Y-100959195D01*
X158599258Y-100912278D01*
X158579797Y-100844001D01*
X158600339Y-100776041D01*
X158652543Y-100730805D01*
X158686762Y-100714849D01*
X158686767Y-100714846D01*
X158691749Y-100712523D01*
X158796611Y-100639098D01*
X158874789Y-100584357D01*
X158874792Y-100584355D01*
X158879300Y-100581198D01*
X159041198Y-100419300D01*
X159068997Y-100379600D01*
X159136967Y-100282528D01*
X159172523Y-100231749D01*
X159174846Y-100226767D01*
X159174849Y-100226762D01*
X159266961Y-100029225D01*
X159266961Y-100029224D01*
X159269284Y-100024243D01*
X159274067Y-100006395D01*
X159327119Y-99808402D01*
X159327119Y-99808400D01*
X159328543Y-99803087D01*
X159348498Y-99575000D01*
X159328543Y-99346913D01*
X159276419Y-99152384D01*
X159270707Y-99131067D01*
X159270706Y-99131065D01*
X159269284Y-99125757D01*
X159255591Y-99096392D01*
X159174849Y-98923238D01*
X159174846Y-98923233D01*
X159172523Y-98918251D01*
X159072309Y-98775131D01*
X159044357Y-98735211D01*
X159044355Y-98735208D01*
X159041198Y-98730700D01*
X158879300Y-98568802D01*
X158874792Y-98565645D01*
X158874789Y-98565643D01*
X158796611Y-98510902D01*
X158691749Y-98437477D01*
X158686767Y-98435154D01*
X158686762Y-98435151D01*
X158652543Y-98419195D01*
X158599258Y-98372278D01*
X158579797Y-98304001D01*
X158600339Y-98236041D01*
X158652543Y-98190805D01*
X158686762Y-98174849D01*
X158686767Y-98174846D01*
X158691749Y-98172523D01*
X158796611Y-98099098D01*
X158874789Y-98044357D01*
X158874792Y-98044355D01*
X158879300Y-98041198D01*
X159041198Y-97879300D01*
X159068997Y-97839600D01*
X159169366Y-97696257D01*
X159172523Y-97691749D01*
X159174846Y-97686767D01*
X159174849Y-97686762D01*
X159266961Y-97489225D01*
X159266961Y-97489224D01*
X159269284Y-97484243D01*
X159328543Y-97263087D01*
X159348498Y-97035000D01*
X159328543Y-96806913D01*
X159276419Y-96612384D01*
X159270707Y-96591067D01*
X159270706Y-96591065D01*
X159269284Y-96585757D01*
X159256164Y-96557620D01*
X159174849Y-96383238D01*
X159174846Y-96383233D01*
X159172523Y-96378251D01*
X159080796Y-96247251D01*
X159044357Y-96195211D01*
X159044355Y-96195208D01*
X159041198Y-96190700D01*
X158879300Y-96028802D01*
X158874792Y-96025645D01*
X158874789Y-96025643D01*
X158796611Y-95970902D01*
X158691749Y-95897477D01*
X158686767Y-95895154D01*
X158686762Y-95895151D01*
X158652543Y-95879195D01*
X158599258Y-95832278D01*
X158579797Y-95764001D01*
X158600339Y-95696041D01*
X158652543Y-95650805D01*
X158686762Y-95634849D01*
X158686767Y-95634846D01*
X158691749Y-95632523D01*
X158796611Y-95559098D01*
X158874789Y-95504357D01*
X158874792Y-95504355D01*
X158879300Y-95501198D01*
X159041198Y-95339300D01*
X159068997Y-95299600D01*
X159119271Y-95227801D01*
X159172523Y-95151749D01*
X159174846Y-95146767D01*
X159174849Y-95146762D01*
X159266961Y-94949225D01*
X159266961Y-94949224D01*
X159269284Y-94944243D01*
X159273747Y-94927589D01*
X159327119Y-94728402D01*
X159327119Y-94728400D01*
X159328543Y-94723087D01*
X159348498Y-94495000D01*
X159328543Y-94266913D01*
X159276419Y-94072384D01*
X159270707Y-94051067D01*
X159270706Y-94051065D01*
X159269284Y-94045757D01*
X159255591Y-94016392D01*
X159174849Y-93843238D01*
X159174846Y-93843233D01*
X159172523Y-93838251D01*
X159049379Y-93662383D01*
X159044357Y-93655211D01*
X159044355Y-93655208D01*
X159041198Y-93650700D01*
X158879300Y-93488802D01*
X158874792Y-93485645D01*
X158874789Y-93485643D01*
X158742849Y-93393258D01*
X158691749Y-93357477D01*
X158686767Y-93355154D01*
X158686762Y-93355151D01*
X158652543Y-93339195D01*
X158599258Y-93292278D01*
X158579797Y-93224001D01*
X158600339Y-93156041D01*
X158652543Y-93110805D01*
X158686762Y-93094849D01*
X158686767Y-93094846D01*
X158691749Y-93092523D01*
X158813347Y-93007379D01*
X158874789Y-92964357D01*
X158874792Y-92964355D01*
X158879300Y-92961198D01*
X159041198Y-92799300D01*
X159068997Y-92759600D01*
X159141109Y-92656612D01*
X159172523Y-92611749D01*
X159174846Y-92606767D01*
X159174849Y-92606762D01*
X159266961Y-92409225D01*
X159266961Y-92409224D01*
X159269284Y-92404243D01*
X159317785Y-92223238D01*
X159327119Y-92188402D01*
X159327119Y-92188400D01*
X159328543Y-92183087D01*
X159348498Y-91955000D01*
X159328543Y-91726913D01*
X159306069Y-91643039D01*
X159270707Y-91511067D01*
X159270706Y-91511065D01*
X159269284Y-91505757D01*
X159255591Y-91476392D01*
X159174849Y-91303238D01*
X159174846Y-91303233D01*
X159172523Y-91298251D01*
X159078208Y-91163556D01*
X159044357Y-91115211D01*
X159044355Y-91115208D01*
X159041198Y-91110700D01*
X158879300Y-90948802D01*
X158874792Y-90945645D01*
X158874789Y-90945643D01*
X158775732Y-90876283D01*
X158691749Y-90817477D01*
X158686767Y-90815154D01*
X158686762Y-90815151D01*
X158652543Y-90799195D01*
X158599258Y-90752278D01*
X158579797Y-90684001D01*
X158600339Y-90616041D01*
X158652543Y-90570805D01*
X158686762Y-90554849D01*
X158686767Y-90554846D01*
X158691749Y-90552523D01*
X158796611Y-90479098D01*
X158874789Y-90424357D01*
X158874792Y-90424355D01*
X158879300Y-90421198D01*
X159041198Y-90259300D01*
X159068997Y-90219600D01*
X159169366Y-90076257D01*
X159172523Y-90071749D01*
X159174846Y-90066767D01*
X159174849Y-90066762D01*
X159266961Y-89869225D01*
X159266961Y-89869224D01*
X159269284Y-89864243D01*
X159328543Y-89643087D01*
X159348498Y-89415000D01*
X159328543Y-89186913D01*
X159269284Y-88965757D01*
X159266961Y-88960775D01*
X159174849Y-88763238D01*
X159174846Y-88763233D01*
X159172523Y-88758251D01*
X159093356Y-88645189D01*
X159044357Y-88575211D01*
X159044355Y-88575208D01*
X159041198Y-88570700D01*
X158879300Y-88408802D01*
X158874792Y-88405645D01*
X158874789Y-88405643D01*
X158796611Y-88350902D01*
X158691749Y-88277477D01*
X158686767Y-88275154D01*
X158686762Y-88275151D01*
X158652543Y-88259195D01*
X158599258Y-88212278D01*
X158579797Y-88144001D01*
X158600339Y-88076041D01*
X158652543Y-88030805D01*
X158686762Y-88014849D01*
X158686767Y-88014846D01*
X158691749Y-88012523D01*
X158796611Y-87939098D01*
X158874789Y-87884357D01*
X158874792Y-87884355D01*
X158879300Y-87881198D01*
X159041198Y-87719300D01*
X159172523Y-87531749D01*
X159174846Y-87526767D01*
X159174849Y-87526762D01*
X159266961Y-87329225D01*
X159266961Y-87329224D01*
X159269284Y-87324243D01*
X159275291Y-87301827D01*
X159327119Y-87108402D01*
X159327120Y-87108399D01*
X159328543Y-87103087D01*
X159348498Y-86875000D01*
X159328543Y-86646913D01*
X159276419Y-86452384D01*
X159270707Y-86431067D01*
X159270706Y-86431064D01*
X159269284Y-86425757D01*
X159256164Y-86397620D01*
X159174849Y-86223238D01*
X159174846Y-86223233D01*
X159172523Y-86218251D01*
X159083122Y-86090574D01*
X159044357Y-86035211D01*
X159044355Y-86035208D01*
X159041198Y-86030700D01*
X158879300Y-85868802D01*
X158874792Y-85865645D01*
X158874789Y-85865643D01*
X158796611Y-85810902D01*
X158691749Y-85737477D01*
X158686767Y-85735154D01*
X158686762Y-85735151D01*
X158652543Y-85719195D01*
X158599258Y-85672278D01*
X158579797Y-85604001D01*
X158600339Y-85536041D01*
X158652543Y-85490805D01*
X158686762Y-85474849D01*
X158686767Y-85474846D01*
X158691749Y-85472523D01*
X158796611Y-85399098D01*
X158874789Y-85344357D01*
X158874792Y-85344355D01*
X158879300Y-85341198D01*
X159041198Y-85179300D01*
X159068997Y-85139600D01*
X159099098Y-85096611D01*
X159172523Y-84991749D01*
X159174846Y-84986767D01*
X159174849Y-84986762D01*
X159266961Y-84789225D01*
X159266961Y-84789224D01*
X159269284Y-84784243D01*
X159328543Y-84563087D01*
X159348498Y-84335000D01*
X159328543Y-84106913D01*
X159327119Y-84101598D01*
X159270707Y-83891067D01*
X159270706Y-83891065D01*
X159269284Y-83885757D01*
X159256744Y-83858865D01*
X159174849Y-83683238D01*
X159174846Y-83683233D01*
X159172523Y-83678251D01*
X159061130Y-83519166D01*
X159044357Y-83495211D01*
X159044355Y-83495208D01*
X159041198Y-83490700D01*
X158879300Y-83328802D01*
X158874792Y-83325645D01*
X158874789Y-83325643D01*
X158796611Y-83270902D01*
X158691749Y-83197477D01*
X158686767Y-83195154D01*
X158686762Y-83195151D01*
X158652543Y-83179195D01*
X158599258Y-83132278D01*
X158579797Y-83064001D01*
X158600339Y-82996041D01*
X158652543Y-82950805D01*
X158686762Y-82934849D01*
X158686767Y-82934846D01*
X158691749Y-82932523D01*
X158796611Y-82859098D01*
X158874789Y-82804357D01*
X158874792Y-82804355D01*
X158879300Y-82801198D01*
X159041198Y-82639300D01*
X159068997Y-82599600D01*
X159169366Y-82456257D01*
X159172523Y-82451749D01*
X159174846Y-82446767D01*
X159174849Y-82446762D01*
X159266961Y-82249225D01*
X159266961Y-82249224D01*
X159269284Y-82244243D01*
X159275291Y-82221827D01*
X159327119Y-82028402D01*
X159327119Y-82028400D01*
X159328543Y-82023087D01*
X159348498Y-81795000D01*
X159328543Y-81566913D01*
X159320028Y-81535135D01*
X159270707Y-81351067D01*
X159270706Y-81351065D01*
X159269284Y-81345757D01*
X159256164Y-81317620D01*
X159174849Y-81143238D01*
X159174846Y-81143233D01*
X159172523Y-81138251D01*
X159041198Y-80950700D01*
X158879300Y-80788802D01*
X158874792Y-80785645D01*
X158874789Y-80785643D01*
X158796611Y-80730902D01*
X158691749Y-80657477D01*
X158686767Y-80655154D01*
X158686762Y-80655151D01*
X158652543Y-80639195D01*
X158599258Y-80592278D01*
X158579797Y-80524001D01*
X158600339Y-80456041D01*
X158652543Y-80410805D01*
X158686762Y-80394849D01*
X158686767Y-80394846D01*
X158691749Y-80392523D01*
X158796611Y-80319098D01*
X158874789Y-80264357D01*
X158874792Y-80264355D01*
X158879300Y-80261198D01*
X159041198Y-80099300D01*
X159058419Y-80074707D01*
X159103596Y-80010187D01*
X159172523Y-79911749D01*
X159174846Y-79906767D01*
X159174849Y-79906762D01*
X159266961Y-79709225D01*
X159266961Y-79709224D01*
X159269284Y-79704243D01*
X159285793Y-79642633D01*
X159327119Y-79488402D01*
X159327119Y-79488400D01*
X159328543Y-79483087D01*
X159348498Y-79255000D01*
X159328543Y-79026913D01*
X159269284Y-78805757D01*
X159256744Y-78778865D01*
X159174849Y-78603238D01*
X159174846Y-78603233D01*
X159172523Y-78598251D01*
X159059315Y-78436573D01*
X159044357Y-78415211D01*
X159044355Y-78415208D01*
X159041198Y-78410700D01*
X158879300Y-78248802D01*
X158874792Y-78245645D01*
X158874789Y-78245643D01*
X158796611Y-78190902D01*
X158691749Y-78117477D01*
X158686767Y-78115154D01*
X158686762Y-78115151D01*
X158652543Y-78099195D01*
X158599258Y-78052278D01*
X158579797Y-77984001D01*
X158600339Y-77916041D01*
X158652543Y-77870805D01*
X158686762Y-77854849D01*
X158686767Y-77854846D01*
X158691749Y-77852523D01*
X158796611Y-77779098D01*
X158874789Y-77724357D01*
X158874792Y-77724355D01*
X158879300Y-77721198D01*
X159041198Y-77559300D01*
X159068997Y-77519600D01*
X159169366Y-77376257D01*
X159172523Y-77371749D01*
X159174846Y-77366767D01*
X159174849Y-77366762D01*
X159266961Y-77169225D01*
X159266961Y-77169224D01*
X159269284Y-77164243D01*
X159297778Y-77057905D01*
X159327119Y-76948402D01*
X159327120Y-76948399D01*
X159328543Y-76943087D01*
X159348498Y-76715000D01*
X159328543Y-76486913D01*
X159324814Y-76472997D01*
X159270707Y-76271067D01*
X159270706Y-76271065D01*
X159269284Y-76265757D01*
X159266961Y-76260775D01*
X159174849Y-76063238D01*
X159174846Y-76063233D01*
X159172523Y-76058251D01*
X159099098Y-75953389D01*
X159044357Y-75875211D01*
X159044355Y-75875208D01*
X159041198Y-75870700D01*
X158879300Y-75708802D01*
X158874792Y-75705645D01*
X158874789Y-75705643D01*
X158796045Y-75650506D01*
X158691749Y-75577477D01*
X158686767Y-75575154D01*
X158686762Y-75575151D01*
X158652543Y-75559195D01*
X158599258Y-75512278D01*
X158579797Y-75444001D01*
X158600339Y-75376041D01*
X158652543Y-75330805D01*
X158686762Y-75314849D01*
X158686767Y-75314846D01*
X158691749Y-75312523D01*
X158833805Y-75213054D01*
X158874789Y-75184357D01*
X158874792Y-75184355D01*
X158879300Y-75181198D01*
X159041198Y-75019300D01*
X159047873Y-75009768D01*
X159102192Y-74932192D01*
X159172523Y-74831749D01*
X159174846Y-74826767D01*
X159174849Y-74826762D01*
X159266961Y-74629225D01*
X159266961Y-74629224D01*
X159269284Y-74624243D01*
X159270773Y-74618688D01*
X159327119Y-74408402D01*
X159327120Y-74408399D01*
X159328543Y-74403087D01*
X159348498Y-74175000D01*
X159328543Y-73946913D01*
X159320028Y-73915135D01*
X159270707Y-73731067D01*
X159270706Y-73731065D01*
X159269284Y-73725757D01*
X159255591Y-73696392D01*
X159174849Y-73523238D01*
X159174846Y-73523233D01*
X159172523Y-73518251D01*
X159041198Y-73330700D01*
X158879300Y-73168802D01*
X158874792Y-73165645D01*
X158874789Y-73165643D01*
X158796611Y-73110902D01*
X158691749Y-73037477D01*
X158686767Y-73035154D01*
X158686762Y-73035151D01*
X158489225Y-72943039D01*
X158489224Y-72943039D01*
X158484243Y-72940716D01*
X158478935Y-72939294D01*
X158478933Y-72939293D01*
X158268402Y-72882881D01*
X158268400Y-72882881D01*
X158263087Y-72881457D01*
X158163520Y-72872746D01*
X158094851Y-72866738D01*
X158094844Y-72866738D01*
X158092127Y-72866500D01*
X157177873Y-72866500D01*
X157175156Y-72866738D01*
X157175149Y-72866738D01*
X157106480Y-72872746D01*
X157006913Y-72881457D01*
X157001600Y-72882881D01*
X157001598Y-72882881D01*
X156791067Y-72939293D01*
X156791065Y-72939294D01*
X156785757Y-72940716D01*
X156780776Y-72943039D01*
X156780775Y-72943039D01*
X156583238Y-73035151D01*
X156583233Y-73035154D01*
X156578251Y-73037477D01*
X156473389Y-73110902D01*
X156395211Y-73165643D01*
X156395208Y-73165645D01*
X156390700Y-73168802D01*
X156228802Y-73330700D01*
X156097477Y-73518251D01*
X156095154Y-73523233D01*
X156095151Y-73523238D01*
X156014409Y-73696392D01*
X156000716Y-73725757D01*
X155999294Y-73731065D01*
X155999293Y-73731067D01*
X155949972Y-73915135D01*
X155941457Y-73946913D01*
X155921502Y-74175000D01*
X155941457Y-74403087D01*
X155942880Y-74408399D01*
X155942881Y-74408402D01*
X155999228Y-74618688D01*
X156000716Y-74624243D01*
X156003039Y-74629224D01*
X156003039Y-74629225D01*
X156095151Y-74826762D01*
X156095154Y-74826767D01*
X156097477Y-74831749D01*
X156167808Y-74932192D01*
X156222128Y-75009768D01*
X156228802Y-75019300D01*
X156390700Y-75181198D01*
X156395208Y-75184355D01*
X156395211Y-75184357D01*
X156436195Y-75213054D01*
X156578251Y-75312523D01*
X156583233Y-75314846D01*
X156583238Y-75314849D01*
X156617457Y-75330805D01*
X156670742Y-75377722D01*
X156690203Y-75445999D01*
X156669661Y-75513959D01*
X156617457Y-75559195D01*
X156583238Y-75575151D01*
X156583233Y-75575154D01*
X156578251Y-75577477D01*
X156473955Y-75650506D01*
X156395211Y-75705643D01*
X156395208Y-75705645D01*
X156390700Y-75708802D01*
X156228802Y-75870700D01*
X156225645Y-75875208D01*
X156225643Y-75875211D01*
X156116970Y-76030412D01*
X156061513Y-76074740D01*
X156025498Y-76082418D01*
X156025565Y-76082838D01*
X156017737Y-76084078D01*
X156009810Y-76084327D01*
X155995291Y-76088545D01*
X155990358Y-76089978D01*
X155971006Y-76093986D01*
X155958768Y-76095532D01*
X155958766Y-76095533D01*
X155950903Y-76096526D01*
X155909786Y-76112806D01*
X155898585Y-76116641D01*
X155856106Y-76128982D01*
X155849287Y-76133015D01*
X155849282Y-76133017D01*
X155838671Y-76139293D01*
X155820921Y-76147990D01*
X155802083Y-76155448D01*
X155795667Y-76160109D01*
X155795666Y-76160110D01*
X155766325Y-76181428D01*
X155756401Y-76187947D01*
X155725160Y-76206422D01*
X155725155Y-76206426D01*
X155718337Y-76210458D01*
X155704013Y-76224782D01*
X155688981Y-76237621D01*
X155672593Y-76249528D01*
X155652798Y-76273456D01*
X155644412Y-76283593D01*
X155636422Y-76292373D01*
X154692700Y-77236095D01*
X154630388Y-77270121D01*
X154603605Y-77273000D01*
X144164349Y-77273000D01*
X144096228Y-77252998D01*
X144049735Y-77199342D01*
X144039631Y-77129068D01*
X144042640Y-77114399D01*
X144088543Y-76943087D01*
X144108498Y-76715000D01*
X144088543Y-76486913D01*
X144084814Y-76472997D01*
X144030707Y-76271067D01*
X144030706Y-76271065D01*
X144029284Y-76265757D01*
X144026961Y-76260775D01*
X143934849Y-76063238D01*
X143934846Y-76063233D01*
X143932523Y-76058251D01*
X143859098Y-75953389D01*
X143804357Y-75875211D01*
X143804355Y-75875208D01*
X143801198Y-75870700D01*
X143639300Y-75708802D01*
X143634789Y-75705643D01*
X143630576Y-75702108D01*
X143631388Y-75701140D01*
X143590910Y-75650506D01*
X143583596Y-75579887D01*
X143615624Y-75516524D01*
X143676823Y-75480536D01*
X143693901Y-75477480D01*
X143697352Y-75477105D01*
X143712604Y-75473479D01*
X143833054Y-75428324D01*
X143848649Y-75419786D01*
X143950724Y-75343285D01*
X143963285Y-75330724D01*
X144039786Y-75228649D01*
X144048324Y-75213054D01*
X144093478Y-75092606D01*
X144097105Y-75077351D01*
X144102631Y-75026486D01*
X144103000Y-75019672D01*
X144103000Y-74447115D01*
X144098525Y-74431876D01*
X144097135Y-74430671D01*
X144089452Y-74429000D01*
X140705116Y-74429000D01*
X140689877Y-74433475D01*
X140688672Y-74434865D01*
X140687001Y-74442548D01*
X140687001Y-75019669D01*
X140687371Y-75026490D01*
X140692895Y-75077352D01*
X140696521Y-75092604D01*
X140741676Y-75213054D01*
X140750214Y-75228649D01*
X140826715Y-75330724D01*
X140839276Y-75343285D01*
X140941351Y-75419786D01*
X140956946Y-75428324D01*
X141077394Y-75473478D01*
X141092643Y-75477104D01*
X141096096Y-75477479D01*
X141098606Y-75478522D01*
X141100331Y-75478932D01*
X141100265Y-75479211D01*
X141161659Y-75504719D01*
X141202088Y-75563080D01*
X141204546Y-75634034D01*
X141168253Y-75695054D01*
X141156760Y-75704344D01*
X141155214Y-75705641D01*
X141150700Y-75708802D01*
X141044146Y-75815356D01*
X140981838Y-75849379D01*
X140911022Y-75844315D01*
X140865959Y-75815354D01*
X140069152Y-75018547D01*
X140061612Y-75010261D01*
X140057500Y-75003782D01*
X140007848Y-74957156D01*
X140005007Y-74954402D01*
X139985270Y-74934665D01*
X139982073Y-74932185D01*
X139973051Y-74924480D01*
X139946600Y-74899641D01*
X139940821Y-74894214D01*
X139933875Y-74890395D01*
X139933872Y-74890393D01*
X139923066Y-74884452D01*
X139906548Y-74873602D01*
X139895303Y-74864880D01*
X139853735Y-74807326D01*
X139849881Y-74736434D01*
X139858331Y-74712069D01*
X139896958Y-74629232D01*
X139896961Y-74629225D01*
X139899284Y-74624243D01*
X139958543Y-74403087D01*
X139978498Y-74175000D01*
X139958543Y-73946913D01*
X139950028Y-73915135D01*
X139946746Y-73902885D01*
X140687000Y-73902885D01*
X140691475Y-73918124D01*
X140692865Y-73919329D01*
X140700548Y-73921000D01*
X142122885Y-73921000D01*
X142138124Y-73916525D01*
X142139329Y-73915135D01*
X142141000Y-73907452D01*
X142141000Y-73902885D01*
X142649000Y-73902885D01*
X142653475Y-73918124D01*
X142654865Y-73919329D01*
X142662548Y-73921000D01*
X144084884Y-73921000D01*
X144100123Y-73916525D01*
X144101328Y-73915135D01*
X144102999Y-73907452D01*
X144102999Y-73330331D01*
X144102629Y-73323510D01*
X144097105Y-73272648D01*
X144093479Y-73257396D01*
X144048324Y-73136946D01*
X144039786Y-73121351D01*
X143963285Y-73019276D01*
X143950724Y-73006715D01*
X143848649Y-72930214D01*
X143833054Y-72921676D01*
X143712606Y-72876522D01*
X143697351Y-72872895D01*
X143646486Y-72867369D01*
X143639672Y-72867000D01*
X142667115Y-72867000D01*
X142651876Y-72871475D01*
X142650671Y-72872865D01*
X142649000Y-72880548D01*
X142649000Y-73902885D01*
X142141000Y-73902885D01*
X142141000Y-72885116D01*
X142136525Y-72869877D01*
X142135135Y-72868672D01*
X142127452Y-72867001D01*
X141150331Y-72867001D01*
X141143510Y-72867371D01*
X141092648Y-72872895D01*
X141077396Y-72876521D01*
X140956946Y-72921676D01*
X140941351Y-72930214D01*
X140839276Y-73006715D01*
X140826715Y-73019276D01*
X140750214Y-73121351D01*
X140741676Y-73136946D01*
X140696522Y-73257394D01*
X140692895Y-73272649D01*
X140687369Y-73323514D01*
X140687000Y-73330328D01*
X140687000Y-73902885D01*
X139946746Y-73902885D01*
X139900707Y-73731067D01*
X139900706Y-73731065D01*
X139899284Y-73725757D01*
X139885591Y-73696392D01*
X139804849Y-73523238D01*
X139804846Y-73523233D01*
X139802523Y-73518251D01*
X139671198Y-73330700D01*
X139509300Y-73168802D01*
X139504792Y-73165645D01*
X139504789Y-73165643D01*
X139426611Y-73110902D01*
X139321749Y-73037477D01*
X139316767Y-73035154D01*
X139316762Y-73035151D01*
X139119225Y-72943039D01*
X139119224Y-72943039D01*
X139114243Y-72940716D01*
X139108935Y-72939294D01*
X139108933Y-72939293D01*
X138898402Y-72882881D01*
X138898400Y-72882881D01*
X138893087Y-72881457D01*
X138793520Y-72872746D01*
X138724851Y-72866738D01*
X138724844Y-72866738D01*
X138722127Y-72866500D01*
X137807873Y-72866500D01*
X137805156Y-72866738D01*
X137805149Y-72866738D01*
X137736480Y-72872746D01*
X137636913Y-72881457D01*
X137631600Y-72882881D01*
X137631598Y-72882881D01*
X137421067Y-72939293D01*
X137421065Y-72939294D01*
X137415757Y-72940716D01*
X137410776Y-72943039D01*
X137410775Y-72943039D01*
X137213238Y-73035151D01*
X137213233Y-73035154D01*
X137208251Y-73037477D01*
X137103389Y-73110902D01*
X137025211Y-73165643D01*
X137025208Y-73165645D01*
X137020700Y-73168802D01*
X136858802Y-73330700D01*
X136727477Y-73518251D01*
X136725154Y-73523233D01*
X136725151Y-73523238D01*
X136644409Y-73696392D01*
X136630716Y-73725757D01*
X136629294Y-73731065D01*
X136629293Y-73731067D01*
X136579972Y-73915135D01*
X136571457Y-73946913D01*
X136551502Y-74175000D01*
X136571457Y-74403087D01*
X136629228Y-74618688D01*
X136627538Y-74689665D01*
X136587744Y-74748461D01*
X136522480Y-74776409D01*
X136507521Y-74777300D01*
X132479500Y-74777300D01*
X132411379Y-74757298D01*
X132364886Y-74703642D01*
X132353500Y-74651300D01*
X132353500Y-73326866D01*
X132346745Y-73264684D01*
X132295615Y-73128295D01*
X132208261Y-73011739D01*
X132091705Y-72924385D01*
X131955316Y-72873255D01*
X131893134Y-72866500D01*
X129396866Y-72866500D01*
X129334684Y-72873255D01*
X129198295Y-72924385D01*
X129081739Y-73011739D01*
X128994385Y-73128295D01*
X128943255Y-73264684D01*
X128936500Y-73326866D01*
X128936500Y-73901105D01*
X128916498Y-73969226D01*
X128862842Y-74015719D01*
X128792568Y-74025823D01*
X128727988Y-73996329D01*
X128721405Y-73990200D01*
X128513952Y-73782747D01*
X128506412Y-73774461D01*
X128502300Y-73767982D01*
X128452648Y-73721356D01*
X128449807Y-73718602D01*
X128430070Y-73698865D01*
X128426873Y-73696385D01*
X128417851Y-73688680D01*
X128391400Y-73663841D01*
X128385621Y-73658414D01*
X128378675Y-73654595D01*
X128378672Y-73654593D01*
X128367866Y-73648652D01*
X128351347Y-73637801D01*
X128350883Y-73637441D01*
X128335341Y-73625386D01*
X128328072Y-73622241D01*
X128328068Y-73622238D01*
X128294763Y-73607826D01*
X128284113Y-73602609D01*
X128245360Y-73581305D01*
X128225737Y-73576267D01*
X128207034Y-73569863D01*
X128195720Y-73564967D01*
X128195719Y-73564967D01*
X128188445Y-73561819D01*
X128180622Y-73560580D01*
X128180612Y-73560577D01*
X128144776Y-73554901D01*
X128133156Y-73552495D01*
X128098011Y-73543472D01*
X128098010Y-73543472D01*
X128090330Y-73541500D01*
X128087777Y-73541500D01*
X128024892Y-73514075D01*
X128002545Y-73489720D01*
X127894357Y-73335211D01*
X127894355Y-73335208D01*
X127891198Y-73330700D01*
X127729300Y-73168802D01*
X127724792Y-73165645D01*
X127724789Y-73165643D01*
X127646611Y-73110902D01*
X127541749Y-73037477D01*
X127536767Y-73035154D01*
X127536762Y-73035151D01*
X127339225Y-72943039D01*
X127339224Y-72943039D01*
X127334243Y-72940716D01*
X127328935Y-72939294D01*
X127328933Y-72939293D01*
X127118402Y-72882881D01*
X127118400Y-72882881D01*
X127113087Y-72881457D01*
X127013520Y-72872746D01*
X126944851Y-72866738D01*
X126944844Y-72866738D01*
X126942127Y-72866500D01*
X126027873Y-72866500D01*
X126025156Y-72866738D01*
X126025149Y-72866738D01*
X125956480Y-72872746D01*
X125856913Y-72881457D01*
X125851600Y-72882881D01*
X125851598Y-72882881D01*
X125641067Y-72939293D01*
X125641065Y-72939294D01*
X125635757Y-72940716D01*
X125630776Y-72943039D01*
X125630775Y-72943039D01*
X125433238Y-73035151D01*
X125433233Y-73035154D01*
X125428251Y-73037477D01*
X125323389Y-73110902D01*
X125245211Y-73165643D01*
X125245208Y-73165645D01*
X125240700Y-73168802D01*
X125078802Y-73330700D01*
X124947477Y-73518251D01*
X124945154Y-73523233D01*
X124945151Y-73523238D01*
X124864409Y-73696392D01*
X124850716Y-73725757D01*
X124849294Y-73731065D01*
X124849293Y-73731067D01*
X124799972Y-73915135D01*
X124791457Y-73946913D01*
X124771502Y-74175000D01*
X124791457Y-74403087D01*
X124792880Y-74408399D01*
X124792881Y-74408402D01*
X124849228Y-74618688D01*
X124850716Y-74624243D01*
X124853039Y-74629224D01*
X124853039Y-74629225D01*
X124945151Y-74826762D01*
X124945154Y-74826767D01*
X124947477Y-74831749D01*
X125017808Y-74932192D01*
X125072128Y-75009768D01*
X125078802Y-75019300D01*
X125240700Y-75181198D01*
X125245208Y-75184355D01*
X125245211Y-75184357D01*
X125286195Y-75213054D01*
X125428251Y-75312523D01*
X125433233Y-75314846D01*
X125433238Y-75314849D01*
X125467457Y-75330805D01*
X125520742Y-75377722D01*
X125540203Y-75445999D01*
X125519661Y-75513959D01*
X125467457Y-75559195D01*
X125433238Y-75575151D01*
X125433233Y-75575154D01*
X125428251Y-75577477D01*
X125323955Y-75650506D01*
X125245211Y-75705643D01*
X125245208Y-75705645D01*
X125240700Y-75708802D01*
X125078802Y-75870700D01*
X125075645Y-75875208D01*
X125075643Y-75875211D01*
X125020902Y-75953389D01*
X124947477Y-76058251D01*
X124945154Y-76063233D01*
X124945151Y-76063238D01*
X124853039Y-76260775D01*
X124850716Y-76265757D01*
X124849294Y-76271065D01*
X124849293Y-76271067D01*
X124795186Y-76472997D01*
X124791457Y-76486913D01*
X124771502Y-76715000D01*
X124791457Y-76943087D01*
X124792880Y-76948399D01*
X124792881Y-76948402D01*
X124822223Y-77057905D01*
X124850716Y-77164243D01*
X124853039Y-77169224D01*
X124853039Y-77169225D01*
X124945151Y-77366762D01*
X124945154Y-77366767D01*
X124947477Y-77371749D01*
X124950634Y-77376257D01*
X125051004Y-77519600D01*
X125078802Y-77559300D01*
X125240700Y-77721198D01*
X125245208Y-77724355D01*
X125245211Y-77724357D01*
X125323389Y-77779098D01*
X125428251Y-77852523D01*
X125433233Y-77854846D01*
X125433238Y-77854849D01*
X125467457Y-77870805D01*
X125520742Y-77917722D01*
X125540203Y-77985999D01*
X125519661Y-78053959D01*
X125467457Y-78099195D01*
X125433238Y-78115151D01*
X125433233Y-78115154D01*
X125428251Y-78117477D01*
X125323389Y-78190902D01*
X125245211Y-78245643D01*
X125245208Y-78245645D01*
X125240700Y-78248802D01*
X125078802Y-78410700D01*
X125075645Y-78415208D01*
X125075643Y-78415211D01*
X125060685Y-78436573D01*
X124947477Y-78598251D01*
X124945154Y-78603233D01*
X124945151Y-78603238D01*
X124863256Y-78778865D01*
X124850716Y-78805757D01*
X124791457Y-79026913D01*
X124771502Y-79255000D01*
X124791457Y-79483087D01*
X124792881Y-79488400D01*
X124792881Y-79488402D01*
X124834208Y-79642633D01*
X124850716Y-79704243D01*
X124853039Y-79709224D01*
X124853039Y-79709225D01*
X124945151Y-79906762D01*
X124945154Y-79906767D01*
X124947477Y-79911749D01*
X125016404Y-80010187D01*
X125061582Y-80074707D01*
X125078802Y-80099300D01*
X125240700Y-80261198D01*
X125245208Y-80264355D01*
X125245211Y-80264357D01*
X125323389Y-80319098D01*
X125428251Y-80392523D01*
X125433233Y-80394846D01*
X125433238Y-80394849D01*
X125467457Y-80410805D01*
X125520742Y-80457722D01*
X125540203Y-80525999D01*
X125519661Y-80593959D01*
X125467457Y-80639195D01*
X125433238Y-80655151D01*
X125433233Y-80655154D01*
X125428251Y-80657477D01*
X125323389Y-80730902D01*
X125245211Y-80785643D01*
X125245208Y-80785645D01*
X125240700Y-80788802D01*
X125078802Y-80950700D01*
X124947477Y-81138251D01*
X124945154Y-81143233D01*
X124945151Y-81143238D01*
X124863836Y-81317620D01*
X124850716Y-81345757D01*
X124849294Y-81351065D01*
X124849293Y-81351067D01*
X124799972Y-81535135D01*
X124791457Y-81566913D01*
X124771502Y-81795000D01*
X124791457Y-82023087D01*
X124792881Y-82028400D01*
X124792881Y-82028402D01*
X124837116Y-82193489D01*
X124835426Y-82264465D01*
X124795632Y-82323261D01*
X124730368Y-82351209D01*
X124715409Y-82352100D01*
X116815494Y-82352100D01*
X116747373Y-82332098D01*
X116726399Y-82315195D01*
X115005164Y-80593959D01*
X113273952Y-78862747D01*
X113266412Y-78854461D01*
X113262300Y-78847982D01*
X113212648Y-78801356D01*
X113209807Y-78798602D01*
X113190070Y-78778865D01*
X113186873Y-78776385D01*
X113177851Y-78768680D01*
X113173700Y-78764782D01*
X113145621Y-78738414D01*
X113138675Y-78734595D01*
X113138672Y-78734593D01*
X113127866Y-78728652D01*
X113111347Y-78717801D01*
X113110883Y-78717441D01*
X113095341Y-78705386D01*
X113088072Y-78702241D01*
X113088068Y-78702238D01*
X113054763Y-78687826D01*
X113044113Y-78682609D01*
X113005360Y-78661305D01*
X112985737Y-78656267D01*
X112967034Y-78649863D01*
X112955720Y-78644967D01*
X112955719Y-78644967D01*
X112948445Y-78641819D01*
X112940622Y-78640580D01*
X112940612Y-78640577D01*
X112904776Y-78634901D01*
X112893156Y-78632495D01*
X112858011Y-78623472D01*
X112858010Y-78623472D01*
X112850330Y-78621500D01*
X112847777Y-78621500D01*
X112784892Y-78594075D01*
X112762545Y-78569720D01*
X112755741Y-78560002D01*
X112669315Y-78436573D01*
X112654357Y-78415211D01*
X112654355Y-78415208D01*
X112651198Y-78410700D01*
X112489300Y-78248802D01*
X112484792Y-78245645D01*
X112484789Y-78245643D01*
X112406611Y-78190902D01*
X112301749Y-78117477D01*
X112296767Y-78115154D01*
X112296762Y-78115151D01*
X112262543Y-78099195D01*
X112209258Y-78052278D01*
X112189797Y-77984001D01*
X112210339Y-77916041D01*
X112262543Y-77870805D01*
X112296762Y-77854849D01*
X112296767Y-77854846D01*
X112301749Y-77852523D01*
X112406611Y-77779098D01*
X112484789Y-77724357D01*
X112484792Y-77724355D01*
X112489300Y-77721198D01*
X112651198Y-77559300D01*
X112678997Y-77519600D01*
X112779366Y-77376257D01*
X112782523Y-77371749D01*
X112784846Y-77366767D01*
X112784849Y-77366762D01*
X112876961Y-77169225D01*
X112876961Y-77169224D01*
X112879284Y-77164243D01*
X112907778Y-77057905D01*
X112937119Y-76948402D01*
X112937120Y-76948399D01*
X112938543Y-76943087D01*
X112958498Y-76715000D01*
X112938543Y-76486913D01*
X112934814Y-76472997D01*
X112880707Y-76271067D01*
X112880706Y-76271065D01*
X112879284Y-76265757D01*
X112876961Y-76260775D01*
X112784849Y-76063238D01*
X112784846Y-76063233D01*
X112782523Y-76058251D01*
X112709098Y-75953389D01*
X112654357Y-75875211D01*
X112654355Y-75875208D01*
X112651198Y-75870700D01*
X112489300Y-75708802D01*
X112484789Y-75705643D01*
X112480576Y-75702108D01*
X112481388Y-75701140D01*
X112440910Y-75650506D01*
X112433596Y-75579887D01*
X112465624Y-75516524D01*
X112526823Y-75480536D01*
X112543901Y-75477480D01*
X112547352Y-75477105D01*
X112562604Y-75473479D01*
X112683054Y-75428324D01*
X112698649Y-75419786D01*
X112800724Y-75343285D01*
X112813285Y-75330724D01*
X112889786Y-75228649D01*
X112898324Y-75213054D01*
X112943478Y-75092606D01*
X112947105Y-75077351D01*
X112952631Y-75026486D01*
X112953000Y-75019672D01*
X112953000Y-74447115D01*
X112948525Y-74431876D01*
X112947135Y-74430671D01*
X112939452Y-74429000D01*
X109555116Y-74429000D01*
X109539877Y-74433475D01*
X109538672Y-74434865D01*
X109537001Y-74442548D01*
X109537001Y-75019669D01*
X109537371Y-75026490D01*
X109542895Y-75077352D01*
X109546521Y-75092604D01*
X109591676Y-75213054D01*
X109600214Y-75228649D01*
X109676715Y-75330724D01*
X109689276Y-75343285D01*
X109791351Y-75419786D01*
X109806946Y-75428324D01*
X109927394Y-75473478D01*
X109942643Y-75477104D01*
X109946096Y-75477479D01*
X109948606Y-75478522D01*
X109950331Y-75478932D01*
X109950265Y-75479211D01*
X110011659Y-75504719D01*
X110052088Y-75563080D01*
X110054546Y-75634034D01*
X110018253Y-75695054D01*
X110006760Y-75704344D01*
X110005214Y-75705641D01*
X110000700Y-75708802D01*
X109838802Y-75870700D01*
X109835645Y-75875208D01*
X109835643Y-75875211D01*
X109725583Y-76032393D01*
X109670126Y-76076721D01*
X109630282Y-76085873D01*
X109607963Y-76087277D01*
X109607962Y-76087277D01*
X109600050Y-76087775D01*
X109592509Y-76090225D01*
X109592213Y-76090321D01*
X109569069Y-76095494D01*
X109568765Y-76095532D01*
X109568760Y-76095533D01*
X109560903Y-76096526D01*
X109553538Y-76099442D01*
X109553534Y-76099443D01*
X109508689Y-76117199D01*
X109501270Y-76119871D01*
X109447825Y-76137236D01*
X109441129Y-76141486D01*
X109441128Y-76141486D01*
X109440869Y-76141650D01*
X109419742Y-76152415D01*
X109419454Y-76152529D01*
X109419449Y-76152532D01*
X109412083Y-76155448D01*
X109405675Y-76160104D01*
X109405669Y-76160107D01*
X109366648Y-76188458D01*
X109360111Y-76192901D01*
X109312682Y-76223000D01*
X109307256Y-76228778D01*
X109307255Y-76228779D01*
X109307041Y-76229007D01*
X109289254Y-76244688D01*
X109289009Y-76244866D01*
X109289007Y-76244868D01*
X109282593Y-76249528D01*
X109277539Y-76255637D01*
X109277538Y-76255638D01*
X109246797Y-76292796D01*
X109241566Y-76298730D01*
X109208542Y-76333898D01*
X109208540Y-76333901D01*
X109203114Y-76339679D01*
X109199145Y-76346899D01*
X109185819Y-76366506D01*
X109185620Y-76366746D01*
X109185616Y-76366753D01*
X109180567Y-76372856D01*
X109177193Y-76380027D01*
X109156653Y-76423676D01*
X109153071Y-76430708D01*
X109126005Y-76479940D01*
X109124035Y-76487615D01*
X109124032Y-76487621D01*
X109123956Y-76487919D01*
X109115924Y-76510228D01*
X109115794Y-76510503D01*
X109115791Y-76510511D01*
X109112417Y-76517682D01*
X109110931Y-76525474D01*
X109101895Y-76572843D01*
X109100171Y-76580558D01*
X109086200Y-76634970D01*
X109086200Y-76643207D01*
X109083968Y-76666816D01*
X109082425Y-76674906D01*
X107000000Y-76674906D01*
X107000000Y-73902885D01*
X109537000Y-73902885D01*
X109541475Y-73918124D01*
X109542865Y-73919329D01*
X109550548Y-73921000D01*
X110972885Y-73921000D01*
X110988124Y-73916525D01*
X110989329Y-73915135D01*
X110991000Y-73907452D01*
X110991000Y-73902885D01*
X111499000Y-73902885D01*
X111503475Y-73918124D01*
X111504865Y-73919329D01*
X111512548Y-73921000D01*
X112934884Y-73921000D01*
X112950123Y-73916525D01*
X112951328Y-73915135D01*
X112952999Y-73907452D01*
X112952999Y-73330331D01*
X112952629Y-73323510D01*
X112947105Y-73272648D01*
X112943479Y-73257396D01*
X112898324Y-73136946D01*
X112889786Y-73121351D01*
X112813285Y-73019276D01*
X112800724Y-73006715D01*
X112698649Y-72930214D01*
X112683054Y-72921676D01*
X112562606Y-72876522D01*
X112547351Y-72872895D01*
X112496486Y-72867369D01*
X112489672Y-72867000D01*
X111517115Y-72867000D01*
X111501876Y-72871475D01*
X111500671Y-72872865D01*
X111499000Y-72880548D01*
X111499000Y-73902885D01*
X110991000Y-73902885D01*
X110991000Y-72885116D01*
X110986525Y-72869877D01*
X110985135Y-72868672D01*
X110977452Y-72867001D01*
X110000331Y-72867001D01*
X109993510Y-72867371D01*
X109942648Y-72872895D01*
X109927396Y-72876521D01*
X109806946Y-72921676D01*
X109791351Y-72930214D01*
X109689276Y-73006715D01*
X109676715Y-73019276D01*
X109600214Y-73121351D01*
X109591676Y-73136946D01*
X109546522Y-73257394D01*
X109542895Y-73272649D01*
X109537369Y-73323514D01*
X109537000Y-73330328D01*
X109537000Y-73902885D01*
X107000000Y-73902885D01*
X107000000Y-72211062D01*
X135673493Y-72211062D01*
X135682789Y-72223077D01*
X135733994Y-72258931D01*
X135743489Y-72264414D01*
X135940947Y-72356490D01*
X135951239Y-72360236D01*
X136161688Y-72416625D01*
X136172481Y-72418528D01*
X136389525Y-72437517D01*
X136400475Y-72437517D01*
X136617519Y-72418528D01*
X136628312Y-72416625D01*
X136838761Y-72360236D01*
X136849053Y-72356490D01*
X137046511Y-72264414D01*
X137056006Y-72258931D01*
X137108048Y-72222491D01*
X137116424Y-72212012D01*
X137109356Y-72198566D01*
X136407812Y-71497022D01*
X136393868Y-71489408D01*
X136392035Y-71489539D01*
X136385420Y-71493790D01*
X135679923Y-72199287D01*
X135673493Y-72211062D01*
X107000000Y-72211062D01*
X107000000Y-71130475D01*
X135082483Y-71130475D01*
X135101472Y-71347519D01*
X135103375Y-71358312D01*
X135159764Y-71568761D01*
X135163510Y-71579053D01*
X135255586Y-71776511D01*
X135261069Y-71786006D01*
X135297509Y-71838048D01*
X135307988Y-71846424D01*
X135321434Y-71839356D01*
X136022978Y-71137812D01*
X136029356Y-71126132D01*
X136759408Y-71126132D01*
X136759539Y-71127965D01*
X136763790Y-71134580D01*
X137469287Y-71840077D01*
X137481062Y-71846507D01*
X137493077Y-71837211D01*
X137528934Y-71786002D01*
X137535591Y-71774472D01*
X137586973Y-71725479D01*
X137656687Y-71712042D01*
X137722598Y-71738429D01*
X137753829Y-71774472D01*
X137755153Y-71776765D01*
X137757477Y-71781749D01*
X137888802Y-71969300D01*
X138050700Y-72131198D01*
X138055208Y-72134355D01*
X138055211Y-72134357D01*
X138133389Y-72189098D01*
X138238251Y-72262523D01*
X138243233Y-72264846D01*
X138243238Y-72264849D01*
X138439765Y-72356490D01*
X138445757Y-72359284D01*
X138451065Y-72360706D01*
X138451067Y-72360707D01*
X138661598Y-72417119D01*
X138661600Y-72417119D01*
X138666913Y-72418543D01*
X138895000Y-72438498D01*
X139123087Y-72418543D01*
X139128400Y-72417119D01*
X139128402Y-72417119D01*
X139338933Y-72360707D01*
X139338935Y-72360706D01*
X139344243Y-72359284D01*
X139350235Y-72356490D01*
X139546762Y-72264849D01*
X139546767Y-72264846D01*
X139551749Y-72262523D01*
X139656611Y-72189098D01*
X139734789Y-72134357D01*
X139734792Y-72134355D01*
X139739300Y-72131198D01*
X139901198Y-71969300D01*
X140032523Y-71781749D01*
X140034846Y-71776767D01*
X140034849Y-71776762D01*
X140126961Y-71579225D01*
X140126961Y-71579224D01*
X140129284Y-71574243D01*
X140149976Y-71497022D01*
X140187119Y-71358402D01*
X140187119Y-71358400D01*
X140188543Y-71353087D01*
X140208498Y-71125000D01*
X140188543Y-70896913D01*
X140151981Y-70760461D01*
X140130707Y-70681067D01*
X140130706Y-70681065D01*
X140129284Y-70675757D01*
X140126961Y-70670775D01*
X140034849Y-70473238D01*
X140034846Y-70473233D01*
X140032523Y-70468251D01*
X139901198Y-70280700D01*
X139739300Y-70118802D01*
X139734792Y-70115645D01*
X139734789Y-70115643D01*
X139608920Y-70027509D01*
X139551749Y-69987477D01*
X139546767Y-69985154D01*
X139546762Y-69985151D01*
X139349225Y-69893039D01*
X139349224Y-69893039D01*
X139344243Y-69890716D01*
X139338935Y-69889294D01*
X139338933Y-69889293D01*
X139128402Y-69832881D01*
X139128400Y-69832881D01*
X139123087Y-69831457D01*
X138895000Y-69811502D01*
X138666913Y-69831457D01*
X138661600Y-69832881D01*
X138661598Y-69832881D01*
X138451067Y-69889293D01*
X138451065Y-69889294D01*
X138445757Y-69890716D01*
X138440776Y-69893039D01*
X138440775Y-69893039D01*
X138243238Y-69985151D01*
X138243233Y-69985154D01*
X138238251Y-69987477D01*
X138181080Y-70027509D01*
X138055211Y-70115643D01*
X138055208Y-70115645D01*
X138050700Y-70118802D01*
X137888802Y-70280700D01*
X137757477Y-70468251D01*
X137755153Y-70473235D01*
X137753829Y-70475528D01*
X137702447Y-70524521D01*
X137632733Y-70537957D01*
X137566822Y-70511571D01*
X137535591Y-70475528D01*
X137528934Y-70463998D01*
X137492491Y-70411952D01*
X137482012Y-70403576D01*
X137468566Y-70410644D01*
X136767022Y-71112188D01*
X136759408Y-71126132D01*
X136029356Y-71126132D01*
X136030592Y-71123868D01*
X136030461Y-71122035D01*
X136026210Y-71115420D01*
X135320713Y-70409923D01*
X135308938Y-70403493D01*
X135296923Y-70412789D01*
X135261069Y-70463994D01*
X135255586Y-70473489D01*
X135163510Y-70670947D01*
X135159764Y-70681239D01*
X135103375Y-70891688D01*
X135101472Y-70902481D01*
X135082483Y-71119525D01*
X135082483Y-71130475D01*
X107000000Y-71130475D01*
X107000000Y-70037988D01*
X135673576Y-70037988D01*
X135680644Y-70051434D01*
X136382188Y-70752978D01*
X136396132Y-70760592D01*
X136397965Y-70760461D01*
X136404580Y-70756210D01*
X137110077Y-70050713D01*
X137116507Y-70038938D01*
X137107211Y-70026923D01*
X137056006Y-69991069D01*
X137046511Y-69985586D01*
X136849053Y-69893510D01*
X136838761Y-69889764D01*
X136628312Y-69833375D01*
X136617519Y-69831472D01*
X136400475Y-69812483D01*
X136389525Y-69812483D01*
X136172481Y-69831472D01*
X136161688Y-69833375D01*
X135951239Y-69889764D01*
X135940947Y-69893510D01*
X135743489Y-69985586D01*
X135733994Y-69991069D01*
X135681952Y-70027509D01*
X135673576Y-70037988D01*
X107000000Y-70037988D01*
X107000000Y-69126000D01*
X107020002Y-69057879D01*
X107073658Y-69011386D01*
X107126000Y-69000000D01*
X162365500Y-69000000D01*
X162433621Y-69020002D01*
G37*
G04 #@! TD.AperFunction*
G04 #@! TA.AperFunction,Conductor*
G36*
X129033604Y-88659802D02*
G01*
X129080097Y-88713458D01*
X129090201Y-88783732D01*
X129079678Y-88819050D01*
X129013510Y-88960947D01*
X129009764Y-88971239D01*
X128963606Y-89143503D01*
X128963942Y-89157599D01*
X128971884Y-89161000D01*
X132312967Y-89161000D01*
X132326498Y-89157027D01*
X132327727Y-89148478D01*
X132280236Y-88971239D01*
X132276490Y-88960947D01*
X132210322Y-88819050D01*
X132199661Y-88748858D01*
X132228641Y-88684046D01*
X132288061Y-88645189D01*
X132324517Y-88639800D01*
X136584931Y-88639800D01*
X136653052Y-88659802D01*
X136699545Y-88713458D01*
X136709649Y-88783732D01*
X136699126Y-88819050D01*
X136633039Y-88960774D01*
X136633039Y-88960775D01*
X136630716Y-88965757D01*
X136571457Y-89186913D01*
X136551502Y-89415000D01*
X136571457Y-89643087D01*
X136630716Y-89864243D01*
X136633039Y-89869225D01*
X136633041Y-89869230D01*
X136634448Y-89872247D01*
X136634669Y-89873704D01*
X136634922Y-89874398D01*
X136634782Y-89874449D01*
X136645111Y-89942438D01*
X136616133Y-90007252D01*
X136556715Y-90046110D01*
X136520255Y-90051500D01*
X132389194Y-90051500D01*
X132321073Y-90031498D01*
X132274580Y-89977842D01*
X132264476Y-89907568D01*
X132275000Y-89872249D01*
X132276488Y-89869058D01*
X132280236Y-89858761D01*
X132326394Y-89686497D01*
X132326058Y-89672401D01*
X132318116Y-89669000D01*
X128977033Y-89669000D01*
X128963502Y-89672973D01*
X128962273Y-89681522D01*
X129009764Y-89858761D01*
X129013512Y-89869058D01*
X129015000Y-89872249D01*
X129015234Y-89873789D01*
X129015393Y-89874226D01*
X129015305Y-89874258D01*
X129025662Y-89942441D01*
X128996683Y-90007254D01*
X128937263Y-90046110D01*
X128900806Y-90051500D01*
X128229745Y-90051500D01*
X128161624Y-90031498D01*
X128115131Y-89977842D01*
X128105027Y-89907568D01*
X128115552Y-89872247D01*
X128116959Y-89869230D01*
X128116961Y-89869225D01*
X128119284Y-89864243D01*
X128178543Y-89643087D01*
X128198498Y-89415000D01*
X128178543Y-89186913D01*
X128119284Y-88965757D01*
X128116961Y-88960775D01*
X128116961Y-88960774D01*
X128050874Y-88819050D01*
X128040213Y-88748858D01*
X128069193Y-88684045D01*
X128128613Y-88645189D01*
X128165069Y-88639800D01*
X128965483Y-88639800D01*
X129033604Y-88659802D01*
G37*
G04 #@! TD.AperFunction*
G04 #@! TA.AperFunction,Conductor*
G36*
X128144485Y-77455389D02*
G01*
X128987843Y-78298747D01*
X128995387Y-78307037D01*
X128999500Y-78313518D01*
X129005277Y-78318943D01*
X129049167Y-78360158D01*
X129052009Y-78362913D01*
X129071730Y-78382634D01*
X129074925Y-78385112D01*
X129083948Y-78392819D01*
X129105732Y-78413276D01*
X129141697Y-78474489D01*
X129138858Y-78545429D01*
X129122692Y-78577395D01*
X129111062Y-78594004D01*
X129105589Y-78603483D01*
X129013510Y-78800947D01*
X129009764Y-78811239D01*
X128963606Y-78983503D01*
X128963942Y-78997599D01*
X128971884Y-79001000D01*
X132312967Y-79001000D01*
X132326498Y-78997027D01*
X132327727Y-78988478D01*
X132280236Y-78811239D01*
X132276490Y-78800947D01*
X132238394Y-78719250D01*
X132227733Y-78649058D01*
X132256713Y-78584246D01*
X132316133Y-78545389D01*
X132352589Y-78540000D01*
X136557411Y-78540000D01*
X136625532Y-78560002D01*
X136672025Y-78613658D01*
X136682129Y-78683932D01*
X136671606Y-78719250D01*
X136633510Y-78800947D01*
X136629764Y-78811239D01*
X136583606Y-78983503D01*
X136583942Y-78997599D01*
X136591884Y-79001000D01*
X138393000Y-79001000D01*
X138461121Y-79021002D01*
X138507614Y-79074658D01*
X138519000Y-79127000D01*
X138519000Y-79765500D01*
X138498998Y-79833621D01*
X138445342Y-79880114D01*
X138393000Y-79891500D01*
X138137000Y-79891500D01*
X138068879Y-79871498D01*
X138022386Y-79817842D01*
X138011000Y-79765500D01*
X138011000Y-79527115D01*
X138006525Y-79511876D01*
X138005135Y-79510671D01*
X137997452Y-79509000D01*
X136597033Y-79509000D01*
X136583502Y-79512973D01*
X136582273Y-79521522D01*
X136629764Y-79698761D01*
X136633512Y-79709058D01*
X136635000Y-79712249D01*
X136635234Y-79713789D01*
X136635393Y-79714226D01*
X136635305Y-79714258D01*
X136645662Y-79782441D01*
X136616683Y-79847254D01*
X136557263Y-79886110D01*
X136520806Y-79891500D01*
X133519067Y-79891500D01*
X133507884Y-79890973D01*
X133500391Y-79889298D01*
X133492465Y-79889547D01*
X133492464Y-79889547D01*
X133432314Y-79891438D01*
X133428355Y-79891500D01*
X133400444Y-79891500D01*
X133396510Y-79891997D01*
X133396509Y-79891997D01*
X133396444Y-79892005D01*
X133384607Y-79892938D01*
X133352790Y-79893938D01*
X133348329Y-79894078D01*
X133340410Y-79894327D01*
X133322754Y-79899456D01*
X133320958Y-79899978D01*
X133301606Y-79903986D01*
X133294535Y-79904880D01*
X133281503Y-79906526D01*
X133274134Y-79909443D01*
X133274132Y-79909444D01*
X133240397Y-79922800D01*
X133229169Y-79926645D01*
X133186707Y-79938982D01*
X133179885Y-79943016D01*
X133179879Y-79943019D01*
X133169268Y-79949294D01*
X133151518Y-79957990D01*
X133140056Y-79962528D01*
X133140051Y-79962531D01*
X133132683Y-79965448D01*
X133126268Y-79970109D01*
X133096925Y-79991427D01*
X133087007Y-79997943D01*
X133081901Y-80000963D01*
X133048937Y-80020458D01*
X133034613Y-80034782D01*
X133019581Y-80047621D01*
X133003193Y-80059528D01*
X132990636Y-80074707D01*
X132975012Y-80093593D01*
X132967033Y-80102362D01*
X132174039Y-80895356D01*
X132111730Y-80929379D01*
X132040915Y-80924315D01*
X131995852Y-80895354D01*
X131889300Y-80788802D01*
X131884792Y-80785645D01*
X131884789Y-80785643D01*
X131806611Y-80730902D01*
X131701749Y-80657477D01*
X131696767Y-80655154D01*
X131696762Y-80655151D01*
X131661951Y-80638919D01*
X131608666Y-80592002D01*
X131589205Y-80523725D01*
X131609747Y-80455765D01*
X131661951Y-80410529D01*
X131696511Y-80394414D01*
X131706007Y-80388931D01*
X131884467Y-80263972D01*
X131892875Y-80256916D01*
X132046916Y-80102875D01*
X132053972Y-80094467D01*
X132178931Y-79916007D01*
X132184414Y-79906511D01*
X132276490Y-79709053D01*
X132280236Y-79698761D01*
X132326394Y-79526497D01*
X132326058Y-79512401D01*
X132318116Y-79509000D01*
X128977033Y-79509000D01*
X128963502Y-79512973D01*
X128962273Y-79521522D01*
X129009764Y-79698761D01*
X129013510Y-79709053D01*
X129105586Y-79906511D01*
X129111069Y-79916007D01*
X129236028Y-80094467D01*
X129243084Y-80102875D01*
X129397125Y-80256916D01*
X129405533Y-80263972D01*
X129583993Y-80388931D01*
X129593489Y-80394414D01*
X129628049Y-80410529D01*
X129681334Y-80457446D01*
X129700795Y-80525723D01*
X129680253Y-80593683D01*
X129628049Y-80638919D01*
X129593238Y-80655151D01*
X129593233Y-80655154D01*
X129588251Y-80657477D01*
X129483389Y-80730902D01*
X129405211Y-80785643D01*
X129405208Y-80785645D01*
X129400700Y-80788802D01*
X129238802Y-80950700D01*
X129107477Y-81138251D01*
X129105154Y-81143233D01*
X129105151Y-81143238D01*
X129023836Y-81317620D01*
X129010716Y-81345757D01*
X129009294Y-81351065D01*
X129009293Y-81351067D01*
X128959972Y-81535135D01*
X128951457Y-81566913D01*
X128931502Y-81795000D01*
X128951457Y-82023087D01*
X128952881Y-82028400D01*
X128952881Y-82028402D01*
X128997116Y-82193489D01*
X128995426Y-82264465D01*
X128955632Y-82323261D01*
X128890368Y-82351209D01*
X128875409Y-82352100D01*
X128254591Y-82352100D01*
X128186470Y-82332098D01*
X128139977Y-82278442D01*
X128129873Y-82208168D01*
X128132884Y-82193489D01*
X128177119Y-82028402D01*
X128177119Y-82028400D01*
X128178543Y-82023087D01*
X128198498Y-81795000D01*
X128178543Y-81566913D01*
X128170028Y-81535135D01*
X128120707Y-81351067D01*
X128120706Y-81351065D01*
X128119284Y-81345757D01*
X128106164Y-81317620D01*
X128024849Y-81143238D01*
X128024846Y-81143233D01*
X128022523Y-81138251D01*
X127891198Y-80950700D01*
X127729300Y-80788802D01*
X127724792Y-80785645D01*
X127724789Y-80785643D01*
X127646611Y-80730902D01*
X127541749Y-80657477D01*
X127536767Y-80655154D01*
X127536762Y-80655151D01*
X127502543Y-80639195D01*
X127449258Y-80592278D01*
X127429797Y-80524001D01*
X127450339Y-80456041D01*
X127502543Y-80410805D01*
X127536762Y-80394849D01*
X127536767Y-80394846D01*
X127541749Y-80392523D01*
X127646611Y-80319098D01*
X127724789Y-80264357D01*
X127724792Y-80264355D01*
X127729300Y-80261198D01*
X127891198Y-80099300D01*
X127908419Y-80074707D01*
X127953596Y-80010187D01*
X128022523Y-79911749D01*
X128024846Y-79906767D01*
X128024849Y-79906762D01*
X128116961Y-79709225D01*
X128116961Y-79709224D01*
X128119284Y-79704243D01*
X128135793Y-79642633D01*
X128177119Y-79488402D01*
X128177119Y-79488400D01*
X128178543Y-79483087D01*
X128198498Y-79255000D01*
X128178543Y-79026913D01*
X128119284Y-78805757D01*
X128106744Y-78778865D01*
X128024849Y-78603238D01*
X128024846Y-78603233D01*
X128022523Y-78598251D01*
X127909315Y-78436573D01*
X127894357Y-78415211D01*
X127894355Y-78415208D01*
X127891198Y-78410700D01*
X127729300Y-78248802D01*
X127724792Y-78245645D01*
X127724789Y-78245643D01*
X127646611Y-78190902D01*
X127541749Y-78117477D01*
X127536767Y-78115154D01*
X127536762Y-78115151D01*
X127502543Y-78099195D01*
X127449258Y-78052278D01*
X127429797Y-77984001D01*
X127450339Y-77916041D01*
X127502543Y-77870805D01*
X127536762Y-77854849D01*
X127536767Y-77854846D01*
X127541749Y-77852523D01*
X127646611Y-77779098D01*
X127724789Y-77724357D01*
X127724792Y-77724355D01*
X127729300Y-77721198D01*
X127891198Y-77559300D01*
X127952177Y-77472213D01*
X128007634Y-77427885D01*
X128078253Y-77420576D01*
X128144485Y-77455389D01*
G37*
G04 #@! TD.AperFunction*
G04 #@! TA.AperFunction,Conductor*
G36*
X136588927Y-81178502D02*
G01*
X136635420Y-81232158D01*
X136645524Y-81302432D01*
X136635000Y-81337751D01*
X136633512Y-81340942D01*
X136629764Y-81351239D01*
X136583606Y-81523503D01*
X136583942Y-81537599D01*
X136591884Y-81541000D01*
X137992885Y-81541000D01*
X138008124Y-81536525D01*
X138009329Y-81535135D01*
X138011000Y-81527452D01*
X138011000Y-81284500D01*
X138031002Y-81216379D01*
X138084658Y-81169886D01*
X138137000Y-81158500D01*
X138393000Y-81158500D01*
X138461121Y-81178502D01*
X138507614Y-81232158D01*
X138519000Y-81284500D01*
X138519000Y-81923000D01*
X138498998Y-81991121D01*
X138445342Y-82037614D01*
X138393000Y-82049000D01*
X136597033Y-82049000D01*
X136583502Y-82052973D01*
X136582273Y-82061522D01*
X136617634Y-82193489D01*
X136615944Y-82264465D01*
X136576150Y-82323261D01*
X136510886Y-82351209D01*
X136495927Y-82352100D01*
X132813294Y-82352100D01*
X132745173Y-82332098D01*
X132698680Y-82278442D01*
X132688576Y-82208168D01*
X132718070Y-82143588D01*
X132724199Y-82137005D01*
X133665799Y-81195405D01*
X133728111Y-81161379D01*
X133754894Y-81158500D01*
X136520806Y-81158500D01*
X136588927Y-81178502D01*
G37*
G04 #@! TD.AperFunction*
M02*
