G04 #@! TF.GenerationSoftware,KiCad,Pcbnew,(7.0.0-0)*
G04 #@! TF.CreationDate,2023-03-04T11:20:18+09:00*
G04 #@! TF.ProjectId,MC6803EP-SBC6809E,4d433638-3033-4455-902d-534243363830,rev?*
G04 #@! TF.SameCoordinates,Original*
G04 #@! TF.FileFunction,Copper,L1,Top*
G04 #@! TF.FilePolarity,Positive*
%FSLAX46Y46*%
G04 Gerber Fmt 4.6, Leading zero omitted, Abs format (unit mm)*
G04 Created by KiCad (PCBNEW (7.0.0-0)) date 2023-03-04 11:20:18*
%MOMM*%
%LPD*%
G01*
G04 APERTURE LIST*
G04 #@! TA.AperFunction,ComponentPad*
%ADD10R,1.600000X1.600000*%
G04 #@! TD*
G04 #@! TA.AperFunction,ComponentPad*
%ADD11O,1.600000X1.600000*%
G04 #@! TD*
G04 #@! TA.AperFunction,ComponentPad*
%ADD12R,1.700000X1.700000*%
G04 #@! TD*
G04 #@! TA.AperFunction,ComponentPad*
%ADD13O,1.700000X1.700000*%
G04 #@! TD*
G04 #@! TA.AperFunction,ComponentPad*
%ADD14C,1.600000*%
G04 #@! TD*
G04 #@! TA.AperFunction,ViaPad*
%ADD15C,0.800000*%
G04 #@! TD*
G04 #@! TA.AperFunction,Conductor*
%ADD16C,0.250000*%
G04 #@! TD*
G04 APERTURE END LIST*
D10*
X129749999Y-75249999D03*
D11*
X129749999Y-77789999D03*
X129749999Y-80329999D03*
X129749999Y-82869999D03*
X129749999Y-85409999D03*
X129749999Y-87949999D03*
X129749999Y-90489999D03*
X137369999Y-90489999D03*
X137369999Y-87949999D03*
X137369999Y-85409999D03*
X137369999Y-82869999D03*
X137369999Y-80329999D03*
X137369999Y-77789999D03*
X137369999Y-75249999D03*
D12*
X146474999Y-124924999D03*
D13*
X143934999Y-124924999D03*
X141394999Y-124924999D03*
X138854999Y-124924999D03*
X136314999Y-124924999D03*
X133774999Y-124924999D03*
X131234999Y-124924999D03*
X128694999Y-124924999D03*
D10*
X109499999Y-73249999D03*
D11*
X109499999Y-75789999D03*
X109499999Y-78329999D03*
X109499999Y-80869999D03*
X109499999Y-83409999D03*
X109499999Y-85949999D03*
X109499999Y-88489999D03*
X109499999Y-91029999D03*
X109499999Y-93569999D03*
X109499999Y-96109999D03*
X109499999Y-98649999D03*
X109499999Y-101189999D03*
X109499999Y-103729999D03*
X109499999Y-106269999D03*
X109499999Y-108809999D03*
X109499999Y-111349999D03*
X109499999Y-113889999D03*
X109499999Y-116429999D03*
X109499999Y-118969999D03*
X109499999Y-121509999D03*
X124739999Y-121509999D03*
X124739999Y-118969999D03*
X124739999Y-116429999D03*
X124739999Y-113889999D03*
X124739999Y-111349999D03*
X124739999Y-108809999D03*
X124739999Y-106269999D03*
X124739999Y-103729999D03*
X124739999Y-101189999D03*
X124739999Y-98649999D03*
X124739999Y-96109999D03*
X124739999Y-93569999D03*
X124739999Y-91029999D03*
X124739999Y-88489999D03*
X124739999Y-85949999D03*
X124739999Y-83409999D03*
X124739999Y-80869999D03*
X124739999Y-78329999D03*
X124739999Y-75789999D03*
X124739999Y-73249999D03*
D10*
X141874999Y-73124999D03*
D11*
X141874999Y-75664999D03*
X141874999Y-78204999D03*
X141874999Y-80744999D03*
X141874999Y-83284999D03*
X141874999Y-85824999D03*
X141874999Y-88364999D03*
X141874999Y-90904999D03*
X141874999Y-93444999D03*
X141874999Y-95984999D03*
X141874999Y-98524999D03*
X141874999Y-101064999D03*
X141874999Y-103604999D03*
X141874999Y-106144999D03*
X141874999Y-108684999D03*
X141874999Y-111224999D03*
X141874999Y-113764999D03*
X141874999Y-116304999D03*
X141874999Y-118844999D03*
X141874999Y-121384999D03*
X157114999Y-121384999D03*
X157114999Y-118844999D03*
X157114999Y-116304999D03*
X157114999Y-113764999D03*
X157114999Y-111224999D03*
X157114999Y-108684999D03*
X157114999Y-106144999D03*
X157114999Y-103604999D03*
X157114999Y-101064999D03*
X157114999Y-98524999D03*
X157114999Y-95984999D03*
X157114999Y-93444999D03*
X157114999Y-90904999D03*
X157114999Y-88364999D03*
X157114999Y-85824999D03*
X157114999Y-83284999D03*
X157114999Y-80744999D03*
X157114999Y-78204999D03*
X157114999Y-75664999D03*
X157114999Y-73124999D03*
D14*
X146250000Y-88250000D03*
X148750000Y-88250000D03*
D10*
X129899999Y-97399999D03*
D11*
X129899999Y-99939999D03*
X129899999Y-102479999D03*
X129899999Y-105019999D03*
X129899999Y-107559999D03*
X129899999Y-110099999D03*
X129899999Y-112639999D03*
X129899999Y-115179999D03*
X129899999Y-117719999D03*
X129899999Y-120259999D03*
X137519999Y-120259999D03*
X137519999Y-117719999D03*
X137519999Y-115179999D03*
X137519999Y-112639999D03*
X137519999Y-110099999D03*
X137519999Y-107559999D03*
X137519999Y-105019999D03*
X137519999Y-102479999D03*
X137519999Y-99939999D03*
X137519999Y-97399999D03*
D14*
X138050000Y-94400000D03*
X135550000Y-94400000D03*
X137750000Y-72250000D03*
X135250000Y-72250000D03*
D12*
X163829999Y-72389999D03*
D13*
X166369999Y-72389999D03*
X163829999Y-74929999D03*
X166369999Y-74929999D03*
X163829999Y-77469999D03*
X166369999Y-77469999D03*
X163829999Y-80009999D03*
X166369999Y-80009999D03*
X163829999Y-82549999D03*
X166369999Y-82549999D03*
X163829999Y-85089999D03*
X166369999Y-85089999D03*
X163829999Y-87629999D03*
X166369999Y-87629999D03*
X163829999Y-90169999D03*
X166369999Y-90169999D03*
X163829999Y-92709999D03*
X166369999Y-92709999D03*
X163829999Y-95249999D03*
X166369999Y-95249999D03*
X163829999Y-97789999D03*
X166369999Y-97789999D03*
X163829999Y-100329999D03*
X166369999Y-100329999D03*
X163829999Y-102869999D03*
X166369999Y-102869999D03*
X163829999Y-105409999D03*
X166369999Y-105409999D03*
X163829999Y-107949999D03*
X166369999Y-107949999D03*
X163829999Y-110489999D03*
X166369999Y-110489999D03*
X163829999Y-113029999D03*
X166369999Y-113029999D03*
X163829999Y-115569999D03*
X166369999Y-115569999D03*
X163829999Y-118109999D03*
X166369999Y-118109999D03*
X163829999Y-120649999D03*
X166369999Y-120649999D03*
D14*
X151910000Y-100000000D03*
D11*
X151909999Y-110159999D03*
D14*
X152150000Y-86580000D03*
D11*
X152149999Y-76419999D03*
D14*
X146500000Y-99920000D03*
D11*
X146499999Y-110079999D03*
D12*
X165099999Y-124999999D03*
D13*
X162559999Y-124999999D03*
X160019999Y-124999999D03*
X157479999Y-124999999D03*
X154939999Y-124999999D03*
X152399999Y-124999999D03*
D15*
X108000000Y-70000000D03*
X172000000Y-127500000D03*
X109000000Y-128000000D03*
X132507000Y-86957000D03*
X134598800Y-86299100D03*
X143292000Y-80394500D03*
X128290800Y-79117900D03*
X146141800Y-102120400D03*
X135098200Y-100610000D03*
X127723400Y-77292200D03*
X127094100Y-103071900D03*
X162541700Y-81268600D03*
X158459000Y-76431300D03*
X149656800Y-103897000D03*
X158821200Y-81835200D03*
X150987700Y-103897000D03*
X139715900Y-116834500D03*
X158929600Y-84949700D03*
X164687600Y-93937100D03*
X153065500Y-121766800D03*
X161678700Y-110582100D03*
X153312300Y-119313000D03*
X139380100Y-97392600D03*
X113873000Y-110185700D03*
X161848000Y-101705600D03*
X158534500Y-105019100D03*
X149500300Y-127025500D03*
X167906200Y-99060000D03*
X161205400Y-126945700D03*
X161106200Y-100951000D03*
X166970600Y-124286200D03*
X159956700Y-99852800D03*
X159295700Y-98884300D03*
X154646500Y-97119600D03*
X150498900Y-102213300D03*
X154193200Y-93144100D03*
X147185200Y-102556300D03*
X168049200Y-83599100D03*
X139692900Y-84667600D03*
X139692900Y-81485500D03*
X147644800Y-101107900D03*
X140617000Y-95124600D03*
D16*
X147895000Y-95985000D02*
X141875000Y-95985000D01*
X151910000Y-100000000D02*
X147895000Y-95985000D01*
X129750000Y-87950000D02*
X130875300Y-87950000D01*
X137370000Y-85410000D02*
X136244700Y-85410000D01*
X130875300Y-87563000D02*
X130875300Y-87950000D01*
X133028300Y-85410000D02*
X130875300Y-87563000D01*
X136244700Y-85410000D02*
X133028300Y-85410000D01*
X140918900Y-122533600D02*
X138645300Y-120260000D01*
X166153700Y-122533600D02*
X140918900Y-122533600D01*
X167547200Y-121140100D02*
X166153700Y-122533600D01*
X167547200Y-117555200D02*
X167547200Y-121140100D01*
X166737300Y-116745300D02*
X167547200Y-117555200D01*
X166370000Y-116745300D02*
X166737300Y-116745300D01*
X166370000Y-115570000D02*
X166370000Y-116745300D01*
X137520000Y-120260000D02*
X138645300Y-120260000D01*
X132711700Y-86957000D02*
X132507000Y-86957000D01*
X136244700Y-90490000D02*
X132711700Y-86957000D01*
X137370000Y-90490000D02*
X136244700Y-90490000D01*
X137370000Y-87950000D02*
X136244700Y-87950000D01*
X136244700Y-87945000D02*
X134598800Y-86299100D01*
X136244700Y-87950000D02*
X136244700Y-87945000D01*
X141875000Y-75665000D02*
X141875000Y-74539700D01*
X124740000Y-73250000D02*
X125865300Y-73250000D01*
X142578300Y-74539700D02*
X141875000Y-74539700D01*
X143000400Y-74117600D02*
X142578300Y-74539700D01*
X143000400Y-72190300D02*
X143000400Y-74117600D01*
X141442900Y-70632800D02*
X143000400Y-72190300D01*
X128482500Y-70632800D02*
X141442900Y-70632800D01*
X125865300Y-73250000D02*
X128482500Y-70632800D01*
X141196300Y-79117900D02*
X128290800Y-79117900D01*
X141427100Y-79348700D02*
X141196300Y-79117900D01*
X142246200Y-79348700D02*
X141427100Y-79348700D01*
X143292000Y-80394500D02*
X142246200Y-79348700D01*
X166370000Y-107950000D02*
X165194700Y-107950000D01*
X141875000Y-85825000D02*
X143000300Y-85825000D01*
X165194700Y-107582600D02*
X165194700Y-107950000D01*
X164386800Y-106774700D02*
X165194700Y-107582600D01*
X163518000Y-106774700D02*
X164386800Y-106774700D01*
X158491500Y-101748200D02*
X163518000Y-106774700D01*
X158491500Y-100830500D02*
X158491500Y-101748200D01*
X157456000Y-99795000D02*
X158491500Y-100830500D01*
X156154400Y-99795000D02*
X157456000Y-99795000D01*
X143000300Y-86640900D02*
X156154400Y-99795000D01*
X143000300Y-85825000D02*
X143000300Y-86640900D01*
X128624700Y-85730600D02*
X128624700Y-85410000D01*
X125865300Y-88490000D02*
X128624700Y-85730600D01*
X124740000Y-88490000D02*
X125865300Y-88490000D01*
X129750000Y-85410000D02*
X128624700Y-85410000D01*
X135698200Y-101210000D02*
X135098200Y-100610000D01*
X139018300Y-101210000D02*
X135698200Y-101210000D01*
X140013400Y-102205100D02*
X139018300Y-101210000D01*
X146057100Y-102205100D02*
X140013400Y-102205100D01*
X146141800Y-102120400D02*
X146057100Y-102205100D01*
X157115000Y-80745000D02*
X158240300Y-80745000D01*
X167598700Y-75367800D02*
X166766500Y-76200000D01*
X167598700Y-74444100D02*
X167598700Y-75367800D01*
X166891400Y-73736800D02*
X167598700Y-74444100D01*
X166028400Y-73736800D02*
X166891400Y-73736800D01*
X165194500Y-72902900D02*
X166028400Y-73736800D01*
X165194500Y-71541300D02*
X165194500Y-72902900D01*
X163782200Y-70129000D02*
X165194500Y-71541300D01*
X110559800Y-70129000D02*
X163782200Y-70129000D01*
X107883500Y-72805300D02*
X110559800Y-70129000D01*
X107883500Y-80922500D02*
X107883500Y-72805300D01*
X109101000Y-82140000D02*
X107883500Y-80922500D01*
X109926000Y-82140000D02*
X109101000Y-82140000D01*
X123614700Y-95828700D02*
X109926000Y-82140000D01*
X123614700Y-96110000D02*
X123614700Y-95828700D01*
X165100000Y-76200000D02*
X166766500Y-76200000D01*
X163830000Y-74930000D02*
X165100000Y-76200000D01*
X160304700Y-78680600D02*
X158240300Y-80745000D01*
X166857700Y-78680600D02*
X160304700Y-78680600D01*
X167548700Y-77989600D02*
X166857700Y-78680600D01*
X167548700Y-76982200D02*
X167548700Y-77989600D01*
X166766500Y-76200000D02*
X167548700Y-76982200D01*
X124740000Y-96110000D02*
X123614700Y-96110000D01*
X128774700Y-101559400D02*
X128774700Y-102480000D01*
X125865300Y-98650000D02*
X128774700Y-101559400D01*
X124740000Y-98650000D02*
X125865300Y-98650000D01*
X129900000Y-102480000D02*
X128774700Y-102480000D01*
X166370000Y-74930000D02*
X165194700Y-74930000D01*
X157115000Y-83285000D02*
X157115000Y-82159700D01*
X128351000Y-76664600D02*
X127723400Y-77292200D01*
X141283000Y-76664600D02*
X128351000Y-76664600D01*
X141427100Y-76808700D02*
X141283000Y-76664600D01*
X150753700Y-76808700D02*
X141427100Y-76808700D01*
X151492000Y-77547000D02*
X150753700Y-76808700D01*
X155989700Y-77547000D02*
X151492000Y-77547000D01*
X155989700Y-75126600D02*
X155989700Y-77547000D01*
X156721300Y-74395000D02*
X155989700Y-75126600D01*
X162510000Y-74395000D02*
X156721300Y-74395000D01*
X163168400Y-73736600D02*
X162510000Y-74395000D01*
X164368600Y-73736600D02*
X163168400Y-73736600D01*
X165194700Y-74562700D02*
X164368600Y-73736600D01*
X165194700Y-74930000D02*
X165194700Y-74562700D01*
X156833600Y-82159700D02*
X157115000Y-82159700D01*
X155989700Y-81315800D02*
X156833600Y-82159700D01*
X155989700Y-77547000D02*
X155989700Y-81315800D01*
X124740000Y-101190000D02*
X125865300Y-101190000D01*
X125865300Y-101843100D02*
X125865300Y-101190000D01*
X127094100Y-103071900D02*
X125865300Y-101843100D01*
X157672600Y-84699700D02*
X157115000Y-84699700D01*
X161103700Y-81268600D02*
X157672600Y-84699700D01*
X162541700Y-81268600D02*
X161103700Y-81268600D01*
X157115000Y-85825000D02*
X157115000Y-84699700D01*
X166370000Y-77470000D02*
X165194700Y-77470000D01*
X158638100Y-76252200D02*
X158459000Y-76431300D01*
X164344200Y-76252200D02*
X158638100Y-76252200D01*
X165194700Y-77102700D02*
X164344200Y-76252200D01*
X165194700Y-77470000D02*
X165194700Y-77102700D01*
X129900000Y-110100000D02*
X131025300Y-110100000D01*
X143375800Y-110178000D02*
X149656800Y-103897000D01*
X143375800Y-111342600D02*
X143375800Y-110178000D01*
X142223400Y-112495000D02*
X143375800Y-111342600D01*
X141534800Y-112495000D02*
X142223400Y-112495000D01*
X138686800Y-115343000D02*
X141534800Y-112495000D01*
X138686800Y-115619900D02*
X138686800Y-115343000D01*
X137945300Y-116361400D02*
X138686800Y-115619900D01*
X137005400Y-116361400D02*
X137945300Y-116361400D01*
X131025300Y-110381300D02*
X137005400Y-116361400D01*
X131025300Y-110100000D02*
X131025300Y-110381300D01*
X160646400Y-80010000D02*
X158821200Y-81835200D01*
X163830000Y-80010000D02*
X160646400Y-80010000D01*
X160311200Y-91374100D02*
X158240300Y-93445000D01*
X166877900Y-91374100D02*
X160311200Y-91374100D01*
X167550300Y-90701700D02*
X166877900Y-91374100D01*
X167550300Y-87129800D02*
X167550300Y-90701700D01*
X166780500Y-86360000D02*
X167550300Y-87129800D01*
X165939000Y-86360000D02*
X166780500Y-86360000D01*
X165194600Y-85615600D02*
X165939000Y-86360000D01*
X165194600Y-81993400D02*
X165194600Y-85615600D01*
X166002700Y-81185300D02*
X165194600Y-81993400D01*
X166370000Y-81185300D02*
X166002700Y-81185300D01*
X166370000Y-80010000D02*
X166370000Y-81185300D01*
X157115000Y-93445000D02*
X158240300Y-93445000D01*
X144666400Y-110218300D02*
X150987700Y-103897000D01*
X144666400Y-112634100D02*
X144666400Y-110218300D01*
X142410100Y-114890400D02*
X144666400Y-112634100D01*
X141660000Y-114890400D02*
X142410100Y-114890400D01*
X139715900Y-116834500D02*
X141660000Y-114890400D01*
X125865300Y-109730600D02*
X125865300Y-108810000D01*
X128774700Y-112640000D02*
X125865300Y-109730600D01*
X129900000Y-112640000D02*
X128774700Y-112640000D01*
X124740000Y-108810000D02*
X125865300Y-108810000D01*
X161329300Y-82550000D02*
X158929600Y-84949700D01*
X163830000Y-82550000D02*
X161329300Y-82550000D01*
X162828200Y-93937100D02*
X158240300Y-98525000D01*
X164687600Y-93937100D02*
X162828200Y-93937100D01*
X157115000Y-98525000D02*
X158240300Y-98525000D01*
X153067900Y-121766800D02*
X153065500Y-121766800D01*
X155989700Y-118845000D02*
X153067900Y-121766800D01*
X157115000Y-118845000D02*
X155989700Y-118845000D01*
X163830000Y-102870000D02*
X165005300Y-102870000D01*
X163041500Y-109219300D02*
X161678700Y-110582100D01*
X166778000Y-109219300D02*
X163041500Y-109219300D01*
X167590900Y-108406400D02*
X166778000Y-109219300D01*
X167590900Y-104949600D02*
X167590900Y-108406400D01*
X166686600Y-104045300D02*
X167590900Y-104949600D01*
X165813200Y-104045300D02*
X166686600Y-104045300D01*
X165005300Y-103237400D02*
X165813200Y-104045300D01*
X165005300Y-102870000D02*
X165005300Y-103237400D01*
X155989700Y-116635600D02*
X153312300Y-119313000D01*
X155989700Y-116305000D02*
X155989700Y-116635600D01*
X157115000Y-116305000D02*
X155989700Y-116305000D01*
X166370000Y-100330000D02*
X166370000Y-101505300D01*
X157115000Y-113765000D02*
X158240300Y-113765000D01*
X124740000Y-121510000D02*
X125865300Y-121510000D01*
X168041300Y-110532600D02*
X166908500Y-111665400D01*
X168041300Y-102809300D02*
X168041300Y-110532600D01*
X166737300Y-101505300D02*
X168041300Y-102809300D01*
X166370000Y-101505300D02*
X166737300Y-101505300D01*
X160339900Y-111665400D02*
X158240300Y-113765000D01*
X166908500Y-111665400D02*
X160339900Y-111665400D01*
X168051500Y-112808400D02*
X166908500Y-111665400D01*
X168051500Y-121272700D02*
X168051500Y-112808400D01*
X166321200Y-123003000D02*
X168051500Y-121272700D01*
X127358300Y-123003000D02*
X166321200Y-123003000D01*
X125865300Y-121510000D02*
X127358300Y-123003000D01*
X157115000Y-111225000D02*
X157115000Y-110099700D01*
X109500000Y-121510000D02*
X109500000Y-120384700D01*
X109062700Y-110185700D02*
X113873000Y-110185700D01*
X108324300Y-110924100D02*
X109062700Y-110185700D01*
X108324300Y-119490300D02*
X108324300Y-110924100D01*
X109218700Y-120384700D02*
X108324300Y-119490300D01*
X109500000Y-120384700D02*
X109218700Y-120384700D01*
X155974100Y-109193500D02*
X155974100Y-105019100D01*
X156880300Y-110099700D02*
X155974100Y-109193500D01*
X157115000Y-110099700D02*
X156880300Y-110099700D01*
X155974100Y-105019100D02*
X158534500Y-105019100D01*
X163830000Y-100330000D02*
X162654700Y-100330000D01*
X162654700Y-100898900D02*
X161848000Y-101705600D01*
X162654700Y-100330000D02*
X162654700Y-100898900D01*
X147340900Y-97392600D02*
X139380100Y-97392600D01*
X154967400Y-105019100D02*
X147340900Y-97392600D01*
X155974100Y-105019100D02*
X154967400Y-105019100D01*
X109500000Y-118970000D02*
X110625300Y-118970000D01*
X118680800Y-127025500D02*
X149500300Y-127025500D01*
X110625300Y-118970000D02*
X118680800Y-127025500D01*
X163830000Y-97790000D02*
X163333500Y-97790000D01*
X109500000Y-116430000D02*
X110625300Y-116430000D01*
X163333500Y-97790000D02*
X163800400Y-98256800D01*
X164603500Y-99060000D02*
X167906200Y-99060000D01*
X163800400Y-98256800D02*
X164603500Y-99060000D01*
X163800400Y-98256800D02*
X161106200Y-100951000D01*
X120767700Y-126572400D02*
X110625300Y-116430000D01*
X147768300Y-126572400D02*
X120767700Y-126572400D01*
X148050400Y-126290300D02*
X147768300Y-126572400D01*
X149833900Y-126290300D02*
X148050400Y-126290300D01*
X150489300Y-126945700D02*
X149833900Y-126290300D01*
X161205400Y-126945700D02*
X150489300Y-126945700D01*
X109500000Y-113890000D02*
X110625300Y-113890000D01*
X122857300Y-126122000D02*
X110625300Y-113890000D01*
X147581800Y-126122000D02*
X122857300Y-126122000D01*
X147863800Y-125840000D02*
X147581800Y-126122000D01*
X150020500Y-125840000D02*
X147863800Y-125840000D01*
X150355900Y-126175400D02*
X150020500Y-125840000D01*
X166084700Y-126175400D02*
X150355900Y-126175400D01*
X166970600Y-125289500D02*
X166084700Y-126175400D01*
X166970600Y-124286200D02*
X166970600Y-125289500D01*
X163384200Y-96425300D02*
X159956700Y-99852800D01*
X164386800Y-96425300D02*
X163384200Y-96425300D01*
X165194700Y-95617400D02*
X164386800Y-96425300D01*
X165194700Y-95250000D02*
X165194700Y-95617400D01*
X166370000Y-95250000D02*
X165194700Y-95250000D01*
X109500000Y-111350000D02*
X110625300Y-111350000D01*
X163830000Y-95250000D02*
X162654700Y-95250000D01*
X162654700Y-95525300D02*
X159295700Y-98884300D01*
X162654700Y-95250000D02*
X162654700Y-95525300D01*
X122728700Y-123453400D02*
X110625300Y-111350000D01*
X166532500Y-123453400D02*
X122728700Y-123453400D01*
X168635400Y-121350500D02*
X166532500Y-123453400D01*
X168635400Y-95846800D02*
X168635400Y-121350500D01*
X166823300Y-94034700D02*
X168635400Y-95846800D01*
X165615800Y-94034700D02*
X166823300Y-94034700D01*
X164400500Y-95250000D02*
X165615800Y-94034700D01*
X163830000Y-95250000D02*
X164400500Y-95250000D01*
X137520000Y-117720000D02*
X136394700Y-117720000D01*
X109500000Y-109385300D02*
X109500000Y-108810000D01*
X132584700Y-113910000D02*
X136394700Y-117720000D01*
X129247000Y-113910000D02*
X132584700Y-113910000D01*
X127812400Y-112475400D02*
X129247000Y-113910000D01*
X117220200Y-112475400D02*
X127812400Y-112475400D01*
X114130100Y-109385300D02*
X117220200Y-112475400D01*
X109500000Y-109385300D02*
X114130100Y-109385300D01*
X169089400Y-95429400D02*
X166370000Y-92710000D01*
X169089400Y-123858800D02*
X169089400Y-95429400D01*
X165173700Y-127774500D02*
X169089400Y-123858800D01*
X114159200Y-127774500D02*
X165173700Y-127774500D01*
X107873900Y-121489200D02*
X114159200Y-127774500D01*
X107873900Y-110723800D02*
X107873900Y-121489200D01*
X109212400Y-109385300D02*
X107873900Y-110723800D01*
X109500000Y-109385300D02*
X109212400Y-109385300D01*
X137801400Y-114054700D02*
X137520000Y-114054700D01*
X138645300Y-113210800D02*
X137801400Y-114054700D01*
X138645300Y-112863100D02*
X138645300Y-113210800D01*
X141698000Y-109810400D02*
X138645300Y-112863100D01*
X142621600Y-109810400D02*
X141698000Y-109810400D01*
X150218700Y-102213300D02*
X142621600Y-109810400D01*
X150498900Y-102213300D02*
X150218700Y-102213300D01*
X158245100Y-97119600D02*
X154646500Y-97119600D01*
X162654700Y-92710000D02*
X158245100Y-97119600D01*
X163830000Y-92710000D02*
X162654700Y-92710000D01*
X137520000Y-115180000D02*
X137520000Y-114617300D01*
X137520000Y-114617300D02*
X137520000Y-114054700D01*
X111750600Y-107395300D02*
X110625300Y-106270000D01*
X126767100Y-107395300D02*
X111750600Y-107395300D01*
X128346400Y-108974600D02*
X126767100Y-107395300D01*
X131877300Y-108974600D02*
X128346400Y-108974600D01*
X137520000Y-114617300D02*
X131877300Y-108974600D01*
X109500000Y-106270000D02*
X110625300Y-106270000D01*
X166370000Y-90170000D02*
X165194700Y-90170000D01*
X137520000Y-112640000D02*
X137520000Y-111514700D01*
X109500000Y-103730000D02*
X110625300Y-103730000D01*
X129077400Y-98708100D02*
X127798600Y-97429300D01*
X132121600Y-98708100D02*
X129077400Y-98708100D01*
X137051500Y-103638000D02*
X132121600Y-98708100D01*
X137764200Y-103638000D02*
X137051500Y-103638000D01*
X138666900Y-104540700D02*
X137764200Y-103638000D01*
X138666900Y-108017800D02*
X138666900Y-104540700D01*
X137854700Y-108830000D02*
X138666900Y-108017800D01*
X137192500Y-108830000D02*
X137854700Y-108830000D01*
X136377800Y-109644700D02*
X137192500Y-108830000D01*
X136377800Y-110653800D02*
X136377800Y-109644700D01*
X137238700Y-111514700D02*
X136377800Y-110653800D01*
X137520000Y-111514700D02*
X137238700Y-111514700D01*
X116926000Y-97429300D02*
X110625300Y-103730000D01*
X127798600Y-97429300D02*
X116926000Y-97429300D01*
X165194700Y-89802600D02*
X165194700Y-90170000D01*
X164352300Y-88960200D02*
X165194700Y-89802600D01*
X161080900Y-88960200D02*
X164352300Y-88960200D01*
X159315900Y-87195200D02*
X161080900Y-88960200D01*
X154406600Y-87195200D02*
X159315900Y-87195200D01*
X149332600Y-82121200D02*
X154406600Y-87195200D01*
X141126500Y-82121200D02*
X149332600Y-82121200D01*
X138874200Y-84373500D02*
X141126500Y-82121200D01*
X138874200Y-90597000D02*
X138874200Y-84373500D01*
X137765000Y-91706200D02*
X138874200Y-90597000D01*
X133521700Y-91706200D02*
X137765000Y-91706200D01*
X127798600Y-97429300D02*
X133521700Y-91706200D01*
X155306900Y-92030400D02*
X154193200Y-93144100D01*
X158524900Y-92030400D02*
X155306900Y-92030400D01*
X160385300Y-90170000D02*
X158524900Y-92030400D01*
X163830000Y-90170000D02*
X160385300Y-90170000D01*
X141330300Y-107415000D02*
X138645300Y-110100000D01*
X142326500Y-107415000D02*
X141330300Y-107415000D01*
X147185200Y-102556300D02*
X142326500Y-107415000D01*
X137520000Y-110100000D02*
X138645300Y-110100000D01*
X110646600Y-97503400D02*
X109500000Y-98650000D01*
X110646600Y-95605300D02*
X110646600Y-97503400D01*
X109881300Y-94840000D02*
X110646600Y-95605300D01*
X109115800Y-94840000D02*
X109881300Y-94840000D01*
X106982900Y-92707100D02*
X109115800Y-94840000D01*
X106982900Y-72432100D02*
X106982900Y-92707100D01*
X110186600Y-69228400D02*
X106982900Y-72432100D01*
X165570600Y-69228400D02*
X110186600Y-69228400D01*
X168499400Y-72157200D02*
X165570600Y-69228400D01*
X168499400Y-83148900D02*
X168499400Y-72157200D01*
X168049200Y-83599100D02*
X168499400Y-83148900D01*
X137520000Y-105020000D02*
X136394700Y-105020000D01*
X109500000Y-96110000D02*
X109500000Y-97235300D01*
X135237800Y-103863100D02*
X136394700Y-105020000D01*
X128050900Y-103863100D02*
X135237800Y-103863100D01*
X127010700Y-104903300D02*
X128050900Y-103863100D01*
X109051100Y-104903300D02*
X127010700Y-104903300D01*
X108374700Y-104226900D02*
X109051100Y-104903300D01*
X108374700Y-98079200D02*
X108374700Y-104226900D01*
X109218600Y-97235300D02*
X108374700Y-98079200D01*
X109500000Y-97235300D02*
X109218600Y-97235300D01*
X166370000Y-85090000D02*
X166370000Y-83914700D01*
X109500000Y-93570000D02*
X109500000Y-92444700D01*
X109218700Y-92444700D02*
X109500000Y-92444700D01*
X107433200Y-90659200D02*
X109218700Y-92444700D01*
X107433200Y-72618700D02*
X107433200Y-90659200D01*
X110373200Y-69678700D02*
X107433200Y-72618700D01*
X165340800Y-69678700D02*
X110373200Y-69678700D01*
X168049100Y-72387000D02*
X165340800Y-69678700D01*
X168049100Y-82573500D02*
X168049100Y-72387000D01*
X166707900Y-83914700D02*
X168049100Y-82573500D01*
X166370000Y-83914700D02*
X166707900Y-83914700D01*
X163830000Y-107950000D02*
X162654700Y-107950000D01*
X141875000Y-83285000D02*
X141875000Y-84410300D01*
X140749700Y-86362000D02*
X140749700Y-84667600D01*
X141482700Y-87095000D02*
X140749700Y-86362000D01*
X142258200Y-87095000D02*
X141482700Y-87095000D01*
X155860100Y-100696900D02*
X142258200Y-87095000D01*
X155860100Y-101467000D02*
X155860100Y-100696900D01*
X156598600Y-102205500D02*
X155860100Y-101467000D01*
X157350900Y-102205500D02*
X156598600Y-102205500D01*
X162654700Y-107509300D02*
X157350900Y-102205500D01*
X162654700Y-107950000D02*
X162654700Y-107509300D01*
X141007000Y-84410300D02*
X140749700Y-84667600D01*
X141875000Y-84410300D02*
X141007000Y-84410300D01*
X109500000Y-78330000D02*
X110625300Y-78330000D01*
X128196800Y-81485500D02*
X139692900Y-81485500D01*
X126166600Y-79455300D02*
X128196800Y-81485500D01*
X111750600Y-79455300D02*
X126166600Y-79455300D01*
X110625300Y-78330000D02*
X111750600Y-79455300D01*
X140749700Y-84667600D02*
X139692900Y-84667600D01*
X141875000Y-80745000D02*
X140749700Y-80745000D01*
X109500000Y-75790000D02*
X109500000Y-76915300D01*
X109218600Y-76915300D02*
X109500000Y-76915300D01*
X108374700Y-77759200D02*
X109218600Y-76915300D01*
X108374700Y-78833700D02*
X108374700Y-77759200D01*
X109141000Y-79600000D02*
X108374700Y-78833700D01*
X110483800Y-79600000D02*
X109141000Y-79600000D01*
X113042400Y-82158600D02*
X110483800Y-79600000D01*
X126245400Y-82158600D02*
X113042400Y-82158600D01*
X128082200Y-83995400D02*
X126245400Y-82158600D01*
X138308200Y-83995400D02*
X128082200Y-83995400D01*
X140749700Y-81553900D02*
X138308200Y-83995400D01*
X140749700Y-80745000D02*
X140749700Y-81553900D01*
X109500000Y-73250000D02*
X110625300Y-73250000D01*
X140495000Y-73379700D02*
X140749700Y-73125000D01*
X136379700Y-73379700D02*
X140495000Y-73379700D01*
X135250000Y-72250000D02*
X136379700Y-73379700D01*
X141875000Y-73125000D02*
X140749700Y-73125000D01*
X129187400Y-80330000D02*
X128624700Y-80330000D01*
X129187400Y-80330000D02*
X129750000Y-80330000D01*
X129750000Y-80330000D02*
X137370000Y-80330000D01*
X151910000Y-110160000D02*
X151910000Y-109034700D01*
X146500000Y-110080000D02*
X147550000Y-110080000D01*
X129900000Y-120260000D02*
X131025300Y-120260000D01*
X153035300Y-111285300D02*
X153035300Y-110160000D01*
X156785000Y-115035000D02*
X153035300Y-111285300D01*
X158990500Y-115035000D02*
X156785000Y-115035000D01*
X163430200Y-119474700D02*
X158990500Y-115035000D01*
X164386800Y-119474700D02*
X163430200Y-119474700D01*
X165194700Y-120282600D02*
X164386800Y-119474700D01*
X165194700Y-120650000D02*
X165194700Y-120282600D01*
X166370000Y-120650000D02*
X165194700Y-120650000D01*
X151910000Y-110160000D02*
X153035300Y-110160000D01*
X151910000Y-110160000D02*
X150784700Y-110160000D01*
X147550100Y-110160000D02*
X150784700Y-110160000D01*
X147550100Y-110080000D02*
X147550100Y-110160000D01*
X147550000Y-110080000D02*
X147550100Y-110080000D01*
X128477200Y-80330000D02*
X128624700Y-80330000D01*
X125340900Y-77193700D02*
X128477200Y-80330000D01*
X114569000Y-77193700D02*
X125340900Y-77193700D01*
X110625300Y-73250000D02*
X114569000Y-77193700D01*
X147550100Y-112238200D02*
X147550100Y-110160000D01*
X142213300Y-117575000D02*
X147550100Y-112238200D01*
X140881800Y-117575000D02*
X142213300Y-117575000D01*
X139322100Y-119134700D02*
X140881800Y-117575000D01*
X132150600Y-119134700D02*
X139322100Y-119134700D01*
X131025300Y-120260000D02*
X132150600Y-119134700D01*
X135172400Y-97400000D02*
X135550000Y-97022400D01*
X129900000Y-97400000D02*
X135172400Y-97400000D01*
X137342200Y-98814600D02*
X135550000Y-97022400D01*
X139451700Y-98814600D02*
X137342200Y-98814600D01*
X140576700Y-99939600D02*
X139451700Y-98814600D01*
X143923900Y-99939600D02*
X140576700Y-99939600D01*
X145092200Y-101107900D02*
X143923900Y-99939600D01*
X147644800Y-101107900D02*
X145092200Y-101107900D01*
X135550000Y-97022400D02*
X135550000Y-94400000D01*
X150419300Y-101107900D02*
X147644800Y-101107900D01*
X151910000Y-102598600D02*
X150419300Y-101107900D01*
X151910000Y-109034700D02*
X151910000Y-102598600D01*
X157115000Y-121385000D02*
X158240300Y-121385000D01*
X137370000Y-75250000D02*
X136244700Y-75250000D01*
X163830000Y-120650000D02*
X162654700Y-120650000D01*
X134075800Y-73081100D02*
X136244700Y-75250000D01*
X134075800Y-71761000D02*
X134075800Y-73081100D01*
X134721200Y-71115600D02*
X134075800Y-71761000D01*
X136615600Y-71115600D02*
X134721200Y-71115600D01*
X137750000Y-72250000D02*
X136615600Y-71115600D01*
X158975300Y-120650000D02*
X158240300Y-121385000D01*
X162654700Y-120650000D02*
X158975300Y-120650000D01*
X147920000Y-86580000D02*
X146250000Y-88250000D01*
X152150000Y-86580000D02*
X147920000Y-86580000D01*
X137520000Y-97400000D02*
X137520000Y-96274700D01*
X138050000Y-93034000D02*
X138050000Y-94400000D01*
X141593700Y-89490300D02*
X138050000Y-93034000D01*
X141875000Y-89490300D02*
X141593700Y-89490300D01*
X141875000Y-88365000D02*
X141875000Y-89490300D01*
X138722400Y-95072300D02*
X137520000Y-96274700D01*
X138774600Y-95124600D02*
X138722400Y-95072300D01*
X140617000Y-95124600D02*
X138774600Y-95124600D01*
X138722400Y-95072300D02*
X138050000Y-94400000D01*
G04 #@! TA.AperFunction,Conductor*
G36*
X175438000Y-68516613D02*
G01*
X175483387Y-68562000D01*
X175500000Y-68624000D01*
X175500000Y-130376000D01*
X175483387Y-130438000D01*
X175438000Y-130483387D01*
X175376000Y-130500000D01*
X106624000Y-130500000D01*
X106562000Y-130483387D01*
X106516613Y-130438000D01*
X106500000Y-130376000D01*
X106500000Y-93419466D01*
X106513515Y-93363171D01*
X106551115Y-93319148D01*
X106604602Y-93296993D01*
X106662318Y-93301535D01*
X106711680Y-93331784D01*
X107601729Y-94221834D01*
X108483047Y-95103152D01*
X108514153Y-95155259D01*
X108516809Y-95215886D01*
X108492983Y-95265126D01*
X108493802Y-95265700D01*
X108365584Y-95448813D01*
X108365581Y-95448817D01*
X108362477Y-95453251D01*
X108360188Y-95458159D01*
X108360185Y-95458165D01*
X108268002Y-95655853D01*
X108267999Y-95655860D01*
X108265716Y-95660757D01*
X108264319Y-95665967D01*
X108264316Y-95665978D01*
X108207858Y-95876680D01*
X108207855Y-95876692D01*
X108206457Y-95881913D01*
X108205985Y-95887302D01*
X108205984Y-95887311D01*
X108187813Y-96095013D01*
X108186502Y-96110000D01*
X108186974Y-96115395D01*
X108205984Y-96332688D01*
X108205985Y-96332695D01*
X108206457Y-96338087D01*
X108207856Y-96343308D01*
X108207858Y-96343319D01*
X108264316Y-96554021D01*
X108264318Y-96554028D01*
X108265716Y-96559243D01*
X108268000Y-96564141D01*
X108268002Y-96564146D01*
X108351520Y-96743251D01*
X108362477Y-96766749D01*
X108365582Y-96771183D01*
X108365587Y-96771192D01*
X108479379Y-96933704D01*
X108500495Y-96986856D01*
X108495510Y-97043831D01*
X108465485Y-97092508D01*
X107982494Y-97575500D01*
X107974143Y-97583099D01*
X107967682Y-97587200D01*
X107962342Y-97592885D01*
X107962340Y-97592888D01*
X107921038Y-97636869D01*
X107918333Y-97639661D01*
X107898565Y-97659430D01*
X107896181Y-97662502D01*
X107896178Y-97662506D01*
X107896022Y-97662708D01*
X107888452Y-97671570D01*
X107872361Y-97688707D01*
X107858114Y-97703879D01*
X107854359Y-97710707D01*
X107854358Y-97710710D01*
X107848279Y-97721767D01*
X107837603Y-97738019D01*
X107829868Y-97747991D01*
X107829860Y-97748002D01*
X107825086Y-97754159D01*
X107821991Y-97761310D01*
X107821988Y-97761316D01*
X107807486Y-97794828D01*
X107802348Y-97805315D01*
X107784765Y-97837298D01*
X107784761Y-97837306D01*
X107781005Y-97844140D01*
X107779066Y-97851691D01*
X107779063Y-97851699D01*
X107775925Y-97863922D01*
X107769626Y-97882319D01*
X107761519Y-97901055D01*
X107760299Y-97908753D01*
X107760298Y-97908759D01*
X107754588Y-97944811D01*
X107752220Y-97956245D01*
X107743138Y-97991617D01*
X107743136Y-97991626D01*
X107741200Y-97999170D01*
X107741200Y-98006966D01*
X107741200Y-98019585D01*
X107739672Y-98038983D01*
X107736480Y-98059143D01*
X107737214Y-98066908D01*
X107737214Y-98066911D01*
X107740650Y-98103258D01*
X107741200Y-98114927D01*
X107741200Y-104148054D01*
X107740668Y-104159337D01*
X107738998Y-104166809D01*
X107739243Y-104174605D01*
X107739243Y-104174607D01*
X107741139Y-104234917D01*
X107741200Y-104238813D01*
X107741200Y-104266756D01*
X107741688Y-104270621D01*
X107741689Y-104270632D01*
X107741719Y-104270870D01*
X107742634Y-104282496D01*
X107743781Y-104318996D01*
X107743782Y-104319003D01*
X107744027Y-104326789D01*
X107746200Y-104334270D01*
X107746202Y-104334280D01*
X107749722Y-104346395D01*
X107753667Y-104365442D01*
X107754282Y-104370314D01*
X107756226Y-104385697D01*
X107759095Y-104392945D01*
X107759098Y-104392954D01*
X107772538Y-104426901D01*
X107776321Y-104437948D01*
X107788682Y-104480493D01*
X107792653Y-104487208D01*
X107792654Y-104487210D01*
X107799075Y-104498068D01*
X107807630Y-104515531D01*
X107815148Y-104534517D01*
X107819730Y-104540824D01*
X107819731Y-104540825D01*
X107841191Y-104570362D01*
X107847605Y-104580127D01*
X107870158Y-104618262D01*
X107875676Y-104623780D01*
X107884589Y-104632693D01*
X107897225Y-104647488D01*
X107904638Y-104657691D01*
X107904643Y-104657696D01*
X107909228Y-104664007D01*
X107941567Y-104690760D01*
X107943367Y-104692249D01*
X107952008Y-104700112D01*
X108498017Y-105246121D01*
X108530110Y-105301704D01*
X108530113Y-105365886D01*
X108500490Y-105417206D01*
X108501109Y-105417725D01*
X108498168Y-105421228D01*
X108498028Y-105421473D01*
X108497630Y-105421871D01*
X108497625Y-105421876D01*
X108493802Y-105425700D01*
X108490704Y-105430123D01*
X108490700Y-105430129D01*
X108365584Y-105608813D01*
X108365581Y-105608817D01*
X108362477Y-105613251D01*
X108360188Y-105618159D01*
X108360185Y-105618165D01*
X108268002Y-105815853D01*
X108267999Y-105815860D01*
X108265716Y-105820757D01*
X108264319Y-105825967D01*
X108264316Y-105825978D01*
X108207858Y-106036680D01*
X108207855Y-106036692D01*
X108206457Y-106041913D01*
X108205985Y-106047302D01*
X108205984Y-106047311D01*
X108187877Y-106254284D01*
X108186502Y-106270000D01*
X108186974Y-106275395D01*
X108205984Y-106492688D01*
X108205985Y-106492695D01*
X108206457Y-106498087D01*
X108207856Y-106503308D01*
X108207858Y-106503319D01*
X108264316Y-106714021D01*
X108264318Y-106714028D01*
X108265716Y-106719243D01*
X108268000Y-106724143D01*
X108268002Y-106724146D01*
X108360185Y-106921834D01*
X108362477Y-106926749D01*
X108365584Y-106931186D01*
X108490696Y-107109865D01*
X108490699Y-107109869D01*
X108493802Y-107114300D01*
X108655700Y-107276198D01*
X108843251Y-107407523D01*
X108886346Y-107427618D01*
X108938521Y-107473375D01*
X108957941Y-107540000D01*
X108938521Y-107606625D01*
X108886346Y-107652381D01*
X108868348Y-107660773D01*
X108848161Y-107670187D01*
X108848156Y-107670189D01*
X108843251Y-107672477D01*
X108838817Y-107675581D01*
X108838813Y-107675584D01*
X108660134Y-107800696D01*
X108660124Y-107800703D01*
X108655700Y-107803802D01*
X108651874Y-107807627D01*
X108651868Y-107807633D01*
X108497633Y-107961868D01*
X108497627Y-107961874D01*
X108493802Y-107965700D01*
X108490703Y-107970124D01*
X108490696Y-107970134D01*
X108365584Y-108148813D01*
X108365581Y-108148817D01*
X108362477Y-108153251D01*
X108360188Y-108158159D01*
X108360185Y-108158165D01*
X108268002Y-108355853D01*
X108267999Y-108355860D01*
X108265716Y-108360757D01*
X108264319Y-108365967D01*
X108264316Y-108365978D01*
X108207858Y-108576680D01*
X108207855Y-108576692D01*
X108206457Y-108581913D01*
X108205985Y-108587302D01*
X108205984Y-108587311D01*
X108188430Y-108787961D01*
X108186502Y-108810000D01*
X108186974Y-108815395D01*
X108205984Y-109032688D01*
X108205985Y-109032695D01*
X108206457Y-109038087D01*
X108207856Y-109043308D01*
X108207858Y-109043319D01*
X108264316Y-109254021D01*
X108264318Y-109254028D01*
X108265716Y-109259243D01*
X108285259Y-109301155D01*
X108296824Y-109349950D01*
X108288115Y-109399338D01*
X108260557Y-109441237D01*
X107481693Y-110220100D01*
X107473344Y-110227698D01*
X107466882Y-110231800D01*
X107461541Y-110237486D01*
X107461539Y-110237489D01*
X107420238Y-110281469D01*
X107417533Y-110284261D01*
X107397765Y-110304030D01*
X107395381Y-110307102D01*
X107395378Y-110307106D01*
X107395222Y-110307308D01*
X107387652Y-110316170D01*
X107376270Y-110328292D01*
X107357314Y-110348479D01*
X107353559Y-110355307D01*
X107353558Y-110355310D01*
X107347479Y-110366367D01*
X107336803Y-110382619D01*
X107329068Y-110392591D01*
X107329060Y-110392602D01*
X107324286Y-110398759D01*
X107321191Y-110405910D01*
X107321188Y-110405916D01*
X107306686Y-110439428D01*
X107301548Y-110449915D01*
X107283965Y-110481898D01*
X107283961Y-110481906D01*
X107280205Y-110488740D01*
X107278266Y-110496291D01*
X107278263Y-110496299D01*
X107275125Y-110508522D01*
X107268826Y-110526919D01*
X107260719Y-110545655D01*
X107259499Y-110553353D01*
X107259498Y-110553359D01*
X107253788Y-110589411D01*
X107251420Y-110600845D01*
X107242338Y-110636217D01*
X107242336Y-110636226D01*
X107240400Y-110643770D01*
X107240400Y-110651566D01*
X107240400Y-110664185D01*
X107238873Y-110683583D01*
X107237895Y-110689761D01*
X107235680Y-110703743D01*
X107236414Y-110711508D01*
X107236414Y-110711511D01*
X107239850Y-110747858D01*
X107240400Y-110759527D01*
X107240400Y-121410354D01*
X107239868Y-121421637D01*
X107238198Y-121429109D01*
X107238443Y-121436905D01*
X107238443Y-121436907D01*
X107240339Y-121497217D01*
X107240400Y-121501113D01*
X107240400Y-121529056D01*
X107240888Y-121532921D01*
X107240889Y-121532932D01*
X107240919Y-121533170D01*
X107241834Y-121544796D01*
X107242981Y-121581296D01*
X107242982Y-121581303D01*
X107243227Y-121589089D01*
X107245400Y-121596570D01*
X107245402Y-121596580D01*
X107248922Y-121608695D01*
X107252867Y-121627742D01*
X107255426Y-121647997D01*
X107258295Y-121655245D01*
X107258298Y-121655254D01*
X107271738Y-121689201D01*
X107275521Y-121700248D01*
X107287882Y-121742793D01*
X107291853Y-121749508D01*
X107291854Y-121749510D01*
X107298275Y-121760368D01*
X107306830Y-121777831D01*
X107311287Y-121789086D01*
X107314348Y-121796817D01*
X107318930Y-121803124D01*
X107318931Y-121803125D01*
X107340391Y-121832662D01*
X107346805Y-121842427D01*
X107351563Y-121850472D01*
X107369358Y-121880562D01*
X107374876Y-121886080D01*
X107383789Y-121894993D01*
X107396425Y-121909788D01*
X107403838Y-121919991D01*
X107403843Y-121919996D01*
X107408428Y-121926307D01*
X107441929Y-121954021D01*
X107442567Y-121954549D01*
X107451208Y-121962412D01*
X113655494Y-128166698D01*
X113663096Y-128175051D01*
X113667200Y-128181518D01*
X113672890Y-128186861D01*
X113716867Y-128228158D01*
X113719664Y-128230868D01*
X113739431Y-128250635D01*
X113742510Y-128253023D01*
X113742686Y-128253160D01*
X113751576Y-128260752D01*
X113783879Y-128291086D01*
X113801770Y-128300921D01*
X113818027Y-128311601D01*
X113827996Y-128319333D01*
X113834160Y-128324114D01*
X113841316Y-128327210D01*
X113841315Y-128327210D01*
X113874818Y-128341708D01*
X113885311Y-128346848D01*
X113924140Y-128368195D01*
X113943918Y-128373273D01*
X113962320Y-128379574D01*
X113972197Y-128383847D01*
X113981055Y-128387681D01*
X114024821Y-128394612D01*
X114036241Y-128396977D01*
X114079170Y-128408000D01*
X114099585Y-128408000D01*
X114118983Y-128409527D01*
X114139143Y-128412720D01*
X114177676Y-128409077D01*
X114183258Y-128408550D01*
X114194927Y-128408000D01*
X165094854Y-128408000D01*
X165106137Y-128408531D01*
X165113609Y-128410202D01*
X165181717Y-128408060D01*
X165185613Y-128408000D01*
X165209658Y-128408000D01*
X165213556Y-128408000D01*
X165217424Y-128407511D01*
X165217647Y-128407483D01*
X165229308Y-128406564D01*
X165273589Y-128405173D01*
X165293190Y-128399477D01*
X165312241Y-128395532D01*
X165332497Y-128392974D01*
X165366340Y-128379574D01*
X165373693Y-128376663D01*
X165384743Y-128372879D01*
X165427293Y-128360518D01*
X165444865Y-128350125D01*
X165462332Y-128341568D01*
X165481317Y-128334052D01*
X165517175Y-128307998D01*
X165526923Y-128301596D01*
X165565062Y-128279042D01*
X165579493Y-128264610D01*
X165594288Y-128251972D01*
X165610807Y-128239972D01*
X165639060Y-128205818D01*
X165646903Y-128197199D01*
X169481617Y-124362486D01*
X169489952Y-124354902D01*
X169496418Y-124350800D01*
X169543091Y-124301096D01*
X169545708Y-124298395D01*
X169565535Y-124278570D01*
X169568060Y-124275313D01*
X169575651Y-124266424D01*
X169605986Y-124234121D01*
X169615823Y-124216225D01*
X169626496Y-124199977D01*
X169639014Y-124183841D01*
X169656615Y-124143164D01*
X169661750Y-124132684D01*
X169679335Y-124100699D01*
X169679334Y-124100699D01*
X169683095Y-124093860D01*
X169688174Y-124074073D01*
X169694470Y-124055685D01*
X169702581Y-124036945D01*
X169709512Y-123993176D01*
X169711882Y-123981739D01*
X169722900Y-123938830D01*
X169722900Y-123918415D01*
X169724427Y-123899017D01*
X169724465Y-123898772D01*
X169727620Y-123878857D01*
X169723450Y-123834742D01*
X169722900Y-123823073D01*
X169722900Y-95508235D01*
X169723431Y-95496960D01*
X169725101Y-95489491D01*
X169722960Y-95421400D01*
X169722900Y-95417506D01*
X169722900Y-95393436D01*
X169722900Y-95389544D01*
X169722382Y-95385443D01*
X169721464Y-95373787D01*
X169721364Y-95370598D01*
X169720073Y-95329510D01*
X169714379Y-95309913D01*
X169710431Y-95290849D01*
X169708851Y-95278341D01*
X169707874Y-95270603D01*
X169691562Y-95229405D01*
X169687777Y-95218349D01*
X169679484Y-95189803D01*
X169675418Y-95175807D01*
X169665023Y-95158231D01*
X169656463Y-95140755D01*
X169656441Y-95140700D01*
X169648952Y-95121783D01*
X169622907Y-95085936D01*
X169616503Y-95076188D01*
X169593942Y-95038037D01*
X169579507Y-95023602D01*
X169566869Y-95008805D01*
X169559458Y-94998605D01*
X169559457Y-94998604D01*
X169554872Y-94992293D01*
X169520736Y-94964053D01*
X169512096Y-94956191D01*
X167719062Y-93163157D01*
X167687192Y-93108393D01*
X167686538Y-93045037D01*
X167714564Y-92934368D01*
X167733156Y-92710000D01*
X167714564Y-92485632D01*
X167659296Y-92267384D01*
X167568860Y-92061209D01*
X167470853Y-91911198D01*
X167448525Y-91877022D01*
X167448523Y-91877020D01*
X167445722Y-91872732D01*
X167442247Y-91868957D01*
X167439102Y-91864917D01*
X167440498Y-91863830D01*
X167415175Y-91816287D01*
X167416458Y-91753752D01*
X167448100Y-91699802D01*
X167942512Y-91205390D01*
X167950850Y-91197804D01*
X167957318Y-91193700D01*
X168004006Y-91143979D01*
X168006624Y-91141278D01*
X168026434Y-91121470D01*
X168028964Y-91118208D01*
X168036544Y-91109330D01*
X168066886Y-91077021D01*
X168076722Y-91059127D01*
X168087398Y-91042874D01*
X168099913Y-91026741D01*
X168108063Y-91007905D01*
X168117506Y-90986085D01*
X168122641Y-90975600D01*
X168143995Y-90936760D01*
X168149073Y-90916983D01*
X168155378Y-90898569D01*
X168156049Y-90897018D01*
X168163481Y-90879845D01*
X168170412Y-90836076D01*
X168172782Y-90824639D01*
X168183800Y-90781730D01*
X168183800Y-90761315D01*
X168185327Y-90741917D01*
X168185365Y-90741672D01*
X168188520Y-90721757D01*
X168184350Y-90677642D01*
X168183800Y-90665973D01*
X168183800Y-87208648D01*
X168184331Y-87197363D01*
X168186002Y-87189892D01*
X168183860Y-87121769D01*
X168183800Y-87117875D01*
X168183800Y-87093844D01*
X168183800Y-87089944D01*
X168183283Y-87085858D01*
X168182365Y-87074199D01*
X168181800Y-87056212D01*
X168180974Y-87029911D01*
X168175277Y-87010301D01*
X168171332Y-86991257D01*
X168168774Y-86971003D01*
X168152456Y-86929790D01*
X168148688Y-86918782D01*
X168136319Y-86876207D01*
X168125920Y-86858623D01*
X168117365Y-86841159D01*
X168112725Y-86829440D01*
X168109852Y-86822183D01*
X168091571Y-86797022D01*
X168083812Y-86786342D01*
X168077398Y-86776578D01*
X168076286Y-86774697D01*
X168054842Y-86738438D01*
X168040407Y-86724002D01*
X168027770Y-86709207D01*
X168025049Y-86705462D01*
X168015772Y-86692693D01*
X168009760Y-86687720D01*
X168009757Y-86687716D01*
X167981625Y-86664443D01*
X167972985Y-86656581D01*
X167433005Y-86116600D01*
X167401364Y-86062658D01*
X167400073Y-86000135D01*
X167429458Y-85944934D01*
X167445722Y-85927268D01*
X167568860Y-85738791D01*
X167659296Y-85532616D01*
X167714564Y-85314368D01*
X167733156Y-85090000D01*
X167714564Y-84865632D01*
X167659296Y-84647384D01*
X167657234Y-84642685D01*
X167655571Y-84637838D01*
X167657331Y-84637233D01*
X167649184Y-84579063D01*
X167675905Y-84517456D01*
X167730824Y-84478812D01*
X167797835Y-84474467D01*
X167953713Y-84507600D01*
X168138184Y-84507600D01*
X168144687Y-84507600D01*
X168331488Y-84467894D01*
X168505952Y-84390218D01*
X168660453Y-84277966D01*
X168788240Y-84136044D01*
X168883727Y-83970656D01*
X168942742Y-83789028D01*
X168960489Y-83620170D01*
X168971064Y-83581517D01*
X168993416Y-83548255D01*
X169015986Y-83524221D01*
X169025823Y-83506325D01*
X169036496Y-83490077D01*
X169049014Y-83473941D01*
X169066615Y-83433264D01*
X169071750Y-83422784D01*
X169075813Y-83415395D01*
X169093095Y-83383960D01*
X169098174Y-83364173D01*
X169104470Y-83345785D01*
X169112581Y-83327045D01*
X169119512Y-83283276D01*
X169121882Y-83271839D01*
X169124385Y-83262091D01*
X169132900Y-83228930D01*
X169132900Y-83208515D01*
X169134427Y-83189117D01*
X169134713Y-83187311D01*
X169137620Y-83168957D01*
X169133450Y-83124842D01*
X169132900Y-83113173D01*
X169132900Y-72236048D01*
X169133431Y-72224763D01*
X169135102Y-72217292D01*
X169132960Y-72149169D01*
X169132900Y-72145275D01*
X169132900Y-72121244D01*
X169132900Y-72117344D01*
X169132383Y-72113258D01*
X169131465Y-72101599D01*
X169131412Y-72099907D01*
X169130074Y-72057311D01*
X169124377Y-72037701D01*
X169120432Y-72018657D01*
X169117874Y-71998403D01*
X169101556Y-71957190D01*
X169097788Y-71946182D01*
X169085419Y-71903607D01*
X169075020Y-71886023D01*
X169066465Y-71868559D01*
X169061825Y-71856840D01*
X169058952Y-71849583D01*
X169032912Y-71813742D01*
X169026498Y-71803978D01*
X169018749Y-71790875D01*
X169003942Y-71765838D01*
X168989507Y-71751403D01*
X168976870Y-71736607D01*
X168964872Y-71720093D01*
X168958860Y-71715120D01*
X168958857Y-71715116D01*
X168930725Y-71691843D01*
X168922085Y-71683981D01*
X166074295Y-68836190D01*
X166066703Y-68827848D01*
X166062600Y-68821382D01*
X166012916Y-68774726D01*
X166010150Y-68772045D01*
X165993127Y-68755022D01*
X165993127Y-68755021D01*
X165990370Y-68752265D01*
X165987086Y-68749717D01*
X165978223Y-68742146D01*
X165948669Y-68714394D01*
X165916621Y-68665271D01*
X165910734Y-68606915D01*
X165932324Y-68552382D01*
X165976563Y-68513871D01*
X166033551Y-68500000D01*
X175376000Y-68500000D01*
X175438000Y-68516613D01*
G37*
G04 #@! TD.AperFunction*
G04 #@! TA.AperFunction,Conductor*
G36*
X127546087Y-113118339D02*
G01*
X127586314Y-113145218D01*
X128169890Y-113728795D01*
X128743302Y-114302207D01*
X128750898Y-114310555D01*
X128755000Y-114317018D01*
X128768332Y-114329538D01*
X128800311Y-114378465D01*
X128806321Y-114436612D01*
X128785024Y-114491050D01*
X128765580Y-114518818D01*
X128765575Y-114518826D01*
X128762477Y-114523251D01*
X128760192Y-114528150D01*
X128760188Y-114528158D01*
X128668002Y-114725853D01*
X128667999Y-114725860D01*
X128665716Y-114730757D01*
X128664319Y-114735967D01*
X128664316Y-114735978D01*
X128607858Y-114946680D01*
X128607855Y-114946692D01*
X128606457Y-114951913D01*
X128605985Y-114957302D01*
X128605984Y-114957311D01*
X128591105Y-115127384D01*
X128586502Y-115180000D01*
X128586974Y-115185395D01*
X128605984Y-115402688D01*
X128605985Y-115402695D01*
X128606457Y-115408087D01*
X128607856Y-115413308D01*
X128607858Y-115413319D01*
X128664316Y-115624021D01*
X128664318Y-115624028D01*
X128665716Y-115629243D01*
X128668000Y-115634143D01*
X128668002Y-115634146D01*
X128760185Y-115831834D01*
X128762477Y-115836749D01*
X128786815Y-115871507D01*
X128890696Y-116019865D01*
X128890699Y-116019869D01*
X128893802Y-116024300D01*
X129055700Y-116186198D01*
X129060132Y-116189301D01*
X129060134Y-116189303D01*
X129078143Y-116201913D01*
X129243251Y-116317523D01*
X129286346Y-116337618D01*
X129338521Y-116383375D01*
X129357941Y-116450000D01*
X129338521Y-116516625D01*
X129286346Y-116562381D01*
X129271863Y-116569135D01*
X129248161Y-116580187D01*
X129248156Y-116580189D01*
X129243251Y-116582477D01*
X129238817Y-116585581D01*
X129238813Y-116585584D01*
X129060134Y-116710696D01*
X129060124Y-116710703D01*
X129055700Y-116713802D01*
X129051874Y-116717627D01*
X129051868Y-116717633D01*
X128897633Y-116871868D01*
X128897627Y-116871874D01*
X128893802Y-116875700D01*
X128890703Y-116880124D01*
X128890696Y-116880134D01*
X128765584Y-117058813D01*
X128765581Y-117058817D01*
X128762477Y-117063251D01*
X128760188Y-117068159D01*
X128760185Y-117068165D01*
X128668002Y-117265853D01*
X128667999Y-117265860D01*
X128665716Y-117270757D01*
X128664319Y-117275967D01*
X128664316Y-117275978D01*
X128607858Y-117486680D01*
X128607855Y-117486692D01*
X128606457Y-117491913D01*
X128605985Y-117497302D01*
X128605984Y-117497311D01*
X128591105Y-117667384D01*
X128586502Y-117720000D01*
X128586974Y-117725395D01*
X128605984Y-117942688D01*
X128605985Y-117942695D01*
X128606457Y-117948087D01*
X128607856Y-117953308D01*
X128607858Y-117953319D01*
X128664316Y-118164021D01*
X128664318Y-118164028D01*
X128665716Y-118169243D01*
X128668000Y-118174143D01*
X128668002Y-118174146D01*
X128760185Y-118371834D01*
X128762477Y-118376749D01*
X128781909Y-118404500D01*
X128890696Y-118559865D01*
X128890699Y-118559869D01*
X128893802Y-118564300D01*
X129055700Y-118726198D01*
X129060132Y-118729301D01*
X129060134Y-118729303D01*
X129078143Y-118741913D01*
X129243251Y-118857523D01*
X129296401Y-118882307D01*
X129348576Y-118928061D01*
X129367996Y-118994686D01*
X129348578Y-119061311D01*
X129296403Y-119107069D01*
X129252421Y-119127578D01*
X129243087Y-119132967D01*
X129065618Y-119257232D01*
X129057352Y-119264169D01*
X128904169Y-119417352D01*
X128897232Y-119425618D01*
X128772967Y-119603087D01*
X128767579Y-119612419D01*
X128676022Y-119808765D01*
X128672330Y-119818907D01*
X128624820Y-119996219D01*
X128624452Y-120007448D01*
X128635395Y-120010000D01*
X131164605Y-120010000D01*
X131175547Y-120007448D01*
X131175179Y-119996219D01*
X131127669Y-119818907D01*
X131123977Y-119808765D01*
X131032420Y-119612419D01*
X131027032Y-119603087D01*
X130902767Y-119425618D01*
X130895830Y-119417352D01*
X130742647Y-119264169D01*
X130734381Y-119257232D01*
X130556912Y-119132967D01*
X130547583Y-119127581D01*
X130503597Y-119107070D01*
X130451422Y-119061312D01*
X130432003Y-118994686D01*
X130451424Y-118928061D01*
X130503598Y-118882307D01*
X130556749Y-118857523D01*
X130744300Y-118726198D01*
X130906198Y-118564300D01*
X131037523Y-118376749D01*
X131134284Y-118169243D01*
X131193543Y-117948087D01*
X131213498Y-117720000D01*
X131193543Y-117491913D01*
X131185693Y-117462618D01*
X131135683Y-117275978D01*
X131135682Y-117275977D01*
X131134284Y-117270757D01*
X131037523Y-117063251D01*
X130906198Y-116875700D01*
X130744300Y-116713802D01*
X130739869Y-116710699D01*
X130739865Y-116710696D01*
X130561186Y-116585584D01*
X130561187Y-116585584D01*
X130556749Y-116582477D01*
X130513650Y-116562380D01*
X130461478Y-116516626D01*
X130442058Y-116450000D01*
X130461478Y-116383374D01*
X130513650Y-116337619D01*
X130556749Y-116317523D01*
X130744300Y-116186198D01*
X130906198Y-116024300D01*
X131037523Y-115836749D01*
X131134284Y-115629243D01*
X131193543Y-115408087D01*
X131213498Y-115180000D01*
X131193543Y-114951913D01*
X131180921Y-114904809D01*
X131135683Y-114735978D01*
X131135682Y-114735977D01*
X131134284Y-114730757D01*
X131129222Y-114719901D01*
X131117870Y-114659391D01*
X131137024Y-114600875D01*
X131181962Y-114558786D01*
X131241605Y-114543500D01*
X132270934Y-114543500D01*
X132318387Y-114552939D01*
X132358615Y-114579819D01*
X135890994Y-118112198D01*
X135898596Y-118120551D01*
X135902700Y-118127018D01*
X135942105Y-118164021D01*
X135952367Y-118173658D01*
X135955165Y-118176369D01*
X135974931Y-118196135D01*
X135978010Y-118198523D01*
X135978186Y-118198660D01*
X135987076Y-118206252D01*
X136019379Y-118236586D01*
X136037270Y-118246421D01*
X136053527Y-118257101D01*
X136063496Y-118264833D01*
X136069660Y-118269614D01*
X136106251Y-118285448D01*
X136110318Y-118287208D01*
X136120811Y-118292348D01*
X136159640Y-118313695D01*
X136179418Y-118318773D01*
X136197820Y-118325074D01*
X136207466Y-118329248D01*
X136216555Y-118333181D01*
X136260321Y-118340112D01*
X136271741Y-118342477D01*
X136314670Y-118353500D01*
X136318306Y-118353500D01*
X136364433Y-118369518D01*
X136401958Y-118404571D01*
X136510696Y-118559865D01*
X136510699Y-118559869D01*
X136513802Y-118564300D01*
X136675700Y-118726198D01*
X136680132Y-118729301D01*
X136680134Y-118729303D01*
X136698143Y-118741913D01*
X136863251Y-118857523D01*
X136906346Y-118877618D01*
X136958521Y-118923375D01*
X136977941Y-118990000D01*
X136958521Y-119056625D01*
X136906346Y-119102381D01*
X136896294Y-119107069D01*
X136868161Y-119120187D01*
X136868156Y-119120189D01*
X136863251Y-119122477D01*
X136858817Y-119125581D01*
X136858813Y-119125584D01*
X136680134Y-119250696D01*
X136680124Y-119250703D01*
X136675700Y-119253802D01*
X136671874Y-119257627D01*
X136671868Y-119257633D01*
X136517633Y-119411868D01*
X136517627Y-119411874D01*
X136513802Y-119415700D01*
X136510703Y-119420124D01*
X136510696Y-119420134D01*
X136385584Y-119598813D01*
X136385581Y-119598817D01*
X136382477Y-119603251D01*
X136380188Y-119608159D01*
X136380185Y-119608165D01*
X136288002Y-119805853D01*
X136287999Y-119805860D01*
X136285716Y-119810757D01*
X136284319Y-119815967D01*
X136284316Y-119815978D01*
X136227858Y-120026680D01*
X136227855Y-120026692D01*
X136226457Y-120031913D01*
X136225985Y-120037302D01*
X136225984Y-120037311D01*
X136209170Y-120229499D01*
X136206502Y-120260000D01*
X136206974Y-120265395D01*
X136225984Y-120482688D01*
X136225985Y-120482695D01*
X136226457Y-120488087D01*
X136227856Y-120493308D01*
X136227858Y-120493319D01*
X136284316Y-120704021D01*
X136284318Y-120704028D01*
X136285716Y-120709243D01*
X136288000Y-120714143D01*
X136288002Y-120714146D01*
X136380185Y-120911834D01*
X136382477Y-120916749D01*
X136410862Y-120957287D01*
X136510696Y-121099865D01*
X136510699Y-121099869D01*
X136513802Y-121104300D01*
X136675700Y-121266198D01*
X136680132Y-121269301D01*
X136680134Y-121269303D01*
X136713890Y-121292939D01*
X136863251Y-121397523D01*
X137070757Y-121494284D01*
X137075977Y-121495682D01*
X137075978Y-121495683D01*
X137286680Y-121552141D01*
X137286682Y-121552141D01*
X137291913Y-121553543D01*
X137520000Y-121573498D01*
X137748087Y-121553543D01*
X137969243Y-121494284D01*
X138176749Y-121397523D01*
X138364300Y-121266198D01*
X138472268Y-121158229D01*
X138527852Y-121126138D01*
X138592039Y-121126138D01*
X138647627Y-121158232D01*
X139647214Y-122157819D01*
X139677464Y-122207182D01*
X139682006Y-122264898D01*
X139659851Y-122318385D01*
X139615828Y-122355985D01*
X139559533Y-122369500D01*
X127672066Y-122369500D01*
X127624613Y-122360061D01*
X127584385Y-122333181D01*
X126989291Y-121738087D01*
X126368997Y-121117792D01*
X126361400Y-121109444D01*
X126357300Y-121102982D01*
X126351614Y-121097642D01*
X126351612Y-121097640D01*
X126307631Y-121056340D01*
X126304834Y-121053629D01*
X126287827Y-121036622D01*
X126287826Y-121036621D01*
X126285070Y-121033865D01*
X126281786Y-121031317D01*
X126272924Y-121023746D01*
X126246309Y-120998754D01*
X126246303Y-120998749D01*
X126240621Y-120993414D01*
X126233788Y-120989658D01*
X126233782Y-120989653D01*
X126222729Y-120983576D01*
X126206474Y-120972899D01*
X126196509Y-120965170D01*
X126196506Y-120965168D01*
X126190341Y-120960386D01*
X126149676Y-120942789D01*
X126139184Y-120937649D01*
X126107196Y-120920063D01*
X126107194Y-120920062D01*
X126100360Y-120916305D01*
X126080584Y-120911227D01*
X126062181Y-120904926D01*
X126050609Y-120899918D01*
X126050601Y-120899915D01*
X126043445Y-120896819D01*
X126035740Y-120895598D01*
X126035738Y-120895598D01*
X125999681Y-120889887D01*
X125988255Y-120887521D01*
X125945330Y-120876500D01*
X125941692Y-120876500D01*
X125895565Y-120860482D01*
X125858041Y-120825428D01*
X125749307Y-120670139D01*
X125749302Y-120670133D01*
X125746198Y-120665700D01*
X125593049Y-120512551D01*
X128624452Y-120512551D01*
X128624820Y-120523780D01*
X128672330Y-120701092D01*
X128676022Y-120711234D01*
X128767579Y-120907580D01*
X128772967Y-120916912D01*
X128897232Y-121094381D01*
X128904169Y-121102647D01*
X129057352Y-121255830D01*
X129065618Y-121262767D01*
X129243087Y-121387032D01*
X129252419Y-121392420D01*
X129448765Y-121483977D01*
X129458907Y-121487669D01*
X129636219Y-121535179D01*
X129647448Y-121535547D01*
X129650000Y-121524605D01*
X130150000Y-121524605D01*
X130152551Y-121535547D01*
X130163780Y-121535179D01*
X130341092Y-121487669D01*
X130351234Y-121483977D01*
X130547580Y-121392420D01*
X130556912Y-121387032D01*
X130734381Y-121262767D01*
X130742647Y-121255830D01*
X130895830Y-121102647D01*
X130902767Y-121094381D01*
X131027032Y-120916912D01*
X131032420Y-120907580D01*
X131123977Y-120711234D01*
X131127669Y-120701092D01*
X131175179Y-120523780D01*
X131175547Y-120512551D01*
X131164605Y-120510000D01*
X130166326Y-120510000D01*
X130153450Y-120513450D01*
X130150000Y-120526326D01*
X130150000Y-121524605D01*
X129650000Y-121524605D01*
X129650000Y-120526326D01*
X129646549Y-120513450D01*
X129633674Y-120510000D01*
X128635395Y-120510000D01*
X128624452Y-120512551D01*
X125593049Y-120512551D01*
X125584300Y-120503802D01*
X125579869Y-120500699D01*
X125579865Y-120500696D01*
X125401186Y-120375584D01*
X125401187Y-120375584D01*
X125396749Y-120372477D01*
X125353650Y-120352380D01*
X125301478Y-120306626D01*
X125282058Y-120240000D01*
X125301478Y-120173374D01*
X125353650Y-120127619D01*
X125396749Y-120107523D01*
X125584300Y-119976198D01*
X125746198Y-119814300D01*
X125877523Y-119626749D01*
X125974284Y-119419243D01*
X126033543Y-119198087D01*
X126053498Y-118970000D01*
X126033543Y-118741913D01*
X126028305Y-118722366D01*
X125975683Y-118525978D01*
X125975682Y-118525977D01*
X125974284Y-118520757D01*
X125877523Y-118313251D01*
X125750862Y-118132361D01*
X125749303Y-118130134D01*
X125749301Y-118130132D01*
X125746198Y-118125700D01*
X125584300Y-117963802D01*
X125579869Y-117960699D01*
X125579865Y-117960696D01*
X125401186Y-117835584D01*
X125401187Y-117835584D01*
X125396749Y-117832477D01*
X125353650Y-117812380D01*
X125301478Y-117766626D01*
X125282058Y-117700000D01*
X125301478Y-117633374D01*
X125353650Y-117587619D01*
X125396749Y-117567523D01*
X125584300Y-117436198D01*
X125746198Y-117274300D01*
X125877523Y-117086749D01*
X125974284Y-116879243D01*
X126033543Y-116658087D01*
X126053498Y-116430000D01*
X126033543Y-116201913D01*
X126028305Y-116182366D01*
X125975683Y-115985978D01*
X125975682Y-115985977D01*
X125974284Y-115980757D01*
X125877523Y-115773251D01*
X125772443Y-115623181D01*
X125749303Y-115590134D01*
X125749301Y-115590132D01*
X125746198Y-115585700D01*
X125584300Y-115423802D01*
X125579869Y-115420699D01*
X125579865Y-115420696D01*
X125401186Y-115295584D01*
X125401187Y-115295584D01*
X125396749Y-115292477D01*
X125353651Y-115272380D01*
X125301477Y-115226623D01*
X125282058Y-115159997D01*
X125301479Y-115093371D01*
X125353652Y-115047619D01*
X125396749Y-115027523D01*
X125584300Y-114896198D01*
X125746198Y-114734300D01*
X125877523Y-114546749D01*
X125974284Y-114339243D01*
X126033543Y-114118087D01*
X126053498Y-113890000D01*
X126033543Y-113661913D01*
X126023030Y-113622680D01*
X125975683Y-113445978D01*
X125975682Y-113445977D01*
X125974284Y-113440757D01*
X125936104Y-113358879D01*
X125901796Y-113285304D01*
X125890444Y-113224790D01*
X125909598Y-113166275D01*
X125954536Y-113124186D01*
X126014178Y-113108900D01*
X127498634Y-113108900D01*
X127546087Y-113118339D01*
G37*
G04 #@! TD.AperFunction*
G04 #@! TA.AperFunction,Conductor*
G36*
X151496995Y-102466959D02*
G01*
X151551018Y-102498623D01*
X154463702Y-105411307D01*
X154471298Y-105419655D01*
X154475400Y-105426118D01*
X154525084Y-105472774D01*
X154527848Y-105475453D01*
X154547630Y-105495235D01*
X154550706Y-105497621D01*
X154550903Y-105497774D01*
X154559782Y-105505358D01*
X154592079Y-105535686D01*
X154609965Y-105545518D01*
X154626229Y-105556202D01*
X154636192Y-105563931D01*
X154636195Y-105563933D01*
X154642359Y-105568714D01*
X154649522Y-105571813D01*
X154649523Y-105571814D01*
X154683016Y-105586307D01*
X154693512Y-105591448D01*
X154732340Y-105612795D01*
X154752116Y-105617872D01*
X154770523Y-105624175D01*
X154782091Y-105629181D01*
X154782092Y-105629181D01*
X154789255Y-105632281D01*
X154833021Y-105639212D01*
X154844441Y-105641577D01*
X154887370Y-105652600D01*
X154907785Y-105652600D01*
X154927183Y-105654127D01*
X154947343Y-105657320D01*
X154985876Y-105653677D01*
X154991458Y-105653150D01*
X155003127Y-105652600D01*
X155216600Y-105652600D01*
X155278600Y-105669213D01*
X155323987Y-105714600D01*
X155340600Y-105776600D01*
X155340600Y-109114654D01*
X155340068Y-109125937D01*
X155338398Y-109133409D01*
X155338643Y-109141205D01*
X155338643Y-109141207D01*
X155340539Y-109201517D01*
X155340600Y-109205413D01*
X155340600Y-109233356D01*
X155341088Y-109237221D01*
X155341089Y-109237232D01*
X155341119Y-109237470D01*
X155342034Y-109249096D01*
X155343181Y-109285596D01*
X155343182Y-109285603D01*
X155343427Y-109293389D01*
X155345600Y-109300870D01*
X155345602Y-109300880D01*
X155349122Y-109312995D01*
X155353067Y-109332042D01*
X155355626Y-109352297D01*
X155358495Y-109359545D01*
X155358498Y-109359554D01*
X155371938Y-109393501D01*
X155375721Y-109404548D01*
X155379290Y-109416833D01*
X155388082Y-109447093D01*
X155392053Y-109453808D01*
X155392054Y-109453810D01*
X155398475Y-109464668D01*
X155407030Y-109482131D01*
X155414548Y-109501117D01*
X155419130Y-109507424D01*
X155419131Y-109507425D01*
X155440591Y-109536962D01*
X155447005Y-109546727D01*
X155462227Y-109572466D01*
X155469558Y-109584862D01*
X155475076Y-109590380D01*
X155483989Y-109599293D01*
X155496625Y-109614088D01*
X155504038Y-109624291D01*
X155504043Y-109624296D01*
X155508628Y-109630607D01*
X155537268Y-109654300D01*
X155542767Y-109658849D01*
X155551408Y-109666712D01*
X156100238Y-110215542D01*
X156131347Y-110267656D01*
X156133996Y-110328292D01*
X156108671Y-110380608D01*
X156108802Y-110380700D01*
X156108236Y-110381506D01*
X156108232Y-110381513D01*
X156105707Y-110385119D01*
X156105702Y-110385126D01*
X155980584Y-110563813D01*
X155980581Y-110563817D01*
X155977477Y-110568251D01*
X155975188Y-110573159D01*
X155975185Y-110573165D01*
X155883002Y-110770853D01*
X155882999Y-110770860D01*
X155880716Y-110775757D01*
X155879319Y-110780967D01*
X155879316Y-110780978D01*
X155822858Y-110991680D01*
X155822855Y-110991692D01*
X155821457Y-110996913D01*
X155820985Y-111002302D01*
X155820984Y-111002311D01*
X155803169Y-111205942D01*
X155801502Y-111225000D01*
X155801974Y-111230395D01*
X155820984Y-111447688D01*
X155820985Y-111447695D01*
X155821457Y-111453087D01*
X155822856Y-111458308D01*
X155822858Y-111458319D01*
X155879316Y-111669021D01*
X155879318Y-111669028D01*
X155880716Y-111674243D01*
X155883000Y-111679143D01*
X155883002Y-111679146D01*
X155954494Y-111832461D01*
X155977477Y-111881749D01*
X155988835Y-111897970D01*
X156105696Y-112064865D01*
X156105699Y-112064869D01*
X156108802Y-112069300D01*
X156270700Y-112231198D01*
X156458251Y-112362523D01*
X156501346Y-112382618D01*
X156553521Y-112428375D01*
X156572941Y-112495000D01*
X156553521Y-112561625D01*
X156501346Y-112607381D01*
X156495641Y-112610042D01*
X156463161Y-112625187D01*
X156463156Y-112625189D01*
X156458251Y-112627477D01*
X156453817Y-112630581D01*
X156453813Y-112630584D01*
X156275134Y-112755696D01*
X156275124Y-112755703D01*
X156270700Y-112758802D01*
X156266874Y-112762627D01*
X156266868Y-112762633D01*
X156112633Y-112916868D01*
X156112627Y-112916874D01*
X156108802Y-112920700D01*
X156105703Y-112925124D01*
X156105696Y-112925134D01*
X155980584Y-113103813D01*
X155980581Y-113103817D01*
X155977477Y-113108251D01*
X155975188Y-113113159D01*
X155975185Y-113113165D01*
X155883002Y-113310853D01*
X155882999Y-113310860D01*
X155880716Y-113315757D01*
X155879319Y-113320967D01*
X155879316Y-113320978D01*
X155822858Y-113531680D01*
X155822855Y-113531692D01*
X155821457Y-113536913D01*
X155820985Y-113542302D01*
X155820984Y-113542311D01*
X155801974Y-113759605D01*
X155801502Y-113765000D01*
X155801974Y-113770395D01*
X155820984Y-113987688D01*
X155820985Y-113987695D01*
X155821457Y-113993087D01*
X155822856Y-113998308D01*
X155822858Y-113998319D01*
X155879316Y-114209021D01*
X155879318Y-114209028D01*
X155880716Y-114214243D01*
X155883000Y-114219143D01*
X155883002Y-114219146D01*
X155971558Y-114409055D01*
X155977477Y-114421749D01*
X155980582Y-114426183D01*
X155980584Y-114426186D01*
X156105696Y-114604865D01*
X156105699Y-114604869D01*
X156108802Y-114609300D01*
X156270700Y-114771198D01*
X156458251Y-114902523D01*
X156501345Y-114922618D01*
X156553520Y-114968372D01*
X156572941Y-115034997D01*
X156553523Y-115101622D01*
X156501348Y-115147380D01*
X156463162Y-115165186D01*
X156463153Y-115165191D01*
X156458251Y-115167477D01*
X156453817Y-115170581D01*
X156453813Y-115170584D01*
X156275134Y-115295696D01*
X156275124Y-115295703D01*
X156270700Y-115298802D01*
X156266874Y-115302627D01*
X156266868Y-115302633D01*
X156112633Y-115456868D01*
X156112627Y-115456874D01*
X156108802Y-115460700D01*
X156105703Y-115465124D01*
X156105696Y-115465134D01*
X155995031Y-115623181D01*
X155954140Y-115660193D01*
X155901244Y-115675812D01*
X155877834Y-115677285D01*
X155877832Y-115677285D01*
X155870050Y-115677775D01*
X155862635Y-115680184D01*
X155862625Y-115680186D01*
X155862026Y-115680381D01*
X155839263Y-115685469D01*
X155839153Y-115685483D01*
X155838637Y-115685548D01*
X155838630Y-115685549D01*
X155830903Y-115686526D01*
X155823655Y-115689395D01*
X155823649Y-115689397D01*
X155778639Y-115707217D01*
X155771315Y-115709854D01*
X155725242Y-115724825D01*
X155725235Y-115724828D01*
X155717825Y-115727236D01*
X155711249Y-115731408D01*
X155711238Y-115731414D01*
X155710693Y-115731761D01*
X155689930Y-115742340D01*
X155689338Y-115742574D01*
X155689329Y-115742578D01*
X155682083Y-115745448D01*
X155675777Y-115750029D01*
X155675774Y-115750031D01*
X155636605Y-115778488D01*
X155630167Y-115782863D01*
X155589272Y-115808816D01*
X155589263Y-115808823D01*
X155582682Y-115813000D01*
X155577342Y-115818685D01*
X155577337Y-115818690D01*
X155576906Y-115819150D01*
X155559411Y-115834573D01*
X155552593Y-115839528D01*
X155547624Y-115845533D01*
X155547620Y-115845538D01*
X155516751Y-115882851D01*
X155511604Y-115888689D01*
X155478453Y-115923992D01*
X155478448Y-115923998D01*
X155473114Y-115929679D01*
X155469356Y-115936512D01*
X155469356Y-115936514D01*
X155469053Y-115937066D01*
X155455944Y-115956355D01*
X155455537Y-115956846D01*
X155455531Y-115956854D01*
X155450567Y-115962856D01*
X155447250Y-115969902D01*
X155447247Y-115969909D01*
X155426627Y-116013729D01*
X155423092Y-116020667D01*
X155399763Y-116063103D01*
X155399761Y-116063106D01*
X155396005Y-116069940D01*
X155394065Y-116077494D01*
X155394062Y-116077502D01*
X155393906Y-116078110D01*
X155386009Y-116100046D01*
X155385737Y-116100622D01*
X155385732Y-116100634D01*
X155382417Y-116107682D01*
X155380957Y-116115334D01*
X155380955Y-116115341D01*
X155371882Y-116162903D01*
X155370184Y-116170500D01*
X155358138Y-116217417D01*
X155358136Y-116217426D01*
X155356200Y-116224970D01*
X155356200Y-116232766D01*
X155356200Y-116233393D01*
X155354003Y-116256629D01*
X155353886Y-116257241D01*
X155353885Y-116257250D01*
X155352425Y-116264906D01*
X155352914Y-116272684D01*
X155352914Y-116272690D01*
X155355542Y-116314460D01*
X155347782Y-116366077D01*
X155319468Y-116409926D01*
X153361214Y-118368181D01*
X153320986Y-118395061D01*
X153273533Y-118404500D01*
X153216813Y-118404500D01*
X153210454Y-118405851D01*
X153210450Y-118405852D01*
X153036372Y-118442853D01*
X153036361Y-118442856D01*
X153030012Y-118444206D01*
X153024082Y-118446845D01*
X153024073Y-118446849D01*
X152861482Y-118519239D01*
X152861474Y-118519243D01*
X152855548Y-118521882D01*
X152850299Y-118525695D01*
X152850293Y-118525699D01*
X152706300Y-118630316D01*
X152706291Y-118630323D01*
X152701047Y-118634134D01*
X152696703Y-118638957D01*
X152696700Y-118638961D01*
X152580909Y-118767561D01*
X152573260Y-118776056D01*
X152570014Y-118781676D01*
X152570011Y-118781682D01*
X152481021Y-118935817D01*
X152481018Y-118935822D01*
X152477773Y-118941444D01*
X152475767Y-118947616D01*
X152475765Y-118947622D01*
X152420765Y-119116892D01*
X152420763Y-119116901D01*
X152418758Y-119123072D01*
X152418080Y-119129522D01*
X152418078Y-119129532D01*
X152403928Y-119264169D01*
X152398796Y-119313000D01*
X152399475Y-119319460D01*
X152418078Y-119496467D01*
X152418079Y-119496475D01*
X152418758Y-119502928D01*
X152420763Y-119509100D01*
X152420765Y-119509107D01*
X152470193Y-119661228D01*
X152477773Y-119684556D01*
X152481020Y-119690180D01*
X152481021Y-119690182D01*
X152554892Y-119818131D01*
X152573260Y-119849944D01*
X152701047Y-119991866D01*
X152706297Y-119995680D01*
X152706300Y-119995683D01*
X152814609Y-120074374D01*
X152855548Y-120104118D01*
X152861481Y-120106759D01*
X152861482Y-120106760D01*
X153011102Y-120173375D01*
X153030012Y-120181794D01*
X153036370Y-120183145D01*
X153036372Y-120183146D01*
X153042874Y-120184528D01*
X153216813Y-120221500D01*
X153401288Y-120221500D01*
X153407787Y-120221500D01*
X153408576Y-120221332D01*
X153465973Y-120229499D01*
X153514666Y-120265265D01*
X153540677Y-120319797D01*
X153537832Y-120380147D01*
X153506805Y-120431989D01*
X153116814Y-120821981D01*
X153076586Y-120848861D01*
X153029133Y-120858300D01*
X152970013Y-120858300D01*
X152963654Y-120859651D01*
X152963650Y-120859652D01*
X152789572Y-120896653D01*
X152789561Y-120896656D01*
X152783212Y-120898006D01*
X152777282Y-120900645D01*
X152777273Y-120900649D01*
X152614682Y-120973039D01*
X152614674Y-120973043D01*
X152608748Y-120975682D01*
X152603499Y-120979495D01*
X152603493Y-120979499D01*
X152459500Y-121084116D01*
X152459491Y-121084123D01*
X152454247Y-121087934D01*
X152449903Y-121092757D01*
X152449900Y-121092761D01*
X152330807Y-121225028D01*
X152326460Y-121229856D01*
X152323214Y-121235476D01*
X152323211Y-121235482D01*
X152234221Y-121389617D01*
X152234218Y-121389622D01*
X152230973Y-121395244D01*
X152228967Y-121401416D01*
X152228965Y-121401422D01*
X152173965Y-121570692D01*
X152173963Y-121570701D01*
X152171958Y-121576872D01*
X152171280Y-121583322D01*
X152171278Y-121583332D01*
X152155046Y-121737782D01*
X152151996Y-121766800D01*
X152152675Y-121773260D01*
X152152675Y-121776100D01*
X152136062Y-121838100D01*
X152090675Y-121883487D01*
X152028675Y-121900100D01*
X143253238Y-121900100D01*
X143198394Y-121887312D01*
X143154862Y-121851586D01*
X143131621Y-121800291D01*
X143133463Y-121744006D01*
X143148441Y-121688110D01*
X143168543Y-121613087D01*
X143188498Y-121385000D01*
X143168543Y-121156913D01*
X143166740Y-121150186D01*
X143110683Y-120940978D01*
X143110682Y-120940977D01*
X143109284Y-120935757D01*
X143012523Y-120728251D01*
X142881198Y-120540700D01*
X142719300Y-120378802D01*
X142714869Y-120375699D01*
X142714865Y-120375696D01*
X142556846Y-120265050D01*
X142531749Y-120247477D01*
X142488650Y-120227380D01*
X142436478Y-120181626D01*
X142417058Y-120115000D01*
X142436478Y-120048374D01*
X142488650Y-120002619D01*
X142531749Y-119982523D01*
X142719300Y-119851198D01*
X142881198Y-119689300D01*
X143012523Y-119501749D01*
X143109284Y-119294243D01*
X143168543Y-119073087D01*
X143188498Y-118845000D01*
X143168543Y-118616913D01*
X143152660Y-118557639D01*
X143110683Y-118400978D01*
X143110682Y-118400977D01*
X143109284Y-118395757D01*
X143012523Y-118188251D01*
X142930044Y-118070459D01*
X142884303Y-118005134D01*
X142884301Y-118005132D01*
X142881198Y-118000700D01*
X142719300Y-117838802D01*
X142714869Y-117835699D01*
X142714865Y-117835696D01*
X142557338Y-117725395D01*
X142531749Y-117707477D01*
X142488650Y-117687380D01*
X142436478Y-117641626D01*
X142417058Y-117575000D01*
X142436478Y-117508374D01*
X142488650Y-117462619D01*
X142531749Y-117442523D01*
X142719300Y-117311198D01*
X142881198Y-117149300D01*
X143012523Y-116961749D01*
X143109284Y-116754243D01*
X143168543Y-116533087D01*
X143188498Y-116305000D01*
X143168543Y-116076913D01*
X143152660Y-116017639D01*
X143110683Y-115860978D01*
X143110682Y-115860977D01*
X143109284Y-115855757D01*
X143012523Y-115648251D01*
X142881198Y-115460700D01*
X142882934Y-115459484D01*
X142861073Y-115414358D01*
X142863712Y-115353707D01*
X142894823Y-115301579D01*
X145058617Y-113137786D01*
X145066952Y-113130202D01*
X145073418Y-113126100D01*
X145120092Y-113076394D01*
X145122708Y-113073694D01*
X145142535Y-113053870D01*
X145145060Y-113050613D01*
X145152651Y-113041724D01*
X145182986Y-113009421D01*
X145192823Y-112991525D01*
X145203496Y-112975277D01*
X145216014Y-112959141D01*
X145233615Y-112918464D01*
X145238750Y-112907984D01*
X145256335Y-112875999D01*
X145256334Y-112875999D01*
X145260095Y-112869160D01*
X145265174Y-112849373D01*
X145271470Y-112830985D01*
X145279581Y-112812245D01*
X145286512Y-112768476D01*
X145288882Y-112757039D01*
X145289256Y-112755584D01*
X145299900Y-112714130D01*
X145299900Y-112693715D01*
X145301427Y-112674317D01*
X145301465Y-112674072D01*
X145304620Y-112654157D01*
X145300450Y-112610042D01*
X145299900Y-112598373D01*
X145299900Y-111017740D01*
X145313415Y-110961445D01*
X145351015Y-110917422D01*
X145404502Y-110895267D01*
X145462218Y-110899809D01*
X145511581Y-110930059D01*
X145657352Y-111075830D01*
X145665618Y-111082767D01*
X145843087Y-111207032D01*
X145852419Y-111212420D01*
X146048765Y-111303977D01*
X146058907Y-111307669D01*
X146236219Y-111355179D01*
X146247448Y-111355547D01*
X146250000Y-111344605D01*
X146750000Y-111344605D01*
X146752551Y-111355547D01*
X146763780Y-111355179D01*
X146941092Y-111307669D01*
X146951234Y-111303977D01*
X147147580Y-111212420D01*
X147156912Y-111207032D01*
X147334381Y-111082767D01*
X147342647Y-111075830D01*
X147495830Y-110922647D01*
X147502767Y-110914381D01*
X147627032Y-110736912D01*
X147632420Y-110727580D01*
X147723977Y-110531234D01*
X147727669Y-110521092D01*
X147756752Y-110412551D01*
X150634452Y-110412551D01*
X150634820Y-110423780D01*
X150682330Y-110601092D01*
X150686022Y-110611234D01*
X150777579Y-110807580D01*
X150782967Y-110816912D01*
X150907232Y-110994381D01*
X150914169Y-111002647D01*
X151067352Y-111155830D01*
X151075618Y-111162767D01*
X151253087Y-111287032D01*
X151262419Y-111292420D01*
X151458765Y-111383977D01*
X151468907Y-111387669D01*
X151646219Y-111435179D01*
X151657448Y-111435547D01*
X151660000Y-111424605D01*
X152160000Y-111424605D01*
X152162551Y-111435547D01*
X152173780Y-111435179D01*
X152351092Y-111387669D01*
X152361234Y-111383977D01*
X152557580Y-111292420D01*
X152566912Y-111287032D01*
X152744381Y-111162767D01*
X152752647Y-111155830D01*
X152905830Y-111002647D01*
X152912767Y-110994381D01*
X153037032Y-110816912D01*
X153042420Y-110807580D01*
X153133977Y-110611234D01*
X153137669Y-110601092D01*
X153185179Y-110423780D01*
X153185547Y-110412551D01*
X153174605Y-110410000D01*
X152176326Y-110410000D01*
X152163450Y-110413450D01*
X152160000Y-110426326D01*
X152160000Y-111424605D01*
X151660000Y-111424605D01*
X151660000Y-110426326D01*
X151656549Y-110413450D01*
X151643674Y-110410000D01*
X150645395Y-110410000D01*
X150634452Y-110412551D01*
X147756752Y-110412551D01*
X147775179Y-110343780D01*
X147775547Y-110332551D01*
X147764605Y-110330000D01*
X146766326Y-110330000D01*
X146753450Y-110333450D01*
X146750000Y-110346326D01*
X146750000Y-111344605D01*
X146250000Y-111344605D01*
X146250000Y-109954000D01*
X146262474Y-109907448D01*
X150634452Y-109907448D01*
X150645395Y-109910000D01*
X151643674Y-109910000D01*
X151656549Y-109906549D01*
X151660000Y-109893674D01*
X152160000Y-109893674D01*
X152163450Y-109906549D01*
X152176326Y-109910000D01*
X153174605Y-109910000D01*
X153185547Y-109907448D01*
X153185179Y-109896219D01*
X153137669Y-109718907D01*
X153133977Y-109708765D01*
X153042420Y-109512419D01*
X153037032Y-109503087D01*
X152912767Y-109325618D01*
X152905830Y-109317352D01*
X152752647Y-109164169D01*
X152744381Y-109157232D01*
X152566912Y-109032967D01*
X152557580Y-109027579D01*
X152361234Y-108936022D01*
X152351092Y-108932330D01*
X152173780Y-108884820D01*
X152162551Y-108884452D01*
X152160000Y-108895395D01*
X152160000Y-109893674D01*
X151660000Y-109893674D01*
X151660000Y-108895395D01*
X151657448Y-108884452D01*
X151646219Y-108884820D01*
X151468907Y-108932330D01*
X151458765Y-108936022D01*
X151262419Y-109027579D01*
X151253087Y-109032967D01*
X151075618Y-109157232D01*
X151067352Y-109164169D01*
X150914169Y-109317352D01*
X150907232Y-109325618D01*
X150782967Y-109503087D01*
X150777579Y-109512419D01*
X150686022Y-109708765D01*
X150682330Y-109718907D01*
X150634820Y-109896219D01*
X150634452Y-109907448D01*
X146262474Y-109907448D01*
X146266613Y-109892000D01*
X146312000Y-109846613D01*
X146374000Y-109830000D01*
X147764605Y-109830000D01*
X147775547Y-109827448D01*
X147775179Y-109816219D01*
X147727669Y-109638907D01*
X147723977Y-109628765D01*
X147632420Y-109432419D01*
X147627032Y-109423087D01*
X147502767Y-109245618D01*
X147495830Y-109237352D01*
X147342647Y-109084169D01*
X147334381Y-109077232D01*
X147156912Y-108952967D01*
X147147580Y-108947579D01*
X147093554Y-108922387D01*
X147047583Y-108885491D01*
X147023843Y-108831537D01*
X147027698Y-108772717D01*
X147058274Y-108722329D01*
X150938785Y-104841818D01*
X150979013Y-104814939D01*
X151026466Y-104805500D01*
X151076684Y-104805500D01*
X151083187Y-104805500D01*
X151269988Y-104765794D01*
X151444452Y-104688118D01*
X151598953Y-104575866D01*
X151726740Y-104433944D01*
X151822227Y-104268556D01*
X151881242Y-104086928D01*
X151901204Y-103897000D01*
X151881242Y-103707072D01*
X151822227Y-103525444D01*
X151726740Y-103360056D01*
X151598953Y-103218134D01*
X151593703Y-103214319D01*
X151593699Y-103214316D01*
X151449706Y-103109699D01*
X151449704Y-103109697D01*
X151444452Y-103105882D01*
X151438521Y-103103241D01*
X151438517Y-103103239D01*
X151275926Y-103030849D01*
X151275919Y-103030846D01*
X151269988Y-103028206D01*
X151263632Y-103026855D01*
X151263623Y-103026852D01*
X151243092Y-103022488D01*
X151185902Y-102993347D01*
X151150945Y-102939515D01*
X151147587Y-102875416D01*
X151176726Y-102818228D01*
X151237940Y-102750244D01*
X151333427Y-102584856D01*
X151345407Y-102547984D01*
X151379164Y-102495249D01*
X151434389Y-102465730D01*
X151496995Y-102466959D01*
G37*
G04 #@! TD.AperFunction*
G04 #@! TA.AperFunction,Conductor*
G36*
X140753958Y-117017639D02*
G01*
X140806584Y-117060444D01*
X140816780Y-117075005D01*
X140865696Y-117144865D01*
X140865699Y-117144869D01*
X140868802Y-117149300D01*
X141030700Y-117311198D01*
X141035132Y-117314301D01*
X141035134Y-117314303D01*
X141055027Y-117328232D01*
X141218251Y-117442523D01*
X141261346Y-117462618D01*
X141313521Y-117508375D01*
X141332941Y-117575000D01*
X141313521Y-117641625D01*
X141261346Y-117687381D01*
X141243348Y-117695773D01*
X141223161Y-117705187D01*
X141223156Y-117705189D01*
X141218251Y-117707477D01*
X141213817Y-117710581D01*
X141213813Y-117710584D01*
X141035134Y-117835696D01*
X141035124Y-117835703D01*
X141030700Y-117838802D01*
X141026874Y-117842627D01*
X141026868Y-117842633D01*
X140872633Y-117996868D01*
X140872627Y-117996874D01*
X140868802Y-118000700D01*
X140865703Y-118005124D01*
X140865696Y-118005134D01*
X140740584Y-118183813D01*
X140740581Y-118183817D01*
X140737477Y-118188251D01*
X140735188Y-118193159D01*
X140735185Y-118193165D01*
X140643002Y-118390853D01*
X140642999Y-118390860D01*
X140640716Y-118395757D01*
X140639319Y-118400967D01*
X140639316Y-118400978D01*
X140582858Y-118611680D01*
X140582855Y-118611692D01*
X140581457Y-118616913D01*
X140580985Y-118622302D01*
X140580984Y-118622311D01*
X140561974Y-118839605D01*
X140561502Y-118845000D01*
X140561974Y-118850395D01*
X140580984Y-119067688D01*
X140580985Y-119067695D01*
X140581457Y-119073087D01*
X140582856Y-119078308D01*
X140582858Y-119078319D01*
X140639316Y-119289021D01*
X140639318Y-119289028D01*
X140640716Y-119294243D01*
X140643000Y-119299143D01*
X140643002Y-119299146D01*
X140699422Y-119420139D01*
X140737477Y-119501749D01*
X140740584Y-119506186D01*
X140865696Y-119684865D01*
X140865699Y-119684869D01*
X140868802Y-119689300D01*
X141030700Y-119851198D01*
X141035132Y-119854301D01*
X141035134Y-119854303D01*
X141042055Y-119859149D01*
X141218251Y-119982523D01*
X141261346Y-120002618D01*
X141313521Y-120048375D01*
X141332941Y-120115000D01*
X141313521Y-120181625D01*
X141261346Y-120227381D01*
X141246604Y-120234256D01*
X141223161Y-120245187D01*
X141223156Y-120245189D01*
X141218251Y-120247477D01*
X141213817Y-120250581D01*
X141213813Y-120250584D01*
X141035134Y-120375696D01*
X141035124Y-120375703D01*
X141030700Y-120378802D01*
X141026874Y-120382627D01*
X141026868Y-120382633D01*
X140872633Y-120536868D01*
X140872627Y-120536874D01*
X140868802Y-120540700D01*
X140865703Y-120545124D01*
X140865696Y-120545134D01*
X140740584Y-120723813D01*
X140740581Y-120723817D01*
X140737477Y-120728251D01*
X140735188Y-120733159D01*
X140735185Y-120733165D01*
X140643002Y-120930853D01*
X140642999Y-120930860D01*
X140640716Y-120935757D01*
X140639319Y-120940967D01*
X140639316Y-120940978D01*
X140606753Y-121062505D01*
X140574659Y-121118093D01*
X140519071Y-121150186D01*
X140454884Y-121150186D01*
X140399297Y-121118092D01*
X139148996Y-119867791D01*
X139141401Y-119859444D01*
X139137300Y-119852982D01*
X139087630Y-119806340D01*
X139084831Y-119803627D01*
X139065070Y-119783865D01*
X139061786Y-119781317D01*
X139052924Y-119773746D01*
X139026309Y-119748754D01*
X139026303Y-119748749D01*
X139020621Y-119743414D01*
X139013788Y-119739658D01*
X139013782Y-119739653D01*
X139002729Y-119733576D01*
X138986474Y-119722899D01*
X138976509Y-119715170D01*
X138976506Y-119715168D01*
X138970341Y-119710386D01*
X138929676Y-119692789D01*
X138919184Y-119687649D01*
X138887196Y-119670063D01*
X138887194Y-119670062D01*
X138880360Y-119666305D01*
X138860584Y-119661227D01*
X138842181Y-119654926D01*
X138830609Y-119649918D01*
X138830601Y-119649915D01*
X138823445Y-119646819D01*
X138815740Y-119645598D01*
X138815738Y-119645598D01*
X138779681Y-119639887D01*
X138768255Y-119637521D01*
X138725330Y-119626500D01*
X138721692Y-119626500D01*
X138675565Y-119610482D01*
X138638041Y-119575428D01*
X138529307Y-119420139D01*
X138529302Y-119420133D01*
X138526198Y-119415700D01*
X138364300Y-119253802D01*
X138359869Y-119250699D01*
X138359865Y-119250696D01*
X138191730Y-119132967D01*
X138176749Y-119122477D01*
X138133650Y-119102380D01*
X138081478Y-119056626D01*
X138062058Y-118990000D01*
X138081478Y-118923374D01*
X138133650Y-118877619D01*
X138176749Y-118857523D01*
X138364300Y-118726198D01*
X138526198Y-118564300D01*
X138657523Y-118376749D01*
X138754284Y-118169243D01*
X138813543Y-117948087D01*
X138833498Y-117720000D01*
X138816591Y-117526758D01*
X138826490Y-117466311D01*
X138864118Y-117417975D01*
X138920294Y-117393549D01*
X138981307Y-117398994D01*
X139032269Y-117432982D01*
X139104647Y-117513366D01*
X139109897Y-117517180D01*
X139109900Y-117517183D01*
X139238637Y-117610716D01*
X139259148Y-117625618D01*
X139265081Y-117628259D01*
X139265082Y-117628260D01*
X139426213Y-117700000D01*
X139433612Y-117703294D01*
X139439970Y-117704645D01*
X139439972Y-117704646D01*
X139476774Y-117712468D01*
X139620413Y-117743000D01*
X139804884Y-117743000D01*
X139811387Y-117743000D01*
X139998188Y-117703294D01*
X140172652Y-117625618D01*
X140327153Y-117513366D01*
X140454940Y-117371444D01*
X140550427Y-117206056D01*
X140587080Y-117093248D01*
X140624890Y-117036928D01*
X140686681Y-117008931D01*
X140753958Y-117017639D01*
G37*
G04 #@! TD.AperFunction*
G04 #@! TA.AperFunction,Conductor*
G36*
X162536465Y-112313845D02*
G01*
X162581256Y-112355078D01*
X162601024Y-112412660D01*
X162591004Y-112472710D01*
X162542764Y-112582686D01*
X162542761Y-112582693D01*
X162540704Y-112587384D01*
X162539446Y-112592349D01*
X162539445Y-112592354D01*
X162486695Y-112800657D01*
X162486693Y-112800666D01*
X162485436Y-112805632D01*
X162485012Y-112810741D01*
X162485011Y-112810751D01*
X162469179Y-113001821D01*
X162466844Y-113030000D01*
X162467268Y-113035117D01*
X162485011Y-113249248D01*
X162485012Y-113249256D01*
X162485436Y-113254368D01*
X162486693Y-113259335D01*
X162486695Y-113259342D01*
X162532017Y-113438311D01*
X162540704Y-113472616D01*
X162548246Y-113489810D01*
X162629080Y-113674096D01*
X162629083Y-113674101D01*
X162631140Y-113678791D01*
X162663809Y-113728795D01*
X162751474Y-113862977D01*
X162751477Y-113862981D01*
X162754278Y-113867268D01*
X162757752Y-113871041D01*
X162757753Y-113871043D01*
X162903288Y-114029135D01*
X162903291Y-114029138D01*
X162906760Y-114032906D01*
X162910801Y-114036051D01*
X163080376Y-114168039D01*
X163080381Y-114168042D01*
X163084424Y-114171189D01*
X163088931Y-114173628D01*
X163088934Y-114173630D01*
X163120930Y-114190945D01*
X163168436Y-114236526D01*
X163185913Y-114300000D01*
X163168436Y-114363474D01*
X163120930Y-114409055D01*
X163088934Y-114426369D01*
X163088922Y-114426376D01*
X163084424Y-114428811D01*
X163080389Y-114431951D01*
X163080376Y-114431960D01*
X162910801Y-114563948D01*
X162910795Y-114563952D01*
X162906760Y-114567094D01*
X162903297Y-114570855D01*
X162903288Y-114570864D01*
X162757753Y-114728956D01*
X162757747Y-114728963D01*
X162754278Y-114732732D01*
X162751481Y-114737012D01*
X162751474Y-114737022D01*
X162641852Y-114904813D01*
X162631140Y-114921209D01*
X162629085Y-114925892D01*
X162629080Y-114925903D01*
X162560000Y-115083393D01*
X162540704Y-115127384D01*
X162539446Y-115132349D01*
X162539445Y-115132354D01*
X162486695Y-115340657D01*
X162486693Y-115340666D01*
X162485436Y-115345632D01*
X162485012Y-115350741D01*
X162485011Y-115350751D01*
X162467268Y-115564883D01*
X162466844Y-115570000D01*
X162467268Y-115575117D01*
X162485011Y-115789248D01*
X162485012Y-115789256D01*
X162485436Y-115794368D01*
X162486693Y-115799335D01*
X162486695Y-115799342D01*
X162532636Y-115980757D01*
X162540704Y-116012616D01*
X162548988Y-116031501D01*
X162629080Y-116214096D01*
X162629083Y-116214101D01*
X162631140Y-116218791D01*
X162663809Y-116268795D01*
X162751474Y-116402977D01*
X162751477Y-116402981D01*
X162754278Y-116407268D01*
X162757752Y-116411041D01*
X162757753Y-116411043D01*
X162903288Y-116569135D01*
X162903291Y-116569138D01*
X162906760Y-116572906D01*
X162919057Y-116582477D01*
X163080376Y-116708039D01*
X163080381Y-116708042D01*
X163084424Y-116711189D01*
X163088931Y-116713628D01*
X163088934Y-116713630D01*
X163120930Y-116730945D01*
X163168436Y-116776526D01*
X163185913Y-116840000D01*
X163168436Y-116903474D01*
X163120930Y-116949055D01*
X163088934Y-116966369D01*
X163088922Y-116966376D01*
X163084424Y-116968811D01*
X163080389Y-116971951D01*
X163080376Y-116971960D01*
X162910801Y-117103948D01*
X162910795Y-117103952D01*
X162906760Y-117107094D01*
X162903297Y-117110855D01*
X162903288Y-117110864D01*
X162757753Y-117268956D01*
X162757747Y-117268963D01*
X162754278Y-117272732D01*
X162751481Y-117277012D01*
X162751474Y-117277022D01*
X162636870Y-117452438D01*
X162631140Y-117461209D01*
X162629085Y-117465892D01*
X162629080Y-117465903D01*
X162552002Y-117641626D01*
X162540704Y-117667384D01*
X162539446Y-117672349D01*
X162539445Y-117672354D01*
X162486695Y-117880657D01*
X162486693Y-117880666D01*
X162485436Y-117885632D01*
X162485012Y-117890741D01*
X162485011Y-117890751D01*
X162475533Y-118005142D01*
X162466844Y-118110000D01*
X162467268Y-118115117D01*
X162485011Y-118329248D01*
X162485012Y-118329256D01*
X162485436Y-118334368D01*
X162486693Y-118339335D01*
X162486695Y-118339342D01*
X162533958Y-118525978D01*
X162540704Y-118552616D01*
X162548988Y-118571501D01*
X162629080Y-118754096D01*
X162629083Y-118754101D01*
X162631140Y-118758791D01*
X162663809Y-118808795D01*
X162751474Y-118942977D01*
X162751477Y-118942981D01*
X162754278Y-118947268D01*
X162757752Y-118951041D01*
X162757753Y-118951043D01*
X162903288Y-119109135D01*
X162903291Y-119109138D01*
X162906760Y-119112906D01*
X162925614Y-119127581D01*
X163080376Y-119248039D01*
X163080381Y-119248042D01*
X163084424Y-119251189D01*
X163120930Y-119270945D01*
X163168434Y-119316523D01*
X163185913Y-119379996D01*
X163168437Y-119443471D01*
X163120933Y-119489053D01*
X163088930Y-119506372D01*
X163088925Y-119506374D01*
X163084424Y-119508811D01*
X163080389Y-119511951D01*
X163080376Y-119511960D01*
X162910801Y-119643948D01*
X162910795Y-119643952D01*
X162906760Y-119647094D01*
X162903297Y-119650855D01*
X162903288Y-119650864D01*
X162757753Y-119808956D01*
X162757747Y-119808963D01*
X162754278Y-119812732D01*
X162751482Y-119817011D01*
X162751470Y-119817027D01*
X162657853Y-119960321D01*
X162613062Y-120001555D01*
X162554044Y-120016500D01*
X159054147Y-120016500D01*
X159042862Y-120015968D01*
X159035391Y-120014298D01*
X159027593Y-120014543D01*
X158967269Y-120016439D01*
X158963374Y-120016500D01*
X158935444Y-120016500D01*
X158931589Y-120016986D01*
X158931555Y-120016989D01*
X158931324Y-120017019D01*
X158919705Y-120017933D01*
X158883205Y-120019080D01*
X158883197Y-120019081D01*
X158875411Y-120019326D01*
X158867925Y-120021500D01*
X158867922Y-120021501D01*
X158855799Y-120025023D01*
X158836761Y-120028965D01*
X158824246Y-120030546D01*
X158824233Y-120030549D01*
X158816503Y-120031526D01*
X158809257Y-120034394D01*
X158809248Y-120034397D01*
X158775304Y-120047836D01*
X158764261Y-120051617D01*
X158729196Y-120061805D01*
X158729188Y-120061808D01*
X158721707Y-120063982D01*
X158714995Y-120067950D01*
X158714995Y-120067951D01*
X158704134Y-120074374D01*
X158686670Y-120082929D01*
X158674936Y-120087575D01*
X158674929Y-120087578D01*
X158667683Y-120090448D01*
X158661379Y-120095027D01*
X158661368Y-120095034D01*
X158631834Y-120116491D01*
X158622076Y-120122901D01*
X158590655Y-120141483D01*
X158590641Y-120141493D01*
X158583938Y-120145458D01*
X158578422Y-120150973D01*
X158578419Y-120150976D01*
X158569497Y-120159897D01*
X158554714Y-120172523D01*
X158544506Y-120179940D01*
X158544500Y-120179944D01*
X158538193Y-120184528D01*
X158533226Y-120190530D01*
X158533215Y-120190542D01*
X158509943Y-120218673D01*
X158502083Y-120227311D01*
X158242627Y-120486767D01*
X158187040Y-120518861D01*
X158122852Y-120518861D01*
X158067265Y-120486767D01*
X157963131Y-120382633D01*
X157963131Y-120382632D01*
X157959300Y-120378802D01*
X157954869Y-120375699D01*
X157954865Y-120375696D01*
X157796846Y-120265050D01*
X157771749Y-120247477D01*
X157728650Y-120227380D01*
X157676478Y-120181626D01*
X157657058Y-120115000D01*
X157676478Y-120048374D01*
X157728650Y-120002619D01*
X157771749Y-119982523D01*
X157959300Y-119851198D01*
X158121198Y-119689300D01*
X158252523Y-119501749D01*
X158349284Y-119294243D01*
X158408543Y-119073087D01*
X158428498Y-118845000D01*
X158408543Y-118616913D01*
X158392660Y-118557639D01*
X158350683Y-118400978D01*
X158350682Y-118400977D01*
X158349284Y-118395757D01*
X158252523Y-118188251D01*
X158170044Y-118070459D01*
X158124303Y-118005134D01*
X158124301Y-118005132D01*
X158121198Y-118000700D01*
X157959300Y-117838802D01*
X157954869Y-117835699D01*
X157954865Y-117835696D01*
X157797338Y-117725395D01*
X157771749Y-117707477D01*
X157728650Y-117687380D01*
X157676478Y-117641626D01*
X157657058Y-117575000D01*
X157676478Y-117508374D01*
X157728650Y-117462619D01*
X157771749Y-117442523D01*
X157959300Y-117311198D01*
X158121198Y-117149300D01*
X158252523Y-116961749D01*
X158349284Y-116754243D01*
X158408543Y-116533087D01*
X158428498Y-116305000D01*
X158408543Y-116076913D01*
X158392660Y-116017639D01*
X158350683Y-115860978D01*
X158350682Y-115860977D01*
X158349284Y-115855757D01*
X158252523Y-115648251D01*
X158121198Y-115460700D01*
X157959300Y-115298802D01*
X157954869Y-115295699D01*
X157954865Y-115295696D01*
X157797338Y-115185395D01*
X157771749Y-115167477D01*
X157728650Y-115147380D01*
X157676478Y-115101626D01*
X157657058Y-115035000D01*
X157676478Y-114968374D01*
X157728650Y-114922619D01*
X157771749Y-114902523D01*
X157959300Y-114771198D01*
X158121198Y-114609300D01*
X158233604Y-114448767D01*
X158276207Y-114410812D01*
X158324771Y-114397711D01*
X158324681Y-114397139D01*
X158330044Y-114396289D01*
X158331293Y-114395952D01*
X158340189Y-114395673D01*
X158359790Y-114389977D01*
X158378841Y-114386032D01*
X158399097Y-114383474D01*
X158430322Y-114371110D01*
X158440293Y-114367163D01*
X158451343Y-114363379D01*
X158493893Y-114351018D01*
X158511465Y-114340625D01*
X158528932Y-114332068D01*
X158547917Y-114324552D01*
X158583775Y-114298498D01*
X158593523Y-114292096D01*
X158631662Y-114269542D01*
X158646093Y-114255110D01*
X158660888Y-114242472D01*
X158677407Y-114230472D01*
X158705660Y-114196318D01*
X158713503Y-114187699D01*
X160565985Y-112335219D01*
X160606214Y-112308339D01*
X160653667Y-112298900D01*
X162477448Y-112298900D01*
X162536465Y-112313845D01*
G37*
G04 #@! TD.AperFunction*
G04 #@! TA.AperFunction,Conductor*
G36*
X165159018Y-118767561D02*
G01*
X165203809Y-118808795D01*
X165291470Y-118942972D01*
X165291478Y-118942982D01*
X165294278Y-118947268D01*
X165297752Y-118951041D01*
X165297753Y-118951043D01*
X165443288Y-119109135D01*
X165443291Y-119109138D01*
X165446760Y-119112906D01*
X165465614Y-119127581D01*
X165620376Y-119248039D01*
X165620381Y-119248042D01*
X165624424Y-119251189D01*
X165660926Y-119270943D01*
X165667695Y-119274606D01*
X165713335Y-119317155D01*
X165732475Y-119376545D01*
X165720267Y-119437737D01*
X165679803Y-119485236D01*
X165503352Y-119608788D01*
X165495092Y-119615719D01*
X165335719Y-119775092D01*
X165328788Y-119783352D01*
X165205132Y-119959952D01*
X165159928Y-119999274D01*
X165101564Y-120012812D01*
X165043665Y-119997405D01*
X164999748Y-119956649D01*
X164908529Y-119817027D01*
X164908523Y-119817019D01*
X164905722Y-119812732D01*
X164841741Y-119743231D01*
X164756711Y-119650864D01*
X164756708Y-119650861D01*
X164753240Y-119647094D01*
X164708690Y-119612419D01*
X164579623Y-119511960D01*
X164579615Y-119511955D01*
X164575576Y-119508811D01*
X164571069Y-119506372D01*
X164571060Y-119506366D01*
X164539068Y-119489053D01*
X164491562Y-119443471D01*
X164474086Y-119379996D01*
X164491565Y-119316522D01*
X164539067Y-119270946D01*
X164575576Y-119251189D01*
X164753240Y-119112906D01*
X164905722Y-118947268D01*
X164913204Y-118935817D01*
X164996191Y-118808795D01*
X165040982Y-118767561D01*
X165100000Y-118752616D01*
X165159018Y-118767561D01*
G37*
G04 #@! TD.AperFunction*
G04 #@! TA.AperFunction,Conductor*
G36*
X147074587Y-98035539D02*
G01*
X147114815Y-98062419D01*
X150213783Y-101161387D01*
X150244524Y-101212297D01*
X150248026Y-101271665D01*
X150223481Y-101325836D01*
X150176537Y-101362348D01*
X150048082Y-101419539D01*
X150048074Y-101419543D01*
X150042148Y-101422182D01*
X150036899Y-101425995D01*
X150036893Y-101425999D01*
X149892900Y-101530616D01*
X149892891Y-101530623D01*
X149887647Y-101534434D01*
X149883303Y-101539257D01*
X149883300Y-101539261D01*
X149773164Y-101661580D01*
X149759860Y-101676356D01*
X149756614Y-101681976D01*
X149756611Y-101681982D01*
X149667623Y-101836113D01*
X149667619Y-101836121D01*
X149664373Y-101841744D01*
X149662365Y-101847920D01*
X149662364Y-101847925D01*
X149659141Y-101857845D01*
X149628893Y-101907201D01*
X143295263Y-108240830D01*
X143244869Y-108271410D01*
X143186050Y-108275265D01*
X143132095Y-108251525D01*
X143095200Y-108205554D01*
X143088624Y-108191451D01*
X143012523Y-108028251D01*
X143009416Y-108023814D01*
X143009411Y-108023805D01*
X142906080Y-107876235D01*
X142884963Y-107823083D01*
X142889948Y-107766108D01*
X142919971Y-107717432D01*
X147136285Y-103501118D01*
X147176513Y-103474239D01*
X147223966Y-103464800D01*
X147274184Y-103464800D01*
X147280687Y-103464800D01*
X147467488Y-103425094D01*
X147641952Y-103347418D01*
X147796453Y-103235166D01*
X147924240Y-103093244D01*
X148019727Y-102927856D01*
X148078742Y-102746228D01*
X148098704Y-102556300D01*
X148078742Y-102366372D01*
X148019727Y-102184744D01*
X147924240Y-102019356D01*
X147796453Y-101877434D01*
X147791203Y-101873619D01*
X147791199Y-101873616D01*
X147647206Y-101768999D01*
X147647204Y-101768997D01*
X147641952Y-101765182D01*
X147636021Y-101762541D01*
X147636017Y-101762539D01*
X147473426Y-101690149D01*
X147473419Y-101690146D01*
X147467488Y-101687506D01*
X147461135Y-101686155D01*
X147461127Y-101686153D01*
X147287049Y-101649152D01*
X147287046Y-101649151D01*
X147280687Y-101647800D01*
X147089713Y-101647800D01*
X147083357Y-101649150D01*
X147083347Y-101649152D01*
X147024880Y-101661580D01*
X146973317Y-101661580D01*
X146926212Y-101640606D01*
X146891713Y-101602290D01*
X146880840Y-101583456D01*
X146753053Y-101441534D01*
X146747798Y-101437716D01*
X146747795Y-101437713D01*
X146727394Y-101422891D01*
X146685107Y-101368522D01*
X146678355Y-101299976D01*
X146709223Y-101238402D01*
X146768184Y-101202798D01*
X146949243Y-101154284D01*
X147156749Y-101057523D01*
X147344300Y-100926198D01*
X147506198Y-100764300D01*
X147637523Y-100576749D01*
X147734284Y-100369243D01*
X147793543Y-100148087D01*
X147813498Y-99920000D01*
X147793543Y-99691913D01*
X147791052Y-99682618D01*
X147735683Y-99475978D01*
X147735682Y-99475977D01*
X147734284Y-99470757D01*
X147637523Y-99263251D01*
X147533799Y-99115118D01*
X147509303Y-99080134D01*
X147509301Y-99080132D01*
X147506198Y-99075700D01*
X147344300Y-98913802D01*
X147339869Y-98910699D01*
X147339865Y-98910696D01*
X147161186Y-98785584D01*
X147161187Y-98785584D01*
X147156749Y-98782477D01*
X147120805Y-98765716D01*
X146954146Y-98688002D01*
X146954143Y-98688000D01*
X146949243Y-98685716D01*
X146944028Y-98684318D01*
X146944021Y-98684316D01*
X146733319Y-98627858D01*
X146733308Y-98627856D01*
X146728087Y-98626457D01*
X146722695Y-98625985D01*
X146722688Y-98625984D01*
X146505395Y-98606974D01*
X146500000Y-98606502D01*
X146494605Y-98606974D01*
X146277311Y-98625984D01*
X146277302Y-98625985D01*
X146271913Y-98626457D01*
X146266692Y-98627855D01*
X146266680Y-98627858D01*
X146055978Y-98684316D01*
X146055967Y-98684319D01*
X146050757Y-98685716D01*
X146045860Y-98687999D01*
X146045853Y-98688002D01*
X145848165Y-98780185D01*
X145848159Y-98780188D01*
X145843251Y-98782477D01*
X145838817Y-98785581D01*
X145838813Y-98785584D01*
X145660134Y-98910696D01*
X145660124Y-98910703D01*
X145655700Y-98913802D01*
X145651874Y-98917627D01*
X145651868Y-98917633D01*
X145497633Y-99071868D01*
X145497627Y-99071874D01*
X145493802Y-99075700D01*
X145490703Y-99080124D01*
X145490696Y-99080134D01*
X145365584Y-99258813D01*
X145365581Y-99258817D01*
X145362477Y-99263251D01*
X145360188Y-99268159D01*
X145360185Y-99268165D01*
X145268002Y-99465853D01*
X145267999Y-99465860D01*
X145265716Y-99470757D01*
X145264319Y-99475967D01*
X145264316Y-99475978D01*
X145207858Y-99686680D01*
X145207855Y-99686692D01*
X145206457Y-99691913D01*
X145205985Y-99697302D01*
X145205984Y-99697311D01*
X145192381Y-99852800D01*
X145186502Y-99920000D01*
X145186974Y-99925395D01*
X145205984Y-100142688D01*
X145205985Y-100142695D01*
X145206457Y-100148087D01*
X145207856Y-100153308D01*
X145207858Y-100153319D01*
X145264316Y-100364021D01*
X145264318Y-100364028D01*
X145265716Y-100369243D01*
X145268000Y-100374143D01*
X145268002Y-100374146D01*
X145360160Y-100571780D01*
X145362477Y-100576749D01*
X145392376Y-100619449D01*
X145490696Y-100759865D01*
X145490699Y-100759869D01*
X145493802Y-100764300D01*
X145655700Y-100926198D01*
X145660132Y-100929301D01*
X145660134Y-100929303D01*
X145839478Y-101054881D01*
X145880964Y-101104542D01*
X145891783Y-101168341D01*
X145868989Y-101228903D01*
X145818790Y-101269735D01*
X145690986Y-101326637D01*
X145690976Y-101326642D01*
X145685048Y-101329282D01*
X145679799Y-101333095D01*
X145679793Y-101333099D01*
X145535800Y-101437716D01*
X145535791Y-101437723D01*
X145530547Y-101441534D01*
X145526203Y-101446357D01*
X145526200Y-101446361D01*
X145490694Y-101485795D01*
X145451493Y-101529333D01*
X145450377Y-101530572D01*
X145408662Y-101560880D01*
X145358227Y-101571600D01*
X143255516Y-101571600D01*
X143200672Y-101558812D01*
X143157140Y-101523086D01*
X143133899Y-101471791D01*
X143135741Y-101415507D01*
X143157873Y-101332906D01*
X143168543Y-101293087D01*
X143188498Y-101065000D01*
X143168543Y-100836913D01*
X143164676Y-100822483D01*
X143110683Y-100620978D01*
X143110682Y-100620977D01*
X143109284Y-100615757D01*
X143012523Y-100408251D01*
X142928169Y-100287782D01*
X142884303Y-100225134D01*
X142884301Y-100225132D01*
X142881198Y-100220700D01*
X142719300Y-100058802D01*
X142714869Y-100055699D01*
X142714865Y-100055696D01*
X142557338Y-99945395D01*
X142531749Y-99927477D01*
X142488650Y-99907380D01*
X142436478Y-99861626D01*
X142417058Y-99795000D01*
X142436478Y-99728374D01*
X142488650Y-99682619D01*
X142531749Y-99662523D01*
X142719300Y-99531198D01*
X142881198Y-99369300D01*
X143012523Y-99181749D01*
X143109284Y-98974243D01*
X143168543Y-98753087D01*
X143188498Y-98525000D01*
X143168543Y-98296913D01*
X143150457Y-98229417D01*
X143137804Y-98182194D01*
X143135962Y-98125909D01*
X143159203Y-98074614D01*
X143202735Y-98038888D01*
X143257579Y-98026100D01*
X147027134Y-98026100D01*
X147074587Y-98035539D01*
G37*
G04 #@! TD.AperFunction*
G04 #@! TA.AperFunction,Conductor*
G36*
X140547265Y-98038888D02*
G01*
X140590797Y-98074614D01*
X140614038Y-98125909D01*
X140612196Y-98182194D01*
X140582858Y-98291680D01*
X140582855Y-98291692D01*
X140581457Y-98296913D01*
X140580985Y-98302302D01*
X140580984Y-98302311D01*
X140564210Y-98494051D01*
X140561502Y-98525000D01*
X140561974Y-98530395D01*
X140580984Y-98747688D01*
X140580985Y-98747695D01*
X140581457Y-98753087D01*
X140582856Y-98758308D01*
X140582858Y-98758319D01*
X140639316Y-98969021D01*
X140639318Y-98969028D01*
X140640716Y-98974243D01*
X140643000Y-98979143D01*
X140643002Y-98979146D01*
X140735185Y-99176834D01*
X140737477Y-99181749D01*
X140756396Y-99208768D01*
X140865696Y-99364865D01*
X140865699Y-99364869D01*
X140868802Y-99369300D01*
X141030700Y-99531198D01*
X141218251Y-99662523D01*
X141261346Y-99682618D01*
X141313521Y-99728375D01*
X141332941Y-99795000D01*
X141313521Y-99861625D01*
X141261346Y-99907381D01*
X141245855Y-99914605D01*
X141223161Y-99925187D01*
X141223156Y-99925189D01*
X141218251Y-99927477D01*
X141213817Y-99930581D01*
X141213813Y-99930584D01*
X141035134Y-100055696D01*
X141035124Y-100055703D01*
X141030700Y-100058802D01*
X141026874Y-100062627D01*
X141026868Y-100062633D01*
X140872633Y-100216868D01*
X140872627Y-100216874D01*
X140868802Y-100220700D01*
X140865703Y-100225124D01*
X140865696Y-100225134D01*
X140740584Y-100403813D01*
X140740581Y-100403817D01*
X140737477Y-100408251D01*
X140735188Y-100413159D01*
X140735185Y-100413165D01*
X140643002Y-100610853D01*
X140642999Y-100610860D01*
X140640716Y-100615757D01*
X140639319Y-100620967D01*
X140639316Y-100620978D01*
X140582858Y-100831680D01*
X140582855Y-100831692D01*
X140581457Y-100836913D01*
X140580985Y-100842302D01*
X140580984Y-100842311D01*
X140564459Y-101031203D01*
X140561502Y-101065000D01*
X140561974Y-101070395D01*
X140580984Y-101287688D01*
X140580985Y-101287695D01*
X140581457Y-101293087D01*
X140582857Y-101298314D01*
X140582859Y-101298322D01*
X140614259Y-101415507D01*
X140616101Y-101471791D01*
X140592860Y-101523086D01*
X140549328Y-101558812D01*
X140494484Y-101571600D01*
X140327166Y-101571600D01*
X140279713Y-101562161D01*
X140239485Y-101535281D01*
X139521997Y-100817793D01*
X139514402Y-100809446D01*
X139510300Y-100802982D01*
X139460631Y-100756340D01*
X139457834Y-100753629D01*
X139440827Y-100736622D01*
X139438070Y-100733865D01*
X139434786Y-100731317D01*
X139425924Y-100723746D01*
X139399309Y-100698754D01*
X139399303Y-100698749D01*
X139393621Y-100693414D01*
X139386788Y-100689658D01*
X139386782Y-100689653D01*
X139375729Y-100683576D01*
X139359474Y-100672899D01*
X139349509Y-100665170D01*
X139349506Y-100665168D01*
X139343341Y-100660386D01*
X139302676Y-100642789D01*
X139292184Y-100637649D01*
X139260196Y-100620063D01*
X139260194Y-100620062D01*
X139253360Y-100616305D01*
X139233584Y-100611227D01*
X139215181Y-100604926D01*
X139203609Y-100599918D01*
X139203601Y-100599915D01*
X139196445Y-100596819D01*
X139188740Y-100595598D01*
X139188738Y-100595598D01*
X139152681Y-100589887D01*
X139141255Y-100587521D01*
X139098330Y-100576500D01*
X139090528Y-100576500D01*
X139077915Y-100576500D01*
X139058517Y-100574973D01*
X139046066Y-100573001D01*
X139038357Y-100571780D01*
X139030591Y-100572514D01*
X139030588Y-100572514D01*
X138994242Y-100575950D01*
X138982573Y-100576500D01*
X138861605Y-100576500D01*
X138801962Y-100561214D01*
X138757024Y-100519125D01*
X138737870Y-100460609D01*
X138749222Y-100400098D01*
X138754284Y-100389243D01*
X138813543Y-100168087D01*
X138833498Y-99940000D01*
X138813543Y-99711913D01*
X138809630Y-99697311D01*
X138755683Y-99495978D01*
X138755682Y-99495977D01*
X138754284Y-99490757D01*
X138657523Y-99283251D01*
X138570171Y-99158500D01*
X138529303Y-99100134D01*
X138529301Y-99100132D01*
X138526198Y-99095700D01*
X138364300Y-98933802D01*
X138359869Y-98930699D01*
X138359865Y-98930696D01*
X138181186Y-98805584D01*
X138181187Y-98805584D01*
X138176749Y-98802477D01*
X138133650Y-98782380D01*
X138081478Y-98736626D01*
X138062058Y-98670000D01*
X138081478Y-98603374D01*
X138133650Y-98557619D01*
X138176749Y-98537523D01*
X138364300Y-98406198D01*
X138526198Y-98244300D01*
X138615854Y-98116257D01*
X138665679Y-98074696D01*
X138729673Y-98063987D01*
X138790313Y-98087062D01*
X138923348Y-98183718D01*
X138929281Y-98186359D01*
X138929282Y-98186360D01*
X139082228Y-98254456D01*
X139097812Y-98261394D01*
X139104170Y-98262745D01*
X139104172Y-98262746D01*
X139140974Y-98270568D01*
X139284613Y-98301100D01*
X139469084Y-98301100D01*
X139475587Y-98301100D01*
X139662388Y-98261394D01*
X139836852Y-98183718D01*
X139991353Y-98071466D01*
X139995700Y-98066637D01*
X140000529Y-98062290D01*
X140001078Y-98062899D01*
X140036974Y-98036820D01*
X140087409Y-98026100D01*
X140492421Y-98026100D01*
X140547265Y-98038888D01*
G37*
G04 #@! TD.AperFunction*
G04 #@! TA.AperFunction,Conductor*
G36*
X137602007Y-92352864D02*
G01*
X137645802Y-92389560D01*
X137668493Y-92441998D01*
X137665263Y-92499044D01*
X137636798Y-92548585D01*
X137596339Y-92591668D01*
X137593634Y-92594460D01*
X137573865Y-92614230D01*
X137571481Y-92617302D01*
X137571478Y-92617306D01*
X137571322Y-92617508D01*
X137563752Y-92626370D01*
X137533414Y-92658679D01*
X137529659Y-92665507D01*
X137529658Y-92665510D01*
X137523579Y-92676567D01*
X137512903Y-92692819D01*
X137505168Y-92702791D01*
X137505160Y-92702802D01*
X137500386Y-92708959D01*
X137497291Y-92716110D01*
X137497288Y-92716116D01*
X137482786Y-92749628D01*
X137477648Y-92760115D01*
X137460065Y-92792098D01*
X137460061Y-92792106D01*
X137456305Y-92798940D01*
X137454366Y-92806491D01*
X137454363Y-92806499D01*
X137451225Y-92818722D01*
X137444926Y-92837119D01*
X137436819Y-92855855D01*
X137435599Y-92863553D01*
X137435598Y-92863559D01*
X137429888Y-92899611D01*
X137427520Y-92911045D01*
X137418438Y-92946417D01*
X137418436Y-92946426D01*
X137416500Y-92953970D01*
X137416500Y-92961766D01*
X137416500Y-92974385D01*
X137414972Y-92993783D01*
X137411780Y-93013943D01*
X137412514Y-93021708D01*
X137412514Y-93021711D01*
X137415950Y-93058058D01*
X137416500Y-93069727D01*
X137416500Y-93181647D01*
X137402489Y-93238904D01*
X137363624Y-93283222D01*
X137210134Y-93390696D01*
X137210124Y-93390703D01*
X137205700Y-93393802D01*
X137201874Y-93397627D01*
X137201868Y-93397633D01*
X137047633Y-93551868D01*
X137047627Y-93551874D01*
X137043802Y-93555700D01*
X137040703Y-93560124D01*
X137040696Y-93560134D01*
X136915584Y-93738813D01*
X136915581Y-93738817D01*
X136912477Y-93743251D01*
X136910190Y-93748154D01*
X136910189Y-93748157D01*
X136909460Y-93749719D01*
X136907691Y-93753513D01*
X136861935Y-93805687D01*
X136795310Y-93825106D01*
X136728685Y-93805686D01*
X136685765Y-93756745D01*
X136685129Y-93757113D01*
X136683281Y-93753913D01*
X136682928Y-93753510D01*
X136682420Y-93752422D01*
X136677025Y-93743077D01*
X136636814Y-93685650D01*
X136628703Y-93678217D01*
X136619424Y-93684128D01*
X135915095Y-94388457D01*
X135908431Y-94400000D01*
X135915095Y-94411542D01*
X136619421Y-95115867D01*
X136628703Y-95121780D01*
X136636814Y-95114348D01*
X136677026Y-95056920D01*
X136682418Y-95047581D01*
X136682925Y-95046496D01*
X136683278Y-95046093D01*
X136685130Y-95042886D01*
X136685767Y-95043254D01*
X136728681Y-94994316D01*
X136795308Y-94974893D01*
X136861936Y-94994313D01*
X136907693Y-95046490D01*
X136912477Y-95056749D01*
X136915584Y-95061186D01*
X137040696Y-95239865D01*
X137040699Y-95239869D01*
X137043802Y-95244300D01*
X137205700Y-95406198D01*
X137242959Y-95432287D01*
X137253389Y-95439590D01*
X137289653Y-95479165D01*
X137305794Y-95530358D01*
X137298788Y-95583575D01*
X137269947Y-95628846D01*
X137127793Y-95771000D01*
X137119444Y-95778598D01*
X137112982Y-95782700D01*
X137107641Y-95788386D01*
X137107639Y-95788389D01*
X137066339Y-95832368D01*
X137063634Y-95835160D01*
X137043865Y-95854930D01*
X137041481Y-95858002D01*
X137041478Y-95858006D01*
X137041322Y-95858208D01*
X137033752Y-95867070D01*
X137019815Y-95881913D01*
X137003414Y-95899379D01*
X136999659Y-95906207D01*
X136999658Y-95906210D01*
X136993579Y-95917267D01*
X136982903Y-95933519D01*
X136975168Y-95943491D01*
X136975160Y-95943502D01*
X136970386Y-95949659D01*
X136967291Y-95956810D01*
X136967288Y-95956816D01*
X136952786Y-95990328D01*
X136947648Y-96000815D01*
X136930065Y-96032798D01*
X136930061Y-96032806D01*
X136926305Y-96039640D01*
X136924366Y-96047191D01*
X136924363Y-96047199D01*
X136921225Y-96059422D01*
X136914926Y-96077819D01*
X136906819Y-96096555D01*
X136905599Y-96104253D01*
X136905598Y-96104259D01*
X136899888Y-96140311D01*
X136897520Y-96151745D01*
X136888439Y-96187114D01*
X136888438Y-96187121D01*
X136886500Y-96194670D01*
X136886500Y-96198306D01*
X136870481Y-96244434D01*
X136835428Y-96281957D01*
X136680142Y-96390690D01*
X136680129Y-96390700D01*
X136675700Y-96393802D01*
X136671874Y-96397627D01*
X136671868Y-96397633D01*
X136517633Y-96551868D01*
X136517627Y-96551874D01*
X136513802Y-96555700D01*
X136510703Y-96560124D01*
X136510696Y-96560134D01*
X136385584Y-96738813D01*
X136385581Y-96738817D01*
X136382477Y-96743251D01*
X136380188Y-96748159D01*
X136380185Y-96748165D01*
X136288002Y-96945853D01*
X136287999Y-96945860D01*
X136285716Y-96950757D01*
X136284319Y-96955967D01*
X136284316Y-96955978D01*
X136227858Y-97166680D01*
X136227855Y-97166692D01*
X136226457Y-97171913D01*
X136225985Y-97177302D01*
X136225984Y-97177311D01*
X136214954Y-97303393D01*
X136206502Y-97400000D01*
X136206974Y-97405395D01*
X136225984Y-97622688D01*
X136225985Y-97622695D01*
X136226457Y-97628087D01*
X136227856Y-97633308D01*
X136227858Y-97633319D01*
X136284316Y-97844021D01*
X136284318Y-97844028D01*
X136285716Y-97849243D01*
X136288000Y-97854143D01*
X136288002Y-97854146D01*
X136362759Y-98014464D01*
X136382477Y-98056749D01*
X136394986Y-98074614D01*
X136510696Y-98239865D01*
X136510699Y-98239869D01*
X136513802Y-98244300D01*
X136675700Y-98406198D01*
X136680132Y-98409301D01*
X136680134Y-98409303D01*
X136698143Y-98421913D01*
X136863251Y-98537523D01*
X136906346Y-98557618D01*
X136958521Y-98603375D01*
X136977941Y-98670000D01*
X136958521Y-98736625D01*
X136906346Y-98782381D01*
X136888348Y-98790773D01*
X136868161Y-98800187D01*
X136868156Y-98800189D01*
X136863251Y-98802477D01*
X136858817Y-98805581D01*
X136858813Y-98805584D01*
X136680134Y-98930696D01*
X136680124Y-98930703D01*
X136675700Y-98933802D01*
X136671874Y-98937627D01*
X136671868Y-98937633D01*
X136517633Y-99091868D01*
X136517627Y-99091874D01*
X136513802Y-99095700D01*
X136510703Y-99100124D01*
X136510696Y-99100134D01*
X136385584Y-99278813D01*
X136385581Y-99278817D01*
X136382477Y-99283251D01*
X136380188Y-99288159D01*
X136380185Y-99288165D01*
X136288002Y-99485853D01*
X136287999Y-99485860D01*
X136285716Y-99490757D01*
X136284319Y-99495967D01*
X136284316Y-99495978D01*
X136227858Y-99706680D01*
X136227855Y-99706692D01*
X136226457Y-99711913D01*
X136225985Y-99717302D01*
X136225984Y-99717311D01*
X136209356Y-99907382D01*
X136206502Y-99940000D01*
X136206974Y-99945395D01*
X136225984Y-100162688D01*
X136225985Y-100162695D01*
X136226457Y-100168087D01*
X136227856Y-100173308D01*
X136227858Y-100173319D01*
X136284316Y-100384021D01*
X136284318Y-100384028D01*
X136285716Y-100389243D01*
X136290777Y-100400098D01*
X136302130Y-100460609D01*
X136282976Y-100519125D01*
X136238038Y-100561214D01*
X136178395Y-100576500D01*
X136119834Y-100576500D01*
X136061620Y-100561986D01*
X136017034Y-100521841D01*
X135996513Y-100465463D01*
X135994259Y-100444021D01*
X135991742Y-100420072D01*
X135932727Y-100238444D01*
X135837240Y-100073056D01*
X135709453Y-99931134D01*
X135704203Y-99927319D01*
X135704199Y-99927316D01*
X135560206Y-99822699D01*
X135560204Y-99822697D01*
X135554952Y-99818882D01*
X135549021Y-99816241D01*
X135549017Y-99816239D01*
X135386426Y-99743849D01*
X135386419Y-99743846D01*
X135380488Y-99741206D01*
X135374135Y-99739855D01*
X135374127Y-99739853D01*
X135200049Y-99702852D01*
X135200046Y-99702851D01*
X135193687Y-99701500D01*
X135002713Y-99701500D01*
X134996354Y-99702851D01*
X134996350Y-99702852D01*
X134822272Y-99739853D01*
X134822261Y-99739856D01*
X134815912Y-99741206D01*
X134809982Y-99743845D01*
X134809973Y-99743849D01*
X134647382Y-99816239D01*
X134647374Y-99816243D01*
X134641448Y-99818882D01*
X134636199Y-99822695D01*
X134636193Y-99822699D01*
X134492206Y-99927312D01*
X134492202Y-99927316D01*
X134486947Y-99931134D01*
X134482601Y-99935960D01*
X134482595Y-99935966D01*
X134457633Y-99963690D01*
X134401737Y-99999299D01*
X134335485Y-100001034D01*
X134277803Y-99968398D01*
X132625295Y-98315890D01*
X132617703Y-98307548D01*
X132613600Y-98301082D01*
X132563916Y-98254426D01*
X132561150Y-98251745D01*
X132544127Y-98234722D01*
X132544126Y-98234721D01*
X132541370Y-98231965D01*
X132538086Y-98229417D01*
X132529224Y-98221846D01*
X132502609Y-98196854D01*
X132502603Y-98196849D01*
X132496921Y-98191514D01*
X132490088Y-98187758D01*
X132490082Y-98187753D01*
X132479029Y-98181676D01*
X132462774Y-98170999D01*
X132452809Y-98163270D01*
X132452806Y-98163268D01*
X132446641Y-98158486D01*
X132405976Y-98140889D01*
X132395484Y-98135749D01*
X132363496Y-98118163D01*
X132363494Y-98118162D01*
X132356660Y-98114405D01*
X132336884Y-98109327D01*
X132318481Y-98103026D01*
X132306909Y-98098018D01*
X132306901Y-98098015D01*
X132299745Y-98094919D01*
X132292040Y-98093698D01*
X132292038Y-98093698D01*
X132255981Y-98087987D01*
X132244555Y-98085621D01*
X132201630Y-98074600D01*
X132193828Y-98074600D01*
X132181215Y-98074600D01*
X132161817Y-98073073D01*
X132149366Y-98071101D01*
X132141657Y-98069880D01*
X132133891Y-98070614D01*
X132133888Y-98070614D01*
X132097542Y-98074050D01*
X132085873Y-98074600D01*
X131324000Y-98074600D01*
X131262000Y-98057987D01*
X131216613Y-98012600D01*
X131200000Y-97950600D01*
X131200000Y-97666326D01*
X131196549Y-97653450D01*
X131183674Y-97650000D01*
X129774000Y-97650000D01*
X129712000Y-97633387D01*
X129666613Y-97588000D01*
X129650000Y-97526000D01*
X129650000Y-97274000D01*
X129666613Y-97212000D01*
X129712000Y-97166613D01*
X129774000Y-97150000D01*
X131183674Y-97150000D01*
X131196549Y-97146549D01*
X131200000Y-97133674D01*
X131200000Y-96555482D01*
X131199646Y-96548885D01*
X131194426Y-96500332D01*
X131190888Y-96485358D01*
X131146452Y-96366222D01*
X131138037Y-96350810D01*
X131062501Y-96249907D01*
X131050092Y-96237498D01*
X130949189Y-96161962D01*
X130933777Y-96153547D01*
X130814641Y-96109111D01*
X130799667Y-96105573D01*
X130751114Y-96100353D01*
X130744518Y-96100000D01*
X130323165Y-96100000D01*
X130266870Y-96086485D01*
X130222847Y-96048885D01*
X130200692Y-95995398D01*
X130205234Y-95937682D01*
X130235484Y-95888319D01*
X130645100Y-95478703D01*
X134828217Y-95478703D01*
X134835650Y-95486814D01*
X134893077Y-95527025D01*
X134902427Y-95532423D01*
X135098768Y-95623979D01*
X135108902Y-95627667D01*
X135318162Y-95683739D01*
X135328793Y-95685613D01*
X135544605Y-95704494D01*
X135555395Y-95704494D01*
X135771206Y-95685613D01*
X135781837Y-95683739D01*
X135991097Y-95627667D01*
X136001231Y-95623979D01*
X136197575Y-95532422D01*
X136206920Y-95527026D01*
X136264348Y-95486814D01*
X136271780Y-95478703D01*
X136265867Y-95469421D01*
X135561542Y-94765095D01*
X135549999Y-94758431D01*
X135538457Y-94765095D01*
X134834128Y-95469424D01*
X134828217Y-95478703D01*
X130645100Y-95478703D01*
X131248088Y-94875716D01*
X131718409Y-94405395D01*
X134245506Y-94405395D01*
X134264386Y-94621206D01*
X134266260Y-94631837D01*
X134322332Y-94841097D01*
X134326020Y-94851231D01*
X134417576Y-95047572D01*
X134422974Y-95056922D01*
X134463184Y-95114348D01*
X134471295Y-95121781D01*
X134480574Y-95115870D01*
X135184903Y-94411542D01*
X135191567Y-94400000D01*
X135184903Y-94388457D01*
X134480574Y-93684128D01*
X134471296Y-93678217D01*
X134463183Y-93685651D01*
X134422971Y-93743081D01*
X134417577Y-93752425D01*
X134326020Y-93948768D01*
X134322332Y-93958902D01*
X134266260Y-94168162D01*
X134264386Y-94178793D01*
X134245506Y-94394605D01*
X134245506Y-94405395D01*
X131718409Y-94405395D01*
X132802507Y-93321296D01*
X134828217Y-93321296D01*
X134834128Y-93330574D01*
X135538457Y-94034903D01*
X135550000Y-94041567D01*
X135561542Y-94034903D01*
X136265870Y-93330574D01*
X136271781Y-93321295D01*
X136264348Y-93313184D01*
X136206922Y-93272974D01*
X136197572Y-93267576D01*
X136001231Y-93176020D01*
X135991097Y-93172332D01*
X135781837Y-93116260D01*
X135771206Y-93114386D01*
X135555395Y-93095506D01*
X135544605Y-93095506D01*
X135328793Y-93114386D01*
X135318162Y-93116260D01*
X135108902Y-93172332D01*
X135098768Y-93176020D01*
X134902425Y-93267577D01*
X134893081Y-93272971D01*
X134835651Y-93313183D01*
X134828217Y-93321296D01*
X132802507Y-93321296D01*
X133747784Y-92376019D01*
X133788013Y-92349139D01*
X133835466Y-92339700D01*
X137546407Y-92339700D01*
X137602007Y-92352864D01*
G37*
G04 #@! TD.AperFunction*
G04 #@! TA.AperFunction,Conductor*
G36*
X128949351Y-86446763D02*
G01*
X129093251Y-86547523D01*
X129136346Y-86567618D01*
X129188521Y-86613375D01*
X129207941Y-86680000D01*
X129188521Y-86746625D01*
X129136346Y-86792381D01*
X129121923Y-86799107D01*
X129098161Y-86810187D01*
X129098156Y-86810189D01*
X129093251Y-86812477D01*
X129088817Y-86815581D01*
X129088813Y-86815584D01*
X128910134Y-86940696D01*
X128910124Y-86940703D01*
X128905700Y-86943802D01*
X128901874Y-86947627D01*
X128901868Y-86947633D01*
X128747633Y-87101868D01*
X128747627Y-87101874D01*
X128743802Y-87105700D01*
X128740703Y-87110124D01*
X128740696Y-87110134D01*
X128615584Y-87288813D01*
X128615581Y-87288817D01*
X128612477Y-87293251D01*
X128610188Y-87298159D01*
X128610185Y-87298165D01*
X128518002Y-87495853D01*
X128517999Y-87495860D01*
X128515716Y-87500757D01*
X128514319Y-87505967D01*
X128514316Y-87505978D01*
X128457858Y-87716680D01*
X128457855Y-87716692D01*
X128456457Y-87721913D01*
X128455985Y-87727302D01*
X128455984Y-87727311D01*
X128441445Y-87893498D01*
X128436502Y-87950000D01*
X128436974Y-87955395D01*
X128455984Y-88172688D01*
X128455985Y-88172695D01*
X128456457Y-88178087D01*
X128457856Y-88183308D01*
X128457858Y-88183319D01*
X128514316Y-88394021D01*
X128514318Y-88394028D01*
X128515716Y-88399243D01*
X128518000Y-88404143D01*
X128518002Y-88404146D01*
X128598710Y-88577225D01*
X128612477Y-88606749D01*
X128615584Y-88611186D01*
X128740696Y-88789865D01*
X128740699Y-88789869D01*
X128743802Y-88794300D01*
X128905700Y-88956198D01*
X128910132Y-88959301D01*
X128910134Y-88959303D01*
X128952577Y-88989022D01*
X129093251Y-89087523D01*
X129146401Y-89112307D01*
X129198576Y-89158061D01*
X129217996Y-89224686D01*
X129198578Y-89291311D01*
X129146403Y-89337069D01*
X129102421Y-89357578D01*
X129093087Y-89362967D01*
X128915618Y-89487232D01*
X128907352Y-89494169D01*
X128754169Y-89647352D01*
X128747232Y-89655618D01*
X128622967Y-89833087D01*
X128617579Y-89842419D01*
X128526022Y-90038765D01*
X128522330Y-90048907D01*
X128474820Y-90226219D01*
X128474452Y-90237448D01*
X128485395Y-90240000D01*
X131014605Y-90240000D01*
X131025547Y-90237448D01*
X131025179Y-90226219D01*
X130977669Y-90048907D01*
X130973977Y-90038765D01*
X130882420Y-89842419D01*
X130877032Y-89833087D01*
X130752767Y-89655618D01*
X130745830Y-89647352D01*
X130592647Y-89494169D01*
X130584381Y-89487232D01*
X130406912Y-89362967D01*
X130397583Y-89357581D01*
X130353597Y-89337070D01*
X130301422Y-89291312D01*
X130282003Y-89224686D01*
X130301424Y-89158061D01*
X130353598Y-89112307D01*
X130406749Y-89087523D01*
X130594300Y-88956198D01*
X130756198Y-88794300D01*
X130828462Y-88691097D01*
X130869969Y-88631819D01*
X130910861Y-88594805D01*
X130963758Y-88579187D01*
X130994950Y-88577225D01*
X131002958Y-88574622D01*
X131025745Y-88569529D01*
X131025941Y-88569503D01*
X131034097Y-88568474D01*
X131086385Y-88547771D01*
X131093690Y-88545141D01*
X131147175Y-88527764D01*
X131154281Y-88523253D01*
X131175089Y-88512650D01*
X131182917Y-88509552D01*
X131228404Y-88476502D01*
X131234821Y-88472141D01*
X131282318Y-88442000D01*
X131288081Y-88435861D01*
X131305598Y-88420418D01*
X131312407Y-88415472D01*
X131348255Y-88372137D01*
X131353384Y-88366320D01*
X131391886Y-88325321D01*
X131395940Y-88317945D01*
X131409066Y-88298631D01*
X131414433Y-88292144D01*
X131438375Y-88241262D01*
X131441908Y-88234329D01*
X131453667Y-88212940D01*
X131468995Y-88185060D01*
X131471090Y-88176898D01*
X131478997Y-88154936D01*
X131482583Y-88147318D01*
X131493121Y-88092072D01*
X131494809Y-88084515D01*
X131508800Y-88030030D01*
X131508800Y-88021607D01*
X131510997Y-87998371D01*
X131511113Y-87997758D01*
X131511113Y-87997757D01*
X131512575Y-87990094D01*
X131509045Y-87933985D01*
X131508800Y-87926199D01*
X131508800Y-87876766D01*
X131518239Y-87829314D01*
X131545116Y-87789087D01*
X131709822Y-87624380D01*
X131767502Y-87591748D01*
X131833756Y-87593484D01*
X131886317Y-87626971D01*
X131886571Y-87626690D01*
X131888253Y-87628205D01*
X131889650Y-87629094D01*
X131895747Y-87635866D01*
X131900997Y-87639680D01*
X131901000Y-87639683D01*
X132021610Y-87727311D01*
X132050248Y-87748118D01*
X132056181Y-87750759D01*
X132056182Y-87750760D01*
X132206489Y-87817681D01*
X132224712Y-87825794D01*
X132231070Y-87827145D01*
X132231072Y-87827146D01*
X132254840Y-87832198D01*
X132411513Y-87865500D01*
X132595985Y-87865500D01*
X132602487Y-87865500D01*
X132637088Y-87858145D01*
X132698086Y-87860541D01*
X132750550Y-87891754D01*
X135719815Y-90861019D01*
X135750065Y-90910382D01*
X135754607Y-90968098D01*
X135732452Y-91021585D01*
X135688429Y-91059185D01*
X135632134Y-91072700D01*
X133600548Y-91072700D01*
X133589263Y-91072168D01*
X133581792Y-91070498D01*
X133573994Y-91070743D01*
X133513670Y-91072639D01*
X133509775Y-91072700D01*
X133481844Y-91072700D01*
X133477989Y-91073186D01*
X133477955Y-91073189D01*
X133477724Y-91073219D01*
X133466105Y-91074133D01*
X133429608Y-91075280D01*
X133429600Y-91075281D01*
X133421811Y-91075526D01*
X133414325Y-91077700D01*
X133414316Y-91077702D01*
X133402196Y-91081223D01*
X133383160Y-91085165D01*
X133370641Y-91086747D01*
X133370631Y-91086749D01*
X133362903Y-91087726D01*
X133355660Y-91090593D01*
X133355650Y-91090596D01*
X133321713Y-91104032D01*
X133310671Y-91107813D01*
X133275600Y-91118003D01*
X133275593Y-91118005D01*
X133268107Y-91120181D01*
X133261397Y-91124149D01*
X133261388Y-91124153D01*
X133250524Y-91130578D01*
X133233065Y-91139131D01*
X133221337Y-91143775D01*
X133221331Y-91143777D01*
X133214083Y-91146648D01*
X133207778Y-91151228D01*
X133207770Y-91151233D01*
X133178237Y-91172689D01*
X133168482Y-91179097D01*
X133137054Y-91197685D01*
X133137048Y-91197689D01*
X133130338Y-91201658D01*
X133124825Y-91207169D01*
X133124818Y-91207176D01*
X133115897Y-91216097D01*
X133101114Y-91228723D01*
X133090906Y-91236140D01*
X133090900Y-91236144D01*
X133084593Y-91240728D01*
X133079626Y-91246730D01*
X133079615Y-91246742D01*
X133056343Y-91274873D01*
X133048483Y-91283511D01*
X127572514Y-96759481D01*
X127532286Y-96786361D01*
X127484833Y-96795800D01*
X126058616Y-96795800D01*
X125998973Y-96780514D01*
X125954035Y-96738425D01*
X125934881Y-96679910D01*
X125946233Y-96619398D01*
X125974284Y-96559243D01*
X126033543Y-96338087D01*
X126053498Y-96110000D01*
X126033543Y-95881913D01*
X126022741Y-95841601D01*
X125975683Y-95665978D01*
X125975682Y-95665977D01*
X125974284Y-95660757D01*
X125877523Y-95453251D01*
X125763808Y-95290849D01*
X125749303Y-95270134D01*
X125749301Y-95270132D01*
X125746198Y-95265700D01*
X125584300Y-95103802D01*
X125579869Y-95100699D01*
X125579865Y-95100696D01*
X125442244Y-95004333D01*
X125396749Y-94972477D01*
X125353650Y-94952380D01*
X125301478Y-94906626D01*
X125282058Y-94840000D01*
X125301478Y-94773374D01*
X125353650Y-94727619D01*
X125396749Y-94707523D01*
X125584300Y-94576198D01*
X125746198Y-94414300D01*
X125877523Y-94226749D01*
X125974284Y-94019243D01*
X126033543Y-93798087D01*
X126053498Y-93570000D01*
X126033543Y-93341913D01*
X126028018Y-93321295D01*
X125975683Y-93125978D01*
X125975682Y-93125977D01*
X125974284Y-93120757D01*
X125877523Y-92913251D01*
X125768016Y-92756859D01*
X125749303Y-92730134D01*
X125749301Y-92730132D01*
X125746198Y-92725700D01*
X125584300Y-92563802D01*
X125579869Y-92560699D01*
X125579865Y-92560696D01*
X125401186Y-92435584D01*
X125401187Y-92435584D01*
X125396749Y-92432477D01*
X125353650Y-92412380D01*
X125301478Y-92366626D01*
X125282058Y-92300000D01*
X125301478Y-92233374D01*
X125353650Y-92187619D01*
X125396749Y-92167523D01*
X125584300Y-92036198D01*
X125746198Y-91874300D01*
X125877523Y-91686749D01*
X125974284Y-91479243D01*
X126033543Y-91258087D01*
X126053498Y-91030000D01*
X126033543Y-90801913D01*
X126017637Y-90742551D01*
X128474452Y-90742551D01*
X128474820Y-90753780D01*
X128522330Y-90931092D01*
X128526022Y-90941234D01*
X128617579Y-91137580D01*
X128622967Y-91146912D01*
X128747232Y-91324381D01*
X128754169Y-91332647D01*
X128907352Y-91485830D01*
X128915618Y-91492767D01*
X129093087Y-91617032D01*
X129102419Y-91622420D01*
X129298765Y-91713977D01*
X129308907Y-91717669D01*
X129486219Y-91765179D01*
X129497448Y-91765547D01*
X129500000Y-91754605D01*
X130000000Y-91754605D01*
X130002551Y-91765547D01*
X130013780Y-91765179D01*
X130191092Y-91717669D01*
X130201234Y-91713977D01*
X130397580Y-91622420D01*
X130406912Y-91617032D01*
X130584381Y-91492767D01*
X130592647Y-91485830D01*
X130745830Y-91332647D01*
X130752767Y-91324381D01*
X130877032Y-91146912D01*
X130882420Y-91137580D01*
X130973977Y-90941234D01*
X130977669Y-90931092D01*
X131025179Y-90753780D01*
X131025547Y-90742551D01*
X131014605Y-90740000D01*
X130016326Y-90740000D01*
X130003450Y-90743450D01*
X130000000Y-90756326D01*
X130000000Y-91754605D01*
X129500000Y-91754605D01*
X129500000Y-90756326D01*
X129496549Y-90743450D01*
X129483674Y-90740000D01*
X128485395Y-90740000D01*
X128474452Y-90742551D01*
X126017637Y-90742551D01*
X126009983Y-90713988D01*
X125975683Y-90585978D01*
X125975682Y-90585977D01*
X125974284Y-90580757D01*
X125877523Y-90373251D01*
X125784219Y-90240000D01*
X125749303Y-90190134D01*
X125749301Y-90190132D01*
X125746198Y-90185700D01*
X125584300Y-90023802D01*
X125579869Y-90020699D01*
X125579865Y-90020696D01*
X125401186Y-89895584D01*
X125401187Y-89895584D01*
X125396749Y-89892477D01*
X125353650Y-89872380D01*
X125301478Y-89826626D01*
X125282058Y-89760000D01*
X125301478Y-89693374D01*
X125353650Y-89647619D01*
X125396749Y-89627523D01*
X125584300Y-89496198D01*
X125746198Y-89334300D01*
X125779581Y-89286625D01*
X125858604Y-89173768D01*
X125901207Y-89135812D01*
X125949771Y-89122711D01*
X125949681Y-89122139D01*
X125955044Y-89121289D01*
X125956293Y-89120952D01*
X125965189Y-89120673D01*
X125984790Y-89114977D01*
X126003841Y-89111032D01*
X126024097Y-89108474D01*
X126059895Y-89094300D01*
X126065293Y-89092163D01*
X126076343Y-89088379D01*
X126118893Y-89076018D01*
X126136465Y-89065625D01*
X126153932Y-89057068D01*
X126172917Y-89049552D01*
X126208775Y-89023498D01*
X126218523Y-89017096D01*
X126256662Y-88994542D01*
X126271093Y-88980110D01*
X126285888Y-88967472D01*
X126302407Y-88955472D01*
X126330660Y-88921318D01*
X126338503Y-88912699D01*
X128790548Y-86460655D01*
X128839223Y-86430632D01*
X128896199Y-86425647D01*
X128949351Y-86446763D01*
G37*
G04 #@! TD.AperFunction*
G04 #@! TA.AperFunction,Conductor*
G36*
X153446534Y-87150853D02*
G01*
X153496929Y-87181433D01*
X153902894Y-87587398D01*
X153910496Y-87595751D01*
X153914600Y-87602218D01*
X153944185Y-87630000D01*
X153964267Y-87648858D01*
X153967065Y-87651569D01*
X153986831Y-87671335D01*
X153989910Y-87673723D01*
X153990086Y-87673860D01*
X153998976Y-87681452D01*
X154031279Y-87711786D01*
X154049170Y-87721621D01*
X154065427Y-87732301D01*
X154075396Y-87740033D01*
X154081560Y-87744814D01*
X154095301Y-87750760D01*
X154122218Y-87762408D01*
X154132711Y-87767548D01*
X154171540Y-87788895D01*
X154191318Y-87793973D01*
X154209720Y-87800274D01*
X154219597Y-87804547D01*
X154228455Y-87808381D01*
X154272221Y-87815312D01*
X154283641Y-87817677D01*
X154326570Y-87828700D01*
X154346985Y-87828700D01*
X154366383Y-87830227D01*
X154386543Y-87833420D01*
X154425076Y-87829777D01*
X154430658Y-87829250D01*
X154442327Y-87828700D01*
X155742442Y-87828700D01*
X155797286Y-87841488D01*
X155840818Y-87877214D01*
X155864059Y-87928509D01*
X155862217Y-87984793D01*
X155822859Y-88131677D01*
X155822857Y-88131687D01*
X155821457Y-88136913D01*
X155820985Y-88142302D01*
X155820984Y-88142311D01*
X155804476Y-88331010D01*
X155801502Y-88365000D01*
X155801974Y-88370395D01*
X155820984Y-88587688D01*
X155820985Y-88587695D01*
X155821457Y-88593087D01*
X155822856Y-88598308D01*
X155822858Y-88598319D01*
X155879316Y-88809021D01*
X155879318Y-88809028D01*
X155880716Y-88814243D01*
X155883000Y-88819143D01*
X155883002Y-88819146D01*
X155951419Y-88965867D01*
X155977477Y-89021749D01*
X155980584Y-89026186D01*
X156105696Y-89204865D01*
X156105699Y-89204869D01*
X156108802Y-89209300D01*
X156270700Y-89371198D01*
X156275132Y-89374301D01*
X156275134Y-89374303D01*
X156294014Y-89387523D01*
X156458251Y-89502523D01*
X156501345Y-89522618D01*
X156553520Y-89568372D01*
X156572941Y-89634997D01*
X156553523Y-89701622D01*
X156501348Y-89747380D01*
X156463162Y-89765186D01*
X156463153Y-89765191D01*
X156458251Y-89767477D01*
X156453817Y-89770581D01*
X156453813Y-89770584D01*
X156275134Y-89895696D01*
X156275124Y-89895703D01*
X156270700Y-89898802D01*
X156266874Y-89902627D01*
X156266868Y-89902633D01*
X156112633Y-90056868D01*
X156112627Y-90056874D01*
X156108802Y-90060700D01*
X156105703Y-90065124D01*
X156105696Y-90065134D01*
X155980584Y-90243813D01*
X155980581Y-90243817D01*
X155977477Y-90248251D01*
X155975188Y-90253159D01*
X155975185Y-90253165D01*
X155883002Y-90450853D01*
X155882999Y-90450860D01*
X155880716Y-90455757D01*
X155879319Y-90460967D01*
X155879316Y-90460978D01*
X155822858Y-90671680D01*
X155822855Y-90671692D01*
X155821457Y-90676913D01*
X155820985Y-90682302D01*
X155820984Y-90682311D01*
X155807531Y-90836085D01*
X155801502Y-90905000D01*
X155801974Y-90910395D01*
X155820984Y-91127688D01*
X155820985Y-91127695D01*
X155821457Y-91133087D01*
X155822857Y-91138314D01*
X155822859Y-91138322D01*
X155850320Y-91240807D01*
X155852162Y-91297091D01*
X155828921Y-91348387D01*
X155785389Y-91384112D01*
X155730545Y-91396900D01*
X155385748Y-91396900D01*
X155374463Y-91396368D01*
X155366992Y-91394698D01*
X155359194Y-91394943D01*
X155298870Y-91396839D01*
X155294975Y-91396900D01*
X155267044Y-91396900D01*
X155263189Y-91397386D01*
X155263155Y-91397389D01*
X155262924Y-91397419D01*
X155251305Y-91398333D01*
X155214808Y-91399480D01*
X155214800Y-91399481D01*
X155207011Y-91399726D01*
X155199525Y-91401900D01*
X155199516Y-91401902D01*
X155187396Y-91405423D01*
X155168360Y-91409365D01*
X155155841Y-91410947D01*
X155155831Y-91410949D01*
X155148103Y-91411926D01*
X155140860Y-91414793D01*
X155140850Y-91414796D01*
X155106913Y-91428232D01*
X155095871Y-91432013D01*
X155060800Y-91442203D01*
X155060793Y-91442205D01*
X155053307Y-91444381D01*
X155046597Y-91448349D01*
X155046588Y-91448353D01*
X155035724Y-91454778D01*
X155018265Y-91463331D01*
X155006537Y-91467975D01*
X155006531Y-91467977D01*
X154999283Y-91470848D01*
X154992978Y-91475428D01*
X154992970Y-91475433D01*
X154963437Y-91496889D01*
X154953682Y-91503297D01*
X154922254Y-91521885D01*
X154922248Y-91521889D01*
X154915538Y-91525858D01*
X154910025Y-91531369D01*
X154910018Y-91531376D01*
X154901097Y-91540297D01*
X154886314Y-91552923D01*
X154876106Y-91560340D01*
X154876100Y-91560344D01*
X154869793Y-91564928D01*
X154864826Y-91570930D01*
X154864815Y-91570942D01*
X154841543Y-91599073D01*
X154833683Y-91607711D01*
X154242114Y-92199281D01*
X154201886Y-92226161D01*
X154154433Y-92235600D01*
X154097713Y-92235600D01*
X154091354Y-92236951D01*
X154091350Y-92236952D01*
X153917272Y-92273953D01*
X153917261Y-92273956D01*
X153910912Y-92275306D01*
X153904982Y-92277945D01*
X153904973Y-92277949D01*
X153742382Y-92350339D01*
X153742374Y-92350343D01*
X153736448Y-92352982D01*
X153731199Y-92356795D01*
X153731193Y-92356799D01*
X153587200Y-92461416D01*
X153587191Y-92461423D01*
X153581947Y-92465234D01*
X153577603Y-92470057D01*
X153577600Y-92470061D01*
X153463423Y-92596868D01*
X153454160Y-92607156D01*
X153450914Y-92612776D01*
X153450911Y-92612782D01*
X153361921Y-92766917D01*
X153361918Y-92766922D01*
X153358673Y-92772544D01*
X153356667Y-92778716D01*
X153356665Y-92778722D01*
X153301665Y-92947992D01*
X153301663Y-92948001D01*
X153299658Y-92954172D01*
X153298980Y-92960622D01*
X153298978Y-92960632D01*
X153283449Y-93108393D01*
X153279696Y-93144100D01*
X153280375Y-93150560D01*
X153298978Y-93327567D01*
X153298979Y-93327575D01*
X153299658Y-93334028D01*
X153301663Y-93340200D01*
X153301665Y-93340207D01*
X153333962Y-93439605D01*
X153358673Y-93515656D01*
X153361920Y-93521280D01*
X153361921Y-93521282D01*
X153390048Y-93570000D01*
X153454160Y-93681044D01*
X153581947Y-93822966D01*
X153587197Y-93826780D01*
X153587200Y-93826783D01*
X153680051Y-93894243D01*
X153736448Y-93935218D01*
X153742381Y-93937859D01*
X153742382Y-93937860D01*
X153833681Y-93978509D01*
X153910912Y-94012894D01*
X153917270Y-94014245D01*
X153917272Y-94014246D01*
X153954074Y-94022068D01*
X154097713Y-94052600D01*
X154282184Y-94052600D01*
X154288687Y-94052600D01*
X154475488Y-94012894D01*
X154649952Y-93935218D01*
X154804453Y-93822966D01*
X154932240Y-93681044D01*
X155027727Y-93515656D01*
X155086742Y-93334028D01*
X155104181Y-93168098D01*
X155115581Y-93127679D01*
X155139818Y-93093384D01*
X155532984Y-92700219D01*
X155573213Y-92673339D01*
X155620666Y-92663900D01*
X155840822Y-92663900D01*
X155900464Y-92679186D01*
X155945402Y-92721275D01*
X155964556Y-92779790D01*
X155953204Y-92840304D01*
X155883002Y-92990853D01*
X155882999Y-92990860D01*
X155880716Y-92995757D01*
X155879319Y-93000967D01*
X155879316Y-93000978D01*
X155822858Y-93211680D01*
X155822855Y-93211692D01*
X155821457Y-93216913D01*
X155820985Y-93222302D01*
X155820984Y-93222311D01*
X155806253Y-93390696D01*
X155801502Y-93445000D01*
X155801974Y-93450395D01*
X155820984Y-93667688D01*
X155820985Y-93667695D01*
X155821457Y-93673087D01*
X155822856Y-93678308D01*
X155822858Y-93678319D01*
X155879316Y-93889021D01*
X155879318Y-93889028D01*
X155880716Y-93894243D01*
X155883000Y-93899143D01*
X155883002Y-93899146D01*
X155958290Y-94060602D01*
X155977477Y-94101749D01*
X155980584Y-94106186D01*
X156105696Y-94284865D01*
X156105699Y-94284869D01*
X156108802Y-94289300D01*
X156270700Y-94451198D01*
X156275130Y-94454300D01*
X156275134Y-94454303D01*
X156340459Y-94500044D01*
X156458251Y-94582523D01*
X156501346Y-94602618D01*
X156553521Y-94648375D01*
X156572941Y-94715000D01*
X156553521Y-94781625D01*
X156501346Y-94827381D01*
X156483348Y-94835773D01*
X156463161Y-94845187D01*
X156463156Y-94845189D01*
X156458251Y-94847477D01*
X156453817Y-94850581D01*
X156453813Y-94850584D01*
X156275134Y-94975696D01*
X156275124Y-94975703D01*
X156270700Y-94978802D01*
X156266874Y-94982627D01*
X156266868Y-94982633D01*
X156112633Y-95136868D01*
X156112627Y-95136874D01*
X156108802Y-95140700D01*
X156105703Y-95145124D01*
X156105696Y-95145134D01*
X155980584Y-95323813D01*
X155980581Y-95323817D01*
X155977477Y-95328251D01*
X155975188Y-95333159D01*
X155975185Y-95333165D01*
X155883002Y-95530853D01*
X155882999Y-95530860D01*
X155880716Y-95535757D01*
X155879319Y-95540967D01*
X155879316Y-95540978D01*
X155822858Y-95751680D01*
X155822855Y-95751692D01*
X155821457Y-95756913D01*
X155820985Y-95762302D01*
X155820984Y-95762311D01*
X155804594Y-95949659D01*
X155801502Y-95985000D01*
X155801974Y-95990395D01*
X155820984Y-96207688D01*
X155820985Y-96207695D01*
X155821457Y-96213087D01*
X155822856Y-96218308D01*
X155822858Y-96218319D01*
X155839911Y-96281957D01*
X155852377Y-96328482D01*
X155852786Y-96330006D01*
X155854628Y-96386291D01*
X155831387Y-96437586D01*
X155787855Y-96473312D01*
X155733011Y-96486100D01*
X155353809Y-96486100D01*
X155303374Y-96475380D01*
X155267478Y-96449300D01*
X155266929Y-96449910D01*
X155262098Y-96445560D01*
X155257753Y-96440734D01*
X155252503Y-96436919D01*
X155252499Y-96436916D01*
X155108506Y-96332299D01*
X155108504Y-96332297D01*
X155103252Y-96328482D01*
X155097321Y-96325841D01*
X155097317Y-96325839D01*
X154934726Y-96253449D01*
X154934719Y-96253446D01*
X154928788Y-96250806D01*
X154922435Y-96249455D01*
X154922427Y-96249453D01*
X154748349Y-96212452D01*
X154748346Y-96212451D01*
X154741987Y-96211100D01*
X154551013Y-96211100D01*
X154544654Y-96212451D01*
X154544650Y-96212452D01*
X154370572Y-96249453D01*
X154370561Y-96249456D01*
X154364212Y-96250806D01*
X154358282Y-96253445D01*
X154358273Y-96253449D01*
X154195682Y-96325839D01*
X154195674Y-96325843D01*
X154189748Y-96328482D01*
X154184499Y-96332295D01*
X154184493Y-96332299D01*
X154040500Y-96436916D01*
X154040491Y-96436923D01*
X154035247Y-96440734D01*
X154030903Y-96445557D01*
X154030899Y-96445562D01*
X153961964Y-96522122D01*
X153906069Y-96557731D01*
X153839816Y-96559466D01*
X153782134Y-96526830D01*
X146851980Y-89596675D01*
X146821400Y-89546281D01*
X146817545Y-89487461D01*
X146841286Y-89433507D01*
X146887255Y-89396612D01*
X146906749Y-89387523D01*
X146990752Y-89328703D01*
X148028217Y-89328703D01*
X148035650Y-89336814D01*
X148093077Y-89377025D01*
X148102427Y-89382423D01*
X148298768Y-89473979D01*
X148308902Y-89477667D01*
X148518162Y-89533739D01*
X148528793Y-89535613D01*
X148744605Y-89554494D01*
X148755395Y-89554494D01*
X148971206Y-89535613D01*
X148981837Y-89533739D01*
X149191097Y-89477667D01*
X149201231Y-89473979D01*
X149397575Y-89382422D01*
X149406920Y-89377026D01*
X149464348Y-89336814D01*
X149471780Y-89328703D01*
X149465867Y-89319421D01*
X148761542Y-88615095D01*
X148750000Y-88608431D01*
X148738457Y-88615095D01*
X148034128Y-89319424D01*
X148028217Y-89328703D01*
X146990752Y-89328703D01*
X147094300Y-89256198D01*
X147256198Y-89094300D01*
X147387523Y-88906749D01*
X147392304Y-88896494D01*
X147438053Y-88844319D01*
X147504677Y-88824893D01*
X147571305Y-88844307D01*
X147614236Y-88893253D01*
X147614871Y-88892887D01*
X147616713Y-88896077D01*
X147617067Y-88896481D01*
X147617575Y-88897571D01*
X147622974Y-88906922D01*
X147663184Y-88964348D01*
X147671295Y-88971781D01*
X147680574Y-88965870D01*
X148662318Y-87984127D01*
X148717905Y-87952033D01*
X148782093Y-87952033D01*
X148837680Y-87984127D01*
X149819421Y-88965867D01*
X149828703Y-88971780D01*
X149836814Y-88964348D01*
X149877026Y-88906920D01*
X149882422Y-88897575D01*
X149973979Y-88701231D01*
X149977667Y-88691097D01*
X150033739Y-88481837D01*
X150035613Y-88471206D01*
X150054494Y-88255395D01*
X150054494Y-88244605D01*
X150035613Y-88028793D01*
X150033739Y-88018162D01*
X149977667Y-87808902D01*
X149973979Y-87798768D01*
X149882420Y-87602419D01*
X149877032Y-87593087D01*
X149749662Y-87411184D01*
X149751028Y-87410227D01*
X149726150Y-87353683D01*
X149736707Y-87285094D01*
X149782464Y-87232919D01*
X149849089Y-87213500D01*
X150931647Y-87213500D01*
X150988904Y-87227511D01*
X151033222Y-87266376D01*
X151140696Y-87419865D01*
X151140699Y-87419869D01*
X151143802Y-87424300D01*
X151305700Y-87586198D01*
X151310132Y-87589301D01*
X151310134Y-87589303D01*
X151368256Y-87630000D01*
X151493251Y-87717523D01*
X151700757Y-87814284D01*
X151705977Y-87815682D01*
X151705978Y-87815683D01*
X151916680Y-87872141D01*
X151916682Y-87872141D01*
X151921913Y-87873543D01*
X152150000Y-87893498D01*
X152378087Y-87873543D01*
X152599243Y-87814284D01*
X152806749Y-87717523D01*
X152994300Y-87586198D01*
X153156198Y-87424300D01*
X153287523Y-87236749D01*
X153296866Y-87216711D01*
X153333758Y-87170741D01*
X153387712Y-87146998D01*
X153446534Y-87150853D01*
G37*
G04 #@! TD.AperFunction*
G04 #@! TA.AperFunction,Conductor*
G36*
X136150807Y-82134286D02*
G01*
X136195744Y-82176375D01*
X136214898Y-82234890D01*
X136203546Y-82295404D01*
X136146024Y-82418760D01*
X136142330Y-82428907D01*
X136094820Y-82606219D01*
X136094452Y-82617448D01*
X136105395Y-82620000D01*
X137103674Y-82620000D01*
X137116549Y-82616549D01*
X137120000Y-82603674D01*
X137120000Y-82243000D01*
X137136613Y-82181000D01*
X137182000Y-82135613D01*
X137244000Y-82119000D01*
X137496000Y-82119000D01*
X137558000Y-82135613D01*
X137603387Y-82181000D01*
X137620000Y-82243000D01*
X137620000Y-82996000D01*
X137603387Y-83058000D01*
X137558000Y-83103387D01*
X137496000Y-83120000D01*
X136105395Y-83120000D01*
X136094452Y-83122551D01*
X136094820Y-83133779D01*
X136114120Y-83205806D01*
X136115962Y-83262091D01*
X136092721Y-83313386D01*
X136049189Y-83349112D01*
X135994345Y-83361900D01*
X131134455Y-83361900D01*
X131079611Y-83349112D01*
X131036079Y-83313387D01*
X131012838Y-83262091D01*
X131014680Y-83205807D01*
X131042140Y-83103322D01*
X131043543Y-83098087D01*
X131063498Y-82870000D01*
X131043543Y-82641913D01*
X131038691Y-82623807D01*
X130985683Y-82425978D01*
X130985682Y-82425977D01*
X130984284Y-82420757D01*
X130925830Y-82295402D01*
X130914478Y-82234890D01*
X130933632Y-82176375D01*
X130978570Y-82134286D01*
X131038213Y-82119000D01*
X136091164Y-82119000D01*
X136150807Y-82134286D01*
G37*
G04 #@! TD.AperFunction*
G04 #@! TA.AperFunction,Conductor*
G36*
X136072420Y-79764188D02*
G01*
X136115952Y-79799914D01*
X136139193Y-79851209D01*
X136137351Y-79907493D01*
X136094820Y-80066219D01*
X136094452Y-80077448D01*
X136105395Y-80080000D01*
X138634605Y-80080000D01*
X138645547Y-80077448D01*
X138645179Y-80066219D01*
X138602649Y-79907493D01*
X138600807Y-79851209D01*
X138624048Y-79799914D01*
X138667580Y-79764188D01*
X138722424Y-79751400D01*
X140735141Y-79751400D01*
X140799469Y-79769391D01*
X140845130Y-79818143D01*
X140858875Y-79883510D01*
X140836715Y-79946524D01*
X140755030Y-80063181D01*
X140714140Y-80100193D01*
X140661244Y-80115812D01*
X140637834Y-80117285D01*
X140637832Y-80117285D01*
X140630050Y-80117775D01*
X140622635Y-80120184D01*
X140622625Y-80120186D01*
X140622026Y-80120381D01*
X140599263Y-80125469D01*
X140599153Y-80125483D01*
X140598637Y-80125548D01*
X140598630Y-80125549D01*
X140590903Y-80126526D01*
X140583655Y-80129395D01*
X140583649Y-80129397D01*
X140538639Y-80147217D01*
X140531315Y-80149854D01*
X140485242Y-80164825D01*
X140485235Y-80164828D01*
X140477825Y-80167236D01*
X140471249Y-80171408D01*
X140471238Y-80171414D01*
X140470693Y-80171761D01*
X140449930Y-80182340D01*
X140449338Y-80182574D01*
X140449329Y-80182578D01*
X140442083Y-80185448D01*
X140435777Y-80190029D01*
X140435774Y-80190031D01*
X140396605Y-80218488D01*
X140390167Y-80222863D01*
X140349272Y-80248816D01*
X140349263Y-80248823D01*
X140342682Y-80253000D01*
X140337342Y-80258685D01*
X140337337Y-80258690D01*
X140336906Y-80259150D01*
X140319411Y-80274573D01*
X140312593Y-80279528D01*
X140307624Y-80285533D01*
X140307620Y-80285538D01*
X140276751Y-80322851D01*
X140271604Y-80328689D01*
X140238453Y-80363992D01*
X140238448Y-80363998D01*
X140233114Y-80369679D01*
X140229356Y-80376512D01*
X140229356Y-80376514D01*
X140229053Y-80377066D01*
X140215944Y-80396355D01*
X140215537Y-80396846D01*
X140215531Y-80396854D01*
X140210567Y-80402856D01*
X140207250Y-80409902D01*
X140207247Y-80409909D01*
X140186627Y-80453729D01*
X140183092Y-80460667D01*
X140159763Y-80503103D01*
X140159761Y-80503106D01*
X140156005Y-80509940D01*
X140154065Y-80517494D01*
X140154062Y-80517502D01*
X140153906Y-80518110D01*
X140146009Y-80540046D01*
X140145735Y-80540626D01*
X140145730Y-80540639D01*
X140144263Y-80543758D01*
X140144258Y-80543766D01*
X140142420Y-80547675D01*
X140141814Y-80547390D01*
X140106921Y-80599120D01*
X140044487Y-80626924D01*
X139988071Y-80619006D01*
X139987307Y-80621358D01*
X139981124Y-80619348D01*
X139975188Y-80616706D01*
X139968835Y-80615355D01*
X139968827Y-80615353D01*
X139794749Y-80578352D01*
X139794746Y-80578351D01*
X139788387Y-80577000D01*
X139597413Y-80577000D01*
X139591054Y-80578351D01*
X139591050Y-80578352D01*
X139416972Y-80615353D01*
X139416961Y-80615356D01*
X139410612Y-80616706D01*
X139404682Y-80619345D01*
X139404673Y-80619349D01*
X139242082Y-80691739D01*
X139242074Y-80691743D01*
X139236148Y-80694382D01*
X139230899Y-80698195D01*
X139230893Y-80698199D01*
X139086900Y-80802816D01*
X139086891Y-80802823D01*
X139081647Y-80806634D01*
X139077302Y-80811458D01*
X139072471Y-80815810D01*
X139071921Y-80815200D01*
X139036026Y-80841280D01*
X138985591Y-80852000D01*
X138737590Y-80852000D01*
X138682746Y-80839212D01*
X138639214Y-80803486D01*
X138615973Y-80752191D01*
X138617815Y-80695907D01*
X138645179Y-80593780D01*
X138645547Y-80582551D01*
X138634605Y-80580000D01*
X137636326Y-80580000D01*
X137623450Y-80583450D01*
X137620000Y-80596326D01*
X137620000Y-80728000D01*
X137603387Y-80790000D01*
X137558000Y-80835387D01*
X137496000Y-80852000D01*
X137244000Y-80852000D01*
X137182000Y-80835387D01*
X137136613Y-80790000D01*
X137120000Y-80728000D01*
X137120000Y-80596326D01*
X137116549Y-80583450D01*
X137103674Y-80580000D01*
X136105395Y-80580000D01*
X136094452Y-80582551D01*
X136094820Y-80593780D01*
X136122185Y-80695907D01*
X136124027Y-80752191D01*
X136100786Y-80803486D01*
X136057254Y-80839212D01*
X136002410Y-80852000D01*
X131117590Y-80852000D01*
X131062746Y-80839212D01*
X131019214Y-80803486D01*
X130995973Y-80752191D01*
X130997815Y-80695907D01*
X131025179Y-80593780D01*
X131025547Y-80582551D01*
X131014605Y-80580000D01*
X128485395Y-80580000D01*
X128473418Y-80582792D01*
X128466578Y-80597890D01*
X128461804Y-80620710D01*
X128424724Y-80666191D01*
X128370883Y-80689530D01*
X128312340Y-80685499D01*
X128262206Y-80655001D01*
X127734239Y-80127034D01*
X127701196Y-80067669D01*
X127704397Y-79999802D01*
X127742879Y-79943809D01*
X127805091Y-79916500D01*
X127872354Y-79926072D01*
X128008512Y-79986694D01*
X128014870Y-79988045D01*
X128014872Y-79988046D01*
X128051674Y-79995868D01*
X128195313Y-80026400D01*
X128201816Y-80026400D01*
X128370447Y-80026400D01*
X128416647Y-80035328D01*
X128456194Y-80060826D01*
X128460810Y-80067342D01*
X128472597Y-80077016D01*
X128485395Y-80080000D01*
X131014605Y-80080000D01*
X131025547Y-80077448D01*
X131025179Y-80066219D01*
X130982649Y-79907493D01*
X130980807Y-79851209D01*
X131004048Y-79799914D01*
X131047580Y-79764188D01*
X131102424Y-79751400D01*
X136017576Y-79751400D01*
X136072420Y-79764188D01*
G37*
G04 #@! TD.AperFunction*
G04 #@! TA.AperFunction,Conductor*
G36*
X133469715Y-71281173D02*
G01*
X133514473Y-71322222D01*
X133534370Y-71379603D01*
X133524632Y-71439549D01*
X133508585Y-71476629D01*
X133503448Y-71487115D01*
X133485865Y-71519098D01*
X133485861Y-71519106D01*
X133482105Y-71525940D01*
X133480166Y-71533491D01*
X133480163Y-71533499D01*
X133477025Y-71545722D01*
X133470726Y-71564119D01*
X133462619Y-71582855D01*
X133461399Y-71590553D01*
X133461398Y-71590559D01*
X133455688Y-71626611D01*
X133453320Y-71638045D01*
X133444238Y-71673417D01*
X133444236Y-71673426D01*
X133442300Y-71680970D01*
X133442300Y-71688766D01*
X133442300Y-71701385D01*
X133440772Y-71720783D01*
X133437580Y-71740943D01*
X133438314Y-71748708D01*
X133438314Y-71748711D01*
X133441750Y-71785058D01*
X133442300Y-71796727D01*
X133442300Y-73002254D01*
X133441768Y-73013537D01*
X133440098Y-73021009D01*
X133440343Y-73028805D01*
X133440343Y-73028807D01*
X133442239Y-73089117D01*
X133442300Y-73093013D01*
X133442300Y-73120956D01*
X133442788Y-73124821D01*
X133442789Y-73124832D01*
X133442819Y-73125070D01*
X133443734Y-73136696D01*
X133444881Y-73173196D01*
X133444882Y-73173203D01*
X133445127Y-73180989D01*
X133447300Y-73188470D01*
X133447302Y-73188480D01*
X133450822Y-73200595D01*
X133454767Y-73219642D01*
X133457326Y-73239897D01*
X133460195Y-73247145D01*
X133460198Y-73247154D01*
X133473638Y-73281101D01*
X133477421Y-73292148D01*
X133489782Y-73334693D01*
X133493753Y-73341408D01*
X133493754Y-73341410D01*
X133500175Y-73352268D01*
X133508730Y-73369731D01*
X133511619Y-73377026D01*
X133516248Y-73388717D01*
X133520830Y-73395024D01*
X133520831Y-73395025D01*
X133542291Y-73424562D01*
X133548705Y-73434327D01*
X133571258Y-73472462D01*
X133576776Y-73477980D01*
X133585689Y-73486893D01*
X133598325Y-73501688D01*
X133605738Y-73511891D01*
X133605743Y-73511896D01*
X133610328Y-73518207D01*
X133640954Y-73543543D01*
X133644467Y-73546449D01*
X133653108Y-73554312D01*
X135741001Y-75642206D01*
X135748598Y-75650555D01*
X135752700Y-75657018D01*
X135758382Y-75662353D01*
X135758389Y-75662362D01*
X135802366Y-75703657D01*
X135805164Y-75706368D01*
X135824930Y-75726135D01*
X135828006Y-75728521D01*
X135828203Y-75728674D01*
X135837082Y-75736258D01*
X135869379Y-75766586D01*
X135887265Y-75776418D01*
X135903527Y-75787101D01*
X135919659Y-75799614D01*
X135923927Y-75801461D01*
X135967636Y-75845998D01*
X135983733Y-75907876D01*
X135966863Y-75969547D01*
X135921511Y-76014616D01*
X135859735Y-76031100D01*
X131182500Y-76031100D01*
X131120500Y-76014487D01*
X131075113Y-75969100D01*
X131058500Y-75907100D01*
X131058500Y-74404672D01*
X131058500Y-74401362D01*
X131051989Y-74340799D01*
X131000889Y-74203796D01*
X130913261Y-74086739D01*
X130896548Y-74074228D01*
X130803304Y-74004426D01*
X130803303Y-74004425D01*
X130796204Y-73999111D01*
X130787896Y-73996012D01*
X130787894Y-73996011D01*
X130666463Y-73950719D01*
X130666458Y-73950717D01*
X130659201Y-73948011D01*
X130651497Y-73947182D01*
X130651494Y-73947182D01*
X130601924Y-73941853D01*
X130601918Y-73941852D01*
X130598638Y-73941500D01*
X128901362Y-73941500D01*
X128898082Y-73941852D01*
X128898075Y-73941853D01*
X128848505Y-73947182D01*
X128848500Y-73947182D01*
X128840799Y-73948011D01*
X128833543Y-73950717D01*
X128833536Y-73950719D01*
X128712105Y-73996011D01*
X128712099Y-73996013D01*
X128703796Y-73999111D01*
X128696698Y-74004423D01*
X128696695Y-74004426D01*
X128593835Y-74081426D01*
X128593831Y-74081429D01*
X128586739Y-74086739D01*
X128581429Y-74093831D01*
X128581426Y-74093835D01*
X128504426Y-74196695D01*
X128504423Y-74196698D01*
X128499111Y-74203796D01*
X128496013Y-74212099D01*
X128496011Y-74212105D01*
X128450719Y-74333536D01*
X128450717Y-74333543D01*
X128448011Y-74340799D01*
X128447182Y-74348500D01*
X128447182Y-74348505D01*
X128441853Y-74398075D01*
X128441500Y-74401362D01*
X128441500Y-74404672D01*
X128441500Y-75907100D01*
X128424887Y-75969100D01*
X128379500Y-76014487D01*
X128318919Y-76030719D01*
X128318928Y-76030855D01*
X128318256Y-76030897D01*
X128317500Y-76031100D01*
X128311144Y-76031100D01*
X128307290Y-76031586D01*
X128307283Y-76031587D01*
X128307025Y-76031620D01*
X128295403Y-76032534D01*
X128258903Y-76033681D01*
X128258895Y-76033682D01*
X128251110Y-76033927D01*
X128243629Y-76036100D01*
X128243618Y-76036102D01*
X128231505Y-76039622D01*
X128212457Y-76043567D01*
X128199940Y-76045148D01*
X128199936Y-76045148D01*
X128192203Y-76046126D01*
X128184953Y-76048996D01*
X128184950Y-76048997D01*
X128151007Y-76062435D01*
X128139963Y-76066216D01*
X128104901Y-76076403D01*
X128104891Y-76076407D01*
X128097406Y-76078582D01*
X128090696Y-76082549D01*
X128090687Y-76082554D01*
X128079829Y-76088976D01*
X128062361Y-76097533D01*
X128043383Y-76105048D01*
X128037077Y-76109628D01*
X128037074Y-76109631D01*
X128007545Y-76131085D01*
X127997785Y-76137496D01*
X127966352Y-76156086D01*
X127966348Y-76156088D01*
X127959637Y-76160058D01*
X127954121Y-76165573D01*
X127954118Y-76165576D01*
X127945194Y-76174499D01*
X127930411Y-76187125D01*
X127920207Y-76194539D01*
X127920200Y-76194545D01*
X127913893Y-76199128D01*
X127908924Y-76205133D01*
X127908921Y-76205137D01*
X127885657Y-76233258D01*
X127877798Y-76241894D01*
X127772314Y-76347380D01*
X127732085Y-76374261D01*
X127684632Y-76383700D01*
X127627913Y-76383700D01*
X127621554Y-76385051D01*
X127621550Y-76385052D01*
X127447472Y-76422053D01*
X127447461Y-76422056D01*
X127441112Y-76423406D01*
X127435182Y-76426045D01*
X127435173Y-76426049D01*
X127272582Y-76498439D01*
X127272574Y-76498443D01*
X127266648Y-76501082D01*
X127261399Y-76504895D01*
X127261393Y-76504899D01*
X127117400Y-76609516D01*
X127117391Y-76609523D01*
X127112147Y-76613334D01*
X127107803Y-76618157D01*
X127107800Y-76618161D01*
X127015208Y-76720996D01*
X126984360Y-76755256D01*
X126981114Y-76760876D01*
X126981111Y-76760882D01*
X126892121Y-76915017D01*
X126892118Y-76915022D01*
X126888873Y-76920644D01*
X126886867Y-76926816D01*
X126886865Y-76926822D01*
X126831865Y-77096092D01*
X126831863Y-77096101D01*
X126829858Y-77102272D01*
X126829180Y-77108722D01*
X126829178Y-77108732D01*
X126815313Y-77240657D01*
X126809896Y-77292200D01*
X126810575Y-77298660D01*
X126829178Y-77475667D01*
X126829179Y-77475675D01*
X126829858Y-77482128D01*
X126831863Y-77488300D01*
X126831865Y-77488307D01*
X126886865Y-77657577D01*
X126888873Y-77663756D01*
X126892120Y-77669380D01*
X126892121Y-77669382D01*
X126958971Y-77785170D01*
X126984360Y-77829144D01*
X127112147Y-77971066D01*
X127117397Y-77974880D01*
X127117400Y-77974883D01*
X127187308Y-78025674D01*
X127266648Y-78083318D01*
X127272581Y-78085959D01*
X127272582Y-78085960D01*
X127421079Y-78152075D01*
X127441112Y-78160994D01*
X127447470Y-78162345D01*
X127447472Y-78162346D01*
X127612369Y-78197396D01*
X127627913Y-78200700D01*
X127634419Y-78200700D01*
X127639158Y-78201198D01*
X127694818Y-78221235D01*
X127734860Y-78264778D01*
X127750173Y-78321918D01*
X127737270Y-78379650D01*
X127699089Y-78424834D01*
X127684807Y-78435211D01*
X127684799Y-78435218D01*
X127679547Y-78439034D01*
X127675203Y-78443857D01*
X127675200Y-78443861D01*
X127572351Y-78558087D01*
X127551760Y-78580956D01*
X127548514Y-78586576D01*
X127548511Y-78586582D01*
X127459521Y-78740717D01*
X127459518Y-78740722D01*
X127456273Y-78746344D01*
X127454267Y-78752516D01*
X127454265Y-78752522D01*
X127399265Y-78921792D01*
X127399263Y-78921801D01*
X127397258Y-78927972D01*
X127396580Y-78934422D01*
X127396578Y-78934432D01*
X127382483Y-79068546D01*
X127377296Y-79117900D01*
X127377975Y-79124360D01*
X127396578Y-79301367D01*
X127396579Y-79301375D01*
X127397258Y-79307828D01*
X127399263Y-79314000D01*
X127399265Y-79314007D01*
X127451576Y-79475000D01*
X127456273Y-79489456D01*
X127459520Y-79495080D01*
X127459521Y-79495082D01*
X127476576Y-79524622D01*
X127493071Y-79581213D01*
X127481571Y-79639027D01*
X127444675Y-79684998D01*
X127390721Y-79708738D01*
X127331901Y-79704883D01*
X127281508Y-79674303D01*
X126670295Y-79063090D01*
X126662703Y-79054748D01*
X126658600Y-79048282D01*
X126608916Y-79001626D01*
X126606150Y-78998945D01*
X126589127Y-78981922D01*
X126589126Y-78981921D01*
X126586370Y-78979165D01*
X126583086Y-78976617D01*
X126574224Y-78969046D01*
X126547609Y-78944054D01*
X126547603Y-78944049D01*
X126541921Y-78938714D01*
X126535088Y-78934958D01*
X126535082Y-78934953D01*
X126524029Y-78928876D01*
X126507774Y-78918199D01*
X126497809Y-78910470D01*
X126497806Y-78910468D01*
X126491641Y-78905686D01*
X126450976Y-78888089D01*
X126440484Y-78882949D01*
X126408496Y-78865363D01*
X126408494Y-78865362D01*
X126401660Y-78861605D01*
X126381884Y-78856527D01*
X126363481Y-78850226D01*
X126351909Y-78845218D01*
X126351901Y-78845215D01*
X126344745Y-78842119D01*
X126337040Y-78840898D01*
X126337038Y-78840898D01*
X126300981Y-78835187D01*
X126289555Y-78832821D01*
X126246630Y-78821800D01*
X126238828Y-78821800D01*
X126226215Y-78821800D01*
X126206817Y-78820273D01*
X126194366Y-78818301D01*
X126186657Y-78817080D01*
X126178891Y-78817814D01*
X126178888Y-78817814D01*
X126142542Y-78821250D01*
X126130873Y-78821800D01*
X126124481Y-78821800D01*
X126069637Y-78809012D01*
X126026105Y-78773286D01*
X126002864Y-78721991D01*
X126004706Y-78665706D01*
X126032141Y-78563319D01*
X126032140Y-78563319D01*
X126033543Y-78558087D01*
X126053498Y-78330000D01*
X126033543Y-78101913D01*
X126029268Y-78085960D01*
X125975683Y-77885978D01*
X125975682Y-77885977D01*
X125974284Y-77880757D01*
X125877523Y-77673251D01*
X125779176Y-77532797D01*
X125749303Y-77490134D01*
X125749301Y-77490132D01*
X125746198Y-77485700D01*
X125584300Y-77323802D01*
X125579869Y-77320699D01*
X125579865Y-77320696D01*
X125405782Y-77198802D01*
X125396749Y-77192477D01*
X125353650Y-77172380D01*
X125301478Y-77126626D01*
X125282058Y-77060000D01*
X125301478Y-76993374D01*
X125353650Y-76947619D01*
X125396749Y-76927523D01*
X125584300Y-76796198D01*
X125746198Y-76634300D01*
X125877523Y-76446749D01*
X125974284Y-76239243D01*
X126033543Y-76018087D01*
X126053498Y-75790000D01*
X126033543Y-75561913D01*
X125993856Y-75413802D01*
X125975683Y-75345978D01*
X125975682Y-75345977D01*
X125974284Y-75340757D01*
X125877523Y-75133251D01*
X125782811Y-74997989D01*
X125749303Y-74950134D01*
X125749301Y-74950132D01*
X125746198Y-74945700D01*
X125584300Y-74783802D01*
X125579869Y-74780699D01*
X125579865Y-74780696D01*
X125442153Y-74684269D01*
X125396749Y-74652477D01*
X125353650Y-74632380D01*
X125301478Y-74586626D01*
X125282058Y-74520000D01*
X125301478Y-74453374D01*
X125353650Y-74407619D01*
X125396749Y-74387523D01*
X125584300Y-74256198D01*
X125746198Y-74094300D01*
X125755213Y-74081426D01*
X125858604Y-73933768D01*
X125901207Y-73895812D01*
X125949771Y-73882711D01*
X125949681Y-73882139D01*
X125955044Y-73881289D01*
X125956293Y-73880952D01*
X125965189Y-73880673D01*
X125984790Y-73874977D01*
X126003841Y-73871032D01*
X126024097Y-73868474D01*
X126057632Y-73855196D01*
X126065293Y-73852163D01*
X126076343Y-73848379D01*
X126118893Y-73836018D01*
X126136465Y-73825625D01*
X126153932Y-73817068D01*
X126172917Y-73809552D01*
X126208775Y-73783498D01*
X126218523Y-73777096D01*
X126256662Y-73754542D01*
X126271093Y-73740110D01*
X126285888Y-73727472D01*
X126302407Y-73715472D01*
X126330660Y-73681318D01*
X126338503Y-73672699D01*
X128708585Y-71302619D01*
X128748814Y-71275739D01*
X128796267Y-71266300D01*
X133410832Y-71266300D01*
X133469715Y-71281173D01*
G37*
G04 #@! TD.AperFunction*
G04 #@! TA.AperFunction,Conductor*
G36*
X127213829Y-70776015D02*
G01*
X127257852Y-70813615D01*
X127280007Y-70867102D01*
X127275465Y-70924818D01*
X127245215Y-70974180D01*
X126899317Y-71320078D01*
X125867627Y-72351767D01*
X125812040Y-72383861D01*
X125747852Y-72383861D01*
X125692265Y-72351767D01*
X125588131Y-72247633D01*
X125584300Y-72243802D01*
X125579869Y-72240699D01*
X125579865Y-72240696D01*
X125411253Y-72122633D01*
X125396749Y-72112477D01*
X125373421Y-72101599D01*
X125194146Y-72018002D01*
X125194143Y-72018000D01*
X125189243Y-72015716D01*
X125184028Y-72014318D01*
X125184021Y-72014316D01*
X124973319Y-71957858D01*
X124973308Y-71957856D01*
X124968087Y-71956457D01*
X124962695Y-71955985D01*
X124962688Y-71955984D01*
X124745395Y-71936974D01*
X124740000Y-71936502D01*
X124734605Y-71936974D01*
X124517311Y-71955984D01*
X124517302Y-71955985D01*
X124511913Y-71956457D01*
X124506692Y-71957855D01*
X124506680Y-71957858D01*
X124295978Y-72014316D01*
X124295967Y-72014319D01*
X124290757Y-72015716D01*
X124285860Y-72017999D01*
X124285853Y-72018002D01*
X124088165Y-72110185D01*
X124088159Y-72110188D01*
X124083251Y-72112477D01*
X124078817Y-72115581D01*
X124078813Y-72115584D01*
X123900134Y-72240696D01*
X123900124Y-72240703D01*
X123895700Y-72243802D01*
X123891874Y-72247627D01*
X123891868Y-72247633D01*
X123737633Y-72401868D01*
X123737627Y-72401874D01*
X123733802Y-72405700D01*
X123730703Y-72410124D01*
X123730696Y-72410134D01*
X123605584Y-72588813D01*
X123605581Y-72588817D01*
X123602477Y-72593251D01*
X123600188Y-72598159D01*
X123600185Y-72598165D01*
X123508002Y-72795853D01*
X123507999Y-72795860D01*
X123505716Y-72800757D01*
X123504319Y-72805967D01*
X123504316Y-72805978D01*
X123447858Y-73016680D01*
X123447855Y-73016692D01*
X123446457Y-73021913D01*
X123445985Y-73027302D01*
X123445984Y-73027311D01*
X123431884Y-73188480D01*
X123426502Y-73250000D01*
X123426974Y-73255395D01*
X123445984Y-73472688D01*
X123445985Y-73472695D01*
X123446457Y-73478087D01*
X123447856Y-73483308D01*
X123447858Y-73483319D01*
X123504316Y-73694021D01*
X123504318Y-73694028D01*
X123505716Y-73699243D01*
X123508000Y-73704143D01*
X123508002Y-73704146D01*
X123583290Y-73865602D01*
X123602477Y-73906749D01*
X123610846Y-73918701D01*
X123730696Y-74089865D01*
X123730699Y-74089869D01*
X123733802Y-74094300D01*
X123895700Y-74256198D01*
X124083251Y-74387523D01*
X124126346Y-74407618D01*
X124178521Y-74453375D01*
X124197941Y-74520000D01*
X124178521Y-74586625D01*
X124126346Y-74632381D01*
X124121589Y-74634600D01*
X124088161Y-74650187D01*
X124088156Y-74650189D01*
X124083251Y-74652477D01*
X124078817Y-74655581D01*
X124078813Y-74655584D01*
X123900134Y-74780696D01*
X123900124Y-74780703D01*
X123895700Y-74783802D01*
X123891874Y-74787627D01*
X123891868Y-74787633D01*
X123737633Y-74941868D01*
X123737627Y-74941874D01*
X123733802Y-74945700D01*
X123730703Y-74950124D01*
X123730696Y-74950134D01*
X123605584Y-75128813D01*
X123605581Y-75128817D01*
X123602477Y-75133251D01*
X123600188Y-75138159D01*
X123600185Y-75138165D01*
X123508002Y-75335853D01*
X123507999Y-75335860D01*
X123505716Y-75340757D01*
X123504319Y-75345967D01*
X123504316Y-75345978D01*
X123447858Y-75556680D01*
X123447855Y-75556692D01*
X123446457Y-75561913D01*
X123445985Y-75567302D01*
X123445984Y-75567311D01*
X123429018Y-75761246D01*
X123426502Y-75790000D01*
X123426974Y-75795395D01*
X123445984Y-76012688D01*
X123445985Y-76012695D01*
X123446457Y-76018087D01*
X123447856Y-76023308D01*
X123447858Y-76023319D01*
X123504316Y-76234021D01*
X123504318Y-76234028D01*
X123505716Y-76239243D01*
X123508000Y-76244143D01*
X123508002Y-76244146D01*
X123592824Y-76426049D01*
X123602477Y-76446749D01*
X123605584Y-76451186D01*
X123730696Y-76629865D01*
X123730699Y-76629869D01*
X123733802Y-76634300D01*
X123895700Y-76796198D01*
X123900132Y-76799301D01*
X123900134Y-76799303D01*
X123965459Y-76845044D01*
X124083251Y-76927523D01*
X124126346Y-76947618D01*
X124178521Y-76993375D01*
X124197941Y-77060000D01*
X124178521Y-77126625D01*
X124126346Y-77172381D01*
X124108348Y-77180773D01*
X124088161Y-77190187D01*
X124088156Y-77190189D01*
X124083251Y-77192477D01*
X124078817Y-77195581D01*
X124078813Y-77195584D01*
X123900134Y-77320696D01*
X123900124Y-77320703D01*
X123895700Y-77323802D01*
X123891874Y-77327627D01*
X123891868Y-77327633D01*
X123737633Y-77481868D01*
X123737627Y-77481874D01*
X123733802Y-77485700D01*
X123730703Y-77490124D01*
X123730696Y-77490134D01*
X123605584Y-77668813D01*
X123605581Y-77668817D01*
X123602477Y-77673251D01*
X123600188Y-77678159D01*
X123600185Y-77678165D01*
X123508002Y-77875853D01*
X123507999Y-77875860D01*
X123505716Y-77880757D01*
X123504319Y-77885967D01*
X123504316Y-77885978D01*
X123447858Y-78096680D01*
X123447855Y-78096692D01*
X123446457Y-78101913D01*
X123445985Y-78107302D01*
X123445984Y-78107311D01*
X123432810Y-78257901D01*
X123426502Y-78330000D01*
X123426974Y-78335395D01*
X123445984Y-78552688D01*
X123445985Y-78552695D01*
X123446457Y-78558087D01*
X123447856Y-78563308D01*
X123447858Y-78563319D01*
X123475294Y-78665706D01*
X123477136Y-78721991D01*
X123453895Y-78773286D01*
X123410363Y-78809012D01*
X123355519Y-78821800D01*
X112064366Y-78821800D01*
X112016913Y-78812361D01*
X111976685Y-78785481D01*
X111559714Y-78368510D01*
X111128997Y-77937792D01*
X111121400Y-77929444D01*
X111117300Y-77922982D01*
X111111614Y-77917642D01*
X111111612Y-77917640D01*
X111067631Y-77876340D01*
X111064834Y-77873629D01*
X111047827Y-77856622D01*
X111045070Y-77853865D01*
X111041786Y-77851317D01*
X111032924Y-77843746D01*
X111006309Y-77818754D01*
X111006303Y-77818749D01*
X111000621Y-77813414D01*
X110993788Y-77809658D01*
X110993782Y-77809653D01*
X110982729Y-77803576D01*
X110966474Y-77792899D01*
X110956509Y-77785170D01*
X110956506Y-77785168D01*
X110950341Y-77780386D01*
X110909676Y-77762789D01*
X110899184Y-77757649D01*
X110867196Y-77740063D01*
X110867194Y-77740062D01*
X110860360Y-77736305D01*
X110840584Y-77731227D01*
X110822181Y-77724926D01*
X110810609Y-77719918D01*
X110810601Y-77719915D01*
X110803445Y-77716819D01*
X110795740Y-77715598D01*
X110795738Y-77715598D01*
X110759681Y-77709887D01*
X110748255Y-77707521D01*
X110705330Y-77696500D01*
X110701692Y-77696500D01*
X110655565Y-77680482D01*
X110618041Y-77645428D01*
X110509307Y-77490139D01*
X110509302Y-77490133D01*
X110506198Y-77485700D01*
X110344300Y-77323802D01*
X110339867Y-77320698D01*
X110339860Y-77320692D01*
X110165384Y-77198523D01*
X110132590Y-77164604D01*
X110114841Y-77120891D01*
X110114703Y-77073719D01*
X110117825Y-77057351D01*
X110119509Y-77049815D01*
X110133500Y-76995330D01*
X110133500Y-76991694D01*
X110149518Y-76945566D01*
X110184572Y-76908041D01*
X110192753Y-76902313D01*
X110265321Y-76851500D01*
X110339860Y-76799307D01*
X110339860Y-76799306D01*
X110344300Y-76796198D01*
X110506198Y-76634300D01*
X110637523Y-76446749D01*
X110734284Y-76239243D01*
X110793543Y-76018087D01*
X110813498Y-75790000D01*
X110793543Y-75561913D01*
X110753856Y-75413802D01*
X110735683Y-75345978D01*
X110735682Y-75345977D01*
X110734284Y-75340757D01*
X110637523Y-75133251D01*
X110542811Y-74997989D01*
X110509303Y-74950134D01*
X110509301Y-74950132D01*
X110506198Y-74945700D01*
X110344300Y-74783802D01*
X110339867Y-74780698D01*
X110339860Y-74780692D01*
X110326000Y-74770987D01*
X110286864Y-74726144D01*
X110273132Y-74668230D01*
X110287968Y-74610589D01*
X110327953Y-74566501D01*
X110383876Y-74546124D01*
X110399665Y-74544427D01*
X110414641Y-74540888D01*
X110533777Y-74496452D01*
X110549189Y-74488037D01*
X110650092Y-74412501D01*
X110662501Y-74400092D01*
X110738037Y-74299189D01*
X110746452Y-74283777D01*
X110790888Y-74164641D01*
X110794426Y-74149667D01*
X110799646Y-74101114D01*
X110800000Y-74094518D01*
X110800000Y-73516326D01*
X110796549Y-73503450D01*
X110783674Y-73500000D01*
X109374000Y-73500000D01*
X109312000Y-73483387D01*
X109266613Y-73438000D01*
X109250000Y-73376000D01*
X109250000Y-73124000D01*
X109266613Y-73062000D01*
X109312000Y-73016613D01*
X109374000Y-73000000D01*
X110783674Y-73000000D01*
X110796549Y-72996549D01*
X110800000Y-72983674D01*
X110800000Y-72405482D01*
X110799646Y-72398885D01*
X110794426Y-72350332D01*
X110790888Y-72335358D01*
X110746452Y-72216222D01*
X110738037Y-72200810D01*
X110662501Y-72099907D01*
X110650092Y-72087498D01*
X110549189Y-72011962D01*
X110533777Y-72003547D01*
X110414641Y-71959111D01*
X110399667Y-71955573D01*
X110351114Y-71950353D01*
X110344518Y-71950000D01*
X109934066Y-71950000D01*
X109877771Y-71936485D01*
X109833748Y-71898885D01*
X109811593Y-71845398D01*
X109816135Y-71787682D01*
X109846384Y-71738320D01*
X110785885Y-70798819D01*
X110826114Y-70771939D01*
X110873567Y-70762500D01*
X127157534Y-70762500D01*
X127213829Y-70776015D01*
G37*
G04 #@! TD.AperFunction*
G04 #@! TA.AperFunction,Conductor*
G36*
X141176587Y-71275739D02*
G01*
X141216815Y-71302619D01*
X141527515Y-71613319D01*
X141557765Y-71662682D01*
X141562307Y-71720398D01*
X141540152Y-71773885D01*
X141496129Y-71811485D01*
X141439834Y-71825000D01*
X141030482Y-71825000D01*
X141023885Y-71825353D01*
X140975332Y-71830573D01*
X140960358Y-71834111D01*
X140841222Y-71878547D01*
X140825810Y-71886962D01*
X140724907Y-71962498D01*
X140712498Y-71974907D01*
X140636962Y-72075810D01*
X140628547Y-72091222D01*
X140584111Y-72210358D01*
X140580573Y-72225332D01*
X140575353Y-72273885D01*
X140575000Y-72280482D01*
X140575000Y-72858674D01*
X140578450Y-72871549D01*
X140591326Y-72875000D01*
X142001000Y-72875000D01*
X142063000Y-72891613D01*
X142108387Y-72937000D01*
X142125000Y-72999000D01*
X142125000Y-73251000D01*
X142108387Y-73313000D01*
X142063000Y-73358387D01*
X142001000Y-73375000D01*
X140591326Y-73375000D01*
X140578450Y-73378450D01*
X140575000Y-73391326D01*
X140575000Y-73969518D01*
X140575353Y-73976114D01*
X140580573Y-74024667D01*
X140584111Y-74039641D01*
X140628547Y-74158777D01*
X140636962Y-74174189D01*
X140712498Y-74275092D01*
X140724907Y-74287501D01*
X140825810Y-74363037D01*
X140841222Y-74371452D01*
X140960358Y-74415888D01*
X140975334Y-74419427D01*
X140991123Y-74421124D01*
X141047045Y-74441501D01*
X141087031Y-74485588D01*
X141101867Y-74543228D01*
X141088136Y-74601142D01*
X141049001Y-74645985D01*
X141035145Y-74655687D01*
X141035126Y-74655702D01*
X141030700Y-74658802D01*
X141026874Y-74662627D01*
X141026868Y-74662633D01*
X140872633Y-74816868D01*
X140872627Y-74816874D01*
X140868802Y-74820700D01*
X140865703Y-74825124D01*
X140865696Y-74825134D01*
X140740584Y-75003813D01*
X140740581Y-75003817D01*
X140737477Y-75008251D01*
X140735188Y-75013159D01*
X140735185Y-75013165D01*
X140643002Y-75210853D01*
X140643000Y-75210858D01*
X140640716Y-75215757D01*
X140639319Y-75220967D01*
X140639316Y-75220978D01*
X140582858Y-75431680D01*
X140582855Y-75431692D01*
X140581457Y-75436913D01*
X140580985Y-75442302D01*
X140580984Y-75442311D01*
X140565553Y-75618700D01*
X140561502Y-75665000D01*
X140561974Y-75670395D01*
X140581457Y-75893087D01*
X140580279Y-75893190D01*
X140578267Y-75939202D01*
X140553480Y-75986810D01*
X140510896Y-76019483D01*
X140458494Y-76031100D01*
X138644178Y-76031100D01*
X138584536Y-76015814D01*
X138539598Y-75973725D01*
X138520444Y-75915210D01*
X138531796Y-75854696D01*
X138572145Y-75768165D01*
X138604284Y-75699243D01*
X138663543Y-75478087D01*
X138683498Y-75250000D01*
X138663543Y-75021913D01*
X138604284Y-74800757D01*
X138507523Y-74593251D01*
X138413353Y-74458762D01*
X138379303Y-74410134D01*
X138379301Y-74410132D01*
X138376198Y-74405700D01*
X138214300Y-74243802D01*
X138209869Y-74240699D01*
X138209865Y-74240696D01*
X138046867Y-74126564D01*
X138026749Y-74112477D01*
X137986771Y-74093835D01*
X137824146Y-74018002D01*
X137824143Y-74018000D01*
X137819243Y-74015716D01*
X137814028Y-74014318D01*
X137814021Y-74014316D01*
X137603319Y-73957858D01*
X137603308Y-73957856D01*
X137598087Y-73956457D01*
X137592695Y-73955985D01*
X137592688Y-73955984D01*
X137375395Y-73936974D01*
X137370000Y-73936502D01*
X137364605Y-73936974D01*
X137147311Y-73955984D01*
X137147302Y-73955985D01*
X137141913Y-73956457D01*
X137136692Y-73957855D01*
X137136680Y-73957858D01*
X136925978Y-74014316D01*
X136925967Y-74014319D01*
X136920757Y-74015716D01*
X136915860Y-74017999D01*
X136915853Y-74018002D01*
X136718165Y-74110185D01*
X136718159Y-74110188D01*
X136713251Y-74112477D01*
X136708817Y-74115581D01*
X136708813Y-74115584D01*
X136530134Y-74240696D01*
X136530124Y-74240703D01*
X136525700Y-74243802D01*
X136521873Y-74247628D01*
X136521874Y-74247628D01*
X136417734Y-74351768D01*
X136362146Y-74383861D01*
X136297959Y-74383861D01*
X136242372Y-74351767D01*
X135588361Y-73697757D01*
X135556267Y-73642169D01*
X135556267Y-73577982D01*
X135588361Y-73522394D01*
X135643949Y-73490301D01*
X135691095Y-73477668D01*
X135701231Y-73473979D01*
X135897575Y-73382422D01*
X135906920Y-73377026D01*
X135964348Y-73336814D01*
X135971780Y-73328703D01*
X135965867Y-73319421D01*
X134984127Y-72337681D01*
X134952033Y-72282094D01*
X134952033Y-72217906D01*
X134984127Y-72162319D01*
X135162319Y-71984127D01*
X135217906Y-71952033D01*
X135282094Y-71952033D01*
X135337681Y-71984127D01*
X136319421Y-72965867D01*
X136328703Y-72971780D01*
X136336814Y-72964348D01*
X136377026Y-72906920D01*
X136382418Y-72897581D01*
X136382925Y-72896496D01*
X136383278Y-72896093D01*
X136385130Y-72892886D01*
X136385767Y-72893254D01*
X136428681Y-72844316D01*
X136495308Y-72824893D01*
X136561936Y-72844313D01*
X136607693Y-72896490D01*
X136612477Y-72906749D01*
X136615584Y-72911186D01*
X136740696Y-73089865D01*
X136740699Y-73089869D01*
X136743802Y-73094300D01*
X136905700Y-73256198D01*
X137093251Y-73387523D01*
X137300757Y-73484284D01*
X137305977Y-73485682D01*
X137305978Y-73485683D01*
X137516680Y-73542141D01*
X137516682Y-73542141D01*
X137521913Y-73543543D01*
X137750000Y-73563498D01*
X137978087Y-73543543D01*
X138199243Y-73484284D01*
X138406749Y-73387523D01*
X138594300Y-73256198D01*
X138756198Y-73094300D01*
X138887523Y-72906749D01*
X138984284Y-72699243D01*
X139043543Y-72478087D01*
X139063498Y-72250000D01*
X139043543Y-72021913D01*
X139041507Y-72014316D01*
X138985683Y-71805978D01*
X138985682Y-71805977D01*
X138984284Y-71800757D01*
X138887523Y-71593251D01*
X138795215Y-71461422D01*
X138773057Y-71398410D01*
X138786802Y-71333043D01*
X138832463Y-71284291D01*
X138896791Y-71266300D01*
X141129134Y-71266300D01*
X141176587Y-71275739D01*
G37*
G04 #@! TD.AperFunction*
G04 #@! TA.AperFunction,Conductor*
G36*
X109782307Y-68514964D02*
G01*
X109827107Y-68556246D01*
X109846840Y-68613881D01*
X109836745Y-68673958D01*
X109799976Y-68721055D01*
X109795238Y-68723858D01*
X109789727Y-68729367D01*
X109789720Y-68729374D01*
X109780797Y-68738297D01*
X109766014Y-68750923D01*
X109755806Y-68758340D01*
X109755800Y-68758344D01*
X109749493Y-68762928D01*
X109744526Y-68768930D01*
X109744515Y-68768942D01*
X109721243Y-68797073D01*
X109713383Y-68805711D01*
X106711681Y-71807413D01*
X106662318Y-71837663D01*
X106604602Y-71842205D01*
X106551115Y-71820050D01*
X106513515Y-71776027D01*
X106500000Y-71719732D01*
X106500000Y-68624000D01*
X106516613Y-68562000D01*
X106562000Y-68516613D01*
X106624000Y-68500000D01*
X109723254Y-68500000D01*
X109782307Y-68514964D01*
G37*
G04 #@! TD.AperFunction*
M02*
