M48
; DRILL file {KiCad (6.0.4-0)} date 
; FORMAT={-:-/ absolute / metric / decimal}
; #@! TF.CreationDate,2022-11-05T16:46:23+09:00
; #@! TF.GenerationSoftware,Kicad,Pcbnew,(6.0.4-0)
; #@! TF.FileFunction,MixedPlating,1,2
FMAT,2
METRIC
; #@! TA.AperFunction,Plated,PTH,ComponentDrill
T1C0.800
%
G90
G05
T1
X111.245Y-74.175
X111.245Y-76.715
X111.245Y-79.255
X111.245Y-81.795
X111.245Y-84.335
X111.245Y-86.875
X111.245Y-89.415
X111.245Y-91.955
X111.245Y-94.495
X111.245Y-97.035
X111.245Y-99.575
X111.245Y-102.115
X111.245Y-104.655
X111.245Y-107.195
X111.245Y-109.735
X111.245Y-112.275
X111.245Y-114.815
X111.245Y-117.355
X111.245Y-119.895
X111.245Y-122.435
X126.485Y-74.175
X126.485Y-76.715
X126.485Y-79.255
X126.485Y-81.795
X126.485Y-84.335
X126.485Y-86.875
X126.485Y-89.415
X126.485Y-91.955
X126.485Y-94.495
X126.485Y-97.035
X126.485Y-99.575
X126.485Y-102.115
X126.485Y-104.655
X126.485Y-107.195
X126.485Y-109.735
X126.485Y-112.275
X126.485Y-114.815
X126.485Y-117.355
X126.485Y-119.895
X126.485Y-122.435
X130.645Y-74.175
X130.645Y-76.715
X130.645Y-79.255
X130.645Y-81.795
X130.645Y-84.335
X130.645Y-86.875
X130.645Y-89.415
X136.395Y-71.125
X138.265Y-74.175
X138.265Y-76.715
X138.265Y-79.255
X138.265Y-81.795
X138.265Y-84.335
X138.265Y-86.875
X138.265Y-89.415
X138.895Y-71.125
X139.145Y-92.875
X139.145Y-95.375
X142.395Y-74.175
X142.395Y-76.715
X142.395Y-79.255
X142.395Y-81.795
X142.395Y-84.335
X142.395Y-86.875
X142.395Y-89.415
X142.395Y-91.955
X142.395Y-94.495
X142.395Y-97.035
X142.395Y-99.575
X142.395Y-102.115
X142.395Y-104.655
X142.395Y-107.195
X142.395Y-109.735
X142.395Y-112.275
X142.395Y-114.815
X142.395Y-117.355
X142.395Y-119.895
X142.395Y-122.435
X157.635Y-74.175
X157.635Y-76.715
X157.635Y-79.255
X157.635Y-81.795
X157.635Y-84.335
X157.635Y-86.875
X157.635Y-89.415
X157.635Y-91.955
X157.635Y-94.495
X157.635Y-97.035
X157.635Y-99.575
X157.635Y-102.115
X157.635Y-104.655
X157.635Y-107.195
X157.635Y-109.735
X157.635Y-112.275
X157.635Y-114.815
X157.635Y-117.355
X157.635Y-119.895
X157.635Y-122.435
T0
M30
