G04 #@! TF.GenerationSoftware,KiCad,Pcbnew,(7.0.0-0)*
G04 #@! TF.CreationDate,2023-03-04T11:20:18+09:00*
G04 #@! TF.ProjectId,MC6803EP-SBC6809E,4d433638-3033-4455-902d-534243363830,rev?*
G04 #@! TF.SameCoordinates,Original*
G04 #@! TF.FileFunction,Legend,Bot*
G04 #@! TF.FilePolarity,Positive*
%FSLAX46Y46*%
G04 Gerber Fmt 4.6, Leading zero omitted, Abs format (unit mm)*
G04 Created by KiCad (PCBNEW (7.0.0-0)) date 2023-03-04 11:20:18*
%MOMM*%
%LPD*%
G01*
G04 APERTURE LIST*
%ADD10C,0.150000*%
%ADD11R,1.600000X1.600000*%
%ADD12O,1.600000X1.600000*%
%ADD13R,1.700000X1.700000*%
%ADD14O,1.700000X1.700000*%
%ADD15C,1.600000*%
G04 APERTURE END LIST*
D10*
X133990476Y-128167380D02*
X134561904Y-128167380D01*
X134276190Y-128167380D02*
X134276190Y-127167380D01*
X134276190Y-127167380D02*
X134371428Y-127310238D01*
X134371428Y-127310238D02*
X134466666Y-127405476D01*
X134466666Y-127405476D02*
X134561904Y-127453095D01*
X133085714Y-127167380D02*
X133561904Y-127167380D01*
X133561904Y-127167380D02*
X133609523Y-127643571D01*
X133609523Y-127643571D02*
X133561904Y-127595952D01*
X133561904Y-127595952D02*
X133466666Y-127548333D01*
X133466666Y-127548333D02*
X133228571Y-127548333D01*
X133228571Y-127548333D02*
X133133333Y-127595952D01*
X133133333Y-127595952D02*
X133085714Y-127643571D01*
X133085714Y-127643571D02*
X133038095Y-127738809D01*
X133038095Y-127738809D02*
X133038095Y-127976904D01*
X133038095Y-127976904D02*
X133085714Y-128072142D01*
X133085714Y-128072142D02*
X133133333Y-128119761D01*
X133133333Y-128119761D02*
X133228571Y-128167380D01*
X133228571Y-128167380D02*
X133466666Y-128167380D01*
X133466666Y-128167380D02*
X133561904Y-128119761D01*
X133561904Y-128119761D02*
X133609523Y-128072142D01*
X139090476Y-128167380D02*
X139661904Y-128167380D01*
X139376190Y-128167380D02*
X139376190Y-127167380D01*
X139376190Y-127167380D02*
X139471428Y-127310238D01*
X139471428Y-127310238D02*
X139566666Y-127405476D01*
X139566666Y-127405476D02*
X139661904Y-127453095D01*
X138757142Y-127167380D02*
X138138095Y-127167380D01*
X138138095Y-127167380D02*
X138471428Y-127548333D01*
X138471428Y-127548333D02*
X138328571Y-127548333D01*
X138328571Y-127548333D02*
X138233333Y-127595952D01*
X138233333Y-127595952D02*
X138185714Y-127643571D01*
X138185714Y-127643571D02*
X138138095Y-127738809D01*
X138138095Y-127738809D02*
X138138095Y-127976904D01*
X138138095Y-127976904D02*
X138185714Y-128072142D01*
X138185714Y-128072142D02*
X138233333Y-128119761D01*
X138233333Y-128119761D02*
X138328571Y-128167380D01*
X138328571Y-128167380D02*
X138614285Y-128167380D01*
X138614285Y-128167380D02*
X138709523Y-128119761D01*
X138709523Y-128119761D02*
X138757142Y-128072142D01*
X128790476Y-128167380D02*
X129361904Y-128167380D01*
X129076190Y-128167380D02*
X129076190Y-127167380D01*
X129076190Y-127167380D02*
X129171428Y-127310238D01*
X129171428Y-127310238D02*
X129266666Y-127405476D01*
X129266666Y-127405476D02*
X129361904Y-127453095D01*
X128457142Y-127167380D02*
X127790476Y-127167380D01*
X127790476Y-127167380D02*
X128219047Y-128167380D01*
X146690476Y-128167380D02*
X147261904Y-128167380D01*
X146976190Y-128167380D02*
X146976190Y-127167380D01*
X146976190Y-127167380D02*
X147071428Y-127310238D01*
X147071428Y-127310238D02*
X147166666Y-127405476D01*
X147166666Y-127405476D02*
X147261904Y-127453095D01*
X146071428Y-127167380D02*
X145976190Y-127167380D01*
X145976190Y-127167380D02*
X145880952Y-127215000D01*
X145880952Y-127215000D02*
X145833333Y-127262619D01*
X145833333Y-127262619D02*
X145785714Y-127357857D01*
X145785714Y-127357857D02*
X145738095Y-127548333D01*
X145738095Y-127548333D02*
X145738095Y-127786428D01*
X145738095Y-127786428D02*
X145785714Y-127976904D01*
X145785714Y-127976904D02*
X145833333Y-128072142D01*
X145833333Y-128072142D02*
X145880952Y-128119761D01*
X145880952Y-128119761D02*
X145976190Y-128167380D01*
X145976190Y-128167380D02*
X146071428Y-128167380D01*
X146071428Y-128167380D02*
X146166666Y-128119761D01*
X146166666Y-128119761D02*
X146214285Y-128072142D01*
X146214285Y-128072142D02*
X146261904Y-127976904D01*
X146261904Y-127976904D02*
X146309523Y-127786428D01*
X146309523Y-127786428D02*
X146309523Y-127548333D01*
X146309523Y-127548333D02*
X146261904Y-127357857D01*
X146261904Y-127357857D02*
X146214285Y-127262619D01*
X146214285Y-127262619D02*
X146166666Y-127215000D01*
X146166666Y-127215000D02*
X146071428Y-127167380D01*
X131390476Y-128167380D02*
X131961904Y-128167380D01*
X131676190Y-128167380D02*
X131676190Y-127167380D01*
X131676190Y-127167380D02*
X131771428Y-127310238D01*
X131771428Y-127310238D02*
X131866666Y-127405476D01*
X131866666Y-127405476D02*
X131961904Y-127453095D01*
X130533333Y-127167380D02*
X130723809Y-127167380D01*
X130723809Y-127167380D02*
X130819047Y-127215000D01*
X130819047Y-127215000D02*
X130866666Y-127262619D01*
X130866666Y-127262619D02*
X130961904Y-127405476D01*
X130961904Y-127405476D02*
X131009523Y-127595952D01*
X131009523Y-127595952D02*
X131009523Y-127976904D01*
X131009523Y-127976904D02*
X130961904Y-128072142D01*
X130961904Y-128072142D02*
X130914285Y-128119761D01*
X130914285Y-128119761D02*
X130819047Y-128167380D01*
X130819047Y-128167380D02*
X130628571Y-128167380D01*
X130628571Y-128167380D02*
X130533333Y-128119761D01*
X130533333Y-128119761D02*
X130485714Y-128072142D01*
X130485714Y-128072142D02*
X130438095Y-127976904D01*
X130438095Y-127976904D02*
X130438095Y-127738809D01*
X130438095Y-127738809D02*
X130485714Y-127643571D01*
X130485714Y-127643571D02*
X130533333Y-127595952D01*
X130533333Y-127595952D02*
X130628571Y-127548333D01*
X130628571Y-127548333D02*
X130819047Y-127548333D01*
X130819047Y-127548333D02*
X130914285Y-127595952D01*
X130914285Y-127595952D02*
X130961904Y-127643571D01*
X130961904Y-127643571D02*
X131009523Y-127738809D01*
X136590476Y-128167380D02*
X137161904Y-128167380D01*
X136876190Y-128167380D02*
X136876190Y-127167380D01*
X136876190Y-127167380D02*
X136971428Y-127310238D01*
X136971428Y-127310238D02*
X137066666Y-127405476D01*
X137066666Y-127405476D02*
X137161904Y-127453095D01*
X135733333Y-127500714D02*
X135733333Y-128167380D01*
X135971428Y-127119761D02*
X136209523Y-127834047D01*
X136209523Y-127834047D02*
X135590476Y-127834047D01*
X144090476Y-128167380D02*
X144661904Y-128167380D01*
X144376190Y-128167380D02*
X144376190Y-127167380D01*
X144376190Y-127167380D02*
X144471428Y-127310238D01*
X144471428Y-127310238D02*
X144566666Y-127405476D01*
X144566666Y-127405476D02*
X144661904Y-127453095D01*
X143138095Y-128167380D02*
X143709523Y-128167380D01*
X143423809Y-128167380D02*
X143423809Y-127167380D01*
X143423809Y-127167380D02*
X143519047Y-127310238D01*
X143519047Y-127310238D02*
X143614285Y-127405476D01*
X143614285Y-127405476D02*
X143709523Y-127453095D01*
X141590476Y-128167380D02*
X142161904Y-128167380D01*
X141876190Y-128167380D02*
X141876190Y-127167380D01*
X141876190Y-127167380D02*
X141971428Y-127310238D01*
X141971428Y-127310238D02*
X142066666Y-127405476D01*
X142066666Y-127405476D02*
X142161904Y-127453095D01*
X141209523Y-127262619D02*
X141161904Y-127215000D01*
X141161904Y-127215000D02*
X141066666Y-127167380D01*
X141066666Y-127167380D02*
X140828571Y-127167380D01*
X140828571Y-127167380D02*
X140733333Y-127215000D01*
X140733333Y-127215000D02*
X140685714Y-127262619D01*
X140685714Y-127262619D02*
X140638095Y-127357857D01*
X140638095Y-127357857D02*
X140638095Y-127453095D01*
X140638095Y-127453095D02*
X140685714Y-127595952D01*
X140685714Y-127595952D02*
X141257142Y-128167380D01*
X141257142Y-128167380D02*
X140638095Y-128167380D01*
%LPC*%
D11*
X129749999Y-75249999D03*
D12*
X129749999Y-77789999D03*
X129749999Y-80329999D03*
X129749999Y-82869999D03*
X129749999Y-85409999D03*
X129749999Y-87949999D03*
X129749999Y-90489999D03*
X137369999Y-90489999D03*
X137369999Y-87949999D03*
X137369999Y-85409999D03*
X137369999Y-82869999D03*
X137369999Y-80329999D03*
X137369999Y-77789999D03*
X137369999Y-75249999D03*
D13*
X146474999Y-124924999D03*
D14*
X143934999Y-124924999D03*
X141394999Y-124924999D03*
X138854999Y-124924999D03*
X136314999Y-124924999D03*
X133774999Y-124924999D03*
X131234999Y-124924999D03*
X128694999Y-124924999D03*
D11*
X109499999Y-73249999D03*
D12*
X109499999Y-75789999D03*
X109499999Y-78329999D03*
X109499999Y-80869999D03*
X109499999Y-83409999D03*
X109499999Y-85949999D03*
X109499999Y-88489999D03*
X109499999Y-91029999D03*
X109499999Y-93569999D03*
X109499999Y-96109999D03*
X109499999Y-98649999D03*
X109499999Y-101189999D03*
X109499999Y-103729999D03*
X109499999Y-106269999D03*
X109499999Y-108809999D03*
X109499999Y-111349999D03*
X109499999Y-113889999D03*
X109499999Y-116429999D03*
X109499999Y-118969999D03*
X109499999Y-121509999D03*
X124739999Y-121509999D03*
X124739999Y-118969999D03*
X124739999Y-116429999D03*
X124739999Y-113889999D03*
X124739999Y-111349999D03*
X124739999Y-108809999D03*
X124739999Y-106269999D03*
X124739999Y-103729999D03*
X124739999Y-101189999D03*
X124739999Y-98649999D03*
X124739999Y-96109999D03*
X124739999Y-93569999D03*
X124739999Y-91029999D03*
X124739999Y-88489999D03*
X124739999Y-85949999D03*
X124739999Y-83409999D03*
X124739999Y-80869999D03*
X124739999Y-78329999D03*
X124739999Y-75789999D03*
X124739999Y-73249999D03*
D11*
X141874999Y-73124999D03*
D12*
X141874999Y-75664999D03*
X141874999Y-78204999D03*
X141874999Y-80744999D03*
X141874999Y-83284999D03*
X141874999Y-85824999D03*
X141874999Y-88364999D03*
X141874999Y-90904999D03*
X141874999Y-93444999D03*
X141874999Y-95984999D03*
X141874999Y-98524999D03*
X141874999Y-101064999D03*
X141874999Y-103604999D03*
X141874999Y-106144999D03*
X141874999Y-108684999D03*
X141874999Y-111224999D03*
X141874999Y-113764999D03*
X141874999Y-116304999D03*
X141874999Y-118844999D03*
X141874999Y-121384999D03*
X157114999Y-121384999D03*
X157114999Y-118844999D03*
X157114999Y-116304999D03*
X157114999Y-113764999D03*
X157114999Y-111224999D03*
X157114999Y-108684999D03*
X157114999Y-106144999D03*
X157114999Y-103604999D03*
X157114999Y-101064999D03*
X157114999Y-98524999D03*
X157114999Y-95984999D03*
X157114999Y-93444999D03*
X157114999Y-90904999D03*
X157114999Y-88364999D03*
X157114999Y-85824999D03*
X157114999Y-83284999D03*
X157114999Y-80744999D03*
X157114999Y-78204999D03*
X157114999Y-75664999D03*
X157114999Y-73124999D03*
D15*
X146250000Y-88250000D03*
X148750000Y-88250000D03*
D11*
X129899999Y-97399999D03*
D12*
X129899999Y-99939999D03*
X129899999Y-102479999D03*
X129899999Y-105019999D03*
X129899999Y-107559999D03*
X129899999Y-110099999D03*
X129899999Y-112639999D03*
X129899999Y-115179999D03*
X129899999Y-117719999D03*
X129899999Y-120259999D03*
X137519999Y-120259999D03*
X137519999Y-117719999D03*
X137519999Y-115179999D03*
X137519999Y-112639999D03*
X137519999Y-110099999D03*
X137519999Y-107559999D03*
X137519999Y-105019999D03*
X137519999Y-102479999D03*
X137519999Y-99939999D03*
X137519999Y-97399999D03*
D15*
X138050000Y-94400000D03*
X135550000Y-94400000D03*
X137750000Y-72250000D03*
X135250000Y-72250000D03*
D13*
X163829999Y-72389999D03*
D14*
X166369999Y-72389999D03*
X163829999Y-74929999D03*
X166369999Y-74929999D03*
X163829999Y-77469999D03*
X166369999Y-77469999D03*
X163829999Y-80009999D03*
X166369999Y-80009999D03*
X163829999Y-82549999D03*
X166369999Y-82549999D03*
X163829999Y-85089999D03*
X166369999Y-85089999D03*
X163829999Y-87629999D03*
X166369999Y-87629999D03*
X163829999Y-90169999D03*
X166369999Y-90169999D03*
X163829999Y-92709999D03*
X166369999Y-92709999D03*
X163829999Y-95249999D03*
X166369999Y-95249999D03*
X163829999Y-97789999D03*
X166369999Y-97789999D03*
X163829999Y-100329999D03*
X166369999Y-100329999D03*
X163829999Y-102869999D03*
X166369999Y-102869999D03*
X163829999Y-105409999D03*
X166369999Y-105409999D03*
X163829999Y-107949999D03*
X166369999Y-107949999D03*
X163829999Y-110489999D03*
X166369999Y-110489999D03*
X163829999Y-113029999D03*
X166369999Y-113029999D03*
X163829999Y-115569999D03*
X166369999Y-115569999D03*
X163829999Y-118109999D03*
X166369999Y-118109999D03*
X163829999Y-120649999D03*
X166369999Y-120649999D03*
D15*
X151910000Y-100000000D03*
D12*
X151909999Y-110159999D03*
D15*
X152150000Y-86580000D03*
D12*
X152149999Y-76419999D03*
D15*
X146500000Y-99920000D03*
D12*
X146499999Y-110079999D03*
D13*
X165099999Y-124999999D03*
D14*
X162559999Y-124999999D03*
X160019999Y-124999999D03*
X157479999Y-124999999D03*
X154939999Y-124999999D03*
X152399999Y-124999999D03*
M02*
