G04 #@! TF.GenerationSoftware,KiCad,Pcbnew,(7.0.0-0)*
G04 #@! TF.CreationDate,2023-03-04T11:20:18+09:00*
G04 #@! TF.ProjectId,MC6803EP-SBC6809E,4d433638-3033-4455-902d-534243363830,rev?*
G04 #@! TF.SameCoordinates,Original*
G04 #@! TF.FileFunction,Copper,L2,Bot*
G04 #@! TF.FilePolarity,Positive*
%FSLAX46Y46*%
G04 Gerber Fmt 4.6, Leading zero omitted, Abs format (unit mm)*
G04 Created by KiCad (PCBNEW (7.0.0-0)) date 2023-03-04 11:20:18*
%MOMM*%
%LPD*%
G01*
G04 APERTURE LIST*
G04 #@! TA.AperFunction,ComponentPad*
%ADD10R,1.600000X1.600000*%
G04 #@! TD*
G04 #@! TA.AperFunction,ComponentPad*
%ADD11O,1.600000X1.600000*%
G04 #@! TD*
G04 #@! TA.AperFunction,ComponentPad*
%ADD12R,1.700000X1.700000*%
G04 #@! TD*
G04 #@! TA.AperFunction,ComponentPad*
%ADD13O,1.700000X1.700000*%
G04 #@! TD*
G04 #@! TA.AperFunction,ComponentPad*
%ADD14C,1.600000*%
G04 #@! TD*
G04 #@! TA.AperFunction,ViaPad*
%ADD15C,0.800000*%
G04 #@! TD*
G04 #@! TA.AperFunction,Conductor*
%ADD16C,0.250000*%
G04 #@! TD*
G04 APERTURE END LIST*
D10*
X129749999Y-75249999D03*
D11*
X129749999Y-77789999D03*
X129749999Y-80329999D03*
X129749999Y-82869999D03*
X129749999Y-85409999D03*
X129749999Y-87949999D03*
X129749999Y-90489999D03*
X137369999Y-90489999D03*
X137369999Y-87949999D03*
X137369999Y-85409999D03*
X137369999Y-82869999D03*
X137369999Y-80329999D03*
X137369999Y-77789999D03*
X137369999Y-75249999D03*
D12*
X146474999Y-124924999D03*
D13*
X143934999Y-124924999D03*
X141394999Y-124924999D03*
X138854999Y-124924999D03*
X136314999Y-124924999D03*
X133774999Y-124924999D03*
X131234999Y-124924999D03*
X128694999Y-124924999D03*
D10*
X109499999Y-73249999D03*
D11*
X109499999Y-75789999D03*
X109499999Y-78329999D03*
X109499999Y-80869999D03*
X109499999Y-83409999D03*
X109499999Y-85949999D03*
X109499999Y-88489999D03*
X109499999Y-91029999D03*
X109499999Y-93569999D03*
X109499999Y-96109999D03*
X109499999Y-98649999D03*
X109499999Y-101189999D03*
X109499999Y-103729999D03*
X109499999Y-106269999D03*
X109499999Y-108809999D03*
X109499999Y-111349999D03*
X109499999Y-113889999D03*
X109499999Y-116429999D03*
X109499999Y-118969999D03*
X109499999Y-121509999D03*
X124739999Y-121509999D03*
X124739999Y-118969999D03*
X124739999Y-116429999D03*
X124739999Y-113889999D03*
X124739999Y-111349999D03*
X124739999Y-108809999D03*
X124739999Y-106269999D03*
X124739999Y-103729999D03*
X124739999Y-101189999D03*
X124739999Y-98649999D03*
X124739999Y-96109999D03*
X124739999Y-93569999D03*
X124739999Y-91029999D03*
X124739999Y-88489999D03*
X124739999Y-85949999D03*
X124739999Y-83409999D03*
X124739999Y-80869999D03*
X124739999Y-78329999D03*
X124739999Y-75789999D03*
X124739999Y-73249999D03*
D10*
X141874999Y-73124999D03*
D11*
X141874999Y-75664999D03*
X141874999Y-78204999D03*
X141874999Y-80744999D03*
X141874999Y-83284999D03*
X141874999Y-85824999D03*
X141874999Y-88364999D03*
X141874999Y-90904999D03*
X141874999Y-93444999D03*
X141874999Y-95984999D03*
X141874999Y-98524999D03*
X141874999Y-101064999D03*
X141874999Y-103604999D03*
X141874999Y-106144999D03*
X141874999Y-108684999D03*
X141874999Y-111224999D03*
X141874999Y-113764999D03*
X141874999Y-116304999D03*
X141874999Y-118844999D03*
X141874999Y-121384999D03*
X157114999Y-121384999D03*
X157114999Y-118844999D03*
X157114999Y-116304999D03*
X157114999Y-113764999D03*
X157114999Y-111224999D03*
X157114999Y-108684999D03*
X157114999Y-106144999D03*
X157114999Y-103604999D03*
X157114999Y-101064999D03*
X157114999Y-98524999D03*
X157114999Y-95984999D03*
X157114999Y-93444999D03*
X157114999Y-90904999D03*
X157114999Y-88364999D03*
X157114999Y-85824999D03*
X157114999Y-83284999D03*
X157114999Y-80744999D03*
X157114999Y-78204999D03*
X157114999Y-75664999D03*
X157114999Y-73124999D03*
D14*
X146250000Y-88250000D03*
X148750000Y-88250000D03*
D10*
X129899999Y-97399999D03*
D11*
X129899999Y-99939999D03*
X129899999Y-102479999D03*
X129899999Y-105019999D03*
X129899999Y-107559999D03*
X129899999Y-110099999D03*
X129899999Y-112639999D03*
X129899999Y-115179999D03*
X129899999Y-117719999D03*
X129899999Y-120259999D03*
X137519999Y-120259999D03*
X137519999Y-117719999D03*
X137519999Y-115179999D03*
X137519999Y-112639999D03*
X137519999Y-110099999D03*
X137519999Y-107559999D03*
X137519999Y-105019999D03*
X137519999Y-102479999D03*
X137519999Y-99939999D03*
X137519999Y-97399999D03*
D14*
X138050000Y-94400000D03*
X135550000Y-94400000D03*
X137750000Y-72250000D03*
X135250000Y-72250000D03*
D12*
X163829999Y-72389999D03*
D13*
X166369999Y-72389999D03*
X163829999Y-74929999D03*
X166369999Y-74929999D03*
X163829999Y-77469999D03*
X166369999Y-77469999D03*
X163829999Y-80009999D03*
X166369999Y-80009999D03*
X163829999Y-82549999D03*
X166369999Y-82549999D03*
X163829999Y-85089999D03*
X166369999Y-85089999D03*
X163829999Y-87629999D03*
X166369999Y-87629999D03*
X163829999Y-90169999D03*
X166369999Y-90169999D03*
X163829999Y-92709999D03*
X166369999Y-92709999D03*
X163829999Y-95249999D03*
X166369999Y-95249999D03*
X163829999Y-97789999D03*
X166369999Y-97789999D03*
X163829999Y-100329999D03*
X166369999Y-100329999D03*
X163829999Y-102869999D03*
X166369999Y-102869999D03*
X163829999Y-105409999D03*
X166369999Y-105409999D03*
X163829999Y-107949999D03*
X166369999Y-107949999D03*
X163829999Y-110489999D03*
X166369999Y-110489999D03*
X163829999Y-113029999D03*
X166369999Y-113029999D03*
X163829999Y-115569999D03*
X166369999Y-115569999D03*
X163829999Y-118109999D03*
X166369999Y-118109999D03*
X163829999Y-120649999D03*
X166369999Y-120649999D03*
D14*
X151910000Y-100000000D03*
D11*
X151909999Y-110159999D03*
D14*
X152150000Y-86580000D03*
D11*
X152149999Y-76419999D03*
D14*
X146500000Y-99920000D03*
D11*
X146499999Y-110079999D03*
D12*
X165099999Y-124999999D03*
D13*
X162559999Y-124999999D03*
X160019999Y-124999999D03*
X157479999Y-124999999D03*
X154939999Y-124999999D03*
X152399999Y-124999999D03*
D15*
X108000000Y-70000000D03*
X172000000Y-127500000D03*
X109000000Y-128000000D03*
X132507000Y-86957000D03*
X134598800Y-86299100D03*
X143292000Y-80394500D03*
X128290800Y-79117900D03*
X146141800Y-102120400D03*
X135098200Y-100610000D03*
X127723400Y-77292200D03*
X127094100Y-103071900D03*
X162541700Y-81268600D03*
X158459000Y-76431300D03*
X149656800Y-103897000D03*
X158821200Y-81835200D03*
X150987700Y-103897000D03*
X139715900Y-116834500D03*
X158929600Y-84949700D03*
X164687600Y-93937100D03*
X153065500Y-121766800D03*
X161678700Y-110582100D03*
X153312300Y-119313000D03*
X139380100Y-97392600D03*
X113873000Y-110185700D03*
X161848000Y-101705600D03*
X158534500Y-105019100D03*
X149500300Y-127025500D03*
X167906200Y-99060000D03*
X161205400Y-126945700D03*
X161106200Y-100951000D03*
X166970600Y-124286200D03*
X159956700Y-99852800D03*
X159295700Y-98884300D03*
X154646500Y-97119600D03*
X150498900Y-102213300D03*
X154193200Y-93144100D03*
X147185200Y-102556300D03*
X168049200Y-83599100D03*
X139692900Y-84667600D03*
X139692900Y-81485500D03*
X147644800Y-101107900D03*
X140617000Y-95124600D03*
D16*
X141875000Y-90905000D02*
X141875000Y-92030300D01*
X146500000Y-96390600D02*
X146500000Y-99920000D01*
X142139700Y-92030300D02*
X146500000Y-96390600D01*
X141875000Y-92030300D02*
X142139700Y-92030300D01*
X140737200Y-92307200D02*
X141875000Y-93445000D01*
X140737200Y-87833800D02*
X140737200Y-92307200D01*
X141476000Y-87095000D02*
X140737200Y-87833800D01*
X142600300Y-87095000D02*
X141476000Y-87095000D01*
X152150000Y-77545300D02*
X142600300Y-87095000D01*
X152150000Y-76420000D02*
X152150000Y-77545300D01*
X154940000Y-125000000D02*
X154940000Y-123824700D01*
X141875000Y-101065000D02*
X141875000Y-102190300D01*
X142053200Y-102190300D02*
X141875000Y-102190300D01*
X149359600Y-109496700D02*
X142053200Y-102190300D01*
X149359600Y-112702800D02*
X149359600Y-109496700D01*
X154049500Y-117392700D02*
X149359600Y-112702800D01*
X154049500Y-122934200D02*
X154049500Y-117392700D01*
X154940000Y-123824700D02*
X154049500Y-122934200D01*
X157480000Y-125000000D02*
X157480000Y-123824700D01*
X141875000Y-98525000D02*
X141875000Y-99650300D01*
X154517900Y-120862600D02*
X157480000Y-123824700D01*
X154517900Y-115113700D02*
X154517900Y-120862600D01*
X149809900Y-110405700D02*
X154517900Y-115113700D01*
X149809900Y-108967600D02*
X149809900Y-110405700D01*
X143000300Y-102158000D02*
X149809900Y-108967600D01*
X143000300Y-100494200D02*
X143000300Y-102158000D01*
X142156400Y-99650300D02*
X143000300Y-100494200D01*
X141875000Y-99650300D02*
X142156400Y-99650300D01*
X141875000Y-121385000D02*
X140749700Y-121385000D01*
X128695000Y-124925000D02*
X129870300Y-124925000D01*
X139350500Y-121385000D02*
X140749700Y-121385000D01*
X137714600Y-123020900D02*
X139350500Y-121385000D01*
X134014900Y-123020900D02*
X137714600Y-123020900D01*
X132505000Y-124530800D02*
X134014900Y-123020900D01*
X132505000Y-125350900D02*
X132505000Y-124530800D01*
X131741300Y-126114600D02*
X132505000Y-125350900D01*
X130756800Y-126114600D02*
X131741300Y-126114600D01*
X129870300Y-125228100D02*
X130756800Y-126114600D01*
X129870300Y-124925000D02*
X129870300Y-125228100D01*
X166370000Y-105410000D02*
X166370000Y-104234700D01*
X157115000Y-73125000D02*
X157115000Y-73687600D01*
X157115000Y-73687600D02*
X157115000Y-74250300D01*
X137651400Y-84284700D02*
X137370000Y-84284700D01*
X138495300Y-83440800D02*
X137651400Y-84284700D01*
X138495300Y-79981800D02*
X138495300Y-83440800D01*
X141542100Y-76935000D02*
X138495300Y-79981800D01*
X144172800Y-76935000D02*
X141542100Y-76935000D01*
X147420200Y-73687600D02*
X144172800Y-76935000D01*
X157115000Y-73687600D02*
X147420200Y-73687600D01*
X137370000Y-85410000D02*
X137370000Y-84284700D01*
X157336300Y-74250300D02*
X157115000Y-74250300D01*
X160105200Y-77019200D02*
X157336300Y-74250300D01*
X160105200Y-85508800D02*
X160105200Y-77019200D01*
X160533700Y-85937300D02*
X160105200Y-85508800D01*
X160533700Y-98713900D02*
X160533700Y-85937300D01*
X163419800Y-101600000D02*
X160533700Y-98713900D01*
X164261000Y-101600000D02*
X163419800Y-101600000D01*
X165194700Y-102533700D02*
X164261000Y-101600000D01*
X165194700Y-103426800D02*
X165194700Y-102533700D01*
X166002600Y-104234700D02*
X165194700Y-103426800D01*
X166370000Y-104234700D02*
X166002600Y-104234700D01*
X157115000Y-75665000D02*
X155989700Y-75665000D01*
X137370000Y-90490000D02*
X137370000Y-89364700D01*
X137651300Y-89364700D02*
X137370000Y-89364700D01*
X138945700Y-88070300D02*
X137651300Y-89364700D01*
X138945700Y-81172700D02*
X138945700Y-88070300D01*
X140694300Y-79424100D02*
X138945700Y-81172700D01*
X147534600Y-79424100D02*
X140694300Y-79424100D01*
X151715600Y-75243100D02*
X147534600Y-79424100D01*
X155567800Y-75243100D02*
X151715600Y-75243100D01*
X155989700Y-75665000D02*
X155567800Y-75243100D01*
X130031300Y-83995300D02*
X129750000Y-83995300D01*
X132507000Y-86471000D02*
X130031300Y-83995300D01*
X132507000Y-86957000D02*
X132507000Y-86471000D01*
X129750000Y-82870000D02*
X129750000Y-83995300D01*
X139835000Y-94080300D02*
X137370000Y-91615300D01*
X139835000Y-96376900D02*
X139835000Y-94080300D01*
X140112200Y-96654100D02*
X139835000Y-96376900D01*
X140112200Y-111856600D02*
X140112200Y-96654100D01*
X138645300Y-113323500D02*
X140112200Y-111856600D01*
X138645300Y-118290800D02*
X138645300Y-113323500D01*
X137801400Y-119134700D02*
X138645300Y-118290800D01*
X137520000Y-119134700D02*
X137801400Y-119134700D01*
X137520000Y-120260000D02*
X137520000Y-119134700D01*
X137370000Y-90490000D02*
X137370000Y-91615300D01*
X129750000Y-75250000D02*
X129750000Y-76375300D01*
X134598800Y-80942800D02*
X134598800Y-86299100D01*
X130031300Y-76375300D02*
X134598800Y-80942800D01*
X129750000Y-76375300D02*
X130031300Y-76375300D01*
X141875000Y-118845000D02*
X140749700Y-118845000D01*
X140749700Y-119348800D02*
X140749700Y-118845000D01*
X137817900Y-122280600D02*
X140749700Y-119348800D01*
X133879400Y-122280600D02*
X137817900Y-122280600D01*
X131235000Y-124925000D02*
X133879400Y-122280600D01*
X126538700Y-80870000D02*
X124740000Y-80870000D01*
X128290800Y-79117900D02*
X126538700Y-80870000D01*
X141875000Y-85825000D02*
X141875000Y-84699700D01*
X143292000Y-83564000D02*
X143292000Y-80394500D01*
X142156300Y-84699700D02*
X143292000Y-83564000D01*
X141875000Y-84699700D02*
X142156300Y-84699700D01*
X134950300Y-124557600D02*
X134950300Y-124925000D01*
X135758200Y-123749700D02*
X134950300Y-124557600D01*
X137661400Y-123749700D02*
X135758200Y-123749700D01*
X138576800Y-122834300D02*
X137661400Y-123749700D01*
X142024900Y-122834300D02*
X138576800Y-122834300D01*
X143042700Y-121816500D02*
X142024900Y-122834300D01*
X143042700Y-118376000D02*
X143042700Y-121816500D01*
X142097000Y-117430300D02*
X143042700Y-118376000D01*
X141875000Y-117430300D02*
X142097000Y-117430300D01*
X141875000Y-116305000D02*
X141875000Y-117430300D01*
X133775000Y-124925000D02*
X134950300Y-124925000D01*
X141875000Y-113765000D02*
X141875000Y-114890300D01*
X136315000Y-124925000D02*
X137490300Y-124925000D01*
X142156300Y-114890300D02*
X141875000Y-114890300D01*
X143493000Y-116227000D02*
X142156300Y-114890300D01*
X143493000Y-122003100D02*
X143493000Y-116227000D01*
X142211400Y-123284700D02*
X143493000Y-122003100D01*
X138763300Y-123284700D02*
X142211400Y-123284700D01*
X137490300Y-124557700D02*
X138763300Y-123284700D01*
X137490300Y-124925000D02*
X137490300Y-124557700D01*
X124740000Y-88490000D02*
X124740000Y-87364700D01*
X129750000Y-77790000D02*
X129750000Y-78915300D01*
X129519100Y-78915300D02*
X129750000Y-78915300D01*
X129519100Y-78915400D02*
X129519100Y-78915300D01*
X126970700Y-81463800D02*
X129519100Y-78915400D01*
X126970700Y-85329900D02*
X126970700Y-81463800D01*
X124935900Y-87364700D02*
X126970700Y-85329900D01*
X124740000Y-87364700D02*
X124935900Y-87364700D01*
X141875000Y-111225000D02*
X141875000Y-112350300D01*
X138855000Y-124925000D02*
X140030300Y-124925000D01*
X142156300Y-112350300D02*
X141875000Y-112350300D01*
X143943300Y-114137300D02*
X142156300Y-112350300D01*
X143943300Y-122189700D02*
X143943300Y-114137300D01*
X142383300Y-123749700D02*
X143943300Y-122189700D01*
X140838200Y-123749700D02*
X142383300Y-123749700D01*
X140030300Y-124557600D02*
X140838200Y-123749700D01*
X140030300Y-124925000D02*
X140030300Y-124557600D01*
X163830000Y-105410000D02*
X163830000Y-104234700D01*
X157115000Y-78205000D02*
X157115000Y-79330300D01*
X160083400Y-98643800D02*
X159446500Y-98006900D01*
X160083400Y-98900500D02*
X160083400Y-98643800D01*
X162654700Y-101471800D02*
X160083400Y-98900500D01*
X162654700Y-103426800D02*
X162654700Y-101471800D01*
X163462600Y-104234700D02*
X162654700Y-103426800D01*
X163830000Y-104234700D02*
X163462600Y-104234700D01*
X124740000Y-93570000D02*
X124740000Y-94695300D01*
X157356700Y-79330300D02*
X157115000Y-79330300D01*
X159654900Y-81628500D02*
X157356700Y-79330300D01*
X159654900Y-97798500D02*
X159654900Y-81628500D01*
X159446500Y-98006900D02*
X159654900Y-97798500D01*
X146141900Y-102120400D02*
X146141800Y-102120400D01*
X146141900Y-102538700D02*
X146141900Y-102120400D01*
X148225700Y-104622500D02*
X146141900Y-102538700D01*
X151869500Y-104622500D02*
X148225700Y-104622500D01*
X156697000Y-99795000D02*
X151869500Y-104622500D01*
X157447400Y-99795000D02*
X156697000Y-99795000D01*
X158564700Y-98677700D02*
X157447400Y-99795000D01*
X158564700Y-98577500D02*
X158564700Y-98677700D01*
X159135300Y-98006900D02*
X158564700Y-98577500D01*
X159446500Y-98006900D02*
X159135300Y-98006900D01*
X133132700Y-98644500D02*
X135098200Y-100610000D01*
X128984100Y-98644500D02*
X133132700Y-98644500D01*
X125034900Y-94695300D02*
X128984100Y-98644500D01*
X124740000Y-94695300D02*
X125034900Y-94695300D01*
X124740000Y-96110000D02*
X125378000Y-96110000D01*
X129900000Y-99940000D02*
X128774700Y-99940000D01*
X128774700Y-99506700D02*
X125378000Y-96110000D01*
X128774700Y-99940000D02*
X128774700Y-99506700D01*
X124458600Y-97524700D02*
X124740000Y-97524700D01*
X123614700Y-96680800D02*
X124458600Y-97524700D01*
X123614700Y-80387800D02*
X123614700Y-96680800D01*
X124402500Y-79600000D02*
X123614700Y-80387800D01*
X125415600Y-79600000D02*
X124402500Y-79600000D01*
X127723400Y-77292200D02*
X125415600Y-79600000D01*
X124740000Y-98650000D02*
X124740000Y-97524700D01*
X129900000Y-105020000D02*
X128774700Y-105020000D01*
X128774700Y-104752500D02*
X127094100Y-103071900D01*
X128774700Y-105020000D02*
X128774700Y-104752500D01*
X163830000Y-77470000D02*
X162654700Y-77470000D01*
X162541700Y-77470000D02*
X162654700Y-77470000D01*
X162541700Y-81268600D02*
X162541700Y-77470000D01*
X116253400Y-101190000D02*
X124740000Y-101190000D01*
X109903400Y-94840000D02*
X116253400Y-101190000D01*
X109119500Y-94840000D02*
X109903400Y-94840000D01*
X108314000Y-94034500D02*
X109119500Y-94840000D01*
X108314000Y-88010400D02*
X108314000Y-94034500D01*
X109104400Y-87220000D02*
X108314000Y-88010400D01*
X109834300Y-87220000D02*
X109104400Y-87220000D01*
X110769300Y-86285000D02*
X109834300Y-87220000D01*
X110769300Y-85592800D02*
X110769300Y-86285000D01*
X125263200Y-71098900D02*
X110769300Y-85592800D01*
X157972300Y-71098900D02*
X125263200Y-71098900D01*
X162541700Y-75668300D02*
X157972300Y-71098900D01*
X162541700Y-77470000D02*
X162541700Y-75668300D01*
X157115000Y-88365000D02*
X157115000Y-87239700D01*
X125865300Y-104650600D02*
X128774700Y-107560000D01*
X125865300Y-103730000D02*
X125865300Y-104650600D01*
X129900000Y-107560000D02*
X128774700Y-107560000D01*
X124740000Y-103730000D02*
X125865300Y-103730000D01*
X157955300Y-76935000D02*
X158459000Y-76431300D01*
X156784400Y-76935000D02*
X157955300Y-76935000D01*
X155974100Y-77745300D02*
X156784400Y-76935000D01*
X155974100Y-86319900D02*
X155974100Y-77745300D01*
X156893900Y-87239700D02*
X155974100Y-86319900D01*
X157115000Y-87239700D02*
X156893900Y-87239700D01*
X113802200Y-103730000D02*
X124740000Y-103730000D01*
X109847600Y-99775400D02*
X113802200Y-103730000D01*
X108984700Y-99775400D02*
X109847600Y-99775400D01*
X107863600Y-98654300D02*
X108984700Y-99775400D01*
X107863600Y-85962300D02*
X107863600Y-98654300D01*
X109145900Y-84680000D02*
X107863600Y-85962300D01*
X110637500Y-84680000D02*
X109145900Y-84680000D01*
X124669000Y-70648500D02*
X110637500Y-84680000D01*
X159741900Y-70648500D02*
X124669000Y-70648500D01*
X162658800Y-73565400D02*
X159741900Y-70648500D01*
X164130200Y-73565400D02*
X162658800Y-73565400D01*
X165194700Y-74629900D02*
X164130200Y-73565400D01*
X165194700Y-75486800D02*
X165194700Y-74629900D01*
X166002600Y-76294700D02*
X165194700Y-75486800D01*
X166370000Y-76294700D02*
X166002600Y-76294700D01*
X166370000Y-77470000D02*
X166370000Y-76294700D01*
X125865300Y-107190600D02*
X125865300Y-106270000D01*
X128774700Y-110100000D02*
X125865300Y-107190600D01*
X129900000Y-110100000D02*
X128774700Y-110100000D01*
X124740000Y-106270000D02*
X125865300Y-106270000D01*
X157115000Y-90905000D02*
X157115000Y-92030300D01*
X157115000Y-90905000D02*
X157115000Y-89779700D01*
X156877100Y-92030300D02*
X157115000Y-92030300D01*
X149656800Y-99250600D02*
X156877100Y-92030300D01*
X149656800Y-103897000D02*
X149656800Y-99250600D01*
X158821200Y-83170400D02*
X158821200Y-81835200D01*
X158167700Y-83823900D02*
X158821200Y-83170400D01*
X158167700Y-85213500D02*
X158167700Y-83823900D01*
X158240300Y-85286100D02*
X158167700Y-85213500D01*
X158240300Y-88935800D02*
X158240300Y-85286100D01*
X157396400Y-89779700D02*
X158240300Y-88935800D01*
X157115000Y-89779700D02*
X157396400Y-89779700D01*
X130181400Y-113765300D02*
X129900000Y-113765300D01*
X131025300Y-114609200D02*
X130181400Y-113765300D01*
X131025300Y-115415700D02*
X131025300Y-114609200D01*
X137045400Y-121435800D02*
X131025300Y-115415700D01*
X137953700Y-121435800D02*
X137045400Y-121435800D01*
X139715900Y-119673600D02*
X137953700Y-121435800D01*
X139715900Y-116834500D02*
X139715900Y-119673600D01*
X129900000Y-112640000D02*
X129900000Y-113765300D01*
X155449900Y-99434800D02*
X150987700Y-103897000D01*
X155449900Y-95110100D02*
X155449900Y-99434800D01*
X157115000Y-93445000D02*
X155449900Y-95110100D01*
X124458700Y-112475300D02*
X124740000Y-112475300D01*
X122694200Y-114239800D02*
X124458700Y-112475300D01*
X122694200Y-122589000D02*
X122694200Y-114239800D01*
X128347400Y-128242200D02*
X122694200Y-122589000D01*
X164687900Y-128242200D02*
X128347400Y-128242200D01*
X169849000Y-123081100D02*
X164687900Y-128242200D01*
X169849000Y-84319500D02*
X169849000Y-123081100D01*
X166888900Y-81359400D02*
X169849000Y-84319500D01*
X165824400Y-81359400D02*
X166888900Y-81359400D01*
X165005300Y-82178500D02*
X165824400Y-81359400D01*
X165005300Y-82550000D02*
X165005300Y-82178500D01*
X163830000Y-82550000D02*
X165005300Y-82550000D01*
X124740000Y-111350000D02*
X124740000Y-112475300D01*
X126070000Y-112475300D02*
X124740000Y-112475300D01*
X128774700Y-115180000D02*
X126070000Y-112475300D01*
X129900000Y-115180000D02*
X128774700Y-115180000D01*
X157396300Y-94859700D02*
X157115000Y-94859700D01*
X158929600Y-93326400D02*
X157396300Y-94859700D01*
X158929600Y-84949700D02*
X158929600Y-93326400D01*
X157115000Y-95985000D02*
X157115000Y-94859700D01*
X166370000Y-82550000D02*
X166370000Y-83725300D01*
X124740000Y-113890000D02*
X124740000Y-114944500D01*
X125999200Y-114944500D02*
X128774700Y-117720000D01*
X124740000Y-114944500D02*
X125999200Y-114944500D01*
X129900000Y-117720000D02*
X128774700Y-117720000D01*
X165291900Y-93332800D02*
X164687600Y-93937100D01*
X165194600Y-93235600D02*
X165291900Y-93332800D01*
X165194600Y-84533300D02*
X165194600Y-93235600D01*
X166002600Y-83725300D02*
X165194600Y-84533300D01*
X166370000Y-83725300D02*
X166002600Y-83725300D01*
X124633900Y-114944500D02*
X124740000Y-114944500D01*
X123159000Y-116419400D02*
X124633900Y-114944500D01*
X123159000Y-122415000D02*
X123159000Y-116419400D01*
X128518300Y-127774300D02*
X123159000Y-122415000D01*
X164518900Y-127774300D02*
X128518300Y-127774300D01*
X169398600Y-122894600D02*
X164518900Y-127774300D01*
X169398600Y-96615500D02*
X169398600Y-122894600D01*
X166763100Y-93980000D02*
X169398600Y-96615500D01*
X165939000Y-93980000D02*
X166763100Y-93980000D01*
X165291900Y-93332800D02*
X165939000Y-93980000D01*
X157115000Y-118845000D02*
X157115000Y-117719700D01*
X157425700Y-117719700D02*
X157115000Y-117719700D01*
X163469600Y-111675800D02*
X157425700Y-117719700D01*
X164345200Y-111675800D02*
X163469600Y-111675800D01*
X165005400Y-111015600D02*
X164345200Y-111675800D01*
X165005400Y-107557700D02*
X165005400Y-111015600D01*
X165788500Y-106774600D02*
X165005400Y-107557700D01*
X166673800Y-106774600D02*
X165788500Y-106774600D01*
X167560800Y-105887600D02*
X166673800Y-106774600D01*
X167560800Y-104060800D02*
X167560800Y-105887600D01*
X166370000Y-102870000D02*
X167560800Y-104060800D01*
X124740000Y-116430000D02*
X124740000Y-117555300D01*
X124544500Y-117555300D02*
X124740000Y-117555300D01*
X123609400Y-118490400D02*
X124544500Y-117555300D01*
X123609400Y-122185000D02*
X123609400Y-118490400D01*
X128497700Y-127073300D02*
X123609400Y-122185000D01*
X147759000Y-127073300D02*
X128497700Y-127073300D01*
X153065500Y-121766800D02*
X147759000Y-127073300D01*
X157115000Y-116305000D02*
X157115000Y-115179700D01*
X161678700Y-110897300D02*
X161678700Y-110582100D01*
X157396300Y-115179700D02*
X161678700Y-110897300D01*
X157115000Y-115179700D02*
X157396300Y-115179700D01*
X125021400Y-120095300D02*
X124740000Y-120095300D01*
X125865300Y-120939200D02*
X125021400Y-120095300D01*
X125865300Y-123804000D02*
X125865300Y-120939200D01*
X128633400Y-126572100D02*
X125865300Y-123804000D01*
X146996900Y-126572100D02*
X128633400Y-126572100D01*
X153312300Y-120256700D02*
X146996900Y-126572100D01*
X153312300Y-119313000D02*
X153312300Y-120256700D01*
X124740000Y-118970000D02*
X124740000Y-120095300D01*
X127590300Y-110185700D02*
X113873000Y-110185700D01*
X128670600Y-111266000D02*
X127590300Y-110185700D01*
X137948500Y-111266000D02*
X128670600Y-111266000D01*
X139380100Y-109834400D02*
X137948500Y-111266000D01*
X139380100Y-97392600D02*
X139380100Y-109834400D01*
X158534500Y-105019100D02*
X161848000Y-101705600D01*
X166370000Y-97790000D02*
X166370000Y-98965300D01*
X157115000Y-108685000D02*
X157115000Y-109810300D01*
X163384400Y-114299300D02*
X157674400Y-120009300D01*
X164250300Y-114299300D02*
X163384400Y-114299300D01*
X165100000Y-113449600D02*
X164250300Y-114299300D01*
X165100000Y-112635800D02*
X165100000Y-113449600D01*
X166060200Y-111675600D02*
X165100000Y-112635800D01*
X166849100Y-111675600D02*
X166060200Y-111675600D01*
X168012400Y-110512300D02*
X166849100Y-111675600D01*
X168012400Y-100252400D02*
X168012400Y-110512300D01*
X166725300Y-98965300D02*
X168012400Y-100252400D01*
X166370000Y-98965300D02*
X166725300Y-98965300D01*
X156833600Y-109810300D02*
X157115000Y-109810300D01*
X155989700Y-110654200D02*
X156833600Y-109810300D01*
X155989700Y-119324200D02*
X155989700Y-110654200D01*
X156674800Y-120009300D02*
X155989700Y-119324200D01*
X157674400Y-120009300D02*
X156674800Y-120009300D01*
X157136100Y-127025500D02*
X149500300Y-127025500D01*
X158693400Y-125468200D02*
X157136100Y-127025500D01*
X158693400Y-121028300D02*
X158693400Y-125468200D01*
X157674400Y-120009300D02*
X158693400Y-121028300D01*
X157115000Y-106145000D02*
X157115000Y-105019700D01*
X161106200Y-101242200D02*
X161106200Y-100951000D01*
X157328700Y-105019700D02*
X161106200Y-101242200D01*
X157115000Y-105019700D02*
X157328700Y-105019700D01*
X161205400Y-121572900D02*
X161205400Y-126945700D01*
X163398300Y-119380000D02*
X161205400Y-121572900D01*
X166795300Y-119380000D02*
X163398300Y-119380000D01*
X168462800Y-117712500D02*
X166795300Y-119380000D01*
X168462800Y-99616600D02*
X168462800Y-117712500D01*
X167906200Y-99060000D02*
X168462800Y-99616600D01*
X166370000Y-95250000D02*
X166370000Y-96425300D01*
X168913200Y-122343600D02*
X166970600Y-124286200D01*
X168913200Y-98601200D02*
X168913200Y-122343600D01*
X166737300Y-96425300D02*
X168913200Y-98601200D01*
X166370000Y-96425300D02*
X166737300Y-96425300D01*
X157329800Y-102479700D02*
X159956700Y-99852800D01*
X157115000Y-102479700D02*
X157329800Y-102479700D01*
X157115000Y-103605000D02*
X157115000Y-102479700D01*
X157115000Y-101065000D02*
X159295700Y-98884300D01*
X154646400Y-97119600D02*
X154646500Y-97119600D01*
X154646400Y-98925800D02*
X154646400Y-97119600D01*
X151358900Y-102213300D02*
X154646400Y-98925800D01*
X150498900Y-102213300D02*
X151358900Y-102213300D01*
X114435300Y-105000000D02*
X110625300Y-101190000D01*
X125505400Y-105000000D02*
X114435300Y-105000000D01*
X129480100Y-108974700D02*
X125505400Y-105000000D01*
X135269400Y-108974700D02*
X129480100Y-108974700D01*
X136394700Y-110100000D02*
X135269400Y-108974700D01*
X137520000Y-110100000D02*
X136394700Y-110100000D01*
X109500000Y-101190000D02*
X110625300Y-101190000D01*
X147222300Y-102556300D02*
X147185200Y-102556300D01*
X148918900Y-100859700D02*
X147222300Y-102556300D01*
X148918900Y-98418400D02*
X148918900Y-100859700D01*
X154193200Y-93144100D02*
X148918900Y-98418400D01*
X168049200Y-85142800D02*
X168049200Y-83599100D01*
X166737300Y-86454700D02*
X168049200Y-85142800D01*
X166370000Y-86454700D02*
X166737300Y-86454700D01*
X166370000Y-87630000D02*
X166370000Y-86454700D01*
X109500000Y-98650000D02*
X110625300Y-98650000D01*
X137520000Y-107560000D02*
X136394700Y-107560000D01*
X114321700Y-102346400D02*
X110625300Y-98650000D01*
X127477400Y-102346400D02*
X114321700Y-102346400D01*
X128881000Y-103750000D02*
X127477400Y-102346400D01*
X132584700Y-103750000D02*
X128881000Y-103750000D01*
X136394700Y-107560000D02*
X132584700Y-103750000D01*
X163462700Y-86454700D02*
X163830000Y-86454700D01*
X160981400Y-83973400D02*
X163462700Y-86454700D01*
X160981400Y-75387100D02*
X160981400Y-83973400D01*
X157593900Y-71999600D02*
X160981400Y-75387100D01*
X140873100Y-71999600D02*
X157593900Y-71999600D01*
X138859700Y-74013000D02*
X140873100Y-71999600D01*
X136904800Y-74013000D02*
X138859700Y-74013000D01*
X135789900Y-75127900D02*
X136904800Y-74013000D01*
X135789900Y-92458200D02*
X135789900Y-75127900D01*
X136873900Y-93542200D02*
X135789900Y-92458200D01*
X136873900Y-95111300D02*
X136873900Y-93542200D01*
X138650000Y-96887400D02*
X136873900Y-95111300D01*
X138650000Y-103046000D02*
X138650000Y-96887400D01*
X137801300Y-103894700D02*
X138650000Y-103046000D01*
X137520000Y-103894700D02*
X137801300Y-103894700D01*
X137520000Y-105020000D02*
X137520000Y-103894700D01*
X163830000Y-87630000D02*
X163830000Y-86454700D01*
X109500000Y-93570000D02*
X110625300Y-93570000D01*
X137520000Y-102480000D02*
X136394700Y-102480000D01*
X116830700Y-99775400D02*
X110625300Y-93570000D01*
X126293600Y-99775400D02*
X116830700Y-99775400D01*
X127872900Y-101354700D02*
X126293600Y-99775400D01*
X135269400Y-101354700D02*
X127872900Y-101354700D01*
X136394700Y-102480000D02*
X135269400Y-101354700D01*
X163830000Y-85090000D02*
X163830000Y-83914700D01*
X137520000Y-99940000D02*
X137520000Y-98814700D01*
X109500000Y-91030000D02*
X110625300Y-91030000D01*
X110625300Y-90748700D02*
X110625300Y-91030000D01*
X124210000Y-77164000D02*
X110625300Y-90748700D01*
X125766900Y-77164000D02*
X124210000Y-77164000D01*
X128806300Y-74124600D02*
X125766900Y-77164000D01*
X134522700Y-74124600D02*
X128806300Y-74124600D01*
X135339500Y-74941400D02*
X134522700Y-74124600D01*
X136718200Y-73562700D02*
X135339500Y-74941400D01*
X138673100Y-73562700D02*
X136718200Y-73562700D01*
X140686500Y-71549300D02*
X138673100Y-73562700D01*
X157780500Y-71549300D02*
X140686500Y-71549300D01*
X161706700Y-75475500D02*
X157780500Y-71549300D01*
X161706700Y-82158800D02*
X161706700Y-75475500D01*
X163462600Y-83914700D02*
X161706700Y-82158800D01*
X163830000Y-83914700D02*
X163462600Y-83914700D01*
X137238700Y-98814700D02*
X137520000Y-98814700D01*
X134421200Y-95997200D02*
X137238700Y-98814700D01*
X134421200Y-93772500D02*
X134421200Y-95997200D01*
X135339500Y-92854200D02*
X134421200Y-93772500D01*
X135339500Y-74941400D02*
X135339500Y-92854200D01*
X141875000Y-108685000D02*
X141875000Y-109810300D01*
X141395000Y-124925000D02*
X142570300Y-124925000D01*
X142570300Y-124199600D02*
X142570300Y-124925000D01*
X144393600Y-122376300D02*
X142570300Y-124199600D01*
X144393600Y-112047600D02*
X144393600Y-122376300D01*
X142156300Y-109810300D02*
X144393600Y-112047600D01*
X141875000Y-109810300D02*
X142156300Y-109810300D01*
X141875000Y-106145000D02*
X141875000Y-107270300D01*
X143935000Y-124925000D02*
X143935000Y-123749700D01*
X144843900Y-122840800D02*
X143935000Y-123749700D01*
X144843900Y-109957800D02*
X144843900Y-122840800D01*
X142156400Y-107270300D02*
X144843900Y-109957800D01*
X141875000Y-107270300D02*
X142156400Y-107270300D01*
X145299700Y-122574400D02*
X146475000Y-123749700D01*
X145299700Y-107873700D02*
X145299700Y-122574400D01*
X142156300Y-104730300D02*
X145299700Y-107873700D01*
X141875000Y-104730300D02*
X142156300Y-104730300D01*
X141875000Y-103605000D02*
X141875000Y-104730300D01*
X146475000Y-124925000D02*
X146475000Y-123749700D01*
X139692900Y-81485500D02*
X139692900Y-84667600D01*
X141593600Y-81870300D02*
X141875000Y-81870300D01*
X140749700Y-82714200D02*
X141593600Y-81870300D01*
X140749700Y-85188100D02*
X140749700Y-82714200D01*
X140285400Y-85652400D02*
X140749700Y-85188100D01*
X140285400Y-93511900D02*
X140285400Y-85652400D01*
X141488500Y-94715000D02*
X140285400Y-93511900D01*
X142278100Y-94715000D02*
X141488500Y-94715000D01*
X144123400Y-96560300D02*
X142278100Y-94715000D01*
X144123400Y-101157100D02*
X144123400Y-96560300D01*
X150381300Y-107415000D02*
X144123400Y-101157100D01*
X159579700Y-107415000D02*
X150381300Y-107415000D01*
X162654700Y-110490000D02*
X159579700Y-107415000D01*
X163830000Y-110490000D02*
X162654700Y-110490000D01*
X141875000Y-80745000D02*
X141875000Y-81870300D01*
X137370000Y-82870000D02*
X137370000Y-80330000D01*
X129468600Y-81455300D02*
X129750000Y-81455300D01*
X128624700Y-82299200D02*
X129468600Y-81455300D01*
X128624700Y-88520700D02*
X128624700Y-82299200D01*
X129468700Y-89364700D02*
X128624700Y-88520700D01*
X129750000Y-89364700D02*
X129468700Y-89364700D01*
X129750000Y-90490000D02*
X129750000Y-89364700D01*
X129750000Y-80330000D02*
X129750000Y-81455300D01*
X137651400Y-79204700D02*
X137370000Y-79204700D01*
X138495300Y-78360800D02*
X137651400Y-79204700D01*
X138495300Y-77348600D02*
X138495300Y-78360800D01*
X141593600Y-74250300D02*
X138495300Y-77348600D01*
X141875000Y-74250300D02*
X141593600Y-74250300D01*
X141875000Y-73125000D02*
X141875000Y-74250300D01*
X137370000Y-80330000D02*
X137370000Y-79204700D01*
X147644800Y-89355200D02*
X147644800Y-101107900D01*
X148750000Y-88250000D02*
X147644800Y-89355200D01*
X165100000Y-123095300D02*
X166370000Y-121825300D01*
X165100000Y-125000000D02*
X165100000Y-123095300D01*
X166370000Y-120650000D02*
X166370000Y-121825300D01*
X129750000Y-96124700D02*
X129750000Y-90490000D01*
X129900000Y-96274700D02*
X129750000Y-96124700D01*
X129900000Y-97400000D02*
X129900000Y-96274700D01*
X137370000Y-75250000D02*
X137370000Y-76375300D01*
X137088600Y-76375300D02*
X137370000Y-76375300D01*
X136244700Y-77219200D02*
X137088600Y-76375300D01*
X136244700Y-91957800D02*
X136244700Y-77219200D01*
X138050000Y-93763100D02*
X136244700Y-91957800D01*
X138050000Y-94400000D02*
X138050000Y-93763100D01*
X110625300Y-88208700D02*
X110625300Y-88490000D01*
X124314000Y-74520000D02*
X110625300Y-88208700D01*
X126643100Y-74520000D02*
X124314000Y-74520000D01*
X127787800Y-73375300D02*
X126643100Y-74520000D01*
X136217800Y-73375300D02*
X127787800Y-73375300D01*
X137343100Y-72250000D02*
X136217800Y-73375300D01*
X137750000Y-72250000D02*
X137343100Y-72250000D01*
X109500000Y-88490000D02*
X110625300Y-88490000D01*
X143115300Y-88250000D02*
X143000300Y-88365000D01*
X146250000Y-88250000D02*
X143115300Y-88250000D01*
X141875000Y-88365000D02*
X143000300Y-88365000D01*
X155539300Y-119809300D02*
X157115000Y-121385000D01*
X155539300Y-115498200D02*
X155539300Y-119809300D01*
X150260200Y-110219100D02*
X155539300Y-115498200D01*
X150260200Y-108144300D02*
X150260200Y-110219100D01*
X143537300Y-101421400D02*
X150260200Y-108144300D01*
X143537300Y-98569700D02*
X143537300Y-101421400D01*
X142234600Y-97267000D02*
X143537300Y-98569700D01*
X141526800Y-97267000D02*
X142234600Y-97267000D01*
X140617000Y-96357200D02*
X141526800Y-97267000D01*
X140617000Y-95124600D02*
X140617000Y-96357200D01*
G04 #@! TA.AperFunction,Conductor*
G36*
X168228585Y-118990548D02*
G01*
X168266185Y-119034571D01*
X168279700Y-119090866D01*
X168279700Y-122029833D01*
X168270261Y-122077286D01*
X168243381Y-122117514D01*
X167019514Y-123341381D01*
X166979286Y-123368261D01*
X166931833Y-123377700D01*
X166875113Y-123377700D01*
X166868754Y-123379051D01*
X166868750Y-123379052D01*
X166694672Y-123416053D01*
X166694661Y-123416056D01*
X166688312Y-123417406D01*
X166682382Y-123420045D01*
X166682373Y-123420049D01*
X166519782Y-123492439D01*
X166519774Y-123492443D01*
X166513848Y-123495082D01*
X166508599Y-123498895D01*
X166508593Y-123498899D01*
X166364606Y-123603512D01*
X166364599Y-123603517D01*
X166359347Y-123607334D01*
X166355001Y-123612160D01*
X166354995Y-123612166D01*
X166306801Y-123665691D01*
X166267412Y-123694934D01*
X166219766Y-123706613D01*
X166171319Y-123698900D01*
X166064641Y-123659112D01*
X166049667Y-123655573D01*
X166001114Y-123650353D01*
X165994518Y-123650000D01*
X165366326Y-123650000D01*
X165353450Y-123653450D01*
X165350000Y-123666326D01*
X165350000Y-125126000D01*
X165333387Y-125188000D01*
X165288000Y-125233387D01*
X165226000Y-125250000D01*
X164974000Y-125250000D01*
X164912000Y-125233387D01*
X164866613Y-125188000D01*
X164850000Y-125126000D01*
X164850000Y-123666326D01*
X164846549Y-123653450D01*
X164833674Y-123650000D01*
X164205482Y-123650000D01*
X164198885Y-123650353D01*
X164150332Y-123655573D01*
X164135358Y-123659111D01*
X164016222Y-123703547D01*
X164000810Y-123711962D01*
X163899907Y-123787498D01*
X163887498Y-123799907D01*
X163811962Y-123900810D01*
X163803548Y-123916220D01*
X163760318Y-124032123D01*
X163724366Y-124083336D01*
X163667984Y-124110474D01*
X163605530Y-124106626D01*
X163552907Y-124072772D01*
X163486711Y-124000864D01*
X163486708Y-124000861D01*
X163483240Y-123997094D01*
X163443033Y-123965799D01*
X163309623Y-123861960D01*
X163309615Y-123861955D01*
X163305576Y-123858811D01*
X163301071Y-123856373D01*
X163301065Y-123856369D01*
X163112080Y-123754096D01*
X163112074Y-123754093D01*
X163107574Y-123751658D01*
X163102733Y-123749996D01*
X163102726Y-123749993D01*
X162899488Y-123680222D01*
X162899487Y-123680221D01*
X162894635Y-123678556D01*
X162889585Y-123677713D01*
X162889576Y-123677711D01*
X162677631Y-123642344D01*
X162677622Y-123642343D01*
X162672569Y-123641500D01*
X162447431Y-123641500D01*
X162442378Y-123642343D01*
X162442368Y-123642344D01*
X162230423Y-123677711D01*
X162230411Y-123677713D01*
X162225365Y-123678556D01*
X162220515Y-123680220D01*
X162220511Y-123680222D01*
X162017273Y-123749993D01*
X162017262Y-123749997D01*
X162012426Y-123751658D01*
X162011396Y-123752214D01*
X161952659Y-123762016D01*
X161895078Y-123742248D01*
X161853845Y-123697457D01*
X161838900Y-123638440D01*
X161838900Y-121886666D01*
X161848339Y-121839213D01*
X161875219Y-121798985D01*
X162012078Y-121662126D01*
X162424837Y-121249365D01*
X162475907Y-121218575D01*
X162535447Y-121215187D01*
X162589683Y-121239985D01*
X162626071Y-121287235D01*
X162631140Y-121298791D01*
X162669576Y-121357622D01*
X162751474Y-121482977D01*
X162751477Y-121482981D01*
X162754278Y-121487268D01*
X162757752Y-121491041D01*
X162757753Y-121491043D01*
X162903288Y-121649135D01*
X162903291Y-121649138D01*
X162906760Y-121652906D01*
X162942327Y-121680589D01*
X163080376Y-121788039D01*
X163080381Y-121788042D01*
X163084424Y-121791189D01*
X163088931Y-121793628D01*
X163088934Y-121793630D01*
X163277919Y-121895903D01*
X163282426Y-121898342D01*
X163495365Y-121971444D01*
X163717431Y-122008500D01*
X163937436Y-122008500D01*
X163942569Y-122008500D01*
X164164635Y-121971444D01*
X164377574Y-121898342D01*
X164575576Y-121791189D01*
X164753240Y-121652906D01*
X164905722Y-121487268D01*
X164999748Y-121343349D01*
X165043663Y-121302595D01*
X165101562Y-121287188D01*
X165159927Y-121300726D01*
X165205131Y-121340048D01*
X165328784Y-121516643D01*
X165335721Y-121524909D01*
X165495090Y-121684278D01*
X165503356Y-121691215D01*
X165687991Y-121820498D01*
X165697323Y-121825886D01*
X165901602Y-121921143D01*
X165911736Y-121924831D01*
X166106219Y-121976943D01*
X166117448Y-121977311D01*
X166120000Y-121966369D01*
X166620000Y-121966369D01*
X166622551Y-121977311D01*
X166633780Y-121976943D01*
X166828263Y-121924831D01*
X166838397Y-121921143D01*
X167042676Y-121825886D01*
X167052008Y-121820498D01*
X167236643Y-121691215D01*
X167244909Y-121684278D01*
X167404278Y-121524909D01*
X167411215Y-121516643D01*
X167540498Y-121332008D01*
X167545886Y-121322676D01*
X167641143Y-121118397D01*
X167644831Y-121108263D01*
X167696943Y-120913780D01*
X167697311Y-120902551D01*
X167686369Y-120900000D01*
X166636326Y-120900000D01*
X166623450Y-120903450D01*
X166620000Y-120916326D01*
X166620000Y-121966369D01*
X166120000Y-121966369D01*
X166120000Y-120524000D01*
X166136613Y-120462000D01*
X166182000Y-120416613D01*
X166244000Y-120400000D01*
X167686369Y-120400000D01*
X167697311Y-120397448D01*
X167696943Y-120386219D01*
X167644831Y-120191736D01*
X167641143Y-120181602D01*
X167545889Y-119977332D01*
X167540491Y-119967982D01*
X167420086Y-119796025D01*
X167398970Y-119742873D01*
X167403955Y-119685898D01*
X167433976Y-119637227D01*
X168068020Y-119003184D01*
X168117382Y-118972935D01*
X168175098Y-118968393D01*
X168228585Y-118990548D01*
G37*
G04 #@! TD.AperFunction*
G04 #@! TA.AperFunction,Conductor*
G36*
X143157760Y-104208852D02*
G01*
X143205587Y-104238591D01*
X145956295Y-106989300D01*
X148689781Y-109722786D01*
X148716661Y-109763014D01*
X148726100Y-109810467D01*
X148726100Y-112623954D01*
X148725568Y-112635237D01*
X148723898Y-112642709D01*
X148724143Y-112650505D01*
X148724143Y-112650507D01*
X148726039Y-112710817D01*
X148726100Y-112714713D01*
X148726100Y-112742656D01*
X148726588Y-112746521D01*
X148726589Y-112746532D01*
X148726619Y-112746770D01*
X148727534Y-112758396D01*
X148728681Y-112794896D01*
X148728682Y-112794903D01*
X148728927Y-112802689D01*
X148731100Y-112810170D01*
X148731102Y-112810180D01*
X148734622Y-112822295D01*
X148738567Y-112841342D01*
X148739220Y-112846515D01*
X148741126Y-112861597D01*
X148743995Y-112868845D01*
X148743998Y-112868854D01*
X148757438Y-112902801D01*
X148761221Y-112913848D01*
X148763212Y-112920700D01*
X148773582Y-112956393D01*
X148777553Y-112963108D01*
X148777554Y-112963110D01*
X148783975Y-112973968D01*
X148792530Y-112991431D01*
X148800048Y-113010417D01*
X148804630Y-113016724D01*
X148804631Y-113016725D01*
X148826091Y-113046262D01*
X148832505Y-113056027D01*
X148855058Y-113094162D01*
X148860576Y-113099680D01*
X148869489Y-113108593D01*
X148882125Y-113123388D01*
X148889538Y-113133591D01*
X148889543Y-113133596D01*
X148894128Y-113139907D01*
X148925093Y-113165523D01*
X148928267Y-113168149D01*
X148936908Y-113176012D01*
X153379681Y-117618785D01*
X153406561Y-117659013D01*
X153416000Y-117706466D01*
X153416000Y-118280500D01*
X153399387Y-118342500D01*
X153354000Y-118387887D01*
X153292000Y-118404500D01*
X153216813Y-118404500D01*
X153210454Y-118405851D01*
X153210450Y-118405852D01*
X153036372Y-118442853D01*
X153036361Y-118442856D01*
X153030012Y-118444206D01*
X153024082Y-118446845D01*
X153024073Y-118446849D01*
X152861482Y-118519239D01*
X152861474Y-118519243D01*
X152855548Y-118521882D01*
X152850299Y-118525695D01*
X152850293Y-118525699D01*
X152706300Y-118630316D01*
X152706291Y-118630323D01*
X152701047Y-118634134D01*
X152696703Y-118638957D01*
X152696700Y-118638961D01*
X152577607Y-118771228D01*
X152573260Y-118776056D01*
X152570014Y-118781676D01*
X152570011Y-118781682D01*
X152481021Y-118935817D01*
X152481018Y-118935822D01*
X152477773Y-118941444D01*
X152475767Y-118947616D01*
X152475765Y-118947622D01*
X152420765Y-119116892D01*
X152420763Y-119116901D01*
X152418758Y-119123072D01*
X152418080Y-119129522D01*
X152418078Y-119129532D01*
X152405345Y-119250690D01*
X152398796Y-119313000D01*
X152399475Y-119319460D01*
X152418078Y-119496467D01*
X152418079Y-119496475D01*
X152418758Y-119502928D01*
X152420763Y-119509100D01*
X152420765Y-119509107D01*
X152475765Y-119678377D01*
X152477773Y-119684556D01*
X152481020Y-119690180D01*
X152481021Y-119690182D01*
X152554892Y-119818131D01*
X152573260Y-119849944D01*
X152612919Y-119893990D01*
X152641592Y-119949067D01*
X152639967Y-120011141D01*
X152608451Y-120064643D01*
X148045181Y-124627914D01*
X147995818Y-124658164D01*
X147938102Y-124662706D01*
X147884615Y-124640551D01*
X147847015Y-124596528D01*
X147833500Y-124540233D01*
X147833500Y-124029672D01*
X147833500Y-124026362D01*
X147826989Y-123965799D01*
X147775889Y-123828796D01*
X147688261Y-123711739D01*
X147675486Y-123702176D01*
X147578304Y-123629426D01*
X147578303Y-123629425D01*
X147571204Y-123624111D01*
X147562896Y-123621012D01*
X147562894Y-123621011D01*
X147441463Y-123575719D01*
X147441458Y-123575717D01*
X147434201Y-123573011D01*
X147426497Y-123572182D01*
X147426494Y-123572182D01*
X147376924Y-123566853D01*
X147376918Y-123566852D01*
X147373638Y-123566500D01*
X147370328Y-123566500D01*
X147171867Y-123566500D01*
X147125013Y-123557307D01*
X147085106Y-123531092D01*
X147061050Y-123496087D01*
X147061018Y-123496107D01*
X147050623Y-123478531D01*
X147042063Y-123461055D01*
X147034552Y-123442083D01*
X147025641Y-123429819D01*
X147016623Y-123417406D01*
X147008507Y-123406236D01*
X147002103Y-123396488D01*
X146979542Y-123358337D01*
X146965106Y-123343901D01*
X146952469Y-123329105D01*
X146945058Y-123318905D01*
X146945057Y-123318904D01*
X146940472Y-123312593D01*
X146906336Y-123284353D01*
X146897696Y-123276491D01*
X145969519Y-122348314D01*
X145942639Y-122308086D01*
X145933200Y-122260633D01*
X145933200Y-111435586D01*
X145945988Y-111380742D01*
X145981713Y-111337210D01*
X146033009Y-111313969D01*
X146089293Y-111315811D01*
X146236219Y-111355179D01*
X146247448Y-111355547D01*
X146250000Y-111344605D01*
X146750000Y-111344605D01*
X146752551Y-111355547D01*
X146763780Y-111355179D01*
X146941092Y-111307669D01*
X146951234Y-111303977D01*
X147147580Y-111212420D01*
X147156912Y-111207032D01*
X147334381Y-111082767D01*
X147342647Y-111075830D01*
X147495830Y-110922647D01*
X147502767Y-110914381D01*
X147627032Y-110736912D01*
X147632420Y-110727580D01*
X147723977Y-110531234D01*
X147727669Y-110521092D01*
X147775179Y-110343780D01*
X147775547Y-110332551D01*
X147764605Y-110330000D01*
X146766326Y-110330000D01*
X146753450Y-110333450D01*
X146750000Y-110346326D01*
X146750000Y-111344605D01*
X146250000Y-111344605D01*
X146250000Y-109813674D01*
X146750000Y-109813674D01*
X146753450Y-109826549D01*
X146766326Y-109830000D01*
X147764605Y-109830000D01*
X147775547Y-109827448D01*
X147775179Y-109816219D01*
X147727669Y-109638907D01*
X147723977Y-109628765D01*
X147632420Y-109432419D01*
X147627032Y-109423087D01*
X147502767Y-109245618D01*
X147495830Y-109237352D01*
X147342647Y-109084169D01*
X147334381Y-109077232D01*
X147156912Y-108952967D01*
X147147580Y-108947579D01*
X146951234Y-108856022D01*
X146941092Y-108852330D01*
X146763780Y-108804820D01*
X146752551Y-108804452D01*
X146750000Y-108815395D01*
X146750000Y-109813674D01*
X146250000Y-109813674D01*
X146250000Y-108815395D01*
X146247448Y-108804452D01*
X146236219Y-108804820D01*
X146089293Y-108844189D01*
X146033009Y-108846031D01*
X145981713Y-108822790D01*
X145945988Y-108779258D01*
X145933200Y-108724414D01*
X145933200Y-107952547D01*
X145933731Y-107941262D01*
X145935402Y-107933791D01*
X145933260Y-107865668D01*
X145933200Y-107861774D01*
X145933200Y-107837744D01*
X145933200Y-107833844D01*
X145932683Y-107829758D01*
X145931765Y-107818099D01*
X145930374Y-107773811D01*
X145924674Y-107754194D01*
X145920733Y-107735161D01*
X145918174Y-107714903D01*
X145901865Y-107673712D01*
X145898080Y-107662658D01*
X145895095Y-107652383D01*
X145885718Y-107620107D01*
X145875319Y-107602524D01*
X145866770Y-107585071D01*
X145859252Y-107566083D01*
X145833203Y-107530230D01*
X145826798Y-107520479D01*
X145816276Y-107502687D01*
X145804242Y-107482338D01*
X145789807Y-107467903D01*
X145777170Y-107453107D01*
X145765172Y-107436593D01*
X145759160Y-107431620D01*
X145759157Y-107431616D01*
X145731025Y-107408343D01*
X145722385Y-107400481D01*
X142909472Y-104587567D01*
X142879447Y-104538889D01*
X142874462Y-104481914D01*
X142895579Y-104428762D01*
X142928438Y-104381834D01*
X143011438Y-104263297D01*
X143011441Y-104263295D01*
X143012524Y-104261749D01*
X143012744Y-104261903D01*
X143049003Y-104223180D01*
X143101711Y-104203335D01*
X143157760Y-104208852D01*
G37*
G04 #@! TD.AperFunction*
G04 #@! TA.AperFunction,Conductor*
G36*
X126187510Y-116050701D02*
G01*
X126241012Y-116082217D01*
X128271002Y-118112207D01*
X128278598Y-118120555D01*
X128282700Y-118127018D01*
X128332384Y-118173674D01*
X128335148Y-118176353D01*
X128354930Y-118196135D01*
X128358006Y-118198521D01*
X128358203Y-118198674D01*
X128367082Y-118206258D01*
X128399379Y-118236586D01*
X128417265Y-118246418D01*
X128433529Y-118257102D01*
X128443492Y-118264831D01*
X128443495Y-118264833D01*
X128449659Y-118269614D01*
X128456822Y-118272713D01*
X128456823Y-118272714D01*
X128490316Y-118287207D01*
X128500812Y-118292348D01*
X128539640Y-118313695D01*
X128559416Y-118318772D01*
X128577823Y-118325075D01*
X128589391Y-118330081D01*
X128589392Y-118330081D01*
X128596555Y-118333181D01*
X128640321Y-118340112D01*
X128651741Y-118342477D01*
X128694670Y-118353500D01*
X128698306Y-118353500D01*
X128744433Y-118369518D01*
X128781958Y-118404571D01*
X128890696Y-118559865D01*
X128890699Y-118559869D01*
X128893802Y-118564300D01*
X129055700Y-118726198D01*
X129060132Y-118729301D01*
X129060134Y-118729303D01*
X129095542Y-118754096D01*
X129243251Y-118857523D01*
X129296401Y-118882307D01*
X129348576Y-118928061D01*
X129367996Y-118994686D01*
X129348578Y-119061311D01*
X129296403Y-119107069D01*
X129252421Y-119127578D01*
X129243087Y-119132967D01*
X129065618Y-119257232D01*
X129057352Y-119264169D01*
X128904169Y-119417352D01*
X128897232Y-119425618D01*
X128772967Y-119603087D01*
X128767579Y-119612419D01*
X128676022Y-119808765D01*
X128672330Y-119818907D01*
X128624820Y-119996219D01*
X128624452Y-120007448D01*
X128635395Y-120010000D01*
X131164605Y-120010000D01*
X131175547Y-120007448D01*
X131175179Y-119996219D01*
X131127669Y-119818907D01*
X131123977Y-119808765D01*
X131032420Y-119612419D01*
X131027032Y-119603087D01*
X130902767Y-119425618D01*
X130895830Y-119417352D01*
X130742647Y-119264169D01*
X130734381Y-119257232D01*
X130556912Y-119132967D01*
X130547583Y-119127581D01*
X130503597Y-119107070D01*
X130451422Y-119061312D01*
X130432003Y-118994686D01*
X130451424Y-118928061D01*
X130503598Y-118882307D01*
X130556749Y-118857523D01*
X130744300Y-118726198D01*
X130906198Y-118564300D01*
X131037523Y-118376749D01*
X131134284Y-118169243D01*
X131193543Y-117948087D01*
X131213498Y-117720000D01*
X131193543Y-117491913D01*
X131192070Y-117486417D01*
X131135683Y-117275978D01*
X131135682Y-117275977D01*
X131134284Y-117270757D01*
X131037523Y-117063251D01*
X130906198Y-116875700D01*
X130744300Y-116713802D01*
X130739869Y-116710699D01*
X130739865Y-116710696D01*
X130561186Y-116585584D01*
X130561187Y-116585584D01*
X130556749Y-116582477D01*
X130513650Y-116562380D01*
X130461478Y-116516626D01*
X130442058Y-116450000D01*
X130461478Y-116383374D01*
X130513650Y-116337619D01*
X130556749Y-116317523D01*
X130744300Y-116186198D01*
X130744493Y-116186474D01*
X130796153Y-116161462D01*
X130856794Y-116164108D01*
X130908913Y-116195218D01*
X136149114Y-121435419D01*
X136179364Y-121484782D01*
X136183906Y-121542498D01*
X136161751Y-121595985D01*
X136117728Y-121633585D01*
X136061433Y-121647100D01*
X133958235Y-121647100D01*
X133946960Y-121646568D01*
X133939491Y-121644899D01*
X133931692Y-121645144D01*
X133871401Y-121647039D01*
X133867506Y-121647100D01*
X133839544Y-121647100D01*
X133835690Y-121647586D01*
X133835683Y-121647587D01*
X133835425Y-121647620D01*
X133823803Y-121648534D01*
X133787303Y-121649681D01*
X133787295Y-121649682D01*
X133779510Y-121649927D01*
X133772029Y-121652100D01*
X133772018Y-121652102D01*
X133759905Y-121655622D01*
X133740857Y-121659567D01*
X133728343Y-121661148D01*
X133728342Y-121661148D01*
X133720603Y-121662126D01*
X133713352Y-121664996D01*
X133713347Y-121664998D01*
X133679397Y-121678439D01*
X133668352Y-121682220D01*
X133633302Y-121692403D01*
X133633291Y-121692407D01*
X133625807Y-121694582D01*
X133619094Y-121698551D01*
X133619091Y-121698553D01*
X133608232Y-121704975D01*
X133590770Y-121713529D01*
X133579042Y-121718173D01*
X133579036Y-121718176D01*
X133571783Y-121721048D01*
X133565473Y-121725632D01*
X133565470Y-121725634D01*
X133535941Y-121747088D01*
X133526181Y-121753499D01*
X133494749Y-121772088D01*
X133494746Y-121772090D01*
X133488037Y-121776058D01*
X133482526Y-121781567D01*
X133482519Y-121781574D01*
X133473594Y-121790499D01*
X133458811Y-121803125D01*
X133448607Y-121810539D01*
X133448600Y-121810545D01*
X133442293Y-121815128D01*
X133437324Y-121821133D01*
X133437321Y-121821137D01*
X133414052Y-121849264D01*
X133406192Y-121857901D01*
X131691641Y-123572452D01*
X131636877Y-123604322D01*
X131573764Y-123604973D01*
X131569635Y-123603556D01*
X131564585Y-123602713D01*
X131564580Y-123602712D01*
X131352631Y-123567344D01*
X131352622Y-123567343D01*
X131347569Y-123566500D01*
X131122431Y-123566500D01*
X131117378Y-123567343D01*
X131117368Y-123567344D01*
X130905423Y-123602711D01*
X130905411Y-123602713D01*
X130900365Y-123603556D01*
X130895515Y-123605220D01*
X130895511Y-123605222D01*
X130692273Y-123674993D01*
X130692262Y-123674997D01*
X130687426Y-123676658D01*
X130682929Y-123679091D01*
X130682919Y-123679096D01*
X130493934Y-123781369D01*
X130493922Y-123781376D01*
X130489424Y-123783811D01*
X130485389Y-123786951D01*
X130485376Y-123786960D01*
X130315801Y-123918948D01*
X130315795Y-123918952D01*
X130311760Y-123922094D01*
X130308297Y-123925855D01*
X130308288Y-123925864D01*
X130162753Y-124083956D01*
X130162747Y-124083963D01*
X130159278Y-124087732D01*
X130156481Y-124092012D01*
X130156474Y-124092022D01*
X130068809Y-124226205D01*
X130024017Y-124267438D01*
X129965000Y-124282383D01*
X129905983Y-124267438D01*
X129861191Y-124226205D01*
X129773525Y-124092022D01*
X129773523Y-124092020D01*
X129770722Y-124087732D01*
X129719530Y-124032123D01*
X129621711Y-123925864D01*
X129621708Y-123925861D01*
X129618240Y-123922094D01*
X129536935Y-123858811D01*
X129444623Y-123786960D01*
X129444615Y-123786955D01*
X129440576Y-123783811D01*
X129436071Y-123781373D01*
X129436065Y-123781369D01*
X129247080Y-123679096D01*
X129247074Y-123679093D01*
X129242574Y-123676658D01*
X129237733Y-123674996D01*
X129237726Y-123674993D01*
X129034488Y-123605222D01*
X129034487Y-123605221D01*
X129029635Y-123603556D01*
X129024585Y-123602713D01*
X129024576Y-123602711D01*
X128812631Y-123567344D01*
X128812622Y-123567343D01*
X128807569Y-123566500D01*
X128582431Y-123566500D01*
X128577378Y-123567343D01*
X128577368Y-123567344D01*
X128365423Y-123602711D01*
X128365411Y-123602713D01*
X128360365Y-123603556D01*
X128355515Y-123605220D01*
X128355511Y-123605222D01*
X128152273Y-123674993D01*
X128152262Y-123674997D01*
X128147426Y-123676658D01*
X128142929Y-123679091D01*
X128142919Y-123679096D01*
X127953934Y-123781369D01*
X127953922Y-123781376D01*
X127949424Y-123783811D01*
X127945389Y-123786951D01*
X127945376Y-123786960D01*
X127775801Y-123918948D01*
X127775795Y-123918952D01*
X127771760Y-123922094D01*
X127768297Y-123925855D01*
X127768288Y-123925864D01*
X127622753Y-124083956D01*
X127622747Y-124083963D01*
X127619278Y-124087732D01*
X127616481Y-124092012D01*
X127616474Y-124092022D01*
X127501870Y-124267438D01*
X127496140Y-124276209D01*
X127494083Y-124280897D01*
X127494081Y-124280902D01*
X127488935Y-124292633D01*
X127452547Y-124339880D01*
X127398311Y-124364677D01*
X127338772Y-124361287D01*
X127287701Y-124330496D01*
X126535119Y-123577914D01*
X126508239Y-123537686D01*
X126498800Y-123490233D01*
X126498800Y-121018047D01*
X126499331Y-121006762D01*
X126501002Y-120999291D01*
X126498860Y-120931168D01*
X126498800Y-120927274D01*
X126498800Y-120903244D01*
X126498800Y-120899344D01*
X126498283Y-120895258D01*
X126497365Y-120883599D01*
X126496922Y-120869503D01*
X126495974Y-120839311D01*
X126490274Y-120819694D01*
X126486333Y-120800661D01*
X126483774Y-120780403D01*
X126467465Y-120739212D01*
X126463680Y-120728158D01*
X126458763Y-120711234D01*
X126451318Y-120685607D01*
X126440919Y-120668024D01*
X126432370Y-120650571D01*
X126424852Y-120631583D01*
X126398803Y-120595730D01*
X126392398Y-120585979D01*
X126373814Y-120554555D01*
X126369842Y-120547838D01*
X126355407Y-120533403D01*
X126342770Y-120518607D01*
X126338370Y-120512551D01*
X128624452Y-120512551D01*
X128624820Y-120523780D01*
X128672330Y-120701092D01*
X128676022Y-120711234D01*
X128767579Y-120907580D01*
X128772967Y-120916912D01*
X128897232Y-121094381D01*
X128904169Y-121102647D01*
X129057352Y-121255830D01*
X129065618Y-121262767D01*
X129243087Y-121387032D01*
X129252419Y-121392420D01*
X129448765Y-121483977D01*
X129458907Y-121487669D01*
X129636219Y-121535179D01*
X129647448Y-121535547D01*
X129650000Y-121524605D01*
X130150000Y-121524605D01*
X130152551Y-121535547D01*
X130163780Y-121535179D01*
X130341092Y-121487669D01*
X130351234Y-121483977D01*
X130547580Y-121392420D01*
X130556912Y-121387032D01*
X130734381Y-121262767D01*
X130742647Y-121255830D01*
X130895830Y-121102647D01*
X130902767Y-121094381D01*
X131027032Y-120916912D01*
X131032420Y-120907580D01*
X131123977Y-120711234D01*
X131127669Y-120701092D01*
X131175179Y-120523780D01*
X131175547Y-120512551D01*
X131164605Y-120510000D01*
X130166326Y-120510000D01*
X130153450Y-120513450D01*
X130150000Y-120526326D01*
X130150000Y-121524605D01*
X129650000Y-121524605D01*
X129650000Y-120526326D01*
X129646549Y-120513450D01*
X129633674Y-120510000D01*
X128635395Y-120510000D01*
X128624452Y-120512551D01*
X126338370Y-120512551D01*
X126330772Y-120502093D01*
X126324760Y-120497120D01*
X126324757Y-120497116D01*
X126296625Y-120473843D01*
X126287985Y-120465981D01*
X125774513Y-119952508D01*
X125744488Y-119903830D01*
X125739503Y-119846855D01*
X125760620Y-119793703D01*
X125763266Y-119789925D01*
X125833107Y-119690182D01*
X125874411Y-119631194D01*
X125874416Y-119631186D01*
X125877523Y-119626749D01*
X125974284Y-119419243D01*
X126033543Y-119198087D01*
X126053498Y-118970000D01*
X126033543Y-118741913D01*
X126028305Y-118722366D01*
X125975683Y-118525978D01*
X125975682Y-118525977D01*
X125974284Y-118520757D01*
X125877523Y-118313251D01*
X125781666Y-118176353D01*
X125749303Y-118130134D01*
X125749301Y-118130132D01*
X125746198Y-118125700D01*
X125584300Y-117963802D01*
X125579867Y-117960698D01*
X125579860Y-117960692D01*
X125405384Y-117838523D01*
X125372590Y-117804604D01*
X125354841Y-117760891D01*
X125354703Y-117713719D01*
X125357825Y-117697351D01*
X125359509Y-117689815D01*
X125373500Y-117635330D01*
X125373500Y-117631694D01*
X125389518Y-117585566D01*
X125424572Y-117548041D01*
X125440375Y-117536976D01*
X125554706Y-117456920D01*
X125579860Y-117439307D01*
X125579860Y-117439306D01*
X125584300Y-117436198D01*
X125746198Y-117274300D01*
X125877523Y-117086749D01*
X125974284Y-116879243D01*
X126033543Y-116658087D01*
X126053498Y-116430000D01*
X126033543Y-116201913D01*
X126032138Y-116196672D01*
X126031215Y-116191433D01*
X126036086Y-116129530D01*
X126070358Y-116077749D01*
X126125436Y-116049076D01*
X126187510Y-116050701D01*
G37*
G04 #@! TD.AperFunction*
G04 #@! TA.AperFunction,Conductor*
G36*
X155833038Y-108063786D02*
G01*
X155877976Y-108105875D01*
X155897130Y-108164391D01*
X155885777Y-108224901D01*
X155880716Y-108235757D01*
X155879319Y-108240967D01*
X155879316Y-108240978D01*
X155822858Y-108451680D01*
X155822855Y-108451692D01*
X155821457Y-108456913D01*
X155820985Y-108462302D01*
X155820984Y-108462311D01*
X155810048Y-108587313D01*
X155801502Y-108685000D01*
X155801974Y-108690395D01*
X155820984Y-108907688D01*
X155820985Y-108907695D01*
X155821457Y-108913087D01*
X155822856Y-108918308D01*
X155822858Y-108918319D01*
X155879316Y-109129021D01*
X155879318Y-109129028D01*
X155880716Y-109134243D01*
X155883000Y-109139143D01*
X155883002Y-109139146D01*
X155967125Y-109319549D01*
X155977477Y-109341749D01*
X155980582Y-109346183D01*
X155980587Y-109346192D01*
X156094379Y-109508704D01*
X156115495Y-109561856D01*
X156110510Y-109618831D01*
X156080485Y-109667508D01*
X155597494Y-110150500D01*
X155589143Y-110158099D01*
X155582682Y-110162200D01*
X155577342Y-110167885D01*
X155577340Y-110167888D01*
X155536038Y-110211869D01*
X155533333Y-110214661D01*
X155513565Y-110234430D01*
X155511181Y-110237502D01*
X155511178Y-110237506D01*
X155511022Y-110237708D01*
X155503452Y-110246570D01*
X155473114Y-110278879D01*
X155469359Y-110285707D01*
X155469358Y-110285710D01*
X155463279Y-110296767D01*
X155452603Y-110313019D01*
X155444868Y-110322991D01*
X155444860Y-110323002D01*
X155440086Y-110329159D01*
X155436991Y-110336310D01*
X155436988Y-110336316D01*
X155422486Y-110369828D01*
X155417348Y-110380315D01*
X155399765Y-110412298D01*
X155399761Y-110412306D01*
X155396005Y-110419140D01*
X155394066Y-110426691D01*
X155394063Y-110426699D01*
X155390925Y-110438922D01*
X155384626Y-110457319D01*
X155376519Y-110476055D01*
X155375299Y-110483753D01*
X155375298Y-110483759D01*
X155369588Y-110519811D01*
X155367220Y-110531245D01*
X155358138Y-110566617D01*
X155358136Y-110566626D01*
X155356200Y-110574170D01*
X155356200Y-110581966D01*
X155356200Y-110594585D01*
X155354672Y-110613983D01*
X155351480Y-110634143D01*
X155352214Y-110641908D01*
X155352214Y-110641911D01*
X155355650Y-110678258D01*
X155356200Y-110689927D01*
X155356200Y-114119834D01*
X155342685Y-114176129D01*
X155305085Y-114220152D01*
X155251598Y-114242307D01*
X155193882Y-114237765D01*
X155144519Y-114207515D01*
X153125967Y-112188963D01*
X152459002Y-111521998D01*
X152428424Y-111471606D01*
X152424569Y-111412786D01*
X152448310Y-111358832D01*
X152494281Y-111321936D01*
X152557585Y-111292417D01*
X152566912Y-111287032D01*
X152744381Y-111162767D01*
X152752647Y-111155830D01*
X152905830Y-111002647D01*
X152912767Y-110994381D01*
X153037032Y-110816912D01*
X153042420Y-110807580D01*
X153133977Y-110611234D01*
X153137669Y-110601092D01*
X153185179Y-110423780D01*
X153185547Y-110412551D01*
X153174605Y-110410000D01*
X151784000Y-110410000D01*
X151722000Y-110393387D01*
X151676613Y-110348000D01*
X151660000Y-110286000D01*
X151660000Y-109893674D01*
X152160000Y-109893674D01*
X152163450Y-109906549D01*
X152176326Y-109910000D01*
X153174605Y-109910000D01*
X153185547Y-109907448D01*
X153185179Y-109896219D01*
X153137669Y-109718907D01*
X153133977Y-109708765D01*
X153042420Y-109512419D01*
X153037032Y-109503087D01*
X152912767Y-109325618D01*
X152905830Y-109317352D01*
X152752647Y-109164169D01*
X152744381Y-109157232D01*
X152566912Y-109032967D01*
X152557580Y-109027579D01*
X152361234Y-108936022D01*
X152351092Y-108932330D01*
X152173780Y-108884820D01*
X152162551Y-108884452D01*
X152160000Y-108895395D01*
X152160000Y-109893674D01*
X151660000Y-109893674D01*
X151660000Y-108895395D01*
X151657448Y-108884452D01*
X151646219Y-108884820D01*
X151468907Y-108932330D01*
X151458765Y-108936022D01*
X151262419Y-109027579D01*
X151253081Y-109032970D01*
X151088823Y-109147986D01*
X151025810Y-109170146D01*
X150960443Y-109156400D01*
X150911691Y-109110739D01*
X150893700Y-109046411D01*
X150893700Y-108223135D01*
X150894231Y-108211860D01*
X150895901Y-108204391D01*
X150895021Y-108176395D01*
X150910298Y-108112763D01*
X150955839Y-108065768D01*
X151018960Y-108048500D01*
X155773395Y-108048500D01*
X155833038Y-108063786D01*
G37*
G04 #@! TD.AperFunction*
G04 #@! TA.AperFunction,Conductor*
G36*
X155301487Y-75886039D02*
G01*
X155341715Y-75912919D01*
X155485994Y-76057198D01*
X155493596Y-76065551D01*
X155497700Y-76072018D01*
X155521428Y-76094300D01*
X155547367Y-76118658D01*
X155550165Y-76121369D01*
X155569931Y-76141135D01*
X155573010Y-76143523D01*
X155573186Y-76143660D01*
X155582076Y-76151252D01*
X155614379Y-76181586D01*
X155632270Y-76191421D01*
X155648527Y-76202100D01*
X155664659Y-76214614D01*
X155705316Y-76232207D01*
X155715812Y-76237348D01*
X155754640Y-76258695D01*
X155774416Y-76263772D01*
X155792823Y-76270075D01*
X155804391Y-76275081D01*
X155804392Y-76275081D01*
X155811555Y-76278181D01*
X155855321Y-76285112D01*
X155866741Y-76287477D01*
X155909670Y-76298500D01*
X155913306Y-76298500D01*
X155959433Y-76314518D01*
X155996958Y-76349571D01*
X156105696Y-76504865D01*
X156105699Y-76504869D01*
X156108802Y-76509300D01*
X156112633Y-76513131D01*
X156123817Y-76524315D01*
X156155911Y-76579902D01*
X156155911Y-76644090D01*
X156123817Y-76699677D01*
X155581893Y-77241600D01*
X155573544Y-77249198D01*
X155567082Y-77253300D01*
X155561741Y-77258986D01*
X155561739Y-77258989D01*
X155520439Y-77302968D01*
X155517734Y-77305760D01*
X155497965Y-77325530D01*
X155495581Y-77328602D01*
X155495578Y-77328606D01*
X155495422Y-77328808D01*
X155487852Y-77337670D01*
X155465169Y-77361827D01*
X155457514Y-77369979D01*
X155453759Y-77376807D01*
X155453758Y-77376810D01*
X155447679Y-77387867D01*
X155437003Y-77404119D01*
X155429268Y-77414091D01*
X155429260Y-77414102D01*
X155424486Y-77420259D01*
X155421391Y-77427410D01*
X155421388Y-77427416D01*
X155406886Y-77460928D01*
X155401748Y-77471415D01*
X155384165Y-77503398D01*
X155384161Y-77503406D01*
X155380405Y-77510240D01*
X155378466Y-77517791D01*
X155378463Y-77517799D01*
X155375325Y-77530022D01*
X155369026Y-77548419D01*
X155360919Y-77567155D01*
X155359699Y-77574853D01*
X155359698Y-77574859D01*
X155353988Y-77610911D01*
X155351620Y-77622345D01*
X155342538Y-77657717D01*
X155342536Y-77657726D01*
X155340600Y-77665270D01*
X155340600Y-77673066D01*
X155340600Y-77685685D01*
X155339072Y-77705083D01*
X155335880Y-77725243D01*
X155336614Y-77733008D01*
X155336614Y-77733011D01*
X155340050Y-77769358D01*
X155340600Y-77781027D01*
X155340600Y-86241054D01*
X155340068Y-86252337D01*
X155338398Y-86259809D01*
X155338643Y-86267605D01*
X155338643Y-86267607D01*
X155340539Y-86327917D01*
X155340600Y-86331813D01*
X155340600Y-86359756D01*
X155341088Y-86363621D01*
X155341089Y-86363632D01*
X155341119Y-86363870D01*
X155342034Y-86375496D01*
X155343181Y-86411996D01*
X155343182Y-86412003D01*
X155343427Y-86419789D01*
X155345600Y-86427270D01*
X155345602Y-86427280D01*
X155349122Y-86439395D01*
X155353067Y-86458442D01*
X155355626Y-86478697D01*
X155358495Y-86485945D01*
X155358498Y-86485954D01*
X155371938Y-86519901D01*
X155375721Y-86530948D01*
X155388082Y-86573493D01*
X155392053Y-86580208D01*
X155392054Y-86580210D01*
X155398475Y-86591068D01*
X155407030Y-86608531D01*
X155414548Y-86627517D01*
X155419130Y-86633824D01*
X155419131Y-86633825D01*
X155440591Y-86663362D01*
X155447005Y-86673127D01*
X155452024Y-86681614D01*
X155469558Y-86711262D01*
X155475076Y-86716780D01*
X155483989Y-86725693D01*
X155496625Y-86740488D01*
X155504038Y-86750691D01*
X155504043Y-86750696D01*
X155508628Y-86757007D01*
X155542767Y-86785249D01*
X155551408Y-86793112D01*
X156106443Y-87348147D01*
X156137552Y-87400263D01*
X156140201Y-87460900D01*
X156113755Y-87515530D01*
X156112622Y-87516879D01*
X156108802Y-87520700D01*
X156105706Y-87525121D01*
X156105698Y-87525131D01*
X155980584Y-87703813D01*
X155980581Y-87703817D01*
X155977477Y-87708251D01*
X155975188Y-87713159D01*
X155975185Y-87713165D01*
X155883002Y-87910853D01*
X155882999Y-87910860D01*
X155880716Y-87915757D01*
X155879319Y-87920967D01*
X155879316Y-87920978D01*
X155822858Y-88131680D01*
X155822855Y-88131692D01*
X155821457Y-88136913D01*
X155820985Y-88142302D01*
X155820984Y-88142311D01*
X155809044Y-88278791D01*
X155801502Y-88365000D01*
X155801974Y-88370395D01*
X155820984Y-88587688D01*
X155820985Y-88587695D01*
X155821457Y-88593087D01*
X155822856Y-88598308D01*
X155822858Y-88598319D01*
X155879316Y-88809021D01*
X155879318Y-88809028D01*
X155880716Y-88814243D01*
X155883000Y-88819143D01*
X155883002Y-88819146D01*
X155961392Y-88987255D01*
X155977477Y-89021749D01*
X156002137Y-89056967D01*
X156105696Y-89204865D01*
X156105699Y-89204869D01*
X156108802Y-89209300D01*
X156270700Y-89371198D01*
X156275132Y-89374301D01*
X156275134Y-89374303D01*
X156449615Y-89496476D01*
X156482407Y-89530395D01*
X156500157Y-89574107D01*
X156500295Y-89621286D01*
X156497183Y-89637600D01*
X156495484Y-89645200D01*
X156483439Y-89692114D01*
X156483438Y-89692121D01*
X156481500Y-89699670D01*
X156481500Y-89703306D01*
X156465481Y-89749434D01*
X156430428Y-89786957D01*
X156275142Y-89895690D01*
X156275129Y-89895700D01*
X156270700Y-89898802D01*
X156266874Y-89902627D01*
X156266868Y-89902633D01*
X156112633Y-90056868D01*
X156112627Y-90056874D01*
X156108802Y-90060700D01*
X156105703Y-90065124D01*
X156105696Y-90065134D01*
X155980584Y-90243813D01*
X155980581Y-90243817D01*
X155977477Y-90248251D01*
X155975188Y-90253159D01*
X155975185Y-90253165D01*
X155883002Y-90450853D01*
X155882999Y-90450860D01*
X155880716Y-90455757D01*
X155879319Y-90460967D01*
X155879316Y-90460978D01*
X155822858Y-90671680D01*
X155822855Y-90671692D01*
X155821457Y-90676913D01*
X155820985Y-90682302D01*
X155820984Y-90682311D01*
X155809455Y-90814096D01*
X155801502Y-90905000D01*
X155801974Y-90910395D01*
X155820984Y-91127688D01*
X155820985Y-91127695D01*
X155821457Y-91133087D01*
X155822856Y-91138308D01*
X155822858Y-91138319D01*
X155879316Y-91349021D01*
X155879318Y-91349028D01*
X155880716Y-91354243D01*
X155883000Y-91359143D01*
X155883002Y-91359146D01*
X155971558Y-91549055D01*
X155977477Y-91561749D01*
X156106229Y-91745625D01*
X156108802Y-91749300D01*
X156108208Y-91749715D01*
X156132534Y-91799961D01*
X156129887Y-91860599D01*
X156098777Y-91912716D01*
X155219308Y-92792185D01*
X155171486Y-92821923D01*
X155115442Y-92827443D01*
X155062736Y-92807606D01*
X155024240Y-92766504D01*
X154935488Y-92612782D01*
X154932240Y-92607156D01*
X154804453Y-92465234D01*
X154799203Y-92461419D01*
X154799199Y-92461416D01*
X154655206Y-92356799D01*
X154655204Y-92356797D01*
X154649952Y-92352982D01*
X154644021Y-92350341D01*
X154644017Y-92350339D01*
X154481426Y-92277949D01*
X154481419Y-92277946D01*
X154475488Y-92275306D01*
X154469135Y-92273955D01*
X154469127Y-92273953D01*
X154295049Y-92236952D01*
X154295046Y-92236951D01*
X154288687Y-92235600D01*
X154097713Y-92235600D01*
X154091354Y-92236951D01*
X154091350Y-92236952D01*
X153917272Y-92273953D01*
X153917261Y-92273956D01*
X153910912Y-92275306D01*
X153904982Y-92277945D01*
X153904973Y-92277949D01*
X153742382Y-92350339D01*
X153742374Y-92350343D01*
X153736448Y-92352982D01*
X153731199Y-92356795D01*
X153731193Y-92356799D01*
X153587200Y-92461416D01*
X153587191Y-92461423D01*
X153581947Y-92465234D01*
X153577603Y-92470057D01*
X153577600Y-92470061D01*
X153471511Y-92587886D01*
X153454160Y-92607156D01*
X153450914Y-92612776D01*
X153450911Y-92612782D01*
X153361921Y-92766917D01*
X153361918Y-92766922D01*
X153358673Y-92772544D01*
X153356667Y-92778716D01*
X153356665Y-92778722D01*
X153301665Y-92947992D01*
X153301663Y-92948001D01*
X153299658Y-92954172D01*
X153298979Y-92960631D01*
X153298979Y-92960632D01*
X153282218Y-93120097D01*
X153270817Y-93160519D01*
X153246578Y-93194816D01*
X148526693Y-97914700D01*
X148518344Y-97922298D01*
X148511882Y-97926400D01*
X148506541Y-97932086D01*
X148506539Y-97932089D01*
X148465239Y-97976068D01*
X148462534Y-97978860D01*
X148442765Y-97998630D01*
X148440381Y-98001702D01*
X148440378Y-98001706D01*
X148440222Y-98001908D01*
X148432652Y-98010770D01*
X148409339Y-98035598D01*
X148402314Y-98043079D01*
X148398559Y-98049907D01*
X148398558Y-98049910D01*
X148392479Y-98060967D01*
X148381803Y-98077219D01*
X148374068Y-98087191D01*
X148374060Y-98087202D01*
X148369286Y-98093359D01*
X148366191Y-98100510D01*
X148366188Y-98100516D01*
X148351686Y-98134028D01*
X148346548Y-98144515D01*
X148328965Y-98176498D01*
X148328961Y-98176506D01*
X148325205Y-98183340D01*
X148323266Y-98190891D01*
X148323263Y-98190899D01*
X148320125Y-98203122D01*
X148313826Y-98221519D01*
X148305719Y-98240255D01*
X148304499Y-98247953D01*
X148304498Y-98247959D01*
X148298788Y-98284011D01*
X148296420Y-98295445D01*
X148287338Y-98330817D01*
X148287336Y-98330826D01*
X148285400Y-98338370D01*
X148285400Y-98346166D01*
X148285400Y-98358785D01*
X148283872Y-98378183D01*
X148280680Y-98398343D01*
X148281414Y-98406108D01*
X148281414Y-98406111D01*
X148284850Y-98442458D01*
X148285400Y-98454127D01*
X148285400Y-100545934D01*
X148275961Y-100593387D01*
X148249081Y-100633615D01*
X147271214Y-101611481D01*
X147230986Y-101638361D01*
X147183533Y-101647800D01*
X147089713Y-101647800D01*
X147083357Y-101649150D01*
X147083347Y-101649152D01*
X147024880Y-101661580D01*
X146973317Y-101661580D01*
X146926212Y-101640606D01*
X146891713Y-101602290D01*
X146880840Y-101583456D01*
X146753053Y-101441534D01*
X146747798Y-101437716D01*
X146747795Y-101437713D01*
X146727394Y-101422891D01*
X146685107Y-101368522D01*
X146678355Y-101299976D01*
X146709223Y-101238402D01*
X146768184Y-101202798D01*
X146949243Y-101154284D01*
X147156749Y-101057523D01*
X147344300Y-100926198D01*
X147506198Y-100764300D01*
X147637523Y-100576749D01*
X147734284Y-100369243D01*
X147793543Y-100148087D01*
X147813498Y-99920000D01*
X147793543Y-99691913D01*
X147749452Y-99527366D01*
X147735683Y-99475978D01*
X147735682Y-99475977D01*
X147734284Y-99470757D01*
X147637523Y-99263251D01*
X147588678Y-99193493D01*
X147509303Y-99080134D01*
X147509301Y-99080132D01*
X147506198Y-99075700D01*
X147344300Y-98913802D01*
X147339869Y-98910699D01*
X147339865Y-98910696D01*
X147186376Y-98803222D01*
X147147511Y-98758904D01*
X147133500Y-98701647D01*
X147133500Y-96469435D01*
X147134031Y-96458160D01*
X147135701Y-96450691D01*
X147133560Y-96382600D01*
X147133500Y-96378706D01*
X147133500Y-96354636D01*
X147133500Y-96350744D01*
X147132982Y-96346643D01*
X147132064Y-96334987D01*
X147130673Y-96290710D01*
X147124979Y-96271113D01*
X147121031Y-96252049D01*
X147120872Y-96250793D01*
X147120307Y-96246319D01*
X147119452Y-96239543D01*
X147119451Y-96239540D01*
X147118474Y-96231803D01*
X147102163Y-96190607D01*
X147098380Y-96179558D01*
X147086018Y-96137006D01*
X147075625Y-96119433D01*
X147067063Y-96101955D01*
X147062423Y-96090235D01*
X147059552Y-96082983D01*
X147033512Y-96047143D01*
X147027097Y-96037376D01*
X147008515Y-96005954D01*
X147008512Y-96005950D01*
X147004542Y-95999237D01*
X146990107Y-95984802D01*
X146977469Y-95970005D01*
X146970058Y-95959805D01*
X146970057Y-95959804D01*
X146965472Y-95953493D01*
X146931336Y-95925253D01*
X146922696Y-95917391D01*
X142902636Y-91897331D01*
X142872611Y-91848653D01*
X142867626Y-91791678D01*
X142888742Y-91738526D01*
X142903346Y-91717669D01*
X143012523Y-91561749D01*
X143109284Y-91354243D01*
X143168543Y-91133087D01*
X143188498Y-90905000D01*
X143168543Y-90676913D01*
X143109284Y-90455757D01*
X143012523Y-90248251D01*
X142930044Y-90130459D01*
X142884303Y-90065134D01*
X142884301Y-90065132D01*
X142881198Y-90060700D01*
X142719300Y-89898802D01*
X142714869Y-89895699D01*
X142714865Y-89895696D01*
X142536186Y-89770584D01*
X142536187Y-89770584D01*
X142531749Y-89767477D01*
X142488651Y-89747380D01*
X142436477Y-89701623D01*
X142417058Y-89634997D01*
X142436479Y-89568371D01*
X142488652Y-89522619D01*
X142531749Y-89502523D01*
X142719300Y-89371198D01*
X142881198Y-89209300D01*
X142993604Y-89048767D01*
X143036207Y-89010812D01*
X143084771Y-88997711D01*
X143084681Y-88997139D01*
X143090044Y-88996289D01*
X143091293Y-88995952D01*
X143100189Y-88995673D01*
X143119790Y-88989977D01*
X143138841Y-88986032D01*
X143159097Y-88983474D01*
X143199919Y-88967311D01*
X143200293Y-88967163D01*
X143211343Y-88963379D01*
X143253893Y-88951018D01*
X143271465Y-88940625D01*
X143288932Y-88932068D01*
X143307917Y-88924552D01*
X143331820Y-88907184D01*
X143366389Y-88889570D01*
X143404709Y-88883500D01*
X145031647Y-88883500D01*
X145088904Y-88897511D01*
X145133222Y-88936376D01*
X145240696Y-89089865D01*
X145240699Y-89089869D01*
X145243802Y-89094300D01*
X145405700Y-89256198D01*
X145593251Y-89387523D01*
X145800757Y-89484284D01*
X145805977Y-89485682D01*
X145805978Y-89485683D01*
X146016680Y-89542141D01*
X146016682Y-89542141D01*
X146021913Y-89543543D01*
X146250000Y-89563498D01*
X146478087Y-89543543D01*
X146699243Y-89484284D01*
X146906749Y-89387523D01*
X146990752Y-89328703D01*
X148028217Y-89328703D01*
X148035650Y-89336814D01*
X148093077Y-89377025D01*
X148102427Y-89382423D01*
X148298768Y-89473979D01*
X148308902Y-89477667D01*
X148518162Y-89533739D01*
X148528793Y-89535613D01*
X148744605Y-89554494D01*
X148755395Y-89554494D01*
X148971206Y-89535613D01*
X148981837Y-89533739D01*
X149191097Y-89477667D01*
X149201231Y-89473979D01*
X149397575Y-89382422D01*
X149406920Y-89377026D01*
X149464348Y-89336814D01*
X149471780Y-89328703D01*
X149465867Y-89319421D01*
X148761542Y-88615095D01*
X148750000Y-88608431D01*
X148738457Y-88615095D01*
X148034128Y-89319424D01*
X148028217Y-89328703D01*
X146990752Y-89328703D01*
X147094300Y-89256198D01*
X147256198Y-89094300D01*
X147387523Y-88906749D01*
X147392304Y-88896494D01*
X147438053Y-88844319D01*
X147504677Y-88824893D01*
X147571305Y-88844307D01*
X147614236Y-88893253D01*
X147614871Y-88892887D01*
X147616713Y-88896077D01*
X147617067Y-88896481D01*
X147617575Y-88897571D01*
X147622974Y-88906922D01*
X147663184Y-88964348D01*
X147671295Y-88971781D01*
X147680574Y-88965870D01*
X148384903Y-88261542D01*
X148391567Y-88250000D01*
X149108431Y-88250000D01*
X149115095Y-88261542D01*
X149819421Y-88965867D01*
X149828703Y-88971780D01*
X149836814Y-88964348D01*
X149877026Y-88906920D01*
X149882422Y-88897575D01*
X149973979Y-88701231D01*
X149977667Y-88691097D01*
X150033739Y-88481837D01*
X150035613Y-88471206D01*
X150054494Y-88255395D01*
X150054494Y-88244605D01*
X150035613Y-88028793D01*
X150033739Y-88018162D01*
X149977667Y-87808902D01*
X149973979Y-87798768D01*
X149882423Y-87602427D01*
X149877025Y-87593077D01*
X149836814Y-87535650D01*
X149828703Y-87528217D01*
X149819424Y-87534128D01*
X149115095Y-88238457D01*
X149108431Y-88250000D01*
X148391567Y-88250000D01*
X148384903Y-88238457D01*
X147680574Y-87534128D01*
X147671296Y-87528217D01*
X147663183Y-87535651D01*
X147622971Y-87593081D01*
X147617570Y-87602436D01*
X147617063Y-87603525D01*
X147616709Y-87603927D01*
X147614872Y-87607111D01*
X147614238Y-87606745D01*
X147571301Y-87655694D01*
X147504676Y-87675106D01*
X147438054Y-87655681D01*
X147392305Y-87603506D01*
X147387523Y-87593251D01*
X147290146Y-87454182D01*
X147259303Y-87410134D01*
X147259301Y-87410132D01*
X147256198Y-87405700D01*
X147094300Y-87243802D01*
X147089869Y-87240699D01*
X147089865Y-87240696D01*
X146990751Y-87171296D01*
X148028217Y-87171296D01*
X148034128Y-87180574D01*
X148738457Y-87884903D01*
X148750000Y-87891567D01*
X148761542Y-87884903D01*
X149465870Y-87180574D01*
X149471781Y-87171295D01*
X149464348Y-87163184D01*
X149406922Y-87122974D01*
X149397572Y-87117576D01*
X149201231Y-87026020D01*
X149191097Y-87022332D01*
X148981837Y-86966260D01*
X148971206Y-86964386D01*
X148755395Y-86945506D01*
X148744605Y-86945506D01*
X148528793Y-86964386D01*
X148518162Y-86966260D01*
X148308902Y-87022332D01*
X148298768Y-87026020D01*
X148102425Y-87117577D01*
X148093081Y-87122971D01*
X148035651Y-87163183D01*
X148028217Y-87171296D01*
X146990751Y-87171296D01*
X146921736Y-87122971D01*
X146906749Y-87112477D01*
X146901834Y-87110185D01*
X146704146Y-87018002D01*
X146704143Y-87018000D01*
X146699243Y-87015716D01*
X146694028Y-87014318D01*
X146694021Y-87014316D01*
X146483319Y-86957858D01*
X146483308Y-86957856D01*
X146478087Y-86956457D01*
X146472695Y-86955985D01*
X146472688Y-86955984D01*
X146255395Y-86936974D01*
X146250000Y-86936502D01*
X146244605Y-86936974D01*
X146027311Y-86955984D01*
X146027302Y-86955985D01*
X146021913Y-86956457D01*
X146016692Y-86957855D01*
X146016680Y-86957858D01*
X145805978Y-87014316D01*
X145805967Y-87014319D01*
X145800757Y-87015716D01*
X145795860Y-87017999D01*
X145795853Y-87018002D01*
X145598165Y-87110185D01*
X145598159Y-87110188D01*
X145593251Y-87112477D01*
X145588817Y-87115581D01*
X145588813Y-87115584D01*
X145410134Y-87240696D01*
X145410124Y-87240703D01*
X145405700Y-87243802D01*
X145401874Y-87247627D01*
X145401868Y-87247633D01*
X145247633Y-87401868D01*
X145247627Y-87401874D01*
X145243802Y-87405700D01*
X145240703Y-87410124D01*
X145240696Y-87410134D01*
X145133222Y-87563624D01*
X145088904Y-87602489D01*
X145031647Y-87616500D01*
X143274065Y-87616500D01*
X143217770Y-87602985D01*
X143173747Y-87565385D01*
X143151592Y-87511898D01*
X143156134Y-87454182D01*
X143186384Y-87404819D01*
X144011203Y-86580000D01*
X150836502Y-86580000D01*
X150836974Y-86585395D01*
X150855984Y-86802688D01*
X150855985Y-86802695D01*
X150856457Y-86808087D01*
X150857856Y-86813308D01*
X150857858Y-86813319D01*
X150914316Y-87024021D01*
X150914318Y-87024028D01*
X150915716Y-87029243D01*
X150918000Y-87034143D01*
X150918002Y-87034146D01*
X150998254Y-87206247D01*
X151012477Y-87236749D01*
X151015584Y-87241186D01*
X151140696Y-87419865D01*
X151140699Y-87419869D01*
X151143802Y-87424300D01*
X151305700Y-87586198D01*
X151310132Y-87589301D01*
X151310134Y-87589303D01*
X151357760Y-87622651D01*
X151493251Y-87717523D01*
X151700757Y-87814284D01*
X151705977Y-87815682D01*
X151705978Y-87815683D01*
X151916680Y-87872141D01*
X151916682Y-87872141D01*
X151921913Y-87873543D01*
X152150000Y-87893498D01*
X152378087Y-87873543D01*
X152599243Y-87814284D01*
X152806749Y-87717523D01*
X152994300Y-87586198D01*
X153156198Y-87424300D01*
X153287523Y-87236749D01*
X153384284Y-87029243D01*
X153443543Y-86808087D01*
X153463498Y-86580000D01*
X153443543Y-86351913D01*
X153437633Y-86329858D01*
X153385683Y-86135978D01*
X153385682Y-86135977D01*
X153384284Y-86130757D01*
X153287523Y-85923251D01*
X153181093Y-85771253D01*
X153159303Y-85740134D01*
X153159301Y-85740132D01*
X153156198Y-85735700D01*
X152994300Y-85573802D01*
X152989869Y-85570699D01*
X152989865Y-85570696D01*
X152811186Y-85445584D01*
X152811187Y-85445584D01*
X152806749Y-85442477D01*
X152773955Y-85427185D01*
X152604146Y-85348002D01*
X152604143Y-85348000D01*
X152599243Y-85345716D01*
X152594028Y-85344318D01*
X152594021Y-85344316D01*
X152383319Y-85287858D01*
X152383308Y-85287856D01*
X152378087Y-85286457D01*
X152372695Y-85285985D01*
X152372688Y-85285984D01*
X152155395Y-85266974D01*
X152150000Y-85266502D01*
X152144605Y-85266974D01*
X151927311Y-85285984D01*
X151927302Y-85285985D01*
X151921913Y-85286457D01*
X151916692Y-85287855D01*
X151916680Y-85287858D01*
X151705978Y-85344316D01*
X151705967Y-85344319D01*
X151700757Y-85345716D01*
X151695860Y-85347999D01*
X151695853Y-85348002D01*
X151498165Y-85440185D01*
X151498159Y-85440188D01*
X151493251Y-85442477D01*
X151488817Y-85445581D01*
X151488813Y-85445584D01*
X151310134Y-85570696D01*
X151310124Y-85570703D01*
X151305700Y-85573802D01*
X151301874Y-85577627D01*
X151301868Y-85577633D01*
X151147633Y-85731868D01*
X151147627Y-85731874D01*
X151143802Y-85735700D01*
X151140703Y-85740124D01*
X151140696Y-85740134D01*
X151015584Y-85918813D01*
X151015581Y-85918817D01*
X151012477Y-85923251D01*
X151010188Y-85928159D01*
X151010185Y-85928165D01*
X150918002Y-86125853D01*
X150917999Y-86125860D01*
X150915716Y-86130757D01*
X150914319Y-86135967D01*
X150914316Y-86135978D01*
X150857858Y-86346680D01*
X150857855Y-86346692D01*
X150856457Y-86351913D01*
X150855985Y-86357302D01*
X150855984Y-86357311D01*
X150847137Y-86458442D01*
X150836502Y-86580000D01*
X144011203Y-86580000D01*
X147842390Y-82748813D01*
X152542212Y-78048990D01*
X152550550Y-78041404D01*
X152557018Y-78037300D01*
X152603706Y-77987579D01*
X152606324Y-77984878D01*
X152626134Y-77965070D01*
X152628664Y-77961808D01*
X152636244Y-77952930D01*
X152666586Y-77920621D01*
X152676422Y-77902727D01*
X152687098Y-77886474D01*
X152699613Y-77870341D01*
X152717206Y-77829685D01*
X152722341Y-77819200D01*
X152743695Y-77780360D01*
X152747938Y-77763831D01*
X152748773Y-77760583D01*
X152755078Y-77742169D01*
X152759041Y-77733011D01*
X152763181Y-77723445D01*
X152770112Y-77679676D01*
X152772482Y-77668239D01*
X152773245Y-77665270D01*
X152783500Y-77625330D01*
X152783500Y-77621694D01*
X152799518Y-77575566D01*
X152834572Y-77538041D01*
X152873718Y-77510631D01*
X152994300Y-77426198D01*
X153156198Y-77264300D01*
X153287523Y-77076749D01*
X153384284Y-76869243D01*
X153443543Y-76648087D01*
X153463498Y-76420000D01*
X153443543Y-76191913D01*
X153438212Y-76172019D01*
X153400880Y-76032694D01*
X153399038Y-75976409D01*
X153422279Y-75925114D01*
X153465811Y-75889388D01*
X153520655Y-75876600D01*
X155254034Y-75876600D01*
X155301487Y-75886039D01*
G37*
G04 #@! TD.AperFunction*
G04 #@! TA.AperFunction,Conductor*
G36*
X131063899Y-78323617D02*
G01*
X131114293Y-78354197D01*
X133928981Y-81168885D01*
X133955861Y-81209113D01*
X133965300Y-81256566D01*
X133965300Y-85597343D01*
X133957064Y-85641781D01*
X133933450Y-85680315D01*
X133891199Y-85727240D01*
X133859760Y-85762156D01*
X133856514Y-85767776D01*
X133856511Y-85767782D01*
X133767521Y-85921917D01*
X133767518Y-85921922D01*
X133764273Y-85927544D01*
X133762267Y-85933716D01*
X133762265Y-85933722D01*
X133707265Y-86102992D01*
X133707263Y-86103001D01*
X133705258Y-86109172D01*
X133704580Y-86115622D01*
X133704578Y-86115632D01*
X133687500Y-86278134D01*
X133685296Y-86299100D01*
X133685975Y-86305560D01*
X133704578Y-86482567D01*
X133704579Y-86482575D01*
X133705258Y-86489028D01*
X133707263Y-86495200D01*
X133707265Y-86495207D01*
X133755704Y-86644284D01*
X133764273Y-86670656D01*
X133767520Y-86676280D01*
X133767521Y-86676282D01*
X133846639Y-86813319D01*
X133859760Y-86836044D01*
X133987547Y-86977966D01*
X133992797Y-86981780D01*
X133992800Y-86981783D01*
X134135663Y-87085579D01*
X134142048Y-87090218D01*
X134147981Y-87092859D01*
X134147982Y-87092860D01*
X134305930Y-87163183D01*
X134316512Y-87167894D01*
X134322870Y-87169245D01*
X134322872Y-87169246D01*
X134332512Y-87171295D01*
X134503313Y-87207600D01*
X134509816Y-87207600D01*
X134582000Y-87207600D01*
X134644000Y-87224213D01*
X134689387Y-87269600D01*
X134706000Y-87331600D01*
X134706000Y-92540433D01*
X134696561Y-92587886D01*
X134669681Y-92628114D01*
X134028993Y-93268800D01*
X134020644Y-93276398D01*
X134014182Y-93280500D01*
X134008841Y-93286186D01*
X134008839Y-93286189D01*
X133967539Y-93330168D01*
X133964834Y-93332960D01*
X133945065Y-93352730D01*
X133942681Y-93355802D01*
X133942678Y-93355806D01*
X133942522Y-93356008D01*
X133934952Y-93364870D01*
X133904614Y-93397179D01*
X133900859Y-93404007D01*
X133900858Y-93404010D01*
X133894779Y-93415067D01*
X133884103Y-93431319D01*
X133876368Y-93441291D01*
X133876360Y-93441302D01*
X133871586Y-93447459D01*
X133868491Y-93454610D01*
X133868488Y-93454616D01*
X133853986Y-93488128D01*
X133848848Y-93498615D01*
X133831265Y-93530598D01*
X133831261Y-93530606D01*
X133827505Y-93537440D01*
X133825566Y-93544991D01*
X133825563Y-93544999D01*
X133822425Y-93557222D01*
X133816126Y-93575619D01*
X133808019Y-93594355D01*
X133806799Y-93602053D01*
X133806798Y-93602059D01*
X133801088Y-93638111D01*
X133798720Y-93649545D01*
X133789638Y-93684917D01*
X133789636Y-93684926D01*
X133787700Y-93692470D01*
X133787700Y-93700266D01*
X133787700Y-93712885D01*
X133786172Y-93732283D01*
X133782980Y-93752443D01*
X133783714Y-93760208D01*
X133783714Y-93760211D01*
X133787150Y-93796558D01*
X133787700Y-93808227D01*
X133787700Y-95918354D01*
X133787168Y-95929637D01*
X133785498Y-95937109D01*
X133785743Y-95944905D01*
X133785743Y-95944907D01*
X133787639Y-96005217D01*
X133787700Y-96009113D01*
X133787700Y-96037056D01*
X133788188Y-96040921D01*
X133788189Y-96040932D01*
X133788219Y-96041170D01*
X133789134Y-96052796D01*
X133790281Y-96089296D01*
X133790282Y-96089303D01*
X133790527Y-96097089D01*
X133792700Y-96104570D01*
X133792702Y-96104580D01*
X133796222Y-96116695D01*
X133800167Y-96135742D01*
X133802726Y-96155997D01*
X133805595Y-96163245D01*
X133805598Y-96163254D01*
X133819038Y-96197201D01*
X133822821Y-96208248D01*
X133824227Y-96213087D01*
X133835182Y-96250793D01*
X133839153Y-96257508D01*
X133839154Y-96257510D01*
X133845575Y-96268368D01*
X133854130Y-96285831D01*
X133856062Y-96290710D01*
X133861648Y-96304817D01*
X133866230Y-96311124D01*
X133866231Y-96311125D01*
X133887691Y-96340662D01*
X133894105Y-96350427D01*
X133894332Y-96350810D01*
X133916658Y-96388562D01*
X133922175Y-96394079D01*
X133922176Y-96394080D01*
X133931089Y-96402993D01*
X133943725Y-96417788D01*
X133951138Y-96427991D01*
X133951143Y-96427996D01*
X133955728Y-96434307D01*
X133984085Y-96457766D01*
X133989867Y-96462549D01*
X133998508Y-96470412D01*
X136485527Y-98957431D01*
X136515552Y-99006108D01*
X136520537Y-99063083D01*
X136499421Y-99116235D01*
X136385587Y-99278807D01*
X136385578Y-99278821D01*
X136382477Y-99283251D01*
X136380188Y-99288159D01*
X136380185Y-99288165D01*
X136288002Y-99485853D01*
X136288000Y-99485859D01*
X136285716Y-99490757D01*
X136284319Y-99495967D01*
X136284316Y-99495978D01*
X136227858Y-99706680D01*
X136227855Y-99706692D01*
X136226457Y-99711913D01*
X136225985Y-99717302D01*
X136225984Y-99717311D01*
X136216764Y-99822699D01*
X136206502Y-99940000D01*
X136206974Y-99945395D01*
X136225984Y-100162688D01*
X136225985Y-100162695D01*
X136226457Y-100168087D01*
X136227856Y-100173308D01*
X136227858Y-100173319D01*
X136284316Y-100384021D01*
X136284318Y-100384028D01*
X136285716Y-100389243D01*
X136288000Y-100394143D01*
X136288002Y-100394146D01*
X136355159Y-100538165D01*
X136382477Y-100596749D01*
X136408291Y-100633615D01*
X136510696Y-100779865D01*
X136510699Y-100779869D01*
X136513802Y-100784300D01*
X136675700Y-100946198D01*
X136680132Y-100949301D01*
X136680134Y-100949303D01*
X136698143Y-100961913D01*
X136863251Y-101077523D01*
X136906346Y-101097618D01*
X136958521Y-101143375D01*
X136977941Y-101210000D01*
X136958521Y-101276625D01*
X136906346Y-101322381D01*
X136891863Y-101329135D01*
X136868161Y-101340187D01*
X136868156Y-101340189D01*
X136863251Y-101342477D01*
X136858817Y-101345581D01*
X136858813Y-101345584D01*
X136680134Y-101470696D01*
X136680124Y-101470703D01*
X136675700Y-101473802D01*
X136671874Y-101477627D01*
X136671874Y-101477628D01*
X136567734Y-101581768D01*
X136512146Y-101613861D01*
X136447959Y-101613861D01*
X136392372Y-101581767D01*
X135948556Y-101137951D01*
X135919714Y-101092678D01*
X135912709Y-101039457D01*
X135927262Y-100993310D01*
X135926835Y-100993120D01*
X135928504Y-100989370D01*
X135928852Y-100988266D01*
X135932727Y-100981556D01*
X135991742Y-100799928D01*
X136011704Y-100610000D01*
X135998041Y-100480006D01*
X135992421Y-100426532D01*
X135992420Y-100426531D01*
X135991742Y-100420072D01*
X135932727Y-100238444D01*
X135837240Y-100073056D01*
X135709453Y-99931134D01*
X135704203Y-99927319D01*
X135704199Y-99927316D01*
X135560206Y-99822699D01*
X135560204Y-99822697D01*
X135554952Y-99818882D01*
X135549021Y-99816241D01*
X135549017Y-99816239D01*
X135386426Y-99743849D01*
X135386419Y-99743846D01*
X135380488Y-99741206D01*
X135374135Y-99739855D01*
X135374127Y-99739853D01*
X135200049Y-99702852D01*
X135200046Y-99702851D01*
X135193687Y-99701500D01*
X135187184Y-99701500D01*
X135136966Y-99701500D01*
X135089513Y-99692061D01*
X135049285Y-99665181D01*
X134352329Y-98968225D01*
X133636397Y-98252292D01*
X133628800Y-98243944D01*
X133624700Y-98237482D01*
X133619014Y-98232142D01*
X133619012Y-98232140D01*
X133575031Y-98190840D01*
X133572234Y-98188129D01*
X133555227Y-98171122D01*
X133552470Y-98168365D01*
X133549186Y-98165817D01*
X133540324Y-98158246D01*
X133513709Y-98133254D01*
X133513703Y-98133249D01*
X133508021Y-98127914D01*
X133501188Y-98124158D01*
X133501182Y-98124153D01*
X133490129Y-98118076D01*
X133473874Y-98107399D01*
X133463909Y-98099670D01*
X133463906Y-98099668D01*
X133457741Y-98094886D01*
X133417076Y-98077289D01*
X133406584Y-98072149D01*
X133374596Y-98054563D01*
X133374594Y-98054562D01*
X133367760Y-98050805D01*
X133347984Y-98045727D01*
X133329581Y-98039426D01*
X133318009Y-98034418D01*
X133318001Y-98034415D01*
X133310845Y-98031319D01*
X133303140Y-98030098D01*
X133303138Y-98030098D01*
X133267081Y-98024387D01*
X133255655Y-98022021D01*
X133212730Y-98011000D01*
X133204928Y-98011000D01*
X133192315Y-98011000D01*
X133172917Y-98009473D01*
X133160466Y-98007501D01*
X133152757Y-98006280D01*
X133144991Y-98007014D01*
X133144988Y-98007014D01*
X133108642Y-98010450D01*
X133096973Y-98011000D01*
X131324000Y-98011000D01*
X131262000Y-97994387D01*
X131216613Y-97949000D01*
X131200000Y-97887000D01*
X131200000Y-97666326D01*
X131196549Y-97653450D01*
X131183674Y-97650000D01*
X129774000Y-97650000D01*
X129712000Y-97633387D01*
X129666613Y-97588000D01*
X129650000Y-97526000D01*
X129650000Y-97133674D01*
X130150000Y-97133674D01*
X130153450Y-97146549D01*
X130166326Y-97150000D01*
X131183674Y-97150000D01*
X131196549Y-97146549D01*
X131200000Y-97133674D01*
X131200000Y-96555482D01*
X131199646Y-96548885D01*
X131194426Y-96500332D01*
X131190888Y-96485358D01*
X131146452Y-96366222D01*
X131138037Y-96350810D01*
X131062501Y-96249907D01*
X131050092Y-96237498D01*
X130949189Y-96161962D01*
X130933777Y-96153547D01*
X130814641Y-96109111D01*
X130799667Y-96105573D01*
X130751114Y-96100353D01*
X130744518Y-96100000D01*
X130166326Y-96100000D01*
X130153450Y-96103450D01*
X130150000Y-96116326D01*
X130150000Y-97133674D01*
X129650000Y-97133674D01*
X129650000Y-96116326D01*
X129646549Y-96103450D01*
X129633674Y-96100000D01*
X129055482Y-96100000D01*
X129048885Y-96100353D01*
X129000332Y-96105573D01*
X128985358Y-96109111D01*
X128866222Y-96153547D01*
X128850810Y-96161962D01*
X128749907Y-96237498D01*
X128737498Y-96249907D01*
X128661962Y-96350810D01*
X128653547Y-96366222D01*
X128609111Y-96485358D01*
X128605573Y-96500332D01*
X128600353Y-96548885D01*
X128600000Y-96555482D01*
X128600000Y-97065133D01*
X128586485Y-97121428D01*
X128548885Y-97165451D01*
X128495398Y-97187606D01*
X128437682Y-97183064D01*
X128388319Y-97152814D01*
X125780073Y-94544568D01*
X125750048Y-94495890D01*
X125745063Y-94438915D01*
X125766180Y-94385763D01*
X125874411Y-94231194D01*
X125874413Y-94231190D01*
X125877523Y-94226749D01*
X125974284Y-94019243D01*
X126033543Y-93798087D01*
X126053498Y-93570000D01*
X126033543Y-93341913D01*
X125974284Y-93120757D01*
X125877523Y-92913251D01*
X125774769Y-92766504D01*
X125749303Y-92730134D01*
X125749301Y-92730132D01*
X125746198Y-92725700D01*
X125584300Y-92563802D01*
X125579869Y-92560699D01*
X125579865Y-92560696D01*
X125401186Y-92435584D01*
X125401187Y-92435584D01*
X125396749Y-92432477D01*
X125353650Y-92412380D01*
X125301478Y-92366626D01*
X125282058Y-92300000D01*
X125301478Y-92233374D01*
X125353650Y-92187619D01*
X125396749Y-92167523D01*
X125584300Y-92036198D01*
X125746198Y-91874300D01*
X125877523Y-91686749D01*
X125974284Y-91479243D01*
X126033543Y-91258087D01*
X126053498Y-91030000D01*
X126033543Y-90801913D01*
X126017637Y-90742551D01*
X128474452Y-90742551D01*
X128474820Y-90753780D01*
X128522330Y-90931092D01*
X128526022Y-90941234D01*
X128617579Y-91137580D01*
X128622967Y-91146912D01*
X128747232Y-91324381D01*
X128754169Y-91332647D01*
X128907352Y-91485830D01*
X128915618Y-91492767D01*
X129093087Y-91617032D01*
X129102419Y-91622420D01*
X129298765Y-91713977D01*
X129308907Y-91717669D01*
X129486219Y-91765179D01*
X129497448Y-91765547D01*
X129500000Y-91754605D01*
X130000000Y-91754605D01*
X130002551Y-91765547D01*
X130013780Y-91765179D01*
X130191092Y-91717669D01*
X130201234Y-91713977D01*
X130397580Y-91622420D01*
X130406912Y-91617032D01*
X130584381Y-91492767D01*
X130592647Y-91485830D01*
X130745830Y-91332647D01*
X130752767Y-91324381D01*
X130877032Y-91146912D01*
X130882420Y-91137580D01*
X130973977Y-90941234D01*
X130977669Y-90931092D01*
X131025179Y-90753780D01*
X131025547Y-90742551D01*
X131014605Y-90740000D01*
X130016326Y-90740000D01*
X130003450Y-90743450D01*
X130000000Y-90756326D01*
X130000000Y-91754605D01*
X129500000Y-91754605D01*
X129500000Y-90756326D01*
X129496549Y-90743450D01*
X129483674Y-90740000D01*
X128485395Y-90740000D01*
X128474452Y-90742551D01*
X126017637Y-90742551D01*
X125974284Y-90580757D01*
X125877523Y-90373251D01*
X125784219Y-90240000D01*
X125749303Y-90190134D01*
X125749301Y-90190132D01*
X125746198Y-90185700D01*
X125584300Y-90023802D01*
X125579869Y-90020699D01*
X125579865Y-90020696D01*
X125401346Y-89895696D01*
X125396749Y-89892477D01*
X125353650Y-89872380D01*
X125301478Y-89826626D01*
X125282058Y-89760000D01*
X125301478Y-89693374D01*
X125353650Y-89647619D01*
X125396749Y-89627523D01*
X125584300Y-89496198D01*
X125746198Y-89334300D01*
X125877523Y-89146749D01*
X125974284Y-88939243D01*
X126033543Y-88718087D01*
X126053498Y-88490000D01*
X126033543Y-88261913D01*
X126031796Y-88255395D01*
X125975683Y-88045978D01*
X125975682Y-88045977D01*
X125974284Y-88040757D01*
X125877523Y-87833251D01*
X125786889Y-87703813D01*
X125749303Y-87650134D01*
X125749301Y-87650132D01*
X125746198Y-87645700D01*
X125736182Y-87635684D01*
X125704088Y-87580097D01*
X125704088Y-87515909D01*
X125736182Y-87460322D01*
X126533142Y-86663362D01*
X127362917Y-85833586D01*
X127371252Y-85826002D01*
X127377718Y-85821900D01*
X127424391Y-85772195D01*
X127427009Y-85769494D01*
X127446835Y-85749670D01*
X127449360Y-85746413D01*
X127456951Y-85737524D01*
X127487286Y-85705221D01*
X127497123Y-85687325D01*
X127507796Y-85671077D01*
X127520314Y-85654941D01*
X127537915Y-85614264D01*
X127543050Y-85603784D01*
X127560635Y-85571799D01*
X127560634Y-85571799D01*
X127564395Y-85564960D01*
X127569474Y-85545173D01*
X127575770Y-85526785D01*
X127583881Y-85508045D01*
X127590812Y-85464276D01*
X127593182Y-85452839D01*
X127599769Y-85427185D01*
X127604200Y-85409930D01*
X127604200Y-85389515D01*
X127605727Y-85370117D01*
X127606872Y-85362886D01*
X127608920Y-85349957D01*
X127604750Y-85305842D01*
X127604200Y-85294173D01*
X127604200Y-81777566D01*
X127613639Y-81730113D01*
X127640519Y-81689885D01*
X127831851Y-81498553D01*
X128408167Y-80922237D01*
X128458554Y-80891661D01*
X128517374Y-80887806D01*
X128571328Y-80911546D01*
X128608224Y-80957517D01*
X128617579Y-80977579D01*
X128622967Y-80986912D01*
X128747232Y-81164381D01*
X128754169Y-81172647D01*
X128907352Y-81325830D01*
X128915618Y-81332767D01*
X129093087Y-81457032D01*
X129102419Y-81462420D01*
X129146401Y-81482929D01*
X129198576Y-81528686D01*
X129217996Y-81595311D01*
X129198577Y-81661936D01*
X129146401Y-81707693D01*
X129098161Y-81730187D01*
X129098156Y-81730189D01*
X129093251Y-81732477D01*
X129088817Y-81735581D01*
X129088813Y-81735584D01*
X128910134Y-81860696D01*
X128910124Y-81860703D01*
X128905700Y-81863802D01*
X128901874Y-81867627D01*
X128901868Y-81867633D01*
X128747633Y-82021868D01*
X128747627Y-82021874D01*
X128743802Y-82025700D01*
X128740703Y-82030124D01*
X128740696Y-82030134D01*
X128615584Y-82208813D01*
X128615581Y-82208817D01*
X128612477Y-82213251D01*
X128610188Y-82218159D01*
X128610185Y-82218165D01*
X128518002Y-82415853D01*
X128517999Y-82415860D01*
X128515716Y-82420757D01*
X128514319Y-82425967D01*
X128514316Y-82425978D01*
X128457858Y-82636680D01*
X128457855Y-82636692D01*
X128456457Y-82641913D01*
X128455985Y-82647302D01*
X128455984Y-82647311D01*
X128447104Y-82748813D01*
X128436502Y-82870000D01*
X128436974Y-82875395D01*
X128455984Y-83092688D01*
X128455985Y-83092695D01*
X128456457Y-83098087D01*
X128457856Y-83103308D01*
X128457858Y-83103319D01*
X128514316Y-83314021D01*
X128514318Y-83314028D01*
X128515716Y-83319243D01*
X128518000Y-83324143D01*
X128518002Y-83324146D01*
X128610185Y-83521834D01*
X128612477Y-83526749D01*
X128617647Y-83534132D01*
X128740696Y-83709865D01*
X128740699Y-83709869D01*
X128743802Y-83714300D01*
X128905700Y-83876198D01*
X128910133Y-83879302D01*
X128910139Y-83879307D01*
X129068180Y-83989968D01*
X129105193Y-84030859D01*
X129120812Y-84083755D01*
X129122284Y-84107158D01*
X129122285Y-84107163D01*
X129122775Y-84114950D01*
X129125187Y-84122375D01*
X129125188Y-84122377D01*
X129125382Y-84122975D01*
X129130467Y-84145725D01*
X129130546Y-84146354D01*
X129130549Y-84146367D01*
X129131093Y-84150670D01*
X129131094Y-84150689D01*
X129131524Y-84154084D01*
X129131264Y-84154116D01*
X129133416Y-84197628D01*
X129116163Y-84244262D01*
X129081978Y-84280370D01*
X128910134Y-84400696D01*
X128910124Y-84400703D01*
X128905700Y-84403802D01*
X128901874Y-84407627D01*
X128901868Y-84407633D01*
X128747633Y-84561868D01*
X128747627Y-84561874D01*
X128743802Y-84565700D01*
X128740703Y-84570124D01*
X128740696Y-84570134D01*
X128615584Y-84748813D01*
X128615581Y-84748817D01*
X128612477Y-84753251D01*
X128610188Y-84758159D01*
X128610185Y-84758165D01*
X128518002Y-84955853D01*
X128517999Y-84955860D01*
X128515716Y-84960757D01*
X128514319Y-84965967D01*
X128514316Y-84965978D01*
X128457858Y-85176680D01*
X128457855Y-85176692D01*
X128456457Y-85181913D01*
X128455985Y-85187302D01*
X128455984Y-85187311D01*
X128438294Y-85389515D01*
X128436502Y-85410000D01*
X128436974Y-85415395D01*
X128455984Y-85632688D01*
X128455985Y-85632695D01*
X128456457Y-85638087D01*
X128457856Y-85643308D01*
X128457858Y-85643319D01*
X128514316Y-85854021D01*
X128514318Y-85854028D01*
X128515716Y-85859243D01*
X128518000Y-85864143D01*
X128518002Y-85864146D01*
X128594835Y-86028916D01*
X128612477Y-86066749D01*
X128615584Y-86071186D01*
X128740696Y-86249865D01*
X128740699Y-86249869D01*
X128743802Y-86254300D01*
X128905700Y-86416198D01*
X128910132Y-86419301D01*
X128910134Y-86419303D01*
X128972747Y-86463145D01*
X129093251Y-86547523D01*
X129136346Y-86567618D01*
X129188521Y-86613375D01*
X129207941Y-86680000D01*
X129188521Y-86746625D01*
X129136346Y-86792381D01*
X129118348Y-86800773D01*
X129098161Y-86810187D01*
X129098156Y-86810189D01*
X129093251Y-86812477D01*
X129088817Y-86815581D01*
X129088813Y-86815584D01*
X128910134Y-86940696D01*
X128910124Y-86940703D01*
X128905700Y-86943802D01*
X128901874Y-86947627D01*
X128901868Y-86947633D01*
X128747633Y-87101868D01*
X128747627Y-87101874D01*
X128743802Y-87105700D01*
X128740703Y-87110124D01*
X128740696Y-87110134D01*
X128615584Y-87288813D01*
X128615581Y-87288817D01*
X128612477Y-87293251D01*
X128610188Y-87298159D01*
X128610185Y-87298165D01*
X128518002Y-87495853D01*
X128517999Y-87495860D01*
X128515716Y-87500757D01*
X128514319Y-87505967D01*
X128514316Y-87505978D01*
X128457858Y-87716680D01*
X128457855Y-87716692D01*
X128456457Y-87721913D01*
X128455985Y-87727302D01*
X128455984Y-87727311D01*
X128441445Y-87893498D01*
X128436502Y-87950000D01*
X128436974Y-87955395D01*
X128455984Y-88172688D01*
X128455985Y-88172695D01*
X128456457Y-88178087D01*
X128457856Y-88183308D01*
X128457858Y-88183319D01*
X128514316Y-88394021D01*
X128514318Y-88394028D01*
X128515716Y-88399243D01*
X128518000Y-88404143D01*
X128518002Y-88404146D01*
X128598876Y-88577582D01*
X128612477Y-88606749D01*
X128615584Y-88611186D01*
X128740696Y-88789865D01*
X128740699Y-88789869D01*
X128743802Y-88794300D01*
X128905700Y-88956198D01*
X128910132Y-88959301D01*
X128910134Y-88959303D01*
X128966113Y-88998500D01*
X129093251Y-89087523D01*
X129146401Y-89112307D01*
X129198576Y-89158061D01*
X129217996Y-89224686D01*
X129198578Y-89291311D01*
X129146403Y-89337069D01*
X129102421Y-89357578D01*
X129093087Y-89362967D01*
X128915618Y-89487232D01*
X128907352Y-89494169D01*
X128754169Y-89647352D01*
X128747232Y-89655618D01*
X128622967Y-89833087D01*
X128617579Y-89842419D01*
X128526022Y-90038765D01*
X128522330Y-90048907D01*
X128474820Y-90226219D01*
X128474452Y-90237448D01*
X128485395Y-90240000D01*
X131014605Y-90240000D01*
X131025547Y-90237448D01*
X131025179Y-90226219D01*
X130977669Y-90048907D01*
X130973977Y-90038765D01*
X130882420Y-89842419D01*
X130877032Y-89833087D01*
X130752767Y-89655618D01*
X130745830Y-89647352D01*
X130592647Y-89494169D01*
X130584381Y-89487232D01*
X130406912Y-89362967D01*
X130397583Y-89357581D01*
X130353597Y-89337070D01*
X130301422Y-89291312D01*
X130282003Y-89224686D01*
X130301424Y-89158061D01*
X130353598Y-89112307D01*
X130406749Y-89087523D01*
X130594300Y-88956198D01*
X130756198Y-88794300D01*
X130887523Y-88606749D01*
X130984284Y-88399243D01*
X131043543Y-88178087D01*
X131063498Y-87950000D01*
X131043543Y-87721913D01*
X131021509Y-87639683D01*
X130985683Y-87505978D01*
X130985682Y-87505977D01*
X130984284Y-87500757D01*
X130887523Y-87293251D01*
X130799747Y-87167894D01*
X130759303Y-87110134D01*
X130759301Y-87110132D01*
X130756198Y-87105700D01*
X130594300Y-86943802D01*
X130589869Y-86940699D01*
X130589865Y-86940696D01*
X130411186Y-86815584D01*
X130411187Y-86815584D01*
X130406749Y-86812477D01*
X130363650Y-86792380D01*
X130311478Y-86746626D01*
X130292058Y-86680000D01*
X130311478Y-86613374D01*
X130363650Y-86567619D01*
X130406749Y-86547523D01*
X130594300Y-86416198D01*
X130756198Y-86254300D01*
X130887523Y-86066749D01*
X130914231Y-86009471D01*
X130951125Y-85963503D01*
X131005079Y-85939762D01*
X131063899Y-85943617D01*
X131114293Y-85974197D01*
X131631755Y-86491659D01*
X131664648Y-86550393D01*
X131662005Y-86617658D01*
X131615465Y-86760892D01*
X131615463Y-86760901D01*
X131613458Y-86767072D01*
X131612780Y-86773522D01*
X131612778Y-86773532D01*
X131603218Y-86864496D01*
X131593496Y-86957000D01*
X131594175Y-86963460D01*
X131612778Y-87140467D01*
X131612779Y-87140475D01*
X131613458Y-87146928D01*
X131615463Y-87153100D01*
X131615465Y-87153107D01*
X131662598Y-87298165D01*
X131672473Y-87328556D01*
X131675720Y-87334180D01*
X131675721Y-87334182D01*
X131716503Y-87404819D01*
X131767960Y-87493944D01*
X131895747Y-87635866D01*
X131900997Y-87639680D01*
X131901000Y-87639683D01*
X132003860Y-87714415D01*
X132050248Y-87748118D01*
X132056181Y-87750759D01*
X132056182Y-87750760D01*
X132186771Y-87808902D01*
X132224712Y-87825794D01*
X132231070Y-87827145D01*
X132231072Y-87827146D01*
X132238915Y-87828813D01*
X132411513Y-87865500D01*
X132595984Y-87865500D01*
X132602487Y-87865500D01*
X132789288Y-87825794D01*
X132963752Y-87748118D01*
X133118253Y-87635866D01*
X133246040Y-87493944D01*
X133341527Y-87328556D01*
X133400542Y-87146928D01*
X133420504Y-86957000D01*
X133410522Y-86862035D01*
X133401221Y-86773532D01*
X133401220Y-86773531D01*
X133400542Y-86767072D01*
X133341527Y-86585444D01*
X133246040Y-86420056D01*
X133148947Y-86312224D01*
X133126048Y-86286791D01*
X133099122Y-86238416D01*
X133093019Y-86217407D01*
X133082620Y-86199823D01*
X133074065Y-86182359D01*
X133069425Y-86170640D01*
X133066552Y-86163383D01*
X133040512Y-86127542D01*
X133034098Y-86117778D01*
X133029008Y-86109172D01*
X133011542Y-86079638D01*
X132997106Y-86065202D01*
X132984470Y-86050407D01*
X132972472Y-86033893D01*
X132966460Y-86028920D01*
X132966457Y-86028916D01*
X132938325Y-86005643D01*
X132929685Y-85997781D01*
X130784472Y-83852567D01*
X130754447Y-83803889D01*
X130749462Y-83746914D01*
X130770579Y-83693762D01*
X130884411Y-83531194D01*
X130884416Y-83531186D01*
X130887523Y-83526749D01*
X130984284Y-83319243D01*
X131043543Y-83098087D01*
X131063498Y-82870000D01*
X131043543Y-82641913D01*
X130984284Y-82420757D01*
X130887523Y-82213251D01*
X130792703Y-82077835D01*
X130759303Y-82030134D01*
X130759301Y-82030132D01*
X130756198Y-82025700D01*
X130594300Y-81863802D01*
X130589869Y-81860699D01*
X130589865Y-81860696D01*
X130411186Y-81735584D01*
X130411187Y-81735584D01*
X130406749Y-81732477D01*
X130401679Y-81730113D01*
X130353599Y-81707693D01*
X130301423Y-81661936D01*
X130282003Y-81595311D01*
X130301423Y-81528685D01*
X130353599Y-81482928D01*
X130397585Y-81462417D01*
X130406912Y-81457032D01*
X130584381Y-81332767D01*
X130592647Y-81325830D01*
X130745830Y-81172647D01*
X130752767Y-81164381D01*
X130877032Y-80986912D01*
X130882420Y-80977580D01*
X130973977Y-80781234D01*
X130977669Y-80771092D01*
X131025179Y-80593780D01*
X131025547Y-80582551D01*
X131014605Y-80580000D01*
X129624000Y-80580000D01*
X129562000Y-80563387D01*
X129516613Y-80518000D01*
X129500000Y-80456000D01*
X129500000Y-80204000D01*
X129516613Y-80142000D01*
X129562000Y-80096613D01*
X129624000Y-80080000D01*
X131014605Y-80080000D01*
X131025547Y-80077448D01*
X131025179Y-80066219D01*
X130977669Y-79888907D01*
X130973977Y-79878765D01*
X130882420Y-79682419D01*
X130877032Y-79673087D01*
X130752767Y-79495618D01*
X130745830Y-79487352D01*
X130592647Y-79334169D01*
X130584381Y-79327232D01*
X130413637Y-79207676D01*
X130380844Y-79173757D01*
X130363095Y-79130044D01*
X130362957Y-79082872D01*
X130367823Y-79057358D01*
X130369509Y-79049815D01*
X130383500Y-78995330D01*
X130383500Y-78991694D01*
X130399518Y-78945566D01*
X130434572Y-78908041D01*
X130589860Y-78799307D01*
X130589860Y-78799306D01*
X130594300Y-78796198D01*
X130756198Y-78634300D01*
X130887523Y-78446749D01*
X130914231Y-78389471D01*
X130951125Y-78343503D01*
X131005079Y-78319762D01*
X131063899Y-78323617D01*
G37*
G04 #@! TD.AperFunction*
G04 #@! TA.AperFunction,Conductor*
G36*
X137558000Y-80096613D02*
G01*
X137603387Y-80142000D01*
X137620000Y-80204000D01*
X137620000Y-82996000D01*
X137603387Y-83058000D01*
X137558000Y-83103387D01*
X137496000Y-83120000D01*
X137244000Y-83120000D01*
X137182000Y-83103387D01*
X137136613Y-83058000D01*
X137120000Y-82996000D01*
X137120000Y-80204000D01*
X137136613Y-80142000D01*
X137182000Y-80096613D01*
X137244000Y-80080000D01*
X137496000Y-80080000D01*
X137558000Y-80096613D01*
G37*
G04 #@! TD.AperFunction*
G04 #@! TA.AperFunction,Conductor*
G36*
X140523885Y-73392648D02*
G01*
X140561485Y-73436671D01*
X140575000Y-73492966D01*
X140575000Y-73969518D01*
X140575353Y-73976114D01*
X140580573Y-74024667D01*
X140584111Y-74039641D01*
X140628547Y-74158777D01*
X140636962Y-74174189D01*
X140712498Y-74275092D01*
X140724907Y-74287501D01*
X140825810Y-74363037D01*
X140841222Y-74371452D01*
X140960358Y-74415888D01*
X140975334Y-74419427D01*
X140991123Y-74421124D01*
X141047045Y-74441501D01*
X141087031Y-74485588D01*
X141101867Y-74543228D01*
X141088136Y-74601142D01*
X141049001Y-74645985D01*
X141035145Y-74655687D01*
X141035126Y-74655702D01*
X141030700Y-74658802D01*
X141026874Y-74662627D01*
X141026868Y-74662633D01*
X140872633Y-74816868D01*
X140872627Y-74816874D01*
X140868802Y-74820700D01*
X140865703Y-74825124D01*
X140865696Y-74825134D01*
X140740584Y-75003813D01*
X140740581Y-75003817D01*
X140737477Y-75008251D01*
X140735188Y-75013159D01*
X140735185Y-75013165D01*
X140643002Y-75210853D01*
X140642999Y-75210860D01*
X140640716Y-75215757D01*
X140639319Y-75220967D01*
X140639316Y-75220978D01*
X140582858Y-75431680D01*
X140582855Y-75431692D01*
X140581457Y-75436913D01*
X140580985Y-75442302D01*
X140580984Y-75442311D01*
X140566035Y-75613185D01*
X140561502Y-75665000D01*
X140561974Y-75670395D01*
X140580984Y-75887688D01*
X140580985Y-75887695D01*
X140581457Y-75893087D01*
X140582856Y-75898308D01*
X140582858Y-75898319D01*
X140639316Y-76109021D01*
X140639318Y-76109028D01*
X140640716Y-76114243D01*
X140642998Y-76119136D01*
X140643002Y-76119146D01*
X140734105Y-76314518D01*
X140737477Y-76321749D01*
X140752708Y-76343501D01*
X140865696Y-76504865D01*
X140865699Y-76504869D01*
X140868802Y-76509300D01*
X140872633Y-76513131D01*
X140882667Y-76523165D01*
X140914761Y-76578752D01*
X140914761Y-76642940D01*
X140882667Y-76698527D01*
X138307116Y-79274077D01*
X138258439Y-79304102D01*
X138201464Y-79309087D01*
X138148312Y-79287971D01*
X138026918Y-79202971D01*
X138017583Y-79197581D01*
X137973597Y-79177070D01*
X137921422Y-79131312D01*
X137902003Y-79064686D01*
X137921424Y-78998061D01*
X137973598Y-78952307D01*
X138026749Y-78927523D01*
X138214300Y-78796198D01*
X138376198Y-78634300D01*
X138507523Y-78446749D01*
X138604284Y-78239243D01*
X138663543Y-78018087D01*
X138683498Y-77790000D01*
X138663543Y-77561913D01*
X138657146Y-77538041D01*
X138605683Y-77345978D01*
X138605682Y-77345977D01*
X138604284Y-77340757D01*
X138507523Y-77133251D01*
X138418889Y-77006669D01*
X138379303Y-76950134D01*
X138379301Y-76950132D01*
X138376198Y-76945700D01*
X138214300Y-76783802D01*
X138209867Y-76780698D01*
X138209860Y-76780692D01*
X138035384Y-76658523D01*
X138002590Y-76624604D01*
X137984841Y-76580891D01*
X137984703Y-76533719D01*
X137987825Y-76517351D01*
X137989509Y-76509815D01*
X138003500Y-76455330D01*
X138003500Y-76451694D01*
X138019518Y-76405566D01*
X138054572Y-76368041D01*
X138209860Y-76259307D01*
X138209860Y-76259306D01*
X138214300Y-76256198D01*
X138376198Y-76094300D01*
X138507523Y-75906749D01*
X138604284Y-75699243D01*
X138663543Y-75478087D01*
X138683498Y-75250000D01*
X138663543Y-75021913D01*
X138604775Y-74802593D01*
X138602934Y-74746309D01*
X138626175Y-74695014D01*
X138669707Y-74659288D01*
X138724551Y-74646500D01*
X138780854Y-74646500D01*
X138792137Y-74647031D01*
X138799609Y-74648702D01*
X138867717Y-74646560D01*
X138871613Y-74646500D01*
X138895658Y-74646500D01*
X138899556Y-74646500D01*
X138903424Y-74646011D01*
X138903647Y-74645983D01*
X138915308Y-74645064D01*
X138959589Y-74643673D01*
X138979190Y-74637977D01*
X138998241Y-74634032D01*
X139018497Y-74631474D01*
X139052217Y-74618123D01*
X139059693Y-74615163D01*
X139070743Y-74611379D01*
X139113293Y-74599018D01*
X139130865Y-74588625D01*
X139148332Y-74580068D01*
X139167317Y-74572552D01*
X139203175Y-74546498D01*
X139212923Y-74540096D01*
X139251062Y-74517542D01*
X139265493Y-74503110D01*
X139280288Y-74490472D01*
X139296807Y-74478472D01*
X139325060Y-74444318D01*
X139332903Y-74435699D01*
X140101207Y-73667396D01*
X140363319Y-73405285D01*
X140412682Y-73375035D01*
X140470398Y-73370493D01*
X140523885Y-73392648D01*
G37*
G04 #@! TD.AperFunction*
G04 #@! TA.AperFunction,Conductor*
G36*
X155785389Y-72645888D02*
G01*
X155828921Y-72681613D01*
X155852162Y-72732909D01*
X155850320Y-72789193D01*
X155822859Y-72891677D01*
X155822857Y-72891687D01*
X155821457Y-72896913D01*
X155820985Y-72902304D01*
X155820984Y-72902312D01*
X155817608Y-72940907D01*
X155797680Y-72998239D01*
X155752930Y-73039245D01*
X155694080Y-73054100D01*
X147499046Y-73054100D01*
X147487762Y-73053568D01*
X147480291Y-73051898D01*
X147472493Y-73052143D01*
X147412183Y-73054039D01*
X147408287Y-73054100D01*
X147380344Y-73054100D01*
X147376477Y-73054588D01*
X147376468Y-73054589D01*
X147376232Y-73054619D01*
X147364606Y-73055534D01*
X147328103Y-73056681D01*
X147328095Y-73056682D01*
X147320310Y-73056927D01*
X147312828Y-73059100D01*
X147312819Y-73059102D01*
X147300705Y-73062622D01*
X147281657Y-73066567D01*
X147269143Y-73068148D01*
X147269142Y-73068148D01*
X147261403Y-73069126D01*
X147254152Y-73071996D01*
X147254147Y-73071998D01*
X147220197Y-73085439D01*
X147209152Y-73089220D01*
X147174102Y-73099403D01*
X147174091Y-73099407D01*
X147166607Y-73101582D01*
X147159894Y-73105551D01*
X147159891Y-73105553D01*
X147149034Y-73111974D01*
X147131570Y-73120529D01*
X147119836Y-73125175D01*
X147119829Y-73125178D01*
X147112583Y-73128048D01*
X147106279Y-73132627D01*
X147106268Y-73132634D01*
X147076734Y-73154091D01*
X147066976Y-73160501D01*
X147035555Y-73179083D01*
X147035541Y-73179093D01*
X147028838Y-73183058D01*
X147023322Y-73188573D01*
X147023319Y-73188576D01*
X147014397Y-73197497D01*
X146999614Y-73210123D01*
X146989406Y-73217540D01*
X146989400Y-73217544D01*
X146983093Y-73222128D01*
X146978126Y-73228130D01*
X146978115Y-73228142D01*
X146954843Y-73256273D01*
X146946983Y-73264911D01*
X143946714Y-76265181D01*
X143906486Y-76292061D01*
X143859033Y-76301500D01*
X143216605Y-76301500D01*
X143156962Y-76286214D01*
X143112024Y-76244125D01*
X143092870Y-76185609D01*
X143104222Y-76125098D01*
X143109284Y-76114243D01*
X143168543Y-75893087D01*
X143188498Y-75665000D01*
X143168543Y-75436913D01*
X143109284Y-75215757D01*
X143012523Y-75008251D01*
X142908996Y-74860399D01*
X142884303Y-74825134D01*
X142884301Y-74825132D01*
X142881198Y-74820700D01*
X142719300Y-74658802D01*
X142714867Y-74655698D01*
X142714860Y-74655692D01*
X142701000Y-74645987D01*
X142661864Y-74601144D01*
X142648132Y-74543230D01*
X142662968Y-74485589D01*
X142702953Y-74441501D01*
X142758876Y-74421124D01*
X142774665Y-74419427D01*
X142789641Y-74415888D01*
X142908777Y-74371452D01*
X142924189Y-74363037D01*
X143025092Y-74287501D01*
X143037501Y-74275092D01*
X143113037Y-74174189D01*
X143121452Y-74158777D01*
X143165888Y-74039641D01*
X143169426Y-74024667D01*
X143174646Y-73976114D01*
X143175000Y-73969518D01*
X143175000Y-73391326D01*
X143171549Y-73378450D01*
X143158674Y-73375000D01*
X141749000Y-73375000D01*
X141687000Y-73358387D01*
X141641613Y-73313000D01*
X141625000Y-73251000D01*
X141625000Y-72999000D01*
X141641613Y-72937000D01*
X141687000Y-72891613D01*
X141749000Y-72875000D01*
X143158674Y-72875000D01*
X143171549Y-72871549D01*
X143175000Y-72858674D01*
X143175000Y-72757100D01*
X143191613Y-72695100D01*
X143237000Y-72649713D01*
X143299000Y-72633100D01*
X155730545Y-72633100D01*
X155785389Y-72645888D01*
G37*
G04 #@! TD.AperFunction*
G04 #@! TA.AperFunction,Conductor*
G36*
X175438000Y-68516613D02*
G01*
X175483387Y-68562000D01*
X175500000Y-68624000D01*
X175500000Y-130376000D01*
X175483387Y-130438000D01*
X175438000Y-130483387D01*
X175376000Y-130500000D01*
X106624000Y-130500000D01*
X106562000Y-130483387D01*
X106516613Y-130438000D01*
X106500000Y-130376000D01*
X106500000Y-85942243D01*
X107225380Y-85942243D01*
X107226114Y-85950008D01*
X107226114Y-85950011D01*
X107229550Y-85986358D01*
X107230100Y-85998027D01*
X107230100Y-98575454D01*
X107229568Y-98586737D01*
X107227898Y-98594209D01*
X107228143Y-98602005D01*
X107228143Y-98602007D01*
X107230039Y-98662317D01*
X107230100Y-98666213D01*
X107230100Y-98694156D01*
X107230588Y-98698021D01*
X107230589Y-98698032D01*
X107230619Y-98698270D01*
X107231534Y-98709896D01*
X107232681Y-98746396D01*
X107232682Y-98746403D01*
X107232927Y-98754189D01*
X107235100Y-98761670D01*
X107235102Y-98761680D01*
X107238622Y-98773795D01*
X107242567Y-98792842D01*
X107245126Y-98813097D01*
X107247995Y-98820345D01*
X107247998Y-98820354D01*
X107261438Y-98854301D01*
X107265221Y-98865348D01*
X107277582Y-98907893D01*
X107281553Y-98914608D01*
X107281554Y-98914610D01*
X107287975Y-98925468D01*
X107296530Y-98942931D01*
X107301176Y-98954664D01*
X107304048Y-98961917D01*
X107308630Y-98968224D01*
X107308631Y-98968225D01*
X107330091Y-98997762D01*
X107336505Y-99007527D01*
X107359058Y-99045662D01*
X107364575Y-99051179D01*
X107364576Y-99051180D01*
X107373489Y-99060093D01*
X107386125Y-99074888D01*
X107393538Y-99085091D01*
X107393543Y-99085096D01*
X107398128Y-99091407D01*
X107428140Y-99116235D01*
X107432267Y-99119649D01*
X107440908Y-99127512D01*
X108481002Y-100167607D01*
X108488598Y-100175955D01*
X108492700Y-100182418D01*
X108496862Y-100186326D01*
X108521600Y-100236305D01*
X108521404Y-100293213D01*
X108496159Y-100343342D01*
X108493802Y-100345700D01*
X108490712Y-100350112D01*
X108490706Y-100350120D01*
X108365584Y-100528813D01*
X108365581Y-100528817D01*
X108362477Y-100533251D01*
X108360188Y-100538159D01*
X108360185Y-100538165D01*
X108268002Y-100735853D01*
X108268000Y-100735858D01*
X108265716Y-100740757D01*
X108264319Y-100745967D01*
X108264316Y-100745978D01*
X108207858Y-100956680D01*
X108207855Y-100956692D01*
X108206457Y-100961913D01*
X108205985Y-100967302D01*
X108205984Y-100967311D01*
X108187880Y-101174252D01*
X108186502Y-101190000D01*
X108186974Y-101195395D01*
X108205984Y-101412688D01*
X108205985Y-101412695D01*
X108206457Y-101418087D01*
X108207856Y-101423308D01*
X108207858Y-101423319D01*
X108264316Y-101634021D01*
X108264318Y-101634028D01*
X108265716Y-101639243D01*
X108268000Y-101644143D01*
X108268002Y-101644146D01*
X108301899Y-101716838D01*
X108362477Y-101846749D01*
X108365584Y-101851186D01*
X108490696Y-102029865D01*
X108490699Y-102029869D01*
X108493802Y-102034300D01*
X108655700Y-102196198D01*
X108660132Y-102199301D01*
X108660134Y-102199303D01*
X108698060Y-102225859D01*
X108843251Y-102327523D01*
X108886346Y-102347618D01*
X108938521Y-102393375D01*
X108957941Y-102460000D01*
X108938521Y-102526625D01*
X108886346Y-102572381D01*
X108874104Y-102578090D01*
X108848161Y-102590187D01*
X108848156Y-102590189D01*
X108843251Y-102592477D01*
X108838817Y-102595581D01*
X108838813Y-102595584D01*
X108660134Y-102720696D01*
X108660124Y-102720703D01*
X108655700Y-102723802D01*
X108651874Y-102727627D01*
X108651868Y-102727633D01*
X108497633Y-102881868D01*
X108497627Y-102881874D01*
X108493802Y-102885700D01*
X108490703Y-102890124D01*
X108490696Y-102890134D01*
X108365584Y-103068813D01*
X108365581Y-103068817D01*
X108362477Y-103073251D01*
X108360188Y-103078159D01*
X108360185Y-103078165D01*
X108268002Y-103275853D01*
X108267999Y-103275860D01*
X108265716Y-103280757D01*
X108264319Y-103285967D01*
X108264316Y-103285978D01*
X108207858Y-103496680D01*
X108207855Y-103496692D01*
X108206457Y-103501913D01*
X108205985Y-103507302D01*
X108205984Y-103507311D01*
X108190842Y-103680393D01*
X108186502Y-103730000D01*
X108186974Y-103735395D01*
X108205984Y-103952688D01*
X108205985Y-103952695D01*
X108206457Y-103958087D01*
X108207856Y-103963308D01*
X108207858Y-103963319D01*
X108264316Y-104174021D01*
X108264318Y-104174028D01*
X108265716Y-104179243D01*
X108268000Y-104184143D01*
X108268002Y-104184146D01*
X108301897Y-104256834D01*
X108362477Y-104386749D01*
X108385633Y-104419819D01*
X108490696Y-104569865D01*
X108490699Y-104569869D01*
X108493802Y-104574300D01*
X108655700Y-104736198D01*
X108660132Y-104739301D01*
X108660134Y-104739303D01*
X108685294Y-104756920D01*
X108843251Y-104867523D01*
X108886345Y-104887618D01*
X108938520Y-104933372D01*
X108957941Y-104999997D01*
X108938523Y-105066622D01*
X108886348Y-105112380D01*
X108848162Y-105130186D01*
X108848153Y-105130191D01*
X108843251Y-105132477D01*
X108838817Y-105135581D01*
X108838813Y-105135584D01*
X108660134Y-105260696D01*
X108660124Y-105260703D01*
X108655700Y-105263802D01*
X108651874Y-105267627D01*
X108651868Y-105267633D01*
X108497633Y-105421868D01*
X108497627Y-105421874D01*
X108493802Y-105425700D01*
X108490703Y-105430124D01*
X108490696Y-105430134D01*
X108365584Y-105608813D01*
X108365581Y-105608817D01*
X108362477Y-105613251D01*
X108360188Y-105618159D01*
X108360185Y-105618165D01*
X108268002Y-105815853D01*
X108267999Y-105815860D01*
X108265716Y-105820757D01*
X108264319Y-105825967D01*
X108264316Y-105825978D01*
X108207858Y-106036680D01*
X108207855Y-106036692D01*
X108206457Y-106041913D01*
X108205985Y-106047302D01*
X108205984Y-106047311D01*
X108187877Y-106254284D01*
X108186502Y-106270000D01*
X108186974Y-106275395D01*
X108205984Y-106492688D01*
X108205985Y-106492695D01*
X108206457Y-106498087D01*
X108207856Y-106503308D01*
X108207858Y-106503319D01*
X108264316Y-106714021D01*
X108264318Y-106714028D01*
X108265716Y-106719243D01*
X108268000Y-106724143D01*
X108268002Y-106724146D01*
X108343393Y-106885823D01*
X108362477Y-106926749D01*
X108365584Y-106931186D01*
X108490696Y-107109865D01*
X108490699Y-107109869D01*
X108493802Y-107114300D01*
X108655700Y-107276198D01*
X108660132Y-107279301D01*
X108660134Y-107279303D01*
X108685294Y-107296920D01*
X108843251Y-107407523D01*
X108886346Y-107427618D01*
X108938521Y-107473375D01*
X108957941Y-107540000D01*
X108938521Y-107606625D01*
X108886346Y-107652381D01*
X108870703Y-107659676D01*
X108848161Y-107670187D01*
X108848156Y-107670189D01*
X108843251Y-107672477D01*
X108838817Y-107675581D01*
X108838813Y-107675584D01*
X108660134Y-107800696D01*
X108660124Y-107800703D01*
X108655700Y-107803802D01*
X108651874Y-107807627D01*
X108651868Y-107807633D01*
X108497633Y-107961868D01*
X108497627Y-107961874D01*
X108493802Y-107965700D01*
X108490703Y-107970124D01*
X108490696Y-107970134D01*
X108365584Y-108148813D01*
X108365581Y-108148817D01*
X108362477Y-108153251D01*
X108360188Y-108158159D01*
X108360185Y-108158165D01*
X108268002Y-108355853D01*
X108267999Y-108355860D01*
X108265716Y-108360757D01*
X108264319Y-108365967D01*
X108264316Y-108365978D01*
X108207858Y-108576680D01*
X108207855Y-108576692D01*
X108206457Y-108581913D01*
X108205985Y-108587302D01*
X108205984Y-108587311D01*
X108187877Y-108794284D01*
X108186502Y-108810000D01*
X108186974Y-108815395D01*
X108205984Y-109032688D01*
X108205985Y-109032695D01*
X108206457Y-109038087D01*
X108207856Y-109043308D01*
X108207858Y-109043319D01*
X108264316Y-109254021D01*
X108264318Y-109254028D01*
X108265716Y-109259243D01*
X108268000Y-109264143D01*
X108268002Y-109264146D01*
X108327593Y-109391939D01*
X108362477Y-109466749D01*
X108387921Y-109503087D01*
X108490696Y-109649865D01*
X108490699Y-109649869D01*
X108493802Y-109654300D01*
X108655700Y-109816198D01*
X108660132Y-109819301D01*
X108660134Y-109819303D01*
X108690501Y-109840566D01*
X108843251Y-109947523D01*
X108886346Y-109967618D01*
X108938521Y-110013375D01*
X108957941Y-110080000D01*
X108938521Y-110146625D01*
X108886346Y-110192381D01*
X108868348Y-110200773D01*
X108848161Y-110210187D01*
X108848156Y-110210189D01*
X108843251Y-110212477D01*
X108838817Y-110215581D01*
X108838813Y-110215584D01*
X108660134Y-110340696D01*
X108660124Y-110340703D01*
X108655700Y-110343802D01*
X108651874Y-110347627D01*
X108651868Y-110347633D01*
X108497633Y-110501868D01*
X108497627Y-110501874D01*
X108493802Y-110505700D01*
X108490703Y-110510124D01*
X108490696Y-110510134D01*
X108365584Y-110688813D01*
X108365581Y-110688817D01*
X108362477Y-110693251D01*
X108360188Y-110698159D01*
X108360185Y-110698165D01*
X108268002Y-110895853D01*
X108267999Y-110895860D01*
X108265716Y-110900757D01*
X108264319Y-110905967D01*
X108264316Y-110905978D01*
X108207858Y-111116680D01*
X108207855Y-111116692D01*
X108206457Y-111121913D01*
X108205985Y-111127302D01*
X108205984Y-111127311D01*
X108192011Y-111287032D01*
X108186502Y-111350000D01*
X108186974Y-111355395D01*
X108205984Y-111572688D01*
X108205985Y-111572695D01*
X108206457Y-111578087D01*
X108207856Y-111583308D01*
X108207858Y-111583319D01*
X108264316Y-111794021D01*
X108264318Y-111794028D01*
X108265716Y-111799243D01*
X108268000Y-111804143D01*
X108268002Y-111804146D01*
X108360185Y-112001834D01*
X108362477Y-112006749D01*
X108365584Y-112011186D01*
X108490696Y-112189865D01*
X108490699Y-112189869D01*
X108493802Y-112194300D01*
X108655700Y-112356198D01*
X108660132Y-112359301D01*
X108660134Y-112359303D01*
X108685294Y-112376920D01*
X108843251Y-112487523D01*
X108886346Y-112507618D01*
X108938521Y-112553375D01*
X108957941Y-112620000D01*
X108938521Y-112686625D01*
X108886346Y-112732381D01*
X108872665Y-112738761D01*
X108848161Y-112750187D01*
X108848156Y-112750189D01*
X108843251Y-112752477D01*
X108838817Y-112755581D01*
X108838813Y-112755584D01*
X108660134Y-112880696D01*
X108660124Y-112880703D01*
X108655700Y-112883802D01*
X108651874Y-112887627D01*
X108651868Y-112887633D01*
X108497633Y-113041868D01*
X108497627Y-113041874D01*
X108493802Y-113045700D01*
X108490703Y-113050124D01*
X108490696Y-113050134D01*
X108365584Y-113228813D01*
X108365581Y-113228817D01*
X108362477Y-113233251D01*
X108360188Y-113238159D01*
X108360185Y-113238165D01*
X108268002Y-113435853D01*
X108267999Y-113435860D01*
X108265716Y-113440757D01*
X108264319Y-113445967D01*
X108264316Y-113445978D01*
X108207858Y-113656680D01*
X108207855Y-113656692D01*
X108206457Y-113661913D01*
X108205985Y-113667302D01*
X108205984Y-113667311D01*
X108188137Y-113871310D01*
X108186502Y-113890000D01*
X108186974Y-113895395D01*
X108205984Y-114112688D01*
X108205985Y-114112695D01*
X108206457Y-114118087D01*
X108207856Y-114123308D01*
X108207858Y-114123319D01*
X108264316Y-114334021D01*
X108264318Y-114334028D01*
X108265716Y-114339243D01*
X108268000Y-114344143D01*
X108268002Y-114344146D01*
X108324811Y-114465973D01*
X108362477Y-114546749D01*
X108371368Y-114559447D01*
X108490696Y-114729865D01*
X108490699Y-114729869D01*
X108493802Y-114734300D01*
X108655700Y-114896198D01*
X108660132Y-114899301D01*
X108660134Y-114899303D01*
X108685294Y-114916920D01*
X108843251Y-115027523D01*
X108886345Y-115047618D01*
X108938520Y-115093372D01*
X108957941Y-115159997D01*
X108938523Y-115226622D01*
X108886348Y-115272380D01*
X108848162Y-115290186D01*
X108848153Y-115290191D01*
X108843251Y-115292477D01*
X108838817Y-115295581D01*
X108838813Y-115295584D01*
X108660134Y-115420696D01*
X108660124Y-115420703D01*
X108655700Y-115423802D01*
X108651874Y-115427627D01*
X108651868Y-115427633D01*
X108497633Y-115581868D01*
X108497627Y-115581874D01*
X108493802Y-115585700D01*
X108490703Y-115590124D01*
X108490696Y-115590134D01*
X108365584Y-115768813D01*
X108365581Y-115768817D01*
X108362477Y-115773251D01*
X108360188Y-115778159D01*
X108360185Y-115778165D01*
X108268002Y-115975853D01*
X108267999Y-115975860D01*
X108265716Y-115980757D01*
X108264319Y-115985967D01*
X108264316Y-115985978D01*
X108207858Y-116196680D01*
X108207855Y-116196692D01*
X108206457Y-116201913D01*
X108205985Y-116207302D01*
X108205984Y-116207311D01*
X108187877Y-116414284D01*
X108186502Y-116430000D01*
X108186974Y-116435395D01*
X108205984Y-116652688D01*
X108205985Y-116652695D01*
X108206457Y-116658087D01*
X108207856Y-116663308D01*
X108207858Y-116663319D01*
X108264316Y-116874021D01*
X108264318Y-116874028D01*
X108265716Y-116879243D01*
X108268000Y-116884143D01*
X108268002Y-116884146D01*
X108304189Y-116961749D01*
X108362477Y-117086749D01*
X108365584Y-117091186D01*
X108490696Y-117269865D01*
X108490699Y-117269869D01*
X108493802Y-117274300D01*
X108655700Y-117436198D01*
X108660132Y-117439301D01*
X108660134Y-117439303D01*
X108703089Y-117469380D01*
X108843251Y-117567523D01*
X108886346Y-117587618D01*
X108938521Y-117633375D01*
X108957941Y-117700000D01*
X108938521Y-117766625D01*
X108886346Y-117812381D01*
X108868348Y-117820773D01*
X108848161Y-117830187D01*
X108848156Y-117830189D01*
X108843251Y-117832477D01*
X108838817Y-117835581D01*
X108838813Y-117835584D01*
X108660134Y-117960696D01*
X108660124Y-117960703D01*
X108655700Y-117963802D01*
X108651874Y-117967627D01*
X108651868Y-117967633D01*
X108497633Y-118121868D01*
X108497627Y-118121874D01*
X108493802Y-118125700D01*
X108490703Y-118130124D01*
X108490696Y-118130134D01*
X108365584Y-118308813D01*
X108365581Y-118308817D01*
X108362477Y-118313251D01*
X108360188Y-118318159D01*
X108360185Y-118318165D01*
X108268002Y-118515853D01*
X108267999Y-118515860D01*
X108265716Y-118520757D01*
X108264319Y-118525967D01*
X108264316Y-118525978D01*
X108207858Y-118736680D01*
X108207855Y-118736692D01*
X108206457Y-118741913D01*
X108205985Y-118747302D01*
X108205984Y-118747311D01*
X108190308Y-118926492D01*
X108186502Y-118970000D01*
X108186974Y-118975395D01*
X108205984Y-119192688D01*
X108205985Y-119192695D01*
X108206457Y-119198087D01*
X108207856Y-119203308D01*
X108207858Y-119203319D01*
X108264316Y-119414021D01*
X108264318Y-119414028D01*
X108265716Y-119419243D01*
X108268000Y-119424143D01*
X108268002Y-119424146D01*
X108307620Y-119509107D01*
X108362477Y-119626749D01*
X108369607Y-119636931D01*
X108490696Y-119809865D01*
X108490699Y-119809869D01*
X108493802Y-119814300D01*
X108655700Y-119976198D01*
X108660132Y-119979301D01*
X108660134Y-119979303D01*
X108708973Y-120013500D01*
X108843251Y-120107523D01*
X108886346Y-120127618D01*
X108938521Y-120173375D01*
X108957941Y-120240000D01*
X108938521Y-120306625D01*
X108886346Y-120352381D01*
X108868348Y-120360773D01*
X108848161Y-120370187D01*
X108848156Y-120370189D01*
X108843251Y-120372477D01*
X108838817Y-120375581D01*
X108838813Y-120375584D01*
X108660134Y-120500696D01*
X108660124Y-120500703D01*
X108655700Y-120503802D01*
X108651874Y-120507627D01*
X108651868Y-120507633D01*
X108497633Y-120661868D01*
X108497627Y-120661874D01*
X108493802Y-120665700D01*
X108490703Y-120670124D01*
X108490696Y-120670134D01*
X108365584Y-120848813D01*
X108365581Y-120848817D01*
X108362477Y-120853251D01*
X108360188Y-120858159D01*
X108360185Y-120858165D01*
X108268002Y-121055853D01*
X108267999Y-121055860D01*
X108265716Y-121060757D01*
X108264319Y-121065967D01*
X108264316Y-121065978D01*
X108207858Y-121276680D01*
X108207855Y-121276692D01*
X108206457Y-121281913D01*
X108205985Y-121287302D01*
X108205984Y-121287311D01*
X108188001Y-121492870D01*
X108186502Y-121510000D01*
X108186974Y-121515395D01*
X108205984Y-121732688D01*
X108205985Y-121732695D01*
X108206457Y-121738087D01*
X108207856Y-121743308D01*
X108207858Y-121743319D01*
X108264316Y-121954021D01*
X108264318Y-121954028D01*
X108265716Y-121959243D01*
X108268000Y-121964143D01*
X108268002Y-121964146D01*
X108347805Y-122135285D01*
X108362477Y-122166749D01*
X108365584Y-122171186D01*
X108490696Y-122349865D01*
X108490699Y-122349869D01*
X108493802Y-122354300D01*
X108655700Y-122516198D01*
X108843251Y-122647523D01*
X109050757Y-122744284D01*
X109055977Y-122745682D01*
X109055978Y-122745683D01*
X109266680Y-122802141D01*
X109266682Y-122802141D01*
X109271913Y-122803543D01*
X109500000Y-122823498D01*
X109728087Y-122803543D01*
X109949243Y-122744284D01*
X110156749Y-122647523D01*
X110344300Y-122516198D01*
X110506198Y-122354300D01*
X110637523Y-122166749D01*
X110734284Y-121959243D01*
X110793543Y-121738087D01*
X110813498Y-121510000D01*
X110793543Y-121281913D01*
X110782765Y-121241691D01*
X110735683Y-121065978D01*
X110735682Y-121065977D01*
X110734284Y-121060757D01*
X110637523Y-120853251D01*
X110520137Y-120685607D01*
X110509303Y-120670134D01*
X110509301Y-120670132D01*
X110506198Y-120665700D01*
X110344300Y-120503802D01*
X110339869Y-120500699D01*
X110339865Y-120500696D01*
X110192411Y-120397448D01*
X110156749Y-120372477D01*
X110113650Y-120352380D01*
X110061478Y-120306626D01*
X110042058Y-120240000D01*
X110061478Y-120173374D01*
X110113650Y-120127619D01*
X110156749Y-120107523D01*
X110344300Y-119976198D01*
X110506198Y-119814300D01*
X110637523Y-119626749D01*
X110734284Y-119419243D01*
X110793543Y-119198087D01*
X110813498Y-118970000D01*
X110793543Y-118741913D01*
X110788305Y-118722366D01*
X110735683Y-118525978D01*
X110735682Y-118525977D01*
X110734284Y-118520757D01*
X110637523Y-118313251D01*
X110541666Y-118176353D01*
X110509303Y-118130134D01*
X110509301Y-118130132D01*
X110506198Y-118125700D01*
X110344300Y-117963802D01*
X110339869Y-117960699D01*
X110339865Y-117960696D01*
X110165782Y-117838802D01*
X110156749Y-117832477D01*
X110113650Y-117812380D01*
X110061478Y-117766626D01*
X110042058Y-117700000D01*
X110061478Y-117633374D01*
X110113650Y-117587619D01*
X110156749Y-117567523D01*
X110344300Y-117436198D01*
X110506198Y-117274300D01*
X110637523Y-117086749D01*
X110734284Y-116879243D01*
X110793543Y-116658087D01*
X110813498Y-116430000D01*
X110793543Y-116201913D01*
X110788305Y-116182366D01*
X110735683Y-115985978D01*
X110735682Y-115985977D01*
X110734284Y-115980757D01*
X110637523Y-115773251D01*
X110506198Y-115585700D01*
X110344300Y-115423802D01*
X110339869Y-115420699D01*
X110339865Y-115420696D01*
X110161186Y-115295584D01*
X110161187Y-115295584D01*
X110156749Y-115292477D01*
X110113651Y-115272380D01*
X110061477Y-115226623D01*
X110042058Y-115159997D01*
X110061479Y-115093371D01*
X110113652Y-115047619D01*
X110156749Y-115027523D01*
X110344300Y-114896198D01*
X110506198Y-114734300D01*
X110637523Y-114546749D01*
X110734284Y-114339243D01*
X110793543Y-114118087D01*
X110813498Y-113890000D01*
X110793543Y-113661913D01*
X110790734Y-113651431D01*
X110735683Y-113445978D01*
X110735682Y-113445977D01*
X110734284Y-113440757D01*
X110637523Y-113233251D01*
X110506198Y-113045700D01*
X110344300Y-112883802D01*
X110339869Y-112880699D01*
X110339865Y-112880696D01*
X110171253Y-112762633D01*
X110156749Y-112752477D01*
X110113650Y-112732380D01*
X110061478Y-112686626D01*
X110042058Y-112620000D01*
X110061478Y-112553374D01*
X110113650Y-112507619D01*
X110156749Y-112487523D01*
X110344300Y-112356198D01*
X110506198Y-112194300D01*
X110637523Y-112006749D01*
X110734284Y-111799243D01*
X110793543Y-111578087D01*
X110813498Y-111350000D01*
X110793543Y-111121913D01*
X110734284Y-110900757D01*
X110637523Y-110693251D01*
X110540718Y-110554999D01*
X110509303Y-110510134D01*
X110509301Y-110510132D01*
X110506198Y-110505700D01*
X110344300Y-110343802D01*
X110339869Y-110340699D01*
X110339865Y-110340696D01*
X110171253Y-110222633D01*
X110156749Y-110212477D01*
X110113650Y-110192380D01*
X110061478Y-110146626D01*
X110042058Y-110080000D01*
X110061478Y-110013374D01*
X110113650Y-109967619D01*
X110156749Y-109947523D01*
X110344300Y-109816198D01*
X110506198Y-109654300D01*
X110637523Y-109466749D01*
X110734284Y-109259243D01*
X110793543Y-109038087D01*
X110813498Y-108810000D01*
X110793543Y-108581913D01*
X110792012Y-108576201D01*
X110735683Y-108365978D01*
X110735682Y-108365977D01*
X110734284Y-108360757D01*
X110637523Y-108153251D01*
X110506198Y-107965700D01*
X110344300Y-107803802D01*
X110339869Y-107800699D01*
X110339865Y-107800696D01*
X110161186Y-107675584D01*
X110161187Y-107675584D01*
X110156749Y-107672477D01*
X110113650Y-107652380D01*
X110061478Y-107606626D01*
X110042058Y-107540000D01*
X110061478Y-107473374D01*
X110113650Y-107427619D01*
X110156749Y-107407523D01*
X110344300Y-107276198D01*
X110506198Y-107114300D01*
X110637523Y-106926749D01*
X110734284Y-106719243D01*
X110793543Y-106498087D01*
X110813498Y-106270000D01*
X110793543Y-106041913D01*
X110788305Y-106022366D01*
X110735683Y-105825978D01*
X110735682Y-105825977D01*
X110734284Y-105820757D01*
X110637523Y-105613251D01*
X110549997Y-105488251D01*
X110509303Y-105430134D01*
X110509301Y-105430132D01*
X110506198Y-105425700D01*
X110344300Y-105263802D01*
X110339869Y-105260699D01*
X110339865Y-105260696D01*
X110190356Y-105156009D01*
X110156749Y-105132477D01*
X110113650Y-105112380D01*
X110061478Y-105066626D01*
X110042058Y-105000000D01*
X110061478Y-104933374D01*
X110113650Y-104887619D01*
X110156749Y-104867523D01*
X110344300Y-104736198D01*
X110506198Y-104574300D01*
X110637523Y-104386749D01*
X110734284Y-104179243D01*
X110793543Y-103958087D01*
X110813498Y-103730000D01*
X110793543Y-103501913D01*
X110788313Y-103482396D01*
X110735683Y-103285978D01*
X110735682Y-103285977D01*
X110734284Y-103280757D01*
X110637523Y-103073251D01*
X110539779Y-102933658D01*
X110509303Y-102890134D01*
X110509301Y-102890132D01*
X110506198Y-102885700D01*
X110344300Y-102723802D01*
X110339869Y-102720699D01*
X110339865Y-102720696D01*
X110161346Y-102595696D01*
X110156749Y-102592477D01*
X110113650Y-102572380D01*
X110061478Y-102526626D01*
X110042058Y-102460000D01*
X110061478Y-102393374D01*
X110113650Y-102347619D01*
X110156749Y-102327523D01*
X110344300Y-102196198D01*
X110452265Y-102088232D01*
X110507853Y-102056138D01*
X110572041Y-102056138D01*
X110627628Y-102088232D01*
X113931594Y-105392198D01*
X113939196Y-105400551D01*
X113943300Y-105407018D01*
X113964598Y-105427018D01*
X113992967Y-105453658D01*
X113995764Y-105456368D01*
X114015531Y-105476135D01*
X114018610Y-105478523D01*
X114018786Y-105478660D01*
X114027676Y-105486252D01*
X114059979Y-105516586D01*
X114077870Y-105526421D01*
X114094127Y-105537101D01*
X114098306Y-105540342D01*
X114110260Y-105549614D01*
X114136274Y-105560871D01*
X114150918Y-105567208D01*
X114161411Y-105572348D01*
X114200240Y-105593695D01*
X114220018Y-105598773D01*
X114238420Y-105605074D01*
X114247061Y-105608813D01*
X114257155Y-105613181D01*
X114300921Y-105620112D01*
X114312341Y-105622477D01*
X114355270Y-105633500D01*
X114375685Y-105633500D01*
X114395083Y-105635027D01*
X114415243Y-105638220D01*
X114455993Y-105634368D01*
X114459358Y-105634050D01*
X114471027Y-105633500D01*
X123398395Y-105633500D01*
X123458038Y-105648786D01*
X123502976Y-105690875D01*
X123522130Y-105749391D01*
X123510777Y-105809901D01*
X123505716Y-105820757D01*
X123504319Y-105825967D01*
X123504316Y-105825978D01*
X123447858Y-106036680D01*
X123447855Y-106036692D01*
X123446457Y-106041913D01*
X123445985Y-106047302D01*
X123445984Y-106047311D01*
X123427877Y-106254284D01*
X123426502Y-106270000D01*
X123426974Y-106275395D01*
X123445984Y-106492688D01*
X123445985Y-106492695D01*
X123446457Y-106498087D01*
X123447856Y-106503308D01*
X123447858Y-106503319D01*
X123504316Y-106714021D01*
X123504318Y-106714028D01*
X123505716Y-106719243D01*
X123508000Y-106724143D01*
X123508002Y-106724146D01*
X123583393Y-106885823D01*
X123602477Y-106926749D01*
X123605584Y-106931186D01*
X123730696Y-107109865D01*
X123730699Y-107109869D01*
X123733802Y-107114300D01*
X123895700Y-107276198D01*
X123900132Y-107279301D01*
X123900134Y-107279303D01*
X123925294Y-107296920D01*
X124083251Y-107407523D01*
X124126346Y-107427618D01*
X124178521Y-107473375D01*
X124197941Y-107540000D01*
X124178521Y-107606625D01*
X124126346Y-107652381D01*
X124110703Y-107659676D01*
X124088161Y-107670187D01*
X124088156Y-107670189D01*
X124083251Y-107672477D01*
X124078817Y-107675581D01*
X124078813Y-107675584D01*
X123900134Y-107800696D01*
X123900124Y-107800703D01*
X123895700Y-107803802D01*
X123891874Y-107807627D01*
X123891868Y-107807633D01*
X123737633Y-107961868D01*
X123737627Y-107961874D01*
X123733802Y-107965700D01*
X123730703Y-107970124D01*
X123730696Y-107970134D01*
X123605584Y-108148813D01*
X123605581Y-108148817D01*
X123602477Y-108153251D01*
X123600188Y-108158159D01*
X123600185Y-108158165D01*
X123508002Y-108355853D01*
X123507999Y-108355860D01*
X123505716Y-108360757D01*
X123504319Y-108365967D01*
X123504316Y-108365978D01*
X123447858Y-108576680D01*
X123447855Y-108576692D01*
X123446457Y-108581913D01*
X123445985Y-108587302D01*
X123445984Y-108587311D01*
X123427877Y-108794284D01*
X123426502Y-108810000D01*
X123426974Y-108815395D01*
X123445984Y-109032688D01*
X123445985Y-109032695D01*
X123446457Y-109038087D01*
X123447856Y-109043308D01*
X123447858Y-109043319D01*
X123504316Y-109254021D01*
X123504318Y-109254028D01*
X123505716Y-109259243D01*
X123508000Y-109264143D01*
X123508002Y-109264146D01*
X123560065Y-109375796D01*
X123571417Y-109436310D01*
X123552263Y-109494825D01*
X123507326Y-109536914D01*
X123447683Y-109552200D01*
X114580309Y-109552200D01*
X114529874Y-109541480D01*
X114493978Y-109515400D01*
X114493429Y-109516010D01*
X114488598Y-109511660D01*
X114484253Y-109506834D01*
X114479003Y-109503019D01*
X114478999Y-109503016D01*
X114335006Y-109398399D01*
X114335004Y-109398397D01*
X114329752Y-109394582D01*
X114323821Y-109391941D01*
X114323817Y-109391939D01*
X114161226Y-109319549D01*
X114161219Y-109319546D01*
X114155288Y-109316906D01*
X114148935Y-109315555D01*
X114148927Y-109315553D01*
X113974849Y-109278552D01*
X113974846Y-109278551D01*
X113968487Y-109277200D01*
X113777513Y-109277200D01*
X113771154Y-109278551D01*
X113771150Y-109278552D01*
X113597072Y-109315553D01*
X113597061Y-109315556D01*
X113590712Y-109316906D01*
X113584782Y-109319545D01*
X113584773Y-109319549D01*
X113422182Y-109391939D01*
X113422174Y-109391943D01*
X113416248Y-109394582D01*
X113410999Y-109398395D01*
X113410993Y-109398399D01*
X113267000Y-109503016D01*
X113266991Y-109503023D01*
X113261747Y-109506834D01*
X113257403Y-109511657D01*
X113257400Y-109511661D01*
X113160852Y-109618889D01*
X113133960Y-109648756D01*
X113130714Y-109654376D01*
X113130711Y-109654382D01*
X113041721Y-109808517D01*
X113041718Y-109808522D01*
X113038473Y-109814144D01*
X113036467Y-109820316D01*
X113036465Y-109820322D01*
X112981465Y-109989592D01*
X112981463Y-109989601D01*
X112979458Y-109995772D01*
X112978780Y-110002222D01*
X112978778Y-110002232D01*
X112962534Y-110156793D01*
X112959496Y-110185700D01*
X112960175Y-110192160D01*
X112978778Y-110369167D01*
X112978779Y-110369175D01*
X112979458Y-110375628D01*
X112981463Y-110381800D01*
X112981465Y-110381807D01*
X113028934Y-110527898D01*
X113038473Y-110557256D01*
X113041720Y-110562880D01*
X113041721Y-110562882D01*
X113114427Y-110688813D01*
X113133960Y-110722644D01*
X113261747Y-110864566D01*
X113266997Y-110868380D01*
X113267000Y-110868383D01*
X113311559Y-110900757D01*
X113416248Y-110976818D01*
X113590712Y-111054494D01*
X113597070Y-111055845D01*
X113597072Y-111055846D01*
X113633874Y-111063668D01*
X113777513Y-111094200D01*
X113961984Y-111094200D01*
X113968487Y-111094200D01*
X114155288Y-111054494D01*
X114329752Y-110976818D01*
X114484253Y-110864566D01*
X114488600Y-110859737D01*
X114493429Y-110855390D01*
X114493978Y-110855999D01*
X114529874Y-110829920D01*
X114580309Y-110819200D01*
X123365969Y-110819200D01*
X123420813Y-110831988D01*
X123464345Y-110867714D01*
X123487586Y-110919009D01*
X123485744Y-110975292D01*
X123481353Y-110991680D01*
X123447858Y-111116680D01*
X123447855Y-111116692D01*
X123446457Y-111121913D01*
X123445985Y-111127302D01*
X123445984Y-111127311D01*
X123432011Y-111287032D01*
X123426502Y-111350000D01*
X123426974Y-111355395D01*
X123445984Y-111572688D01*
X123445985Y-111572695D01*
X123446457Y-111578087D01*
X123447856Y-111583308D01*
X123447858Y-111583319D01*
X123504316Y-111794021D01*
X123504318Y-111794028D01*
X123505716Y-111799243D01*
X123508000Y-111804143D01*
X123508002Y-111804146D01*
X123600185Y-112001834D01*
X123602477Y-112006749D01*
X123719421Y-112173762D01*
X123740537Y-112226913D01*
X123735552Y-112283888D01*
X123705527Y-112332566D01*
X122301993Y-113736100D01*
X122293644Y-113743698D01*
X122287182Y-113747800D01*
X122281841Y-113753486D01*
X122281839Y-113753489D01*
X122240538Y-113797469D01*
X122237833Y-113800261D01*
X122218065Y-113820030D01*
X122215681Y-113823102D01*
X122215678Y-113823106D01*
X122215522Y-113823308D01*
X122207952Y-113832170D01*
X122187042Y-113854439D01*
X122177614Y-113864479D01*
X122173859Y-113871307D01*
X122173858Y-113871310D01*
X122167779Y-113882367D01*
X122157103Y-113898619D01*
X122149368Y-113908591D01*
X122149360Y-113908602D01*
X122144586Y-113914759D01*
X122141491Y-113921910D01*
X122141488Y-113921916D01*
X122126986Y-113955428D01*
X122121848Y-113965915D01*
X122104265Y-113997898D01*
X122104261Y-113997906D01*
X122100505Y-114004740D01*
X122098566Y-114012291D01*
X122098563Y-114012299D01*
X122095425Y-114024522D01*
X122089126Y-114042919D01*
X122081019Y-114061655D01*
X122079799Y-114069353D01*
X122079798Y-114069359D01*
X122074088Y-114105411D01*
X122071720Y-114116845D01*
X122062638Y-114152217D01*
X122062636Y-114152226D01*
X122060700Y-114159770D01*
X122060700Y-114167566D01*
X122060700Y-114180185D01*
X122059172Y-114199583D01*
X122055980Y-114219743D01*
X122056714Y-114227508D01*
X122056714Y-114227511D01*
X122060150Y-114263858D01*
X122060700Y-114275527D01*
X122060700Y-122510154D01*
X122060168Y-122521437D01*
X122058498Y-122528909D01*
X122058743Y-122536705D01*
X122058743Y-122536707D01*
X122060639Y-122597017D01*
X122060700Y-122600913D01*
X122060700Y-122628856D01*
X122061188Y-122632721D01*
X122061189Y-122632732D01*
X122061219Y-122632970D01*
X122062134Y-122644596D01*
X122063281Y-122681096D01*
X122063282Y-122681103D01*
X122063527Y-122688889D01*
X122065700Y-122696370D01*
X122065702Y-122696380D01*
X122069222Y-122708495D01*
X122073167Y-122727542D01*
X122075726Y-122747797D01*
X122078595Y-122755045D01*
X122078598Y-122755054D01*
X122092038Y-122789001D01*
X122095821Y-122800048D01*
X122096974Y-122804015D01*
X122108182Y-122842593D01*
X122112153Y-122849308D01*
X122112154Y-122849310D01*
X122118575Y-122860168D01*
X122127130Y-122877631D01*
X122131776Y-122889364D01*
X122134648Y-122896617D01*
X122139230Y-122902924D01*
X122139231Y-122902925D01*
X122160691Y-122932462D01*
X122167105Y-122942227D01*
X122189658Y-122980362D01*
X122195176Y-122985880D01*
X122204089Y-122994793D01*
X122216725Y-123009588D01*
X122224138Y-123019791D01*
X122224143Y-123019796D01*
X122228728Y-123026107D01*
X122238377Y-123034089D01*
X122262867Y-123054349D01*
X122271508Y-123062212D01*
X127843702Y-128634407D01*
X127851298Y-128642755D01*
X127855400Y-128649218D01*
X127905084Y-128695874D01*
X127907847Y-128698552D01*
X127927630Y-128718335D01*
X127930706Y-128720721D01*
X127930903Y-128720874D01*
X127939783Y-128728459D01*
X127953374Y-128741222D01*
X127972079Y-128758786D01*
X127989965Y-128768618D01*
X128006229Y-128779302D01*
X128016192Y-128787031D01*
X128016195Y-128787033D01*
X128022359Y-128791814D01*
X128029522Y-128794913D01*
X128029523Y-128794914D01*
X128063016Y-128809407D01*
X128073512Y-128814548D01*
X128112340Y-128835895D01*
X128132116Y-128840972D01*
X128150523Y-128847275D01*
X128162091Y-128852281D01*
X128162092Y-128852281D01*
X128169255Y-128855381D01*
X128213021Y-128862312D01*
X128224441Y-128864677D01*
X128267370Y-128875700D01*
X128287785Y-128875700D01*
X128307183Y-128877227D01*
X128327343Y-128880420D01*
X128365876Y-128876777D01*
X128371458Y-128876250D01*
X128383127Y-128875700D01*
X164609054Y-128875700D01*
X164620337Y-128876231D01*
X164627809Y-128877902D01*
X164695917Y-128875760D01*
X164699813Y-128875700D01*
X164723858Y-128875700D01*
X164727756Y-128875700D01*
X164731624Y-128875211D01*
X164731847Y-128875183D01*
X164743508Y-128874264D01*
X164787789Y-128872873D01*
X164807390Y-128867177D01*
X164826441Y-128863232D01*
X164846697Y-128860674D01*
X164880538Y-128847275D01*
X164887893Y-128844363D01*
X164898943Y-128840579D01*
X164941493Y-128828218D01*
X164959065Y-128817825D01*
X164976532Y-128809268D01*
X164995517Y-128801752D01*
X165031375Y-128775698D01*
X165041123Y-128769296D01*
X165079262Y-128746742D01*
X165093693Y-128732310D01*
X165108488Y-128719672D01*
X165125007Y-128707672D01*
X165153260Y-128673518D01*
X165161103Y-128664899D01*
X170241212Y-123584790D01*
X170249550Y-123577204D01*
X170256018Y-123573100D01*
X170302706Y-123523379D01*
X170305324Y-123520678D01*
X170325135Y-123500869D01*
X170327662Y-123497609D01*
X170335243Y-123488731D01*
X170365586Y-123456421D01*
X170375421Y-123438530D01*
X170386100Y-123422271D01*
X170398614Y-123406140D01*
X170416216Y-123365461D01*
X170421339Y-123355005D01*
X170442695Y-123316160D01*
X170446938Y-123299631D01*
X170447773Y-123296383D01*
X170454078Y-123277969D01*
X170454718Y-123276491D01*
X170462181Y-123259245D01*
X170469112Y-123215476D01*
X170471482Y-123204039D01*
X170473929Y-123194510D01*
X170482500Y-123161130D01*
X170482500Y-123140715D01*
X170484027Y-123121317D01*
X170484065Y-123121072D01*
X170487220Y-123101157D01*
X170483050Y-123057042D01*
X170482500Y-123045373D01*
X170482500Y-84398348D01*
X170483031Y-84387063D01*
X170484702Y-84379592D01*
X170482560Y-84311469D01*
X170482500Y-84307575D01*
X170482500Y-84283544D01*
X170482500Y-84279644D01*
X170481983Y-84275558D01*
X170481065Y-84263899D01*
X170479674Y-84219611D01*
X170473977Y-84200001D01*
X170470032Y-84180957D01*
X170467474Y-84160703D01*
X170451156Y-84119490D01*
X170447388Y-84108482D01*
X170435019Y-84065907D01*
X170424620Y-84048323D01*
X170416065Y-84030859D01*
X170411425Y-84019140D01*
X170408552Y-84011883D01*
X170403481Y-84004904D01*
X170382512Y-83976042D01*
X170376098Y-83966278D01*
X170363518Y-83945007D01*
X170353542Y-83928138D01*
X170339107Y-83913703D01*
X170326470Y-83898907D01*
X170314472Y-83882393D01*
X170308460Y-83877420D01*
X170308457Y-83877416D01*
X170280325Y-83854143D01*
X170271685Y-83846281D01*
X167446905Y-81021500D01*
X167415260Y-80967544D01*
X167413980Y-80905006D01*
X167440140Y-80855898D01*
X167439099Y-80855087D01*
X167442243Y-80851046D01*
X167445722Y-80847268D01*
X167568860Y-80658791D01*
X167659296Y-80452616D01*
X167714564Y-80234368D01*
X167733156Y-80010000D01*
X167714564Y-79785632D01*
X167659296Y-79567384D01*
X167568860Y-79361209D01*
X167454302Y-79185865D01*
X167448525Y-79177022D01*
X167448523Y-79177020D01*
X167445722Y-79172732D01*
X167381987Y-79103498D01*
X167296711Y-79010864D01*
X167296708Y-79010861D01*
X167293240Y-79007094D01*
X167267101Y-78986749D01*
X167119623Y-78871960D01*
X167119615Y-78871955D01*
X167115576Y-78868811D01*
X167111064Y-78866369D01*
X167111061Y-78866367D01*
X167079070Y-78849055D01*
X167031564Y-78803474D01*
X167014086Y-78740000D01*
X167031564Y-78676526D01*
X167079070Y-78630945D01*
X167081066Y-78629865D01*
X167115576Y-78611189D01*
X167293240Y-78472906D01*
X167445722Y-78307268D01*
X167568860Y-78118791D01*
X167659296Y-77912616D01*
X167714564Y-77694368D01*
X167733156Y-77470000D01*
X167714564Y-77245632D01*
X167659296Y-77027384D01*
X167568860Y-76821209D01*
X167452227Y-76642688D01*
X167448525Y-76637022D01*
X167448523Y-76637019D01*
X167445722Y-76632732D01*
X167397088Y-76579902D01*
X167296711Y-76470864D01*
X167296708Y-76470861D01*
X167293240Y-76467094D01*
X167239666Y-76425395D01*
X167119623Y-76331960D01*
X167119615Y-76331955D01*
X167115576Y-76328811D01*
X167111069Y-76326372D01*
X167111060Y-76326366D01*
X167079068Y-76309053D01*
X167031562Y-76263471D01*
X167014086Y-76199996D01*
X167031565Y-76136522D01*
X167079067Y-76090945D01*
X167115576Y-76071189D01*
X167293240Y-75932906D01*
X167445722Y-75767268D01*
X167568860Y-75578791D01*
X167659296Y-75372616D01*
X167714564Y-75154368D01*
X167733156Y-74930000D01*
X167714564Y-74705632D01*
X167659296Y-74487384D01*
X167568860Y-74281209D01*
X167457156Y-74110233D01*
X167448525Y-74097022D01*
X167448523Y-74097020D01*
X167445722Y-74092732D01*
X167400790Y-74043923D01*
X167296711Y-73930864D01*
X167296708Y-73930861D01*
X167293240Y-73927094D01*
X167253184Y-73895917D01*
X167119623Y-73791960D01*
X167119615Y-73791955D01*
X167115576Y-73788811D01*
X167111066Y-73786370D01*
X167111061Y-73786367D01*
X167079070Y-73769055D01*
X167031564Y-73723474D01*
X167014086Y-73660000D01*
X167031564Y-73596526D01*
X167079070Y-73550945D01*
X167079109Y-73550923D01*
X167115576Y-73531189D01*
X167293240Y-73392906D01*
X167445722Y-73227268D01*
X167568860Y-73038791D01*
X167659296Y-72832616D01*
X167714564Y-72614368D01*
X167733156Y-72390000D01*
X167714564Y-72165632D01*
X167659296Y-71947384D01*
X167568860Y-71741209D01*
X167445722Y-71552732D01*
X167442246Y-71548956D01*
X167296711Y-71390864D01*
X167296706Y-71390859D01*
X167293240Y-71387094D01*
X167204879Y-71318319D01*
X167119623Y-71251960D01*
X167119615Y-71251955D01*
X167115576Y-71248811D01*
X167111071Y-71246373D01*
X167111065Y-71246369D01*
X166922080Y-71144096D01*
X166922074Y-71144093D01*
X166917574Y-71141658D01*
X166912733Y-71139996D01*
X166912726Y-71139993D01*
X166709488Y-71070222D01*
X166709487Y-71070221D01*
X166704635Y-71068556D01*
X166699585Y-71067713D01*
X166699576Y-71067711D01*
X166487631Y-71032344D01*
X166487622Y-71032343D01*
X166482569Y-71031500D01*
X166257431Y-71031500D01*
X166252378Y-71032343D01*
X166252368Y-71032344D01*
X166040423Y-71067711D01*
X166040411Y-71067713D01*
X166035365Y-71068556D01*
X166030515Y-71070220D01*
X166030511Y-71070222D01*
X165827273Y-71139993D01*
X165827262Y-71139997D01*
X165822426Y-71141658D01*
X165817929Y-71144091D01*
X165817919Y-71144096D01*
X165628934Y-71246369D01*
X165628922Y-71246376D01*
X165624424Y-71248811D01*
X165620389Y-71251951D01*
X165620376Y-71251960D01*
X165450801Y-71383948D01*
X165450795Y-71383952D01*
X165446760Y-71387094D01*
X165443294Y-71390858D01*
X165443294Y-71390859D01*
X165383548Y-71455760D01*
X165330924Y-71489613D01*
X165268470Y-71493461D01*
X165212089Y-71466323D01*
X165176137Y-71415110D01*
X165165687Y-71387094D01*
X165130889Y-71293796D01*
X165043261Y-71176739D01*
X164996398Y-71141658D01*
X164933304Y-71094426D01*
X164933303Y-71094425D01*
X164926204Y-71089111D01*
X164917896Y-71086012D01*
X164917894Y-71086011D01*
X164796463Y-71040719D01*
X164796458Y-71040717D01*
X164789201Y-71038011D01*
X164781497Y-71037182D01*
X164781494Y-71037182D01*
X164731924Y-71031853D01*
X164731918Y-71031852D01*
X164728638Y-71031500D01*
X162931362Y-71031500D01*
X162928082Y-71031852D01*
X162928075Y-71031853D01*
X162878505Y-71037182D01*
X162878500Y-71037182D01*
X162870799Y-71038011D01*
X162863543Y-71040717D01*
X162863536Y-71040719D01*
X162742105Y-71086011D01*
X162742099Y-71086013D01*
X162733796Y-71089111D01*
X162726698Y-71094423D01*
X162726695Y-71094426D01*
X162623835Y-71171426D01*
X162623831Y-71171429D01*
X162616739Y-71176739D01*
X162611429Y-71183831D01*
X162611426Y-71183835D01*
X162534426Y-71286695D01*
X162534423Y-71286698D01*
X162529111Y-71293796D01*
X162526013Y-71302099D01*
X162526011Y-71302105D01*
X162480719Y-71423536D01*
X162480717Y-71423543D01*
X162478011Y-71430799D01*
X162477182Y-71438500D01*
X162477182Y-71438505D01*
X162471853Y-71488075D01*
X162471500Y-71491362D01*
X162471500Y-71494672D01*
X162471500Y-72182834D01*
X162457985Y-72239129D01*
X162420385Y-72283152D01*
X162366898Y-72305307D01*
X162309182Y-72300765D01*
X162259819Y-72270515D01*
X161322419Y-71333115D01*
X160245595Y-70256290D01*
X160238003Y-70247948D01*
X160233900Y-70241482D01*
X160184216Y-70194826D01*
X160181450Y-70192145D01*
X160164427Y-70175122D01*
X160164426Y-70175121D01*
X160161670Y-70172365D01*
X160158386Y-70169817D01*
X160149524Y-70162246D01*
X160122909Y-70137254D01*
X160122903Y-70137249D01*
X160117221Y-70131914D01*
X160110388Y-70128158D01*
X160110382Y-70128153D01*
X160099329Y-70122076D01*
X160083074Y-70111399D01*
X160073109Y-70103670D01*
X160073106Y-70103668D01*
X160066941Y-70098886D01*
X160026276Y-70081289D01*
X160015784Y-70076149D01*
X159983796Y-70058563D01*
X159983794Y-70058562D01*
X159976960Y-70054805D01*
X159957184Y-70049727D01*
X159938781Y-70043426D01*
X159927209Y-70038418D01*
X159927201Y-70038415D01*
X159920045Y-70035319D01*
X159912340Y-70034098D01*
X159912338Y-70034098D01*
X159876281Y-70028387D01*
X159864855Y-70026021D01*
X159821930Y-70015000D01*
X159814128Y-70015000D01*
X159801515Y-70015000D01*
X159782117Y-70013473D01*
X159769666Y-70011501D01*
X159761957Y-70010280D01*
X159754191Y-70011014D01*
X159754188Y-70011014D01*
X159717842Y-70014450D01*
X159706173Y-70015000D01*
X124747848Y-70015000D01*
X124736563Y-70014468D01*
X124729092Y-70012798D01*
X124721294Y-70013043D01*
X124660970Y-70014939D01*
X124657075Y-70015000D01*
X124629144Y-70015000D01*
X124625289Y-70015486D01*
X124625255Y-70015489D01*
X124625024Y-70015519D01*
X124613405Y-70016433D01*
X124576908Y-70017580D01*
X124576900Y-70017581D01*
X124569111Y-70017826D01*
X124561625Y-70020000D01*
X124561616Y-70020002D01*
X124549496Y-70023523D01*
X124530460Y-70027465D01*
X124517941Y-70029047D01*
X124517931Y-70029049D01*
X124510203Y-70030026D01*
X124502960Y-70032893D01*
X124502950Y-70032896D01*
X124469013Y-70046332D01*
X124457971Y-70050113D01*
X124422900Y-70060303D01*
X124422893Y-70060305D01*
X124415407Y-70062481D01*
X124408697Y-70066449D01*
X124408688Y-70066453D01*
X124397824Y-70072878D01*
X124380365Y-70081431D01*
X124368637Y-70086075D01*
X124368631Y-70086077D01*
X124361383Y-70088948D01*
X124355078Y-70093528D01*
X124355070Y-70093533D01*
X124325537Y-70114989D01*
X124315782Y-70121397D01*
X124284354Y-70139985D01*
X124284348Y-70139989D01*
X124277638Y-70143958D01*
X124272125Y-70149469D01*
X124272118Y-70149476D01*
X124263197Y-70158397D01*
X124248414Y-70171023D01*
X124238206Y-70178440D01*
X124238200Y-70178444D01*
X124231893Y-70183028D01*
X124226926Y-70189030D01*
X124226915Y-70189042D01*
X124203643Y-70217173D01*
X124195783Y-70225811D01*
X111017467Y-83404126D01*
X110956624Y-83437506D01*
X110887375Y-83432967D01*
X110831410Y-83391931D01*
X110806258Y-83327252D01*
X110805986Y-83324146D01*
X110793543Y-83181913D01*
X110791579Y-83174585D01*
X110735683Y-82965978D01*
X110735682Y-82965977D01*
X110734284Y-82960757D01*
X110637523Y-82753251D01*
X110506198Y-82565700D01*
X110344300Y-82403802D01*
X110339869Y-82400699D01*
X110339865Y-82400696D01*
X110161186Y-82275584D01*
X110161187Y-82275584D01*
X110156749Y-82272477D01*
X110113650Y-82252380D01*
X110061478Y-82206626D01*
X110042058Y-82140000D01*
X110061478Y-82073374D01*
X110113650Y-82027619D01*
X110156749Y-82007523D01*
X110344300Y-81876198D01*
X110506198Y-81714300D01*
X110637523Y-81526749D01*
X110734284Y-81319243D01*
X110793543Y-81098087D01*
X110813498Y-80870000D01*
X110793543Y-80641913D01*
X110779795Y-80590607D01*
X110735683Y-80425978D01*
X110735682Y-80425977D01*
X110734284Y-80420757D01*
X110637523Y-80213251D01*
X110544219Y-80080000D01*
X110509303Y-80030134D01*
X110509301Y-80030132D01*
X110506198Y-80025700D01*
X110344300Y-79863802D01*
X110339869Y-79860699D01*
X110339865Y-79860696D01*
X110202244Y-79764333D01*
X110156749Y-79732477D01*
X110113651Y-79712380D01*
X110061477Y-79666623D01*
X110042058Y-79599997D01*
X110061479Y-79533371D01*
X110113652Y-79487619D01*
X110156749Y-79467523D01*
X110344300Y-79336198D01*
X110506198Y-79174300D01*
X110637523Y-78986749D01*
X110734284Y-78779243D01*
X110793543Y-78558087D01*
X110813498Y-78330000D01*
X110793543Y-78101913D01*
X110790212Y-78089483D01*
X110735683Y-77885978D01*
X110735682Y-77885977D01*
X110734284Y-77880757D01*
X110637523Y-77673251D01*
X110528147Y-77517046D01*
X110509303Y-77490134D01*
X110509301Y-77490132D01*
X110506198Y-77485700D01*
X110344300Y-77323802D01*
X110339869Y-77320699D01*
X110339865Y-77320696D01*
X110161186Y-77195584D01*
X110161187Y-77195584D01*
X110156749Y-77192477D01*
X110113650Y-77172380D01*
X110061478Y-77126626D01*
X110042058Y-77060000D01*
X110061478Y-76993374D01*
X110113650Y-76947619D01*
X110156749Y-76927523D01*
X110344300Y-76796198D01*
X110506198Y-76634300D01*
X110637523Y-76446749D01*
X110734284Y-76239243D01*
X110793543Y-76018087D01*
X110813498Y-75790000D01*
X110793543Y-75561913D01*
X110734284Y-75340757D01*
X110637523Y-75133251D01*
X110506198Y-74945700D01*
X110344300Y-74783802D01*
X110339867Y-74780698D01*
X110339860Y-74780692D01*
X110326000Y-74770987D01*
X110286864Y-74726144D01*
X110273132Y-74668230D01*
X110287968Y-74610589D01*
X110327953Y-74566501D01*
X110383876Y-74546124D01*
X110399665Y-74544427D01*
X110414641Y-74540888D01*
X110533777Y-74496452D01*
X110549189Y-74488037D01*
X110650092Y-74412501D01*
X110662501Y-74400092D01*
X110738037Y-74299189D01*
X110746452Y-74283777D01*
X110790888Y-74164641D01*
X110794426Y-74149667D01*
X110799646Y-74101114D01*
X110800000Y-74094518D01*
X110800000Y-73516326D01*
X110796549Y-73503450D01*
X110783674Y-73500000D01*
X108216326Y-73500000D01*
X108203450Y-73503450D01*
X108200000Y-73516326D01*
X108200000Y-74094518D01*
X108200353Y-74101114D01*
X108205573Y-74149667D01*
X108209111Y-74164641D01*
X108253547Y-74283777D01*
X108261962Y-74299189D01*
X108337498Y-74400092D01*
X108349907Y-74412501D01*
X108450810Y-74488037D01*
X108466222Y-74496452D01*
X108585358Y-74540888D01*
X108600334Y-74544427D01*
X108616123Y-74546124D01*
X108672045Y-74566501D01*
X108712031Y-74610588D01*
X108726867Y-74668228D01*
X108713136Y-74726142D01*
X108674001Y-74770985D01*
X108660145Y-74780687D01*
X108660126Y-74780702D01*
X108655700Y-74783802D01*
X108651874Y-74787627D01*
X108651868Y-74787633D01*
X108497633Y-74941868D01*
X108497627Y-74941874D01*
X108493802Y-74945700D01*
X108490703Y-74950124D01*
X108490696Y-74950134D01*
X108365584Y-75128813D01*
X108365581Y-75128817D01*
X108362477Y-75133251D01*
X108360188Y-75138159D01*
X108360185Y-75138165D01*
X108268002Y-75335853D01*
X108267999Y-75335860D01*
X108265716Y-75340757D01*
X108264319Y-75345967D01*
X108264316Y-75345978D01*
X108207858Y-75556680D01*
X108207855Y-75556692D01*
X108206457Y-75561913D01*
X108205985Y-75567302D01*
X108205984Y-75567311D01*
X108187547Y-75778057D01*
X108186502Y-75790000D01*
X108186974Y-75795395D01*
X108205984Y-76012688D01*
X108205985Y-76012695D01*
X108206457Y-76018087D01*
X108207856Y-76023308D01*
X108207858Y-76023319D01*
X108264316Y-76234021D01*
X108264318Y-76234028D01*
X108265716Y-76239243D01*
X108268000Y-76244143D01*
X108268002Y-76244146D01*
X108352824Y-76426049D01*
X108362477Y-76446749D01*
X108394333Y-76492244D01*
X108490696Y-76629865D01*
X108490699Y-76629869D01*
X108493802Y-76634300D01*
X108655700Y-76796198D01*
X108843251Y-76927523D01*
X108886346Y-76947618D01*
X108938521Y-76993375D01*
X108957941Y-77060000D01*
X108938521Y-77126625D01*
X108886346Y-77172381D01*
X108868348Y-77180773D01*
X108848161Y-77190187D01*
X108848156Y-77190189D01*
X108843251Y-77192477D01*
X108838817Y-77195581D01*
X108838813Y-77195584D01*
X108660134Y-77320696D01*
X108660124Y-77320703D01*
X108655700Y-77323802D01*
X108651874Y-77327627D01*
X108651868Y-77327633D01*
X108497633Y-77481868D01*
X108497627Y-77481874D01*
X108493802Y-77485700D01*
X108490703Y-77490124D01*
X108490696Y-77490134D01*
X108365584Y-77668813D01*
X108365581Y-77668817D01*
X108362477Y-77673251D01*
X108360188Y-77678159D01*
X108360185Y-77678165D01*
X108268002Y-77875853D01*
X108267999Y-77875860D01*
X108265716Y-77880757D01*
X108264319Y-77885967D01*
X108264316Y-77885978D01*
X108207858Y-78096680D01*
X108207855Y-78096692D01*
X108206457Y-78101913D01*
X108205985Y-78107302D01*
X108205984Y-78107311D01*
X108187398Y-78319762D01*
X108186502Y-78330000D01*
X108186974Y-78335395D01*
X108205984Y-78552688D01*
X108205985Y-78552695D01*
X108206457Y-78558087D01*
X108207856Y-78563308D01*
X108207858Y-78563319D01*
X108264316Y-78774021D01*
X108264318Y-78774028D01*
X108265716Y-78779243D01*
X108268000Y-78784143D01*
X108268002Y-78784146D01*
X108347856Y-78955394D01*
X108362477Y-78986749D01*
X108370398Y-78998061D01*
X108490696Y-79169865D01*
X108490699Y-79169869D01*
X108493802Y-79174300D01*
X108655700Y-79336198D01*
X108843251Y-79467523D01*
X108886345Y-79487618D01*
X108938520Y-79533372D01*
X108957941Y-79599997D01*
X108938523Y-79666622D01*
X108886348Y-79712380D01*
X108848162Y-79730186D01*
X108848153Y-79730191D01*
X108843251Y-79732477D01*
X108838817Y-79735581D01*
X108838813Y-79735584D01*
X108660134Y-79860696D01*
X108660124Y-79860703D01*
X108655700Y-79863802D01*
X108651874Y-79867627D01*
X108651868Y-79867633D01*
X108497633Y-80021868D01*
X108497627Y-80021874D01*
X108493802Y-80025700D01*
X108490703Y-80030124D01*
X108490696Y-80030134D01*
X108365584Y-80208813D01*
X108365581Y-80208817D01*
X108362477Y-80213251D01*
X108360188Y-80218159D01*
X108360185Y-80218165D01*
X108268002Y-80415853D01*
X108267999Y-80415860D01*
X108265716Y-80420757D01*
X108264319Y-80425967D01*
X108264316Y-80425978D01*
X108207858Y-80636680D01*
X108207855Y-80636692D01*
X108206457Y-80641913D01*
X108205985Y-80647302D01*
X108205984Y-80647311D01*
X108187807Y-80855087D01*
X108186502Y-80870000D01*
X108186974Y-80875395D01*
X108205984Y-81092688D01*
X108205985Y-81092695D01*
X108206457Y-81098087D01*
X108207856Y-81103308D01*
X108207858Y-81103319D01*
X108264316Y-81314021D01*
X108264318Y-81314028D01*
X108265716Y-81319243D01*
X108268000Y-81324143D01*
X108268002Y-81324146D01*
X108360185Y-81521834D01*
X108362477Y-81526749D01*
X108365584Y-81531186D01*
X108490696Y-81709865D01*
X108490699Y-81709869D01*
X108493802Y-81714300D01*
X108655700Y-81876198D01*
X108843251Y-82007523D01*
X108886346Y-82027618D01*
X108938521Y-82073375D01*
X108957941Y-82140000D01*
X108938521Y-82206625D01*
X108886346Y-82252381D01*
X108868348Y-82260773D01*
X108848161Y-82270187D01*
X108848156Y-82270189D01*
X108843251Y-82272477D01*
X108838817Y-82275581D01*
X108838813Y-82275584D01*
X108660134Y-82400696D01*
X108660124Y-82400703D01*
X108655700Y-82403802D01*
X108651874Y-82407627D01*
X108651868Y-82407633D01*
X108497633Y-82561868D01*
X108497627Y-82561874D01*
X108493802Y-82565700D01*
X108490703Y-82570124D01*
X108490696Y-82570134D01*
X108365584Y-82748813D01*
X108365581Y-82748817D01*
X108362477Y-82753251D01*
X108360188Y-82758159D01*
X108360185Y-82758165D01*
X108268002Y-82955853D01*
X108267999Y-82955860D01*
X108265716Y-82960757D01*
X108264319Y-82965967D01*
X108264316Y-82965978D01*
X108207858Y-83176680D01*
X108207855Y-83176692D01*
X108206457Y-83181913D01*
X108205985Y-83187302D01*
X108205984Y-83187311D01*
X108188083Y-83391931D01*
X108186502Y-83410000D01*
X108186974Y-83415395D01*
X108205984Y-83632688D01*
X108205985Y-83632695D01*
X108206457Y-83638087D01*
X108207856Y-83643308D01*
X108207858Y-83643319D01*
X108264316Y-83854021D01*
X108264318Y-83854028D01*
X108265716Y-83859243D01*
X108268000Y-83864143D01*
X108268002Y-83864146D01*
X108359986Y-84061408D01*
X108362477Y-84066749D01*
X108390772Y-84107158D01*
X108490696Y-84249865D01*
X108490699Y-84249869D01*
X108493802Y-84254300D01*
X108497632Y-84258130D01*
X108501108Y-84262272D01*
X108500216Y-84263020D01*
X108529161Y-84313152D01*
X108529161Y-84377340D01*
X108497067Y-84432927D01*
X107471393Y-85458600D01*
X107463044Y-85466198D01*
X107456582Y-85470300D01*
X107451241Y-85475986D01*
X107451239Y-85475989D01*
X107409938Y-85519969D01*
X107407233Y-85522761D01*
X107387465Y-85542530D01*
X107385081Y-85545602D01*
X107385078Y-85545606D01*
X107384922Y-85545808D01*
X107377352Y-85554670D01*
X107362304Y-85570696D01*
X107347014Y-85586979D01*
X107343259Y-85593807D01*
X107343258Y-85593810D01*
X107337179Y-85604867D01*
X107326503Y-85621119D01*
X107318768Y-85631091D01*
X107318760Y-85631102D01*
X107313986Y-85637259D01*
X107310891Y-85644410D01*
X107310888Y-85644416D01*
X107296386Y-85677928D01*
X107291248Y-85688415D01*
X107273665Y-85720398D01*
X107273661Y-85720406D01*
X107269905Y-85727240D01*
X107267966Y-85734791D01*
X107267963Y-85734799D01*
X107264825Y-85747022D01*
X107258526Y-85765419D01*
X107250419Y-85784155D01*
X107249199Y-85791853D01*
X107249198Y-85791859D01*
X107243488Y-85827911D01*
X107241120Y-85839345D01*
X107232038Y-85874717D01*
X107232036Y-85874726D01*
X107230100Y-85882270D01*
X107230100Y-85890066D01*
X107230100Y-85902685D01*
X107228573Y-85922083D01*
X107226730Y-85933722D01*
X107225380Y-85942243D01*
X106500000Y-85942243D01*
X106500000Y-72983674D01*
X108200000Y-72983674D01*
X108203450Y-72996549D01*
X108216326Y-73000000D01*
X109233674Y-73000000D01*
X109246549Y-72996549D01*
X109250000Y-72983674D01*
X109750000Y-72983674D01*
X109753450Y-72996549D01*
X109766326Y-73000000D01*
X110783674Y-73000000D01*
X110796549Y-72996549D01*
X110800000Y-72983674D01*
X110800000Y-72405482D01*
X110799646Y-72398885D01*
X110794426Y-72350332D01*
X110790888Y-72335358D01*
X110746452Y-72216222D01*
X110738037Y-72200810D01*
X110662501Y-72099907D01*
X110650092Y-72087498D01*
X110549189Y-72011962D01*
X110533777Y-72003547D01*
X110414641Y-71959111D01*
X110399667Y-71955573D01*
X110351114Y-71950353D01*
X110344518Y-71950000D01*
X109766326Y-71950000D01*
X109753450Y-71953450D01*
X109750000Y-71966326D01*
X109750000Y-72983674D01*
X109250000Y-72983674D01*
X109250000Y-71966326D01*
X109246549Y-71953450D01*
X109233674Y-71950000D01*
X108655482Y-71950000D01*
X108648885Y-71950353D01*
X108600332Y-71955573D01*
X108585358Y-71959111D01*
X108466222Y-72003547D01*
X108450810Y-72011962D01*
X108349907Y-72087498D01*
X108337498Y-72099907D01*
X108261962Y-72200810D01*
X108253547Y-72216222D01*
X108209111Y-72335358D01*
X108205573Y-72350332D01*
X108200353Y-72398885D01*
X108200000Y-72405482D01*
X108200000Y-72983674D01*
X106500000Y-72983674D01*
X106500000Y-68624000D01*
X106516613Y-68562000D01*
X106562000Y-68516613D01*
X106624000Y-68500000D01*
X175376000Y-68500000D01*
X175438000Y-68516613D01*
G37*
G04 #@! TD.AperFunction*
M02*
