M48
; DRILL file {KiCad (6.0.4-0)} date 
; FORMAT={-:-/ absolute / metric / decimal}
; #@! TF.CreationDate,2022-12-18T15:52:36+09:00
; #@! TF.GenerationSoftware,Kicad,Pcbnew,(6.0.4-0)
; #@! TF.FileFunction,MixedPlating,1,2
FMAT,2
METRIC
; #@! TA.AperFunction,Plated,PTH,ViaDrill
T1C0.400
; #@! TA.AperFunction,Plated,PTH,ComponentDrill
T2C0.800
; #@! TA.AperFunction,Plated,PTH,ComponentDrill
T3C1.000
%
G90
G05
T1
X108.0Y-128.5
X109.0Y-70.0
X117.917Y-118.932
X128.169Y-70.173
X131.98Y-86.63
X132.386Y-118.464
X132.649Y-85.388
X133.289Y-97.26
X133.289Y-101.106
X134.122Y-111.283
X134.792Y-84.029
X134.957Y-109.533
X135.051Y-106.216
X135.94Y-75.052
X139.421Y-109.8
X139.684Y-80.291
X140.456Y-118.373
X141.146Y-82.0
X143.603Y-94.427
X145.004Y-73.686
X145.168Y-72.585
X146.122Y-89.712
X147.5Y-118.0
X147.6Y-97.929
X147.766Y-96.838
X148.399Y-110.052
X148.587Y-74.217
X149.077Y-109.056
X150.315Y-82.734
X150.436Y-73.035
X152.376Y-73.936
X153.32Y-80.686
X153.383Y-74.347
X154.175Y-91.778
X154.718Y-106.912
X155.844Y-79.935
X155.985Y-87.202
X159.042Y-117.065
X159.363Y-92.866
X159.51Y-96.235
X159.531Y-97.41
X159.532Y-100.629
X159.79Y-112.694
X163.211Y-89.885
X163.553Y-124.297
X163.653Y-97.752
X165.985Y-120.67
X171.0Y-128.5
X172.5Y-70.5
T2
X109.5Y-73.25
X109.5Y-75.79
X109.5Y-78.33
X109.5Y-80.87
X109.5Y-83.41
X109.5Y-85.95
X109.5Y-88.49
X109.5Y-91.03
X109.5Y-93.57
X109.5Y-96.11
X109.5Y-98.65
X109.5Y-101.19
X109.5Y-103.73
X109.5Y-106.27
X109.5Y-108.81
X109.5Y-111.35
X109.5Y-113.89
X109.5Y-116.43
X109.5Y-118.97
X109.5Y-121.51
X124.74Y-73.25
X124.74Y-75.79
X124.74Y-78.33
X124.74Y-80.87
X124.74Y-83.41
X124.74Y-85.95
X124.74Y-88.49
X124.74Y-91.03
X124.74Y-93.57
X124.74Y-96.11
X124.74Y-98.65
X124.74Y-101.19
X124.74Y-103.73
X124.74Y-106.27
X124.74Y-108.81
X124.74Y-111.35
X124.74Y-113.89
X124.74Y-116.43
X124.74Y-118.97
X124.74Y-121.51
X129.75Y-75.25
X129.75Y-77.79
X129.75Y-80.33
X129.75Y-82.87
X129.75Y-85.41
X129.75Y-87.95
X129.75Y-90.49
X129.9Y-97.4
X129.9Y-99.94
X129.9Y-102.48
X129.9Y-105.02
X129.9Y-107.56
X129.9Y-110.1
X129.9Y-112.64
X129.9Y-115.18
X129.9Y-117.72
X129.9Y-120.26
X135.25Y-72.25
X135.55Y-94.4
X137.37Y-75.25
X137.37Y-77.79
X137.37Y-80.33
X137.37Y-82.87
X137.37Y-85.41
X137.37Y-87.95
X137.37Y-90.49
X137.52Y-97.4
X137.52Y-99.94
X137.52Y-102.48
X137.52Y-105.02
X137.52Y-107.56
X137.52Y-110.1
X137.52Y-112.64
X137.52Y-115.18
X137.52Y-117.72
X137.52Y-120.26
X137.75Y-72.25
X138.05Y-94.4
X141.875Y-73.125
X141.875Y-75.665
X141.875Y-78.205
X141.875Y-80.745
X141.875Y-83.285
X141.875Y-85.825
X141.875Y-88.365
X141.875Y-90.905
X141.875Y-93.445
X141.875Y-95.985
X141.875Y-98.525
X141.875Y-101.065
X141.875Y-103.605
X141.875Y-106.145
X141.875Y-108.685
X141.875Y-111.225
X141.875Y-113.765
X141.875Y-116.305
X141.875Y-118.845
X141.875Y-121.385
X146.25Y-88.25
X146.5Y-99.92
X146.5Y-110.08
X148.75Y-88.25
X151.91Y-100.0
X151.91Y-110.16
X152.15Y-76.42
X152.15Y-86.58
X157.115Y-73.125
X157.115Y-75.665
X157.115Y-78.205
X157.115Y-80.745
X157.115Y-83.285
X157.115Y-85.825
X157.115Y-88.365
X157.115Y-90.905
X157.115Y-93.445
X157.115Y-95.985
X157.115Y-98.525
X157.115Y-101.065
X157.115Y-103.605
X157.115Y-106.145
X157.115Y-108.685
X157.115Y-111.225
X157.115Y-113.765
X157.115Y-116.305
X157.115Y-118.845
X157.115Y-121.385
T3
X128.695Y-124.925
X131.235Y-124.925
X133.775Y-124.925
X136.315Y-124.925
X138.855Y-124.925
X141.395Y-124.925
X143.935Y-124.925
X146.475Y-124.925
X151.44Y-125.0
X153.98Y-125.0
X156.52Y-125.0
X159.06Y-125.0
X161.6Y-125.0
X162.35Y-73.375
X162.35Y-75.915
X162.35Y-78.455
X162.35Y-80.995
X162.35Y-83.535
X162.35Y-86.075
X162.35Y-88.615
X162.35Y-91.155
X162.35Y-93.695
X162.35Y-96.235
X162.35Y-98.775
X162.35Y-101.315
X162.35Y-103.855
X162.35Y-106.395
X162.35Y-108.935
X162.35Y-111.475
X162.35Y-114.015
X162.35Y-116.555
X162.35Y-119.095
X162.35Y-121.635
X164.89Y-73.375
X164.89Y-75.915
X164.89Y-78.455
X164.89Y-80.995
X164.89Y-83.535
X164.89Y-86.075
X164.89Y-88.615
X164.89Y-91.155
X164.89Y-93.695
X164.89Y-96.235
X164.89Y-98.775
X164.89Y-101.315
X164.89Y-103.855
X164.89Y-106.395
X164.89Y-108.935
X164.89Y-111.475
X164.89Y-114.015
X164.89Y-116.555
X164.89Y-119.095
X164.89Y-121.635
T0
M30
