G04 #@! TF.GenerationSoftware,KiCad,Pcbnew,(7.0.0-0)*
G04 #@! TF.CreationDate,2023-03-04T11:20:18+09:00*
G04 #@! TF.ProjectId,MC6803EP-SBC6809E,4d433638-3033-4455-902d-534243363830,rev?*
G04 #@! TF.SameCoordinates,Original*
G04 #@! TF.FileFunction,Legend,Top*
G04 #@! TF.FilePolarity,Positive*
%FSLAX46Y46*%
G04 Gerber Fmt 4.6, Leading zero omitted, Abs format (unit mm)*
G04 Created by KiCad (PCBNEW (7.0.0-0)) date 2023-03-04 11:20:18*
%MOMM*%
%LPD*%
G01*
G04 APERTURE LIST*
%ADD10C,0.150000*%
%ADD11C,0.200000*%
%ADD12C,0.120000*%
%ADD13R,1.600000X1.600000*%
%ADD14O,1.600000X1.600000*%
%ADD15R,1.700000X1.700000*%
%ADD16O,1.700000X1.700000*%
%ADD17C,1.600000*%
G04 APERTURE END LIST*
D10*
X133038095Y-123482380D02*
X133038095Y-122482380D01*
X134228570Y-122434761D02*
X133371428Y-123720476D01*
X134752380Y-122482380D02*
X134942856Y-122482380D01*
X134942856Y-122482380D02*
X135038094Y-122530000D01*
X135038094Y-122530000D02*
X135133332Y-122625238D01*
X135133332Y-122625238D02*
X135180951Y-122815714D01*
X135180951Y-122815714D02*
X135180951Y-123149047D01*
X135180951Y-123149047D02*
X135133332Y-123339523D01*
X135133332Y-123339523D02*
X135038094Y-123434761D01*
X135038094Y-123434761D02*
X134942856Y-123482380D01*
X134942856Y-123482380D02*
X134752380Y-123482380D01*
X134752380Y-123482380D02*
X134657142Y-123434761D01*
X134657142Y-123434761D02*
X134561904Y-123339523D01*
X134561904Y-123339523D02*
X134514285Y-123149047D01*
X134514285Y-123149047D02*
X134514285Y-122815714D01*
X134514285Y-122815714D02*
X134561904Y-122625238D01*
X134561904Y-122625238D02*
X134657142Y-122530000D01*
X134657142Y-122530000D02*
X134752380Y-122482380D01*
X135466666Y-122625238D02*
X135895237Y-122625238D01*
X136038094Y-122672857D02*
X136657142Y-122672857D01*
X135942856Y-122815714D02*
X136704761Y-122815714D01*
X135704761Y-122387142D02*
X135704761Y-122625238D01*
X135990475Y-123006190D02*
X135990475Y-123482380D01*
X136038094Y-122434761D02*
X136038094Y-122672857D01*
X136228570Y-123006190D02*
X136228570Y-123482380D01*
X136323808Y-122815714D02*
X136276189Y-123006190D01*
X136323808Y-122339523D02*
X136323808Y-122672857D01*
X136466666Y-123006190D02*
X136466666Y-123482380D01*
X136657142Y-122434761D02*
X136657142Y-122672857D01*
X135799999Y-122720476D02*
X135752380Y-123244285D01*
X135895237Y-123196666D02*
X135466666Y-123291904D01*
X135561904Y-122720476D02*
X135609523Y-123149047D01*
X135990475Y-123006190D02*
X136657142Y-123006190D01*
X136657142Y-123006190D02*
X136657142Y-123482380D01*
X136657142Y-123482380D02*
X136609523Y-123482380D01*
X136942856Y-122958571D02*
X138180951Y-122958571D01*
X137276189Y-123482380D02*
X137561903Y-123482380D01*
X137561903Y-122720476D02*
X137561903Y-123482380D01*
X137085713Y-122482380D02*
X138038094Y-122482380D01*
X138038094Y-122482380D02*
X137895237Y-122577619D01*
X137895237Y-122577619D02*
X137561903Y-122720476D01*
X159133333Y-122382380D02*
X159276190Y-122525238D01*
X159038095Y-122668095D02*
X159180952Y-122810952D01*
X159038095Y-123287142D02*
X159276190Y-123191904D01*
X159276190Y-123191904D02*
X159419047Y-123096666D01*
X159419047Y-123096666D02*
X159514285Y-123001428D01*
X159514285Y-123001428D02*
X159657142Y-122620476D01*
X160228571Y-122334761D02*
X160228571Y-122858571D01*
X160561904Y-122334761D02*
X160561904Y-122715714D01*
X160561904Y-122715714D02*
X160561904Y-122906190D01*
X160561904Y-122906190D02*
X160466666Y-123096666D01*
X160466666Y-123096666D02*
X160419047Y-123191904D01*
X160419047Y-123191904D02*
X160276190Y-123334761D01*
X161085714Y-122430000D02*
X161752380Y-122430000D01*
X161752380Y-122430000D02*
X161704761Y-122525238D01*
X161704761Y-122525238D02*
X161609523Y-122668095D01*
X161609523Y-122668095D02*
X161466666Y-122763333D01*
X161371428Y-122572857D02*
X161371428Y-122906190D01*
X161371428Y-122906190D02*
X161371428Y-123001428D01*
X161371428Y-123001428D02*
X161323809Y-123144285D01*
X161323809Y-123144285D02*
X161228571Y-123382380D01*
X162276190Y-122430000D02*
X162276190Y-122810952D01*
X162276190Y-122810952D02*
X162228571Y-123001428D01*
X162228571Y-123001428D02*
X162180952Y-123144285D01*
X162180952Y-123144285D02*
X162133333Y-123287142D01*
X162466666Y-122334761D02*
X162466666Y-123287142D01*
X162466666Y-123287142D02*
X162561904Y-123191904D01*
X162561904Y-123191904D02*
X162657142Y-123049047D01*
X162657142Y-123049047D02*
X162752380Y-122858571D01*
X163085714Y-122525238D02*
X163514285Y-122525238D01*
X163657142Y-122572857D02*
X164276190Y-122572857D01*
X163561904Y-122715714D02*
X164323809Y-122715714D01*
X163323809Y-122287142D02*
X163323809Y-122525238D01*
X163609523Y-122906190D02*
X163609523Y-123382380D01*
X163657142Y-122334761D02*
X163657142Y-122572857D01*
X163847618Y-122906190D02*
X163847618Y-123382380D01*
X163942856Y-122715714D02*
X163895237Y-122906190D01*
X163942856Y-122239523D02*
X163942856Y-122572857D01*
X164085714Y-122906190D02*
X164085714Y-123382380D01*
X164276190Y-122334761D02*
X164276190Y-122572857D01*
X163419047Y-122620476D02*
X163371428Y-123144285D01*
X163514285Y-123096666D02*
X163085714Y-123191904D01*
X163180952Y-122620476D02*
X163228571Y-123049047D01*
X163609523Y-122906190D02*
X164276190Y-122906190D01*
X164276190Y-122906190D02*
X164276190Y-123382380D01*
X164276190Y-123382380D02*
X164228571Y-123382380D01*
X164561904Y-122858571D02*
X165799999Y-122858571D01*
X164895237Y-123382380D02*
X165180951Y-123382380D01*
X165180951Y-122620476D02*
X165180951Y-123382380D01*
X164704761Y-122382380D02*
X165657142Y-122382380D01*
X165657142Y-122382380D02*
X165514285Y-122477619D01*
X165514285Y-122477619D02*
X165180951Y-122620476D01*
X114038000Y-88166666D02*
X113238000Y-88966666D01*
X114038000Y-88966666D02*
X113238000Y-88166666D01*
X113704666Y-88100000D02*
X113638000Y-88166666D01*
X113638000Y-88166666D02*
X113571333Y-88100000D01*
X113571333Y-88100000D02*
X113638000Y-88033333D01*
X113638000Y-88033333D02*
X113704666Y-88100000D01*
X113704666Y-88100000D02*
X113571333Y-88100000D01*
X113238000Y-88566666D02*
X113171333Y-88633333D01*
X113171333Y-88633333D02*
X113104666Y-88566666D01*
X113104666Y-88566666D02*
X113171333Y-88500000D01*
X113171333Y-88500000D02*
X113238000Y-88566666D01*
X113238000Y-88566666D02*
X113104666Y-88566666D01*
X114171333Y-88566666D02*
X114104666Y-88633333D01*
X114104666Y-88633333D02*
X114038000Y-88566666D01*
X114038000Y-88566666D02*
X114104666Y-88500000D01*
X114104666Y-88500000D02*
X114171333Y-88566666D01*
X114171333Y-88566666D02*
X114038000Y-88566666D01*
X113704666Y-89033333D02*
X113638000Y-89100000D01*
X113638000Y-89100000D02*
X113571333Y-89033333D01*
X113571333Y-89033333D02*
X113638000Y-88966666D01*
X113638000Y-88966666D02*
X113704666Y-89033333D01*
X113704666Y-89033333D02*
X113571333Y-89033333D01*
X113171333Y-89699999D02*
X113104666Y-89899999D01*
X113104666Y-89899999D02*
X113104666Y-90233333D01*
X113104666Y-90233333D02*
X113171333Y-90366666D01*
X113171333Y-90366666D02*
X113238000Y-90433333D01*
X113238000Y-90433333D02*
X113371333Y-90499999D01*
X113371333Y-90499999D02*
X113504666Y-90499999D01*
X113504666Y-90499999D02*
X113638000Y-90433333D01*
X113638000Y-90433333D02*
X113704666Y-90366666D01*
X113704666Y-90366666D02*
X113771333Y-90233333D01*
X113771333Y-90233333D02*
X113838000Y-89966666D01*
X113838000Y-89966666D02*
X113904666Y-89833333D01*
X113904666Y-89833333D02*
X113971333Y-89766666D01*
X113971333Y-89766666D02*
X114104666Y-89699999D01*
X114104666Y-89699999D02*
X114238000Y-89699999D01*
X114238000Y-89699999D02*
X114371333Y-89766666D01*
X114371333Y-89766666D02*
X114438000Y-89833333D01*
X114438000Y-89833333D02*
X114504666Y-89966666D01*
X114504666Y-89966666D02*
X114504666Y-90299999D01*
X114504666Y-90299999D02*
X114438000Y-90499999D01*
X113838000Y-91566666D02*
X113771333Y-91766666D01*
X113771333Y-91766666D02*
X113704666Y-91833332D01*
X113704666Y-91833332D02*
X113571333Y-91899999D01*
X113571333Y-91899999D02*
X113371333Y-91899999D01*
X113371333Y-91899999D02*
X113238000Y-91833332D01*
X113238000Y-91833332D02*
X113171333Y-91766666D01*
X113171333Y-91766666D02*
X113104666Y-91633332D01*
X113104666Y-91633332D02*
X113104666Y-91099999D01*
X113104666Y-91099999D02*
X114504666Y-91099999D01*
X114504666Y-91099999D02*
X114504666Y-91566666D01*
X114504666Y-91566666D02*
X114438000Y-91699999D01*
X114438000Y-91699999D02*
X114371333Y-91766666D01*
X114371333Y-91766666D02*
X114238000Y-91833332D01*
X114238000Y-91833332D02*
X114104666Y-91833332D01*
X114104666Y-91833332D02*
X113971333Y-91766666D01*
X113971333Y-91766666D02*
X113904666Y-91699999D01*
X113904666Y-91699999D02*
X113838000Y-91566666D01*
X113838000Y-91566666D02*
X113838000Y-91099999D01*
X113238000Y-93299999D02*
X113171333Y-93233332D01*
X113171333Y-93233332D02*
X113104666Y-93033332D01*
X113104666Y-93033332D02*
X113104666Y-92899999D01*
X113104666Y-92899999D02*
X113171333Y-92699999D01*
X113171333Y-92699999D02*
X113304666Y-92566666D01*
X113304666Y-92566666D02*
X113438000Y-92499999D01*
X113438000Y-92499999D02*
X113704666Y-92433332D01*
X113704666Y-92433332D02*
X113904666Y-92433332D01*
X113904666Y-92433332D02*
X114171333Y-92499999D01*
X114171333Y-92499999D02*
X114304666Y-92566666D01*
X114304666Y-92566666D02*
X114438000Y-92699999D01*
X114438000Y-92699999D02*
X114504666Y-92899999D01*
X114504666Y-92899999D02*
X114504666Y-93033332D01*
X114504666Y-93033332D02*
X114438000Y-93233332D01*
X114438000Y-93233332D02*
X114371333Y-93299999D01*
X114504666Y-94499999D02*
X114504666Y-94233332D01*
X114504666Y-94233332D02*
X114438000Y-94099999D01*
X114438000Y-94099999D02*
X114371333Y-94033332D01*
X114371333Y-94033332D02*
X114171333Y-93899999D01*
X114171333Y-93899999D02*
X113904666Y-93833332D01*
X113904666Y-93833332D02*
X113371333Y-93833332D01*
X113371333Y-93833332D02*
X113238000Y-93899999D01*
X113238000Y-93899999D02*
X113171333Y-93966666D01*
X113171333Y-93966666D02*
X113104666Y-94099999D01*
X113104666Y-94099999D02*
X113104666Y-94366666D01*
X113104666Y-94366666D02*
X113171333Y-94499999D01*
X113171333Y-94499999D02*
X113238000Y-94566666D01*
X113238000Y-94566666D02*
X113371333Y-94633332D01*
X113371333Y-94633332D02*
X113704666Y-94633332D01*
X113704666Y-94633332D02*
X113838000Y-94566666D01*
X113838000Y-94566666D02*
X113904666Y-94499999D01*
X113904666Y-94499999D02*
X113971333Y-94366666D01*
X113971333Y-94366666D02*
X113971333Y-94099999D01*
X113971333Y-94099999D02*
X113904666Y-93966666D01*
X113904666Y-93966666D02*
X113838000Y-93899999D01*
X113838000Y-93899999D02*
X113704666Y-93833332D01*
X113904666Y-95433332D02*
X113971333Y-95299999D01*
X113971333Y-95299999D02*
X114038000Y-95233332D01*
X114038000Y-95233332D02*
X114171333Y-95166665D01*
X114171333Y-95166665D02*
X114238000Y-95166665D01*
X114238000Y-95166665D02*
X114371333Y-95233332D01*
X114371333Y-95233332D02*
X114438000Y-95299999D01*
X114438000Y-95299999D02*
X114504666Y-95433332D01*
X114504666Y-95433332D02*
X114504666Y-95699999D01*
X114504666Y-95699999D02*
X114438000Y-95833332D01*
X114438000Y-95833332D02*
X114371333Y-95899999D01*
X114371333Y-95899999D02*
X114238000Y-95966665D01*
X114238000Y-95966665D02*
X114171333Y-95966665D01*
X114171333Y-95966665D02*
X114038000Y-95899999D01*
X114038000Y-95899999D02*
X113971333Y-95833332D01*
X113971333Y-95833332D02*
X113904666Y-95699999D01*
X113904666Y-95699999D02*
X113904666Y-95433332D01*
X113904666Y-95433332D02*
X113838000Y-95299999D01*
X113838000Y-95299999D02*
X113771333Y-95233332D01*
X113771333Y-95233332D02*
X113638000Y-95166665D01*
X113638000Y-95166665D02*
X113371333Y-95166665D01*
X113371333Y-95166665D02*
X113238000Y-95233332D01*
X113238000Y-95233332D02*
X113171333Y-95299999D01*
X113171333Y-95299999D02*
X113104666Y-95433332D01*
X113104666Y-95433332D02*
X113104666Y-95699999D01*
X113104666Y-95699999D02*
X113171333Y-95833332D01*
X113171333Y-95833332D02*
X113238000Y-95899999D01*
X113238000Y-95899999D02*
X113371333Y-95966665D01*
X113371333Y-95966665D02*
X113638000Y-95966665D01*
X113638000Y-95966665D02*
X113771333Y-95899999D01*
X113771333Y-95899999D02*
X113838000Y-95833332D01*
X113838000Y-95833332D02*
X113904666Y-95699999D01*
X114504666Y-96833332D02*
X114504666Y-96966665D01*
X114504666Y-96966665D02*
X114438000Y-97099998D01*
X114438000Y-97099998D02*
X114371333Y-97166665D01*
X114371333Y-97166665D02*
X114238000Y-97233332D01*
X114238000Y-97233332D02*
X113971333Y-97299998D01*
X113971333Y-97299998D02*
X113638000Y-97299998D01*
X113638000Y-97299998D02*
X113371333Y-97233332D01*
X113371333Y-97233332D02*
X113238000Y-97166665D01*
X113238000Y-97166665D02*
X113171333Y-97099998D01*
X113171333Y-97099998D02*
X113104666Y-96966665D01*
X113104666Y-96966665D02*
X113104666Y-96833332D01*
X113104666Y-96833332D02*
X113171333Y-96699998D01*
X113171333Y-96699998D02*
X113238000Y-96633332D01*
X113238000Y-96633332D02*
X113371333Y-96566665D01*
X113371333Y-96566665D02*
X113638000Y-96499998D01*
X113638000Y-96499998D02*
X113971333Y-96499998D01*
X113971333Y-96499998D02*
X114238000Y-96566665D01*
X114238000Y-96566665D02*
X114371333Y-96633332D01*
X114371333Y-96633332D02*
X114438000Y-96699998D01*
X114438000Y-96699998D02*
X114504666Y-96833332D01*
X113104666Y-97966665D02*
X113104666Y-98233331D01*
X113104666Y-98233331D02*
X113171333Y-98366665D01*
X113171333Y-98366665D02*
X113238000Y-98433331D01*
X113238000Y-98433331D02*
X113438000Y-98566665D01*
X113438000Y-98566665D02*
X113704666Y-98633331D01*
X113704666Y-98633331D02*
X114238000Y-98633331D01*
X114238000Y-98633331D02*
X114371333Y-98566665D01*
X114371333Y-98566665D02*
X114438000Y-98499998D01*
X114438000Y-98499998D02*
X114504666Y-98366665D01*
X114504666Y-98366665D02*
X114504666Y-98099998D01*
X114504666Y-98099998D02*
X114438000Y-97966665D01*
X114438000Y-97966665D02*
X114371333Y-97899998D01*
X114371333Y-97899998D02*
X114238000Y-97833331D01*
X114238000Y-97833331D02*
X113904666Y-97833331D01*
X113904666Y-97833331D02*
X113771333Y-97899998D01*
X113771333Y-97899998D02*
X113704666Y-97966665D01*
X113704666Y-97966665D02*
X113638000Y-98099998D01*
X113638000Y-98099998D02*
X113638000Y-98366665D01*
X113638000Y-98366665D02*
X113704666Y-98499998D01*
X113704666Y-98499998D02*
X113771333Y-98566665D01*
X113771333Y-98566665D02*
X113904666Y-98633331D01*
X113838000Y-99233331D02*
X113838000Y-99699998D01*
X113104666Y-99899998D02*
X113104666Y-99233331D01*
X113104666Y-99233331D02*
X114504666Y-99233331D01*
X114504666Y-99233331D02*
X114504666Y-99899998D01*
X113238000Y-102139998D02*
X113171333Y-102073331D01*
X113171333Y-102073331D02*
X113104666Y-101873331D01*
X113104666Y-101873331D02*
X113104666Y-101739998D01*
X113104666Y-101739998D02*
X113171333Y-101539998D01*
X113171333Y-101539998D02*
X113304666Y-101406665D01*
X113304666Y-101406665D02*
X113438000Y-101339998D01*
X113438000Y-101339998D02*
X113704666Y-101273331D01*
X113704666Y-101273331D02*
X113904666Y-101273331D01*
X113904666Y-101273331D02*
X114171333Y-101339998D01*
X114171333Y-101339998D02*
X114304666Y-101406665D01*
X114304666Y-101406665D02*
X114438000Y-101539998D01*
X114438000Y-101539998D02*
X114504666Y-101739998D01*
X114504666Y-101739998D02*
X114504666Y-101873331D01*
X114504666Y-101873331D02*
X114438000Y-102073331D01*
X114438000Y-102073331D02*
X114371333Y-102139998D01*
X113104666Y-102739998D02*
X114504666Y-102739998D01*
X114504666Y-102739998D02*
X114504666Y-103273331D01*
X114504666Y-103273331D02*
X114438000Y-103406665D01*
X114438000Y-103406665D02*
X114371333Y-103473331D01*
X114371333Y-103473331D02*
X114238000Y-103539998D01*
X114238000Y-103539998D02*
X114038000Y-103539998D01*
X114038000Y-103539998D02*
X113904666Y-103473331D01*
X113904666Y-103473331D02*
X113838000Y-103406665D01*
X113838000Y-103406665D02*
X113771333Y-103273331D01*
X113771333Y-103273331D02*
X113771333Y-102739998D01*
X114504666Y-104139998D02*
X113371333Y-104139998D01*
X113371333Y-104139998D02*
X113238000Y-104206665D01*
X113238000Y-104206665D02*
X113171333Y-104273331D01*
X113171333Y-104273331D02*
X113104666Y-104406665D01*
X113104666Y-104406665D02*
X113104666Y-104673331D01*
X113104666Y-104673331D02*
X113171333Y-104806665D01*
X113171333Y-104806665D02*
X113238000Y-104873331D01*
X113238000Y-104873331D02*
X113371333Y-104939998D01*
X113371333Y-104939998D02*
X114504666Y-104939998D01*
X114504666Y-105606665D02*
X114104666Y-105739998D01*
X114504666Y-106339998D02*
X114104666Y-106339998D01*
X114104666Y-106339998D02*
X113838000Y-106273332D01*
X113838000Y-106273332D02*
X113638000Y-106206665D01*
X113638000Y-106206665D02*
X113438000Y-106073332D01*
X113438000Y-106073332D02*
X113238000Y-105739998D01*
X114171333Y-107206665D02*
X114171333Y-107939999D01*
X114638000Y-107273332D02*
X114371333Y-107206665D01*
X114371333Y-107206665D02*
X114038000Y-107073332D01*
X114038000Y-107073332D02*
X113838000Y-107006665D01*
X114171333Y-107606665D02*
X113838000Y-107606665D01*
X113838000Y-107606665D02*
X113638000Y-107539999D01*
X113638000Y-107539999D02*
X113438000Y-107406665D01*
X113438000Y-107406665D02*
X113171333Y-107206665D01*
X114104666Y-108539999D02*
X113771333Y-108673332D01*
X114171333Y-108873332D02*
X113838000Y-108939999D01*
X114104666Y-109273332D02*
X113771333Y-109273332D01*
X113771333Y-109273332D02*
X113571333Y-109206666D01*
X113571333Y-109206666D02*
X113371333Y-109006666D01*
X113371333Y-109006666D02*
X113238000Y-108806666D01*
X114638000Y-110406666D02*
X113171333Y-110406666D01*
X114038000Y-110406666D02*
X113704666Y-110806666D01*
X114504666Y-111940000D02*
X114504666Y-112940000D01*
X114304666Y-111273333D02*
X114304666Y-111806666D01*
X114038000Y-111873333D02*
X114038000Y-113006666D01*
X113771333Y-111873333D02*
X113771333Y-113006666D01*
X113104666Y-111340000D02*
X113104666Y-111606666D01*
X114704666Y-111606666D02*
X113104666Y-111606666D01*
X114704666Y-112473333D02*
X114438000Y-112473333D01*
X114438000Y-112740000D02*
X114104666Y-112673333D01*
X114371333Y-112206666D02*
X114038000Y-112273333D01*
X114038000Y-112273333D02*
X113438000Y-112073333D01*
X113438000Y-112073333D02*
X113104666Y-112940000D01*
X113838000Y-111806666D02*
X113704666Y-111273333D01*
X113771333Y-112740000D02*
X113438000Y-112606666D01*
X113438000Y-112606666D02*
X113304666Y-112473333D01*
X113304666Y-112473333D02*
X113104666Y-111873333D01*
X114504666Y-114073333D02*
X114504666Y-115073333D01*
X114238000Y-114140000D02*
X114238000Y-114940000D01*
X113838000Y-113340000D02*
X113838000Y-113940000D01*
X113104666Y-114740000D02*
X113104666Y-115073333D01*
X113904666Y-113673333D02*
X113104666Y-113673333D01*
X114704666Y-114540000D02*
X114238000Y-114540000D01*
X113771333Y-114740000D02*
X113104666Y-114740000D01*
X113971333Y-114073333D02*
X113971333Y-115006667D01*
X113971333Y-115006667D02*
X113771333Y-115006667D01*
X113304666Y-115073333D02*
X113104666Y-115073333D01*
X114371333Y-113340000D02*
X114171333Y-113606667D01*
X114171333Y-113606667D02*
X113904666Y-113406667D01*
X113704666Y-113940000D02*
X113371333Y-113940000D01*
X114104666Y-113806667D02*
X113771333Y-113940000D01*
X114704666Y-113606667D02*
X114304666Y-113473333D01*
X114504666Y-113873333D02*
X114171333Y-113606667D01*
X113638000Y-113473333D02*
X113304666Y-113340000D01*
X113971333Y-114073333D02*
X113771333Y-114073333D01*
X113704666Y-114340000D02*
X113371333Y-114340000D01*
X113371333Y-114340000D02*
X113104666Y-114006667D01*
X114104666Y-115673334D02*
X114104666Y-117140000D01*
X113638000Y-115673334D02*
X113638000Y-117140000D01*
X113104666Y-116740000D02*
X113104666Y-117140000D01*
X114571333Y-116340000D02*
X113104666Y-116340000D01*
X114571333Y-115673334D02*
X114571333Y-117140000D01*
X114571333Y-117140000D02*
X113104666Y-117140000D01*
X114571333Y-115673334D02*
X113704666Y-115673334D01*
X113704666Y-115673334D02*
X113304666Y-115606667D01*
X160865238Y-93790476D02*
X160817619Y-93933333D01*
X160817619Y-93933333D02*
X160817619Y-94171428D01*
X160817619Y-94171428D02*
X160865238Y-94266666D01*
X160865238Y-94266666D02*
X160912857Y-94314285D01*
X160912857Y-94314285D02*
X161008095Y-94361904D01*
X161008095Y-94361904D02*
X161103333Y-94361904D01*
X161103333Y-94361904D02*
X161198571Y-94314285D01*
X161198571Y-94314285D02*
X161246190Y-94266666D01*
X161246190Y-94266666D02*
X161293809Y-94171428D01*
X161293809Y-94171428D02*
X161341428Y-93980952D01*
X161341428Y-93980952D02*
X161389047Y-93885714D01*
X161389047Y-93885714D02*
X161436666Y-93838095D01*
X161436666Y-93838095D02*
X161531904Y-93790476D01*
X161531904Y-93790476D02*
X161627142Y-93790476D01*
X161627142Y-93790476D02*
X161722380Y-93838095D01*
X161722380Y-93838095D02*
X161770000Y-93885714D01*
X161770000Y-93885714D02*
X161817619Y-93980952D01*
X161817619Y-93980952D02*
X161817619Y-94219047D01*
X161817619Y-94219047D02*
X161770000Y-94361904D01*
X161341428Y-95123809D02*
X161293809Y-95266666D01*
X161293809Y-95266666D02*
X161246190Y-95314285D01*
X161246190Y-95314285D02*
X161150952Y-95361904D01*
X161150952Y-95361904D02*
X161008095Y-95361904D01*
X161008095Y-95361904D02*
X160912857Y-95314285D01*
X160912857Y-95314285D02*
X160865238Y-95266666D01*
X160865238Y-95266666D02*
X160817619Y-95171428D01*
X160817619Y-95171428D02*
X160817619Y-94790476D01*
X160817619Y-94790476D02*
X161817619Y-94790476D01*
X161817619Y-94790476D02*
X161817619Y-95123809D01*
X161817619Y-95123809D02*
X161770000Y-95219047D01*
X161770000Y-95219047D02*
X161722380Y-95266666D01*
X161722380Y-95266666D02*
X161627142Y-95314285D01*
X161627142Y-95314285D02*
X161531904Y-95314285D01*
X161531904Y-95314285D02*
X161436666Y-95266666D01*
X161436666Y-95266666D02*
X161389047Y-95219047D01*
X161389047Y-95219047D02*
X161341428Y-95123809D01*
X161341428Y-95123809D02*
X161341428Y-94790476D01*
X160912857Y-96361904D02*
X160865238Y-96314285D01*
X160865238Y-96314285D02*
X160817619Y-96171428D01*
X160817619Y-96171428D02*
X160817619Y-96076190D01*
X160817619Y-96076190D02*
X160865238Y-95933333D01*
X160865238Y-95933333D02*
X160960476Y-95838095D01*
X160960476Y-95838095D02*
X161055714Y-95790476D01*
X161055714Y-95790476D02*
X161246190Y-95742857D01*
X161246190Y-95742857D02*
X161389047Y-95742857D01*
X161389047Y-95742857D02*
X161579523Y-95790476D01*
X161579523Y-95790476D02*
X161674761Y-95838095D01*
X161674761Y-95838095D02*
X161770000Y-95933333D01*
X161770000Y-95933333D02*
X161817619Y-96076190D01*
X161817619Y-96076190D02*
X161817619Y-96171428D01*
X161817619Y-96171428D02*
X161770000Y-96314285D01*
X161770000Y-96314285D02*
X161722380Y-96361904D01*
X161817619Y-97219047D02*
X161817619Y-97028571D01*
X161817619Y-97028571D02*
X161770000Y-96933333D01*
X161770000Y-96933333D02*
X161722380Y-96885714D01*
X161722380Y-96885714D02*
X161579523Y-96790476D01*
X161579523Y-96790476D02*
X161389047Y-96742857D01*
X161389047Y-96742857D02*
X161008095Y-96742857D01*
X161008095Y-96742857D02*
X160912857Y-96790476D01*
X160912857Y-96790476D02*
X160865238Y-96838095D01*
X160865238Y-96838095D02*
X160817619Y-96933333D01*
X160817619Y-96933333D02*
X160817619Y-97123809D01*
X160817619Y-97123809D02*
X160865238Y-97219047D01*
X160865238Y-97219047D02*
X160912857Y-97266666D01*
X160912857Y-97266666D02*
X161008095Y-97314285D01*
X161008095Y-97314285D02*
X161246190Y-97314285D01*
X161246190Y-97314285D02*
X161341428Y-97266666D01*
X161341428Y-97266666D02*
X161389047Y-97219047D01*
X161389047Y-97219047D02*
X161436666Y-97123809D01*
X161436666Y-97123809D02*
X161436666Y-96933333D01*
X161436666Y-96933333D02*
X161389047Y-96838095D01*
X161389047Y-96838095D02*
X161341428Y-96790476D01*
X161341428Y-96790476D02*
X161246190Y-96742857D01*
X161817619Y-97647619D02*
X161817619Y-98266666D01*
X161817619Y-98266666D02*
X161436666Y-97933333D01*
X161436666Y-97933333D02*
X161436666Y-98076190D01*
X161436666Y-98076190D02*
X161389047Y-98171428D01*
X161389047Y-98171428D02*
X161341428Y-98219047D01*
X161341428Y-98219047D02*
X161246190Y-98266666D01*
X161246190Y-98266666D02*
X161008095Y-98266666D01*
X161008095Y-98266666D02*
X160912857Y-98219047D01*
X160912857Y-98219047D02*
X160865238Y-98171428D01*
X160865238Y-98171428D02*
X160817619Y-98076190D01*
X160817619Y-98076190D02*
X160817619Y-97790476D01*
X160817619Y-97790476D02*
X160865238Y-97695238D01*
X160865238Y-97695238D02*
X160912857Y-97647619D01*
X161817619Y-98885714D02*
X161817619Y-98980952D01*
X161817619Y-98980952D02*
X161770000Y-99076190D01*
X161770000Y-99076190D02*
X161722380Y-99123809D01*
X161722380Y-99123809D02*
X161627142Y-99171428D01*
X161627142Y-99171428D02*
X161436666Y-99219047D01*
X161436666Y-99219047D02*
X161198571Y-99219047D01*
X161198571Y-99219047D02*
X161008095Y-99171428D01*
X161008095Y-99171428D02*
X160912857Y-99123809D01*
X160912857Y-99123809D02*
X160865238Y-99076190D01*
X160865238Y-99076190D02*
X160817619Y-98980952D01*
X160817619Y-98980952D02*
X160817619Y-98885714D01*
X160817619Y-98885714D02*
X160865238Y-98790476D01*
X160865238Y-98790476D02*
X160912857Y-98742857D01*
X160912857Y-98742857D02*
X161008095Y-98695238D01*
X161008095Y-98695238D02*
X161198571Y-98647619D01*
X161198571Y-98647619D02*
X161436666Y-98647619D01*
X161436666Y-98647619D02*
X161627142Y-98695238D01*
X161627142Y-98695238D02*
X161722380Y-98742857D01*
X161722380Y-98742857D02*
X161770000Y-98790476D01*
X161770000Y-98790476D02*
X161817619Y-98885714D01*
X161817619Y-99552381D02*
X161817619Y-100171428D01*
X161817619Y-100171428D02*
X161436666Y-99838095D01*
X161436666Y-99838095D02*
X161436666Y-99980952D01*
X161436666Y-99980952D02*
X161389047Y-100076190D01*
X161389047Y-100076190D02*
X161341428Y-100123809D01*
X161341428Y-100123809D02*
X161246190Y-100171428D01*
X161246190Y-100171428D02*
X161008095Y-100171428D01*
X161008095Y-100171428D02*
X160912857Y-100123809D01*
X160912857Y-100123809D02*
X160865238Y-100076190D01*
X160865238Y-100076190D02*
X160817619Y-99980952D01*
X160817619Y-99980952D02*
X160817619Y-99695238D01*
X160817619Y-99695238D02*
X160865238Y-99600000D01*
X160865238Y-99600000D02*
X160912857Y-99552381D01*
X161341428Y-101533333D02*
X161293809Y-101676190D01*
X161293809Y-101676190D02*
X161246190Y-101723809D01*
X161246190Y-101723809D02*
X161150952Y-101771428D01*
X161150952Y-101771428D02*
X161008095Y-101771428D01*
X161008095Y-101771428D02*
X160912857Y-101723809D01*
X160912857Y-101723809D02*
X160865238Y-101676190D01*
X160865238Y-101676190D02*
X160817619Y-101580952D01*
X160817619Y-101580952D02*
X160817619Y-101200000D01*
X160817619Y-101200000D02*
X161817619Y-101200000D01*
X161817619Y-101200000D02*
X161817619Y-101533333D01*
X161817619Y-101533333D02*
X161770000Y-101628571D01*
X161770000Y-101628571D02*
X161722380Y-101676190D01*
X161722380Y-101676190D02*
X161627142Y-101723809D01*
X161627142Y-101723809D02*
X161531904Y-101723809D01*
X161531904Y-101723809D02*
X161436666Y-101676190D01*
X161436666Y-101676190D02*
X161389047Y-101628571D01*
X161389047Y-101628571D02*
X161341428Y-101533333D01*
X161341428Y-101533333D02*
X161341428Y-101200000D01*
X161817619Y-102200000D02*
X161008095Y-102200000D01*
X161008095Y-102200000D02*
X160912857Y-102247619D01*
X160912857Y-102247619D02*
X160865238Y-102295238D01*
X160865238Y-102295238D02*
X160817619Y-102390476D01*
X160817619Y-102390476D02*
X160817619Y-102580952D01*
X160817619Y-102580952D02*
X160865238Y-102676190D01*
X160865238Y-102676190D02*
X160912857Y-102723809D01*
X160912857Y-102723809D02*
X161008095Y-102771428D01*
X161008095Y-102771428D02*
X161817619Y-102771428D01*
X160865238Y-103200000D02*
X160817619Y-103342857D01*
X160817619Y-103342857D02*
X160817619Y-103580952D01*
X160817619Y-103580952D02*
X160865238Y-103676190D01*
X160865238Y-103676190D02*
X160912857Y-103723809D01*
X160912857Y-103723809D02*
X161008095Y-103771428D01*
X161008095Y-103771428D02*
X161103333Y-103771428D01*
X161103333Y-103771428D02*
X161198571Y-103723809D01*
X161198571Y-103723809D02*
X161246190Y-103676190D01*
X161246190Y-103676190D02*
X161293809Y-103580952D01*
X161293809Y-103580952D02*
X161341428Y-103390476D01*
X161341428Y-103390476D02*
X161389047Y-103295238D01*
X161389047Y-103295238D02*
X161436666Y-103247619D01*
X161436666Y-103247619D02*
X161531904Y-103200000D01*
X161531904Y-103200000D02*
X161627142Y-103200000D01*
X161627142Y-103200000D02*
X161722380Y-103247619D01*
X161722380Y-103247619D02*
X161770000Y-103295238D01*
X161770000Y-103295238D02*
X161817619Y-103390476D01*
X161817619Y-103390476D02*
X161817619Y-103628571D01*
X161817619Y-103628571D02*
X161770000Y-103771428D01*
D11*
X118248928Y-81821428D02*
X119748928Y-81821428D01*
X119748928Y-81821428D02*
X118677500Y-82321428D01*
X118677500Y-82321428D02*
X119748928Y-82821428D01*
X119748928Y-82821428D02*
X118248928Y-82821428D01*
X118391785Y-84392857D02*
X118320357Y-84321429D01*
X118320357Y-84321429D02*
X118248928Y-84107143D01*
X118248928Y-84107143D02*
X118248928Y-83964286D01*
X118248928Y-83964286D02*
X118320357Y-83750000D01*
X118320357Y-83750000D02*
X118463214Y-83607143D01*
X118463214Y-83607143D02*
X118606071Y-83535714D01*
X118606071Y-83535714D02*
X118891785Y-83464286D01*
X118891785Y-83464286D02*
X119106071Y-83464286D01*
X119106071Y-83464286D02*
X119391785Y-83535714D01*
X119391785Y-83535714D02*
X119534642Y-83607143D01*
X119534642Y-83607143D02*
X119677500Y-83750000D01*
X119677500Y-83750000D02*
X119748928Y-83964286D01*
X119748928Y-83964286D02*
X119748928Y-84107143D01*
X119748928Y-84107143D02*
X119677500Y-84321429D01*
X119677500Y-84321429D02*
X119606071Y-84392857D01*
X119748928Y-85678572D02*
X119748928Y-85392857D01*
X119748928Y-85392857D02*
X119677500Y-85250000D01*
X119677500Y-85250000D02*
X119606071Y-85178572D01*
X119606071Y-85178572D02*
X119391785Y-85035714D01*
X119391785Y-85035714D02*
X119106071Y-84964286D01*
X119106071Y-84964286D02*
X118534642Y-84964286D01*
X118534642Y-84964286D02*
X118391785Y-85035714D01*
X118391785Y-85035714D02*
X118320357Y-85107143D01*
X118320357Y-85107143D02*
X118248928Y-85250000D01*
X118248928Y-85250000D02*
X118248928Y-85535714D01*
X118248928Y-85535714D02*
X118320357Y-85678572D01*
X118320357Y-85678572D02*
X118391785Y-85750000D01*
X118391785Y-85750000D02*
X118534642Y-85821429D01*
X118534642Y-85821429D02*
X118891785Y-85821429D01*
X118891785Y-85821429D02*
X119034642Y-85750000D01*
X119034642Y-85750000D02*
X119106071Y-85678572D01*
X119106071Y-85678572D02*
X119177500Y-85535714D01*
X119177500Y-85535714D02*
X119177500Y-85250000D01*
X119177500Y-85250000D02*
X119106071Y-85107143D01*
X119106071Y-85107143D02*
X119034642Y-85035714D01*
X119034642Y-85035714D02*
X118891785Y-84964286D01*
X119106071Y-86678571D02*
X119177500Y-86535714D01*
X119177500Y-86535714D02*
X119248928Y-86464285D01*
X119248928Y-86464285D02*
X119391785Y-86392857D01*
X119391785Y-86392857D02*
X119463214Y-86392857D01*
X119463214Y-86392857D02*
X119606071Y-86464285D01*
X119606071Y-86464285D02*
X119677500Y-86535714D01*
X119677500Y-86535714D02*
X119748928Y-86678571D01*
X119748928Y-86678571D02*
X119748928Y-86964285D01*
X119748928Y-86964285D02*
X119677500Y-87107143D01*
X119677500Y-87107143D02*
X119606071Y-87178571D01*
X119606071Y-87178571D02*
X119463214Y-87250000D01*
X119463214Y-87250000D02*
X119391785Y-87250000D01*
X119391785Y-87250000D02*
X119248928Y-87178571D01*
X119248928Y-87178571D02*
X119177500Y-87107143D01*
X119177500Y-87107143D02*
X119106071Y-86964285D01*
X119106071Y-86964285D02*
X119106071Y-86678571D01*
X119106071Y-86678571D02*
X119034642Y-86535714D01*
X119034642Y-86535714D02*
X118963214Y-86464285D01*
X118963214Y-86464285D02*
X118820357Y-86392857D01*
X118820357Y-86392857D02*
X118534642Y-86392857D01*
X118534642Y-86392857D02*
X118391785Y-86464285D01*
X118391785Y-86464285D02*
X118320357Y-86535714D01*
X118320357Y-86535714D02*
X118248928Y-86678571D01*
X118248928Y-86678571D02*
X118248928Y-86964285D01*
X118248928Y-86964285D02*
X118320357Y-87107143D01*
X118320357Y-87107143D02*
X118391785Y-87178571D01*
X118391785Y-87178571D02*
X118534642Y-87250000D01*
X118534642Y-87250000D02*
X118820357Y-87250000D01*
X118820357Y-87250000D02*
X118963214Y-87178571D01*
X118963214Y-87178571D02*
X119034642Y-87107143D01*
X119034642Y-87107143D02*
X119106071Y-86964285D01*
X119748928Y-88178571D02*
X119748928Y-88321428D01*
X119748928Y-88321428D02*
X119677500Y-88464285D01*
X119677500Y-88464285D02*
X119606071Y-88535714D01*
X119606071Y-88535714D02*
X119463214Y-88607142D01*
X119463214Y-88607142D02*
X119177500Y-88678571D01*
X119177500Y-88678571D02*
X118820357Y-88678571D01*
X118820357Y-88678571D02*
X118534642Y-88607142D01*
X118534642Y-88607142D02*
X118391785Y-88535714D01*
X118391785Y-88535714D02*
X118320357Y-88464285D01*
X118320357Y-88464285D02*
X118248928Y-88321428D01*
X118248928Y-88321428D02*
X118248928Y-88178571D01*
X118248928Y-88178571D02*
X118320357Y-88035714D01*
X118320357Y-88035714D02*
X118391785Y-87964285D01*
X118391785Y-87964285D02*
X118534642Y-87892856D01*
X118534642Y-87892856D02*
X118820357Y-87821428D01*
X118820357Y-87821428D02*
X119177500Y-87821428D01*
X119177500Y-87821428D02*
X119463214Y-87892856D01*
X119463214Y-87892856D02*
X119606071Y-87964285D01*
X119606071Y-87964285D02*
X119677500Y-88035714D01*
X119677500Y-88035714D02*
X119748928Y-88178571D01*
X118248928Y-89392856D02*
X118248928Y-89678570D01*
X118248928Y-89678570D02*
X118320357Y-89821427D01*
X118320357Y-89821427D02*
X118391785Y-89892856D01*
X118391785Y-89892856D02*
X118606071Y-90035713D01*
X118606071Y-90035713D02*
X118891785Y-90107142D01*
X118891785Y-90107142D02*
X119463214Y-90107142D01*
X119463214Y-90107142D02*
X119606071Y-90035713D01*
X119606071Y-90035713D02*
X119677500Y-89964285D01*
X119677500Y-89964285D02*
X119748928Y-89821427D01*
X119748928Y-89821427D02*
X119748928Y-89535713D01*
X119748928Y-89535713D02*
X119677500Y-89392856D01*
X119677500Y-89392856D02*
X119606071Y-89321427D01*
X119606071Y-89321427D02*
X119463214Y-89249999D01*
X119463214Y-89249999D02*
X119106071Y-89249999D01*
X119106071Y-89249999D02*
X118963214Y-89321427D01*
X118963214Y-89321427D02*
X118891785Y-89392856D01*
X118891785Y-89392856D02*
X118820357Y-89535713D01*
X118820357Y-89535713D02*
X118820357Y-89821427D01*
X118820357Y-89821427D02*
X118891785Y-89964285D01*
X118891785Y-89964285D02*
X118963214Y-90035713D01*
X118963214Y-90035713D02*
X119106071Y-90107142D01*
X119034642Y-90749998D02*
X119034642Y-91249998D01*
X118248928Y-91464284D02*
X118248928Y-90749998D01*
X118248928Y-90749998D02*
X119748928Y-90749998D01*
X119748928Y-90749998D02*
X119748928Y-91464284D01*
X119748928Y-93007141D02*
X119320357Y-93149999D01*
X119748928Y-93792856D02*
X119320357Y-93792856D01*
X119320357Y-93792856D02*
X119034642Y-93721427D01*
X119034642Y-93721427D02*
X118820357Y-93649999D01*
X118820357Y-93649999D02*
X118606071Y-93507141D01*
X118606071Y-93507141D02*
X118391785Y-93149999D01*
X119391785Y-94721428D02*
X119391785Y-95507142D01*
X119891785Y-94792856D02*
X119606071Y-94721428D01*
X119606071Y-94721428D02*
X119248928Y-94578570D01*
X119248928Y-94578570D02*
X119034642Y-94507142D01*
X119391785Y-95149999D02*
X119034642Y-95149999D01*
X119034642Y-95149999D02*
X118820357Y-95078570D01*
X118820357Y-95078570D02*
X118606071Y-94935713D01*
X118606071Y-94935713D02*
X118320357Y-94721428D01*
X119320357Y-96149999D02*
X118963214Y-96292857D01*
X119391785Y-96507142D02*
X119034642Y-96578571D01*
X119320357Y-96935714D02*
X118963214Y-96935714D01*
X118963214Y-96935714D02*
X118748928Y-96864285D01*
X118748928Y-96864285D02*
X118534642Y-96649999D01*
X118534642Y-96649999D02*
X118391785Y-96435714D01*
X119891785Y-98150000D02*
X118320357Y-98150000D01*
X119248928Y-98150000D02*
X118891785Y-98578571D01*
X148448928Y-94121428D02*
X149948928Y-94121428D01*
X149948928Y-94121428D02*
X148877500Y-94621428D01*
X148877500Y-94621428D02*
X149948928Y-95121428D01*
X149948928Y-95121428D02*
X148448928Y-95121428D01*
X148591785Y-96692857D02*
X148520357Y-96621429D01*
X148520357Y-96621429D02*
X148448928Y-96407143D01*
X148448928Y-96407143D02*
X148448928Y-96264286D01*
X148448928Y-96264286D02*
X148520357Y-96050000D01*
X148520357Y-96050000D02*
X148663214Y-95907143D01*
X148663214Y-95907143D02*
X148806071Y-95835714D01*
X148806071Y-95835714D02*
X149091785Y-95764286D01*
X149091785Y-95764286D02*
X149306071Y-95764286D01*
X149306071Y-95764286D02*
X149591785Y-95835714D01*
X149591785Y-95835714D02*
X149734642Y-95907143D01*
X149734642Y-95907143D02*
X149877500Y-96050000D01*
X149877500Y-96050000D02*
X149948928Y-96264286D01*
X149948928Y-96264286D02*
X149948928Y-96407143D01*
X149948928Y-96407143D02*
X149877500Y-96621429D01*
X149877500Y-96621429D02*
X149806071Y-96692857D01*
X149948928Y-97978572D02*
X149948928Y-97692857D01*
X149948928Y-97692857D02*
X149877500Y-97550000D01*
X149877500Y-97550000D02*
X149806071Y-97478572D01*
X149806071Y-97478572D02*
X149591785Y-97335714D01*
X149591785Y-97335714D02*
X149306071Y-97264286D01*
X149306071Y-97264286D02*
X148734642Y-97264286D01*
X148734642Y-97264286D02*
X148591785Y-97335714D01*
X148591785Y-97335714D02*
X148520357Y-97407143D01*
X148520357Y-97407143D02*
X148448928Y-97550000D01*
X148448928Y-97550000D02*
X148448928Y-97835714D01*
X148448928Y-97835714D02*
X148520357Y-97978572D01*
X148520357Y-97978572D02*
X148591785Y-98050000D01*
X148591785Y-98050000D02*
X148734642Y-98121429D01*
X148734642Y-98121429D02*
X149091785Y-98121429D01*
X149091785Y-98121429D02*
X149234642Y-98050000D01*
X149234642Y-98050000D02*
X149306071Y-97978572D01*
X149306071Y-97978572D02*
X149377500Y-97835714D01*
X149377500Y-97835714D02*
X149377500Y-97550000D01*
X149377500Y-97550000D02*
X149306071Y-97407143D01*
X149306071Y-97407143D02*
X149234642Y-97335714D01*
X149234642Y-97335714D02*
X149091785Y-97264286D01*
X149306071Y-98978571D02*
X149377500Y-98835714D01*
X149377500Y-98835714D02*
X149448928Y-98764285D01*
X149448928Y-98764285D02*
X149591785Y-98692857D01*
X149591785Y-98692857D02*
X149663214Y-98692857D01*
X149663214Y-98692857D02*
X149806071Y-98764285D01*
X149806071Y-98764285D02*
X149877500Y-98835714D01*
X149877500Y-98835714D02*
X149948928Y-98978571D01*
X149948928Y-98978571D02*
X149948928Y-99264285D01*
X149948928Y-99264285D02*
X149877500Y-99407143D01*
X149877500Y-99407143D02*
X149806071Y-99478571D01*
X149806071Y-99478571D02*
X149663214Y-99550000D01*
X149663214Y-99550000D02*
X149591785Y-99550000D01*
X149591785Y-99550000D02*
X149448928Y-99478571D01*
X149448928Y-99478571D02*
X149377500Y-99407143D01*
X149377500Y-99407143D02*
X149306071Y-99264285D01*
X149306071Y-99264285D02*
X149306071Y-98978571D01*
X149306071Y-98978571D02*
X149234642Y-98835714D01*
X149234642Y-98835714D02*
X149163214Y-98764285D01*
X149163214Y-98764285D02*
X149020357Y-98692857D01*
X149020357Y-98692857D02*
X148734642Y-98692857D01*
X148734642Y-98692857D02*
X148591785Y-98764285D01*
X148591785Y-98764285D02*
X148520357Y-98835714D01*
X148520357Y-98835714D02*
X148448928Y-98978571D01*
X148448928Y-98978571D02*
X148448928Y-99264285D01*
X148448928Y-99264285D02*
X148520357Y-99407143D01*
X148520357Y-99407143D02*
X148591785Y-99478571D01*
X148591785Y-99478571D02*
X148734642Y-99550000D01*
X148734642Y-99550000D02*
X149020357Y-99550000D01*
X149020357Y-99550000D02*
X149163214Y-99478571D01*
X149163214Y-99478571D02*
X149234642Y-99407143D01*
X149234642Y-99407143D02*
X149306071Y-99264285D01*
X149948928Y-100478571D02*
X149948928Y-100621428D01*
X149948928Y-100621428D02*
X149877500Y-100764285D01*
X149877500Y-100764285D02*
X149806071Y-100835714D01*
X149806071Y-100835714D02*
X149663214Y-100907142D01*
X149663214Y-100907142D02*
X149377500Y-100978571D01*
X149377500Y-100978571D02*
X149020357Y-100978571D01*
X149020357Y-100978571D02*
X148734642Y-100907142D01*
X148734642Y-100907142D02*
X148591785Y-100835714D01*
X148591785Y-100835714D02*
X148520357Y-100764285D01*
X148520357Y-100764285D02*
X148448928Y-100621428D01*
X148448928Y-100621428D02*
X148448928Y-100478571D01*
X148448928Y-100478571D02*
X148520357Y-100335714D01*
X148520357Y-100335714D02*
X148591785Y-100264285D01*
X148591785Y-100264285D02*
X148734642Y-100192856D01*
X148734642Y-100192856D02*
X149020357Y-100121428D01*
X149020357Y-100121428D02*
X149377500Y-100121428D01*
X149377500Y-100121428D02*
X149663214Y-100192856D01*
X149663214Y-100192856D02*
X149806071Y-100264285D01*
X149806071Y-100264285D02*
X149877500Y-100335714D01*
X149877500Y-100335714D02*
X149948928Y-100478571D01*
X149948928Y-101478570D02*
X149948928Y-102407142D01*
X149948928Y-102407142D02*
X149377500Y-101907142D01*
X149377500Y-101907142D02*
X149377500Y-102121427D01*
X149377500Y-102121427D02*
X149306071Y-102264285D01*
X149306071Y-102264285D02*
X149234642Y-102335713D01*
X149234642Y-102335713D02*
X149091785Y-102407142D01*
X149091785Y-102407142D02*
X148734642Y-102407142D01*
X148734642Y-102407142D02*
X148591785Y-102335713D01*
X148591785Y-102335713D02*
X148520357Y-102264285D01*
X148520357Y-102264285D02*
X148448928Y-102121427D01*
X148448928Y-102121427D02*
X148448928Y-101692856D01*
X148448928Y-101692856D02*
X148520357Y-101549999D01*
X148520357Y-101549999D02*
X148591785Y-101478570D01*
X149234642Y-103049998D02*
X149234642Y-103549998D01*
X148448928Y-103764284D02*
X148448928Y-103049998D01*
X148448928Y-103049998D02*
X149948928Y-103049998D01*
X149948928Y-103049998D02*
X149948928Y-103764284D01*
X148448928Y-104407141D02*
X149948928Y-104407141D01*
X149948928Y-104407141D02*
X149948928Y-104978570D01*
X149948928Y-104978570D02*
X149877500Y-105121427D01*
X149877500Y-105121427D02*
X149806071Y-105192856D01*
X149806071Y-105192856D02*
X149663214Y-105264284D01*
X149663214Y-105264284D02*
X149448928Y-105264284D01*
X149448928Y-105264284D02*
X149306071Y-105192856D01*
X149306071Y-105192856D02*
X149234642Y-105121427D01*
X149234642Y-105121427D02*
X149163214Y-104978570D01*
X149163214Y-104978570D02*
X149163214Y-104407141D01*
X148448928Y-106807141D02*
X149948928Y-106807141D01*
X149948928Y-106807141D02*
X148877500Y-107307141D01*
X148877500Y-107307141D02*
X149948928Y-107807141D01*
X149948928Y-107807141D02*
X148448928Y-107807141D01*
X148448928Y-108521427D02*
X149948928Y-108521427D01*
X149948928Y-108521427D02*
X149948928Y-109092856D01*
X149948928Y-109092856D02*
X149877500Y-109235713D01*
X149877500Y-109235713D02*
X149806071Y-109307142D01*
X149806071Y-109307142D02*
X149663214Y-109378570D01*
X149663214Y-109378570D02*
X149448928Y-109378570D01*
X149448928Y-109378570D02*
X149306071Y-109307142D01*
X149306071Y-109307142D02*
X149234642Y-109235713D01*
X149234642Y-109235713D02*
X149163214Y-109092856D01*
X149163214Y-109092856D02*
X149163214Y-108521427D01*
X149948928Y-110021427D02*
X148734642Y-110021427D01*
X148734642Y-110021427D02*
X148591785Y-110092856D01*
X148591785Y-110092856D02*
X148520357Y-110164285D01*
X148520357Y-110164285D02*
X148448928Y-110307142D01*
X148448928Y-110307142D02*
X148448928Y-110592856D01*
X148448928Y-110592856D02*
X148520357Y-110735713D01*
X148520357Y-110735713D02*
X148591785Y-110807142D01*
X148591785Y-110807142D02*
X148734642Y-110878570D01*
X148734642Y-110878570D02*
X149948928Y-110878570D01*
D10*
X107528571Y-126057380D02*
X107528571Y-125057380D01*
X107528571Y-125057380D02*
X107861904Y-125771666D01*
X107861904Y-125771666D02*
X108195237Y-125057380D01*
X108195237Y-125057380D02*
X108195237Y-126057380D01*
X109242856Y-125962142D02*
X109195237Y-126009761D01*
X109195237Y-126009761D02*
X109052380Y-126057380D01*
X109052380Y-126057380D02*
X108957142Y-126057380D01*
X108957142Y-126057380D02*
X108814285Y-126009761D01*
X108814285Y-126009761D02*
X108719047Y-125914523D01*
X108719047Y-125914523D02*
X108671428Y-125819285D01*
X108671428Y-125819285D02*
X108623809Y-125628809D01*
X108623809Y-125628809D02*
X108623809Y-125485952D01*
X108623809Y-125485952D02*
X108671428Y-125295476D01*
X108671428Y-125295476D02*
X108719047Y-125200238D01*
X108719047Y-125200238D02*
X108814285Y-125105000D01*
X108814285Y-125105000D02*
X108957142Y-125057380D01*
X108957142Y-125057380D02*
X109052380Y-125057380D01*
X109052380Y-125057380D02*
X109195237Y-125105000D01*
X109195237Y-125105000D02*
X109242856Y-125152619D01*
X110099999Y-125057380D02*
X109909523Y-125057380D01*
X109909523Y-125057380D02*
X109814285Y-125105000D01*
X109814285Y-125105000D02*
X109766666Y-125152619D01*
X109766666Y-125152619D02*
X109671428Y-125295476D01*
X109671428Y-125295476D02*
X109623809Y-125485952D01*
X109623809Y-125485952D02*
X109623809Y-125866904D01*
X109623809Y-125866904D02*
X109671428Y-125962142D01*
X109671428Y-125962142D02*
X109719047Y-126009761D01*
X109719047Y-126009761D02*
X109814285Y-126057380D01*
X109814285Y-126057380D02*
X110004761Y-126057380D01*
X110004761Y-126057380D02*
X110099999Y-126009761D01*
X110099999Y-126009761D02*
X110147618Y-125962142D01*
X110147618Y-125962142D02*
X110195237Y-125866904D01*
X110195237Y-125866904D02*
X110195237Y-125628809D01*
X110195237Y-125628809D02*
X110147618Y-125533571D01*
X110147618Y-125533571D02*
X110099999Y-125485952D01*
X110099999Y-125485952D02*
X110004761Y-125438333D01*
X110004761Y-125438333D02*
X109814285Y-125438333D01*
X109814285Y-125438333D02*
X109719047Y-125485952D01*
X109719047Y-125485952D02*
X109671428Y-125533571D01*
X109671428Y-125533571D02*
X109623809Y-125628809D01*
X110766666Y-125485952D02*
X110671428Y-125438333D01*
X110671428Y-125438333D02*
X110623809Y-125390714D01*
X110623809Y-125390714D02*
X110576190Y-125295476D01*
X110576190Y-125295476D02*
X110576190Y-125247857D01*
X110576190Y-125247857D02*
X110623809Y-125152619D01*
X110623809Y-125152619D02*
X110671428Y-125105000D01*
X110671428Y-125105000D02*
X110766666Y-125057380D01*
X110766666Y-125057380D02*
X110957142Y-125057380D01*
X110957142Y-125057380D02*
X111052380Y-125105000D01*
X111052380Y-125105000D02*
X111099999Y-125152619D01*
X111099999Y-125152619D02*
X111147618Y-125247857D01*
X111147618Y-125247857D02*
X111147618Y-125295476D01*
X111147618Y-125295476D02*
X111099999Y-125390714D01*
X111099999Y-125390714D02*
X111052380Y-125438333D01*
X111052380Y-125438333D02*
X110957142Y-125485952D01*
X110957142Y-125485952D02*
X110766666Y-125485952D01*
X110766666Y-125485952D02*
X110671428Y-125533571D01*
X110671428Y-125533571D02*
X110623809Y-125581190D01*
X110623809Y-125581190D02*
X110576190Y-125676428D01*
X110576190Y-125676428D02*
X110576190Y-125866904D01*
X110576190Y-125866904D02*
X110623809Y-125962142D01*
X110623809Y-125962142D02*
X110671428Y-126009761D01*
X110671428Y-126009761D02*
X110766666Y-126057380D01*
X110766666Y-126057380D02*
X110957142Y-126057380D01*
X110957142Y-126057380D02*
X111052380Y-126009761D01*
X111052380Y-126009761D02*
X111099999Y-125962142D01*
X111099999Y-125962142D02*
X111147618Y-125866904D01*
X111147618Y-125866904D02*
X111147618Y-125676428D01*
X111147618Y-125676428D02*
X111099999Y-125581190D01*
X111099999Y-125581190D02*
X111052380Y-125533571D01*
X111052380Y-125533571D02*
X110957142Y-125485952D01*
X111766666Y-125057380D02*
X111861904Y-125057380D01*
X111861904Y-125057380D02*
X111957142Y-125105000D01*
X111957142Y-125105000D02*
X112004761Y-125152619D01*
X112004761Y-125152619D02*
X112052380Y-125247857D01*
X112052380Y-125247857D02*
X112099999Y-125438333D01*
X112099999Y-125438333D02*
X112099999Y-125676428D01*
X112099999Y-125676428D02*
X112052380Y-125866904D01*
X112052380Y-125866904D02*
X112004761Y-125962142D01*
X112004761Y-125962142D02*
X111957142Y-126009761D01*
X111957142Y-126009761D02*
X111861904Y-126057380D01*
X111861904Y-126057380D02*
X111766666Y-126057380D01*
X111766666Y-126057380D02*
X111671428Y-126009761D01*
X111671428Y-126009761D02*
X111623809Y-125962142D01*
X111623809Y-125962142D02*
X111576190Y-125866904D01*
X111576190Y-125866904D02*
X111528571Y-125676428D01*
X111528571Y-125676428D02*
X111528571Y-125438333D01*
X111528571Y-125438333D02*
X111576190Y-125247857D01*
X111576190Y-125247857D02*
X111623809Y-125152619D01*
X111623809Y-125152619D02*
X111671428Y-125105000D01*
X111671428Y-125105000D02*
X111766666Y-125057380D01*
X112433333Y-125057380D02*
X113052380Y-125057380D01*
X113052380Y-125057380D02*
X112719047Y-125438333D01*
X112719047Y-125438333D02*
X112861904Y-125438333D01*
X112861904Y-125438333D02*
X112957142Y-125485952D01*
X112957142Y-125485952D02*
X113004761Y-125533571D01*
X113004761Y-125533571D02*
X113052380Y-125628809D01*
X113052380Y-125628809D02*
X113052380Y-125866904D01*
X113052380Y-125866904D02*
X113004761Y-125962142D01*
X113004761Y-125962142D02*
X112957142Y-126009761D01*
X112957142Y-126009761D02*
X112861904Y-126057380D01*
X112861904Y-126057380D02*
X112576190Y-126057380D01*
X112576190Y-126057380D02*
X112480952Y-126009761D01*
X112480952Y-126009761D02*
X112433333Y-125962142D01*
X113480952Y-125533571D02*
X113814285Y-125533571D01*
X113957142Y-126057380D02*
X113480952Y-126057380D01*
X113480952Y-126057380D02*
X113480952Y-125057380D01*
X113480952Y-125057380D02*
X113957142Y-125057380D01*
X114385714Y-126057380D02*
X114385714Y-125057380D01*
X114385714Y-125057380D02*
X114766666Y-125057380D01*
X114766666Y-125057380D02*
X114861904Y-125105000D01*
X114861904Y-125105000D02*
X114909523Y-125152619D01*
X114909523Y-125152619D02*
X114957142Y-125247857D01*
X114957142Y-125247857D02*
X114957142Y-125390714D01*
X114957142Y-125390714D02*
X114909523Y-125485952D01*
X114909523Y-125485952D02*
X114861904Y-125533571D01*
X114861904Y-125533571D02*
X114766666Y-125581190D01*
X114766666Y-125581190D02*
X114385714Y-125581190D01*
X115842857Y-125390714D02*
X116223809Y-125390714D01*
X115985714Y-126057380D02*
X115985714Y-125200238D01*
X115985714Y-125200238D02*
X116033333Y-125105000D01*
X116033333Y-125105000D02*
X116128571Y-125057380D01*
X116128571Y-125057380D02*
X116223809Y-125057380D01*
X116700000Y-126057380D02*
X116604762Y-126009761D01*
X116604762Y-126009761D02*
X116557143Y-125962142D01*
X116557143Y-125962142D02*
X116509524Y-125866904D01*
X116509524Y-125866904D02*
X116509524Y-125581190D01*
X116509524Y-125581190D02*
X116557143Y-125485952D01*
X116557143Y-125485952D02*
X116604762Y-125438333D01*
X116604762Y-125438333D02*
X116700000Y-125390714D01*
X116700000Y-125390714D02*
X116842857Y-125390714D01*
X116842857Y-125390714D02*
X116938095Y-125438333D01*
X116938095Y-125438333D02*
X116985714Y-125485952D01*
X116985714Y-125485952D02*
X117033333Y-125581190D01*
X117033333Y-125581190D02*
X117033333Y-125866904D01*
X117033333Y-125866904D02*
X116985714Y-125962142D01*
X116985714Y-125962142D02*
X116938095Y-126009761D01*
X116938095Y-126009761D02*
X116842857Y-126057380D01*
X116842857Y-126057380D02*
X116700000Y-126057380D01*
X117461905Y-126057380D02*
X117461905Y-125390714D01*
X117461905Y-125581190D02*
X117509524Y-125485952D01*
X117509524Y-125485952D02*
X117557143Y-125438333D01*
X117557143Y-125438333D02*
X117652381Y-125390714D01*
X117652381Y-125390714D02*
X117747619Y-125390714D01*
X118633334Y-126009761D02*
X118776191Y-126057380D01*
X118776191Y-126057380D02*
X119014286Y-126057380D01*
X119014286Y-126057380D02*
X119109524Y-126009761D01*
X119109524Y-126009761D02*
X119157143Y-125962142D01*
X119157143Y-125962142D02*
X119204762Y-125866904D01*
X119204762Y-125866904D02*
X119204762Y-125771666D01*
X119204762Y-125771666D02*
X119157143Y-125676428D01*
X119157143Y-125676428D02*
X119109524Y-125628809D01*
X119109524Y-125628809D02*
X119014286Y-125581190D01*
X119014286Y-125581190D02*
X118823810Y-125533571D01*
X118823810Y-125533571D02*
X118728572Y-125485952D01*
X118728572Y-125485952D02*
X118680953Y-125438333D01*
X118680953Y-125438333D02*
X118633334Y-125343095D01*
X118633334Y-125343095D02*
X118633334Y-125247857D01*
X118633334Y-125247857D02*
X118680953Y-125152619D01*
X118680953Y-125152619D02*
X118728572Y-125105000D01*
X118728572Y-125105000D02*
X118823810Y-125057380D01*
X118823810Y-125057380D02*
X119061905Y-125057380D01*
X119061905Y-125057380D02*
X119204762Y-125105000D01*
X119966667Y-125533571D02*
X120109524Y-125581190D01*
X120109524Y-125581190D02*
X120157143Y-125628809D01*
X120157143Y-125628809D02*
X120204762Y-125724047D01*
X120204762Y-125724047D02*
X120204762Y-125866904D01*
X120204762Y-125866904D02*
X120157143Y-125962142D01*
X120157143Y-125962142D02*
X120109524Y-126009761D01*
X120109524Y-126009761D02*
X120014286Y-126057380D01*
X120014286Y-126057380D02*
X119633334Y-126057380D01*
X119633334Y-126057380D02*
X119633334Y-125057380D01*
X119633334Y-125057380D02*
X119966667Y-125057380D01*
X119966667Y-125057380D02*
X120061905Y-125105000D01*
X120061905Y-125105000D02*
X120109524Y-125152619D01*
X120109524Y-125152619D02*
X120157143Y-125247857D01*
X120157143Y-125247857D02*
X120157143Y-125343095D01*
X120157143Y-125343095D02*
X120109524Y-125438333D01*
X120109524Y-125438333D02*
X120061905Y-125485952D01*
X120061905Y-125485952D02*
X119966667Y-125533571D01*
X119966667Y-125533571D02*
X119633334Y-125533571D01*
X121204762Y-125962142D02*
X121157143Y-126009761D01*
X121157143Y-126009761D02*
X121014286Y-126057380D01*
X121014286Y-126057380D02*
X120919048Y-126057380D01*
X120919048Y-126057380D02*
X120776191Y-126009761D01*
X120776191Y-126009761D02*
X120680953Y-125914523D01*
X120680953Y-125914523D02*
X120633334Y-125819285D01*
X120633334Y-125819285D02*
X120585715Y-125628809D01*
X120585715Y-125628809D02*
X120585715Y-125485952D01*
X120585715Y-125485952D02*
X120633334Y-125295476D01*
X120633334Y-125295476D02*
X120680953Y-125200238D01*
X120680953Y-125200238D02*
X120776191Y-125105000D01*
X120776191Y-125105000D02*
X120919048Y-125057380D01*
X120919048Y-125057380D02*
X121014286Y-125057380D01*
X121014286Y-125057380D02*
X121157143Y-125105000D01*
X121157143Y-125105000D02*
X121204762Y-125152619D01*
X122061905Y-125057380D02*
X121871429Y-125057380D01*
X121871429Y-125057380D02*
X121776191Y-125105000D01*
X121776191Y-125105000D02*
X121728572Y-125152619D01*
X121728572Y-125152619D02*
X121633334Y-125295476D01*
X121633334Y-125295476D02*
X121585715Y-125485952D01*
X121585715Y-125485952D02*
X121585715Y-125866904D01*
X121585715Y-125866904D02*
X121633334Y-125962142D01*
X121633334Y-125962142D02*
X121680953Y-126009761D01*
X121680953Y-126009761D02*
X121776191Y-126057380D01*
X121776191Y-126057380D02*
X121966667Y-126057380D01*
X121966667Y-126057380D02*
X122061905Y-126009761D01*
X122061905Y-126009761D02*
X122109524Y-125962142D01*
X122109524Y-125962142D02*
X122157143Y-125866904D01*
X122157143Y-125866904D02*
X122157143Y-125628809D01*
X122157143Y-125628809D02*
X122109524Y-125533571D01*
X122109524Y-125533571D02*
X122061905Y-125485952D01*
X122061905Y-125485952D02*
X121966667Y-125438333D01*
X121966667Y-125438333D02*
X121776191Y-125438333D01*
X121776191Y-125438333D02*
X121680953Y-125485952D01*
X121680953Y-125485952D02*
X121633334Y-125533571D01*
X121633334Y-125533571D02*
X121585715Y-125628809D01*
X122728572Y-125485952D02*
X122633334Y-125438333D01*
X122633334Y-125438333D02*
X122585715Y-125390714D01*
X122585715Y-125390714D02*
X122538096Y-125295476D01*
X122538096Y-125295476D02*
X122538096Y-125247857D01*
X122538096Y-125247857D02*
X122585715Y-125152619D01*
X122585715Y-125152619D02*
X122633334Y-125105000D01*
X122633334Y-125105000D02*
X122728572Y-125057380D01*
X122728572Y-125057380D02*
X122919048Y-125057380D01*
X122919048Y-125057380D02*
X123014286Y-125105000D01*
X123014286Y-125105000D02*
X123061905Y-125152619D01*
X123061905Y-125152619D02*
X123109524Y-125247857D01*
X123109524Y-125247857D02*
X123109524Y-125295476D01*
X123109524Y-125295476D02*
X123061905Y-125390714D01*
X123061905Y-125390714D02*
X123014286Y-125438333D01*
X123014286Y-125438333D02*
X122919048Y-125485952D01*
X122919048Y-125485952D02*
X122728572Y-125485952D01*
X122728572Y-125485952D02*
X122633334Y-125533571D01*
X122633334Y-125533571D02*
X122585715Y-125581190D01*
X122585715Y-125581190D02*
X122538096Y-125676428D01*
X122538096Y-125676428D02*
X122538096Y-125866904D01*
X122538096Y-125866904D02*
X122585715Y-125962142D01*
X122585715Y-125962142D02*
X122633334Y-126009761D01*
X122633334Y-126009761D02*
X122728572Y-126057380D01*
X122728572Y-126057380D02*
X122919048Y-126057380D01*
X122919048Y-126057380D02*
X123014286Y-126009761D01*
X123014286Y-126009761D02*
X123061905Y-125962142D01*
X123061905Y-125962142D02*
X123109524Y-125866904D01*
X123109524Y-125866904D02*
X123109524Y-125676428D01*
X123109524Y-125676428D02*
X123061905Y-125581190D01*
X123061905Y-125581190D02*
X123014286Y-125533571D01*
X123014286Y-125533571D02*
X122919048Y-125485952D01*
X123728572Y-125057380D02*
X123823810Y-125057380D01*
X123823810Y-125057380D02*
X123919048Y-125105000D01*
X123919048Y-125105000D02*
X123966667Y-125152619D01*
X123966667Y-125152619D02*
X124014286Y-125247857D01*
X124014286Y-125247857D02*
X124061905Y-125438333D01*
X124061905Y-125438333D02*
X124061905Y-125676428D01*
X124061905Y-125676428D02*
X124014286Y-125866904D01*
X124014286Y-125866904D02*
X123966667Y-125962142D01*
X123966667Y-125962142D02*
X123919048Y-126009761D01*
X123919048Y-126009761D02*
X123823810Y-126057380D01*
X123823810Y-126057380D02*
X123728572Y-126057380D01*
X123728572Y-126057380D02*
X123633334Y-126009761D01*
X123633334Y-126009761D02*
X123585715Y-125962142D01*
X123585715Y-125962142D02*
X123538096Y-125866904D01*
X123538096Y-125866904D02*
X123490477Y-125676428D01*
X123490477Y-125676428D02*
X123490477Y-125438333D01*
X123490477Y-125438333D02*
X123538096Y-125247857D01*
X123538096Y-125247857D02*
X123585715Y-125152619D01*
X123585715Y-125152619D02*
X123633334Y-125105000D01*
X123633334Y-125105000D02*
X123728572Y-125057380D01*
X124538096Y-126057380D02*
X124728572Y-126057380D01*
X124728572Y-126057380D02*
X124823810Y-126009761D01*
X124823810Y-126009761D02*
X124871429Y-125962142D01*
X124871429Y-125962142D02*
X124966667Y-125819285D01*
X124966667Y-125819285D02*
X125014286Y-125628809D01*
X125014286Y-125628809D02*
X125014286Y-125247857D01*
X125014286Y-125247857D02*
X124966667Y-125152619D01*
X124966667Y-125152619D02*
X124919048Y-125105000D01*
X124919048Y-125105000D02*
X124823810Y-125057380D01*
X124823810Y-125057380D02*
X124633334Y-125057380D01*
X124633334Y-125057380D02*
X124538096Y-125105000D01*
X124538096Y-125105000D02*
X124490477Y-125152619D01*
X124490477Y-125152619D02*
X124442858Y-125247857D01*
X124442858Y-125247857D02*
X124442858Y-125485952D01*
X124442858Y-125485952D02*
X124490477Y-125581190D01*
X124490477Y-125581190D02*
X124538096Y-125628809D01*
X124538096Y-125628809D02*
X124633334Y-125676428D01*
X124633334Y-125676428D02*
X124823810Y-125676428D01*
X124823810Y-125676428D02*
X124919048Y-125628809D01*
X124919048Y-125628809D02*
X124966667Y-125581190D01*
X124966667Y-125581190D02*
X125014286Y-125485952D01*
X125442858Y-125533571D02*
X125776191Y-125533571D01*
X125919048Y-126057380D02*
X125442858Y-126057380D01*
X125442858Y-126057380D02*
X125442858Y-125057380D01*
X125442858Y-125057380D02*
X125919048Y-125057380D01*
X111271429Y-127677380D02*
X111271429Y-126677380D01*
X111842857Y-127677380D02*
X111414286Y-127105952D01*
X111842857Y-126677380D02*
X111271429Y-127248809D01*
X112271429Y-126677380D02*
X112271429Y-127486904D01*
X112271429Y-127486904D02*
X112319048Y-127582142D01*
X112319048Y-127582142D02*
X112366667Y-127629761D01*
X112366667Y-127629761D02*
X112461905Y-127677380D01*
X112461905Y-127677380D02*
X112652381Y-127677380D01*
X112652381Y-127677380D02*
X112747619Y-127629761D01*
X112747619Y-127629761D02*
X112795238Y-127582142D01*
X112795238Y-127582142D02*
X112842857Y-127486904D01*
X112842857Y-127486904D02*
X112842857Y-126677380D01*
X113319048Y-127677380D02*
X113319048Y-126677380D01*
X113319048Y-126677380D02*
X113890476Y-127677380D01*
X113890476Y-127677380D02*
X113890476Y-126677380D01*
X114366667Y-127677380D02*
X114366667Y-126677380D01*
X114842857Y-127296428D02*
X115604762Y-127296428D01*
X116080952Y-127677380D02*
X116080952Y-126677380D01*
X116080952Y-126677380D02*
X116652380Y-127677380D01*
X116652380Y-127677380D02*
X116652380Y-126677380D01*
X117128571Y-127153571D02*
X117461904Y-127153571D01*
X117604761Y-127677380D02*
X117128571Y-127677380D01*
X117128571Y-127677380D02*
X117128571Y-126677380D01*
X117128571Y-126677380D02*
X117604761Y-126677380D01*
X117890476Y-126677380D02*
X118461904Y-126677380D01*
X118176190Y-127677380D02*
X118176190Y-126677380D01*
X119347619Y-126772619D02*
X119395238Y-126725000D01*
X119395238Y-126725000D02*
X119490476Y-126677380D01*
X119490476Y-126677380D02*
X119728571Y-126677380D01*
X119728571Y-126677380D02*
X119823809Y-126725000D01*
X119823809Y-126725000D02*
X119871428Y-126772619D01*
X119871428Y-126772619D02*
X119919047Y-126867857D01*
X119919047Y-126867857D02*
X119919047Y-126963095D01*
X119919047Y-126963095D02*
X119871428Y-127105952D01*
X119871428Y-127105952D02*
X119300000Y-127677380D01*
X119300000Y-127677380D02*
X119919047Y-127677380D01*
X120538095Y-126677380D02*
X120633333Y-126677380D01*
X120633333Y-126677380D02*
X120728571Y-126725000D01*
X120728571Y-126725000D02*
X120776190Y-126772619D01*
X120776190Y-126772619D02*
X120823809Y-126867857D01*
X120823809Y-126867857D02*
X120871428Y-127058333D01*
X120871428Y-127058333D02*
X120871428Y-127296428D01*
X120871428Y-127296428D02*
X120823809Y-127486904D01*
X120823809Y-127486904D02*
X120776190Y-127582142D01*
X120776190Y-127582142D02*
X120728571Y-127629761D01*
X120728571Y-127629761D02*
X120633333Y-127677380D01*
X120633333Y-127677380D02*
X120538095Y-127677380D01*
X120538095Y-127677380D02*
X120442857Y-127629761D01*
X120442857Y-127629761D02*
X120395238Y-127582142D01*
X120395238Y-127582142D02*
X120347619Y-127486904D01*
X120347619Y-127486904D02*
X120300000Y-127296428D01*
X120300000Y-127296428D02*
X120300000Y-127058333D01*
X120300000Y-127058333D02*
X120347619Y-126867857D01*
X120347619Y-126867857D02*
X120395238Y-126772619D01*
X120395238Y-126772619D02*
X120442857Y-126725000D01*
X120442857Y-126725000D02*
X120538095Y-126677380D01*
X121252381Y-126772619D02*
X121300000Y-126725000D01*
X121300000Y-126725000D02*
X121395238Y-126677380D01*
X121395238Y-126677380D02*
X121633333Y-126677380D01*
X121633333Y-126677380D02*
X121728571Y-126725000D01*
X121728571Y-126725000D02*
X121776190Y-126772619D01*
X121776190Y-126772619D02*
X121823809Y-126867857D01*
X121823809Y-126867857D02*
X121823809Y-126963095D01*
X121823809Y-126963095D02*
X121776190Y-127105952D01*
X121776190Y-127105952D02*
X121204762Y-127677380D01*
X121204762Y-127677380D02*
X121823809Y-127677380D01*
X122157143Y-126677380D02*
X122776190Y-126677380D01*
X122776190Y-126677380D02*
X122442857Y-127058333D01*
X122442857Y-127058333D02*
X122585714Y-127058333D01*
X122585714Y-127058333D02*
X122680952Y-127105952D01*
X122680952Y-127105952D02*
X122728571Y-127153571D01*
X122728571Y-127153571D02*
X122776190Y-127248809D01*
X122776190Y-127248809D02*
X122776190Y-127486904D01*
X122776190Y-127486904D02*
X122728571Y-127582142D01*
X122728571Y-127582142D02*
X122680952Y-127629761D01*
X122680952Y-127629761D02*
X122585714Y-127677380D01*
X122585714Y-127677380D02*
X122300000Y-127677380D01*
X122300000Y-127677380D02*
X122204762Y-127629761D01*
X122204762Y-127629761D02*
X122157143Y-127582142D01*
D11*
X134198928Y-77500000D02*
X134198928Y-78500000D01*
X134198928Y-78500000D02*
X132698928Y-77857143D01*
X133698928Y-79714286D02*
X132698928Y-79714286D01*
X134270357Y-79357143D02*
X133198928Y-79000000D01*
X133198928Y-79000000D02*
X133198928Y-79928571D01*
X132698928Y-80499999D02*
X134198928Y-80499999D01*
X133484642Y-80499999D02*
X133484642Y-81357142D01*
X132698928Y-81357142D02*
X134198928Y-81357142D01*
X132841785Y-82928571D02*
X132770357Y-82857143D01*
X132770357Y-82857143D02*
X132698928Y-82642857D01*
X132698928Y-82642857D02*
X132698928Y-82500000D01*
X132698928Y-82500000D02*
X132770357Y-82285714D01*
X132770357Y-82285714D02*
X132913214Y-82142857D01*
X132913214Y-82142857D02*
X133056071Y-82071428D01*
X133056071Y-82071428D02*
X133341785Y-82000000D01*
X133341785Y-82000000D02*
X133556071Y-82000000D01*
X133556071Y-82000000D02*
X133841785Y-82071428D01*
X133841785Y-82071428D02*
X133984642Y-82142857D01*
X133984642Y-82142857D02*
X134127500Y-82285714D01*
X134127500Y-82285714D02*
X134198928Y-82500000D01*
X134198928Y-82500000D02*
X134198928Y-82642857D01*
X134198928Y-82642857D02*
X134127500Y-82857143D01*
X134127500Y-82857143D02*
X134056071Y-82928571D01*
X134198928Y-83357143D02*
X134198928Y-84214286D01*
X132698928Y-83785714D02*
X134198928Y-83785714D01*
X134198928Y-85000000D02*
X134198928Y-85142857D01*
X134198928Y-85142857D02*
X134127500Y-85285714D01*
X134127500Y-85285714D02*
X134056071Y-85357143D01*
X134056071Y-85357143D02*
X133913214Y-85428571D01*
X133913214Y-85428571D02*
X133627500Y-85500000D01*
X133627500Y-85500000D02*
X133270357Y-85500000D01*
X133270357Y-85500000D02*
X132984642Y-85428571D01*
X132984642Y-85428571D02*
X132841785Y-85357143D01*
X132841785Y-85357143D02*
X132770357Y-85285714D01*
X132770357Y-85285714D02*
X132698928Y-85142857D01*
X132698928Y-85142857D02*
X132698928Y-85000000D01*
X132698928Y-85000000D02*
X132770357Y-84857143D01*
X132770357Y-84857143D02*
X132841785Y-84785714D01*
X132841785Y-84785714D02*
X132984642Y-84714285D01*
X132984642Y-84714285D02*
X133270357Y-84642857D01*
X133270357Y-84642857D02*
X133627500Y-84642857D01*
X133627500Y-84642857D02*
X133913214Y-84714285D01*
X133913214Y-84714285D02*
X134056071Y-84785714D01*
X134056071Y-84785714D02*
X134127500Y-84857143D01*
X134127500Y-84857143D02*
X134198928Y-85000000D01*
X134056071Y-86071428D02*
X134127500Y-86142856D01*
X134127500Y-86142856D02*
X134198928Y-86285714D01*
X134198928Y-86285714D02*
X134198928Y-86642856D01*
X134198928Y-86642856D02*
X134127500Y-86785714D01*
X134127500Y-86785714D02*
X134056071Y-86857142D01*
X134056071Y-86857142D02*
X133913214Y-86928571D01*
X133913214Y-86928571D02*
X133770357Y-86928571D01*
X133770357Y-86928571D02*
X133556071Y-86857142D01*
X133556071Y-86857142D02*
X132698928Y-85999999D01*
X132698928Y-85999999D02*
X132698928Y-86928571D01*
X134448928Y-103535715D02*
X134448928Y-104535715D01*
X134448928Y-104535715D02*
X132948928Y-103892858D01*
X133948928Y-105750001D02*
X132948928Y-105750001D01*
X134520357Y-105392858D02*
X133448928Y-105035715D01*
X133448928Y-105035715D02*
X133448928Y-105964286D01*
X132948928Y-106535714D02*
X134448928Y-106535714D01*
X133734642Y-106535714D02*
X133734642Y-107392857D01*
X132948928Y-107392857D02*
X134448928Y-107392857D01*
X133091785Y-108964286D02*
X133020357Y-108892858D01*
X133020357Y-108892858D02*
X132948928Y-108678572D01*
X132948928Y-108678572D02*
X132948928Y-108535715D01*
X132948928Y-108535715D02*
X133020357Y-108321429D01*
X133020357Y-108321429D02*
X133163214Y-108178572D01*
X133163214Y-108178572D02*
X133306071Y-108107143D01*
X133306071Y-108107143D02*
X133591785Y-108035715D01*
X133591785Y-108035715D02*
X133806071Y-108035715D01*
X133806071Y-108035715D02*
X134091785Y-108107143D01*
X134091785Y-108107143D02*
X134234642Y-108178572D01*
X134234642Y-108178572D02*
X134377500Y-108321429D01*
X134377500Y-108321429D02*
X134448928Y-108535715D01*
X134448928Y-108535715D02*
X134448928Y-108678572D01*
X134448928Y-108678572D02*
X134377500Y-108892858D01*
X134377500Y-108892858D02*
X134306071Y-108964286D01*
X134448928Y-109392858D02*
X134448928Y-110250001D01*
X132948928Y-109821429D02*
X134448928Y-109821429D01*
X134448928Y-111464286D02*
X134448928Y-110750000D01*
X134448928Y-110750000D02*
X133734642Y-110678572D01*
X133734642Y-110678572D02*
X133806071Y-110750000D01*
X133806071Y-110750000D02*
X133877500Y-110892858D01*
X133877500Y-110892858D02*
X133877500Y-111250000D01*
X133877500Y-111250000D02*
X133806071Y-111392858D01*
X133806071Y-111392858D02*
X133734642Y-111464286D01*
X133734642Y-111464286D02*
X133591785Y-111535715D01*
X133591785Y-111535715D02*
X133234642Y-111535715D01*
X133234642Y-111535715D02*
X133091785Y-111464286D01*
X133091785Y-111464286D02*
X133020357Y-111392858D01*
X133020357Y-111392858D02*
X132948928Y-111250000D01*
X132948928Y-111250000D02*
X132948928Y-110892858D01*
X132948928Y-110892858D02*
X133020357Y-110750000D01*
X133020357Y-110750000D02*
X133091785Y-110678572D01*
X134448928Y-112035714D02*
X134448928Y-113035714D01*
X134448928Y-113035714D02*
X132948928Y-112392857D01*
X134448928Y-113464285D02*
X134448928Y-114392857D01*
X134448928Y-114392857D02*
X133877500Y-113892857D01*
X133877500Y-113892857D02*
X133877500Y-114107142D01*
X133877500Y-114107142D02*
X133806071Y-114250000D01*
X133806071Y-114250000D02*
X133734642Y-114321428D01*
X133734642Y-114321428D02*
X133591785Y-114392857D01*
X133591785Y-114392857D02*
X133234642Y-114392857D01*
X133234642Y-114392857D02*
X133091785Y-114321428D01*
X133091785Y-114321428D02*
X133020357Y-114250000D01*
X133020357Y-114250000D02*
X132948928Y-114107142D01*
X132948928Y-114107142D02*
X132948928Y-113678571D01*
X132948928Y-113678571D02*
X133020357Y-113535714D01*
X133020357Y-113535714D02*
X133091785Y-113464285D01*
D10*
X128738095Y-72287380D02*
X128738095Y-73096904D01*
X128738095Y-73096904D02*
X128785714Y-73192142D01*
X128785714Y-73192142D02*
X128833333Y-73239761D01*
X128833333Y-73239761D02*
X128928571Y-73287380D01*
X128928571Y-73287380D02*
X129119047Y-73287380D01*
X129119047Y-73287380D02*
X129214285Y-73239761D01*
X129214285Y-73239761D02*
X129261904Y-73192142D01*
X129261904Y-73192142D02*
X129309523Y-73096904D01*
X129309523Y-73096904D02*
X129309523Y-72287380D01*
X129738095Y-72382619D02*
X129785714Y-72335000D01*
X129785714Y-72335000D02*
X129880952Y-72287380D01*
X129880952Y-72287380D02*
X130119047Y-72287380D01*
X130119047Y-72287380D02*
X130214285Y-72335000D01*
X130214285Y-72335000D02*
X130261904Y-72382619D01*
X130261904Y-72382619D02*
X130309523Y-72477857D01*
X130309523Y-72477857D02*
X130309523Y-72573095D01*
X130309523Y-72573095D02*
X130261904Y-72715952D01*
X130261904Y-72715952D02*
X129690476Y-73287380D01*
X129690476Y-73287380D02*
X130309523Y-73287380D01*
X148267380Y-128133333D02*
X148981666Y-128133333D01*
X148981666Y-128133333D02*
X149124523Y-128180952D01*
X149124523Y-128180952D02*
X149219761Y-128276190D01*
X149219761Y-128276190D02*
X149267380Y-128419047D01*
X149267380Y-128419047D02*
X149267380Y-128514285D01*
X149267380Y-127133333D02*
X149267380Y-127704761D01*
X149267380Y-127419047D02*
X148267380Y-127419047D01*
X148267380Y-127419047D02*
X148410238Y-127514285D01*
X148410238Y-127514285D02*
X148505476Y-127609523D01*
X148505476Y-127609523D02*
X148553095Y-127704761D01*
X116358095Y-70287380D02*
X116358095Y-71096904D01*
X116358095Y-71096904D02*
X116405714Y-71192142D01*
X116405714Y-71192142D02*
X116453333Y-71239761D01*
X116453333Y-71239761D02*
X116548571Y-71287380D01*
X116548571Y-71287380D02*
X116739047Y-71287380D01*
X116739047Y-71287380D02*
X116834285Y-71239761D01*
X116834285Y-71239761D02*
X116881904Y-71192142D01*
X116881904Y-71192142D02*
X116929523Y-71096904D01*
X116929523Y-71096904D02*
X116929523Y-70287380D01*
X117929523Y-71287380D02*
X117358095Y-71287380D01*
X117643809Y-71287380D02*
X117643809Y-70287380D01*
X117643809Y-70287380D02*
X117548571Y-70430238D01*
X117548571Y-70430238D02*
X117453333Y-70525476D01*
X117453333Y-70525476D02*
X117358095Y-70573095D01*
X148733095Y-70162380D02*
X148733095Y-70971904D01*
X148733095Y-70971904D02*
X148780714Y-71067142D01*
X148780714Y-71067142D02*
X148828333Y-71114761D01*
X148828333Y-71114761D02*
X148923571Y-71162380D01*
X148923571Y-71162380D02*
X149114047Y-71162380D01*
X149114047Y-71162380D02*
X149209285Y-71114761D01*
X149209285Y-71114761D02*
X149256904Y-71067142D01*
X149256904Y-71067142D02*
X149304523Y-70971904D01*
X149304523Y-70971904D02*
X149304523Y-70162380D01*
X149685476Y-70162380D02*
X150304523Y-70162380D01*
X150304523Y-70162380D02*
X149971190Y-70543333D01*
X149971190Y-70543333D02*
X150114047Y-70543333D01*
X150114047Y-70543333D02*
X150209285Y-70590952D01*
X150209285Y-70590952D02*
X150256904Y-70638571D01*
X150256904Y-70638571D02*
X150304523Y-70733809D01*
X150304523Y-70733809D02*
X150304523Y-70971904D01*
X150304523Y-70971904D02*
X150256904Y-71067142D01*
X150256904Y-71067142D02*
X150209285Y-71114761D01*
X150209285Y-71114761D02*
X150114047Y-71162380D01*
X150114047Y-71162380D02*
X149828333Y-71162380D01*
X149828333Y-71162380D02*
X149733095Y-71114761D01*
X149733095Y-71114761D02*
X149685476Y-71067142D01*
X147333333Y-86522142D02*
X147285714Y-86569761D01*
X147285714Y-86569761D02*
X147142857Y-86617380D01*
X147142857Y-86617380D02*
X147047619Y-86617380D01*
X147047619Y-86617380D02*
X146904762Y-86569761D01*
X146904762Y-86569761D02*
X146809524Y-86474523D01*
X146809524Y-86474523D02*
X146761905Y-86379285D01*
X146761905Y-86379285D02*
X146714286Y-86188809D01*
X146714286Y-86188809D02*
X146714286Y-86045952D01*
X146714286Y-86045952D02*
X146761905Y-85855476D01*
X146761905Y-85855476D02*
X146809524Y-85760238D01*
X146809524Y-85760238D02*
X146904762Y-85665000D01*
X146904762Y-85665000D02*
X147047619Y-85617380D01*
X147047619Y-85617380D02*
X147142857Y-85617380D01*
X147142857Y-85617380D02*
X147285714Y-85665000D01*
X147285714Y-85665000D02*
X147333333Y-85712619D01*
X147666667Y-85617380D02*
X148285714Y-85617380D01*
X148285714Y-85617380D02*
X147952381Y-85998333D01*
X147952381Y-85998333D02*
X148095238Y-85998333D01*
X148095238Y-85998333D02*
X148190476Y-86045952D01*
X148190476Y-86045952D02*
X148238095Y-86093571D01*
X148238095Y-86093571D02*
X148285714Y-86188809D01*
X148285714Y-86188809D02*
X148285714Y-86426904D01*
X148285714Y-86426904D02*
X148238095Y-86522142D01*
X148238095Y-86522142D02*
X148190476Y-86569761D01*
X148190476Y-86569761D02*
X148095238Y-86617380D01*
X148095238Y-86617380D02*
X147809524Y-86617380D01*
X147809524Y-86617380D02*
X147714286Y-86569761D01*
X147714286Y-86569761D02*
X147666667Y-86522142D01*
X129238095Y-94367380D02*
X129238095Y-95176904D01*
X129238095Y-95176904D02*
X129285714Y-95272142D01*
X129285714Y-95272142D02*
X129333333Y-95319761D01*
X129333333Y-95319761D02*
X129428571Y-95367380D01*
X129428571Y-95367380D02*
X129619047Y-95367380D01*
X129619047Y-95367380D02*
X129714285Y-95319761D01*
X129714285Y-95319761D02*
X129761904Y-95272142D01*
X129761904Y-95272142D02*
X129809523Y-95176904D01*
X129809523Y-95176904D02*
X129809523Y-94367380D01*
X130714285Y-94700714D02*
X130714285Y-95367380D01*
X130476190Y-94319761D02*
X130238095Y-95034047D01*
X130238095Y-95034047D02*
X130857142Y-95034047D01*
X133133333Y-94422142D02*
X133085714Y-94469761D01*
X133085714Y-94469761D02*
X132942857Y-94517380D01*
X132942857Y-94517380D02*
X132847619Y-94517380D01*
X132847619Y-94517380D02*
X132704762Y-94469761D01*
X132704762Y-94469761D02*
X132609524Y-94374523D01*
X132609524Y-94374523D02*
X132561905Y-94279285D01*
X132561905Y-94279285D02*
X132514286Y-94088809D01*
X132514286Y-94088809D02*
X132514286Y-93945952D01*
X132514286Y-93945952D02*
X132561905Y-93755476D01*
X132561905Y-93755476D02*
X132609524Y-93660238D01*
X132609524Y-93660238D02*
X132704762Y-93565000D01*
X132704762Y-93565000D02*
X132847619Y-93517380D01*
X132847619Y-93517380D02*
X132942857Y-93517380D01*
X132942857Y-93517380D02*
X133085714Y-93565000D01*
X133085714Y-93565000D02*
X133133333Y-93612619D01*
X134085714Y-94517380D02*
X133514286Y-94517380D01*
X133800000Y-94517380D02*
X133800000Y-93517380D01*
X133800000Y-93517380D02*
X133704762Y-93660238D01*
X133704762Y-93660238D02*
X133609524Y-93755476D01*
X133609524Y-93755476D02*
X133514286Y-93803095D01*
X132698333Y-72647142D02*
X132650714Y-72694761D01*
X132650714Y-72694761D02*
X132507857Y-72742380D01*
X132507857Y-72742380D02*
X132412619Y-72742380D01*
X132412619Y-72742380D02*
X132269762Y-72694761D01*
X132269762Y-72694761D02*
X132174524Y-72599523D01*
X132174524Y-72599523D02*
X132126905Y-72504285D01*
X132126905Y-72504285D02*
X132079286Y-72313809D01*
X132079286Y-72313809D02*
X132079286Y-72170952D01*
X132079286Y-72170952D02*
X132126905Y-71980476D01*
X132126905Y-71980476D02*
X132174524Y-71885238D01*
X132174524Y-71885238D02*
X132269762Y-71790000D01*
X132269762Y-71790000D02*
X132412619Y-71742380D01*
X132412619Y-71742380D02*
X132507857Y-71742380D01*
X132507857Y-71742380D02*
X132650714Y-71790000D01*
X132650714Y-71790000D02*
X132698333Y-71837619D01*
X133079286Y-71837619D02*
X133126905Y-71790000D01*
X133126905Y-71790000D02*
X133222143Y-71742380D01*
X133222143Y-71742380D02*
X133460238Y-71742380D01*
X133460238Y-71742380D02*
X133555476Y-71790000D01*
X133555476Y-71790000D02*
X133603095Y-71837619D01*
X133603095Y-71837619D02*
X133650714Y-71932857D01*
X133650714Y-71932857D02*
X133650714Y-72028095D01*
X133650714Y-72028095D02*
X133603095Y-72170952D01*
X133603095Y-72170952D02*
X133031667Y-72742380D01*
X133031667Y-72742380D02*
X133650714Y-72742380D01*
X169151666Y-69487380D02*
X169151666Y-70201666D01*
X169151666Y-70201666D02*
X169104047Y-70344523D01*
X169104047Y-70344523D02*
X169008809Y-70439761D01*
X169008809Y-70439761D02*
X168865952Y-70487380D01*
X168865952Y-70487380D02*
X168770714Y-70487380D01*
X169532619Y-69487380D02*
X170151666Y-69487380D01*
X170151666Y-69487380D02*
X169818333Y-69868333D01*
X169818333Y-69868333D02*
X169961190Y-69868333D01*
X169961190Y-69868333D02*
X170056428Y-69915952D01*
X170056428Y-69915952D02*
X170104047Y-69963571D01*
X170104047Y-69963571D02*
X170151666Y-70058809D01*
X170151666Y-70058809D02*
X170151666Y-70296904D01*
X170151666Y-70296904D02*
X170104047Y-70392142D01*
X170104047Y-70392142D02*
X170056428Y-70439761D01*
X170056428Y-70439761D02*
X169961190Y-70487380D01*
X169961190Y-70487380D02*
X169675476Y-70487380D01*
X169675476Y-70487380D02*
X169580238Y-70439761D01*
X169580238Y-70439761D02*
X169532619Y-70392142D01*
X152277380Y-105246666D02*
X151801190Y-105579999D01*
X152277380Y-105818094D02*
X151277380Y-105818094D01*
X151277380Y-105818094D02*
X151277380Y-105437142D01*
X151277380Y-105437142D02*
X151325000Y-105341904D01*
X151325000Y-105341904D02*
X151372619Y-105294285D01*
X151372619Y-105294285D02*
X151467857Y-105246666D01*
X151467857Y-105246666D02*
X151610714Y-105246666D01*
X151610714Y-105246666D02*
X151705952Y-105294285D01*
X151705952Y-105294285D02*
X151753571Y-105341904D01*
X151753571Y-105341904D02*
X151801190Y-105437142D01*
X151801190Y-105437142D02*
X151801190Y-105818094D01*
X151372619Y-104865713D02*
X151325000Y-104818094D01*
X151325000Y-104818094D02*
X151277380Y-104722856D01*
X151277380Y-104722856D02*
X151277380Y-104484761D01*
X151277380Y-104484761D02*
X151325000Y-104389523D01*
X151325000Y-104389523D02*
X151372619Y-104341904D01*
X151372619Y-104341904D02*
X151467857Y-104294285D01*
X151467857Y-104294285D02*
X151563095Y-104294285D01*
X151563095Y-104294285D02*
X151705952Y-104341904D01*
X151705952Y-104341904D02*
X152277380Y-104913332D01*
X152277380Y-104913332D02*
X152277380Y-104294285D01*
X152517380Y-81666666D02*
X152041190Y-81999999D01*
X152517380Y-82238094D02*
X151517380Y-82238094D01*
X151517380Y-82238094D02*
X151517380Y-81857142D01*
X151517380Y-81857142D02*
X151565000Y-81761904D01*
X151565000Y-81761904D02*
X151612619Y-81714285D01*
X151612619Y-81714285D02*
X151707857Y-81666666D01*
X151707857Y-81666666D02*
X151850714Y-81666666D01*
X151850714Y-81666666D02*
X151945952Y-81714285D01*
X151945952Y-81714285D02*
X151993571Y-81761904D01*
X151993571Y-81761904D02*
X152041190Y-81857142D01*
X152041190Y-81857142D02*
X152041190Y-82238094D01*
X152517380Y-80714285D02*
X152517380Y-81285713D01*
X152517380Y-80999999D02*
X151517380Y-80999999D01*
X151517380Y-80999999D02*
X151660238Y-81095237D01*
X151660238Y-81095237D02*
X151755476Y-81190475D01*
X151755476Y-81190475D02*
X151803095Y-81285713D01*
X146867380Y-105166666D02*
X146391190Y-105499999D01*
X146867380Y-105738094D02*
X145867380Y-105738094D01*
X145867380Y-105738094D02*
X145867380Y-105357142D01*
X145867380Y-105357142D02*
X145915000Y-105261904D01*
X145915000Y-105261904D02*
X145962619Y-105214285D01*
X145962619Y-105214285D02*
X146057857Y-105166666D01*
X146057857Y-105166666D02*
X146200714Y-105166666D01*
X146200714Y-105166666D02*
X146295952Y-105214285D01*
X146295952Y-105214285D02*
X146343571Y-105261904D01*
X146343571Y-105261904D02*
X146391190Y-105357142D01*
X146391190Y-105357142D02*
X146391190Y-105738094D01*
X145867380Y-104833332D02*
X145867380Y-104214285D01*
X145867380Y-104214285D02*
X146248333Y-104547618D01*
X146248333Y-104547618D02*
X146248333Y-104404761D01*
X146248333Y-104404761D02*
X146295952Y-104309523D01*
X146295952Y-104309523D02*
X146343571Y-104261904D01*
X146343571Y-104261904D02*
X146438809Y-104214285D01*
X146438809Y-104214285D02*
X146676904Y-104214285D01*
X146676904Y-104214285D02*
X146772142Y-104261904D01*
X146772142Y-104261904D02*
X146819761Y-104309523D01*
X146819761Y-104309523D02*
X146867380Y-104404761D01*
X146867380Y-104404761D02*
X146867380Y-104690475D01*
X146867380Y-104690475D02*
X146819761Y-104785713D01*
X146819761Y-104785713D02*
X146772142Y-104833332D01*
X166867380Y-128233333D02*
X167581666Y-128233333D01*
X167581666Y-128233333D02*
X167724523Y-128280952D01*
X167724523Y-128280952D02*
X167819761Y-128376190D01*
X167819761Y-128376190D02*
X167867380Y-128519047D01*
X167867380Y-128519047D02*
X167867380Y-128614285D01*
X166962619Y-127804761D02*
X166915000Y-127757142D01*
X166915000Y-127757142D02*
X166867380Y-127661904D01*
X166867380Y-127661904D02*
X166867380Y-127423809D01*
X166867380Y-127423809D02*
X166915000Y-127328571D01*
X166915000Y-127328571D02*
X166962619Y-127280952D01*
X166962619Y-127280952D02*
X167057857Y-127233333D01*
X167057857Y-127233333D02*
X167153095Y-127233333D01*
X167153095Y-127233333D02*
X167295952Y-127280952D01*
X167295952Y-127280952D02*
X167867380Y-127852380D01*
X167867380Y-127852380D02*
X167867380Y-127233333D01*
D12*
X128420000Y-73860000D02*
X128420000Y-91880000D01*
X128420000Y-91880000D02*
X138700000Y-91880000D01*
X130910000Y-73920000D02*
X130910000Y-91820000D01*
X130910000Y-91820000D02*
X136210000Y-91820000D01*
X132560000Y-73920000D02*
X130910000Y-73920000D01*
X136210000Y-73920000D02*
X134560000Y-73920000D01*
X136210000Y-91820000D02*
X136210000Y-73920000D01*
X138700000Y-73860000D02*
X128420000Y-73860000D01*
X138700000Y-91880000D02*
X138700000Y-73860000D01*
X132560000Y-73920000D02*
G75*
G03*
X134560000Y-73920000I1000000J0D01*
G01*
X147745000Y-123655000D02*
X147745000Y-124925000D01*
X146475000Y-123655000D02*
X147745000Y-123655000D01*
X144315000Y-125967929D02*
X144315000Y-126365000D01*
X143555000Y-125967929D02*
X143555000Y-126365000D01*
X141775000Y-125967929D02*
X141775000Y-126365000D01*
X141015000Y-125967929D02*
X141015000Y-126365000D01*
X139235000Y-125967929D02*
X139235000Y-126365000D01*
X138475000Y-125967929D02*
X138475000Y-126365000D01*
X136695000Y-125967929D02*
X136695000Y-126365000D01*
X135935000Y-125967929D02*
X135935000Y-126365000D01*
X134155000Y-125967929D02*
X134155000Y-126365000D01*
X133395000Y-125967929D02*
X133395000Y-126365000D01*
X131615000Y-125967929D02*
X131615000Y-126365000D01*
X130855000Y-125967929D02*
X130855000Y-126365000D01*
X129075000Y-125967929D02*
X129075000Y-126365000D01*
X128315000Y-125967929D02*
X128315000Y-126365000D01*
X146855000Y-126035000D02*
X146855000Y-126365000D01*
X146095000Y-126035000D02*
X146095000Y-126365000D01*
X147805000Y-126365000D02*
X127365000Y-126365000D01*
X145205000Y-126365000D02*
X145205000Y-129025000D01*
X142665000Y-126365000D02*
X142665000Y-129025000D01*
X140125000Y-126365000D02*
X140125000Y-129025000D01*
X137585000Y-126365000D02*
X137585000Y-129025000D01*
X135045000Y-126365000D02*
X135045000Y-129025000D01*
X132505000Y-126365000D02*
X132505000Y-129025000D01*
X129965000Y-126365000D02*
X129965000Y-129025000D01*
X127365000Y-126365000D02*
X127365000Y-129025000D01*
X147805000Y-129025000D02*
X147805000Y-126365000D01*
X146855000Y-129025000D02*
X146855000Y-135025000D01*
X146795000Y-129025000D02*
X146795000Y-135025000D01*
X146675000Y-129025000D02*
X146675000Y-135025000D01*
X146555000Y-129025000D02*
X146555000Y-135025000D01*
X146435000Y-129025000D02*
X146435000Y-135025000D01*
X146315000Y-129025000D02*
X146315000Y-135025000D01*
X146195000Y-129025000D02*
X146195000Y-135025000D01*
X144315000Y-129025000D02*
X144315000Y-135025000D01*
X141775000Y-129025000D02*
X141775000Y-135025000D01*
X139235000Y-129025000D02*
X139235000Y-135025000D01*
X136695000Y-129025000D02*
X136695000Y-135025000D01*
X134155000Y-129025000D02*
X134155000Y-135025000D01*
X131615000Y-129025000D02*
X131615000Y-135025000D01*
X129075000Y-129025000D02*
X129075000Y-135025000D01*
X127365000Y-129025000D02*
X147805000Y-129025000D01*
X146855000Y-135025000D02*
X146095000Y-135025000D01*
X146095000Y-135025000D02*
X146095000Y-129025000D01*
X144315000Y-135025000D02*
X143555000Y-135025000D01*
X143555000Y-135025000D02*
X143555000Y-129025000D01*
X141775000Y-135025000D02*
X141015000Y-135025000D01*
X141015000Y-135025000D02*
X141015000Y-129025000D01*
X139235000Y-135025000D02*
X138475000Y-135025000D01*
X138475000Y-135025000D02*
X138475000Y-129025000D01*
X136695000Y-135025000D02*
X135935000Y-135025000D01*
X135935000Y-135025000D02*
X135935000Y-129025000D01*
X134155000Y-135025000D02*
X133395000Y-135025000D01*
X133395000Y-135025000D02*
X133395000Y-129025000D01*
X131615000Y-135025000D02*
X130855000Y-135025000D01*
X130855000Y-135025000D02*
X130855000Y-129025000D01*
X129075000Y-135025000D02*
X128315000Y-135025000D01*
X128315000Y-135025000D02*
X128315000Y-129025000D01*
X108170000Y-71860000D02*
X108170000Y-122900000D01*
X108170000Y-122900000D02*
X126070000Y-122900000D01*
X110660000Y-71920000D02*
X110660000Y-122840000D01*
X110660000Y-122840000D02*
X123580000Y-122840000D01*
X116120000Y-71920000D02*
X110660000Y-71920000D01*
X123580000Y-71920000D02*
X118120000Y-71920000D01*
X123580000Y-122840000D02*
X123580000Y-71920000D01*
X126070000Y-71860000D02*
X108170000Y-71860000D01*
X126070000Y-122900000D02*
X126070000Y-71860000D01*
X116120000Y-71920000D02*
G75*
G03*
X118120000Y-71920000I1000000J0D01*
G01*
X140545000Y-71735000D02*
X140545000Y-122775000D01*
X140545000Y-122775000D02*
X158445000Y-122775000D01*
X143035000Y-71795000D02*
X143035000Y-122715000D01*
X143035000Y-122715000D02*
X155955000Y-122715000D01*
X148495000Y-71795000D02*
X143035000Y-71795000D01*
X155955000Y-71795000D02*
X150495000Y-71795000D01*
X155955000Y-122715000D02*
X155955000Y-71795000D01*
X158445000Y-71735000D02*
X140545000Y-71735000D01*
X158445000Y-122775000D02*
X158445000Y-71735000D01*
X148495000Y-71795000D02*
G75*
G03*
X150495000Y-71795000I1000000J0D01*
G01*
X146871000Y-87330000D02*
X148129000Y-87330000D01*
X146871000Y-89170000D02*
X148129000Y-89170000D01*
X128570000Y-96010000D02*
X128570000Y-121650000D01*
X128570000Y-121650000D02*
X138850000Y-121650000D01*
X131060000Y-96070000D02*
X131060000Y-121590000D01*
X131060000Y-121590000D02*
X136360000Y-121590000D01*
X132710000Y-96070000D02*
X131060000Y-96070000D01*
X136360000Y-96070000D02*
X134710000Y-96070000D01*
X136360000Y-121590000D02*
X136360000Y-96070000D01*
X138850000Y-96010000D02*
X128570000Y-96010000D01*
X138850000Y-121650000D02*
X138850000Y-96010000D01*
X132710000Y-96070000D02*
G75*
G03*
X134710000Y-96070000I1000000J0D01*
G01*
X137429000Y-95320000D02*
X136171000Y-95320000D01*
X137429000Y-93480000D02*
X136171000Y-93480000D01*
X137129000Y-73170000D02*
X135871000Y-73170000D01*
X137129000Y-71330000D02*
X135871000Y-71330000D01*
X162560000Y-71120000D02*
X163830000Y-71120000D01*
X162560000Y-72390000D02*
X162560000Y-71120000D01*
X164872929Y-74550000D02*
X165327071Y-74550000D01*
X164872929Y-75310000D02*
X165327071Y-75310000D01*
X164872929Y-77090000D02*
X165327071Y-77090000D01*
X164872929Y-77850000D02*
X165327071Y-77850000D01*
X164872929Y-79630000D02*
X165327071Y-79630000D01*
X164872929Y-80390000D02*
X165327071Y-80390000D01*
X164872929Y-82170000D02*
X165327071Y-82170000D01*
X164872929Y-82930000D02*
X165327071Y-82930000D01*
X164872929Y-84710000D02*
X165327071Y-84710000D01*
X164872929Y-85470000D02*
X165327071Y-85470000D01*
X164872929Y-87250000D02*
X165327071Y-87250000D01*
X164872929Y-88010000D02*
X165327071Y-88010000D01*
X164872929Y-89790000D02*
X165327071Y-89790000D01*
X164872929Y-90550000D02*
X165327071Y-90550000D01*
X164872929Y-92330000D02*
X165327071Y-92330000D01*
X164872929Y-93090000D02*
X165327071Y-93090000D01*
X164872929Y-94870000D02*
X165327071Y-94870000D01*
X164872929Y-95630000D02*
X165327071Y-95630000D01*
X164872929Y-97410000D02*
X165327071Y-97410000D01*
X164872929Y-98170000D02*
X165327071Y-98170000D01*
X164872929Y-99950000D02*
X165327071Y-99950000D01*
X164872929Y-100710000D02*
X165327071Y-100710000D01*
X164872929Y-102490000D02*
X165327071Y-102490000D01*
X164872929Y-103250000D02*
X165327071Y-103250000D01*
X164872929Y-105030000D02*
X165327071Y-105030000D01*
X164872929Y-105790000D02*
X165327071Y-105790000D01*
X164872929Y-107570000D02*
X165327071Y-107570000D01*
X164872929Y-108330000D02*
X165327071Y-108330000D01*
X164872929Y-110110000D02*
X165327071Y-110110000D01*
X164872929Y-110870000D02*
X165327071Y-110870000D01*
X164872929Y-112650000D02*
X165327071Y-112650000D01*
X164872929Y-113410000D02*
X165327071Y-113410000D01*
X164872929Y-115190000D02*
X165327071Y-115190000D01*
X164872929Y-115950000D02*
X165327071Y-115950000D01*
X164872929Y-117730000D02*
X165327071Y-117730000D01*
X164872929Y-118490000D02*
X165327071Y-118490000D01*
X164872929Y-120270000D02*
X165327071Y-120270000D01*
X164872929Y-121030000D02*
X165327071Y-121030000D01*
X164940000Y-72010000D02*
X165327071Y-72010000D01*
X164940000Y-72770000D02*
X165327071Y-72770000D01*
X167412929Y-72010000D02*
X167810000Y-72010000D01*
X167412929Y-72770000D02*
X167810000Y-72770000D01*
X167412929Y-74550000D02*
X167810000Y-74550000D01*
X167412929Y-75310000D02*
X167810000Y-75310000D01*
X167412929Y-77090000D02*
X167810000Y-77090000D01*
X167412929Y-77850000D02*
X167810000Y-77850000D01*
X167412929Y-79630000D02*
X167810000Y-79630000D01*
X167412929Y-80390000D02*
X167810000Y-80390000D01*
X167412929Y-82170000D02*
X167810000Y-82170000D01*
X167412929Y-82930000D02*
X167810000Y-82930000D01*
X167412929Y-84710000D02*
X167810000Y-84710000D01*
X167412929Y-85470000D02*
X167810000Y-85470000D01*
X167412929Y-87250000D02*
X167810000Y-87250000D01*
X167412929Y-88010000D02*
X167810000Y-88010000D01*
X167412929Y-89790000D02*
X167810000Y-89790000D01*
X167412929Y-90550000D02*
X167810000Y-90550000D01*
X167412929Y-92330000D02*
X167810000Y-92330000D01*
X167412929Y-93090000D02*
X167810000Y-93090000D01*
X167412929Y-94870000D02*
X167810000Y-94870000D01*
X167412929Y-95630000D02*
X167810000Y-95630000D01*
X167412929Y-97410000D02*
X167810000Y-97410000D01*
X167412929Y-98170000D02*
X167810000Y-98170000D01*
X167412929Y-99950000D02*
X167810000Y-99950000D01*
X167412929Y-100710000D02*
X167810000Y-100710000D01*
X167412929Y-102490000D02*
X167810000Y-102490000D01*
X167412929Y-103250000D02*
X167810000Y-103250000D01*
X167412929Y-105030000D02*
X167810000Y-105030000D01*
X167412929Y-105790000D02*
X167810000Y-105790000D01*
X167412929Y-107570000D02*
X167810000Y-107570000D01*
X167412929Y-108330000D02*
X167810000Y-108330000D01*
X167412929Y-110110000D02*
X167810000Y-110110000D01*
X167412929Y-110870000D02*
X167810000Y-110870000D01*
X167412929Y-112650000D02*
X167810000Y-112650000D01*
X167412929Y-113410000D02*
X167810000Y-113410000D01*
X167412929Y-115190000D02*
X167810000Y-115190000D01*
X167412929Y-115950000D02*
X167810000Y-115950000D01*
X167412929Y-117730000D02*
X167810000Y-117730000D01*
X167412929Y-118490000D02*
X167810000Y-118490000D01*
X167412929Y-120270000D02*
X167810000Y-120270000D01*
X167412929Y-121030000D02*
X167810000Y-121030000D01*
X167810000Y-71060000D02*
X167810000Y-121980000D01*
X167810000Y-73660000D02*
X170470000Y-73660000D01*
X167810000Y-76200000D02*
X170470000Y-76200000D01*
X167810000Y-78740000D02*
X170470000Y-78740000D01*
X167810000Y-81280000D02*
X170470000Y-81280000D01*
X167810000Y-83820000D02*
X170470000Y-83820000D01*
X167810000Y-86360000D02*
X170470000Y-86360000D01*
X167810000Y-88900000D02*
X170470000Y-88900000D01*
X167810000Y-91440000D02*
X170470000Y-91440000D01*
X167810000Y-93980000D02*
X170470000Y-93980000D01*
X167810000Y-96520000D02*
X170470000Y-96520000D01*
X167810000Y-99060000D02*
X170470000Y-99060000D01*
X167810000Y-101600000D02*
X170470000Y-101600000D01*
X167810000Y-104140000D02*
X170470000Y-104140000D01*
X167810000Y-106680000D02*
X170470000Y-106680000D01*
X167810000Y-109220000D02*
X170470000Y-109220000D01*
X167810000Y-111760000D02*
X170470000Y-111760000D01*
X167810000Y-114300000D02*
X170470000Y-114300000D01*
X167810000Y-116840000D02*
X170470000Y-116840000D01*
X167810000Y-119380000D02*
X170470000Y-119380000D01*
X167810000Y-121980000D02*
X170470000Y-121980000D01*
X170470000Y-71060000D02*
X167810000Y-71060000D01*
X170470000Y-72010000D02*
X176470000Y-72010000D01*
X170470000Y-72070000D02*
X176470000Y-72070000D01*
X170470000Y-72190000D02*
X176470000Y-72190000D01*
X170470000Y-72310000D02*
X176470000Y-72310000D01*
X170470000Y-72430000D02*
X176470000Y-72430000D01*
X170470000Y-72550000D02*
X176470000Y-72550000D01*
X170470000Y-72670000D02*
X176470000Y-72670000D01*
X170470000Y-74550000D02*
X176470000Y-74550000D01*
X170470000Y-77090000D02*
X176470000Y-77090000D01*
X170470000Y-79630000D02*
X176470000Y-79630000D01*
X170470000Y-82170000D02*
X176470000Y-82170000D01*
X170470000Y-84710000D02*
X176470000Y-84710000D01*
X170470000Y-87250000D02*
X176470000Y-87250000D01*
X170470000Y-89790000D02*
X176470000Y-89790000D01*
X170470000Y-92330000D02*
X176470000Y-92330000D01*
X170470000Y-94870000D02*
X176470000Y-94870000D01*
X170470000Y-97410000D02*
X176470000Y-97410000D01*
X170470000Y-99950000D02*
X176470000Y-99950000D01*
X170470000Y-102490000D02*
X176470000Y-102490000D01*
X170470000Y-105030000D02*
X176470000Y-105030000D01*
X170470000Y-107570000D02*
X176470000Y-107570000D01*
X170470000Y-110110000D02*
X176470000Y-110110000D01*
X170470000Y-112650000D02*
X176470000Y-112650000D01*
X170470000Y-115190000D02*
X176470000Y-115190000D01*
X170470000Y-117730000D02*
X176470000Y-117730000D01*
X170470000Y-120270000D02*
X176470000Y-120270000D01*
X170470000Y-121980000D02*
X170470000Y-71060000D01*
X176470000Y-72010000D02*
X176470000Y-72770000D01*
X176470000Y-72770000D02*
X170470000Y-72770000D01*
X176470000Y-74550000D02*
X176470000Y-75310000D01*
X176470000Y-75310000D02*
X170470000Y-75310000D01*
X176470000Y-77090000D02*
X176470000Y-77850000D01*
X176470000Y-77850000D02*
X170470000Y-77850000D01*
X176470000Y-79630000D02*
X176470000Y-80390000D01*
X176470000Y-80390000D02*
X170470000Y-80390000D01*
X176470000Y-82170000D02*
X176470000Y-82930000D01*
X176470000Y-82930000D02*
X170470000Y-82930000D01*
X176470000Y-84710000D02*
X176470000Y-85470000D01*
X176470000Y-85470000D02*
X170470000Y-85470000D01*
X176470000Y-87250000D02*
X176470000Y-88010000D01*
X176470000Y-88010000D02*
X170470000Y-88010000D01*
X176470000Y-89790000D02*
X176470000Y-90550000D01*
X176470000Y-90550000D02*
X170470000Y-90550000D01*
X176470000Y-92330000D02*
X176470000Y-93090000D01*
X176470000Y-93090000D02*
X170470000Y-93090000D01*
X176470000Y-94870000D02*
X176470000Y-95630000D01*
X176470000Y-95630000D02*
X170470000Y-95630000D01*
X176470000Y-97410000D02*
X176470000Y-98170000D01*
X176470000Y-98170000D02*
X170470000Y-98170000D01*
X176470000Y-99950000D02*
X176470000Y-100710000D01*
X176470000Y-100710000D02*
X170470000Y-100710000D01*
X176470000Y-102490000D02*
X176470000Y-103250000D01*
X176470000Y-103250000D02*
X170470000Y-103250000D01*
X176470000Y-105030000D02*
X176470000Y-105790000D01*
X176470000Y-105790000D02*
X170470000Y-105790000D01*
X176470000Y-107570000D02*
X176470000Y-108330000D01*
X176470000Y-108330000D02*
X170470000Y-108330000D01*
X176470000Y-110110000D02*
X176470000Y-110870000D01*
X176470000Y-110870000D02*
X170470000Y-110870000D01*
X176470000Y-112650000D02*
X176470000Y-113410000D01*
X176470000Y-113410000D02*
X170470000Y-113410000D01*
X176470000Y-115190000D02*
X176470000Y-115950000D01*
X176470000Y-115950000D02*
X170470000Y-115950000D01*
X176470000Y-117730000D02*
X176470000Y-118490000D01*
X176470000Y-118490000D02*
X170470000Y-118490000D01*
X176470000Y-120270000D02*
X176470000Y-121030000D01*
X176470000Y-121030000D02*
X170470000Y-121030000D01*
X151910000Y-101040000D02*
X151910000Y-101810000D01*
X153280000Y-101810000D02*
X150540000Y-101810000D01*
X150540000Y-101810000D02*
X150540000Y-108350000D01*
X153280000Y-108350000D02*
X153280000Y-101810000D01*
X150540000Y-108350000D02*
X153280000Y-108350000D01*
X151910000Y-109120000D02*
X151910000Y-108350000D01*
X152150000Y-85540000D02*
X152150000Y-84770000D01*
X150780000Y-84770000D02*
X153520000Y-84770000D01*
X153520000Y-84770000D02*
X153520000Y-78230000D01*
X150780000Y-78230000D02*
X150780000Y-84770000D01*
X153520000Y-78230000D02*
X150780000Y-78230000D01*
X152150000Y-77460000D02*
X152150000Y-78230000D01*
X146500000Y-100960000D02*
X146500000Y-101730000D01*
X147870000Y-101730000D02*
X145130000Y-101730000D01*
X145130000Y-101730000D02*
X145130000Y-108270000D01*
X147870000Y-108270000D02*
X147870000Y-101730000D01*
X145130000Y-108270000D02*
X147870000Y-108270000D01*
X146500000Y-109040000D02*
X146500000Y-108270000D01*
X166370000Y-123730000D02*
X166370000Y-125000000D01*
X165100000Y-123730000D02*
X166370000Y-123730000D01*
X162940000Y-126042929D02*
X162940000Y-126440000D01*
X162180000Y-126042929D02*
X162180000Y-126440000D01*
X160400000Y-126042929D02*
X160400000Y-126440000D01*
X159640000Y-126042929D02*
X159640000Y-126440000D01*
X157860000Y-126042929D02*
X157860000Y-126440000D01*
X157100000Y-126042929D02*
X157100000Y-126440000D01*
X155320000Y-126042929D02*
X155320000Y-126440000D01*
X154560000Y-126042929D02*
X154560000Y-126440000D01*
X152780000Y-126042929D02*
X152780000Y-126440000D01*
X152020000Y-126042929D02*
X152020000Y-126440000D01*
X165480000Y-126110000D02*
X165480000Y-126440000D01*
X164720000Y-126110000D02*
X164720000Y-126440000D01*
X166430000Y-126440000D02*
X151070000Y-126440000D01*
X163830000Y-126440000D02*
X163830000Y-129100000D01*
X161290000Y-126440000D02*
X161290000Y-129100000D01*
X158750000Y-126440000D02*
X158750000Y-129100000D01*
X156210000Y-126440000D02*
X156210000Y-129100000D01*
X153670000Y-126440000D02*
X153670000Y-129100000D01*
X151070000Y-126440000D02*
X151070000Y-129100000D01*
X166430000Y-129100000D02*
X166430000Y-126440000D01*
X165480000Y-129100000D02*
X165480000Y-135100000D01*
X165420000Y-129100000D02*
X165420000Y-135100000D01*
X165300000Y-129100000D02*
X165300000Y-135100000D01*
X165180000Y-129100000D02*
X165180000Y-135100000D01*
X165060000Y-129100000D02*
X165060000Y-135100000D01*
X164940000Y-129100000D02*
X164940000Y-135100000D01*
X164820000Y-129100000D02*
X164820000Y-135100000D01*
X162940000Y-129100000D02*
X162940000Y-135100000D01*
X160400000Y-129100000D02*
X160400000Y-135100000D01*
X157860000Y-129100000D02*
X157860000Y-135100000D01*
X155320000Y-129100000D02*
X155320000Y-135100000D01*
X152780000Y-129100000D02*
X152780000Y-135100000D01*
X151070000Y-129100000D02*
X166430000Y-129100000D01*
X165480000Y-135100000D02*
X164720000Y-135100000D01*
X164720000Y-135100000D02*
X164720000Y-129100000D01*
X162940000Y-135100000D02*
X162180000Y-135100000D01*
X162180000Y-135100000D02*
X162180000Y-129100000D01*
X160400000Y-135100000D02*
X159640000Y-135100000D01*
X159640000Y-135100000D02*
X159640000Y-129100000D01*
X157860000Y-135100000D02*
X157100000Y-135100000D01*
X157100000Y-135100000D02*
X157100000Y-129100000D01*
X155320000Y-135100000D02*
X154560000Y-135100000D01*
X154560000Y-135100000D02*
X154560000Y-129100000D01*
X152780000Y-135100000D02*
X152020000Y-135100000D01*
X152020000Y-135100000D02*
X152020000Y-129100000D01*
%LPC*%
D13*
X129749999Y-75249999D03*
D14*
X129749999Y-77789999D03*
X129749999Y-80329999D03*
X129749999Y-82869999D03*
X129749999Y-85409999D03*
X129749999Y-87949999D03*
X129749999Y-90489999D03*
X137369999Y-90489999D03*
X137369999Y-87949999D03*
X137369999Y-85409999D03*
X137369999Y-82869999D03*
X137369999Y-80329999D03*
X137369999Y-77789999D03*
X137369999Y-75249999D03*
D15*
X146474999Y-124924999D03*
D16*
X143934999Y-124924999D03*
X141394999Y-124924999D03*
X138854999Y-124924999D03*
X136314999Y-124924999D03*
X133774999Y-124924999D03*
X131234999Y-124924999D03*
X128694999Y-124924999D03*
D13*
X109499999Y-73249999D03*
D14*
X109499999Y-75789999D03*
X109499999Y-78329999D03*
X109499999Y-80869999D03*
X109499999Y-83409999D03*
X109499999Y-85949999D03*
X109499999Y-88489999D03*
X109499999Y-91029999D03*
X109499999Y-93569999D03*
X109499999Y-96109999D03*
X109499999Y-98649999D03*
X109499999Y-101189999D03*
X109499999Y-103729999D03*
X109499999Y-106269999D03*
X109499999Y-108809999D03*
X109499999Y-111349999D03*
X109499999Y-113889999D03*
X109499999Y-116429999D03*
X109499999Y-118969999D03*
X109499999Y-121509999D03*
X124739999Y-121509999D03*
X124739999Y-118969999D03*
X124739999Y-116429999D03*
X124739999Y-113889999D03*
X124739999Y-111349999D03*
X124739999Y-108809999D03*
X124739999Y-106269999D03*
X124739999Y-103729999D03*
X124739999Y-101189999D03*
X124739999Y-98649999D03*
X124739999Y-96109999D03*
X124739999Y-93569999D03*
X124739999Y-91029999D03*
X124739999Y-88489999D03*
X124739999Y-85949999D03*
X124739999Y-83409999D03*
X124739999Y-80869999D03*
X124739999Y-78329999D03*
X124739999Y-75789999D03*
X124739999Y-73249999D03*
D13*
X141874999Y-73124999D03*
D14*
X141874999Y-75664999D03*
X141874999Y-78204999D03*
X141874999Y-80744999D03*
X141874999Y-83284999D03*
X141874999Y-85824999D03*
X141874999Y-88364999D03*
X141874999Y-90904999D03*
X141874999Y-93444999D03*
X141874999Y-95984999D03*
X141874999Y-98524999D03*
X141874999Y-101064999D03*
X141874999Y-103604999D03*
X141874999Y-106144999D03*
X141874999Y-108684999D03*
X141874999Y-111224999D03*
X141874999Y-113764999D03*
X141874999Y-116304999D03*
X141874999Y-118844999D03*
X141874999Y-121384999D03*
X157114999Y-121384999D03*
X157114999Y-118844999D03*
X157114999Y-116304999D03*
X157114999Y-113764999D03*
X157114999Y-111224999D03*
X157114999Y-108684999D03*
X157114999Y-106144999D03*
X157114999Y-103604999D03*
X157114999Y-101064999D03*
X157114999Y-98524999D03*
X157114999Y-95984999D03*
X157114999Y-93444999D03*
X157114999Y-90904999D03*
X157114999Y-88364999D03*
X157114999Y-85824999D03*
X157114999Y-83284999D03*
X157114999Y-80744999D03*
X157114999Y-78204999D03*
X157114999Y-75664999D03*
X157114999Y-73124999D03*
D17*
X146250000Y-88250000D03*
X148750000Y-88250000D03*
D13*
X129899999Y-97399999D03*
D14*
X129899999Y-99939999D03*
X129899999Y-102479999D03*
X129899999Y-105019999D03*
X129899999Y-107559999D03*
X129899999Y-110099999D03*
X129899999Y-112639999D03*
X129899999Y-115179999D03*
X129899999Y-117719999D03*
X129899999Y-120259999D03*
X137519999Y-120259999D03*
X137519999Y-117719999D03*
X137519999Y-115179999D03*
X137519999Y-112639999D03*
X137519999Y-110099999D03*
X137519999Y-107559999D03*
X137519999Y-105019999D03*
X137519999Y-102479999D03*
X137519999Y-99939999D03*
X137519999Y-97399999D03*
D17*
X138050000Y-94400000D03*
X135550000Y-94400000D03*
X137750000Y-72250000D03*
X135250000Y-72250000D03*
D15*
X163829999Y-72389999D03*
D16*
X166369999Y-72389999D03*
X163829999Y-74929999D03*
X166369999Y-74929999D03*
X163829999Y-77469999D03*
X166369999Y-77469999D03*
X163829999Y-80009999D03*
X166369999Y-80009999D03*
X163829999Y-82549999D03*
X166369999Y-82549999D03*
X163829999Y-85089999D03*
X166369999Y-85089999D03*
X163829999Y-87629999D03*
X166369999Y-87629999D03*
X163829999Y-90169999D03*
X166369999Y-90169999D03*
X163829999Y-92709999D03*
X166369999Y-92709999D03*
X163829999Y-95249999D03*
X166369999Y-95249999D03*
X163829999Y-97789999D03*
X166369999Y-97789999D03*
X163829999Y-100329999D03*
X166369999Y-100329999D03*
X163829999Y-102869999D03*
X166369999Y-102869999D03*
X163829999Y-105409999D03*
X166369999Y-105409999D03*
X163829999Y-107949999D03*
X166369999Y-107949999D03*
X163829999Y-110489999D03*
X166369999Y-110489999D03*
X163829999Y-113029999D03*
X166369999Y-113029999D03*
X163829999Y-115569999D03*
X166369999Y-115569999D03*
X163829999Y-118109999D03*
X166369999Y-118109999D03*
X163829999Y-120649999D03*
X166369999Y-120649999D03*
D17*
X151910000Y-100000000D03*
D14*
X151909999Y-110159999D03*
D17*
X152150000Y-86580000D03*
D14*
X152149999Y-76419999D03*
D17*
X146500000Y-99920000D03*
D14*
X146499999Y-110079999D03*
D15*
X165099999Y-124999999D03*
D16*
X162559999Y-124999999D03*
X160019999Y-124999999D03*
X157479999Y-124999999D03*
X154939999Y-124999999D03*
X152399999Y-124999999D03*
M02*
